<svg width="141" height="136" viewBox="0 0 141 136" fill="none" xmlns="http://www.w3.org/2000/svg">
<g clip-path="url(#clip0_82_101295)">
<rect x="0.330078" y="0.32959" width="140.267" height="135.56" rx="7.53114" fill="#333345"/>
<rect x="37.9858" y="41.751" width="207.106" height="131.795" rx="7.53114" fill="#1F1F2B"/>
<g clip-path="url(#clip1_82_101295)">
<path d="M50.9906 53.8138L50.0518 54.3558L49.5103 52.3335L50.9906 53.8138Z" fill="url(#paint0_radial_82_101295)"/>
<path d="M51.5325 52.875L50.9906 53.8138L49.5103 52.3335L51.5325 52.875Z" fill="url(#paint1_radial_82_101295)"/>
<path d="M56.5858 59.4095L55.1055 57.9291L56.0439 57.3872L56.5858 59.4095Z" fill="url(#paint2_radial_82_101295)"/>
<path d="M56.5857 59.4091L54.5635 58.8672L55.1054 57.9287L56.5857 59.4091Z" fill="url(#paint3_radial_82_101295)"/>
<path d="M56.5857 52.3335L55.1087 53.81L54.5684 52.8739L56.5857 52.3335Z" fill="url(#paint4_radial_82_101295)"/>
<path d="M56.5858 52.3335L56.0454 54.3508L55.1089 53.81L56.5858 52.3335Z" fill="url(#paint5_radial_82_101295)"/>
<path d="M51.5276 58.8692L49.5103 59.4095L50.9868 57.9326L51.5276 58.8692Z" fill="url(#paint6_radial_82_101295)"/>
<path d="M50.9868 57.9325L49.5103 59.4094L50.0506 57.3921L50.9868 57.9325Z" fill="url(#paint7_radial_82_101295)"/>
<path d="M53.285 57.6184C53.2503 57.6211 53.2161 57.6234 53.1814 57.626C53.1685 57.6272 53.1544 57.6272 53.1407 57.6272C54.0689 57.5784 54.8064 56.8116 54.8064 55.872C54.8064 55.8412 54.8064 55.8108 54.8037 55.78C54.8037 55.7659 54.8037 55.7518 54.8026 55.7377C54.7999 55.7031 54.7977 55.6688 54.795 55.6342C54.6325 53.8738 52.6795 52.8231 51.1033 53.7333L50.9807 53.8037L52.2156 51.665L54.5511 54.0005C55.8331 55.2826 55.0188 57.4354 53.2853 57.618L53.285 57.6184Z" fill="url(#paint8_radial_82_101295)"/>
<path d="M53.2848 57.6184C55.0182 57.4358 55.8326 55.283 54.5505 54.0009L52.2151 51.6654L53.047 50.2231L55.1857 53.9263C56.0971 55.5026 55.0453 57.4559 53.2848 57.618V57.6184Z" fill="url(#paint9_radial_82_101295)"/>
<path d="M52.811 54.1245C52.8457 54.1218 52.8799 54.1195 52.9145 54.1169C52.9275 54.1157 52.9416 54.1157 52.9553 54.1157C52.0271 54.1644 51.2896 54.9312 51.2896 55.8708C51.2896 55.9017 51.2896 55.9321 51.2923 55.9629C51.2923 55.977 51.2923 55.9911 51.2934 56.0052C51.2961 56.0398 51.2983 56.074 51.301 56.1087C51.4635 57.8691 53.4165 58.9198 54.9927 58.0095L55.1153 57.9391L53.8804 60.0778L51.5449 57.7424C50.2629 56.4603 51.0772 54.3075 52.8107 54.1249L52.811 54.1245Z" fill="url(#paint10_radial_82_101295)"/>
<path d="M52.811 54.1245C51.0776 54.3072 50.2632 56.46 51.5453 57.742L53.8808 60.0775L53.0485 61.5194L50.9098 57.8163C49.9984 56.24 51.0502 54.2866 52.8107 54.1245H52.811Z" fill="url(#paint11_radial_82_101295)"/>
<path d="M54.7949 55.6348C54.7976 55.6694 54.7999 55.7036 54.8025 55.7383C54.8037 55.7512 54.8037 55.7653 54.8037 55.779C54.755 54.8508 53.9881 54.1133 53.0486 54.1133C53.0177 54.1133 52.9873 54.1133 52.9565 54.116C52.9424 54.116 52.9283 54.116 52.9142 54.1171C52.8796 54.1198 52.8453 54.1221 52.8107 54.1247C51.0503 54.2872 49.9996 56.2402 50.9099 57.8165L50.9803 57.939L48.8416 56.7041L51.177 54.3687C52.4591 53.0866 54.6119 53.901 54.7945 55.6344L54.7949 55.6348Z" fill="url(#paint12_radial_82_101295)"/>
<path d="M54.7949 55.6344C54.6123 53.901 52.4595 53.0866 51.1774 54.3687L48.842 56.7041L47.3997 55.8722L51.1028 53.7335C52.6791 52.8221 54.6324 53.874 54.7946 55.6344H54.7949Z" fill="url(#paint13_radial_82_101295)"/>
<path d="M51.301 56.1084C51.2983 56.0738 51.296 56.0396 51.2934 56.0049C51.2922 55.992 51.2922 55.9779 51.2922 55.9642C51.3409 56.8924 52.1078 57.6299 53.0473 57.6299C53.0782 57.6299 53.1086 57.6299 53.1394 57.6272C53.1535 57.6272 53.1676 57.6272 53.1817 57.6261C53.2163 57.6234 53.2506 57.6211 53.2852 57.6185C55.0456 57.456 56.0963 55.503 55.1861 53.9267L55.1156 53.8042L57.2544 55.0391L54.9189 57.3745C53.6368 58.6566 51.484 57.8422 51.3014 56.1088L51.301 56.1084Z" fill="url(#paint14_radial_82_101295)"/>
<path d="M51.301 56.1083C51.4837 57.8417 53.6365 58.6561 54.9186 57.374L57.254 55.0386L58.6959 55.8708L54.9928 58.0095C53.4165 58.921 51.4631 57.8691 51.301 56.1087V56.1083Z" fill="url(#paint15_radial_82_101295)"/>
</g>
<rect x="94.4692" y="53.0474" width="20.7106" height="5.64835" rx="1.88278" fill="#2C2C41"/>
<rect x="66.2275" y="53.0474" width="20.7106" height="5.64835" rx="1.88278" fill="#2C2C41"/>
<rect x="47" y="75.6411" width="68.1799" height="18.8278" rx="1.88278" fill="url(#paint16_linear_82_101295)"/>
<rect x="47" y="98.4688" width="68.1799" height="18.8278" rx="1.88278" fill="url(#paint17_linear_82_101295)"/>
<rect x="47" y="121.297" width="68.1799" height="18.8278" rx="1.88278" fill="url(#paint18_linear_82_101295)"/>
<rect x="122.711" y="53.0474" width="20.7106" height="5.64835" rx="1.88278" fill="#2C2C41"/>
</g>
<rect x="0.800774" y="0.800286" width="139.326" height="134.619" rx="7.06044" stroke="#242436" stroke-width="0.941392"/>
<defs>
<radialGradient id="paint0_radial_82_101295" cx="0" cy="0" r="1" gradientUnits="userSpaceOnUse" gradientTransform="translate(49.1274 50.7618) scale(4.47073)">
<stop stop-color="#FFE2FF"/>
<stop offset="0.03" stop-color="#FAD2FF"/>
<stop offset="0.1" stop-color="#F0B0FF"/>
<stop offset="0.17" stop-color="#E896FF"/>
<stop offset="0.25" stop-color="#E383FF"/>
<stop offset="0.32" stop-color="#E077FF"/>
<stop offset="0.41" stop-color="#DF74FF"/>
<stop offset="0.73" stop-color="#673EC0"/>
<stop offset="1" stop-color="#562495"/>
</radialGradient>
<radialGradient id="paint1_radial_82_101295" cx="0" cy="0" r="1" gradientUnits="userSpaceOnUse" gradientTransform="translate(49.4893 52.2981) scale(3.81808)">
<stop stop-color="#FFE2FF"/>
<stop offset="0.03" stop-color="#FAD2FF"/>
<stop offset="0.1" stop-color="#F0B0FF"/>
<stop offset="0.17" stop-color="#E896FF"/>
<stop offset="0.25" stop-color="#E383FF"/>
<stop offset="0.32" stop-color="#E077FF"/>
<stop offset="0.41" stop-color="#DF74FF"/>
<stop offset="0.73" stop-color="#673EC0"/>
<stop offset="1" stop-color="#562495"/>
</radialGradient>
<radialGradient id="paint2_radial_82_101295" cx="0" cy="0" r="1" gradientUnits="userSpaceOnUse" gradientTransform="translate(56.5828 59.4114) scale(3.42573)">
<stop stop-color="#FFE2FF"/>
<stop offset="0.03" stop-color="#FAD2FF"/>
<stop offset="0.1" stop-color="#F0B0FF"/>
<stop offset="0.17" stop-color="#E896FF"/>
<stop offset="0.25" stop-color="#E383FF"/>
<stop offset="0.32" stop-color="#E077FF"/>
<stop offset="0.41" stop-color="#DF74FF"/>
<stop offset="0.73" stop-color="#673EC0"/>
<stop offset="1" stop-color="#562495"/>
</radialGradient>
<radialGradient id="paint3_radial_82_101295" cx="0" cy="0" r="1" gradientUnits="userSpaceOnUse" gradientTransform="translate(58.0307 60.722) scale(4.84862)">
<stop stop-color="#FFE2FF"/>
<stop offset="0.03" stop-color="#FAD2FF"/>
<stop offset="0.1" stop-color="#F0B0FF"/>
<stop offset="0.17" stop-color="#E896FF"/>
<stop offset="0.25" stop-color="#E383FF"/>
<stop offset="0.32" stop-color="#E077FF"/>
<stop offset="0.41" stop-color="#DF74FF"/>
<stop offset="0.73" stop-color="#673EC0"/>
<stop offset="1" stop-color="#562495"/>
</radialGradient>
<radialGradient id="paint4_radial_82_101295" cx="0" cy="0" r="1" gradientUnits="userSpaceOnUse" gradientTransform="translate(56.5826 52.3567) scale(3.88925 3.88925)">
<stop stop-color="#FFE2FF"/>
<stop offset="0.03" stop-color="#FAD2FF"/>
<stop offset="0.1" stop-color="#F0B0FF"/>
<stop offset="0.17" stop-color="#E896FF"/>
<stop offset="0.25" stop-color="#E383FF"/>
<stop offset="0.32" stop-color="#E077FF"/>
<stop offset="0.41" stop-color="#DF74FF"/>
<stop offset="0.73" stop-color="#673EC0"/>
<stop offset="1" stop-color="#562495"/>
</radialGradient>
<radialGradient id="paint5_radial_82_101295" cx="0" cy="0" r="1" gradientUnits="userSpaceOnUse" gradientTransform="translate(57.0706 51.5564) scale(4.11644)">
<stop stop-color="#FFE2FF"/>
<stop offset="0.03" stop-color="#FAD2FF"/>
<stop offset="0.1" stop-color="#F0B0FF"/>
<stop offset="0.17" stop-color="#E896FF"/>
<stop offset="0.25" stop-color="#E383FF"/>
<stop offset="0.32" stop-color="#E077FF"/>
<stop offset="0.41" stop-color="#DF74FF"/>
<stop offset="0.73" stop-color="#673EC0"/>
<stop offset="1" stop-color="#562495"/>
</radialGradient>
<radialGradient id="paint6_radial_82_101295" cx="0" cy="0" r="1" gradientUnits="userSpaceOnUse" gradientTransform="translate(48.1327 60.3777) scale(4.91103)">
<stop stop-color="#FFE2FF"/>
<stop offset="0.03" stop-color="#FAD2FF"/>
<stop offset="0.1" stop-color="#F0B0FF"/>
<stop offset="0.17" stop-color="#E896FF"/>
<stop offset="0.25" stop-color="#E383FF"/>
<stop offset="0.32" stop-color="#E077FF"/>
<stop offset="0.41" stop-color="#DF74FF"/>
<stop offset="0.73" stop-color="#673EC0"/>
<stop offset="1" stop-color="#562495"/>
</radialGradient>
<radialGradient id="paint7_radial_82_101295" cx="0" cy="0" r="1" gradientUnits="userSpaceOnUse" gradientTransform="translate(49.4893 59.4113) scale(3.23013 3.23013)">
<stop stop-color="#FFE2FF"/>
<stop offset="0.03" stop-color="#FAD2FF"/>
<stop offset="0.1" stop-color="#F0B0FF"/>
<stop offset="0.17" stop-color="#E896FF"/>
<stop offset="0.25" stop-color="#E383FF"/>
<stop offset="0.32" stop-color="#E077FF"/>
<stop offset="0.41" stop-color="#DF74FF"/>
<stop offset="0.73" stop-color="#673EC0"/>
<stop offset="1" stop-color="#562495"/>
</radialGradient>
<radialGradient id="paint8_radial_82_101295" cx="0" cy="0" r="1" gradientUnits="userSpaceOnUse" gradientTransform="translate(47.9397 55.1909) scale(8.98028)">
<stop stop-color="#FFE2FF"/>
<stop offset="0.03" stop-color="#FAD2FF"/>
<stop offset="0.1" stop-color="#F0B0FF"/>
<stop offset="0.17" stop-color="#E896FF"/>
<stop offset="0.25" stop-color="#E383FF"/>
<stop offset="0.32" stop-color="#E077FF"/>
<stop offset="0.41" stop-color="#DF74FF"/>
<stop offset="0.73" stop-color="#673EC0"/>
<stop offset="1" stop-color="#562495"/>
</radialGradient>
<radialGradient id="paint9_radial_82_101295" cx="0" cy="0" r="1" gradientUnits="userSpaceOnUse" gradientTransform="translate(53.1996 50.5474) scale(9.67555 9.67555)">
<stop stop-color="#FFE2FF"/>
<stop offset="0.03" stop-color="#FAD2FF"/>
<stop offset="0.1" stop-color="#F0B0FF"/>
<stop offset="0.17" stop-color="#E896FF"/>
<stop offset="0.25" stop-color="#E383FF"/>
<stop offset="0.32" stop-color="#E077FF"/>
<stop offset="0.41" stop-color="#DF74FF"/>
<stop offset="0.73" stop-color="#673EC0"/>
<stop offset="1" stop-color="#562495"/>
</radialGradient>
<radialGradient id="paint10_radial_82_101295" cx="0" cy="0" r="1" gradientUnits="userSpaceOnUse" gradientTransform="translate(53.9782 60.0052) scale(7.83177)">
<stop stop-color="#FFE2FF"/>
<stop offset="0.03" stop-color="#FAD2FF"/>
<stop offset="0.1" stop-color="#F0B0FF"/>
<stop offset="0.17" stop-color="#E896FF"/>
<stop offset="0.25" stop-color="#E383FF"/>
<stop offset="0.32" stop-color="#E077FF"/>
<stop offset="0.41" stop-color="#DF74FF"/>
<stop offset="0.73" stop-color="#673EC0"/>
<stop offset="1" stop-color="#562495"/>
</radialGradient>
<radialGradient id="paint11_radial_82_101295" cx="0" cy="0" r="1" gradientUnits="userSpaceOnUse" gradientTransform="translate(53.6323 68.8743) scale(14.977 14.977)">
<stop stop-color="#FFE2FF"/>
<stop offset="0.03" stop-color="#FAD2FF"/>
<stop offset="0.1" stop-color="#F0B0FF"/>
<stop offset="0.17" stop-color="#E896FF"/>
<stop offset="0.25" stop-color="#E383FF"/>
<stop offset="0.32" stop-color="#E077FF"/>
<stop offset="0.41" stop-color="#DF74FF"/>
<stop offset="0.73" stop-color="#673EC0"/>
<stop offset="1" stop-color="#562495"/>
</radialGradient>
<radialGradient id="paint12_radial_82_101295" cx="0" cy="0" r="1" gradientUnits="userSpaceOnUse" gradientTransform="translate(46.7204 62.0612) scale(10.4298 10.4298)">
<stop stop-color="#FFE2FF"/>
<stop offset="0.03" stop-color="#FAD2FF"/>
<stop offset="0.1" stop-color="#F0B0FF"/>
<stop offset="0.17" stop-color="#E896FF"/>
<stop offset="0.25" stop-color="#E383FF"/>
<stop offset="0.32" stop-color="#E077FF"/>
<stop offset="0.41" stop-color="#DF74FF"/>
<stop offset="0.73" stop-color="#673EC0"/>
<stop offset="1" stop-color="#562495"/>
</radialGradient>
<radialGradient id="paint13_radial_82_101295" cx="0" cy="0" r="1" gradientUnits="userSpaceOnUse" gradientTransform="translate(51.3273 53.6567) scale(7.68336)">
<stop stop-color="#FFE2FF"/>
<stop offset="0.03" stop-color="#FAD2FF"/>
<stop offset="0.1" stop-color="#F0B0FF"/>
<stop offset="0.17" stop-color="#E896FF"/>
<stop offset="0.25" stop-color="#E383FF"/>
<stop offset="0.32" stop-color="#E077FF"/>
<stop offset="0.41" stop-color="#DF74FF"/>
<stop offset="0.73" stop-color="#673EC0"/>
<stop offset="1" stop-color="#562495"/>
</radialGradient>
<radialGradient id="paint14_radial_82_101295" cx="0" cy="0" r="1" gradientUnits="userSpaceOnUse" gradientTransform="translate(57.1345 55.0071) scale(9.33153 9.33153)">
<stop stop-color="#FFE2FF"/>
<stop offset="0.03" stop-color="#FAD2FF"/>
<stop offset="0.1" stop-color="#F0B0FF"/>
<stop offset="0.17" stop-color="#E896FF"/>
<stop offset="0.25" stop-color="#E383FF"/>
<stop offset="0.32" stop-color="#E077FF"/>
<stop offset="0.41" stop-color="#DF74FF"/>
<stop offset="0.73" stop-color="#673EC0"/>
<stop offset="1" stop-color="#562495"/>
</radialGradient>
<radialGradient id="paint15_radial_82_101295" cx="0" cy="0" r="1" gradientUnits="userSpaceOnUse" gradientTransform="translate(56.5717 50.2478) scale(9.73568 9.73568)">
<stop stop-color="#FFE2FF"/>
<stop offset="0.03" stop-color="#FAD2FF"/>
<stop offset="0.1" stop-color="#F0B0FF"/>
<stop offset="0.17" stop-color="#E896FF"/>
<stop offset="0.25" stop-color="#E383FF"/>
<stop offset="0.32" stop-color="#E077FF"/>
<stop offset="0.41" stop-color="#DF74FF"/>
<stop offset="0.73" stop-color="#673EC0"/>
<stop offset="1" stop-color="#562495"/>
</radialGradient>
<linearGradient id="paint16_linear_82_101295" x1="80.7985" y1="76" x2="80.7985" y2="94" gradientUnits="userSpaceOnUse">
<stop stop-color="#27273D"/>
<stop offset="1" stop-color="#1F1F2B"/>
</linearGradient>
<linearGradient id="paint17_linear_82_101295" x1="80.7985" y1="98.8276" x2="80.7985" y2="116.828" gradientUnits="userSpaceOnUse">
<stop stop-color="#27273D"/>
<stop offset="1" stop-color="#1F1F2B"/>
</linearGradient>
<linearGradient id="paint18_linear_82_101295" x1="80.7985" y1="121.656" x2="80.7985" y2="139.656" gradientUnits="userSpaceOnUse">
<stop stop-color="#27273D"/>
<stop offset="1" stop-color="#1F1F2B"/>
</linearGradient>
<clipPath id="clip0_82_101295">
<rect x="0.330078" y="0.32959" width="140.267" height="135.56" rx="7.53114" fill="white"/>
</clipPath>
<clipPath id="clip1_82_101295">
<rect width="11.2967" height="11.2967" fill="white" transform="translate(47.3997 50.2231)"/>
</clipPath>
</defs>
</svg>
