<svg width="141" height="136" viewBox="0 0 141 136" fill="none" xmlns="http://www.w3.org/2000/svg">
<g clip-path="url(#clip0_82_101233)">
<rect x="0.659912" width="140.267" height="135.56" rx="7.53114" fill="#262635"/>
<rect x="38.3157" y="41.4214" width="207.106" height="131.795" rx="7.53114" fill="#12121A"/>
<g clip-path="url(#clip1_82_101233)">
<path d="M51.3204 53.4843L50.3816 54.0262L49.8401 52.0039L51.3204 53.4843Z" fill="url(#paint0_radial_82_101233)"/>
<path d="M51.8623 52.5454L51.3204 53.4843L49.8401 52.0039L51.8623 52.5454Z" fill="url(#paint1_radial_82_101233)"/>
<path d="M56.9157 59.0799L55.4353 57.5995L56.3737 57.0576L56.9157 59.0799Z" fill="url(#paint2_radial_82_101233)"/>
<path d="M56.9156 59.0795L54.8933 58.5376L55.4352 57.5991L56.9156 59.0795Z" fill="url(#paint3_radial_82_101233)"/>
<path d="M56.9155 52.0039L55.4386 53.4805L54.8982 52.5443L56.9155 52.0039Z" fill="url(#paint4_radial_82_101233)"/>
<path d="M56.9156 52.0039L56.3753 54.0212L55.4387 53.4805L56.9156 52.0039Z" fill="url(#paint5_radial_82_101233)"/>
<path d="M51.8574 58.5396L49.8401 59.08L51.3166 57.603L51.8574 58.5396Z" fill="url(#paint6_radial_82_101233)"/>
<path d="M51.3166 57.6029L49.8401 59.0798L50.3805 57.0625L51.3166 57.6029Z" fill="url(#paint7_radial_82_101233)"/>
<path d="M53.6148 57.2888C53.5802 57.2915 53.5459 57.2938 53.5113 57.2964C53.4983 57.2976 53.4843 57.2976 53.4706 57.2976C54.3987 57.2489 55.1362 56.482 55.1362 55.5425C55.1362 55.5116 55.1362 55.4812 55.1336 55.4504C55.1336 55.4363 55.1336 55.4222 55.1324 55.4081C55.1298 55.3735 55.1275 55.3392 55.1248 55.3046C54.9623 53.5442 53.0093 52.4935 51.4331 53.4038L51.3105 53.4742L52.5454 51.3354L54.8809 53.6709C56.163 54.953 55.3486 57.1058 53.6152 57.2884L53.6148 57.2888Z" fill="url(#paint8_radial_82_101233)"/>
<path d="M53.6147 57.2888C55.3481 57.1062 56.1625 54.9534 54.8804 53.6713L52.5449 51.3358L53.3768 49.8936L55.5155 53.5967C56.4269 55.173 55.3751 57.1263 53.6147 57.2885V57.2888Z" fill="url(#paint9_radial_82_101233)"/>
<path d="M53.1409 53.7949C53.1755 53.7922 53.2098 53.7899 53.2444 53.7873C53.2573 53.7861 53.2714 53.7861 53.2851 53.7861C52.3569 53.8348 51.6194 54.6017 51.6194 55.5412C51.6194 55.5721 51.6194 55.6025 51.6221 55.6333C51.6221 55.6474 51.6221 55.6615 51.6232 55.6756C51.6259 55.7102 51.6282 55.7445 51.6308 55.7791C51.7933 57.5395 53.7463 58.5902 55.3226 57.6799L55.4451 57.6095L54.2102 59.7482L51.8748 57.4128C50.5927 56.1307 51.4071 53.9779 53.1405 53.7953L53.1409 53.7949Z" fill="url(#paint10_radial_82_101233)"/>
<path d="M53.1409 53.7949C51.4075 53.9776 50.5931 56.1304 51.8752 57.4125L54.2106 59.7479L53.3783 61.1898L51.2396 57.4867C50.3282 55.9104 51.3801 53.957 53.1405 53.7949H53.1409Z" fill="url(#paint11_radial_82_101233)"/>
<path d="M55.1248 55.3052C55.1274 55.3398 55.1297 55.3741 55.1324 55.4087C55.1335 55.4216 55.1335 55.4357 55.1335 55.4494C55.0848 54.5212 54.318 53.7837 53.3784 53.7837C53.3476 53.7837 53.3171 53.7837 53.2863 53.7864C53.2722 53.7864 53.2581 53.7864 53.2441 53.7875C53.2094 53.7902 53.1752 53.7925 53.1406 53.7951C51.3801 53.9576 50.3294 55.9106 51.2397 57.4869L51.3101 57.6094L49.1714 56.3745L51.5068 54.0391C52.7889 52.757 54.9417 53.5714 55.1244 55.3048L55.1248 55.3052Z" fill="url(#paint12_radial_82_101233)"/>
<path d="M55.1248 55.3048C54.9421 53.5714 52.7893 52.757 51.5072 54.0391L49.1718 56.3745L47.7295 55.5426L51.4326 53.4039C53.0089 52.4925 54.9623 53.5444 55.1244 55.3048H55.1248Z" fill="url(#paint13_radial_82_101233)"/>
<path d="M51.6308 55.7789C51.6282 55.7442 51.6259 55.71 51.6232 55.6753C51.6221 55.6624 51.6221 55.6483 51.6221 55.6346C51.6708 56.5628 52.4376 57.3003 53.3772 57.3003C53.408 57.3003 53.4384 57.3003 53.4693 57.2976C53.4834 57.2976 53.4974 57.2976 53.5115 57.2965C53.5461 57.2938 53.5804 57.2916 53.615 57.2889C55.3755 57.1264 56.4262 55.1734 55.5159 53.5971L55.4455 53.4746L57.5842 54.7095L55.2487 57.045C53.9667 58.327 51.8139 57.5127 51.6312 55.7792L51.6308 55.7789Z" fill="url(#paint14_radial_82_101233)"/>
<path d="M51.6309 55.7787C51.8135 57.5121 53.9663 58.3265 55.2484 57.0444L57.5838 54.709L59.0258 55.5413L55.3226 57.68C53.7464 58.5914 51.793 57.5395 51.6309 55.7791V55.7787Z" fill="url(#paint15_radial_82_101233)"/>
</g>
<rect x="94.7991" y="52.7178" width="20.7106" height="5.64835" rx="1.88278" fill="#1B1B2D"/>
<rect x="66.5574" y="52.7178" width="20.7106" height="5.64835" rx="1.88278" fill="#1B1B2D"/>
<rect x="47.7295" y="75.3115" width="68.0506" height="18.8278" rx="1.88278" fill="url(#paint16_linear_82_101233)"/>
<rect x="47.7295" y="98.1392" width="68.0506" height="18.8278" rx="1.88278" fill="url(#paint17_linear_82_101233)"/>
<rect x="47.7295" y="120.967" width="68.0506" height="18.8278" rx="1.88278" fill="url(#paint18_linear_82_101233)"/>
<rect x="123.041" y="52.7178" width="20.7106" height="5.64835" rx="1.88278" fill="#1B1B2D"/>
</g>
<rect x="1.13061" y="0.470696" width="139.326" height="134.619" rx="7.06044" stroke="#242436" stroke-width="0.941392"/>
<defs>
<radialGradient id="paint0_radial_82_101233" cx="0" cy="0" r="1" gradientUnits="userSpaceOnUse" gradientTransform="translate(49.4573 50.4322) scale(4.47073)">
<stop stop-color="#FFE2FF"/>
<stop offset="0.03" stop-color="#FAD2FF"/>
<stop offset="0.1" stop-color="#F0B0FF"/>
<stop offset="0.17" stop-color="#E896FF"/>
<stop offset="0.25" stop-color="#E383FF"/>
<stop offset="0.32" stop-color="#E077FF"/>
<stop offset="0.41" stop-color="#DF74FF"/>
<stop offset="0.73" stop-color="#673EC0"/>
<stop offset="1" stop-color="#562495"/>
</radialGradient>
<radialGradient id="paint1_radial_82_101233" cx="0" cy="0" r="1" gradientUnits="userSpaceOnUse" gradientTransform="translate(49.8192 51.9685) scale(3.81808)">
<stop stop-color="#FFE2FF"/>
<stop offset="0.03" stop-color="#FAD2FF"/>
<stop offset="0.1" stop-color="#F0B0FF"/>
<stop offset="0.17" stop-color="#E896FF"/>
<stop offset="0.25" stop-color="#E383FF"/>
<stop offset="0.32" stop-color="#E077FF"/>
<stop offset="0.41" stop-color="#DF74FF"/>
<stop offset="0.73" stop-color="#673EC0"/>
<stop offset="1" stop-color="#562495"/>
</radialGradient>
<radialGradient id="paint2_radial_82_101233" cx="0" cy="0" r="1" gradientUnits="userSpaceOnUse" gradientTransform="translate(56.9126 59.0818) scale(3.42573)">
<stop stop-color="#FFE2FF"/>
<stop offset="0.03" stop-color="#FAD2FF"/>
<stop offset="0.1" stop-color="#F0B0FF"/>
<stop offset="0.17" stop-color="#E896FF"/>
<stop offset="0.25" stop-color="#E383FF"/>
<stop offset="0.32" stop-color="#E077FF"/>
<stop offset="0.41" stop-color="#DF74FF"/>
<stop offset="0.73" stop-color="#673EC0"/>
<stop offset="1" stop-color="#562495"/>
</radialGradient>
<radialGradient id="paint3_radial_82_101233" cx="0" cy="0" r="1" gradientUnits="userSpaceOnUse" gradientTransform="translate(58.3605 60.3924) scale(4.84862)">
<stop stop-color="#FFE2FF"/>
<stop offset="0.03" stop-color="#FAD2FF"/>
<stop offset="0.1" stop-color="#F0B0FF"/>
<stop offset="0.17" stop-color="#E896FF"/>
<stop offset="0.25" stop-color="#E383FF"/>
<stop offset="0.32" stop-color="#E077FF"/>
<stop offset="0.41" stop-color="#DF74FF"/>
<stop offset="0.73" stop-color="#673EC0"/>
<stop offset="1" stop-color="#562495"/>
</radialGradient>
<radialGradient id="paint4_radial_82_101233" cx="0" cy="0" r="1" gradientUnits="userSpaceOnUse" gradientTransform="translate(56.9125 52.0271) scale(3.88925 3.88925)">
<stop stop-color="#FFE2FF"/>
<stop offset="0.03" stop-color="#FAD2FF"/>
<stop offset="0.1" stop-color="#F0B0FF"/>
<stop offset="0.17" stop-color="#E896FF"/>
<stop offset="0.25" stop-color="#E383FF"/>
<stop offset="0.32" stop-color="#E077FF"/>
<stop offset="0.41" stop-color="#DF74FF"/>
<stop offset="0.73" stop-color="#673EC0"/>
<stop offset="1" stop-color="#562495"/>
</radialGradient>
<radialGradient id="paint5_radial_82_101233" cx="0" cy="0" r="1" gradientUnits="userSpaceOnUse" gradientTransform="translate(57.4005 51.2268) scale(4.11644)">
<stop stop-color="#FFE2FF"/>
<stop offset="0.03" stop-color="#FAD2FF"/>
<stop offset="0.1" stop-color="#F0B0FF"/>
<stop offset="0.17" stop-color="#E896FF"/>
<stop offset="0.25" stop-color="#E383FF"/>
<stop offset="0.32" stop-color="#E077FF"/>
<stop offset="0.41" stop-color="#DF74FF"/>
<stop offset="0.73" stop-color="#673EC0"/>
<stop offset="1" stop-color="#562495"/>
</radialGradient>
<radialGradient id="paint6_radial_82_101233" cx="0" cy="0" r="1" gradientUnits="userSpaceOnUse" gradientTransform="translate(48.4625 60.0481) scale(4.91103)">
<stop stop-color="#FFE2FF"/>
<stop offset="0.03" stop-color="#FAD2FF"/>
<stop offset="0.1" stop-color="#F0B0FF"/>
<stop offset="0.17" stop-color="#E896FF"/>
<stop offset="0.25" stop-color="#E383FF"/>
<stop offset="0.32" stop-color="#E077FF"/>
<stop offset="0.41" stop-color="#DF74FF"/>
<stop offset="0.73" stop-color="#673EC0"/>
<stop offset="1" stop-color="#562495"/>
</radialGradient>
<radialGradient id="paint7_radial_82_101233" cx="0" cy="0" r="1" gradientUnits="userSpaceOnUse" gradientTransform="translate(49.8192 59.0817) scale(3.23013 3.23013)">
<stop stop-color="#FFE2FF"/>
<stop offset="0.03" stop-color="#FAD2FF"/>
<stop offset="0.1" stop-color="#F0B0FF"/>
<stop offset="0.17" stop-color="#E896FF"/>
<stop offset="0.25" stop-color="#E383FF"/>
<stop offset="0.32" stop-color="#E077FF"/>
<stop offset="0.41" stop-color="#DF74FF"/>
<stop offset="0.73" stop-color="#673EC0"/>
<stop offset="1" stop-color="#562495"/>
</radialGradient>
<radialGradient id="paint8_radial_82_101233" cx="0" cy="0" r="1" gradientUnits="userSpaceOnUse" gradientTransform="translate(48.2696 54.8613) scale(8.98028)">
<stop stop-color="#FFE2FF"/>
<stop offset="0.03" stop-color="#FAD2FF"/>
<stop offset="0.1" stop-color="#F0B0FF"/>
<stop offset="0.17" stop-color="#E896FF"/>
<stop offset="0.25" stop-color="#E383FF"/>
<stop offset="0.32" stop-color="#E077FF"/>
<stop offset="0.41" stop-color="#DF74FF"/>
<stop offset="0.73" stop-color="#673EC0"/>
<stop offset="1" stop-color="#562495"/>
</radialGradient>
<radialGradient id="paint9_radial_82_101233" cx="0" cy="0" r="1" gradientUnits="userSpaceOnUse" gradientTransform="translate(53.5294 50.2178) scale(9.67555 9.67555)">
<stop stop-color="#FFE2FF"/>
<stop offset="0.03" stop-color="#FAD2FF"/>
<stop offset="0.1" stop-color="#F0B0FF"/>
<stop offset="0.17" stop-color="#E896FF"/>
<stop offset="0.25" stop-color="#E383FF"/>
<stop offset="0.32" stop-color="#E077FF"/>
<stop offset="0.41" stop-color="#DF74FF"/>
<stop offset="0.73" stop-color="#673EC0"/>
<stop offset="1" stop-color="#562495"/>
</radialGradient>
<radialGradient id="paint10_radial_82_101233" cx="0" cy="0" r="1" gradientUnits="userSpaceOnUse" gradientTransform="translate(54.308 59.6756) scale(7.83177)">
<stop stop-color="#FFE2FF"/>
<stop offset="0.03" stop-color="#FAD2FF"/>
<stop offset="0.1" stop-color="#F0B0FF"/>
<stop offset="0.17" stop-color="#E896FF"/>
<stop offset="0.25" stop-color="#E383FF"/>
<stop offset="0.32" stop-color="#E077FF"/>
<stop offset="0.41" stop-color="#DF74FF"/>
<stop offset="0.73" stop-color="#673EC0"/>
<stop offset="1" stop-color="#562495"/>
</radialGradient>
<radialGradient id="paint11_radial_82_101233" cx="0" cy="0" r="1" gradientUnits="userSpaceOnUse" gradientTransform="translate(53.9621 68.5448) scale(14.977 14.977)">
<stop stop-color="#FFE2FF"/>
<stop offset="0.03" stop-color="#FAD2FF"/>
<stop offset="0.1" stop-color="#F0B0FF"/>
<stop offset="0.17" stop-color="#E896FF"/>
<stop offset="0.25" stop-color="#E383FF"/>
<stop offset="0.32" stop-color="#E077FF"/>
<stop offset="0.41" stop-color="#DF74FF"/>
<stop offset="0.73" stop-color="#673EC0"/>
<stop offset="1" stop-color="#562495"/>
</radialGradient>
<radialGradient id="paint12_radial_82_101233" cx="0" cy="0" r="1" gradientUnits="userSpaceOnUse" gradientTransform="translate(47.0502 61.7316) scale(10.4298 10.4298)">
<stop stop-color="#FFE2FF"/>
<stop offset="0.03" stop-color="#FAD2FF"/>
<stop offset="0.1" stop-color="#F0B0FF"/>
<stop offset="0.17" stop-color="#E896FF"/>
<stop offset="0.25" stop-color="#E383FF"/>
<stop offset="0.32" stop-color="#E077FF"/>
<stop offset="0.41" stop-color="#DF74FF"/>
<stop offset="0.73" stop-color="#673EC0"/>
<stop offset="1" stop-color="#562495"/>
</radialGradient>
<radialGradient id="paint13_radial_82_101233" cx="0" cy="0" r="1" gradientUnits="userSpaceOnUse" gradientTransform="translate(51.6572 53.3271) scale(7.68336)">
<stop stop-color="#FFE2FF"/>
<stop offset="0.03" stop-color="#FAD2FF"/>
<stop offset="0.1" stop-color="#F0B0FF"/>
<stop offset="0.17" stop-color="#E896FF"/>
<stop offset="0.25" stop-color="#E383FF"/>
<stop offset="0.32" stop-color="#E077FF"/>
<stop offset="0.41" stop-color="#DF74FF"/>
<stop offset="0.73" stop-color="#673EC0"/>
<stop offset="1" stop-color="#562495"/>
</radialGradient>
<radialGradient id="paint14_radial_82_101233" cx="0" cy="0" r="1" gradientUnits="userSpaceOnUse" gradientTransform="translate(57.4643 54.6775) scale(9.33153 9.33153)">
<stop stop-color="#FFE2FF"/>
<stop offset="0.03" stop-color="#FAD2FF"/>
<stop offset="0.1" stop-color="#F0B0FF"/>
<stop offset="0.17" stop-color="#E896FF"/>
<stop offset="0.25" stop-color="#E383FF"/>
<stop offset="0.32" stop-color="#E077FF"/>
<stop offset="0.41" stop-color="#DF74FF"/>
<stop offset="0.73" stop-color="#673EC0"/>
<stop offset="1" stop-color="#562495"/>
</radialGradient>
<radialGradient id="paint15_radial_82_101233" cx="0" cy="0" r="1" gradientUnits="userSpaceOnUse" gradientTransform="translate(56.9015 49.9182) scale(9.73568 9.73568)">
<stop stop-color="#FFE2FF"/>
<stop offset="0.03" stop-color="#FAD2FF"/>
<stop offset="0.1" stop-color="#F0B0FF"/>
<stop offset="0.17" stop-color="#E896FF"/>
<stop offset="0.25" stop-color="#E383FF"/>
<stop offset="0.32" stop-color="#E077FF"/>
<stop offset="0.41" stop-color="#DF74FF"/>
<stop offset="0.73" stop-color="#673EC0"/>
<stop offset="1" stop-color="#562495"/>
</radialGradient>
<linearGradient id="paint16_linear_82_101233" x1="82.1366" y1="75.0001" x2="82.1366" y2="94.0001" gradientUnits="userSpaceOnUse">
<stop stop-color="#1F1F2F"/>
<stop offset="1" stop-color="#12121A"/>
</linearGradient>
<linearGradient id="paint17_linear_82_101233" x1="82.1366" y1="97.8278" x2="82.1366" y2="116.828" gradientUnits="userSpaceOnUse">
<stop stop-color="#1F1F2F"/>
<stop offset="1" stop-color="#12121A"/>
</linearGradient>
<linearGradient id="paint18_linear_82_101233" x1="82.1366" y1="120.656" x2="82.1366" y2="139.656" gradientUnits="userSpaceOnUse">
<stop stop-color="#1F1F2F"/>
<stop offset="1" stop-color="#12121A"/>
</linearGradient>
<clipPath id="clip0_82_101233">
<rect x="0.659912" width="140.267" height="135.56" rx="7.53114" fill="white"/>
</clipPath>
<clipPath id="clip1_82_101233">
<rect width="11.2967" height="11.2967" fill="white" transform="translate(47.7295 49.8936)"/>
</clipPath>
</defs>
</svg>
