<svg width="141" height="136" viewBox="0 0 141 136" fill="none" xmlns="http://www.w3.org/2000/svg">
<g clip-path="url(#clip0_82_101171)">
<rect width="140.267" height="135.56" rx="7.53114" fill="#1F1F2F"/>
<rect x="37.6558" y="41.4214" width="207.106" height="131.795" rx="7.53114" fill="#080811"/>
<g clip-path="url(#clip1_82_101171)">
<path d="M50.6605 53.4843L49.7217 54.0262L49.1802 52.0039L50.6605 53.4843Z" fill="url(#paint0_radial_82_101171)"/>
<path d="M51.2024 52.5454L50.6605 53.4843L49.1802 52.0039L51.2024 52.5454Z" fill="url(#paint1_radial_82_101171)"/>
<path d="M56.2557 59.0799L54.7754 57.5995L55.7138 57.0576L56.2557 59.0799Z" fill="url(#paint2_radial_82_101171)"/>
<path d="M56.2557 59.0795L54.2334 58.5376L54.7753 57.5991L56.2557 59.0795Z" fill="url(#paint3_radial_82_101171)"/>
<path d="M56.2558 52.0039L54.7789 53.4805L54.2385 52.5443L56.2558 52.0039Z" fill="url(#paint4_radial_82_101171)"/>
<path d="M56.2557 52.0039L55.7153 54.0212L54.7788 53.4805L56.2557 52.0039Z" fill="url(#paint5_radial_82_101171)"/>
<path d="M51.1975 58.5396L49.1802 59.08L50.6567 57.603L51.1975 58.5396Z" fill="url(#paint6_radial_82_101171)"/>
<path d="M50.6567 57.6029L49.1802 59.0798L49.7206 57.0625L50.6567 57.6029Z" fill="url(#paint7_radial_82_101171)"/>
<path d="M52.9549 57.2888C52.9202 57.2915 52.886 57.2938 52.8514 57.2964C52.8384 57.2976 52.8244 57.2976 52.8107 57.2976C53.7388 57.2489 54.4763 56.482 54.4763 55.5425C54.4763 55.5116 54.4763 55.4812 54.4737 55.4504C54.4737 55.4363 54.4737 55.4222 54.4725 55.4081C54.4699 55.3735 54.4676 55.3392 54.4649 55.3046C54.3024 53.5442 52.3494 52.4935 50.7732 53.4038L50.6506 53.4742L51.8855 51.3354L54.221 53.6709C55.5031 54.953 54.6887 57.1058 52.9553 57.2884L52.9549 57.2888Z" fill="url(#paint8_radial_82_101171)"/>
<path d="M52.955 57.2888C54.6884 57.1062 55.5028 54.9534 54.2207 53.6713L51.8853 51.3358L52.7171 49.8936L54.8558 53.5967C55.7673 55.173 54.7154 57.1263 52.955 57.2885V57.2888Z" fill="url(#paint9_radial_82_101171)"/>
<path d="M52.481 53.7949C52.5156 53.7922 52.5498 53.7899 52.5845 53.7873C52.5974 53.7861 52.6115 53.7861 52.6252 53.7861C51.697 53.8348 50.9595 54.6017 50.9595 55.5412C50.9595 55.5721 50.9595 55.6025 50.9622 55.6333C50.9622 55.6474 50.9622 55.6615 50.9633 55.6756C50.966 55.7102 50.9683 55.7445 50.9709 55.7791C51.1334 57.5395 53.0864 58.5902 54.6627 57.6799L54.7852 57.6095L53.5503 59.7482L51.2149 57.4128C49.9328 56.1307 50.7472 53.9779 52.4806 53.7953L52.481 53.7949Z" fill="url(#paint10_radial_82_101171)"/>
<path d="M52.481 53.7949C50.7475 53.9776 49.9332 56.1304 51.2152 57.4125L53.5507 59.7479L52.7184 61.1898L50.5797 57.4867C49.6683 55.9104 50.7201 53.957 52.4806 53.7949H52.481Z" fill="url(#paint11_radial_82_101171)"/>
<path d="M54.4648 55.3052C54.4675 55.3398 54.4698 55.3741 54.4724 55.4087C54.4736 55.4216 54.4736 55.4357 54.4736 55.4494C54.4249 54.5212 53.6581 53.7837 52.7185 53.7837C52.6877 53.7837 52.6572 53.7837 52.6264 53.7864C52.6123 53.7864 52.5982 53.7864 52.5841 53.7875C52.5495 53.7902 52.5153 53.7925 52.4806 53.7951C50.7202 53.9576 49.6695 55.9106 50.5798 57.4869L50.6502 57.6094L48.5115 56.3745L50.8469 54.0391C52.129 52.757 54.2818 53.5714 54.4645 55.3048L54.4648 55.3052Z" fill="url(#paint12_radial_82_101171)"/>
<path d="M54.4649 55.3048C54.2822 53.5714 52.1294 52.757 50.8473 54.0391L48.5119 56.3745L47.0696 55.5426L50.7727 53.4039C52.349 52.4925 54.3024 53.5444 54.4645 55.3048H54.4649Z" fill="url(#paint13_radial_82_101171)"/>
<path d="M50.9709 55.7789C50.9682 55.7442 50.966 55.71 50.9633 55.6753C50.9622 55.6624 50.9622 55.6483 50.9622 55.6346C51.0109 56.5628 51.7777 57.3003 52.7173 57.3003C52.7481 57.3003 52.7785 57.3003 52.8094 57.2976C52.8234 57.2976 52.8375 57.2976 52.8516 57.2965C52.8862 57.2938 52.9205 57.2916 52.9551 57.2889C54.7155 57.1264 55.7663 55.1734 54.856 53.5971L54.7856 53.4746L56.9243 54.7095L54.5888 57.045C53.3067 58.327 51.154 57.5127 50.9713 55.7792L50.9709 55.7789Z" fill="url(#paint14_radial_82_101171)"/>
<path d="M50.9709 55.7787C51.1536 57.5121 53.3064 58.3265 54.5885 57.0444L56.9239 54.709L58.3658 55.5413L54.6627 57.68C53.0864 58.5914 51.1331 57.5395 50.9709 55.7791V55.7787Z" fill="url(#paint15_radial_82_101171)"/>
</g>
<rect x="94.1392" y="52.7178" width="20.7106" height="5.64835" rx="1.88278" fill="#131325"/>
<rect x="65.8975" y="52.7178" width="20.7106" height="5.64835" rx="1.88278" fill="#131325"/>
<rect x="47.0696" y="75.3115" width="67.7802" height="18.8278" rx="1.88278" fill="#131325"/>
<rect x="47.0696" y="97.9048" width="67.7802" height="18.8278" rx="1.88278" fill="#131325"/>
<rect x="47.0696" y="120.498" width="67.7802" height="18.8278" rx="1.88278" fill="#131325"/>
<rect x="122.381" y="52.7178" width="20.7106" height="5.64835" rx="1.88278" fill="#131325"/>
</g>
<rect x="0.470696" y="0.470696" width="139.326" height="134.619" rx="7.06044" stroke="#242436" stroke-width="0.941392"/>
<defs>
<radialGradient id="paint0_radial_82_101171" cx="0" cy="0" r="1" gradientUnits="userSpaceOnUse" gradientTransform="translate(48.7973 50.4322) scale(4.47073)">
<stop stop-color="#FFE2FF"/>
<stop offset="0.03" stop-color="#FAD2FF"/>
<stop offset="0.1" stop-color="#F0B0FF"/>
<stop offset="0.17" stop-color="#E896FF"/>
<stop offset="0.25" stop-color="#E383FF"/>
<stop offset="0.32" stop-color="#E077FF"/>
<stop offset="0.41" stop-color="#DF74FF"/>
<stop offset="0.73" stop-color="#673EC0"/>
<stop offset="1" stop-color="#562495"/>
</radialGradient>
<radialGradient id="paint1_radial_82_101171" cx="0" cy="0" r="1" gradientUnits="userSpaceOnUse" gradientTransform="translate(49.1592 51.9685) scale(3.81808)">
<stop stop-color="#FFE2FF"/>
<stop offset="0.03" stop-color="#FAD2FF"/>
<stop offset="0.1" stop-color="#F0B0FF"/>
<stop offset="0.17" stop-color="#E896FF"/>
<stop offset="0.25" stop-color="#E383FF"/>
<stop offset="0.32" stop-color="#E077FF"/>
<stop offset="0.41" stop-color="#DF74FF"/>
<stop offset="0.73" stop-color="#673EC0"/>
<stop offset="1" stop-color="#562495"/>
</radialGradient>
<radialGradient id="paint2_radial_82_101171" cx="0" cy="0" r="1" gradientUnits="userSpaceOnUse" gradientTransform="translate(56.2527 59.0818) scale(3.42573)">
<stop stop-color="#FFE2FF"/>
<stop offset="0.03" stop-color="#FAD2FF"/>
<stop offset="0.1" stop-color="#F0B0FF"/>
<stop offset="0.17" stop-color="#E896FF"/>
<stop offset="0.25" stop-color="#E383FF"/>
<stop offset="0.32" stop-color="#E077FF"/>
<stop offset="0.41" stop-color="#DF74FF"/>
<stop offset="0.73" stop-color="#673EC0"/>
<stop offset="1" stop-color="#562495"/>
</radialGradient>
<radialGradient id="paint3_radial_82_101171" cx="0" cy="0" r="1" gradientUnits="userSpaceOnUse" gradientTransform="translate(57.7006 60.3924) scale(4.84862)">
<stop stop-color="#FFE2FF"/>
<stop offset="0.03" stop-color="#FAD2FF"/>
<stop offset="0.1" stop-color="#F0B0FF"/>
<stop offset="0.17" stop-color="#E896FF"/>
<stop offset="0.25" stop-color="#E383FF"/>
<stop offset="0.32" stop-color="#E077FF"/>
<stop offset="0.41" stop-color="#DF74FF"/>
<stop offset="0.73" stop-color="#673EC0"/>
<stop offset="1" stop-color="#562495"/>
</radialGradient>
<radialGradient id="paint4_radial_82_101171" cx="0" cy="0" r="1" gradientUnits="userSpaceOnUse" gradientTransform="translate(56.2528 52.0271) scale(3.88925 3.88925)">
<stop stop-color="#FFE2FF"/>
<stop offset="0.03" stop-color="#FAD2FF"/>
<stop offset="0.1" stop-color="#F0B0FF"/>
<stop offset="0.17" stop-color="#E896FF"/>
<stop offset="0.25" stop-color="#E383FF"/>
<stop offset="0.32" stop-color="#E077FF"/>
<stop offset="0.41" stop-color="#DF74FF"/>
<stop offset="0.73" stop-color="#673EC0"/>
<stop offset="1" stop-color="#562495"/>
</radialGradient>
<radialGradient id="paint5_radial_82_101171" cx="0" cy="0" r="1" gradientUnits="userSpaceOnUse" gradientTransform="translate(56.7406 51.2268) scale(4.11644)">
<stop stop-color="#FFE2FF"/>
<stop offset="0.03" stop-color="#FAD2FF"/>
<stop offset="0.1" stop-color="#F0B0FF"/>
<stop offset="0.17" stop-color="#E896FF"/>
<stop offset="0.25" stop-color="#E383FF"/>
<stop offset="0.32" stop-color="#E077FF"/>
<stop offset="0.41" stop-color="#DF74FF"/>
<stop offset="0.73" stop-color="#673EC0"/>
<stop offset="1" stop-color="#562495"/>
</radialGradient>
<radialGradient id="paint6_radial_82_101171" cx="0" cy="0" r="1" gradientUnits="userSpaceOnUse" gradientTransform="translate(47.8026 60.0481) scale(4.91103)">
<stop stop-color="#FFE2FF"/>
<stop offset="0.03" stop-color="#FAD2FF"/>
<stop offset="0.1" stop-color="#F0B0FF"/>
<stop offset="0.17" stop-color="#E896FF"/>
<stop offset="0.25" stop-color="#E383FF"/>
<stop offset="0.32" stop-color="#E077FF"/>
<stop offset="0.41" stop-color="#DF74FF"/>
<stop offset="0.73" stop-color="#673EC0"/>
<stop offset="1" stop-color="#562495"/>
</radialGradient>
<radialGradient id="paint7_radial_82_101171" cx="0" cy="0" r="1" gradientUnits="userSpaceOnUse" gradientTransform="translate(49.1592 59.0817) scale(3.23013 3.23013)">
<stop stop-color="#FFE2FF"/>
<stop offset="0.03" stop-color="#FAD2FF"/>
<stop offset="0.1" stop-color="#F0B0FF"/>
<stop offset="0.17" stop-color="#E896FF"/>
<stop offset="0.25" stop-color="#E383FF"/>
<stop offset="0.32" stop-color="#E077FF"/>
<stop offset="0.41" stop-color="#DF74FF"/>
<stop offset="0.73" stop-color="#673EC0"/>
<stop offset="1" stop-color="#562495"/>
</radialGradient>
<radialGradient id="paint8_radial_82_101171" cx="0" cy="0" r="1" gradientUnits="userSpaceOnUse" gradientTransform="translate(47.6096 54.8613) scale(8.98028)">
<stop stop-color="#FFE2FF"/>
<stop offset="0.03" stop-color="#FAD2FF"/>
<stop offset="0.1" stop-color="#F0B0FF"/>
<stop offset="0.17" stop-color="#E896FF"/>
<stop offset="0.25" stop-color="#E383FF"/>
<stop offset="0.32" stop-color="#E077FF"/>
<stop offset="0.41" stop-color="#DF74FF"/>
<stop offset="0.73" stop-color="#673EC0"/>
<stop offset="1" stop-color="#562495"/>
</radialGradient>
<radialGradient id="paint9_radial_82_101171" cx="0" cy="0" r="1" gradientUnits="userSpaceOnUse" gradientTransform="translate(52.8697 50.2178) scale(9.67555 9.67555)">
<stop stop-color="#FFE2FF"/>
<stop offset="0.03" stop-color="#FAD2FF"/>
<stop offset="0.1" stop-color="#F0B0FF"/>
<stop offset="0.17" stop-color="#E896FF"/>
<stop offset="0.25" stop-color="#E383FF"/>
<stop offset="0.32" stop-color="#E077FF"/>
<stop offset="0.41" stop-color="#DF74FF"/>
<stop offset="0.73" stop-color="#673EC0"/>
<stop offset="1" stop-color="#562495"/>
</radialGradient>
<radialGradient id="paint10_radial_82_101171" cx="0" cy="0" r="1" gradientUnits="userSpaceOnUse" gradientTransform="translate(53.6481 59.6756) scale(7.83177)">
<stop stop-color="#FFE2FF"/>
<stop offset="0.03" stop-color="#FAD2FF"/>
<stop offset="0.1" stop-color="#F0B0FF"/>
<stop offset="0.17" stop-color="#E896FF"/>
<stop offset="0.25" stop-color="#E383FF"/>
<stop offset="0.32" stop-color="#E077FF"/>
<stop offset="0.41" stop-color="#DF74FF"/>
<stop offset="0.73" stop-color="#673EC0"/>
<stop offset="1" stop-color="#562495"/>
</radialGradient>
<radialGradient id="paint11_radial_82_101171" cx="0" cy="0" r="1" gradientUnits="userSpaceOnUse" gradientTransform="translate(53.3022 68.5448) scale(14.977 14.977)">
<stop stop-color="#FFE2FF"/>
<stop offset="0.03" stop-color="#FAD2FF"/>
<stop offset="0.1" stop-color="#F0B0FF"/>
<stop offset="0.17" stop-color="#E896FF"/>
<stop offset="0.25" stop-color="#E383FF"/>
<stop offset="0.32" stop-color="#E077FF"/>
<stop offset="0.41" stop-color="#DF74FF"/>
<stop offset="0.73" stop-color="#673EC0"/>
<stop offset="1" stop-color="#562495"/>
</radialGradient>
<radialGradient id="paint12_radial_82_101171" cx="0" cy="0" r="1" gradientUnits="userSpaceOnUse" gradientTransform="translate(46.3903 61.7316) scale(10.4298 10.4298)">
<stop stop-color="#FFE2FF"/>
<stop offset="0.03" stop-color="#FAD2FF"/>
<stop offset="0.1" stop-color="#F0B0FF"/>
<stop offset="0.17" stop-color="#E896FF"/>
<stop offset="0.25" stop-color="#E383FF"/>
<stop offset="0.32" stop-color="#E077FF"/>
<stop offset="0.41" stop-color="#DF74FF"/>
<stop offset="0.73" stop-color="#673EC0"/>
<stop offset="1" stop-color="#562495"/>
</radialGradient>
<radialGradient id="paint13_radial_82_101171" cx="0" cy="0" r="1" gradientUnits="userSpaceOnUse" gradientTransform="translate(50.9973 53.3271) scale(7.68336)">
<stop stop-color="#FFE2FF"/>
<stop offset="0.03" stop-color="#FAD2FF"/>
<stop offset="0.1" stop-color="#F0B0FF"/>
<stop offset="0.17" stop-color="#E896FF"/>
<stop offset="0.25" stop-color="#E383FF"/>
<stop offset="0.32" stop-color="#E077FF"/>
<stop offset="0.41" stop-color="#DF74FF"/>
<stop offset="0.73" stop-color="#673EC0"/>
<stop offset="1" stop-color="#562495"/>
</radialGradient>
<radialGradient id="paint14_radial_82_101171" cx="0" cy="0" r="1" gradientUnits="userSpaceOnUse" gradientTransform="translate(56.8044 54.6775) scale(9.33153 9.33153)">
<stop stop-color="#FFE2FF"/>
<stop offset="0.03" stop-color="#FAD2FF"/>
<stop offset="0.1" stop-color="#F0B0FF"/>
<stop offset="0.17" stop-color="#E896FF"/>
<stop offset="0.25" stop-color="#E383FF"/>
<stop offset="0.32" stop-color="#E077FF"/>
<stop offset="0.41" stop-color="#DF74FF"/>
<stop offset="0.73" stop-color="#673EC0"/>
<stop offset="1" stop-color="#562495"/>
</radialGradient>
<radialGradient id="paint15_radial_82_101171" cx="0" cy="0" r="1" gradientUnits="userSpaceOnUse" gradientTransform="translate(56.2416 49.9182) scale(9.73568 9.73568)">
<stop stop-color="#FFE2FF"/>
<stop offset="0.03" stop-color="#FAD2FF"/>
<stop offset="0.1" stop-color="#F0B0FF"/>
<stop offset="0.17" stop-color="#E896FF"/>
<stop offset="0.25" stop-color="#E383FF"/>
<stop offset="0.32" stop-color="#E077FF"/>
<stop offset="0.41" stop-color="#DF74FF"/>
<stop offset="0.73" stop-color="#673EC0"/>
<stop offset="1" stop-color="#562495"/>
</radialGradient>
<clipPath id="clip0_82_101171">
<rect width="140.267" height="135.56" rx="7.53114" fill="white"/>
</clipPath>
<clipPath id="clip1_82_101171">
<rect width="11.2967" height="11.2967" fill="white" transform="translate(47.0696 49.8936)"/>
</clipPath>
</defs>
</svg>
