<svg width="141" height="136" viewBox="0 0 141 136" fill="none" xmlns="http://www.w3.org/2000/svg">
<g clip-path="url(#clip0_82_101263)">
<rect y="0.32959" width="140.267" height="135.56" rx="7.53114" fill="#333345"/>
<rect x="37.6558" y="41.751" width="207.106" height="131.795" rx="7.53114" fill="#1F1F2B"/>
<g clip-path="url(#clip1_82_101263)">
<path d="M50.6605 53.8138L49.7217 54.3558L49.1802 52.3335L50.6605 53.8138Z" fill="url(#paint0_radial_82_101263)"/>
<path d="M51.2024 52.875L50.6605 53.8138L49.1802 52.3335L51.2024 52.875Z" fill="url(#paint1_radial_82_101263)"/>
<path d="M56.2557 59.4095L54.7754 57.9291L55.7138 57.3872L56.2557 59.4095Z" fill="url(#paint2_radial_82_101263)"/>
<path d="M56.2557 59.4091L54.2334 58.8672L54.7753 57.9287L56.2557 59.4091Z" fill="url(#paint3_radial_82_101263)"/>
<path d="M56.2556 52.3335L54.7787 53.81L54.2383 52.8739L56.2556 52.3335Z" fill="url(#paint4_radial_82_101263)"/>
<path d="M56.2557 52.3335L55.7153 54.3508L54.7788 53.81L56.2557 52.3335Z" fill="url(#paint5_radial_82_101263)"/>
<path d="M51.1975 58.8692L49.1802 59.4095L50.6567 57.9326L51.1975 58.8692Z" fill="url(#paint6_radial_82_101263)"/>
<path d="M50.6567 57.9325L49.1802 59.4094L49.7206 57.3921L50.6567 57.9325Z" fill="url(#paint7_radial_82_101263)"/>
<path d="M52.9549 57.6184C52.9202 57.6211 52.886 57.6234 52.8514 57.626C52.8384 57.6272 52.8244 57.6272 52.8107 57.6272C53.7388 57.5784 54.4763 56.8116 54.4763 55.872C54.4763 55.8412 54.4763 55.8108 54.4737 55.78C54.4737 55.7659 54.4737 55.7518 54.4725 55.7377C54.4699 55.7031 54.4676 55.6688 54.4649 55.6342C54.3024 53.8738 52.3494 52.8231 50.7732 53.7333L50.6506 53.8037L51.8855 51.665L54.221 54.0005C55.5031 55.2826 54.6887 57.4354 52.9553 57.618L52.9549 57.6184Z" fill="url(#paint8_radial_82_101263)"/>
<path d="M52.9547 57.6184C54.6882 57.4358 55.5025 55.283 54.2205 54.0009L51.885 51.6654L52.7169 50.2231L54.8556 53.9263C55.767 55.5026 54.7152 57.4559 52.9547 57.618V57.6184Z" fill="url(#paint9_radial_82_101263)"/>
<path d="M52.481 54.1245C52.5156 54.1218 52.5498 54.1195 52.5845 54.1169C52.5974 54.1157 52.6115 54.1157 52.6252 54.1157C51.697 54.1644 50.9595 54.9312 50.9595 55.8708C50.9595 55.9017 50.9595 55.9321 50.9622 55.9629C50.9622 55.977 50.9622 55.9911 50.9633 56.0052C50.966 56.0398 50.9683 56.074 50.9709 56.1087C51.1334 57.8691 53.0864 58.9198 54.6627 58.0095L54.7852 57.9391L53.5503 60.0778L51.2149 57.7424C49.9328 56.4603 50.7472 54.3075 52.4806 54.1249L52.481 54.1245Z" fill="url(#paint10_radial_82_101263)"/>
<path d="M52.481 54.1245C50.7475 54.3072 49.9332 56.46 51.2152 57.742L53.5507 60.0775L52.7184 61.5194L50.5797 57.8163C49.6683 56.24 50.7201 54.2866 52.4806 54.1245H52.481Z" fill="url(#paint11_radial_82_101263)"/>
<path d="M54.4648 55.6348C54.4675 55.6694 54.4698 55.7036 54.4724 55.7383C54.4736 55.7512 54.4736 55.7653 54.4736 55.779C54.4249 54.8508 53.6581 54.1133 52.7185 54.1133C52.6877 54.1133 52.6572 54.1133 52.6264 54.116C52.6123 54.116 52.5982 54.116 52.5841 54.1171C52.5495 54.1198 52.5153 54.1221 52.4806 54.1247C50.7202 54.2872 49.6695 56.2402 50.5798 57.8165L50.6502 57.939L48.5115 56.7041L50.8469 54.3687C52.129 53.0866 54.2818 53.901 54.4645 55.6344L54.4648 55.6348Z" fill="url(#paint12_radial_82_101263)"/>
<path d="M54.4649 55.6344C54.2822 53.901 52.1294 53.0866 50.8473 54.3687L48.5119 56.7041L47.0696 55.8722L50.7727 53.7335C52.349 52.8221 54.3024 53.874 54.4645 55.6344H54.4649Z" fill="url(#paint13_radial_82_101263)"/>
<path d="M50.9709 56.1084C50.9682 56.0738 50.966 56.0396 50.9633 56.0049C50.9622 55.992 50.9622 55.9779 50.9622 55.9642C51.0109 56.8924 51.7777 57.6299 52.7173 57.6299C52.7481 57.6299 52.7785 57.6299 52.8094 57.6272C52.8234 57.6272 52.8375 57.6272 52.8516 57.6261C52.8862 57.6234 52.9205 57.6211 52.9551 57.6185C54.7155 57.456 55.7663 55.503 54.856 53.9267L54.7856 53.8042L56.9243 55.0391L54.5888 57.3745C53.3067 58.6566 51.154 57.8422 50.9713 56.1088L50.9709 56.1084Z" fill="url(#paint14_radial_82_101263)"/>
<path d="M50.9709 56.1083C51.1536 57.8417 53.3064 58.6561 54.5885 57.374L56.9239 55.0386L58.3658 55.8708L54.6627 58.0095C53.0864 58.921 51.1331 57.8691 50.9709 56.1087V56.1083Z" fill="url(#paint15_radial_82_101263)"/>
</g>
<rect x="94.1392" y="53.0474" width="20.7106" height="5.64835" rx="1.88278" fill="#2C2C41"/>
<rect x="65.8975" y="53.0474" width="20.7106" height="5.64835" rx="1.88278" fill="#2C2C41"/>
<rect x="47.0696" y="75.6411" width="67.7802" height="18.8278" rx="1.88278" fill="#2C2C41"/>
<rect x="47.0696" y="98.2344" width="67.7802" height="18.8278" rx="1.88278" fill="#2C2C41"/>
<rect x="47.0696" y="120.828" width="67.7802" height="18.8278" rx="1.88278" fill="#2C2C41"/>
<rect x="122.381" y="53.0474" width="20.7106" height="5.64835" rx="1.88278" fill="#2C2C41"/>
</g>
<rect x="0.470696" y="0.800286" width="139.326" height="134.619" rx="7.06044" stroke="#242436" stroke-width="0.941392"/>
<defs>
<radialGradient id="paint0_radial_82_101263" cx="0" cy="0" r="1" gradientUnits="userSpaceOnUse" gradientTransform="translate(48.7973 50.7618) scale(4.47073)">
<stop stop-color="#FFE2FF"/>
<stop offset="0.03" stop-color="#FAD2FF"/>
<stop offset="0.1" stop-color="#F0B0FF"/>
<stop offset="0.17" stop-color="#E896FF"/>
<stop offset="0.25" stop-color="#E383FF"/>
<stop offset="0.32" stop-color="#E077FF"/>
<stop offset="0.41" stop-color="#DF74FF"/>
<stop offset="0.73" stop-color="#673EC0"/>
<stop offset="1" stop-color="#562495"/>
</radialGradient>
<radialGradient id="paint1_radial_82_101263" cx="0" cy="0" r="1" gradientUnits="userSpaceOnUse" gradientTransform="translate(49.1592 52.2981) scale(3.81808)">
<stop stop-color="#FFE2FF"/>
<stop offset="0.03" stop-color="#FAD2FF"/>
<stop offset="0.1" stop-color="#F0B0FF"/>
<stop offset="0.17" stop-color="#E896FF"/>
<stop offset="0.25" stop-color="#E383FF"/>
<stop offset="0.32" stop-color="#E077FF"/>
<stop offset="0.41" stop-color="#DF74FF"/>
<stop offset="0.73" stop-color="#673EC0"/>
<stop offset="1" stop-color="#562495"/>
</radialGradient>
<radialGradient id="paint2_radial_82_101263" cx="0" cy="0" r="1" gradientUnits="userSpaceOnUse" gradientTransform="translate(56.2527 59.4114) scale(3.42573)">
<stop stop-color="#FFE2FF"/>
<stop offset="0.03" stop-color="#FAD2FF"/>
<stop offset="0.1" stop-color="#F0B0FF"/>
<stop offset="0.17" stop-color="#E896FF"/>
<stop offset="0.25" stop-color="#E383FF"/>
<stop offset="0.32" stop-color="#E077FF"/>
<stop offset="0.41" stop-color="#DF74FF"/>
<stop offset="0.73" stop-color="#673EC0"/>
<stop offset="1" stop-color="#562495"/>
</radialGradient>
<radialGradient id="paint3_radial_82_101263" cx="0" cy="0" r="1" gradientUnits="userSpaceOnUse" gradientTransform="translate(57.7006 60.722) scale(4.84862)">
<stop stop-color="#FFE2FF"/>
<stop offset="0.03" stop-color="#FAD2FF"/>
<stop offset="0.1" stop-color="#F0B0FF"/>
<stop offset="0.17" stop-color="#E896FF"/>
<stop offset="0.25" stop-color="#E383FF"/>
<stop offset="0.32" stop-color="#E077FF"/>
<stop offset="0.41" stop-color="#DF74FF"/>
<stop offset="0.73" stop-color="#673EC0"/>
<stop offset="1" stop-color="#562495"/>
</radialGradient>
<radialGradient id="paint4_radial_82_101263" cx="0" cy="0" r="1" gradientUnits="userSpaceOnUse" gradientTransform="translate(56.2525 52.3567) scale(3.88925 3.88925)">
<stop stop-color="#FFE2FF"/>
<stop offset="0.03" stop-color="#FAD2FF"/>
<stop offset="0.1" stop-color="#F0B0FF"/>
<stop offset="0.17" stop-color="#E896FF"/>
<stop offset="0.25" stop-color="#E383FF"/>
<stop offset="0.32" stop-color="#E077FF"/>
<stop offset="0.41" stop-color="#DF74FF"/>
<stop offset="0.73" stop-color="#673EC0"/>
<stop offset="1" stop-color="#562495"/>
</radialGradient>
<radialGradient id="paint5_radial_82_101263" cx="0" cy="0" r="1" gradientUnits="userSpaceOnUse" gradientTransform="translate(56.7406 51.5564) scale(4.11644)">
<stop stop-color="#FFE2FF"/>
<stop offset="0.03" stop-color="#FAD2FF"/>
<stop offset="0.1" stop-color="#F0B0FF"/>
<stop offset="0.17" stop-color="#E896FF"/>
<stop offset="0.25" stop-color="#E383FF"/>
<stop offset="0.32" stop-color="#E077FF"/>
<stop offset="0.41" stop-color="#DF74FF"/>
<stop offset="0.73" stop-color="#673EC0"/>
<stop offset="1" stop-color="#562495"/>
</radialGradient>
<radialGradient id="paint6_radial_82_101263" cx="0" cy="0" r="1" gradientUnits="userSpaceOnUse" gradientTransform="translate(47.8026 60.3777) scale(4.91103)">
<stop stop-color="#FFE2FF"/>
<stop offset="0.03" stop-color="#FAD2FF"/>
<stop offset="0.1" stop-color="#F0B0FF"/>
<stop offset="0.17" stop-color="#E896FF"/>
<stop offset="0.25" stop-color="#E383FF"/>
<stop offset="0.32" stop-color="#E077FF"/>
<stop offset="0.41" stop-color="#DF74FF"/>
<stop offset="0.73" stop-color="#673EC0"/>
<stop offset="1" stop-color="#562495"/>
</radialGradient>
<radialGradient id="paint7_radial_82_101263" cx="0" cy="0" r="1" gradientUnits="userSpaceOnUse" gradientTransform="translate(49.1592 59.4113) scale(3.23013 3.23013)">
<stop stop-color="#FFE2FF"/>
<stop offset="0.03" stop-color="#FAD2FF"/>
<stop offset="0.1" stop-color="#F0B0FF"/>
<stop offset="0.17" stop-color="#E896FF"/>
<stop offset="0.25" stop-color="#E383FF"/>
<stop offset="0.32" stop-color="#E077FF"/>
<stop offset="0.41" stop-color="#DF74FF"/>
<stop offset="0.73" stop-color="#673EC0"/>
<stop offset="1" stop-color="#562495"/>
</radialGradient>
<radialGradient id="paint8_radial_82_101263" cx="0" cy="0" r="1" gradientUnits="userSpaceOnUse" gradientTransform="translate(47.6096 55.1909) scale(8.98028)">
<stop stop-color="#FFE2FF"/>
<stop offset="0.03" stop-color="#FAD2FF"/>
<stop offset="0.1" stop-color="#F0B0FF"/>
<stop offset="0.17" stop-color="#E896FF"/>
<stop offset="0.25" stop-color="#E383FF"/>
<stop offset="0.32" stop-color="#E077FF"/>
<stop offset="0.41" stop-color="#DF74FF"/>
<stop offset="0.73" stop-color="#673EC0"/>
<stop offset="1" stop-color="#562495"/>
</radialGradient>
<radialGradient id="paint9_radial_82_101263" cx="0" cy="0" r="1" gradientUnits="userSpaceOnUse" gradientTransform="translate(52.8695 50.5474) scale(9.67555 9.67555)">
<stop stop-color="#FFE2FF"/>
<stop offset="0.03" stop-color="#FAD2FF"/>
<stop offset="0.1" stop-color="#F0B0FF"/>
<stop offset="0.17" stop-color="#E896FF"/>
<stop offset="0.25" stop-color="#E383FF"/>
<stop offset="0.32" stop-color="#E077FF"/>
<stop offset="0.41" stop-color="#DF74FF"/>
<stop offset="0.73" stop-color="#673EC0"/>
<stop offset="1" stop-color="#562495"/>
</radialGradient>
<radialGradient id="paint10_radial_82_101263" cx="0" cy="0" r="1" gradientUnits="userSpaceOnUse" gradientTransform="translate(53.6481 60.0052) scale(7.83177)">
<stop stop-color="#FFE2FF"/>
<stop offset="0.03" stop-color="#FAD2FF"/>
<stop offset="0.1" stop-color="#F0B0FF"/>
<stop offset="0.17" stop-color="#E896FF"/>
<stop offset="0.25" stop-color="#E383FF"/>
<stop offset="0.32" stop-color="#E077FF"/>
<stop offset="0.41" stop-color="#DF74FF"/>
<stop offset="0.73" stop-color="#673EC0"/>
<stop offset="1" stop-color="#562495"/>
</radialGradient>
<radialGradient id="paint11_radial_82_101263" cx="0" cy="0" r="1" gradientUnits="userSpaceOnUse" gradientTransform="translate(53.3022 68.8743) scale(14.977 14.977)">
<stop stop-color="#FFE2FF"/>
<stop offset="0.03" stop-color="#FAD2FF"/>
<stop offset="0.1" stop-color="#F0B0FF"/>
<stop offset="0.17" stop-color="#E896FF"/>
<stop offset="0.25" stop-color="#E383FF"/>
<stop offset="0.32" stop-color="#E077FF"/>
<stop offset="0.41" stop-color="#DF74FF"/>
<stop offset="0.73" stop-color="#673EC0"/>
<stop offset="1" stop-color="#562495"/>
</radialGradient>
<radialGradient id="paint12_radial_82_101263" cx="0" cy="0" r="1" gradientUnits="userSpaceOnUse" gradientTransform="translate(46.3903 62.0612) scale(10.4298 10.4298)">
<stop stop-color="#FFE2FF"/>
<stop offset="0.03" stop-color="#FAD2FF"/>
<stop offset="0.1" stop-color="#F0B0FF"/>
<stop offset="0.17" stop-color="#E896FF"/>
<stop offset="0.25" stop-color="#E383FF"/>
<stop offset="0.32" stop-color="#E077FF"/>
<stop offset="0.41" stop-color="#DF74FF"/>
<stop offset="0.73" stop-color="#673EC0"/>
<stop offset="1" stop-color="#562495"/>
</radialGradient>
<radialGradient id="paint13_radial_82_101263" cx="0" cy="0" r="1" gradientUnits="userSpaceOnUse" gradientTransform="translate(50.9973 53.6567) scale(7.68336)">
<stop stop-color="#FFE2FF"/>
<stop offset="0.03" stop-color="#FAD2FF"/>
<stop offset="0.1" stop-color="#F0B0FF"/>
<stop offset="0.17" stop-color="#E896FF"/>
<stop offset="0.25" stop-color="#E383FF"/>
<stop offset="0.32" stop-color="#E077FF"/>
<stop offset="0.41" stop-color="#DF74FF"/>
<stop offset="0.73" stop-color="#673EC0"/>
<stop offset="1" stop-color="#562495"/>
</radialGradient>
<radialGradient id="paint14_radial_82_101263" cx="0" cy="0" r="1" gradientUnits="userSpaceOnUse" gradientTransform="translate(56.8044 55.0071) scale(9.33153 9.33153)">
<stop stop-color="#FFE2FF"/>
<stop offset="0.03" stop-color="#FAD2FF"/>
<stop offset="0.1" stop-color="#F0B0FF"/>
<stop offset="0.17" stop-color="#E896FF"/>
<stop offset="0.25" stop-color="#E383FF"/>
<stop offset="0.32" stop-color="#E077FF"/>
<stop offset="0.41" stop-color="#DF74FF"/>
<stop offset="0.73" stop-color="#673EC0"/>
<stop offset="1" stop-color="#562495"/>
</radialGradient>
<radialGradient id="paint15_radial_82_101263" cx="0" cy="0" r="1" gradientUnits="userSpaceOnUse" gradientTransform="translate(56.2416 50.2478) scale(9.73568 9.73568)">
<stop stop-color="#FFE2FF"/>
<stop offset="0.03" stop-color="#FAD2FF"/>
<stop offset="0.1" stop-color="#F0B0FF"/>
<stop offset="0.17" stop-color="#E896FF"/>
<stop offset="0.25" stop-color="#E383FF"/>
<stop offset="0.32" stop-color="#E077FF"/>
<stop offset="0.41" stop-color="#DF74FF"/>
<stop offset="0.73" stop-color="#673EC0"/>
<stop offset="1" stop-color="#562495"/>
</radialGradient>
<clipPath id="clip0_82_101263">
<rect y="0.32959" width="140.267" height="135.56" rx="7.53114" fill="white"/>
</clipPath>
<clipPath id="clip1_82_101263">
<rect width="11.2967" height="11.2967" fill="white" transform="translate(47.0696 50.2231)"/>
</clipPath>
</defs>
</svg>
