<svg width="141" height="136" viewBox="0 0 141 136" fill="none" xmlns="http://www.w3.org/2000/svg">
<g clip-path="url(#clip0_82_101203)">
<rect x="0.330078" width="140.267" height="135.56" rx="7.53114" fill="#262635"/>
<rect x="37.9858" y="41.4214" width="207.106" height="131.795" rx="7.53114" fill="#12121A"/>
<g clip-path="url(#clip1_82_101203)">
<path d="M50.9906 53.4843L50.0518 54.0262L49.5103 52.0039L50.9906 53.4843Z" fill="url(#paint0_radial_82_101203)"/>
<path d="M51.5325 52.5454L50.9906 53.4843L49.5103 52.0039L51.5325 52.5454Z" fill="url(#paint1_radial_82_101203)"/>
<path d="M56.5858 59.0799L55.1055 57.5995L56.0439 57.0576L56.5858 59.0799Z" fill="url(#paint2_radial_82_101203)"/>
<path d="M56.5857 59.0795L54.5635 58.5376L55.1054 57.5991L56.5857 59.0795Z" fill="url(#paint3_radial_82_101203)"/>
<path d="M56.5857 52.0039L55.1087 53.4805L54.5684 52.5443L56.5857 52.0039Z" fill="url(#paint4_radial_82_101203)"/>
<path d="M56.5858 52.0039L56.0454 54.0212L55.1089 53.4805L56.5858 52.0039Z" fill="url(#paint5_radial_82_101203)"/>
<path d="M51.5276 58.5396L49.5103 59.08L50.9868 57.603L51.5276 58.5396Z" fill="url(#paint6_radial_82_101203)"/>
<path d="M50.9868 57.6029L49.5103 59.0798L50.0506 57.0625L50.9868 57.6029Z" fill="url(#paint7_radial_82_101203)"/>
<path d="M53.285 57.2888C53.2503 57.2915 53.2161 57.2938 53.1814 57.2964C53.1685 57.2976 53.1544 57.2976 53.1407 57.2976C54.0689 57.2489 54.8064 56.482 54.8064 55.5425C54.8064 55.5116 54.8064 55.4812 54.8037 55.4504C54.8037 55.4363 54.8037 55.4222 54.8026 55.4081C54.7999 55.3735 54.7977 55.3392 54.795 55.3046C54.6325 53.5442 52.6795 52.4935 51.1033 53.4038L50.9807 53.4742L52.2156 51.3354L54.5511 53.6709C55.8331 54.953 55.0188 57.1058 53.2853 57.2884L53.285 57.2888Z" fill="url(#paint8_radial_82_101203)"/>
<path d="M53.2848 57.2888C55.0182 57.1062 55.8326 54.9534 54.5505 53.6713L52.2151 51.3358L53.047 49.8936L55.1857 53.5967C56.0971 55.173 55.0453 57.1263 53.2848 57.2885V57.2888Z" fill="url(#paint9_radial_82_101203)"/>
<path d="M52.811 53.7949C52.8457 53.7922 52.8799 53.7899 52.9145 53.7873C52.9275 53.7861 52.9416 53.7861 52.9553 53.7861C52.0271 53.8348 51.2896 54.6017 51.2896 55.5412C51.2896 55.5721 51.2896 55.6025 51.2923 55.6333C51.2923 55.6474 51.2923 55.6615 51.2934 55.6756C51.2961 55.7102 51.2983 55.7445 51.301 55.7791C51.4635 57.5395 53.4165 58.5902 54.9927 57.6799L55.1153 57.6095L53.8804 59.7482L51.5449 57.4128C50.2629 56.1307 51.0772 53.9779 52.8107 53.7953L52.811 53.7949Z" fill="url(#paint10_radial_82_101203)"/>
<path d="M52.811 53.7949C51.0776 53.9776 50.2632 56.1304 51.5453 57.4125L53.8808 59.7479L53.0485 61.1898L50.9098 57.4867C49.9984 55.9104 51.0502 53.957 52.8107 53.7949H52.811Z" fill="url(#paint11_radial_82_101203)"/>
<path d="M54.7949 55.3052C54.7976 55.3398 54.7999 55.3741 54.8025 55.4087C54.8037 55.4216 54.8037 55.4357 54.8037 55.4494C54.755 54.5212 53.9881 53.7837 53.0486 53.7837C53.0177 53.7837 52.9873 53.7837 52.9565 53.7864C52.9424 53.7864 52.9283 53.7864 52.9142 53.7875C52.8796 53.7902 52.8453 53.7925 52.8107 53.7951C51.0503 53.9576 49.9996 55.9106 50.9099 57.4869L50.9803 57.6094L48.8416 56.3745L51.177 54.0391C52.4591 52.757 54.6119 53.5714 54.7945 55.3048L54.7949 55.3052Z" fill="url(#paint12_radial_82_101203)"/>
<path d="M54.7949 55.3048C54.6123 53.5714 52.4595 52.757 51.1774 54.0391L48.842 56.3745L47.3997 55.5426L51.1028 53.4039C52.6791 52.4925 54.6324 53.5444 54.7946 55.3048H54.7949Z" fill="url(#paint13_radial_82_101203)"/>
<path d="M51.301 55.7789C51.2983 55.7442 51.296 55.71 51.2934 55.6753C51.2922 55.6624 51.2922 55.6483 51.2922 55.6346C51.3409 56.5628 52.1078 57.3003 53.0473 57.3003C53.0782 57.3003 53.1086 57.3003 53.1394 57.2976C53.1535 57.2976 53.1676 57.2976 53.1817 57.2965C53.2163 57.2938 53.2506 57.2916 53.2852 57.2889C55.0456 57.1264 56.0963 55.1734 55.1861 53.5971L55.1156 53.4746L57.2544 54.7095L54.9189 57.045C53.6368 58.327 51.484 57.5127 51.3014 55.7792L51.301 55.7789Z" fill="url(#paint14_radial_82_101203)"/>
<path d="M51.301 55.7787C51.4837 57.5121 53.6365 58.3265 54.9186 57.0444L57.254 54.709L58.6959 55.5413L54.9928 57.68C53.4165 58.5914 51.4631 57.5395 51.301 55.7791V55.7787Z" fill="url(#paint15_radial_82_101203)"/>
</g>
<rect x="94.4692" y="52.7178" width="20.7106" height="5.64835" rx="1.88278" fill="#1B1B2D"/>
<rect x="66.2275" y="52.7178" width="20.7106" height="5.64835" rx="1.88278" fill="#1B1B2D"/>
<rect x="47.3997" y="75.3115" width="67.7802" height="18.8278" rx="1.88278" fill="#1B1B2D"/>
<rect x="47.3997" y="97.9048" width="67.7802" height="18.8278" rx="1.88278" fill="#1B1B2D"/>
<rect x="47.3997" y="120.498" width="67.7802" height="18.8278" rx="1.88278" fill="#1B1B2D"/>
<rect x="122.711" y="52.7178" width="20.7106" height="5.64835" rx="1.88278" fill="#1B1B2D"/>
</g>
<rect x="0.800774" y="0.470696" width="139.326" height="134.619" rx="7.06044" stroke="#242436" stroke-width="0.941392"/>
<defs>
<radialGradient id="paint0_radial_82_101203" cx="0" cy="0" r="1" gradientUnits="userSpaceOnUse" gradientTransform="translate(49.1274 50.4322) scale(4.47073)">
<stop stop-color="#FFE2FF"/>
<stop offset="0.03" stop-color="#FAD2FF"/>
<stop offset="0.1" stop-color="#F0B0FF"/>
<stop offset="0.17" stop-color="#E896FF"/>
<stop offset="0.25" stop-color="#E383FF"/>
<stop offset="0.32" stop-color="#E077FF"/>
<stop offset="0.41" stop-color="#DF74FF"/>
<stop offset="0.73" stop-color="#673EC0"/>
<stop offset="1" stop-color="#562495"/>
</radialGradient>
<radialGradient id="paint1_radial_82_101203" cx="0" cy="0" r="1" gradientUnits="userSpaceOnUse" gradientTransform="translate(49.4893 51.9685) scale(3.81808)">
<stop stop-color="#FFE2FF"/>
<stop offset="0.03" stop-color="#FAD2FF"/>
<stop offset="0.1" stop-color="#F0B0FF"/>
<stop offset="0.17" stop-color="#E896FF"/>
<stop offset="0.25" stop-color="#E383FF"/>
<stop offset="0.32" stop-color="#E077FF"/>
<stop offset="0.41" stop-color="#DF74FF"/>
<stop offset="0.73" stop-color="#673EC0"/>
<stop offset="1" stop-color="#562495"/>
</radialGradient>
<radialGradient id="paint2_radial_82_101203" cx="0" cy="0" r="1" gradientUnits="userSpaceOnUse" gradientTransform="translate(56.5828 59.0818) scale(3.42573)">
<stop stop-color="#FFE2FF"/>
<stop offset="0.03" stop-color="#FAD2FF"/>
<stop offset="0.1" stop-color="#F0B0FF"/>
<stop offset="0.17" stop-color="#E896FF"/>
<stop offset="0.25" stop-color="#E383FF"/>
<stop offset="0.32" stop-color="#E077FF"/>
<stop offset="0.41" stop-color="#DF74FF"/>
<stop offset="0.73" stop-color="#673EC0"/>
<stop offset="1" stop-color="#562495"/>
</radialGradient>
<radialGradient id="paint3_radial_82_101203" cx="0" cy="0" r="1" gradientUnits="userSpaceOnUse" gradientTransform="translate(58.0307 60.3924) scale(4.84862)">
<stop stop-color="#FFE2FF"/>
<stop offset="0.03" stop-color="#FAD2FF"/>
<stop offset="0.1" stop-color="#F0B0FF"/>
<stop offset="0.17" stop-color="#E896FF"/>
<stop offset="0.25" stop-color="#E383FF"/>
<stop offset="0.32" stop-color="#E077FF"/>
<stop offset="0.41" stop-color="#DF74FF"/>
<stop offset="0.73" stop-color="#673EC0"/>
<stop offset="1" stop-color="#562495"/>
</radialGradient>
<radialGradient id="paint4_radial_82_101203" cx="0" cy="0" r="1" gradientUnits="userSpaceOnUse" gradientTransform="translate(56.5826 52.0271) scale(3.88925 3.88925)">
<stop stop-color="#FFE2FF"/>
<stop offset="0.03" stop-color="#FAD2FF"/>
<stop offset="0.1" stop-color="#F0B0FF"/>
<stop offset="0.17" stop-color="#E896FF"/>
<stop offset="0.25" stop-color="#E383FF"/>
<stop offset="0.32" stop-color="#E077FF"/>
<stop offset="0.41" stop-color="#DF74FF"/>
<stop offset="0.73" stop-color="#673EC0"/>
<stop offset="1" stop-color="#562495"/>
</radialGradient>
<radialGradient id="paint5_radial_82_101203" cx="0" cy="0" r="1" gradientUnits="userSpaceOnUse" gradientTransform="translate(57.0706 51.2268) scale(4.11644)">
<stop stop-color="#FFE2FF"/>
<stop offset="0.03" stop-color="#FAD2FF"/>
<stop offset="0.1" stop-color="#F0B0FF"/>
<stop offset="0.17" stop-color="#E896FF"/>
<stop offset="0.25" stop-color="#E383FF"/>
<stop offset="0.32" stop-color="#E077FF"/>
<stop offset="0.41" stop-color="#DF74FF"/>
<stop offset="0.73" stop-color="#673EC0"/>
<stop offset="1" stop-color="#562495"/>
</radialGradient>
<radialGradient id="paint6_radial_82_101203" cx="0" cy="0" r="1" gradientUnits="userSpaceOnUse" gradientTransform="translate(48.1327 60.0481) scale(4.91103)">
<stop stop-color="#FFE2FF"/>
<stop offset="0.03" stop-color="#FAD2FF"/>
<stop offset="0.1" stop-color="#F0B0FF"/>
<stop offset="0.17" stop-color="#E896FF"/>
<stop offset="0.25" stop-color="#E383FF"/>
<stop offset="0.32" stop-color="#E077FF"/>
<stop offset="0.41" stop-color="#DF74FF"/>
<stop offset="0.73" stop-color="#673EC0"/>
<stop offset="1" stop-color="#562495"/>
</radialGradient>
<radialGradient id="paint7_radial_82_101203" cx="0" cy="0" r="1" gradientUnits="userSpaceOnUse" gradientTransform="translate(49.4893 59.0817) scale(3.23013 3.23013)">
<stop stop-color="#FFE2FF"/>
<stop offset="0.03" stop-color="#FAD2FF"/>
<stop offset="0.1" stop-color="#F0B0FF"/>
<stop offset="0.17" stop-color="#E896FF"/>
<stop offset="0.25" stop-color="#E383FF"/>
<stop offset="0.32" stop-color="#E077FF"/>
<stop offset="0.41" stop-color="#DF74FF"/>
<stop offset="0.73" stop-color="#673EC0"/>
<stop offset="1" stop-color="#562495"/>
</radialGradient>
<radialGradient id="paint8_radial_82_101203" cx="0" cy="0" r="1" gradientUnits="userSpaceOnUse" gradientTransform="translate(47.9397 54.8613) scale(8.98028)">
<stop stop-color="#FFE2FF"/>
<stop offset="0.03" stop-color="#FAD2FF"/>
<stop offset="0.1" stop-color="#F0B0FF"/>
<stop offset="0.17" stop-color="#E896FF"/>
<stop offset="0.25" stop-color="#E383FF"/>
<stop offset="0.32" stop-color="#E077FF"/>
<stop offset="0.41" stop-color="#DF74FF"/>
<stop offset="0.73" stop-color="#673EC0"/>
<stop offset="1" stop-color="#562495"/>
</radialGradient>
<radialGradient id="paint9_radial_82_101203" cx="0" cy="0" r="1" gradientUnits="userSpaceOnUse" gradientTransform="translate(53.1996 50.2178) scale(9.67555 9.67555)">
<stop stop-color="#FFE2FF"/>
<stop offset="0.03" stop-color="#FAD2FF"/>
<stop offset="0.1" stop-color="#F0B0FF"/>
<stop offset="0.17" stop-color="#E896FF"/>
<stop offset="0.25" stop-color="#E383FF"/>
<stop offset="0.32" stop-color="#E077FF"/>
<stop offset="0.41" stop-color="#DF74FF"/>
<stop offset="0.73" stop-color="#673EC0"/>
<stop offset="1" stop-color="#562495"/>
</radialGradient>
<radialGradient id="paint10_radial_82_101203" cx="0" cy="0" r="1" gradientUnits="userSpaceOnUse" gradientTransform="translate(53.9782 59.6756) scale(7.83177)">
<stop stop-color="#FFE2FF"/>
<stop offset="0.03" stop-color="#FAD2FF"/>
<stop offset="0.1" stop-color="#F0B0FF"/>
<stop offset="0.17" stop-color="#E896FF"/>
<stop offset="0.25" stop-color="#E383FF"/>
<stop offset="0.32" stop-color="#E077FF"/>
<stop offset="0.41" stop-color="#DF74FF"/>
<stop offset="0.73" stop-color="#673EC0"/>
<stop offset="1" stop-color="#562495"/>
</radialGradient>
<radialGradient id="paint11_radial_82_101203" cx="0" cy="0" r="1" gradientUnits="userSpaceOnUse" gradientTransform="translate(53.6323 68.5448) scale(14.977 14.977)">
<stop stop-color="#FFE2FF"/>
<stop offset="0.03" stop-color="#FAD2FF"/>
<stop offset="0.1" stop-color="#F0B0FF"/>
<stop offset="0.17" stop-color="#E896FF"/>
<stop offset="0.25" stop-color="#E383FF"/>
<stop offset="0.32" stop-color="#E077FF"/>
<stop offset="0.41" stop-color="#DF74FF"/>
<stop offset="0.73" stop-color="#673EC0"/>
<stop offset="1" stop-color="#562495"/>
</radialGradient>
<radialGradient id="paint12_radial_82_101203" cx="0" cy="0" r="1" gradientUnits="userSpaceOnUse" gradientTransform="translate(46.7204 61.7316) scale(10.4298 10.4298)">
<stop stop-color="#FFE2FF"/>
<stop offset="0.03" stop-color="#FAD2FF"/>
<stop offset="0.1" stop-color="#F0B0FF"/>
<stop offset="0.17" stop-color="#E896FF"/>
<stop offset="0.25" stop-color="#E383FF"/>
<stop offset="0.32" stop-color="#E077FF"/>
<stop offset="0.41" stop-color="#DF74FF"/>
<stop offset="0.73" stop-color="#673EC0"/>
<stop offset="1" stop-color="#562495"/>
</radialGradient>
<radialGradient id="paint13_radial_82_101203" cx="0" cy="0" r="1" gradientUnits="userSpaceOnUse" gradientTransform="translate(51.3273 53.3271) scale(7.68336)">
<stop stop-color="#FFE2FF"/>
<stop offset="0.03" stop-color="#FAD2FF"/>
<stop offset="0.1" stop-color="#F0B0FF"/>
<stop offset="0.17" stop-color="#E896FF"/>
<stop offset="0.25" stop-color="#E383FF"/>
<stop offset="0.32" stop-color="#E077FF"/>
<stop offset="0.41" stop-color="#DF74FF"/>
<stop offset="0.73" stop-color="#673EC0"/>
<stop offset="1" stop-color="#562495"/>
</radialGradient>
<radialGradient id="paint14_radial_82_101203" cx="0" cy="0" r="1" gradientUnits="userSpaceOnUse" gradientTransform="translate(57.1345 54.6775) scale(9.33153 9.33153)">
<stop stop-color="#FFE2FF"/>
<stop offset="0.03" stop-color="#FAD2FF"/>
<stop offset="0.1" stop-color="#F0B0FF"/>
<stop offset="0.17" stop-color="#E896FF"/>
<stop offset="0.25" stop-color="#E383FF"/>
<stop offset="0.32" stop-color="#E077FF"/>
<stop offset="0.41" stop-color="#DF74FF"/>
<stop offset="0.73" stop-color="#673EC0"/>
<stop offset="1" stop-color="#562495"/>
</radialGradient>
<radialGradient id="paint15_radial_82_101203" cx="0" cy="0" r="1" gradientUnits="userSpaceOnUse" gradientTransform="translate(56.5717 49.9182) scale(9.73568 9.73568)">
<stop stop-color="#FFE2FF"/>
<stop offset="0.03" stop-color="#FAD2FF"/>
<stop offset="0.1" stop-color="#F0B0FF"/>
<stop offset="0.17" stop-color="#E896FF"/>
<stop offset="0.25" stop-color="#E383FF"/>
<stop offset="0.32" stop-color="#E077FF"/>
<stop offset="0.41" stop-color="#DF74FF"/>
<stop offset="0.73" stop-color="#673EC0"/>
<stop offset="1" stop-color="#562495"/>
</radialGradient>
<clipPath id="clip0_82_101203">
<rect x="0.330078" width="140.267" height="135.56" rx="7.53114" fill="white"/>
</clipPath>
<clipPath id="clip1_82_101203">
<rect width="11.2967" height="11.2967" fill="white" transform="translate(47.3997 49.8936)"/>
</clipPath>
</defs>
</svg>
