<svg width="20" height="20" viewBox="0 0 20 20" fill="none" xmlns="http://www.w3.org/2000/svg">
<path d="M4 4V16H16M16 4L12 5M11.4089 6.43335L13.2562 8.89668M12.6667 10.3333L9.33333 11.6667M6.66667 12C6.66667 12.3536 6.80714 12.6928 7.05719 12.9428C7.30724 13.1929 7.64638 13.3333 8 13.3333C8.35362 13.3333 8.69276 13.1929 8.94281 12.9428C9.19286 12.6928 9.33333 12.3536 9.33333 12C9.33333 11.6464 9.19286 11.3072 8.94281 11.0572C8.69276 10.8071 8.35362 10.6667 8 10.6667C7.64638 10.6667 7.30724 10.8071 7.05719 11.0572C6.80714 11.3072 6.66667 11.6464 6.66667 12ZM9.33333 5.33333C9.33333 5.68696 9.47381 6.02609 9.72386 6.27614C9.97391 6.52619 10.313 6.66667 10.6667 6.66667C11.0203 6.66667 11.3594 6.52619 11.6095 6.27614C11.8595 6.02609 12 5.68696 12 5.33333C12 4.97971 11.8595 4.64057 11.6095 4.39052C11.3594 4.14048 11.0203 4 10.6667 4C10.313 4 9.97391 4.14048 9.72386 4.39052C9.47381 4.64057 9.33333 4.97971 9.33333 5.33333ZM12.6667 10C12.6667 10.3536 12.8071 10.6928 13.0572 10.9428C13.3072 11.1929 13.6464 11.3333 14 11.3333C14.3536 11.3333 14.6928 11.1929 14.9428 10.9428C15.1929 10.6928 15.3333 10.3536 15.3333 10C15.3333 9.64638 15.1929 9.30724 14.9428 9.05719C14.6928 8.80714 14.3536 8.66667 14 8.66667C13.6464 8.66667 13.3072 8.80714 13.0572 9.05719C12.8071 9.30724 12.6667 9.64638 12.6667 10Z" stroke="#9191A4" stroke-width="1.5" stroke-linecap="round" stroke-linejoin="round"/>
</svg>
