<svg width="20" height="20" viewBox="0 0 20 20" fill="none" xmlns="http://www.w3.org/2000/svg">
<path d="M5 6.05263C5 7.18637 7.31776 8.10526 10.1765 8.10526C13.0352 8.10526 15.3529 7.18637 15.3529 6.05263M5 6.05263C5 4.91889 7.31776 4 10.1765 4C13.0352 4 15.3529 4.91889 15.3529 6.05263M5 6.05263V10.1579M15.3529 6.05263V8.78947M5 10.1579C5 11.2916 7.31776 12.2105 10.1765 12.2105C10.445 12.2105 10.7084 12.2023 10.9659 12.1866M5 10.1579V14.2632C5 15.3969 7.31776 16.3158 10.1765 16.3158C10.4042 16.3158 10.6281 16.3096 10.8475 16.2987M16 12.2105H14.3824C14.1249 12.2105 13.8781 12.3187 13.696 12.5111C13.514 12.7036 13.4118 12.9646 13.4118 13.2368C13.4118 13.509 13.514 13.7701 13.696 13.9626C13.8781 14.155 14.1249 14.2632 14.3824 14.2632H15.0294C15.2868 14.2632 15.5337 14.3713 15.7157 14.5638C15.8977 14.7562 16 15.0173 16 15.2895C16 15.5617 15.8977 15.8227 15.7157 16.0152C15.5337 16.2077 15.2868 16.3158 15.0294 16.3158H13.4118M14.7059 16.3158V17M14.7059 11.5263V12.2105" stroke="#9191A4" stroke-width="1.5" stroke-linecap="round" stroke-linejoin="round"/>
</svg>
