<svg width="16" height="16" viewBox="0 0 16 16" fill="none" xmlns="http://www.w3.org/2000/svg">
<path fill-rule="evenodd" clip-rule="evenodd" d="M4.15586 3.625C4.01025 3.625 3.87356 3.6816 3.7751 3.7777C3.67716 3.8733 3.625 3.9997 3.625 4.12821L3.625 6.32372H6.42052L6.42052 3.625L4.15586 3.625ZM4.15586 2.375C3.68837 2.375 3.23706 2.55613 2.90199 2.88318C2.5664 3.21074 2.375 3.65827 2.375 4.12821L2.375 12.0256C2.375 12.4956 2.5664 12.9431 2.90199 13.2707C3.23706 13.5977 3.68837 13.7788 4.15586 13.7788L8.20138 13.7788C8.54656 13.7788 8.82638 13.499 8.82638 13.1538C8.82638 12.8087 8.54656 12.5288 8.20138 12.5288L7.67052 12.5288L7.67052 7.57372L12.7778 7.57372L12.7778 8.07692C12.7778 8.4221 13.0576 8.70192 13.4028 8.70192C13.7479 8.70192 14.0278 8.4221 14.0278 8.07692L14.0278 4.12821C14.0278 3.65827 13.8364 3.21074 13.5008 2.88318C13.1657 2.55613 12.7144 2.375 12.2469 2.375L4.15586 2.375ZM7.67052 3.625L7.67052 6.32372L12.7778 6.32372V4.12821C12.7778 3.9997 12.7256 3.8733 12.6277 3.7777C12.5292 3.6816 12.3925 3.625 12.2469 3.625L7.67052 3.625ZM6.42052 7.57372L3.625 7.57372L3.625 12.0256C3.625 12.1541 3.67716 12.2805 3.7751 12.3761C3.87356 12.4722 4.01025 12.5288 4.15586 12.5288H6.42052L6.42052 7.57372ZM12.2475 9.42628C12.5926 9.42628 12.8725 9.70611 12.8725 10.0513V10.3839C13.0546 10.4511 13.2257 10.5478 13.3782 10.6711L13.6926 10.494C13.9933 10.3245 14.3744 10.4309 14.5439 10.7316C14.7134 11.0323 14.607 11.4135 14.3063 11.583L14.0065 11.7519C14.0209 11.8418 14.0283 11.9333 14.0283 12.0256C14.0283 12.1179 14.0209 12.2094 14.0065 12.2992L14.3067 12.4682C14.6074 12.6376 14.714 13.0187 14.5446 13.3195C14.3752 13.6203 13.9941 13.7268 13.6933 13.5574L13.3783 13.38C13.2258 13.5035 13.0547 13.6001 12.8725 13.6673V14C12.8725 14.3452 12.5926 14.625 12.2475 14.625C11.9023 14.625 11.6225 14.3452 11.6225 14V13.6673C11.4403 13.6002 11.2693 13.5036 11.1169 13.3803L10.8023 13.5574C10.5015 13.7268 10.1204 13.6203 9.95102 13.3195C9.78165 13.0187 9.88818 12.6376 10.1889 12.4682L10.4885 12.2996C10.474 12.2096 10.4666 12.1181 10.4666 12.0256C10.4666 11.9332 10.474 11.8417 10.4885 11.7517L10.1889 11.5831C9.88818 11.4137 9.78165 11.0326 9.95102 10.7318C10.1204 10.431 10.5015 10.3245 10.8023 10.4939L11.1169 10.671C11.2693 10.5477 11.4403 10.4511 11.6225 10.3839V10.0513C11.6225 9.70611 11.9023 9.42628 12.2475 9.42628ZM11.7769 11.7929C11.7819 11.7848 11.7868 11.7766 11.7915 11.7682C11.7918 11.7677 11.7921 11.7672 11.7923 11.7668C11.813 11.734 11.8379 11.7033 11.8667 11.6751C11.9652 11.579 12.1019 11.5224 12.2475 11.5224C12.3931 11.5224 12.5298 11.579 12.6282 11.6751C12.7262 11.7707 12.7783 11.8971 12.7783 12.0256C12.7783 12.1541 12.7262 12.2805 12.6282 12.3761C12.5298 12.4722 12.3931 12.5288 12.2475 12.5288C12.1019 12.5288 11.9652 12.4722 11.8667 12.3761C11.8379 12.348 11.813 12.3172 11.7923 12.2845C11.7921 12.284 11.7918 12.2836 11.7915 12.2831C11.7868 12.2747 11.7819 12.2665 11.7769 12.2584C11.7372 12.1864 11.7166 12.1064 11.7166 12.0256C11.7166 11.9448 11.7372 11.8649 11.7769 11.7929Z" fill="#9191A4"/>
</svg>
