<svg xmlns="http://www.w3.org/2000/svg" width="24" height="24" viewBox="0 0 24 24" fill="none">
<path fill-rule="evenodd" clip-rule="evenodd" d="M6.23379 5.4375C6.01538 5.4375 5.81034 5.5224 5.66265 5.66656C5.51574 5.80996 5.4375 5.99955 5.4375 6.19231L5.4375 9.48558H9.63078V5.4375L6.23379 5.4375ZM6.23379 3.5625C5.53255 3.5625 4.85559 3.83419 4.35298 4.32477C3.8496 4.81611 3.5625 5.48741 3.5625 6.19231L3.5625 18.0385C3.5625 18.7434 3.8496 19.4147 4.35298 19.906C4.85559 20.3966 5.53255 20.6683 6.23379 20.6683H12.3021C12.8198 20.6683 13.2396 20.2485 13.2396 19.7308C13.2396 19.213 12.8198 18.7933 12.3021 18.7933H11.5058L11.5058 11.3606L19.1666 11.3606V12.1154C19.1666 12.6332 19.5864 13.0529 20.1041 13.0529C20.6219 13.0529 21.0416 12.6332 21.0416 12.1154V6.19231C21.0416 5.48741 20.7546 4.81611 20.2512 4.32477C19.7486 3.83419 19.0716 3.5625 18.3704 3.5625L6.23379 3.5625ZM11.5058 5.4375V9.48558L19.1666 9.48558V6.19231C19.1666 5.99955 19.0884 5.80996 18.9415 5.66656C18.7938 5.5224 18.5888 5.4375 18.3704 5.4375L11.5058 5.4375ZM9.63078 11.3606H5.4375L5.4375 18.0385C5.4375 18.2312 5.51574 18.4208 5.66265 18.5642C5.81034 18.7084 6.01538 18.7933 6.23379 18.7933H9.63078L9.63078 11.3606ZM18.3712 14.1394C18.889 14.1394 19.3087 14.5592 19.3087 15.0769V15.5759C19.582 15.6767 19.8386 15.8216 20.0673 16.0067L20.5389 15.741C20.9899 15.4868 21.5617 15.6463 21.8159 16.0974C22.0701 16.5485 21.9105 17.1202 21.4594 17.3744L21.0098 17.6278C21.0314 17.7627 21.0425 17.8999 21.0425 18.0385C21.0425 18.1769 21.0314 18.3141 21.0098 18.4488L21.46 18.7023C21.9112 18.9564 22.0709 19.5281 21.8169 19.9792C21.5628 20.4304 20.9911 20.5902 20.54 20.3361L20.0675 20.0701C19.8388 20.2552 19.5821 20.4002 19.3087 20.501V21C19.3087 21.5178 18.889 21.9375 18.3712 21.9375C17.8534 21.9375 17.4337 21.5178 17.4337 21V20.501C17.1605 20.4002 16.904 20.2554 16.6753 20.0704L16.2034 20.3361C15.7523 20.5902 15.1806 20.4304 14.9265 19.9792C14.6725 19.5281 14.8323 18.9564 15.2834 18.7023L15.7327 18.4494C15.711 18.3144 15.6999 18.1771 15.6999 18.0385C15.6999 17.8998 15.711 17.7625 15.7327 17.6276L15.2834 17.3746C14.8323 17.1205 14.6725 16.5488 14.9265 16.0977C15.1806 15.6465 15.7523 15.4868 16.2034 15.7408L16.6753 16.0065C16.904 15.8216 17.1605 15.6767 17.4337 15.5759V15.0769C17.4337 14.5592 17.8534 14.1394 18.3712 14.1394ZM17.6653 17.6893C17.6729 17.6772 17.6802 17.6649 17.6873 17.6523C17.6877 17.6516 17.6881 17.6509 17.6885 17.6502C17.7196 17.6011 17.7568 17.5549 17.8001 17.5127C17.9477 17.3686 18.1528 17.2837 18.3712 17.2837C18.5896 17.2837 18.7947 17.3686 18.9423 17.5127C19.0893 17.6561 19.1675 17.8457 19.1675 18.0385C19.1675 18.2312 19.0893 18.4208 18.9423 18.5642C18.7947 18.7084 18.5896 18.7933 18.3712 18.7933C18.1528 18.7933 17.9477 18.7084 17.8001 18.5642C17.7568 18.522 17.7196 18.4759 17.6885 18.4268C17.6881 18.4261 17.6877 18.4253 17.6873 18.4246C17.6802 18.4121 17.6729 18.3997 17.6653 18.3876C17.6058 18.2796 17.5749 18.1597 17.5749 18.0385C17.5749 17.9173 17.6058 17.7973 17.6653 17.6893Z" fill="#ffffff"/>
</svg>