<svg width="20" height="20" viewBox="0 0 20 20" fill="none" xmlns="http://www.w3.org/2000/svg">
<g clip-path="url(#clip0_0_3203)">
<path d="M10 2.5C14.1421 2.5 17.5 5.85786 17.5 10C17.5 14.1421 14.1421 17.5 10 17.5C5.85786 17.5 2.5 14.1421 2.5 10C2.5 5.85786 5.85786 2.5 10 2.5ZM10 4.00024C6.68629 4.00024 4.00024 6.68629 4.00024 10C4.00024 13.3137 6.68629 15.9998 10 15.9998C13.3137 15.9998 15.9998 13.3137 15.9998 10C15.9998 6.68629 13.3137 4.00024 10 4.00024ZM9.5581 7.62939C9.80217 7.38538 10.1978 7.38538 10.4419 7.62939L12.2095 9.39697C12.4535 9.64103 12.4535 10.0367 12.2095 10.2808L10.4419 12.0483C10.1978 12.2924 9.80218 12.2924 9.5581 12.0483L7.79053 10.2808C7.5465 10.0367 7.54646 9.64103 7.79053 9.39697L9.5581 7.62939Z" fill="#9191A4"/>
</g>
<defs>
<clipPath id="clip0_0_3203">
<rect width="20" height="20" fill="white"/>
</clipPath>
</defs>
</svg>
