<svg width="20" height="20" viewBox="0 0 20 20" fill="none" xmlns="http://www.w3.org/2000/svg">
<path fill-rule="evenodd" clip-rule="evenodd" d="M14.9293 5.83374C14.7577 5.34824 14.2947 5.00041 13.7504 5.00041H3.75045C3.52138 5.00041 3.33378 5.18591 3.33378 5.41707C3.33378 5.64679 3.51968 5.83309 3.74924 5.83374C3.74884 5.83374 3.74964 5.83374 3.74924 5.83374L14.9293 5.83374ZM2.91711 6.86077V14.1671C2.91711 14.8574 3.47676 15.4171 4.16711 15.4171H15.0004C16.151 15.4171 17.0838 14.4843 17.0838 13.3337V9.16707C17.0838 8.39739 16.667 7.72357 16.0409 7.36151C15.8461 7.24888 15.6893 7.08841 15.5816 6.90006C15.3879 7.01854 15.1628 7.08374 14.9293 7.08374H3.75045C3.44688 7.08374 3.16226 7.00258 2.91711 6.86077ZM1.66711 5.41707C1.66711 4.26753 2.5976 3.33374 3.74924 3.33374H13.7504C15.3613 3.33374 16.6671 4.63958 16.6671 6.25041C16.6671 6.26011 16.6669 6.26977 16.6666 6.27939C17.6632 6.85567 18.3338 7.93307 18.3338 9.16707V13.3337C18.3338 15.1747 16.8414 16.6671 15.0004 16.6671H4.16711C2.7864 16.6671 1.66711 15.5478 1.66711 14.1671V5.41707Z" fill="#9191A4"/>
<path d="M13.7499 10C13.0596 10 12.4999 10.5596 12.4999 11.25C12.4999 11.9404 13.0596 12.5 13.7499 12.5C14.4403 12.5 14.9999 11.9404 14.9999 11.25C14.9999 10.5596 14.4403 10 13.7499 10Z" fill="#9191A4"/>
</svg>
