<svg width="183" height="143" viewBox="0 0 183 143" fill="none" xmlns="http://www.w3.org/2000/svg">
<path d="M29.6461 109.142C30.7471 108.041 32.2611 107.399 33.8668 107.399H179.482C182.143 107.399 183.473 110.611 181.592 112.491L152.827 141.257C151.726 142.358 150.212 143 148.606 143H2.99128C0.33039 143 -1.00006 139.789 0.88092 137.908L29.6461 109.142Z" fill="white"/>
<path d="M29.6461 109.142C30.7471 108.041 32.2611 107.399 33.8668 107.399H179.482C182.143 107.399 183.473 110.611 181.592 112.491L152.827 141.257C151.726 142.358 150.212 143 148.606 143H2.99128C0.33039 143 -1.00006 139.789 0.88092 137.908L29.6461 109.142Z" fill="url(#paint0_linear_3_19)"/>
<path d="M29.6461 1.74334C30.793 0.642284 32.307 0 33.8668 0H179.482C182.143 0 183.473 3.21142 181.592 5.0924L152.827 33.8576C151.726 34.9586 150.212 35.6009 148.606 35.6009H2.99128C0.33039 35.6009 -1.00006 32.3895 0.88092 30.5085L29.6461 1.74334Z" fill="white"/>
<path d="M29.6461 1.74334C30.793 0.642284 32.307 0 33.8668 0H179.482C182.143 0 183.473 3.21142 181.592 5.0924L152.827 33.8576C151.726 34.9586 150.212 35.6009 148.606 35.6009H2.99128C0.33039 35.6009 -1.00006 32.3895 0.88092 30.5085L29.6461 1.74334Z" fill="url(#paint1_linear_3_19)"/>
<path d="M152.827 55.0988C151.726 53.9978 150.212 53.3555 148.606 53.3555H2.99128C0.33039 53.3555 -1.00006 56.5669 0.88092 58.4479L29.6461 87.213C30.7471 88.3141 32.2611 88.9564 33.8668 88.9564H179.482C182.143 88.9564 183.473 85.7449 181.592 83.864L152.827 55.0988Z" fill="white"/>
<path d="M152.827 55.0988C151.726 53.9978 150.212 53.3555 148.606 53.3555H2.99128C0.33039 53.3555 -1.00006 56.5669 0.88092 58.4479L29.6461 87.213C30.7471 88.3141 32.2611 88.9564 33.8668 88.9564H179.482C182.143 88.9564 183.473 85.7449 181.592 83.864L152.827 55.0988Z" fill="url(#paint2_linear_3_19)"/>
<defs>
<linearGradient id="paint0_linear_3_19" x1="91.2366" y1="143" x2="91.2366" y2="0" gradientUnits="userSpaceOnUse">
<stop stop-color="#E13B5C"/>
<stop offset="1" stop-color="#F8DDD8"/>
</linearGradient>
<linearGradient id="paint1_linear_3_19" x1="91.2366" y1="143" x2="91.2366" y2="0" gradientUnits="userSpaceOnUse">
<stop stop-color="#E13B5C"/>
<stop offset="1" stop-color="#F8DDD8"/>
</linearGradient>
<linearGradient id="paint2_linear_3_19" x1="91.2366" y1="143" x2="91.2366" y2="0" gradientUnits="userSpaceOnUse">
<stop stop-color="#E13B5C"/>
<stop offset="1" stop-color="#F8DDD8"/>
</linearGradient>
</defs>
</svg>
