<svg width="98" height="85" viewBox="0 0 98 85" fill="none" xmlns="http://www.w3.org/2000/svg">
<g clip-path="url(#clip0_2081_180)">
<path d="M94.6304 67.1814L79.0511 83.7687C78.7153 84.1327 78.3072 84.4226 77.8529 84.6197C77.3987 84.8168 76.9082 84.9169 76.413 84.9135H2.5605C2.20847 84.9117 1.86441 84.8086 1.56932 84.6167C1.27422 84.4247 1.04056 84.152 0.89617 83.8309C0.754489 83.5107 0.711177 83.1555 0.771734 82.8105C0.83359 82.4639 0.99335 82.1423 1.23215 81.8835L16.7928 65.2962C17.1283 64.9319 17.5364 64.6419 17.9907 64.4447C18.445 64.2476 18.9356 64.1477 19.4309 64.1514H93.2834C93.6374 64.1418 93.9862 64.2376 94.2856 64.4267C94.585 64.6158 94.8214 64.8896 94.9647 65.2134C95.1081 65.5372 95.152 65.8962 95.0908 66.245C95.0296 66.5938 94.8661 66.9165 94.6211 67.1721L94.6304 67.1814ZM79.048 33.7705C78.7066 33.4136 78.2974 33.1285 77.8444 32.9319C77.3914 32.7354 76.9037 32.6312 76.4099 32.6257H2.5605C2.20813 32.6278 1.86382 32.7313 1.5687 32.9238C1.27357 33.1163 1.0401 33.3897 0.89617 33.7114C0.754671 34.0317 0.711367 34.3868 0.771734 34.7318C0.833952 35.0802 0.992607 35.3944 1.23215 35.6557L16.7928 52.2523C17.1257 52.61 17.5394 52.8993 17.9874 53.0922C18.4447 53.2913 18.93 53.3878 19.4309 53.3971H93.2834C93.6336 53.3979 93.9764 53.2957 94.269 53.1032C94.5616 52.9107 94.7911 52.6365 94.929 52.3145C95.071 51.9944 95.1149 51.6395 95.055 51.2945C94.9952 50.9495 94.8345 50.63 94.5931 50.3764L79.0386 33.7798L79.048 33.7705ZM2.55739 21.8558H76.4099C76.9061 21.8532 77.3969 21.7516 77.8534 21.5571C78.3107 21.358 78.7151 21.0781 79.048 20.711L94.6335 4.1237C94.8134 3.93156 94.9489 3.70233 95.0306 3.45216C95.1124 3.20199 95.1383 2.93695 95.1065 2.67569C95.0748 2.41443 94.9862 2.1633 94.847 1.93997C94.7077 1.71663 94.5213 1.52652 94.3007 1.38301C94.0013 1.19123 93.6512 1.0937 93.2958 1.10303H19.4309C18.9393 1.10303 18.4447 1.2088 17.9874 1.39856C17.5338 1.59425 17.1267 1.88367 16.7928 2.24784L1.23215 18.8351C0.9941 19.092 0.835662 19.4124 0.776029 19.7575C0.716396 20.1026 0.758128 20.4576 0.89617 20.7794C1.04034 21.1 1.27352 21.3724 1.56801 21.5643C1.86249 21.7562 2.20589 21.8596 2.55739 21.862V21.8558Z" fill="white"/>
<path d="M94.6304 67.1814L79.0511 83.7687C78.7153 84.1327 78.3072 84.4226 77.8529 84.6197C77.3987 84.8168 76.9082 84.9169 76.413 84.9135H2.5605C2.20847 84.9117 1.86441 84.8086 1.56932 84.6167C1.27422 84.4247 1.04056 84.152 0.89617 83.8309C0.754489 83.5107 0.711177 83.1555 0.771734 82.8105C0.83359 82.4639 0.99335 82.1423 1.23215 81.8835L16.7928 65.2962C17.1283 64.9319 17.5364 64.6419 17.9907 64.4447C18.445 64.2476 18.9356 64.1477 19.4309 64.1514H93.2834C93.6374 64.1418 93.9862 64.2376 94.2856 64.4267C94.585 64.6158 94.8214 64.8896 94.9647 65.2134C95.1081 65.5372 95.152 65.8962 95.0908 66.245C95.0296 66.5938 94.8661 66.9165 94.6211 67.1721L94.6304 67.1814ZM79.048 33.7705C78.7066 33.4136 78.2974 33.1285 77.8444 32.9319C77.3914 32.7354 76.9037 32.6312 76.4099 32.6257H2.5605C2.20813 32.6278 1.86382 32.7313 1.5687 32.9238C1.27357 33.1163 1.0401 33.3897 0.89617 33.7114C0.754671 34.0317 0.711367 34.3868 0.771734 34.7318C0.833952 35.0802 0.992607 35.3944 1.23215 35.6557L16.7928 52.2523C17.1257 52.61 17.5394 52.8993 17.9874 53.0922C18.4447 53.2913 18.93 53.3878 19.4309 53.3971H93.2834C93.6336 53.3979 93.9764 53.2957 94.269 53.1032C94.5616 52.9107 94.7911 52.6365 94.929 52.3145C95.071 51.9944 95.1149 51.6395 95.055 51.2945C94.9952 50.9495 94.8345 50.63 94.5931 50.3764L79.0386 33.7798L79.048 33.7705ZM2.55739 21.8558H76.4099C76.9061 21.8532 77.3969 21.7516 77.8534 21.5571C78.3107 21.358 78.7151 21.0781 79.048 20.711L94.6335 4.1237C94.8134 3.93156 94.9489 3.70233 95.0306 3.45216C95.1124 3.20199 95.1383 2.93695 95.1065 2.67569C95.0748 2.41443 94.9862 2.1633 94.847 1.93997C94.7077 1.71663 94.5213 1.52652 94.3007 1.38301C94.0013 1.19123 93.6512 1.0937 93.2958 1.10303H19.4309C18.9393 1.10303 18.4447 1.2088 17.9874 1.39856C17.5338 1.59425 17.1267 1.88367 16.7928 2.24784L1.23215 18.8351C0.9941 19.092 0.835662 19.4124 0.776029 19.7575C0.716396 20.1026 0.758128 20.4576 0.89617 20.7794C1.04034 21.1 1.27352 21.3724 1.56801 21.5643C1.86249 21.7562 2.20589 21.8596 2.55739 21.862V21.8558Z" fill="url(#paint0_linear_2081_180)"/>
</g>
<defs>
<linearGradient id="paint0_linear_2081_180" x1="47.9324" y1="1.10242" x2="47.9324" y2="63.9608" gradientUnits="userSpaceOnUse">
<stop offset="0.5" stop-color="white"/>
<stop offset="1" stop-color="#CE70F3"/>
</linearGradient>
<clipPath id="clip0_2081_180">
<rect width="96.4376" height="83.994" fill="white" transform="translate(0.746582 0.919556)"/>
</clipPath>
</defs>
</svg>
