<svg width="85" height="85" viewBox="0 0 85 85" fill="none" xmlns="http://www.w3.org/2000/svg">
<path d="M6.92037 40.9387C5.26105 40.9387 3.75636 40.2653 2.66899 39.1779C1.58162 38.0906 0.908253 36.5859 0.909915 34.9282C0.909915 33.2656 1.58162 31.7626 2.66899 30.6752C3.7547 29.5895 5.25606 28.9194 6.91704 28.9178L50.4118 28.9144C52.0711 28.9144 53.5758 29.5878 54.6632 30.6752C55.7505 31.7626 56.4239 33.2672 56.4222 34.9249V78.4163C56.4222 80.0756 55.7489 81.5803 54.6615 82.6677C53.5741 83.7551 52.0694 84.4284 50.4118 84.4268C48.7491 84.4268 47.2461 83.7551 46.1587 82.6677C45.0714 81.5803 44.398 80.0756 44.3997 78.418L44.3997 40.9387L6.92037 40.9387Z" fill="#9191A4"/>
<path d="M35.2049 12.7916C33.5456 12.7916 32.0409 12.1182 30.9535 11.0308C29.8662 9.94346 29.1928 8.43877 29.1944 6.78111C29.1944 5.11847 29.8662 3.61544 30.9535 2.52807C32.0392 1.44236 33.5406 0.77232 35.2016 0.770657L78.6963 0.767334C80.3556 0.767334 81.8603 1.44071 82.9477 2.52807C84.0351 3.61544 84.7084 5.12013 84.7068 6.77779V50.2692C84.7068 51.9285 84.0334 53.4332 82.946 54.5206C81.8587 55.6079 80.354 56.2813 78.6963 56.2797C77.0337 56.2796 75.5306 55.6079 74.4433 54.5206C73.3559 53.4332 72.6825 51.9285 72.6842 50.2709L72.6842 12.7916L35.2049 12.7916Z" fill="#9191A4"/>
</svg>
