<svg width="54" height="54" viewBox="0 0 54 54" fill="none" xmlns="http://www.w3.org/2000/svg">
<path d="M27.128 53.63C23.4772 53.63 20.038 52.9421 16.8105 51.54C13.583 50.1379 10.7788 48.2596 8.39781 45.8786C6.01685 43.4977 4.13855 40.6934 2.73643 37.4659C1.33432 34.2384 0.646484 30.7993 0.646484 27.1485C0.646484 23.4977 1.33432 20.0585 2.73643 16.831C4.13855 13.6035 6.01685 10.7993 8.39781 8.41831C10.7788 6.03736 13.583 4.15906 16.8105 2.75694C20.038 1.35482 23.4772 0.666992 27.128 0.666992C30.7788 0.666992 34.2179 1.35482 37.4454 2.75694C40.6729 4.15906 43.4772 6.03736 45.8581 8.41831C48.2391 10.7993 50.1174 13.6035 51.5195 16.831C52.9216 20.0585 53.6094 23.4977 53.6094 27.1485C53.6094 30.7993 52.9216 34.2384 51.5195 37.4659C50.1174 40.6934 48.2391 43.4977 45.8581 45.8786C43.4772 48.2596 40.6729 50.1379 37.4454 51.54C34.2179 52.9421 30.7788 53.63 27.128 53.63ZM24.4825 48.2067V43.0479C23.0274 43.0479 21.7841 42.5188 20.7523 41.4871C19.7206 40.4554 19.1915 39.212 19.1915 37.7569V35.1114L6.49305 22.413C6.36077 23.2067 6.22849 24.0003 6.12267 24.794C6.01685 25.5876 5.96394 26.3813 5.96394 27.1749C5.96394 32.5188 7.70998 37.1749 11.2285 41.1961C14.747 45.2173 19.165 47.5453 24.4825 48.2067ZM42.7364 41.4606C44.5354 39.4765 45.911 37.2543 46.8634 34.8204C47.8158 32.3866 48.292 29.8204 48.292 27.1749C48.292 22.8628 47.1015 18.8945 44.6941 15.3231C42.2867 11.7516 39.0856 9.15906 35.0645 7.57175V8.62995C35.0645 10.085 34.5354 11.3284 33.5036 12.3601C32.4719 13.3919 31.2285 13.921 29.7735 13.921H24.4825V19.212C24.4825 19.9527 24.2179 20.5876 23.7153 21.0903C23.2126 21.5929 22.5777 21.8575 21.837 21.8575H16.546V27.1485H32.419C33.1597 27.1485 33.7946 27.413 34.2973 27.9157C34.7999 28.4183 35.0645 29.0532 35.0645 29.794V37.7305H37.71C38.8475 37.7305 39.9057 38.0744 40.8317 38.7622C41.7576 39.4501 42.3925 40.3495 42.7629 41.4342L42.7364 41.4606Z" fill="#BABAD0"/>
</svg>
