<svg width="89" height="94" viewBox="0 0 89 94" fill="none" xmlns="http://www.w3.org/2000/svg">
<path fill-rule="evenodd" clip-rule="evenodd" d="M71.7097 24.364H72.0713C77.0654 24.364 81.799 26.5962 84.9725 30.4427C88.1506 34.2934 89.4454 39.3633 88.5037 44.2609L81.5884 80.1366C80.0665 88.0104 73.1807 93.7019 65.1551 93.7019H24.5926C16.5759 93.7019 9.6821 88.0098 8.1636 80.1366L1.24826 44.2609C0.306604 39.3592 1.59718 34.2894 4.77524 30.4427C7.95332 26.592 12.6869 24.364 17.6765 24.364H18.1726V23.4266C18.1726 17.2133 20.6403 11.256 25.0333 6.86303C29.4262 2.47005 35.3873 -0.00183105 41.5968 -0.00183105H48.2894C54.5026 -0.00183105 60.4632 2.47005 64.8572 6.86303C69.2502 11.256 71.7137 17.2129 71.7137 23.4266V24.364H71.7097ZM65.0171 24.364V23.4266C65.0171 18.9873 63.2558 14.7331 60.1155 11.5972C56.9836 8.45686 52.7209 6.69547 48.286 6.69547H41.5935C37.1542 6.69547 32.9 8.45686 29.7641 11.5972C26.6238 14.7333 24.8624 18.9875 24.8624 23.4266V24.364H65.0212H65.0171Z" fill="#00FFA3"/>
</svg>
