<svg width="97" height="95" viewBox="0 0 97 95" fill="none" xmlns="http://www.w3.org/2000/svg">
<path d="M68.4028 62.2494C68.7988 62.2485 69.1861 62.1324 69.5172 61.9153C69.8484 61.6982 70.1093 61.3894 70.268 61.0266L74.749 50.7477C76.8368 45.9366 80.6738 42.0981 85.484 40.0084L95.763 35.5263C96.1287 35.3694 96.4403 35.1086 96.6593 34.7763C96.8783 34.444 96.995 34.0548 96.995 33.6568C96.995 33.2589 96.8783 32.8697 96.6593 32.5374C96.4403 32.2051 96.1287 31.9443 95.763 31.7874L85.484 27.3053C80.6749 25.2163 76.838 21.3795 74.749 16.5703L70.268 6.29134C70.1094 5.92726 69.848 5.61738 69.5158 5.39975C69.1836 5.18211 68.7951 5.06619 68.398 5.06619C68.0009 5.06619 67.6124 5.18211 67.2802 5.39975C66.948 5.61738 66.6866 5.92726 66.528 6.29134L62.047 16.5703C59.958 21.3795 56.1212 25.2163 51.312 27.3053L41.0331 31.7874C40.6673 31.9443 40.3557 32.2051 40.1367 32.5374C39.9177 32.8697 39.801 33.2589 39.801 33.6568C39.801 34.0548 39.9177 34.444 40.1367 34.7763C40.3557 35.1086 40.6673 35.3694 41.0331 35.5263L51.312 40.0084C56.1222 42.0981 59.9592 45.9366 62.047 50.7477L66.528 61.0266C66.6875 61.3908 66.9499 61.7006 67.2829 61.9178C67.616 62.135 68.0052 62.2502 68.4028 62.2494Z" fill="url(#paint0_linear_0_133)"/>
<path d="M25.8753 94.9291C26.1936 94.929 26.5049 94.8361 26.7712 94.6617C27.0374 94.4873 27.247 94.239 27.3743 93.9473L30.0746 87.7617C31.2904 84.9634 33.5229 82.7309 36.3212 81.5151L42.5068 78.8191C42.7987 78.6919 43.0471 78.4824 43.2215 78.2161C43.396 77.9498 43.489 77.6384 43.489 77.32C43.489 77.0017 43.396 76.6903 43.2215 76.424C43.0471 76.1577 42.7987 75.9481 42.5068 75.821L36.3169 73.1271C33.52 71.9098 31.2891 69.6766 30.0746 66.8784L27.3786 60.6928C27.2511 60.4013 27.0414 60.1533 26.7752 59.9791C26.5089 59.805 26.1977 59.7122 25.8796 59.7122C25.5614 59.7122 25.2502 59.805 24.9839 59.9791C24.7177 60.1533 24.508 60.4013 24.3805 60.6928L21.6845 66.8784C20.4684 69.6785 18.2341 71.912 15.4336 73.1271L9.24804 75.8232C8.95655 75.9506 8.70855 76.1603 8.53439 76.4266C8.36023 76.6928 8.26747 77.004 8.26747 77.3222C8.26747 77.6403 8.36023 77.9516 8.53439 78.2178C8.70855 78.484 8.95655 78.6937 9.24804 78.8212L15.4336 81.5173C18.2314 82.7334 20.4635 84.9659 21.6791 87.7638L24.3752 93.9494C24.5029 94.2409 24.7128 94.4888 24.9792 94.6628C25.2456 94.8369 25.557 94.9294 25.8753 94.9291Z" fill="url(#paint1_linear_0_133)"/>
<path d="M13.031 24.9586C13.2955 24.9587 13.5543 24.8817 13.7756 24.737C13.997 24.5923 14.1713 24.3861 14.2773 24.1438L16.1425 19.8609C16.9597 17.9784 18.4615 16.4766 20.3441 15.6594L24.6269 13.7932C24.8698 13.6875 25.0765 13.5132 25.2216 13.2917C25.3668 13.0702 25.4441 12.8111 25.4441 12.5463C25.4441 12.2815 25.3668 12.0224 25.2216 11.8009C25.0765 11.5794 24.8698 11.4051 24.6269 11.2995L20.3441 9.43533C18.4643 8.61935 16.9634 7.12155 16.1436 5.24346L14.2773 0.960571C14.1713 0.718267 13.997 0.512132 13.7756 0.367409C13.5543 0.222686 13.2955 0.145656 13.031 0.145752C12.7664 0.145747 12.5076 0.222935 12.2862 0.367857C12.0648 0.512778 11.8906 0.719137 11.7847 0.961642L9.92058 5.24453C9.10207 7.12652 7.6002 8.628 5.71801 9.44604L1.44047 11.3091C1.19764 11.4148 0.990956 11.5891 0.845789 11.8106C0.700621 12.0321 0.623291 12.2911 0.623291 12.5559C0.623291 12.8208 0.700621 13.0798 0.845789 13.3013C0.990956 13.5228 1.19764 13.6971 1.44047 13.8028L5.72336 15.6691C7.60598 16.4865 9.10806 17.9882 9.92594 19.8706L11.789 24.1535C11.8961 24.3933 12.0704 24.597 12.2909 24.7399C12.5113 24.8827 12.7683 24.9587 13.031 24.9586Z" fill="url(#paint2_linear_0_133)"/>
<defs>
<linearGradient id="paint0_linear_0_133" x1="48.8092" y1="94.9291" x2="48.8092" y2="0.145752" gradientUnits="userSpaceOnUse">
<stop stop-color="#D179F3"/>
<stop offset="1" stop-color="#EDD8F8"/>
</linearGradient>
<linearGradient id="paint1_linear_0_133" x1="48.8092" y1="94.9291" x2="48.8092" y2="0.145752" gradientUnits="userSpaceOnUse">
<stop stop-color="#D179F3"/>
<stop offset="1" stop-color="#EDD8F8"/>
</linearGradient>
<linearGradient id="paint2_linear_0_133" x1="48.8092" y1="94.9291" x2="48.8092" y2="0.145752" gradientUnits="userSpaceOnUse">
<stop stop-color="#D179F3"/>
<stop offset="1" stop-color="#EDD8F8"/>
</linearGradient>
</defs>
</svg>
