<svg width="533" height="170" viewBox="0 0 533 170" fill="none" xmlns="http://www.w3.org/2000/svg">
<path d="M77.2354 62.8864L67.1435 68.7116L61.3224 46.9734L77.2354 62.8864Z" fill="url(#paint0_radial_1_462)"/>
<path d="M83.0606 52.7945L77.2354 62.8864L61.3224 46.9734L83.0606 52.7945Z" fill="url(#paint1_radial_1_462)"/>
<path d="M137.382 123.036L121.469 107.123L131.557 101.297L137.382 123.036Z" fill="url(#paint2_radial_1_462)"/>
<path d="M137.381 123.032L115.643 117.207L121.468 107.119L137.381 123.032Z" fill="url(#paint3_radial_1_462)"/>
<path d="M137.382 46.9734L121.506 62.8455L115.697 52.7822L137.382 46.9734Z" fill="url(#paint4_radial_1_462)"/>
<path d="M137.382 46.9734L131.573 68.6584L121.505 62.8455L137.382 46.9734Z" fill="url(#paint5_radial_1_462)"/>
<path d="M83.0074 117.229L61.3224 123.038L77.1945 107.162L83.0074 117.229Z" fill="url(#paint6_radial_1_462)"/>
<path d="M77.1945 107.158L61.3224 123.034L67.1312 101.349L77.1945 107.158Z" fill="url(#paint7_radial_1_462)"/>
<path d="M101.9 103.781C101.528 103.809 101.16 103.834 100.787 103.863C100.648 103.875 100.497 103.875 100.35 103.875C110.327 103.351 118.255 95.1084 118.255 85.0083C118.255 84.677 118.255 84.3497 118.226 84.0184C118.226 83.867 118.226 83.7156 118.214 83.5643C118.185 83.192 118.161 82.8239 118.132 82.4516C116.385 63.5278 95.3916 52.2333 78.4477 62.0183L77.1305 62.7751L90.405 39.7852L115.51 64.89C129.292 78.6718 120.537 101.813 101.904 103.777L101.9 103.781Z" fill="url(#paint8_radial_1_462)"/>
<path d="M101.9 103.783C120.534 101.819 129.288 78.6781 115.506 64.8964L90.4011 39.7915L99.3435 24.2876L122.333 64.0946C132.131 81.0385 120.824 102.036 101.9 103.779V103.783Z" fill="url(#paint9_radial_1_462)"/>
<path d="M96.8074 66.2262C97.1797 66.1975 97.5478 66.173 97.9201 66.1444C98.0592 66.1321 98.2105 66.1321 98.3578 66.1321C88.3805 66.6557 80.4526 74.8985 80.4526 84.9986C80.4526 85.3299 80.4526 85.6572 80.4812 85.9885C80.4812 86.1399 80.4812 86.2913 80.4935 86.4426C80.5222 86.8149 80.5467 87.183 80.5753 87.5553C82.3221 106.479 103.316 117.774 120.26 107.989L121.577 107.232L108.302 130.222L83.1975 105.117C69.4158 91.3351 78.17 68.1938 96.8033 66.2303L96.8074 66.2262Z" fill="url(#paint10_radial_1_462)"/>
<path d="M96.8061 66.2227C78.1728 68.1862 69.4186 91.3275 83.2003 105.109L108.305 130.214L99.3587 145.714L76.3688 105.907C66.5714 88.9631 77.8782 67.9653 96.802 66.2227H96.8061Z" fill="url(#paint11_radial_1_462)"/>
<path d="M118.13 82.4584C118.158 82.8307 118.183 83.1988 118.211 83.5711C118.224 83.7102 118.224 83.8615 118.224 84.0088C117.7 74.0315 109.457 66.1036 99.3572 66.1036C99.0258 66.1036 98.6986 66.1036 98.3672 66.1323C98.2159 66.1323 98.0645 66.1323 97.9132 66.1445C97.5409 66.1732 97.1727 66.1977 96.8005 66.2263C77.8767 67.9731 66.5822 88.9668 76.3672 105.911L77.124 107.228L54.134 93.9534L79.2389 68.8485C93.0206 55.0668 116.162 63.821 118.126 82.4543L118.13 82.4584Z" fill="url(#paint12_radial_1_462)"/>
<path d="M118.132 82.4574C116.168 63.8241 93.0269 55.0699 79.2452 68.8516L54.1403 93.9565L38.6364 85.0141L78.4434 62.0242C95.3872 52.2268 116.385 63.5336 118.128 82.4574H118.132Z" fill="url(#paint13_radial_1_462)"/>
<path d="M80.5752 87.5468C80.5465 87.1745 80.522 86.8064 80.4934 86.4341C80.4811 86.295 80.4811 86.1437 80.4811 85.9964C81.0047 95.9737 89.2475 103.902 99.3476 103.902C99.6789 103.902 100.006 103.902 100.338 103.873C100.489 103.873 100.64 103.873 100.792 103.861C101.164 103.832 101.532 103.807 101.904 103.779C120.828 102.032 132.123 81.0384 122.338 64.0946L121.581 62.7773L144.571 76.0518L119.466 101.157C105.684 114.938 82.5428 106.184 80.5793 87.5509L80.5752 87.5468Z" fill="url(#paint14_radial_1_462)"/>
<path d="M80.5748 87.5535C82.5384 106.187 105.68 114.941 119.461 101.159L144.566 76.0544L160.066 85.0009L120.259 107.991C103.315 117.788 82.3175 106.481 80.5748 87.5576V87.5535Z" fill="url(#paint15_radial_1_462)"/>
<path d="M255.564 111.988C251.143 111.988 247.366 110.436 244.231 107.333C244.105 107.239 243.996 107.129 243.902 107.003H243.855L243.29 106.298C243.165 106.173 243.055 106.047 242.961 105.922L223.775 82.9269L216.533 74.2274C216.439 74.1647 216.33 74.102 216.204 74.0393C215.954 73.9452 215.703 73.8982 215.452 73.8982C214.888 73.8982 214.402 74.102 213.994 74.5095C213.618 74.8857 213.43 75.3559 213.43 75.9202V111H197.395V71.8761C197.395 68.0201 198.758 64.7127 201.486 61.954C204.244 59.2266 207.552 57.8629 211.408 57.8629H212.442C216.863 57.8629 220.64 59.4303 223.775 62.5653C223.869 62.6593 223.963 62.7534 224.057 62.8474H224.104L224.716 63.5528C224.81 63.6782 224.904 63.8036 224.998 63.929L251.426 95.6235C251.52 95.7175 251.629 95.7802 251.755 95.8116C252.006 95.9056 252.272 95.9527 252.554 95.9527C253.087 95.9527 253.557 95.7646 253.965 95.3884C254.373 94.9808 254.576 94.5106 254.576 93.9776V58.8504H270.612V97.9747C270.612 101.862 269.232 105.169 266.473 107.897C263.746 110.624 260.439 111.988 256.551 111.988H255.564ZM324.784 98.9622C326.978 98.9622 328.875 98.1942 330.474 96.658C332.041 95.0592 332.825 93.1625 332.825 90.9681V78.9298C332.825 76.704 332.041 74.8073 330.474 73.2398C328.875 71.6724 326.978 70.8886 324.784 70.8886H302.729C300.503 70.8886 298.607 71.6724 297.039 73.2398C295.472 74.8073 294.688 76.704 294.688 78.9298V90.9681C294.688 93.1625 295.472 95.0592 297.039 96.658C298.607 98.1942 300.503 98.9622 302.729 98.9622H324.784ZM294.688 111C290.236 111 286.459 109.433 283.355 106.298C280.22 103.163 278.653 99.3854 278.653 94.9651V74.8857C278.653 70.4654 280.22 66.6878 283.355 63.5528C286.49 60.4178 290.268 58.8504 294.688 58.8504H332.825C337.245 58.8504 341.023 60.4178 344.158 63.5528C347.293 66.6878 348.86 70.4654 348.86 74.8857V94.9651C348.86 99.4168 347.293 103.194 344.158 106.298C341.023 109.433 337.245 111 332.825 111H294.688ZM388.972 111.988C384.521 111.988 380.727 110.436 377.592 107.333C376.244 105.953 375.178 104.464 374.395 102.865L349.284 58.8504H366.871L375.476 73.8982L387.938 95.7175C388.22 95.8743 388.565 95.9527 388.972 95.9527C389.348 95.9527 389.678 95.8743 389.96 95.7175L411.027 58.8504H428.661L403.503 102.865C402.719 104.464 401.653 105.953 400.305 107.333C397.17 110.436 393.392 111.988 388.972 111.988ZM459.744 90.9681L450.151 74.1803C449.869 73.9922 449.54 73.8982 449.163 73.8982C448.756 73.8982 448.411 73.9922 448.129 74.1803L438.536 90.9681H459.744ZM409.475 111L434.586 66.9856C435.37 65.3868 436.436 63.9133 437.784 62.5653C440.919 59.4303 444.712 57.8629 449.163 57.8629C453.584 57.8629 457.361 59.4303 460.496 62.5653C461.844 63.9133 462.91 65.3868 463.694 66.9856L488.852 111H471.218L464.352 98.9622H433.928L427.062 111H409.475Z" fill="white"/>
<defs>
<radialGradient id="paint0_radial_1_462" cx="0" cy="0" r="1" gradientUnits="userSpaceOnUse" gradientTransform="translate(57.2071 30.0786) scale(48.058 48.058)">
<stop stop-color="#FFE2FF"/>
<stop offset="0.03" stop-color="#FAD2FF"/>
<stop offset="0.1" stop-color="#F0B0FF"/>
<stop offset="0.17" stop-color="#E896FF"/>
<stop offset="0.25" stop-color="#E383FF"/>
<stop offset="0.32" stop-color="#E077FF"/>
<stop offset="0.41" stop-color="#DF74FF"/>
<stop offset="0.73" stop-color="#673EC0"/>
<stop offset="1" stop-color="#562495"/>
</radialGradient>
<radialGradient id="paint1_radial_1_462" cx="0" cy="0" r="1" gradientUnits="userSpaceOnUse" gradientTransform="translate(61.0974 46.593) scale(41.0424 41.0424)">
<stop stop-color="#FFE2FF"/>
<stop offset="0.03" stop-color="#FAD2FF"/>
<stop offset="0.1" stop-color="#F0B0FF"/>
<stop offset="0.17" stop-color="#E896FF"/>
<stop offset="0.25" stop-color="#E383FF"/>
<stop offset="0.32" stop-color="#E077FF"/>
<stop offset="0.41" stop-color="#DF74FF"/>
<stop offset="0.73" stop-color="#673EC0"/>
<stop offset="1" stop-color="#562495"/>
</radialGradient>
<radialGradient id="paint2_radial_1_462" cx="0" cy="0" r="1" gradientUnits="userSpaceOnUse" gradientTransform="translate(137.349 123.056) scale(36.8249)">
<stop stop-color="#FFE2FF"/>
<stop offset="0.03" stop-color="#FAD2FF"/>
<stop offset="0.1" stop-color="#F0B0FF"/>
<stop offset="0.17" stop-color="#E896FF"/>
<stop offset="0.25" stop-color="#E383FF"/>
<stop offset="0.32" stop-color="#E077FF"/>
<stop offset="0.41" stop-color="#DF74FF"/>
<stop offset="0.73" stop-color="#673EC0"/>
<stop offset="1" stop-color="#562495"/>
</radialGradient>
<radialGradient id="paint3_radial_1_462" cx="0" cy="0" r="1" gradientUnits="userSpaceOnUse" gradientTransform="translate(152.914 137.145) scale(52.1201)">
<stop stop-color="#FFE2FF"/>
<stop offset="0.03" stop-color="#FAD2FF"/>
<stop offset="0.1" stop-color="#F0B0FF"/>
<stop offset="0.17" stop-color="#E896FF"/>
<stop offset="0.25" stop-color="#E383FF"/>
<stop offset="0.32" stop-color="#E077FF"/>
<stop offset="0.41" stop-color="#DF74FF"/>
<stop offset="0.73" stop-color="#673EC0"/>
<stop offset="1" stop-color="#562495"/>
</radialGradient>
<radialGradient id="paint4_radial_1_462" cx="0" cy="0" r="1" gradientUnits="userSpaceOnUse" gradientTransform="translate(137.349 47.2229) scale(41.8074 41.8074)">
<stop stop-color="#FFE2FF"/>
<stop offset="0.03" stop-color="#FAD2FF"/>
<stop offset="0.1" stop-color="#F0B0FF"/>
<stop offset="0.17" stop-color="#E896FF"/>
<stop offset="0.25" stop-color="#E383FF"/>
<stop offset="0.32" stop-color="#E077FF"/>
<stop offset="0.41" stop-color="#DF74FF"/>
<stop offset="0.73" stop-color="#673EC0"/>
<stop offset="1" stop-color="#562495"/>
</radialGradient>
<radialGradient id="paint5_radial_1_462" cx="0" cy="0" r="1" gradientUnits="userSpaceOnUse" gradientTransform="translate(142.593 38.6201) scale(44.2496 44.2496)">
<stop stop-color="#FFE2FF"/>
<stop offset="0.03" stop-color="#FAD2FF"/>
<stop offset="0.1" stop-color="#F0B0FF"/>
<stop offset="0.17" stop-color="#E896FF"/>
<stop offset="0.25" stop-color="#E383FF"/>
<stop offset="0.32" stop-color="#E077FF"/>
<stop offset="0.41" stop-color="#DF74FF"/>
<stop offset="0.73" stop-color="#673EC0"/>
<stop offset="1" stop-color="#562495"/>
</radialGradient>
<radialGradient id="paint6_radial_1_462" cx="0" cy="0" r="1" gradientUnits="userSpaceOnUse" gradientTransform="translate(46.5139 133.445) scale(52.791 52.791)">
<stop stop-color="#FFE2FF"/>
<stop offset="0.03" stop-color="#FAD2FF"/>
<stop offset="0.1" stop-color="#F0B0FF"/>
<stop offset="0.17" stop-color="#E896FF"/>
<stop offset="0.25" stop-color="#E383FF"/>
<stop offset="0.32" stop-color="#E077FF"/>
<stop offset="0.41" stop-color="#DF74FF"/>
<stop offset="0.73" stop-color="#673EC0"/>
<stop offset="1" stop-color="#562495"/>
</radialGradient>
<radialGradient id="paint7_radial_1_462" cx="0" cy="0" r="1" gradientUnits="userSpaceOnUse" gradientTransform="translate(61.0974 123.055) scale(34.7222 34.7222)">
<stop stop-color="#FFE2FF"/>
<stop offset="0.03" stop-color="#FAD2FF"/>
<stop offset="0.1" stop-color="#F0B0FF"/>
<stop offset="0.17" stop-color="#E896FF"/>
<stop offset="0.25" stop-color="#E383FF"/>
<stop offset="0.32" stop-color="#E077FF"/>
<stop offset="0.41" stop-color="#DF74FF"/>
<stop offset="0.73" stop-color="#673EC0"/>
<stop offset="1" stop-color="#562495"/>
</radialGradient>
<radialGradient id="paint8_radial_1_462" cx="0" cy="0" r="1" gradientUnits="userSpaceOnUse" gradientTransform="translate(44.4414 77.6859) scale(96.5333 96.5333)">
<stop stop-color="#FFE2FF"/>
<stop offset="0.03" stop-color="#FAD2FF"/>
<stop offset="0.1" stop-color="#F0B0FF"/>
<stop offset="0.17" stop-color="#E896FF"/>
<stop offset="0.25" stop-color="#E383FF"/>
<stop offset="0.32" stop-color="#E077FF"/>
<stop offset="0.41" stop-color="#DF74FF"/>
<stop offset="0.73" stop-color="#673EC0"/>
<stop offset="1" stop-color="#562495"/>
</radialGradient>
<radialGradient id="paint9_radial_1_462" cx="0" cy="0" r="1" gradientUnits="userSpaceOnUse" gradientTransform="translate(100.984 27.7729) scale(104.007 104.007)">
<stop stop-color="#FFE2FF"/>
<stop offset="0.03" stop-color="#FAD2FF"/>
<stop offset="0.1" stop-color="#F0B0FF"/>
<stop offset="0.17" stop-color="#E896FF"/>
<stop offset="0.25" stop-color="#E383FF"/>
<stop offset="0.32" stop-color="#E077FF"/>
<stop offset="0.41" stop-color="#DF74FF"/>
<stop offset="0.73" stop-color="#673EC0"/>
<stop offset="1" stop-color="#562495"/>
</radialGradient>
<radialGradient id="paint10_radial_1_462" cx="0" cy="0" r="1" gradientUnits="userSpaceOnUse" gradientTransform="translate(109.354 129.44) scale(84.1875 84.1875)">
<stop stop-color="#FFE2FF"/>
<stop offset="0.03" stop-color="#FAD2FF"/>
<stop offset="0.1" stop-color="#F0B0FF"/>
<stop offset="0.17" stop-color="#E896FF"/>
<stop offset="0.25" stop-color="#E383FF"/>
<stop offset="0.32" stop-color="#E077FF"/>
<stop offset="0.41" stop-color="#DF74FF"/>
<stop offset="0.73" stop-color="#673EC0"/>
<stop offset="1" stop-color="#562495"/>
</radialGradient>
<radialGradient id="paint11_radial_1_462" cx="0" cy="0" r="1" gradientUnits="userSpaceOnUse" gradientTransform="translate(105.634 224.776) scale(160.995 160.995)">
<stop stop-color="#FFE2FF"/>
<stop offset="0.03" stop-color="#FAD2FF"/>
<stop offset="0.1" stop-color="#F0B0FF"/>
<stop offset="0.17" stop-color="#E896FF"/>
<stop offset="0.25" stop-color="#E383FF"/>
<stop offset="0.32" stop-color="#E077FF"/>
<stop offset="0.41" stop-color="#DF74FF"/>
<stop offset="0.73" stop-color="#673EC0"/>
<stop offset="1" stop-color="#562495"/>
</radialGradient>
<radialGradient id="paint12_radial_1_462" cx="0" cy="0" r="1" gradientUnits="userSpaceOnUse" gradientTransform="translate(31.3322 151.539) scale(112.115 112.115)">
<stop stop-color="#FFE2FF"/>
<stop offset="0.03" stop-color="#FAD2FF"/>
<stop offset="0.1" stop-color="#F0B0FF"/>
<stop offset="0.17" stop-color="#E896FF"/>
<stop offset="0.25" stop-color="#E383FF"/>
<stop offset="0.32" stop-color="#E077FF"/>
<stop offset="0.41" stop-color="#DF74FF"/>
<stop offset="0.73" stop-color="#673EC0"/>
<stop offset="1" stop-color="#562495"/>
</radialGradient>
<radialGradient id="paint13_radial_1_462" cx="0" cy="0" r="1" gradientUnits="userSpaceOnUse" gradientTransform="translate(80.8569 61.1978) scale(82.5921 82.5921)">
<stop stop-color="#FFE2FF"/>
<stop offset="0.03" stop-color="#FAD2FF"/>
<stop offset="0.1" stop-color="#F0B0FF"/>
<stop offset="0.17" stop-color="#E896FF"/>
<stop offset="0.25" stop-color="#E383FF"/>
<stop offset="0.32" stop-color="#E077FF"/>
<stop offset="0.41" stop-color="#DF74FF"/>
<stop offset="0.73" stop-color="#673EC0"/>
<stop offset="1" stop-color="#562495"/>
</radialGradient>
<radialGradient id="paint14_radial_1_462" cx="0" cy="0" r="1" gradientUnits="userSpaceOnUse" gradientTransform="translate(143.282 75.7082) scale(100.309 100.309)">
<stop stop-color="#FFE2FF"/>
<stop offset="0.03" stop-color="#FAD2FF"/>
<stop offset="0.1" stop-color="#F0B0FF"/>
<stop offset="0.17" stop-color="#E896FF"/>
<stop offset="0.25" stop-color="#E383FF"/>
<stop offset="0.32" stop-color="#E077FF"/>
<stop offset="0.41" stop-color="#DF74FF"/>
<stop offset="0.73" stop-color="#673EC0"/>
<stop offset="1" stop-color="#562495"/>
</radialGradient>
<radialGradient id="paint15_radial_1_462" cx="0" cy="0" r="1" gradientUnits="userSpaceOnUse" gradientTransform="translate(137.232 24.5561) scale(104.653 104.653)">
<stop stop-color="#FFE2FF"/>
<stop offset="0.03" stop-color="#FAD2FF"/>
<stop offset="0.1" stop-color="#F0B0FF"/>
<stop offset="0.17" stop-color="#E896FF"/>
<stop offset="0.25" stop-color="#E383FF"/>
<stop offset="0.32" stop-color="#E077FF"/>
<stop offset="0.41" stop-color="#DF74FF"/>
<stop offset="0.73" stop-color="#673EC0"/>
<stop offset="1" stop-color="#562495"/>
</radialGradient>
</defs>
</svg>
