<svg width="840" height="85" viewBox="0 0 840 85" fill="none" xmlns="http://www.w3.org/2000/svg">
<rect width="861.59" height="85" transform="translate(-22)" fill="#B2FA13"/>
<path d="M102.4 70.4222H89.3984L49.1425 37.2929V70.4222L32 80.2454V13.6979H44.2309L85.2573 47.5013V13.6979H102.4V70.4222ZM181.611 57.5171L168.706 70.4222H121.419L108.514 57.5171V26.6029L121.419 13.6979H168.706L181.611 26.6029V57.5171ZM164.468 57.8061V26.314H125.657V57.8061H164.468ZM257.197 13.6979L226.379 70.4222H210.392L179.574 13.6979H197.102L218.385 52.5092L239.669 13.6979H257.197ZM324.289 70.5185H307.05V54.1464H272.573V70.5185L255.43 80.2454V26.6029L268.335 13.6979H311.384L324.289 26.6029V70.5185ZM307.05 41.6266V26.4103H272.573V41.6266H307.05Z" fill="black"/>
<path d="M416.59 61.5H403L390.827 49.3271L378.654 61.5H365L384 42.5644L365 23.5H378.654L390.827 35.7373L403 23.5H416.59L397.59 42.5644L416.59 61.5Z" fill="black"/>
<path d="M519.59 53.0871L506.685 70.5185H446.59V13.6979H506.685L519.59 31.1293L511.5 42.1082L519.59 53.0871ZM500.81 31.1293L496.669 26.4103H463.732V36.3298H496.669L500.81 31.1293ZM500.81 53.0871L496.669 47.8865H463.732V57.8061H496.669L500.81 53.0871ZM593.844 70.5185H576.605V54.1464H542.128V70.5185L524.985 80.2454V26.6029L537.89 13.6979H580.939L593.844 26.6029V70.5185ZM576.605 41.6266V26.4103H542.128V41.6266H576.605ZM670.771 70.4222H657.77L617.514 37.2929V70.4222L600.371 80.2454V13.6979H612.602L653.628 47.5013V13.6979H670.771V70.4222ZM744.479 13.6979L722.81 34.3074L742.649 54.1464V70.5185H725.507V56.6504L712.794 43.938L694.592 61.1768V70.5185L677.45 80.2454V13.6979H694.592V41.5303L724.158 13.6979H744.479ZM825.595 52.9908L812.69 70.4222H746.817L759.433 57.8061H802.674L806.719 52.9908L802.674 47.8865H759.336L746.817 31.1293L759.722 13.6979H825.595L812.883 26.314H769.737L765.596 31.1293L769.737 36.2335H813.075L825.595 52.9908Z" fill="black"/>
</svg>
