<svg width="742" height="201" viewBox="0 0 742 201" fill="none" xmlns="http://www.w3.org/2000/svg">
<path d="M64.1272 64.0485L47.4796 73.6579L37.877 37.7983L64.1272 64.0485Z" fill="url(#paint0_radial_0_79)"/>
<path d="M73.7365 47.4009L64.1272 64.0485L37.877 37.7983L73.7365 47.4009Z" fill="url(#paint1_radial_0_79)"/>
<path d="M163.348 163.268L137.098 137.018L153.739 127.409L163.348 163.268Z" fill="url(#paint2_radial_0_79)"/>
<path d="M163.347 163.269L127.487 153.66L137.097 137.019L163.347 163.269Z" fill="url(#paint3_radial_0_79)"/>
<path d="M163.344 37.7983L137.154 63.981L127.572 47.3806L163.344 37.7983Z" fill="url(#paint4_radial_0_79)"/>
<path d="M163.348 37.7983L153.766 73.5701L137.159 63.981L163.348 37.7983Z" fill="url(#paint5_radial_0_79)"/>
<path d="M73.6488 153.687L37.877 163.269L64.0597 137.08L73.6488 153.687Z" fill="url(#paint6_radial_0_79)"/>
<path d="M64.0597 137.075L37.877 163.265L47.4593 127.493L64.0597 137.075Z" fill="url(#paint7_radial_0_79)"/>
<path d="M104.815 131.513C104.201 131.56 103.593 131.6 102.979 131.648C102.75 131.668 102.5 131.668 102.257 131.668C118.716 130.804 131.794 117.207 131.794 100.546C131.794 99.9989 131.794 99.4591 131.747 98.9125C131.747 98.6628 131.747 98.4131 131.726 98.1634C131.679 97.5494 131.639 96.942 131.591 96.3279C128.71 65.1111 94.0786 46.4795 66.1279 62.6211L63.955 63.8695L85.8526 25.945L127.266 67.3582C150 90.0927 135.559 128.267 104.822 131.506L104.815 131.513Z" fill="url(#paint8_radial_0_79)"/>
<path d="M104.814 131.511C135.552 128.272 149.993 90.0975 127.258 67.3631L85.845 25.9499L100.596 0.374451L138.521 66.0405C154.683 93.9912 136.031 128.629 104.814 131.504V131.511Z" fill="url(#paint9_radial_0_79)"/>
<path d="M96.4108 69.559C97.0248 69.5117 97.6322 69.4712 98.2462 69.424C98.4757 69.4037 98.7254 69.4037 98.9683 69.4037C82.5096 70.2675 69.4318 83.865 69.4318 100.526C69.4318 101.073 69.4318 101.613 69.479 102.159C69.479 102.409 69.479 102.659 69.4992 102.908C69.5465 103.522 69.587 104.13 69.6342 104.744C72.5156 135.961 107.147 154.592 135.098 138.451L137.271 137.202L115.373 175.127L73.9597 133.713C51.2253 110.979 65.6663 72.8048 96.404 69.5657L96.4108 69.559Z" fill="url(#paint10_radial_0_79)"/>
<path d="M96.4086 69.556C65.6709 72.7951 51.2299 110.969 73.9643 133.704L115.378 175.117L100.619 200.686L62.6949 135.02C46.5332 107.069 65.185 72.4307 96.4018 69.556H96.4086Z" fill="url(#paint11_radial_0_79)"/>
<path d="M131.585 96.3321C131.632 96.9462 131.672 97.5535 131.72 98.1676C131.74 98.397 131.74 98.6467 131.74 98.8896C130.876 82.4309 117.279 69.3531 100.617 69.3531C100.071 69.3531 99.531 69.3531 98.9844 69.4003C98.7347 69.4003 98.485 69.4003 98.2354 69.4206C97.6213 69.4678 97.0139 69.5083 96.3999 69.5555C65.183 72.437 46.5515 107.068 62.693 135.019L63.9414 137.192L26.0169 115.294L67.4302 73.8811C90.1646 51.1466 128.339 65.5876 131.578 96.3253L131.585 96.3321Z" fill="url(#paint12_radial_0_79)"/>
<path d="M131.589 96.3367C128.35 65.599 90.1762 51.158 67.4418 73.8924L26.0285 115.306L0.453125 100.554L66.1191 62.6298C94.0699 46.468 128.708 65.1198 131.583 96.3367H131.589Z" fill="url(#paint13_radial_0_79)"/>
<path d="M69.6309 104.736C69.5836 104.122 69.5431 103.515 69.4959 102.901C69.4756 102.671 69.4756 102.422 69.4756 102.179C70.3394 118.637 83.9369 131.715 100.598 131.715C101.145 131.715 101.684 131.715 102.231 131.668C102.481 131.668 102.73 131.668 102.98 131.648C103.594 131.6 104.202 131.56 104.816 131.513C136.032 128.631 154.664 93.9999 138.522 66.0492L137.274 63.8763L175.199 85.774L133.785 127.187C111.051 149.922 72.8767 135.481 69.6376 104.743L69.6309 104.736Z" fill="url(#paint14_radial_0_79)"/>
<path d="M69.6414 104.735C72.8805 135.473 111.055 149.914 133.789 127.18L175.202 85.7663L200.771 100.524L135.105 138.449C107.154 154.611 72.5161 135.959 69.6414 104.742V104.735Z" fill="url(#paint15_radial_0_79)"/>
<path d="M348.532 145.159C341.24 145.159 335.009 142.599 329.837 137.479C329.63 137.324 329.449 137.143 329.294 136.936H329.217L328.286 135.773C328.079 135.566 327.898 135.359 327.743 135.152L296.093 97.2195L284.147 82.8687C283.992 82.7653 283.811 82.6619 283.604 82.5584C283.191 82.4033 282.777 82.3257 282.363 82.3257C281.432 82.3257 280.631 82.6619 279.958 83.3342C279.338 83.9547 279.028 84.7304 279.028 85.6613V143.53H252.576V78.9901C252.576 72.6292 254.825 67.1733 259.324 62.6224C263.875 58.1233 269.331 55.8737 275.692 55.8737H277.399C284.69 55.8737 290.922 58.4594 296.093 63.6309C296.249 63.786 296.404 63.9412 296.559 64.0963H296.636L297.645 65.2599C297.8 65.4667 297.955 65.6736 298.11 65.8805L341.706 118.164C341.861 118.319 342.042 118.423 342.249 118.474C342.663 118.629 343.102 118.707 343.568 118.707C344.447 118.707 345.222 118.397 345.895 117.776C346.567 117.104 346.903 116.328 346.903 115.449V57.5027H373.355V122.043C373.355 128.455 371.08 133.911 366.529 138.41C362.03 142.909 356.574 145.159 350.161 145.159H348.532ZM462.718 123.672C466.338 123.672 469.467 122.405 472.104 119.871C474.69 117.233 475.983 114.104 475.983 110.484V90.6259C475.983 86.9542 474.69 83.8254 472.104 81.2397C469.467 78.654 466.338 77.3611 462.718 77.3611H426.337C422.665 77.3611 419.536 78.654 416.951 81.2397C414.365 83.8254 413.072 86.9542 413.072 90.6259V110.484C413.072 114.104 414.365 117.233 416.951 119.871C419.536 122.405 422.665 123.672 426.337 123.672H462.718ZM413.072 143.53C405.729 143.53 399.497 140.944 394.377 135.773C389.206 130.601 386.62 124.37 386.62 117.078V83.9547C386.62 76.663 389.206 70.4313 394.377 65.2599C399.549 60.0884 405.78 57.5027 413.072 57.5027H475.983C483.275 57.5027 489.506 60.0884 494.678 65.2599C499.849 70.4313 502.435 76.663 502.435 83.9547V117.078C502.435 124.421 499.849 130.653 494.678 135.773C489.506 140.944 483.275 143.53 475.983 143.53H413.072ZM568.604 145.159C561.26 145.159 555.003 142.599 549.831 137.479C547.608 135.204 545.849 132.747 544.556 130.11L503.133 57.5027H532.145L546.341 82.3257L566.897 118.319C567.363 118.578 567.931 118.707 568.604 118.707C569.224 118.707 569.767 118.578 570.233 118.319L604.985 57.5027H634.075L592.574 130.11C591.281 132.747 589.522 135.204 587.299 137.479C582.127 142.599 575.896 145.159 568.604 145.159ZM685.35 110.484L669.525 82.7911C669.059 82.4809 668.516 82.3257 667.896 82.3257C667.224 82.3257 666.655 82.4809 666.189 82.7911L650.365 110.484H685.35ZM602.425 143.53L643.849 70.9226C645.141 68.2852 646.9 65.8546 649.123 63.6309C654.295 58.4594 660.552 55.8737 667.896 55.8737C675.188 55.8737 681.419 58.4594 686.591 63.6309C688.814 65.8546 690.573 68.2852 691.866 70.9226L733.367 143.53H704.277L692.952 123.672H642.763L631.437 143.53H602.425Z" fill="white"/>
<defs>
<radialGradient id="paint0_radial_0_79" cx="0" cy="0" r="1" gradientUnits="userSpaceOnUse" gradientTransform="translate(31.0884 9.92855) scale(79.277 79.277)">
<stop stop-color="#FFE2FF"/>
<stop offset="0.03" stop-color="#FAD2FF"/>
<stop offset="0.1" stop-color="#F0B0FF"/>
<stop offset="0.17" stop-color="#E896FF"/>
<stop offset="0.25" stop-color="#E383FF"/>
<stop offset="0.32" stop-color="#E077FF"/>
<stop offset="0.41" stop-color="#DF74FF"/>
<stop offset="0.73" stop-color="#673EC0"/>
<stop offset="1" stop-color="#562495"/>
</radialGradient>
<radialGradient id="paint1_radial_0_79" cx="0" cy="0" r="1" gradientUnits="userSpaceOnUse" gradientTransform="translate(37.5058 37.1707) scale(67.704 67.7039)">
<stop stop-color="#FFE2FF"/>
<stop offset="0.03" stop-color="#FAD2FF"/>
<stop offset="0.1" stop-color="#F0B0FF"/>
<stop offset="0.17" stop-color="#E896FF"/>
<stop offset="0.25" stop-color="#E383FF"/>
<stop offset="0.32" stop-color="#E077FF"/>
<stop offset="0.41" stop-color="#DF74FF"/>
<stop offset="0.73" stop-color="#673EC0"/>
<stop offset="1" stop-color="#562495"/>
</radialGradient>
<radialGradient id="paint2_radial_0_79" cx="0" cy="0" r="1" gradientUnits="userSpaceOnUse" gradientTransform="translate(163.294 163.302) scale(60.7466 60.7466)">
<stop stop-color="#FFE2FF"/>
<stop offset="0.03" stop-color="#FAD2FF"/>
<stop offset="0.1" stop-color="#F0B0FF"/>
<stop offset="0.17" stop-color="#E896FF"/>
<stop offset="0.25" stop-color="#E383FF"/>
<stop offset="0.32" stop-color="#E077FF"/>
<stop offset="0.41" stop-color="#DF74FF"/>
<stop offset="0.73" stop-color="#673EC0"/>
<stop offset="1" stop-color="#562495"/>
</radialGradient>
<radialGradient id="paint3_radial_0_79" cx="0" cy="0" r="1" gradientUnits="userSpaceOnUse" gradientTransform="translate(188.969 186.55) scale(85.9779 85.9779)">
<stop stop-color="#FFE2FF"/>
<stop offset="0.03" stop-color="#FAD2FF"/>
<stop offset="0.1" stop-color="#F0B0FF"/>
<stop offset="0.17" stop-color="#E896FF"/>
<stop offset="0.25" stop-color="#E383FF"/>
<stop offset="0.32" stop-color="#E077FF"/>
<stop offset="0.41" stop-color="#DF74FF"/>
<stop offset="0.73" stop-color="#673EC0"/>
<stop offset="1" stop-color="#562495"/>
</radialGradient>
<radialGradient id="paint4_radial_0_79" cx="0" cy="0" r="1" gradientUnits="userSpaceOnUse" gradientTransform="translate(163.29 38.2099) scale(68.9658)">
<stop stop-color="#FFE2FF"/>
<stop offset="0.03" stop-color="#FAD2FF"/>
<stop offset="0.1" stop-color="#F0B0FF"/>
<stop offset="0.17" stop-color="#E896FF"/>
<stop offset="0.25" stop-color="#E383FF"/>
<stop offset="0.32" stop-color="#E077FF"/>
<stop offset="0.41" stop-color="#DF74FF"/>
<stop offset="0.73" stop-color="#673EC0"/>
<stop offset="1" stop-color="#562495"/>
</radialGradient>
<radialGradient id="paint5_radial_0_79" cx="0" cy="0" r="1" gradientUnits="userSpaceOnUse" gradientTransform="translate(171.945 24.0186) scale(72.9945 72.9945)">
<stop stop-color="#FFE2FF"/>
<stop offset="0.03" stop-color="#FAD2FF"/>
<stop offset="0.1" stop-color="#F0B0FF"/>
<stop offset="0.17" stop-color="#E896FF"/>
<stop offset="0.25" stop-color="#E383FF"/>
<stop offset="0.32" stop-color="#E077FF"/>
<stop offset="0.41" stop-color="#DF74FF"/>
<stop offset="0.73" stop-color="#673EC0"/>
<stop offset="1" stop-color="#562495"/>
</radialGradient>
<radialGradient id="paint6_radial_0_79" cx="0" cy="0" r="1" gradientUnits="userSpaceOnUse" gradientTransform="translate(13.4488 180.437) scale(87.0846 87.0845)">
<stop stop-color="#FFE2FF"/>
<stop offset="0.03" stop-color="#FAD2FF"/>
<stop offset="0.1" stop-color="#F0B0FF"/>
<stop offset="0.17" stop-color="#E896FF"/>
<stop offset="0.25" stop-color="#E383FF"/>
<stop offset="0.32" stop-color="#E077FF"/>
<stop offset="0.41" stop-color="#DF74FF"/>
<stop offset="0.73" stop-color="#673EC0"/>
<stop offset="1" stop-color="#562495"/>
</radialGradient>
<radialGradient id="paint7_radial_0_79" cx="0" cy="0" r="1" gradientUnits="userSpaceOnUse" gradientTransform="translate(37.5058 163.299) scale(57.2781 57.2781)">
<stop stop-color="#FFE2FF"/>
<stop offset="0.03" stop-color="#FAD2FF"/>
<stop offset="0.1" stop-color="#F0B0FF"/>
<stop offset="0.17" stop-color="#E896FF"/>
<stop offset="0.25" stop-color="#E383FF"/>
<stop offset="0.32" stop-color="#E077FF"/>
<stop offset="0.41" stop-color="#DF74FF"/>
<stop offset="0.73" stop-color="#673EC0"/>
<stop offset="1" stop-color="#562495"/>
</radialGradient>
<radialGradient id="paint8_radial_0_79" cx="0" cy="0" r="1" gradientUnits="userSpaceOnUse" gradientTransform="translate(10.0307 88.4664) scale(159.242 159.242)">
<stop stop-color="#FFE2FF"/>
<stop offset="0.03" stop-color="#FAD2FF"/>
<stop offset="0.1" stop-color="#F0B0FF"/>
<stop offset="0.17" stop-color="#E896FF"/>
<stop offset="0.25" stop-color="#E383FF"/>
<stop offset="0.32" stop-color="#E077FF"/>
<stop offset="0.41" stop-color="#DF74FF"/>
<stop offset="0.73" stop-color="#673EC0"/>
<stop offset="1" stop-color="#562495"/>
</radialGradient>
<radialGradient id="paint9_radial_0_79" cx="0" cy="0" r="1" gradientUnits="userSpaceOnUse" gradientTransform="translate(103.302 6.12385) scale(171.571 171.571)">
<stop stop-color="#FFE2FF"/>
<stop offset="0.03" stop-color="#FAD2FF"/>
<stop offset="0.1" stop-color="#F0B0FF"/>
<stop offset="0.17" stop-color="#E896FF"/>
<stop offset="0.25" stop-color="#E383FF"/>
<stop offset="0.32" stop-color="#E077FF"/>
<stop offset="0.41" stop-color="#DF74FF"/>
<stop offset="0.73" stop-color="#673EC0"/>
<stop offset="1" stop-color="#562495"/>
</radialGradient>
<radialGradient id="paint10_radial_0_79" cx="0" cy="0" r="1" gradientUnits="userSpaceOnUse" gradientTransform="translate(117.107 173.838) scale(138.876 138.876)">
<stop stop-color="#FFE2FF"/>
<stop offset="0.03" stop-color="#FAD2FF"/>
<stop offset="0.1" stop-color="#F0B0FF"/>
<stop offset="0.17" stop-color="#E896FF"/>
<stop offset="0.25" stop-color="#E383FF"/>
<stop offset="0.32" stop-color="#E077FF"/>
<stop offset="0.41" stop-color="#DF74FF"/>
<stop offset="0.73" stop-color="#673EC0"/>
<stop offset="1" stop-color="#562495"/>
</radialGradient>
<radialGradient id="paint11_radial_0_79" cx="0" cy="0" r="1" gradientUnits="userSpaceOnUse" gradientTransform="translate(110.971 331.107) scale(265.579 265.579)">
<stop stop-color="#FFE2FF"/>
<stop offset="0.03" stop-color="#FAD2FF"/>
<stop offset="0.1" stop-color="#F0B0FF"/>
<stop offset="0.17" stop-color="#E896FF"/>
<stop offset="0.25" stop-color="#E383FF"/>
<stop offset="0.32" stop-color="#E077FF"/>
<stop offset="0.41" stop-color="#DF74FF"/>
<stop offset="0.73" stop-color="#673EC0"/>
<stop offset="1" stop-color="#562495"/>
</radialGradient>
<radialGradient id="paint12_radial_0_79" cx="0" cy="0" r="1" gradientUnits="userSpaceOnUse" gradientTransform="translate(-11.5971 210.288) scale(184.946 184.946)">
<stop stop-color="#FFE2FF"/>
<stop offset="0.03" stop-color="#FAD2FF"/>
<stop offset="0.1" stop-color="#F0B0FF"/>
<stop offset="0.17" stop-color="#E896FF"/>
<stop offset="0.25" stop-color="#E383FF"/>
<stop offset="0.32" stop-color="#E077FF"/>
<stop offset="0.41" stop-color="#DF74FF"/>
<stop offset="0.73" stop-color="#673EC0"/>
<stop offset="1" stop-color="#562495"/>
</radialGradient>
<radialGradient id="paint13_radial_0_79" cx="0" cy="0" r="1" gradientUnits="userSpaceOnUse" gradientTransform="translate(70.1005 61.2667) scale(136.245 136.245)">
<stop stop-color="#FFE2FF"/>
<stop offset="0.03" stop-color="#FAD2FF"/>
<stop offset="0.1" stop-color="#F0B0FF"/>
<stop offset="0.17" stop-color="#E896FF"/>
<stop offset="0.25" stop-color="#E383FF"/>
<stop offset="0.32" stop-color="#E077FF"/>
<stop offset="0.41" stop-color="#DF74FF"/>
<stop offset="0.73" stop-color="#673EC0"/>
<stop offset="1" stop-color="#562495"/>
</radialGradient>
<radialGradient id="paint14_radial_0_79" cx="0" cy="0" r="1" gradientUnits="userSpaceOnUse" gradientTransform="translate(173.073 85.2071) scale(165.471 165.471)">
<stop stop-color="#FFE2FF"/>
<stop offset="0.03" stop-color="#FAD2FF"/>
<stop offset="0.1" stop-color="#F0B0FF"/>
<stop offset="0.17" stop-color="#E896FF"/>
<stop offset="0.25" stop-color="#E383FF"/>
<stop offset="0.32" stop-color="#E077FF"/>
<stop offset="0.41" stop-color="#DF74FF"/>
<stop offset="0.73" stop-color="#673EC0"/>
<stop offset="1" stop-color="#562495"/>
</radialGradient>
<radialGradient id="paint15_radial_0_79" cx="0" cy="0" r="1" gradientUnits="userSpaceOnUse" gradientTransform="translate(163.103 0.814168) scale(172.637 172.637)">
<stop stop-color="#FFE2FF"/>
<stop offset="0.03" stop-color="#FAD2FF"/>
<stop offset="0.1" stop-color="#F0B0FF"/>
<stop offset="0.17" stop-color="#E896FF"/>
<stop offset="0.25" stop-color="#E383FF"/>
<stop offset="0.32" stop-color="#E077FF"/>
<stop offset="0.41" stop-color="#DF74FF"/>
<stop offset="0.73" stop-color="#673EC0"/>
<stop offset="1" stop-color="#562495"/>
</radialGradient>
</defs>
</svg>
