
<svg width="371" height="291" viewBox="0 0 371 291" fill="none" xmlns="http://www.w3.org/2000/svg">
<path d="M60.3402 221.925C62.5731 219.692 65.6434 218.39 68.8997 218.39H364.203C369.599 218.39 372.297 224.902 368.483 228.717L310.148 287.052C307.915 289.285 304.845 290.587 301.588 290.587H6.28499C0.888772 290.587 -1.80934 284.074 2.00523 280.26L60.3402 221.925Z" fill="#FF4242"/>
<path d="M60.3402 4.12261C62.6661 1.88969 65.7364 0.587158 68.8997 0.587158H364.203C369.599 0.587158 372.297 7.09983 368.483 10.9144L310.148 69.2493C307.915 71.4822 304.845 72.7848 301.588 72.7848H6.28499C0.888772 72.7848 -1.80934 66.2721 2.00523 62.4575L60.3402 4.12261Z" fill="#FF4242"/>
<path d="M310.148 112.326C307.915 110.093 304.845 108.791 301.588 108.791H6.28499C0.888772 108.791 -1.80934 115.303 2.00523 119.118L60.3402 177.453C62.5731 179.686 65.6434 180.988 68.8997 180.988H364.203C369.599 180.988 372.297 174.476 368.483 170.661L310.148 112.326Z" fill="#FF4242"/>
</svg>
