<svg width="200" height="67" viewBox="0 0 200 67" fill="none" xmlns="http://www.w3.org/2000/svg">
<rect width="232.088" height="147.692" rx="8.43956" fill="#080811"/>
<g clip-path="url(#clip0_1_36488)">
<path d="M15.0241 13.0241L13.9721 13.6314L13.3652 11.3652L15.0241 13.0241Z" fill="url(#paint0_radial_1_36488)"/>
<path d="M15.6314 11.9721L15.0241 13.0241L13.3652 11.3652L15.6314 11.9721Z" fill="url(#paint1_radial_1_36488)"/>
<path d="M21.2942 19.2943L19.6353 17.6353L20.6869 17.0281L21.2942 19.2943Z" fill="url(#paint2_radial_1_36488)"/>
<path d="M21.294 19.2942L19.0278 18.6869L19.6351 17.6353L21.294 19.2942Z" fill="url(#paint3_radial_1_36488)"/>
<path d="M21.2943 11.3652L19.6393 13.0199L19.0337 11.9708L21.2943 11.3652Z" fill="url(#paint4_radial_1_36488)"/>
<path d="M21.2942 11.3652L20.6887 13.6259L19.6392 13.0199L21.2942 11.3652Z" fill="url(#paint5_radial_1_36488)"/>
<path d="M15.6259 18.6887L13.3652 19.2942L15.0199 17.6392L15.6259 18.6887Z" fill="url(#paint6_radial_1_36488)"/>
<path d="M15.0199 17.6393L13.3652 19.2943L13.9708 17.0337L15.0199 17.6393Z" fill="url(#paint7_radial_1_36488)"/>
<path d="M17.5954 17.2872C17.5566 17.2902 17.5182 17.2927 17.4794 17.2957C17.4649 17.297 17.4491 17.297 17.4337 17.297C18.4739 17.2424 19.3003 16.3831 19.3003 15.3302C19.3003 15.2956 19.3003 15.2615 19.2974 15.227C19.2974 15.2112 19.2974 15.1954 19.2961 15.1797C19.2931 15.1408 19.2905 15.1025 19.2875 15.0637C19.1055 13.0909 16.9169 11.9134 15.1505 12.9335L15.0132 13.0124L16.397 10.6157L19.0142 13.2329C20.4509 14.6696 19.5383 17.0821 17.5958 17.2868L17.5954 17.2872Z" fill="url(#paint8_radial_1_36488)"/>
<path d="M17.5953 17.2873C19.5378 17.0826 20.4504 14.6702 19.0136 13.2334L16.3965 10.6163L17.3287 9L19.7254 13.1498C20.7468 14.9162 19.568 17.1052 17.5953 17.2869V17.2873Z" fill="url(#paint9_radial_1_36488)"/>
<path d="M17.0643 13.3721C17.1031 13.3691 17.1415 13.3666 17.1803 13.3636C17.1948 13.3623 17.2106 13.3623 17.2259 13.3623C16.1858 13.4169 15.3593 14.2762 15.3593 15.3291C15.3593 15.3637 15.3593 15.3978 15.3623 15.4323C15.3623 15.4481 15.3623 15.4639 15.3636 15.4797C15.3666 15.5185 15.3691 15.5568 15.3721 15.5957C15.5542 17.5684 17.7428 18.7459 19.5092 17.7258L19.6465 17.6469L18.2626 20.0436L15.6455 17.4264C14.2087 15.9897 15.1214 13.5772 17.0639 13.3725L17.0643 13.3721Z" fill="url(#paint10_radial_1_36488)"/>
<path d="M17.0642 13.3721C15.1217 13.5768 14.2091 15.9892 15.6458 17.426L18.263 20.0431L17.3303 21.659L14.9336 17.5091C13.9123 15.7427 15.091 13.5537 17.0638 13.3721H17.0642Z" fill="url(#paint11_radial_1_36488)"/>
<path d="M19.2872 15.0643C19.2902 15.1031 19.2927 15.1415 19.2957 15.1803C19.297 15.1948 19.297 15.2106 19.297 15.2259C19.2424 14.1858 18.3831 13.3593 17.3302 13.3593C17.2956 13.3593 17.2615 13.3593 17.227 13.3623C17.2112 13.3623 17.1954 13.3623 17.1797 13.3636C17.1408 13.3666 17.1025 13.3691 17.0637 13.3721C15.0909 13.5542 13.9134 15.7428 14.9335 17.5092L15.0124 17.6465L12.6157 16.2626L15.2329 13.6455C16.6696 12.2087 19.0821 13.1214 19.2868 15.0639L19.2872 15.0643Z" fill="url(#paint12_radial_1_36488)"/>
<path d="M19.2873 15.064C19.0826 13.1215 16.6702 12.2089 15.2334 13.6456L12.6163 16.2628L11 15.3305L15.1498 12.9339C16.9162 11.9125 19.1052 13.0912 19.2869 15.064H19.2873Z" fill="url(#paint13_radial_1_36488)"/>
<path d="M15.3721 15.5951C15.3691 15.5563 15.3666 15.5179 15.3636 15.4791C15.3623 15.4646 15.3623 15.4489 15.3623 15.4335C15.4169 16.4736 16.2762 17.3001 17.3291 17.3001C17.3637 17.3001 17.3978 17.3001 17.4323 17.2971C17.4481 17.2971 17.4639 17.2971 17.4797 17.2958C17.5185 17.2929 17.5568 17.2903 17.5957 17.2873C19.5684 17.1052 20.7459 14.9166 19.7258 13.1503L19.6469 13.0129L22.0436 14.3968L19.4264 17.0139C17.9897 18.4507 15.5772 17.5381 15.3725 15.5956L15.3721 15.5951Z" fill="url(#paint14_radial_1_36488)"/>
<path d="M15.3721 15.5953C15.5768 17.5378 17.9892 18.4504 19.426 17.0136L22.0431 14.3965L23.659 15.3291L19.5091 17.7258C17.7427 18.7472 15.5537 17.5685 15.3721 15.5957V15.5953Z" fill="url(#paint15_radial_1_36488)"/>
</g>
<rect x="31.6592" y="12.1648" width="23.2088" height="6.32967" rx="2.10989" fill="#1B1B2D"/>
<rect x="62.8682" y="12.1648" width="23.2088" height="6.32967" rx="2.10989" fill="#1B1B2D"/>
<rect x="94.0767" y="12.1648" width="23.2088" height="6.32967" rx="2.10989" fill="#1B1B2D"/>
<rect x="125.286" y="12.1648" width="23.2088" height="6.32967" rx="2.10989" fill="#1B1B2D"/>
<rect x="11" y="37.6594" width="75.956" height="21.0989" rx="2.10989" fill="#1B1B2D"/>
<rect x="11" y="62.7583" width="75.956" height="21.0989" rx="2.10989" fill="#1B1B2D"/>
<defs>
<radialGradient id="paint0_radial_1_36488" cx="0" cy="0" r="1" gradientUnits="userSpaceOnUse" gradientTransform="translate(12.9362 9.60397) scale(5.01)">
<stop stop-color="#FFE2FF"/>
<stop offset="0.03" stop-color="#FAD2FF"/>
<stop offset="0.1" stop-color="#F0B0FF"/>
<stop offset="0.17" stop-color="#E896FF"/>
<stop offset="0.25" stop-color="#E383FF"/>
<stop offset="0.32" stop-color="#E077FF"/>
<stop offset="0.41" stop-color="#DF74FF"/>
<stop offset="0.73" stop-color="#673EC0"/>
<stop offset="1" stop-color="#562495"/>
</radialGradient>
<radialGradient id="paint1_radial_1_36488" cx="0" cy="0" r="1" gradientUnits="userSpaceOnUse" gradientTransform="translate(13.3418 11.3256) scale(4.27863)">
<stop stop-color="#FFE2FF"/>
<stop offset="0.03" stop-color="#FAD2FF"/>
<stop offset="0.1" stop-color="#F0B0FF"/>
<stop offset="0.17" stop-color="#E896FF"/>
<stop offset="0.25" stop-color="#E383FF"/>
<stop offset="0.32" stop-color="#E077FF"/>
<stop offset="0.41" stop-color="#DF74FF"/>
<stop offset="0.73" stop-color="#673EC0"/>
<stop offset="1" stop-color="#562495"/>
</radialGradient>
<radialGradient id="paint2_radial_1_36488" cx="0" cy="0" r="1" gradientUnits="userSpaceOnUse" gradientTransform="translate(21.2908 19.2964) scale(3.83895 3.83896)">
<stop stop-color="#FFE2FF"/>
<stop offset="0.03" stop-color="#FAD2FF"/>
<stop offset="0.1" stop-color="#F0B0FF"/>
<stop offset="0.17" stop-color="#E896FF"/>
<stop offset="0.25" stop-color="#E383FF"/>
<stop offset="0.32" stop-color="#E077FF"/>
<stop offset="0.41" stop-color="#DF74FF"/>
<stop offset="0.73" stop-color="#673EC0"/>
<stop offset="1" stop-color="#562495"/>
</radialGradient>
<radialGradient id="paint3_radial_1_36488" cx="0" cy="0" r="1" gradientUnits="userSpaceOnUse" gradientTransform="translate(22.9133 20.7654) scale(5.43347 5.43347)">
<stop stop-color="#FFE2FF"/>
<stop offset="0.03" stop-color="#FAD2FF"/>
<stop offset="0.1" stop-color="#F0B0FF"/>
<stop offset="0.17" stop-color="#E896FF"/>
<stop offset="0.25" stop-color="#E383FF"/>
<stop offset="0.32" stop-color="#E077FF"/>
<stop offset="0.41" stop-color="#DF74FF"/>
<stop offset="0.73" stop-color="#673EC0"/>
<stop offset="1" stop-color="#562495"/>
</radialGradient>
<radialGradient id="paint4_radial_1_36488" cx="0" cy="0" r="1" gradientUnits="userSpaceOnUse" gradientTransform="translate(21.2909 11.3912) scale(4.35838 4.35838)">
<stop stop-color="#FFE2FF"/>
<stop offset="0.03" stop-color="#FAD2FF"/>
<stop offset="0.1" stop-color="#F0B0FF"/>
<stop offset="0.17" stop-color="#E896FF"/>
<stop offset="0.25" stop-color="#E383FF"/>
<stop offset="0.32" stop-color="#E077FF"/>
<stop offset="0.41" stop-color="#DF74FF"/>
<stop offset="0.73" stop-color="#673EC0"/>
<stop offset="1" stop-color="#562495"/>
</radialGradient>
<radialGradient id="paint5_radial_1_36488" cx="0" cy="0" r="1" gradientUnits="userSpaceOnUse" gradientTransform="translate(21.8375 10.4944) scale(4.61297)">
<stop stop-color="#FFE2FF"/>
<stop offset="0.03" stop-color="#FAD2FF"/>
<stop offset="0.1" stop-color="#F0B0FF"/>
<stop offset="0.17" stop-color="#E896FF"/>
<stop offset="0.25" stop-color="#E383FF"/>
<stop offset="0.32" stop-color="#E077FF"/>
<stop offset="0.41" stop-color="#DF74FF"/>
<stop offset="0.73" stop-color="#673EC0"/>
<stop offset="1" stop-color="#562495"/>
</radialGradient>
<radialGradient id="paint6_radial_1_36488" cx="0" cy="0" r="1" gradientUnits="userSpaceOnUse" gradientTransform="translate(11.8215 20.3791) scale(5.50341)">
<stop stop-color="#FFE2FF"/>
<stop offset="0.03" stop-color="#FAD2FF"/>
<stop offset="0.1" stop-color="#F0B0FF"/>
<stop offset="0.17" stop-color="#E896FF"/>
<stop offset="0.25" stop-color="#E383FF"/>
<stop offset="0.32" stop-color="#E077FF"/>
<stop offset="0.41" stop-color="#DF74FF"/>
<stop offset="0.73" stop-color="#673EC0"/>
<stop offset="1" stop-color="#562495"/>
</radialGradient>
<radialGradient id="paint7_radial_1_36488" cx="0" cy="0" r="1" gradientUnits="userSpaceOnUse" gradientTransform="translate(13.3418 19.2965) scale(3.61976 3.61976)">
<stop stop-color="#FFE2FF"/>
<stop offset="0.03" stop-color="#FAD2FF"/>
<stop offset="0.1" stop-color="#F0B0FF"/>
<stop offset="0.17" stop-color="#E896FF"/>
<stop offset="0.25" stop-color="#E383FF"/>
<stop offset="0.32" stop-color="#E077FF"/>
<stop offset="0.41" stop-color="#DF74FF"/>
<stop offset="0.73" stop-color="#673EC0"/>
<stop offset="1" stop-color="#562495"/>
</radialGradient>
<radialGradient id="paint8_radial_1_36488" cx="0" cy="0" r="1" gradientUnits="userSpaceOnUse" gradientTransform="translate(11.6054 14.5668) scale(10.0635)">
<stop stop-color="#FFE2FF"/>
<stop offset="0.03" stop-color="#FAD2FF"/>
<stop offset="0.1" stop-color="#F0B0FF"/>
<stop offset="0.17" stop-color="#E896FF"/>
<stop offset="0.25" stop-color="#E383FF"/>
<stop offset="0.32" stop-color="#E077FF"/>
<stop offset="0.41" stop-color="#DF74FF"/>
<stop offset="0.73" stop-color="#673EC0"/>
<stop offset="1" stop-color="#562495"/>
</radialGradient>
<radialGradient id="paint9_radial_1_36488" cx="0" cy="0" r="1" gradientUnits="userSpaceOnUse" gradientTransform="translate(17.4997 9.36334) scale(10.8426 10.8426)">
<stop stop-color="#FFE2FF"/>
<stop offset="0.03" stop-color="#FAD2FF"/>
<stop offset="0.1" stop-color="#F0B0FF"/>
<stop offset="0.17" stop-color="#E896FF"/>
<stop offset="0.25" stop-color="#E383FF"/>
<stop offset="0.32" stop-color="#E077FF"/>
<stop offset="0.41" stop-color="#DF74FF"/>
<stop offset="0.73" stop-color="#673EC0"/>
<stop offset="1" stop-color="#562495"/>
</radialGradient>
<radialGradient id="paint10_radial_1_36488" cx="0" cy="0" r="1" gradientUnits="userSpaceOnUse" gradientTransform="translate(18.3722 19.9621) scale(8.77646)">
<stop stop-color="#FFE2FF"/>
<stop offset="0.03" stop-color="#FAD2FF"/>
<stop offset="0.1" stop-color="#F0B0FF"/>
<stop offset="0.17" stop-color="#E896FF"/>
<stop offset="0.25" stop-color="#E383FF"/>
<stop offset="0.32" stop-color="#E077FF"/>
<stop offset="0.41" stop-color="#DF74FF"/>
<stop offset="0.73" stop-color="#673EC0"/>
<stop offset="1" stop-color="#562495"/>
</radialGradient>
<radialGradient id="paint11_radial_1_36488" cx="0" cy="0" r="1" gradientUnits="userSpaceOnUse" gradientTransform="translate(17.9845 29.9011) scale(16.7836 16.7836)">
<stop stop-color="#FFE2FF"/>
<stop offset="0.03" stop-color="#FAD2FF"/>
<stop offset="0.1" stop-color="#F0B0FF"/>
<stop offset="0.17" stop-color="#E896FF"/>
<stop offset="0.25" stop-color="#E383FF"/>
<stop offset="0.32" stop-color="#E077FF"/>
<stop offset="0.41" stop-color="#DF74FF"/>
<stop offset="0.73" stop-color="#673EC0"/>
<stop offset="1" stop-color="#562495"/>
</radialGradient>
<radialGradient id="paint12_radial_1_36488" cx="0" cy="0" r="1" gradientUnits="userSpaceOnUse" gradientTransform="translate(10.2387 22.2658) scale(11.6879 11.6879)">
<stop stop-color="#FFE2FF"/>
<stop offset="0.03" stop-color="#FAD2FF"/>
<stop offset="0.1" stop-color="#F0B0FF"/>
<stop offset="0.17" stop-color="#E896FF"/>
<stop offset="0.25" stop-color="#E383FF"/>
<stop offset="0.32" stop-color="#E077FF"/>
<stop offset="0.41" stop-color="#DF74FF"/>
<stop offset="0.73" stop-color="#673EC0"/>
<stop offset="1" stop-color="#562495"/>
</radialGradient>
<radialGradient id="paint13_radial_1_36488" cx="0" cy="0" r="1" gradientUnits="userSpaceOnUse" gradientTransform="translate(15.4015 12.8477) scale(8.61014)">
<stop stop-color="#FFE2FF"/>
<stop offset="0.03" stop-color="#FAD2FF"/>
<stop offset="0.1" stop-color="#F0B0FF"/>
<stop offset="0.17" stop-color="#E896FF"/>
<stop offset="0.25" stop-color="#E383FF"/>
<stop offset="0.32" stop-color="#E077FF"/>
<stop offset="0.41" stop-color="#DF74FF"/>
<stop offset="0.73" stop-color="#673EC0"/>
<stop offset="1" stop-color="#562495"/>
</radialGradient>
<radialGradient id="paint14_radial_1_36488" cx="0" cy="0" r="1" gradientUnits="userSpaceOnUse" gradientTransform="translate(21.9093 14.361) scale(10.4571 10.4571)">
<stop stop-color="#FFE2FF"/>
<stop offset="0.03" stop-color="#FAD2FF"/>
<stop offset="0.1" stop-color="#F0B0FF"/>
<stop offset="0.17" stop-color="#E896FF"/>
<stop offset="0.25" stop-color="#E383FF"/>
<stop offset="0.32" stop-color="#E077FF"/>
<stop offset="0.41" stop-color="#DF74FF"/>
<stop offset="0.73" stop-color="#673EC0"/>
<stop offset="1" stop-color="#562495"/>
</radialGradient>
<radialGradient id="paint15_radial_1_36488" cx="0" cy="0" r="1" gradientUnits="userSpaceOnUse" gradientTransform="translate(21.2785 9.02783) scale(10.91 10.91)">
<stop stop-color="#FFE2FF"/>
<stop offset="0.03" stop-color="#FAD2FF"/>
<stop offset="0.1" stop-color="#F0B0FF"/>
<stop offset="0.17" stop-color="#E896FF"/>
<stop offset="0.25" stop-color="#E383FF"/>
<stop offset="0.32" stop-color="#E077FF"/>
<stop offset="0.41" stop-color="#DF74FF"/>
<stop offset="0.73" stop-color="#673EC0"/>
<stop offset="1" stop-color="#562495"/>
</radialGradient>
<clipPath id="clip0_1_36488">
<rect width="12.6593" height="12.6593" fill="white" transform="translate(11 9)"/>
</clipPath>
</defs>
</svg>
