<svg width="20" height="20" viewBox="0 0 20 20" fill="none" xmlns="http://www.w3.org/2000/svg">
<rect y="-12" width="32" height="32" rx="16" fill="#DF74FF"/>
<path d="M14.0623 6.00197C14.3053 6.01725 14.5344 6.12068 14.7066 6.29286C14.8788 6.46505 14.9822 6.69415 14.9975 6.93718C15.0128 7.18021 14.9389 7.42046 14.7896 7.61286L14.7066 7.70686L10.7066 11.7069L10.6126 11.7899C10.4373 11.9259 10.2216 11.9998 9.99963 11.9998C9.77766 11.9998 9.562 11.9259 9.38663 11.7899L9.29263 11.7069L7.29263 9.70686L7.20963 9.61286C7.06049 9.42045 6.98666 9.18023 7.00199 8.93726C7.01731 8.6943 7.12075 8.46527 7.29289 8.29312C7.46504 8.12098 7.69407 8.01754 7.93704 8.00221C8.18 7.98688 8.42022 8.06072 8.61263 8.20986L8.70663 8.29286L9.99963 9.58486L13.2926 6.29286L13.3866 6.20986C13.579 6.06061 13.8193 5.98669 14.0623 6.00197Z" fill="#FCFCFD"/>
</svg>
