<svg width="18" height="18" viewBox="0 0 18 18" fill="none" xmlns="http://www.w3.org/2000/svg">
<path d="M4.56433 17.9363C3.49386 17.8877 2.91235 17.7095 2.52557 17.5587C2.01308 17.3591 1.6477 17.1216 1.26305 16.7375C0.878414 16.3534 0.640354 15.988 0.441882 15.4755C0.291021 15.0887 0.112878 14.5072 0.0641959 13.4367C0.0106993 12.2796 0 11.9324 0 9.0008C0 6.06919 0.0117693 5.72253 0.0636609 4.56433C0.112343 3.49386 0.291556 2.91342 0.441347 2.52557C0.640889 2.01308 0.878949 1.6477 1.26252 1.26252C1.64663 0.878414 2.01201 0.639819 2.52504 0.441347C2.91182 0.290487 3.49333 0.112343 4.56379 0.0636609C5.72146 0.0106993 6.06919 0 8.99973 0C11.9313 0 12.278 0.0117693 13.4362 0.0636609C14.5067 0.112343 15.0871 0.291556 15.475 0.441347C15.9875 0.639819 16.3528 0.878414 16.7375 1.26252C17.1221 1.64663 17.3591 2.01254 17.5587 2.52504C17.7095 2.91182 17.8877 3.49333 17.9363 4.56379C17.9893 5.722 18 6.06865 18 9.00027C18 11.9308 17.9893 12.2785 17.9363 13.4367C17.8877 14.5072 17.7084 15.0887 17.5587 15.4755C17.3591 15.988 17.1216 16.3534 16.7375 16.7375C16.3534 17.1216 15.9875 17.3591 15.475 17.5587C15.0882 17.7095 14.5067 17.8877 13.4362 17.9363C12.2791 17.9893 11.9313 18 8.99973 18C6.06919 18 5.72146 17.9898 4.56433 17.9363" fill="url(#paint0_radial_0_1470)"/>
<path d="M6.95782 8.93625C6.95782 7.84346 7.84346 6.95734 8.93625 6.95734C10.029 6.95734 10.9152 7.84346 10.9152 8.93625C10.9152 10.029 10.029 10.9152 8.93625 10.9152C7.84346 10.9152 6.95782 10.029 6.95782 8.93625M5.88806 8.93625C5.88806 10.6198 7.25273 11.9844 8.93625 11.9844C10.6198 11.9844 11.9844 10.6198 11.9844 8.93625C11.9844 7.25273 10.6198 5.88806 8.93625 5.88806C7.25273 5.88806 5.8881 7.25263 5.8881 8.93625M11.3928 5.76719C11.3928 5.90808 11.4345 6.04583 11.5127 6.163C11.5909 6.28018 11.7022 6.37153 11.8323 6.4255C11.9624 6.47946 12.1057 6.49363 12.2439 6.4662C12.382 6.43877 12.509 6.37097 12.6087 6.27139C12.7083 6.1718 12.7762 6.0449 12.8038 5.90673C12.8313 5.76856 12.8173 5.62532 12.7634 5.49514C12.7095 5.36495 12.6183 5.25366 12.5012 5.17534C12.384 5.09702 12.2463 5.05519 12.1054 5.05513H12.1052C11.9163 5.05522 11.7352 5.13026 11.6017 5.26377C11.4681 5.39728 11.393 5.57834 11.3928 5.76719M6.53801 13.7683C5.95924 13.7419 5.64467 13.6455 5.43562 13.5641C5.15847 13.4562 4.96072 13.3276 4.75281 13.12C4.5449 12.9124 4.4162 12.7148 4.30878 12.4377C4.22728 12.2287 4.13088 11.9141 4.10457 11.3353C4.07579 10.7096 4.07004 10.5216 4.07004 8.93634C4.07004 7.35108 4.07627 7.16364 4.10457 6.53739C4.13093 5.95863 4.22804 5.64458 4.30878 5.435C4.41667 5.15785 4.54518 4.9601 4.75281 4.75219C4.96043 4.54428 5.15799 4.41558 5.43562 4.30816C5.64458 4.22667 5.95924 4.13026 6.53801 4.10395C7.16373 4.07517 7.3517 4.06943 8.93625 4.06943C10.5208 4.06943 10.709 4.07555 11.3352 4.10405C11.914 4.1304 12.228 4.22752 12.4376 4.30825C12.7147 4.41568 12.9125 4.54466 13.1204 4.75229C13.3283 4.95991 13.4565 5.15795 13.5644 5.4351C13.6459 5.64405 13.7423 5.95872 13.7686 6.53748C13.7974 7.16373 13.8032 7.35118 13.8032 8.93644C13.8032 10.5217 13.7974 10.7091 13.7686 11.3354C13.7423 11.9142 13.6454 12.2287 13.5644 12.4378C13.4565 12.7149 13.328 12.9127 13.1204 13.1201C12.9128 13.3276 12.7147 13.4563 12.4376 13.5641C12.2286 13.6456 11.914 13.742 11.3352 13.7684C10.7095 13.7971 10.5215 13.8029 8.93625 13.8029C7.35099 13.8029 7.16354 13.7971 6.53801 13.7684M6.48885 3.03595C5.8569 3.06473 5.42508 3.16493 5.04796 3.31168C4.65764 3.46322 4.32678 3.66652 3.99639 3.99639C3.666 4.32625 3.46322 4.65716 3.31168 5.04796C3.16493 5.42531 3.06473 5.8569 3.03595 6.48885C3.0067 7.1218 3 7.32415 3 8.93625C3 10.5483 3.0067 10.7507 3.03595 11.3836C3.06473 12.0156 3.16493 12.4472 3.31168 12.8245C3.46322 13.2149 3.66605 13.5464 3.99639 13.8761C4.32673 14.2058 4.65716 14.4089 5.04796 14.5608C5.42579 14.7076 5.8569 14.8078 6.48885 14.8365C7.12213 14.8653 7.32415 14.8725 8.93625 14.8725C10.5483 14.8725 10.7507 14.8658 11.3836 14.8365C12.0156 14.8078 12.4472 14.7076 12.8245 14.5608C13.2149 14.4089 13.5457 14.206 13.8761 13.8761C14.2065 13.5462 14.4089 13.2149 14.5608 12.8245C14.7076 12.4472 14.8082 12.0156 14.8365 11.3836C14.8653 10.7502 14.872 10.5483 14.872 8.93625C14.872 7.32415 14.8653 7.1218 14.8365 6.48885C14.8078 5.85686 14.7076 5.42508 14.5608 5.04796C14.4089 4.65764 14.206 4.32678 13.8761 3.99639C13.5462 3.666 13.2149 3.46322 12.825 3.31168C12.4472 3.16493 12.0156 3.06425 11.3841 3.03595C10.7511 3.00703 10.5488 3 8.93696 3C7.3251 3 7.12237 3.0067 6.48909 3.03595" fill="white"/>
<defs>
<radialGradient id="paint0_radial_0_1470" cx="0" cy="0" r="1" gradientUnits="userSpaceOnUse" gradientTransform="translate(1.16494 17.6057) scale(22.8533)">
<stop offset="0.09" stop-color="#FA8F21"/>
<stop offset="0.78" stop-color="#D82D7E"/>
</radialGradient>
</defs>
</svg>
