<svg width="18" height="18" viewBox="0 0 18 18" fill="none" xmlns="http://www.w3.org/2000/svg">
<rect width="18" height="18" rx="9" fill="url(#paint0_linear_0_1445)"/>
<path fill-rule="evenodd" clip-rule="evenodd" d="M4.07401 8.90502C6.6977 7.76193 8.44723 7.00833 9.32261 6.64423C11.822 5.60464 12.3414 5.42406 12.6799 5.41809C12.7543 5.41678 12.9208 5.43523 13.0286 5.52273C13.1197 5.59661 13.1447 5.69641 13.1567 5.76646C13.1687 5.83651 13.1836 5.99608 13.1718 6.12076C13.0363 7.54387 12.4503 10.9974 12.1521 12.5913C12.0259 13.2657 11.7775 13.4919 11.537 13.514C11.0144 13.5621 10.6175 13.1686 10.1113 12.8368C9.31919 12.3175 8.87169 11.9943 8.1028 11.4876C7.21422 10.9021 7.79025 10.5802 8.29665 10.0543C8.42918 9.91661 10.732 7.82204 10.7765 7.63203C10.7821 7.60827 10.7873 7.51969 10.7347 7.47291C10.682 7.42614 10.6044 7.44214 10.5483 7.45486C10.4689 7.47289 9.20346 8.30928 6.75207 9.96404C6.39289 10.2107 6.06755 10.3309 5.77606 10.3246C5.45471 10.3176 4.83657 10.1429 4.37704 9.99349C3.81342 9.81028 3.36546 9.71341 3.40447 9.40226C3.42478 9.24019 3.64797 9.07445 4.07401 8.90502Z" fill="white"/>
<defs>
<linearGradient id="paint0_linear_0_1445" x1="9" y1="0" x2="9" y2="17.8665" gradientUnits="userSpaceOnUse">
<stop stop-color="#2AABEE"/>
<stop offset="1" stop-color="#229ED9"/>
</linearGradient>
</defs>
</svg>
