<svg width="18" height="18" viewBox="0 0 18 18" fill="none" xmlns="http://www.w3.org/2000/svg">
<rect width="18" height="18" rx="9" fill="black"/>
<path d="M11.0004 7.75684C11.7142 8.26891 12.5886 8.5702 13.5331 8.5702V6.74635C13.3543 6.74638 13.1761 6.72768 13.0012 6.6905V8.12613C12.0568 8.12613 11.1825 7.82484 10.4685 7.31281V11.0348C10.4685 12.8967 8.9645 14.406 7.10931 14.406C6.4171 14.406 5.77372 14.1959 5.23926 13.8358C5.84925 14.4617 6.69994 14.85 7.64108 14.85C9.49638 14.85 11.0005 13.3407 11.0005 11.4787V7.75684H11.0004ZM11.6565 5.9168C11.2917 5.51684 11.0522 4.99998 11.0004 4.42856V4.19397H10.4964C10.6232 4.92024 11.056 5.54073 11.6565 5.9168ZM6.41266 12.407C6.20885 12.1388 6.09871 11.8107 6.0992 11.4734C6.0992 10.6218 6.78713 9.93136 7.63584 9.93136C7.79401 9.93132 7.95124 9.95563 8.10197 10.0036V8.13901C7.92582 8.11478 7.74803 8.1045 7.57032 8.10827V9.5596C7.41947 9.5116 7.26217 9.48722 7.10396 9.48737C6.25525 9.48737 5.56736 10.1778 5.56736 11.0294C5.56736 11.6316 5.91121 12.153 6.41266 12.407Z" fill="#FF004F"/>
<path d="M10.4685 7.31278C11.1825 7.82481 12.0568 8.1261 13.0012 8.1261V6.69046C12.4741 6.57778 12.0074 6.30133 11.6565 5.9168C11.0559 5.54069 10.6232 4.92021 10.4964 4.19397H9.17242V11.4786C9.16943 12.3279 8.48268 13.0155 7.63578 13.0155C7.13672 13.0155 6.69336 12.7768 6.41256 12.407C5.91115 12.153 5.5673 11.6316 5.5673 11.0295C5.5673 10.1779 6.25519 9.48741 7.1039 9.48741C7.26651 9.48741 7.42324 9.51282 7.57026 9.55963V8.10831C5.74767 8.1461 4.28186 9.64062 4.28186 11.4787C4.28186 12.3962 4.64688 13.228 5.23931 13.8358C5.77377 14.1959 6.41715 14.406 7.10937 14.406C8.96459 14.406 10.4686 12.8966 10.4686 11.0348V7.31278H10.4685Z" fill="white"/>
<path d="M13.0012 6.69049V6.3023C12.5258 6.30302 12.0598 6.16943 11.6565 5.91678C12.0135 6.30904 12.4836 6.57952 13.0012 6.69049ZM10.4964 4.19399C10.4842 4.12458 10.475 4.05472 10.4685 3.98459V3.75H8.64049V11.0348C8.63756 11.8839 7.95085 12.5715 7.10388 12.5715C6.85523 12.5715 6.62045 12.5123 6.41254 12.407C6.69334 12.7768 7.1367 13.0155 7.63576 13.0155C8.48258 13.0155 9.16944 12.328 9.1724 11.4787V4.19399H10.4964ZM7.57032 8.10833V7.69508C7.41757 7.67413 7.26357 7.66361 7.10939 7.66369C5.25401 7.66365 3.75 9.173 3.75 11.0348C3.75 12.202 4.3411 13.2306 5.23933 13.8357C4.6469 13.228 4.28188 12.3962 4.28188 11.4787C4.28188 9.64065 5.74765 8.14612 7.57032 8.10833Z" fill="#00F2EA"/>
</svg>
