<svg width="18" height="18" viewBox="0 0 18 18" fill="none" xmlns="http://www.w3.org/2000/svg">
<rect width="18" height="18" rx="9" fill="white"/>
<path d="M9.8571 8.31131L13.2081 4.5H12.4143L9.5034 7.80863L7.1802 4.5H4.5L8.0139 9.50371L4.5 13.5H5.2938L8.3658 10.0052L10.8198 13.5H13.5M5.5803 5.08571H6.7998L12.4137 12.943H11.1939" fill="#080811"/>
<path d="M7.18066 4.40039L7.26172 4.44238L9.51172 7.64648L12.3389 4.43359L12.4141 4.40039H13.208L13.2832 4.56641L9.9834 8.31836L13.582 13.4424L13.5 13.5996H10.8193L10.7383 13.5576L8.35645 10.166L5.36914 13.5664L5.29395 13.5996H4.5L4.4248 13.4336L7.88574 9.49609L4.41797 4.55762L4.5 4.40039H7.18066ZM8.0957 9.44629L8.08887 9.56934L4.7207 13.4004H5.24805L8.29102 9.93945L8.44727 9.94727L10.8721 13.4004H13.3076L9.77539 8.36914L9.78223 8.24512L12.9873 4.59961H12.46L9.57812 7.875L9.42188 7.86621L7.12793 4.59961H4.69238L8.0957 9.44629ZM6.7998 4.98535L6.88086 5.02734L12.4951 12.8848L12.4141 13.043H11.1943L11.1123 13.001L5.49902 5.14355L5.58008 4.98535H6.7998ZM11.2451 12.8428H12.2188L6.74902 5.18555H5.77539L11.2451 12.8428Z" fill="#080811"/>
</svg>
