<svg width="18" height="18" viewBox="0 0 18 18" fill="none" xmlns="http://www.w3.org/2000/svg">
<rect width="18" height="18" rx="9" fill="#FF0000"/>
<path d="M14.2412 6.42353C14.1176 5.96471 13.7559 5.60294 13.2971 5.47941C12.4588 5.25 9.10588 5.25 9.10588 5.25C9.10588 5.25 5.75294 5.25 4.91471 5.47059C4.46471 5.59412 4.09412 5.96471 3.97059 6.42353C3.75 7.26176 3.75 9 3.75 9C3.75 9 3.75 10.7471 3.97059 11.5765C4.09412 12.0353 4.45588 12.3971 4.91471 12.5206C5.76176 12.75 9.10588 12.75 9.10588 12.75C9.10588 12.75 12.4588 12.75 13.2971 12.5294C13.7559 12.4059 14.1176 12.0441 14.2412 11.5853C14.4618 10.7471 14.4618 9.00882 14.4618 9.00882C14.4618 9.00882 14.4706 7.26176 14.2412 6.42353Z" fill="white"/>
<path d="M8.03809 10.6059L10.8263 8.99999L8.03809 7.3941V10.6059Z" fill="#FF0000"/>
</svg>
