<svg width="280" height="280" viewBox="0 0 280 280" fill="none" xmlns="http://www.w3.org/2000/svg">
<rect width="280" height="280" rx="140" fill="black"/>
<rect x="15" y="15" width="250" height="250" rx="125" fill="#073B11"/>
<mask id="mask0_17_19" style="mask-type:luminance" maskUnits="userSpaceOnUse" x="67" y="49" width="145" height="182">
<path d="M212 49H67V230.25H212V49Z" fill="white"/>
</mask>
<g mask="url(#mask0_17_19)">
<path d="M178.709 106.928C176.784 105.388 175.012 103.574 172.375 103.862C170.303 104.089 168.204 105.868 166.347 106.843C149.42 115.731 127.669 114.919 110.948 106.025C108.132 104.528 106.269 102.701 102.92 104.827C97.7476 108.111 90.9201 115.243 87.0091 120.08C71.3155 139.502 60.7365 173.853 71.1735 197.897C83.5291 226.356 118.674 231.041 145.678 230.15C175.224 229.176 207.263 218.246 211.498 183.953C214.964 155.887 200.106 124.05 178.709 106.928ZM170.378 184.674C167.389 193.136 153.738 191.561 146.825 191.776C144.413 192.401 145.828 195.148 143.722 195.953C140.879 195.759 137.421 196.333 134.653 195.991C132.35 195.708 133.411 193.218 132.104 192.227C131.66 191.892 131.216 191.781 130.672 191.732C127.788 191.471 124.515 191.899 121.568 191.737C115.544 191.407 107.667 189.598 107.121 182.177C106.823 178.103 106.813 173.113 111.711 172.334H132.699C134.457 172.679 135.562 173.878 135.809 175.687C135.964 176.818 135.689 177.603 136.424 178.653C137.599 180.34 141.347 180.14 142.329 178.184C142.803 177.241 142.854 175.089 142.68 174.046C142.292 171.714 138.802 171.048 136.935 170.449C129.534 168.081 120.321 166.346 113.398 163.167C106.882 160.176 106.654 156.04 107.113 149.16C107.694 140.436 117.311 139.673 123.955 139.273C126.094 138.977 129.575 139.725 131.548 139.202C133.51 138.683 132.225 135.548 134.534 135.068L143.681 135.107C145.781 135.668 144.527 138.874 146.637 139.271C148.774 139.675 152.034 138.992 154.298 139.273C160.211 139.567 169.749 140.39 170.951 147.882C171.508 151.347 170.504 154.613 166.861 155.416L143.117 155.458C142.389 155.323 142.619 154.215 142.488 153.651C142.193 152.369 141.197 151.52 139.924 151.373C137.937 151.142 135.279 151.559 135.704 154.224C135.905 155.481 138.486 156.259 139.564 156.645C147.534 159.505 156.327 161.247 164.192 164.28C166.834 165.3 169.371 166.865 170.341 169.752C171.43 172.991 171.51 181.469 170.378 184.674Z" fill="#00D52B"/>
<path d="M178.077 73.2577C176.521 79.7277 165.932 90.5187 160.648 94.4736C150.183 102.307 127.455 101.949 117.258 93.6809C112.238 89.6085 101.887 79.4875 101.231 72.8277C100.726 67.7061 103.802 66.7647 107.032 64.0976C110.122 61.5417 112.809 58.9236 115.584 56.0195C118.465 53.0011 120.353 49.6475 124.962 49.1148C133.443 48.1342 139.72 53.7577 148.064 53.7757C151.001 53.7822 153.921 52.8393 156.85 52.9847C163.756 53.3246 166.595 58.6261 171.289 62.7167C175.117 66.0539 179.601 66.9167 178.077 73.2577Z" fill="#00D52B"/>
<path d="M134.532 135.062L143.679 135.102C145.78 135.661 144.526 138.868 146.636 139.266C148.774 139.669 152.034 138.987 154.297 139.267C160.209 139.561 169.748 140.386 170.95 147.876C171.507 151.34 170.503 154.608 166.86 155.411L143.116 155.453C142.389 155.318 142.618 154.209 142.487 153.645C142.192 152.364 141.195 151.514 139.924 151.367C137.936 151.137 135.278 151.554 135.703 154.219C135.903 155.476 138.486 156.254 139.562 156.64C147.533 159.499 156.326 161.241 164.191 164.275C166.833 165.295 169.37 166.86 170.34 169.747C171.428 172.985 171.509 181.463 170.377 184.669C167.388 193.131 153.736 191.555 146.824 191.771C144.413 192.395 145.827 195.142 143.721 195.948C140.878 195.753 137.421 196.327 134.652 195.986C132.348 195.703 133.411 193.213 132.103 192.223C131.659 191.887 131.215 191.776 130.671 191.727C127.786 191.465 124.514 191.893 121.567 191.732C115.542 191.402 107.666 189.592 107.121 182.171C106.821 178.097 106.811 173.108 111.709 172.328L132.698 172.328C134.456 172.674 135.56 173.873 135.808 175.682C135.962 176.813 135.689 177.597 136.422 178.649C137.598 180.335 141.345 180.136 142.328 178.179C142.801 177.236 142.852 175.083 142.679 174.041C142.291 171.708 138.802 171.042 136.933 170.444C129.533 168.075 120.32 166.341 113.396 163.162C106.881 160.171 106.653 156.035 107.112 149.155C107.694 140.431 117.309 139.667 123.953 139.267C126.092 138.972 129.574 139.719 131.547 139.197C133.509 138.677 132.224 135.543 134.532 135.062Z" fill="black"/>
</g>
</svg>
