<svg width="24" height="24" viewBox="0 0 24 24" fill="none" xmlns="http://www.w3.org/2000/svg">
<circle cx="12" cy="12" r="12" fill="#541739"/>
<mask id="mask0_2_2937" style="mask-type:alpha" maskUnits="userSpaceOnUse" x="3" y="6" width="15" height="15">
<path d="M17.9563 11.068C17.9563 13.7333 15.2296 18.4856 12.5644 18.4856C0.827297 23.8775 3.44886 19.6474 5.74257 11.3063C5.74257 8.64107 10.4651 6.24213 13.1304 6.24213C15.7956 6.24213 17.9563 8.40275 17.9563 11.068Z" fill="#D9D9D9"/>
</mask>
<g mask="url(#mask0_2_2937)">
<path d="M13.6369 5.67615L7.6492 10.5914L10.4196 6.68899L13.6369 5.67615Z" fill="url(#paint0_linear_2_2937)"/>
<path d="M14.5306 5.31866C11.7423 7.77332 7.5499 12.6568 5.80225 14.7917C7.37513 14.0768 13.0907 8.51607 15.7519 5.82509L14.5306 5.31866Z" fill="url(#paint1_linear_2_2937)"/>
<path d="M15.7817 6.54004C12.9934 8.99469 7.01367 15.7251 5.26602 17.86C6.83891 17.1451 14.3419 9.73744 17.0031 7.04646L15.7817 6.54004Z" fill="url(#paint2_linear_2_2937)"/>
<path d="M16.8542 7.91034C14.0659 10.365 8.08612 17.0954 6.33847 19.2303C7.91136 18.5154 15.4143 11.1077 18.0755 8.41676L16.8542 7.91034Z" fill="url(#paint3_linear_2_2937)"/>
<path d="M18.0457 9.2807C15.2574 11.7354 11.3034 16.1422 9.55573 18.2771C12.8028 15.9833 15.454 13.2129 19.2671 9.78712L18.0457 9.2807Z" fill="url(#paint4_linear_2_2937)"/>
<path d="M17.7478 11.8724C16.7469 12.7065 14.6696 15.3776 13.756 16.6089L17.7478 13.5704V11.8724Z" fill="url(#paint5_linear_2_2937)"/>
</g>
<defs>
<linearGradient id="paint0_linear_2_2937" x1="10.643" y1="5.67615" x2="10.643" y2="10.5914" gradientUnits="userSpaceOnUse">
<stop stop-color="#20AB00"/>
<stop offset="1" stop-color="#F2215A"/>
</linearGradient>
<linearGradient id="paint1_linear_2_2937" x1="10.7771" y1="5.31866" x2="10.7771" y2="14.7917" gradientUnits="userSpaceOnUse">
<stop stop-color="#20AB00"/>
<stop offset="1" stop-color="#F2215A"/>
</linearGradient>
<linearGradient id="paint2_linear_2_2937" x1="11.1345" y1="6.54004" x2="11.1345" y2="17.86" gradientUnits="userSpaceOnUse">
<stop stop-color="#20AB00"/>
<stop offset="1" stop-color="#F2215A"/>
</linearGradient>
<linearGradient id="paint3_linear_2_2937" x1="12.207" y1="7.91034" x2="12.207" y2="19.2303" gradientUnits="userSpaceOnUse">
<stop stop-color="#20AB00"/>
<stop offset="1" stop-color="#F2215A"/>
</linearGradient>
<linearGradient id="paint4_linear_2_2937" x1="14.4114" y1="9.2807" x2="14.4114" y2="18.2771" gradientUnits="userSpaceOnUse">
<stop stop-color="#20AB00"/>
<stop offset="1" stop-color="#F2215A"/>
</linearGradient>
<linearGradient id="paint5_linear_2_2937" x1="15.7519" y1="11.8724" x2="15.7519" y2="16.6089" gradientUnits="userSpaceOnUse">
<stop stop-color="#20AB00"/>
<stop offset="1" stop-color="#F2215A"/>
</linearGradient>
</defs>
</svg>
