<svg width="28" height="28" viewBox="0 0 28 28" fill="none" xmlns="http://www.w3.org/2000/svg">
<rect x="1" y="1" width="26" height="26" rx="13" fill="url(#paint0_linear_2_2954)" stroke="#131322" stroke-width="2"/>
<path d="M21.0172 11.5849V17.4703L14.4734 21.2486L7.92504 17.4703V9.90924L14.4734 6.12645L19.505 9.0328L20.2634 8.59684L14.4734 5.25L7.16667 9.46875V17.9062L14.4734 22.125L21.7802 17.9062V11.1444L21.0172 11.5849Z" fill="#FCFCFD"/>
<path d="M12.639 17.4707H11.5445V13.7969H15.1957C15.5408 13.7924 15.8723 13.6516 16.113 13.4064C16.3582 13.1612 16.4944 12.8296 16.4944 12.4845C16.4944 12.312 16.4626 12.1439 16.3991 11.985C16.3309 11.826 16.2356 11.6853 16.113 11.5672C15.9949 11.4446 15.8496 11.3492 15.6952 11.2811C15.5362 11.213 15.3682 11.1812 15.1957 11.1812H11.5445V10.0641H15.2002C15.8405 10.0686 16.4536 10.3229 16.9031 10.777C17.3572 11.2312 17.6116 11.8442 17.6161 12.48C17.6206 12.9704 17.4708 13.4472 17.1892 13.8469C16.9304 14.2283 16.5625 14.528 16.1357 14.7097C15.7133 14.8459 15.2728 14.9095 14.8278 14.905H12.639V17.4707Z" fill="#FCFCFD"/>
<path d="M17.5932 17.3798H16.3172L15.3317 15.6587C15.7223 15.636 16.1083 15.5543 16.4761 15.4271L17.5932 17.3798Z" fill="#FCFCFD"/>
<path d="M20.2545 10.3593L21.0128 10.7816L21.7667 10.3638V9.4783L21.0128 9.04234L20.259 9.4783V10.3593H20.2545Z" fill="#FCFCFD"/>
<defs>
<linearGradient id="paint0_linear_2_2954" x1="4" y1="8" x2="24" y2="24" gradientUnits="userSpaceOnUse">
<stop stop-color="#FF5D36"/>
<stop offset="1" stop-color="#633900"/>
</linearGradient>
</defs>
</svg>
