<svg width="280" height="280" viewBox="0 0 280 280" fill="none" xmlns="http://www.w3.org/2000/svg">
<rect width="280" height="280" rx="140" fill="black"/>
<g clip-path="url(#clip0_10_36)">
<rect x="15" y="15" width="250" height="250" rx="125" fill="#555F16" fill-opacity="0.64"/>
<path d="M195.674 83.8931C195.942 82.2277 196.149 80.5284 195.861 78.8662C194.212 69.321 183.384 63.8514 174.582 68.9449L60.8115 149.121C51.6977 154.394 56.5335 168.41 66.9479 166.906L122.454 156.115C130.14 155.005 137.612 158.666 141.527 165.161C142.605 166.947 143.16 168.985 143.639 171.017L155.29 220.44C155.529 221.456 155.81 222.476 156.334 223.379C160.74 230.98 172.577 228.73 173.946 220.089C174.121 218.979 174.165 217.845 174.343 216.735L195.674 83.8931Z" fill="#DFFF18"/>
</g>
<defs>
<clipPath id="clip0_10_36">
<rect x="15" y="15" width="250" height="250" rx="125" fill="white"/>
</clipPath>
</defs>
</svg>
