<svg width="280" height="280" viewBox="0 0 280 280" fill="none" xmlns="http://www.w3.org/2000/svg">
<rect width="280" height="280" rx="140" fill="black"/>
<g clip-path="url(#clip0_10_25)">
<rect x="15" y="15" width="250" height="250" rx="125" fill="#FFD15C"/>
<g clip-path="url(#clip1_10_25)">
<path d="M0 0H280V280H0V0Z" fill="#FFD15C"/>
<path d="M280 140C280 217.319 217.319 280 140 280C62.6808 280 0 217.319 0 140C0 62.6808 62.6808 0 140 0C217.319 0 280 62.6808 280 140Z" fill="#FFD15C"/>
<path d="M243.034 118.559C235.952 108.641 228.435 103.443 223.73 100.918C222.052 97.839 220.22 94.8476 218.239 91.9548C212.447 83.4876 206.412 76.146 200.304 70.133C194.592 64.5092 188.632 59.8696 182.589 56.3416C172.077 50.2012 161.172 47.2052 149.254 47.1828H149.118C138.207 47.1828 128.241 49.665 119.928 52.0968C117.536 52.8033 115.15 53.5313 112.771 54.2808C106.77 56.1484 101.101 57.9152 96.3172 58.702C93.058 59.2396 90.503 60.4688 88.7264 62.356C87.0464 64.1382 86.0482 66.521 85.7556 69.4386C85.2096 74.8944 87.1444 82.2038 91.3514 90.5772C99.7668 107.327 115.886 125.766 132.418 137.557C134.114 138.771 135.724 140.103 137.235 141.541L137.168 141.555C124.312 143.392 117.614 157.207 114.902 164.672C114.195 166.62 116.12 168.364 118.084 167.7C125.874 165.075 141.574 160.873 150.765 165.88C152.481 174.093 151.757 182.144 148.659 188.436C146.758 192.294 144.05 195.38 140.609 197.604C136.899 200.005 132.419 201.348 127.287 201.596C121.729 201.863 115.426 200.841 108.556 198.554C101.083 196.066 92.876 192.059 84.1624 186.644L84.0014 186.544L83.8334 186.455C83.7298 186.399 83.6275 186.341 83.5268 186.28C95.998 171.251 88.3932 148.554 85.351 141.071C84.945 140.073 83.5688 140.081 83.02 141.009C75.894 153.073 61.278 152.179 61.5384 166.547L61.5202 166.515C50.3482 157.429 42.0532 169.516 28.1498 167.7C27.0802 167.562 26.2276 168.643 26.7638 169.576C30.7748 176.56 43.9068 196.421 63.3276 195.976C64.0976 196.818 64.9894 197.791 65.6796 198.554L68.0232 201.141C77.5404 211.642 87.9634 219.976 99.0038 225.911C109.288 231.438 120.112 234.898 131.176 236.195C134.491 236.584 137.81 236.777 141.133 236.776C160.397 236.776 179.546 230.3 195.95 218.081C205.095 211.288 213.002 202.972 219.325 193.497C225.782 183.817 230.303 173.341 232.76 162.359C234.387 155.127 235.072 147.715 234.798 140.307C240.89 138.494 247.617 143.865 250.908 147.018C251.712 147.787 253.037 147.309 253.001 146.198C252.83 141.155 251.384 130.255 243.034 118.559ZM187.523 210.269C170.968 222.005 151.505 227.228 132.489 224.998C122.84 223.867 113.371 220.833 104.342 215.979C95.7236 211.347 87.4804 205.036 79.786 197.186C96.9808 207.628 112.346 212.909 125.518 212.909C126.297 212.909 127.067 212.891 127.83 212.855C134.973 212.51 141.331 210.564 146.733 207.068C151.906 203.722 155.956 199.128 158.77 193.417C161.276 188.331 162.67 182.61 162.914 176.41C163.141 170.622 162.361 164.707 160.593 158.829C156.881 146.493 149.199 135.678 138.965 128.379C131.384 122.97 123.78 115.961 116.978 108.109C111.475 101.758 106.795 95.2182 103.284 88.9938V88.9854C103.284 88.9854 103.256 88.9434 103.212 88.8664L103.106 88.6746C102.523 87.5868 100.992 83.9748 105.818 83.2846C151.417 76.7732 244.198 163.401 187.523 210.269Z" fill="black"/>
<path d="M105.799 83.3056C100.972 83.9944 102.505 87.6036 103.088 88.6942L103.194 88.886L103.267 89.005V89.0134C106.777 95.2378 111.457 101.777 116.96 108.129C123.764 115.982 131.366 122.99 138.947 128.397C149.184 135.698 156.864 146.513 160.574 158.848C162.343 164.727 163.122 170.642 162.896 176.429C162.652 182.629 161.259 188.35 158.753 193.437C155.938 199.147 151.889 203.742 146.714 207.088C141.313 210.582 134.954 212.53 127.812 212.874C127.042 212.912 126.271 212.931 125.5 212.93C112.328 212.93 96.964 207.648 79.7678 197.205C87.4622 205.055 95.7054 211.366 104.324 215.999C113.352 220.853 122.822 223.887 132.471 225.018C151.488 227.247 170.951 222.023 187.506 210.288C244.181 163.421 151.399 76.7928 105.799 83.3056Z" fill="white"/>
<path d="M73.8276 186.894C73.8286 186.897 73.85 186.901 73.892 186.906C73.8472 186.896 73.8276 186.894 73.8276 186.894Z" fill="black"/>
<path d="M153.257 80.1472C151.675 77.9296 148.506 71.9138 158.323 71.9138C168.14 71.9138 183.141 83.0298 186.192 87.1416C185.241 89.6476 178.907 90.2076 175.742 89.9654C172.574 89.7218 167.191 89.201 163.075 87.1416C158.956 85.0822 154.84 82.3634 153.257 80.1472Z" fill="white"/>
</g>
</g>
<defs>
<clipPath id="clip0_10_25">
<rect x="15" y="15" width="250" height="250" rx="125" fill="white"/>
</clipPath>
<clipPath id="clip1_10_25">
<rect width="280" height="280" fill="white"/>
</clipPath>
</defs>
</svg>
