<svg width="18" height="18" viewBox="0 0 18 18" fill="none" xmlns="http://www.w3.org/2000/svg">
<path d="M15.889 11.1998C15.8185 11.155 15.748 11.1358 15.6904 11.1165L10.9483 9.53371C10.5382 9.39273 10.096 9.49526 9.79483 9.80285C9.48723 10.104 9.3847 10.5526 9.52568 10.9563L11.1085 15.6984C11.1277 15.7561 11.1534 15.8265 11.1854 15.8842C11.3776 16.2495 11.7621 16.4738 12.1723 16.4738H12.2748C12.7298 16.4353 13.095 16.1405 13.236 15.7112L13.8256 13.9489C13.8448 13.8977 13.8768 13.8656 13.9281 13.8464L15.6904 13.2569C16.1261 13.1159 16.4209 12.7442 16.4593 12.2956C16.4978 11.8471 16.2671 11.4177 15.889 11.2127V11.1998Z" fill="white"/>
<path d="M10.1366 16.1864C10.0809 16.0958 10.039 15.9773 10.0042 15.8728L9.78115 15.1967C9.56507 15.3361 9.34202 15.4267 9.11897 15.4476C9.08412 15.4476 9.0423 15.4476 9.00048 15.4476C8.95865 15.4476 8.9238 15.4476 8.88198 15.4476C8.88198 15.4476 8.88198 15.4476 8.87501 15.4476C7.96888 15.357 7.02092 14.172 6.48421 12.3179H8.82622L8.47771 11.2724H6.24722C6.12176 10.5754 6.04509 9.82259 6.04509 9.00707C6.04509 8.19155 6.12176 7.43876 6.24722 6.74173H11.7677C11.8792 7.34815 11.9419 8.01032 11.9559 8.70735L13.0153 9.06283C13.0153 9.06283 13.0153 9.02798 13.0153 9.00707C13.0153 8.21246 12.9526 7.4527 12.8341 6.74173H15.0298C15.3016 7.4527 15.4549 8.21246 15.4549 9.00707C15.4549 9.29285 15.434 9.57863 15.3992 9.85744L15.8871 10.0178C15.9568 10.0387 16.0823 10.0805 16.2217 10.1641C16.2844 10.199 16.3402 10.2408 16.3959 10.2757C16.4656 9.85744 16.5074 9.43922 16.5074 9.00707C16.5074 4.97826 13.2314 1.61859 9.25838 1.52798C9.19564 1.52101 9.112 1.51404 9.0423 1.51404C9.02836 1.51404 9.01442 1.51404 9.00048 1.51404C8.91683 1.51404 8.84713 1.51404 8.82622 1.52101C8.81925 1.52101 8.81228 1.52101 8.79834 1.52101H8.7844C4.75559 1.6395 1.50745 4.98523 1.50745 9.0001C1.50745 13.015 4.78347 16.3886 8.75652 16.4792C8.83319 16.4862 8.91683 16.4931 9.00048 16.4931C9.08412 16.4931 9.16776 16.4931 9.18867 16.4931C9.5581 16.4862 9.92055 16.4513 10.283 16.3886C10.2342 16.3189 10.1784 16.2631 10.1366 16.1934V16.1864ZM14.514 5.68922H12.6111C12.3462 4.65066 11.9559 3.75149 11.4749 3.06144C12.7435 3.59815 13.803 4.52519 14.514 5.68922ZM8.88198 2.55261H9.00048C9.00048 2.55261 9.08412 2.55261 9.12594 2.55261C10.0321 2.64322 10.98 3.82816 11.5167 5.68225H6.48421C7.02092 3.82816 7.96888 2.64322 8.88198 2.54564V2.55261ZM6.52603 3.06841C6.04509 3.76543 5.66172 4.65763 5.39685 5.68922H3.49397C4.19797 4.53216 5.25745 3.60512 6.52603 3.06841ZM2.55299 9.0001C2.55299 8.20549 2.70633 7.44573 2.97817 6.73476H5.1738C5.05531 7.44573 4.99258 8.20549 4.99258 9.0001C4.99258 9.79471 5.05531 10.5545 5.1738 11.2654H2.97817C2.70633 10.5545 2.55299 9.79471 2.55299 9.0001ZM3.487 12.311H5.38988C5.65475 13.3495 6.04509 14.2487 6.52603 14.9388C5.25745 14.4021 4.19797 13.475 3.487 12.311Z" fill="white"/>
</svg>
