<svg width="25" height="24" viewBox="0 0 25 24" fill="none" xmlns="http://www.w3.org/2000/svg">
    <g clip-path="url(#clip0_2_9674)">
        <path d="M8.12891 7.62891L6.13437 8.7802L4.98389 4.48389L8.12891 7.62891Z" fill="url(#paint0_radial_2_9674)" />
        <path d="M9.2802 5.63437L8.12891 7.62891L4.98389 4.48389L9.2802 5.63437Z" fill="url(#paint1_radial_2_9674)" />
        <path d="M20.0161 19.5162L16.8711 16.3711L18.8648 15.2198L20.0161 19.5162Z" fill="url(#paint2_radial_2_9674)" />
        <path d="M20.0162 19.5161L15.7198 18.3648L16.8711 16.3711L20.0162 19.5161Z" fill="url(#paint3_radial_2_9674)" />
        <path d="M20.0161 4.48389L16.8784 7.62082L15.7303 5.63194L20.0161 4.48389Z" fill="url(#paint4_radial_2_9674)" />
        <path d="M20.0162 4.48389L18.8681 8.76969L16.8784 7.62082L20.0162 4.48389Z" fill="url(#paint5_radial_2_9674)" />
        <path d="M9.26969 18.3681L4.98389 19.5162L8.12082 16.3784L9.26969 18.3681Z" fill="url(#paint6_radial_2_9674)" />
        <path d="M8.12082 16.3784L4.98389 19.5161L6.13194 15.2303L8.12082 16.3784Z" fill="url(#paint7_radial_2_9674)" />
        <path
            d="M13.0033 15.7114C12.9297 15.717 12.857 15.7219 12.7834 15.7275C12.7559 15.73 12.726 15.73 12.6969 15.73C14.6688 15.6265 16.2357 13.9974 16.2357 12.0012C16.2357 11.9357 16.2357 11.871 16.23 11.8055C16.23 11.7756 16.23 11.7457 16.2276 11.7158C16.2219 11.6422 16.2171 11.5695 16.2114 11.4959C15.8662 7.75583 11.717 5.52359 8.36824 7.45749L8.10791 7.60706L10.7315 3.06335L15.6932 8.02505C18.417 10.7489 16.6868 15.3225 13.0041 15.7106L13.0033 15.7114Z"
            fill="url(#paint8_radial_2_9674)" />
        <path
            d="M13.0033 15.7114C16.6859 15.3233 18.4161 10.7497 15.6923 8.02587L10.7306 3.06417L12.4979 0L17.0417 7.86741C18.978 11.2162 16.7433 15.3661 13.0033 15.7106V15.7114Z"
            fill="url(#paint9_radial_2_9674)" />
        <path
            d="M11.9967 8.28861C12.0703 8.28296 12.143 8.2781 12.2166 8.27244C12.2441 8.27002 12.274 8.27002 12.3031 8.27002C10.3312 8.37351 8.76437 10.0026 8.76437 11.9988C8.76437 12.0643 8.76437 12.1289 8.77003 12.1944C8.77003 12.2243 8.77003 12.2543 8.77245 12.2842C8.77811 12.3577 8.78296 12.4305 8.78862 12.5041C9.13385 16.2441 13.283 18.4764 16.6318 16.5425L16.8921 16.3929L14.2686 20.9366L9.30686 15.9749C6.58306 13.2511 8.31323 8.6775 11.9959 8.28942L11.9967 8.28861Z"
            fill="url(#paint10_radial_2_9674)" />
        <path
            d="M11.9967 8.28857C8.31405 8.67665 6.58388 13.2503 9.30768 15.9741L14.2694 20.9358L12.5012 23.9991L7.95751 16.1317C6.02118 12.783 8.25584 8.63299 11.9959 8.28857H11.9967Z"
            fill="url(#paint11_radial_2_9674)" />
        <path
            d="M16.2114 11.4967C16.217 11.5703 16.2219 11.643 16.2275 11.7166C16.23 11.7441 16.23 11.774 16.23 11.8031C16.1265 9.83122 14.4974 8.26437 12.5012 8.26437C12.4357 8.26437 12.371 8.26437 12.3055 8.27003C12.2756 8.27003 12.2457 8.27003 12.2158 8.27245C12.1422 8.27811 12.0695 8.28296 11.9959 8.28862C8.25583 8.63385 6.02359 12.783 7.95749 16.1318L8.10706 16.3921L3.56335 13.7686L8.52505 8.80686C11.2489 6.08306 15.8225 7.81323 16.2106 11.4959L16.2114 11.4967Z"
            fill="url(#paint12_radial_2_9674)" />
        <path
            d="M16.2114 11.4968C15.8233 7.8141 11.2497 6.08393 8.52587 8.80773L3.56417 13.7694L0.5 12.0021L8.36741 7.45836C11.7162 5.52203 15.8661 7.75669 16.2106 11.4968H16.2114Z"
            fill="url(#paint13_radial_2_9674)" />
        <path
            d="M8.78861 12.5033C8.78296 12.4297 8.7781 12.357 8.77244 12.2834C8.77002 12.2559 8.77002 12.226 8.77002 12.1969C8.87351 14.1688 10.5026 15.7357 12.4988 15.7357C12.5643 15.7357 12.6289 15.7357 12.6944 15.73C12.7243 15.73 12.7543 15.73 12.7842 15.7276C12.8577 15.7219 12.9305 15.7171 13.0041 15.7114C16.7441 15.3662 18.9764 11.217 17.0425 7.86824L16.8929 7.60791L21.4366 10.2315L16.4749 15.1932C13.7511 17.917 9.1775 16.1868 8.78942 12.5041L8.78861 12.5033Z"
            fill="url(#paint14_radial_2_9674)" />
        <path
            d="M8.78857 12.5033C9.17665 16.1859 13.7503 17.9161 16.4741 15.1923L21.4358 10.2306L24.4991 11.9988L16.6317 16.5425C13.283 18.4788 9.13299 16.2441 8.78857 12.5041V12.5033Z"
            fill="url(#paint15_radial_2_9674)" />
    </g>
    <defs>
        <radialGradient id="paint0_radial_2_9674" cx="0" cy="0" r="1" gradientUnits="userSpaceOnUse"
            gradientTransform="translate(4.17055 1.14483) scale(9.49813)">
            <stop stop-color="#FFE2FF" />
            <stop offset="0.03" stop-color="#FAD2FF" />
            <stop offset="0.1" stop-color="#F0B0FF" />
            <stop offset="0.17" stop-color="#E896FF" />
            <stop offset="0.25" stop-color="#E383FF" />
            <stop offset="0.32" stop-color="#E077FF" />
            <stop offset="0.41" stop-color="#DF74FF" />
            <stop offset="0.73" stop-color="#673EC0" />
            <stop offset="1" stop-color="#562495" />
        </radialGradient>
        <radialGradient id="paint1_radial_2_9674" cx="0" cy="0" r="1" gradientUnits="userSpaceOnUse"
            gradientTransform="translate(4.93942 4.4087) scale(8.11157)">
            <stop stop-color="#FFE2FF" />
            <stop offset="0.03" stop-color="#FAD2FF" />
            <stop offset="0.1" stop-color="#F0B0FF" />
            <stop offset="0.17" stop-color="#E896FF" />
            <stop offset="0.25" stop-color="#E383FF" />
            <stop offset="0.32" stop-color="#E077FF" />
            <stop offset="0.41" stop-color="#DF74FF" />
            <stop offset="0.73" stop-color="#673EC0" />
            <stop offset="1" stop-color="#562495" />
        </radialGradient>
        <radialGradient id="paint2_radial_2_9674" cx="0" cy="0" r="1" gradientUnits="userSpaceOnUse"
            gradientTransform="translate(20.0096 19.5202) scale(7.27802 7.27802)">
            <stop stop-color="#FFE2FF" />
            <stop offset="0.03" stop-color="#FAD2FF" />
            <stop offset="0.1" stop-color="#F0B0FF" />
            <stop offset="0.17" stop-color="#E896FF" />
            <stop offset="0.25" stop-color="#E383FF" />
            <stop offset="0.32" stop-color="#E077FF" />
            <stop offset="0.41" stop-color="#DF74FF" />
            <stop offset="0.73" stop-color="#673EC0" />
            <stop offset="1" stop-color="#562495" />
        </radialGradient>
        <radialGradient id="paint3_radial_2_9674" cx="0" cy="0" r="1" gradientUnits="userSpaceOnUse"
            gradientTransform="translate(23.086 22.3054) scale(10.301 10.301)">
            <stop stop-color="#FFE2FF" />
            <stop offset="0.03" stop-color="#FAD2FF" />
            <stop offset="0.1" stop-color="#F0B0FF" />
            <stop offset="0.17" stop-color="#E896FF" />
            <stop offset="0.25" stop-color="#E383FF" />
            <stop offset="0.32" stop-color="#E077FF" />
            <stop offset="0.41" stop-color="#DF74FF" />
            <stop offset="0.73" stop-color="#673EC0" />
            <stop offset="1" stop-color="#562495" />
        </radialGradient>
        <radialGradient id="paint4_radial_2_9674" cx="0" cy="0" r="1" gradientUnits="userSpaceOnUse"
            gradientTransform="translate(20.0097 4.5332) scale(8.26276 8.26276)">
            <stop stop-color="#FFE2FF" />
            <stop offset="0.03" stop-color="#FAD2FF" />
            <stop offset="0.1" stop-color="#F0B0FF" />
            <stop offset="0.17" stop-color="#E896FF" />
            <stop offset="0.25" stop-color="#E383FF" />
            <stop offset="0.32" stop-color="#E077FF" />
            <stop offset="0.41" stop-color="#DF74FF" />
            <stop offset="0.73" stop-color="#673EC0" />
            <stop offset="1" stop-color="#562495" />
        </radialGradient>
        <radialGradient id="paint5_radial_2_9674" cx="0" cy="0" r="1" gradientUnits="userSpaceOnUse"
            gradientTransform="translate(21.0462 2.83295) scale(8.74543)">
            <stop stop-color="#FFE2FF" />
            <stop offset="0.03" stop-color="#FAD2FF" />
            <stop offset="0.1" stop-color="#F0B0FF" />
            <stop offset="0.17" stop-color="#E896FF" />
            <stop offset="0.25" stop-color="#E383FF" />
            <stop offset="0.32" stop-color="#E077FF" />
            <stop offset="0.41" stop-color="#DF74FF" />
            <stop offset="0.73" stop-color="#673EC0" />
            <stop offset="1" stop-color="#562495" />
        </radialGradient>
        <radialGradient id="paint6_radial_2_9674" cx="0" cy="0" r="1" gradientUnits="userSpaceOnUse"
            gradientTransform="translate(2.05716 21.573) scale(10.4336)">
            <stop stop-color="#FFE2FF" />
            <stop offset="0.03" stop-color="#FAD2FF" />
            <stop offset="0.1" stop-color="#F0B0FF" />
            <stop offset="0.17" stop-color="#E896FF" />
            <stop offset="0.25" stop-color="#E383FF" />
            <stop offset="0.32" stop-color="#E077FF" />
            <stop offset="0.41" stop-color="#DF74FF" />
            <stop offset="0.73" stop-color="#673EC0" />
            <stop offset="1" stop-color="#562495" />
        </radialGradient>
        <radialGradient id="paint7_radial_2_9674" cx="0" cy="0" r="1" gradientUnits="userSpaceOnUse"
            gradientTransform="translate(4.93942 19.5202) scale(6.86246 6.86245)">
            <stop stop-color="#FFE2FF" />
            <stop offset="0.03" stop-color="#FAD2FF" />
            <stop offset="0.1" stop-color="#F0B0FF" />
            <stop offset="0.17" stop-color="#E896FF" />
            <stop offset="0.25" stop-color="#E383FF" />
            <stop offset="0.32" stop-color="#E077FF" />
            <stop offset="0.41" stop-color="#DF74FF" />
            <stop offset="0.73" stop-color="#673EC0" />
            <stop offset="1" stop-color="#562495" />
        </radialGradient>
        <radialGradient id="paint8_radial_2_9674" cx="0" cy="0" r="1" gradientUnits="userSpaceOnUse"
            gradientTransform="translate(1.64727 10.554) scale(19.0787)">
            <stop stop-color="#FFE2FF" />
            <stop offset="0.03" stop-color="#FAD2FF" />
            <stop offset="0.1" stop-color="#F0B0FF" />
            <stop offset="0.17" stop-color="#E896FF" />
            <stop offset="0.25" stop-color="#E383FF" />
            <stop offset="0.32" stop-color="#E077FF" />
            <stop offset="0.41" stop-color="#DF74FF" />
            <stop offset="0.73" stop-color="#673EC0" />
            <stop offset="1" stop-color="#562495" />
        </radialGradient>
        <radialGradient id="paint9_radial_2_9674" cx="0" cy="0" r="1" gradientUnits="userSpaceOnUse"
            gradientTransform="translate(12.8222 0.688833) scale(20.5558 20.5558)">
            <stop stop-color="#FFE2FF" />
            <stop offset="0.03" stop-color="#FAD2FF" />
            <stop offset="0.1" stop-color="#F0B0FF" />
            <stop offset="0.17" stop-color="#E896FF" />
            <stop offset="0.25" stop-color="#E383FF" />
            <stop offset="0.32" stop-color="#E077FF" />
            <stop offset="0.41" stop-color="#DF74FF" />
            <stop offset="0.73" stop-color="#673EC0" />
            <stop offset="1" stop-color="#562495" />
        </radialGradient>
        <radialGradient id="paint10_radial_2_9674" cx="0" cy="0" r="1" gradientUnits="userSpaceOnUse"
            gradientTransform="translate(14.4763 20.7822) scale(16.6387)">
            <stop stop-color="#FFE2FF" />
            <stop offset="0.03" stop-color="#FAD2FF" />
            <stop offset="0.1" stop-color="#F0B0FF" />
            <stop offset="0.17" stop-color="#E896FF" />
            <stop offset="0.25" stop-color="#E383FF" />
            <stop offset="0.32" stop-color="#E077FF" />
            <stop offset="0.41" stop-color="#DF74FF" />
            <stop offset="0.73" stop-color="#673EC0" />
            <stop offset="1" stop-color="#562495" />
        </radialGradient>
        <radialGradient id="paint11_radial_2_9674" cx="0" cy="0" r="1" gradientUnits="userSpaceOnUse"
            gradientTransform="translate(13.7414 39.6248) scale(31.8189 31.8189)">
            <stop stop-color="#FFE2FF" />
            <stop offset="0.03" stop-color="#FAD2FF" />
            <stop offset="0.1" stop-color="#F0B0FF" />
            <stop offset="0.17" stop-color="#E896FF" />
            <stop offset="0.25" stop-color="#E383FF" />
            <stop offset="0.32" stop-color="#E077FF" />
            <stop offset="0.41" stop-color="#DF74FF" />
            <stop offset="0.73" stop-color="#673EC0" />
            <stop offset="1" stop-color="#562495" />
        </radialGradient>
        <radialGradient id="paint12_radial_2_9674" cx="0" cy="0" r="1" gradientUnits="userSpaceOnUse"
            gradientTransform="translate(-0.943163 25.1497) scale(22.1583 22.1583)">
            <stop stop-color="#FFE2FF" />
            <stop offset="0.03" stop-color="#FAD2FF" />
            <stop offset="0.1" stop-color="#F0B0FF" />
            <stop offset="0.17" stop-color="#E896FF" />
            <stop offset="0.25" stop-color="#E383FF" />
            <stop offset="0.32" stop-color="#E077FF" />
            <stop offset="0.41" stop-color="#DF74FF" />
            <stop offset="0.73" stop-color="#673EC0" />
            <stop offset="1" stop-color="#562495" />
        </radialGradient>
        <radialGradient id="paint13_radial_2_9674" cx="0" cy="0" r="1" gradientUnits="userSpaceOnUse"
            gradientTransform="translate(8.84442 7.29505) scale(16.3234 16.3234)">
            <stop stop-color="#FFE2FF" />
            <stop offset="0.03" stop-color="#FAD2FF" />
            <stop offset="0.1" stop-color="#F0B0FF" />
            <stop offset="0.17" stop-color="#E896FF" />
            <stop offset="0.25" stop-color="#E383FF" />
            <stop offset="0.32" stop-color="#E077FF" />
            <stop offset="0.41" stop-color="#DF74FF" />
            <stop offset="0.73" stop-color="#673EC0" />
            <stop offset="1" stop-color="#562495" />
        </radialGradient>
        <radialGradient id="paint14_radial_2_9674" cx="0" cy="0" r="1" gradientUnits="userSpaceOnUse"
            gradientTransform="translate(21.1819 10.1635) scale(19.825 19.825)">
            <stop stop-color="#FFE2FF" />
            <stop offset="0.03" stop-color="#FAD2FF" />
            <stop offset="0.1" stop-color="#F0B0FF" />
            <stop offset="0.17" stop-color="#E896FF" />
            <stop offset="0.25" stop-color="#E383FF" />
            <stop offset="0.32" stop-color="#E077FF" />
            <stop offset="0.41" stop-color="#DF74FF" />
            <stop offset="0.73" stop-color="#673EC0" />
            <stop offset="1" stop-color="#562495" />
        </radialGradient>
        <radialGradient id="paint15_radial_2_9674" cx="0" cy="0" r="1" gradientUnits="userSpaceOnUse"
            gradientTransform="translate(19.9861 0.052522) scale(20.6836 20.6836)">
            <stop stop-color="#FFE2FF" />
            <stop offset="0.03" stop-color="#FAD2FF" />
            <stop offset="0.1" stop-color="#F0B0FF" />
            <stop offset="0.17" stop-color="#E896FF" />
            <stop offset="0.25" stop-color="#E383FF" />
            <stop offset="0.32" stop-color="#E077FF" />
            <stop offset="0.41" stop-color="#DF74FF" />
            <stop offset="0.73" stop-color="#673EC0" />
            <stop offset="1" stop-color="#562495" />
        </radialGradient>
        <clipPath id="clip0_2_9674">
            <rect width="24" height="24" fill="white" transform="translate(0.5)" />
        </clipPath>
    </defs>
</svg>