<svg width="16" height="16" viewBox="0 0 16 16" fill="none" xmlns="http://www.w3.org/2000/svg">
<path d="M5.87588 4.21281C5.64704 4.21281 5.45728 4.02305 5.45728 3.79421V2.11978C5.45728 1.89094 5.64704 1.70117 5.87588 1.70117C6.10472 1.70117 6.29449 1.89094 6.29449 2.11978V3.79421C6.29449 4.02305 6.10472 4.21281 5.87588 4.21281Z" fill="#F65B93"/>
<path d="M10.3412 4.21281C10.1124 4.21281 9.92261 4.02305 9.92261 3.79421V2.11978C9.92261 1.89094 10.1124 1.70117 10.3412 1.70117C10.5701 1.70117 10.7598 1.89094 10.7598 2.11978V3.79421C10.7598 4.02305 10.5701 4.21281 10.3412 4.21281Z" fill="#F65B93"/>
<path d="M9.60421 13.7019H5.87582C3.8386 13.7019 2.6665 12.5298 2.6665 10.4926V5.74838C2.6665 3.71116 3.8386 2.53906 5.87582 2.53906H10.341C12.3782 2.53906 13.5503 3.71116 13.5503 5.74838V8.61166C13.5503 8.77352 13.4554 8.91863 13.3159 8.99119C13.1707 9.05817 12.9977 9.04141 12.8749 8.94094C11.9931 8.23768 10.6368 8.2377 9.75492 8.9577C9.15213 9.43213 8.81166 10.141 8.81166 10.9168C8.81166 11.3745 8.93445 11.821 9.17445 12.2061C9.35864 12.5075 9.58748 12.7587 9.85538 12.9484C10.0005 13.0545 10.0675 13.2442 10.0117 13.4173C9.94469 13.5847 9.7884 13.7019 9.60421 13.7019ZM5.87582 3.37628C4.27954 3.37628 3.50372 4.1521 3.50372 5.74838V10.4926C3.50372 12.0889 4.27954 12.8647 5.87582 12.8647H8.60515C8.54934 12.7921 8.49909 12.714 8.45444 12.6359C8.1363 12.1224 7.96886 11.5252 7.96886 10.9112C7.96886 9.87864 8.42654 8.9298 9.23027 8.2991C10.1847 7.52328 11.5968 7.35583 12.7131 7.86932V5.74838C12.7131 4.1521 11.9373 3.37628 10.341 3.37628H5.87582V3.37628Z" fill="#F65B93"/>
<path d="M8.66663 7.56182H5.31778C5.08894 7.56182 4.89917 7.37205 4.89917 7.14322C4.89917 6.91438 5.08894 6.72461 5.31778 6.72461H8.66663C8.89547 6.72461 9.08524 6.91438 9.08524 7.14322C9.08524 7.37205 8.89547 7.56182 8.66663 7.56182Z" fill="#F65B93"/>
<path d="M6.78011 10.3509H5.31778C5.08894 10.3509 4.89917 10.1611 4.89917 9.93228C4.89917 9.70344 5.08894 9.51367 5.31778 9.51367H6.78011C7.00895 9.51367 7.19872 9.70344 7.19872 9.93228C7.19872 10.1611 7.01453 10.3509 6.78011 10.3509Z" fill="#F65B93"/>
<path d="M11.3179 14.2586C10.6034 14.2586 9.92807 14.0353 9.35876 13.6223C9.00155 13.3655 8.69458 13.0307 8.45458 12.6344C8.13643 12.1209 7.96899 11.5237 7.96899 10.9097C7.96899 9.87714 8.42668 8.9283 9.2304 8.2976C10.3913 7.35434 12.222 7.34874 13.3941 8.28084C14.2034 8.91712 14.6667 9.87714 14.6667 10.9097C14.6667 11.5237 14.4993 12.1209 14.1811 12.6344C14.0025 12.9414 13.7737 13.2093 13.5113 13.4269C12.9141 13.9628 12.1327 14.2586 11.3179 14.2586ZM11.3179 8.39806C10.7485 8.39806 10.1904 8.59341 9.74947 8.95062C9.14668 9.42504 8.80621 10.1339 8.80621 10.9097C8.80621 11.3674 8.929 11.8139 9.169 12.199C9.35318 12.5004 9.58202 12.7516 9.84993 12.9414C10.2797 13.2539 10.7876 13.4213 11.3179 13.4213C11.9374 13.4213 12.5067 13.2037 12.9644 12.7962C13.1653 12.6288 13.3272 12.4334 13.4611 12.2046C13.7011 11.8139 13.8295 11.3674 13.8295 10.9097C13.8295 10.1339 13.4834 9.41945 12.8751 8.93945C12.4286 8.58223 11.8927 8.39806 11.3179 8.39806Z" fill="#F65B93"/>
<path d="M11.3179 12.7236C11.089 12.7236 10.8993 12.5339 10.8993 12.305C10.8993 11.7692 10.4583 11.3283 9.92251 11.3283C9.69367 11.3283 9.50391 11.1385 9.50391 10.9097C9.50391 10.6808 9.69367 10.4911 9.92251 10.4911C10.4583 10.4911 10.8993 10.0501 10.8993 9.51431C10.8993 9.28547 11.089 9.0957 11.3179 9.0957C11.5467 9.0957 11.7365 9.28547 11.7365 9.51431C11.7365 10.0501 12.1774 10.4911 12.7132 10.4911C12.9421 10.4911 13.1318 10.6808 13.1318 10.9097C13.1318 11.1385 12.9421 11.3283 12.7132 11.3283C12.1774 11.3283 11.7365 11.7692 11.7365 12.305C11.7365 12.5339 11.5467 12.7236 11.3179 12.7236ZM11.0779 10.9097C11.1616 10.9822 11.2453 11.0604 11.3179 11.1497C11.3904 11.0659 11.4686 10.9822 11.5579 10.9097C11.4741 10.8371 11.3904 10.759 11.3179 10.6697C11.2453 10.759 11.1672 10.8371 11.0779 10.9097Z" fill="#F65B93"/>
</svg>
