<svg width="16" height="16" viewBox="0 0 16 16" fill="none" xmlns="http://www.w3.org/2000/svg">
<path d="M5.77759 4.08058C5.54069 4.08058 5.34424 3.88413 5.34424 3.64723V1.91382C5.34424 1.67692 5.54069 1.48047 5.77759 1.48047C6.01449 1.48047 6.21094 1.67692 6.21094 1.91382V3.64723C6.21094 3.88413 6.01449 4.08058 5.77759 4.08058Z" fill="#8CD9B6"/>
<path d="M10.4001 4.08058C10.1633 4.08058 9.9668 3.88413 9.9668 3.64723V1.91382C9.9668 1.67692 10.1633 1.48047 10.4001 1.48047C10.637 1.48047 10.8335 1.67692 10.8335 1.91382V3.64723C10.8335 3.88413 10.637 4.08058 10.4001 4.08058Z" fill="#8CD9B6"/>
<path d="M9.63742 13.9037H5.77769C3.66871 13.9037 2.45532 12.6903 2.45532 10.5814V5.67003C2.45532 3.56104 3.66871 2.34766 5.77769 2.34766H10.4001C12.5091 2.34766 13.7225 3.56104 13.7225 5.67003V8.63416C13.7225 8.80172 13.6243 8.95195 13.4798 9.02706C13.3296 9.0964 13.1505 9.07905 13.0234 8.97505C12.1104 8.24701 10.7064 8.24703 9.79343 8.9924C9.16941 9.48353 8.81695 10.2173 8.81695 11.0205C8.81695 11.4943 8.94406 11.9565 9.19251 12.3552C9.38319 12.6672 9.62009 12.9273 9.89743 13.1237C10.0477 13.2335 10.117 13.4299 10.0592 13.609C9.98988 13.7824 9.82809 13.9037 9.63742 13.9037ZM5.77769 3.21436C4.12517 3.21436 3.32203 4.01751 3.32203 5.67003V10.5814C3.32203 12.2339 4.12517 13.037 5.77769 13.037H8.60316C8.54538 12.9619 8.49337 12.881 8.44714 12.8001C8.11779 12.2686 7.94446 11.6503 7.94446 11.0147C7.94446 9.94577 8.41826 8.96351 9.2503 8.31059C10.2383 7.50745 11.7002 7.33409 12.8558 7.86567V5.67003C12.8558 4.01751 12.0526 3.21436 10.4001 3.21436H5.77769V3.21436Z" fill="#8CD9B6"/>
<path d="M8.66678 7.54835H5.19995C4.96305 7.54835 4.7666 7.35189 4.7666 7.11499C4.7666 6.87809 4.96305 6.68164 5.19995 6.68164H8.66678C8.90368 6.68164 9.10013 6.87809 9.10013 7.11499C9.10013 7.35189 8.90368 7.54835 8.66678 7.54835Z" fill="#8CD9B6"/>
<path d="M6.7138 10.4351H5.19995C4.96305 10.4351 4.7666 10.2386 4.7666 10.0017C4.7666 9.76481 4.96305 9.56836 5.19995 9.56836H6.7138C6.9507 9.56836 7.14715 9.76481 7.14715 10.0017C7.14715 10.2386 6.95647 10.4351 6.7138 10.4351Z" fill="#8CD9B6"/>
<path d="M11.4112 14.4799C10.6716 14.4799 9.97242 14.2488 9.38306 13.8212C9.01327 13.5554 8.69548 13.2088 8.44702 12.7985C8.11767 12.267 7.94434 11.6487 7.94434 11.0131C7.94434 9.94418 8.41814 8.96192 9.25018 8.309C10.452 7.33251 12.3472 7.32672 13.5606 8.29165C14.3984 8.95034 14.878 9.94418 14.878 11.0131C14.878 11.6487 14.7046 12.267 14.3753 12.7985C14.1904 13.1163 13.9535 13.3937 13.6819 13.619C13.0637 14.1737 12.2548 14.4799 11.4112 14.4799ZM11.4112 8.413C10.8218 8.413 10.244 8.61523 9.78753 8.98502C9.1635 9.47615 8.81104 10.21 8.81104 11.0131C8.81104 11.4869 8.93815 11.9492 9.18661 12.3478C9.37729 12.6599 9.61419 12.9199 9.89153 13.1163C10.3364 13.4399 10.8622 13.6132 11.4112 13.6132C12.0525 13.6132 12.6419 13.3879 13.1157 12.9661C13.3237 12.7928 13.4912 12.5905 13.6299 12.3536C13.8784 11.9492 14.0113 11.4869 14.0113 11.0131C14.0113 10.21 13.653 9.47036 13.0232 8.97345C12.561 8.60366 12.0063 8.413 11.4112 8.413Z" fill="#8CD9B6"/>
<path d="M11.4113 12.8905C11.1744 12.8905 10.978 12.694 10.978 12.4571C10.978 11.9024 10.5215 11.446 9.9668 11.446C9.7299 11.446 9.53345 11.2495 9.53345 11.0126C9.53345 10.7757 9.7299 10.5793 9.9668 10.5793C10.5215 10.5793 10.978 10.1228 10.978 9.56812C10.978 9.33122 11.1744 9.13477 11.4113 9.13477C11.6482 9.13477 11.8447 9.33122 11.8447 9.56812C11.8447 10.1228 12.3011 10.5793 12.8558 10.5793C13.0927 10.5793 13.2892 10.7757 13.2892 11.0126C13.2892 11.2495 13.0927 11.446 12.8558 11.446C12.3011 11.446 11.8447 11.9024 11.8447 12.4571C11.8447 12.694 11.6482 12.8905 11.4113 12.8905ZM11.1629 11.0126C11.2495 11.0877 11.3362 11.1686 11.4113 11.2611C11.4864 11.1744 11.5673 11.0877 11.6598 11.0126C11.5731 10.9375 11.4864 10.8566 11.4113 10.7642C11.3362 10.8566 11.2553 10.9375 11.1629 11.0126Z" fill="#8CD9B6"/>
</svg>
