<svg width="16" height="16" viewBox="0 0 16 16" fill="none" xmlns="http://www.w3.org/2000/svg">
<path d="M5.33331 3.83301C5.05998 3.83301 4.83331 3.60634 4.83331 3.33301V1.33301C4.83331 1.05967 5.05998 0.833008 5.33331 0.833008C5.60665 0.833008 5.83331 1.05967 5.83331 1.33301V3.33301C5.83331 3.60634 5.60665 3.83301 5.33331 3.83301Z" fill="#8CD9B6"/>
<path d="M10.6667 3.83301C10.3934 3.83301 10.1667 3.60634 10.1667 3.33301V1.33301C10.1667 1.05967 10.3934 0.833008 10.6667 0.833008C10.94 0.833008 11.1667 1.05967 11.1667 1.33301V3.33301C11.1667 3.60634 10.94 3.83301 10.6667 3.83301Z" fill="#8CD9B6"/>
<path d="M9.78666 15.1663H5.33333C2.9 15.1663 1.5 13.7663 1.5 11.333V5.66634C1.5 3.23301 2.9 1.83301 5.33333 1.83301H10.6667C13.1 1.83301 14.5 3.23301 14.5 5.66634V9.08634C14.5 9.27968 14.3867 9.45301 14.22 9.53967C14.0467 9.61967 13.84 9.59966 13.6933 9.47966C12.64 8.63966 11.02 8.63967 9.96667 9.49967C9.24668 10.0663 8.84001 10.913 8.84001 11.8397C8.84001 12.3863 8.98667 12.9197 9.27334 13.3797C9.49334 13.7397 9.76667 14.0397 10.0867 14.2664C10.26 14.393 10.34 14.6197 10.2733 14.8263C10.1933 15.0263 10.0067 15.1663 9.78666 15.1663ZM5.33333 2.83301C3.42667 2.83301 2.5 3.75967 2.5 5.66634V11.333C2.5 13.2397 3.42667 14.1663 5.33333 14.1663H8.59334C8.52668 14.0797 8.46666 13.9864 8.41333 13.893C8.03333 13.2797 7.83333 12.5663 7.83333 11.833C7.83333 10.5997 8.38001 9.46635 9.34001 8.71301C10.48 7.78635 12.1667 7.58633 13.5 8.19967V5.66634C13.5 3.75967 12.5733 2.83301 10.6667 2.83301H5.33333Z" fill="#8CD9B6"/>
<path d="M8.66669 7.83301H4.66669C4.39335 7.83301 4.16669 7.60634 4.16669 7.33301C4.16669 7.05967 4.39335 6.83301 4.66669 6.83301H8.66669C8.94002 6.83301 9.16669 7.05967 9.16669 7.33301C9.16669 7.60634 8.94002 7.83301 8.66669 7.83301Z" fill="#8CD9B6"/>
<path d="M6.41335 11.167H4.66669C4.39335 11.167 4.16669 10.9403 4.16669 10.667C4.16669 10.3937 4.39335 10.167 4.66669 10.167H6.41335C6.68668 10.167 6.91335 10.3937 6.91335 10.667C6.91335 10.9403 6.69335 11.167 6.41335 11.167Z" fill="#8CD9B6"/>
<path d="M11.8333 15.8333C10.98 15.8333 10.1733 15.5666 9.49331 15.0733C9.06664 14.7666 8.69998 14.3667 8.41331 13.8933C8.03331 13.28 7.83331 12.5666 7.83331 11.8333C7.83331 10.6 8.37999 9.46665 9.33999 8.71332C10.7267 7.58665 12.9133 7.57997 14.3133 8.6933C15.28 9.4533 15.8333 10.6 15.8333 11.8333C15.8333 12.5666 15.6333 13.28 15.2533 13.8933C15.04 14.26 14.7666 14.58 14.4533 14.84C13.74 15.48 12.8066 15.8333 11.8333 15.8333ZM11.8333 8.83332C11.1533 8.83332 10.4866 9.06664 9.95998 9.49331C9.23998 10.06 8.83331 10.9066 8.83331 11.8333C8.83331 12.38 8.97998 12.9133 9.26664 13.3733C9.48664 13.7333 9.75998 14.0333 10.08 14.26C10.5933 14.6333 11.2 14.8333 11.8333 14.8333C12.5733 14.8333 13.2533 14.5733 13.8 14.0867C14.04 13.8867 14.2333 13.6533 14.3933 13.38C14.68 12.9133 14.8333 12.38 14.8333 11.8333C14.8333 10.9066 14.42 10.0533 13.6933 9.47996C13.16 9.0533 12.52 8.83332 11.8333 8.83332Z" fill="#8CD9B6"/>
<path d="M11.8334 14.0003C11.56 14.0003 11.3334 13.7737 11.3334 13.5003C11.3334 12.8603 10.8067 12.3337 10.1667 12.3337C9.89335 12.3337 9.66669 12.107 9.66669 11.8337C9.66669 11.5603 9.89335 11.3337 10.1667 11.3337C10.8067 11.3337 11.3334 10.807 11.3334 10.167C11.3334 9.89366 11.56 9.66699 11.8334 9.66699C12.1067 9.66699 12.3334 9.89366 12.3334 10.167C12.3334 10.807 12.86 11.3337 13.5 11.3337C13.7734 11.3337 14 11.5603 14 11.8337C14 12.107 13.7734 12.3337 13.5 12.3337C12.86 12.3337 12.3334 12.8603 12.3334 13.5003C12.3334 13.7737 12.1067 14.0003 11.8334 14.0003ZM11.5467 11.8337C11.6467 11.9203 11.7467 12.0137 11.8334 12.1203C11.92 12.0203 12.0133 11.9203 12.12 11.8337C12.02 11.747 11.92 11.6537 11.8334 11.547C11.7467 11.6537 11.6534 11.747 11.5467 11.8337Z" fill="#8CD9B6"/>
</svg>
