<svg width="16" height="16" viewBox="0 0 16 16" fill="none" xmlns="http://www.w3.org/2000/svg">
<path fill-rule="evenodd" clip-rule="evenodd" d="M8.69976 8C8.69976 8.3864 8.38616 8.7 7.99976 8.7C7.61336 8.7 7.29976 8.3864 7.29976 8C7.29976 7.6136 7.61336 7.3 7.99976 7.3C8.38616 7.3 8.69976 7.6136 8.69976 8ZM11.4998 8.7H12.1368C11.84 10.4549 10.4547 11.8403 8.69976 12.1371V11.5C8.69976 11.1136 8.38616 10.8 7.99976 10.8C7.61336 10.8 7.29976 11.1136 7.29976 11.5V12.1371C5.54486 11.8403 4.15955 10.4549 3.86275 8.7H4.49976C4.88616 8.7 5.19976 8.3864 5.19976 8C5.19976 7.6136 4.88616 7.3 4.49976 7.3H3.86275C4.15955 5.5451 5.54486 4.15969 7.29976 3.86289V4.5C7.29976 4.8864 7.61336 5.2 7.99976 5.2C8.38616 5.2 8.69976 4.8864 8.69976 4.5V3.86289C10.4547 4.15969 11.84 5.5451 12.1368 7.3H11.4998C11.1134 7.3 10.7998 7.6136 10.7998 8C10.7998 8.3864 11.1134 8.7 11.4998 8.7ZM14.2998 7.3H13.5515C13.2351 4.7681 11.2317 2.76459 8.69976 2.44819V1.7C8.69976 1.3136 8.38616 1 7.99976 1C7.61336 1 7.29976 1.3136 7.29976 1.7V2.44819C4.76786 2.76459 2.76446 4.7681 2.44806 7.3H1.69976C1.31336 7.3 0.999756 7.6136 0.999756 8C0.999756 8.3864 1.31336 8.7 1.69976 8.7H2.44806C2.76446 11.2319 4.76786 13.2354 7.29976 13.5518V14.3C7.29976 14.6864 7.61336 15 7.99976 15C8.38616 15 8.69976 14.6864 8.69976 14.3V13.5518C11.2317 13.2354 13.2351 11.2319 13.5515 8.7H14.2998C14.6862 8.7 14.9998 8.3864 14.9998 8C14.9998 7.6136 14.6862 7.3 14.2998 7.3Z" fill="#FCFCFD"/>
</svg>
