<svg width="16" height="16" viewBox="0 0 16 16" fill="none" xmlns="http://www.w3.org/2000/svg">
<path d="M7.99992 14.8338C7.45325 14.8338 6.90658 14.6605 6.45325 14.3205L2.97992 11.7205C2.33325 11.2338 1.94659 10.4605 1.94659 9.65383V1.17383H14.0532V9.65383C14.0532 10.4605 13.6666 11.2338 13.0199 11.7205L9.54659 14.3205C9.09326 14.6605 8.54659 14.8338 7.99992 14.8338ZM2.94659 2.16717V9.64717C2.94659 10.1405 3.18658 10.6138 3.57992 10.9138L7.05324 13.5138C7.61324 13.9338 8.39325 13.9338 8.95325 13.5138L12.4266 10.9138C12.8199 10.6138 13.0599 10.1405 13.0599 9.64717V2.16717H2.94659Z" fill="#9191A4"/>
<path d="M14.6666 2.16699H1.33331C1.05998 2.16699 0.833313 1.94033 0.833313 1.66699C0.833313 1.39366 1.05998 1.16699 1.33331 1.16699H14.6666C14.94 1.16699 15.1666 1.39366 15.1666 1.66699C15.1666 1.94033 14.94 2.16699 14.6666 2.16699Z" fill="#9191A4"/>
<path d="M10.6666 5.83301H5.33331C5.05998 5.83301 4.83331 5.60634 4.83331 5.33301C4.83331 5.05967 5.05998 4.83301 5.33331 4.83301H10.6666C10.94 4.83301 11.1666 5.05967 11.1666 5.33301C11.1666 5.60634 10.94 5.83301 10.6666 5.83301Z" fill="#9191A4"/>
<path d="M10.6666 9.16699H5.33331C5.05998 9.16699 4.83331 8.94033 4.83331 8.66699C4.83331 8.39366 5.05998 8.16699 5.33331 8.16699H10.6666C10.94 8.16699 11.1666 8.39366 11.1666 8.66699C11.1666 8.94033 10.94 9.16699 10.6666 9.16699Z" fill="#9191A4"/>
</svg>
