<svg width="24" height="24" viewBox="0 0 24 24" fill="none" xmlns="http://www.w3.org/2000/svg">
<path d="M3 10.875V7.22523C3 6.10731 3 5.54752 3.2178 5.12011C3.4095 4.74379 3.7163 4.43805 4.0926 4.2463C4.5204 4.02832 5.07971 4.02832 6.1998 4.02832H17.7997C18.9199 4.02832 19.4804 4.02832 19.9082 4.2463C20.2845 4.43805 20.5902 4.74379 20.7821 5.12011C21 5.54794 21 6.1084 21 7.22851V18.6994C21 19.7652 21 20.2978 20.7816 20.5716C20.5915 20.8096 20.3035 20.9481 19.999 20.9478C19.6488 20.9473 19.2326 20.6143 18.4004 19.9486L16.8765 18.7294L16.8652 18.7209C16.5475 18.4666 16.3872 18.3384 16.2083 18.247C16.0479 18.1651 15.8767 18.1054 15.7002 18.0691C15.5013 18.0283 15.294 18.0283 14.8779 18.0283H13.125" stroke="#FCFCFD" stroke-width="2" stroke-linecap="round" stroke-linejoin="round"/>
<path d="M5.99999 21C3.7924 21 2 19.2076 2 16.9999C2 14.7924 3.7924 13 5.99999 13C8.2076 13 10 14.7924 10 16.9999C10 19.2076 8.2076 21 5.99999 21ZM5.99999 14.519C4.63291 14.519 3.51899 15.6328 3.51899 16.9999C3.51899 18.367 4.63291 19.481 5.99999 19.481C7.36708 19.481 8.48101 18.367 8.48101 16.9999C8.48101 15.6328 7.36708 14.519 5.99999 14.519Z" fill="#FCFCFD"/>
<path d="M2.04859 22.5036C1.78207 22.5036 1.51553 22.4053 1.30511 22.1949C0.898297 21.7882 0.898297 21.1148 1.30511 20.7079L2.70792 19.3052C3.11473 18.8983 3.78807 18.8983 4.19488 19.3052C4.60171 19.712 4.60171 20.3853 4.19488 20.7923L2.79209 22.1949C2.58167 22.4053 2.31513 22.5036 2.04859 22.5036Z" fill="#FCFCFD"/>
</svg>
