<svg width="16" height="16" viewBox="0 0 16 16" fill="none" xmlns="http://www.w3.org/2000/svg">
<path d="M2 7.25V4.81682C2 4.07154 2 3.69835 2.1452 3.41341C2.273 3.16253 2.47753 2.9587 2.7284 2.83087C3.0136 2.68555 3.38647 2.68555 4.1332 2.68555H11.8665C12.6133 2.68555 12.9869 2.68555 13.2721 2.83087C13.523 2.9587 13.7268 3.16253 13.8547 3.41341C14 3.69863 14 4.07227 14 4.81901V12.4663C14 13.1768 14 13.5319 13.8544 13.7144C13.7277 13.8731 13.5357 13.9654 13.3327 13.9652C13.0992 13.9649 12.8217 13.7429 12.2669 13.2991L11.251 12.4863L11.2435 12.4806C11.0317 12.3111 10.9248 12.2256 10.8055 12.1647C10.6986 12.1101 10.5845 12.0703 10.4668 12.0461C10.3342 12.0189 10.196 12.0189 9.91862 12.0189H8.75" stroke="#9191A4" stroke-width="1.2" stroke-linecap="round" stroke-linejoin="round"/>
<path d="M4.03177 14.2667C2.57844 14.2667 1.39844 13.0867 1.39844 11.6333C1.39844 10.18 2.57844 9 4.03177 9C5.48511 9 6.66511 10.18 6.66511 11.6333C6.66511 13.0867 5.48511 14.2667 4.03177 14.2667ZM4.03177 10C3.13177 10 2.39844 10.7333 2.39844 11.6333C2.39844 12.5333 3.13177 13.2667 4.03177 13.2667C4.93177 13.2667 5.66511 12.5333 5.66511 11.6333C5.66511 10.7333 4.93177 10 4.03177 10Z" fill="#9191A4"/>
<path d="M1.49833 14.667C1.37167 14.667 1.245 14.6203 1.145 14.5203C0.951667 14.327 0.951667 14.007 1.145 13.8136L1.81167 13.147C2.005 12.9536 2.325 12.9536 2.51833 13.147C2.71167 13.3403 2.71167 13.6603 2.51833 13.8537L1.85167 14.5203C1.75167 14.6203 1.625 14.667 1.49833 14.667Z" fill="#9191A4"/>
</svg>
