<svg width="24" height="24" viewBox="0 0 24 24" fill="none" xmlns="http://www.w3.org/2000/svg">
<path d="M16 7.28571L8 10.7143M8 13.2857L16 16.7143M8 12C8 13.6569 6.65685 15 5 15C3.34315 15 2 13.6569 2 12C2 10.3431 3.34315 9 5 9C6.65685 9 8 10.3431 8 12ZM22 6C22 7.65685 20.6569 9 19 9C17.3431 9 16 7.65685 16 6C16 4.34315 17.3431 3 19 3C20.6569 3 22 4.34315 22 6ZM22 18C22 19.6569 20.6569 21 19 21C17.3431 21 16 19.6569 16 18C16 16.3431 17.3431 15 19 15C20.6569 15 22 16.3431 22 18Z" stroke="#FCFCFD" stroke-width="1.5" stroke-linecap="round"/>
</svg>
