<svg width="16" height="16" viewBox="0 0 16 16" fill="none" xmlns="http://www.w3.org/2000/svg">
<path fill-rule="evenodd" clip-rule="evenodd" d="M8.00011 5.73242C6.74784 5.73242 5.73267 6.74759 5.73267 7.99986C5.73267 9.25216 6.74784 10.2673 8.00011 10.2673C9.2524 10.2673 10.2675 9.25216 10.2675 7.99986C10.2675 6.74759 9.2524 5.73242 8.00011 5.73242ZM6.63964 7.99986C6.63964 7.24852 7.24877 6.6394 8.00011 6.6394C8.75145 6.6394 9.36057 7.24852 9.36057 7.99986C9.36057 8.7512 8.75145 9.36033 8.00011 9.36033C7.24877 9.36033 6.63964 8.7512 6.63964 7.99986Z" fill="#9191A4"/>
<path fill-rule="evenodd" clip-rule="evenodd" d="M7.98468 1.5C7.71597 1.49999 7.49159 1.49999 7.30741 1.51256C7.11568 1.52564 6.93458 1.55384 6.759 1.62657C6.35157 1.79534 6.02787 2.11904 5.8591 2.52647C5.77125 2.73858 5.74745 2.96212 5.73836 3.20509C5.73106 3.40041 5.63249 3.56338 5.48702 3.64736C5.34155 3.73135 5.15113 3.73523 4.97833 3.6439C4.76337 3.53028 4.55787 3.43911 4.33025 3.40914C3.89302 3.35158 3.45084 3.47007 3.10097 3.73853C2.95019 3.85423 2.83521 3.99697 2.72802 4.15647C2.62504 4.3097 2.51287 4.504 2.3785 4.73674L2.36323 4.76319C2.22885 4.99592 2.11668 5.19021 2.03547 5.356C1.95093 5.52859 1.8848 5.69954 1.85999 5.88796C1.80243 6.32519 1.92092 6.76737 2.18938 7.11727C2.32912 7.29933 2.51079 7.43175 2.71664 7.56108C2.88218 7.66508 2.97405 7.83197 2.97403 8C2.97403 8.16797 2.88216 8.33486 2.71664 8.43886C2.51077 8.56819 2.32908 8.70061 2.18932 8.88273C1.92086 9.23258 1.80238 9.67476 1.85993 10.112C1.88474 10.3004 1.95087 10.4714 2.03541 10.644C2.11662 10.8098 2.22879 11.004 2.36317 11.2368L2.37844 11.2632C2.51281 11.496 2.62498 11.6902 2.72796 11.8435C2.83515 12.003 2.95013 12.1457 3.10091 12.2614C3.45078 12.5299 3.89296 12.6484 4.33019 12.5908C4.5578 12.5608 4.76328 12.4697 4.97823 12.3561C5.15106 12.2647 5.3415 12.2686 5.48699 12.3526C5.63248 12.4366 5.73106 12.5996 5.73836 12.7949C5.74745 13.0379 5.77125 13.2614 5.8591 13.4735C6.02787 13.881 6.35157 14.2047 6.759 14.3734C6.93458 14.4462 7.11568 14.4744 7.30741 14.4874C7.49159 14.5 7.71597 14.5 7.98468 14.5H8.01521C8.28398 14.5 8.50831 14.5 8.69255 14.4874C8.88428 14.4744 9.06537 14.4462 9.24096 14.3734C9.64838 14.2047 9.97211 13.881 10.1409 13.4735C10.2287 13.2614 10.2525 13.0379 10.2616 12.7949C10.2689 12.5996 10.3674 12.4366 10.5129 12.3526C10.6584 12.2686 10.8489 12.2647 11.0217 12.356C11.2366 12.4696 11.4421 12.5608 11.6697 12.5908C12.107 12.6483 12.5491 12.5299 12.899 12.2614C13.0498 12.1457 13.1647 12.003 13.2719 11.8435C13.3749 11.6902 13.4871 11.496 13.6214 11.2632L13.6367 11.2368C13.7711 11.004 13.8833 10.8097 13.9645 10.6439C14.049 10.4713 14.1151 10.3004 14.14 10.112C14.1975 9.6747 14.079 9.23252 13.8106 8.88267C13.6708 8.70055 13.4891 8.56819 13.2833 8.43886C13.1177 8.33486 13.0259 8.16797 13.0259 7.99994C13.0259 7.83197 13.1177 7.66514 13.2832 7.56114C13.4892 7.43181 13.6709 7.29945 13.8106 7.11727C14.0791 6.76741 14.1976 6.32523 14.14 5.888C14.1152 5.69958 14.0491 5.52863 13.9646 5.35604C13.8834 5.19026 13.7712 4.99599 13.6368 4.76327L13.6215 4.73681C13.4871 4.50406 13.375 4.30974 13.272 4.15652C13.1648 3.99701 13.0498 3.85427 12.899 3.73857C12.5492 3.47011 12.107 3.35162 11.6697 3.40919C11.4421 3.43915 11.2367 3.53031 11.0217 3.64392C10.8489 3.73527 10.6584 3.73138 10.513 3.64738C10.3675 3.56339 10.2689 3.4004 10.2616 3.20506C10.2525 2.9621 10.2287 2.73857 10.1409 2.52647C9.97211 2.11904 9.64838 1.79534 9.24096 1.62657C9.06537 1.55384 8.88428 1.52564 8.69255 1.51256C8.50831 1.49999 8.28398 1.49999 8.01521 1.5H7.98468ZM7.10606 2.46451C7.15274 2.44518 7.22361 2.42737 7.36915 2.41743C7.5188 2.40723 7.71204 2.40698 7.99998 2.40698C8.28791 2.40698 8.48116 2.40723 8.63075 2.41743C8.77635 2.42737 8.84722 2.44518 8.89383 2.46451C9.07904 2.54122 9.22621 2.68836 9.30288 2.87356C9.32713 2.93197 9.34714 3.02304 9.35524 3.23896C9.37314 3.71807 9.62044 4.17938 10.0595 4.43285C10.4985 4.68632 11.0217 4.66982 11.4455 4.44579C11.6365 4.34482 11.7255 4.31666 11.7881 4.30841C11.9869 4.28224 12.1879 4.3361 12.3469 4.45812C12.387 4.48886 12.4378 4.54133 12.5192 4.66242C12.6029 4.7869 12.6997 4.95413 12.8437 5.20349C12.9876 5.45285 13.0841 5.62032 13.15 5.75501C13.2142 5.88603 13.2342 5.95632 13.2408 6.00639C13.267 6.20512 13.2131 6.40612 13.0911 6.56515C13.0526 6.61532 12.9838 6.67823 12.8007 6.79318C12.3948 7.04828 12.119 7.49306 12.1189 7.99994C12.1189 8.50688 12.3948 8.95172 12.8007 9.20682C12.9837 9.32177 13.0525 9.38465 13.091 9.43484C13.213 9.59386 13.2669 9.79485 13.2407 9.9936C13.2341 10.0437 13.2141 10.1139 13.15 10.2449C13.084 10.3796 12.9876 10.5471 12.8436 10.7965C12.6996 11.0458 12.6028 11.2131 12.5191 11.3376C12.4378 11.4586 12.3869 11.5111 12.3468 11.5418C12.1878 11.6639 11.9868 11.7177 11.7881 11.6916C11.7254 11.6833 11.6365 11.6551 11.4455 11.5542C11.0216 11.3301 10.4984 11.3137 10.0594 11.5671C9.62044 11.8206 9.37314 12.2819 9.35524 12.761C9.34714 12.9769 9.32713 13.068 9.30288 13.1265C9.22621 13.3116 9.07904 13.4588 8.89383 13.5355C8.84722 13.5548 8.77635 13.5726 8.63075 13.5826C8.48116 13.5928 8.28791 13.593 7.99998 13.593C7.71204 13.593 7.5188 13.5928 7.36915 13.5826C7.22361 13.5726 7.15274 13.5548 7.10606 13.5355C6.92092 13.4588 6.77375 13.3116 6.69704 13.1265C6.67284 13.068 6.65278 12.9769 6.64471 12.761C6.62679 12.282 6.37949 11.8206 5.94048 11.5671C5.50146 11.3137 4.97831 11.3302 4.55442 11.5542C4.36339 11.6552 4.2745 11.6834 4.21181 11.6916C4.01307 11.7178 3.81207 11.6639 3.65304 11.5419C3.61298 11.5111 3.56211 11.4587 3.48073 11.3376C3.39708 11.2131 3.30024 11.0459 3.15627 10.7965C3.0123 10.5472 2.9159 10.3797 2.84992 10.245C2.78574 10.114 2.76574 10.0437 2.75915 9.9936C2.73299 9.79485 2.78685 9.59386 2.90888 9.43484C2.94737 9.38471 3.01621 9.32177 3.19917 9.20682C3.60512 8.95178 3.88099 8.50694 3.88101 8.00006C3.88104 7.49306 3.60516 7.04822 3.19918 6.79312C3.01626 6.67817 2.94742 6.61527 2.90893 6.56511C2.78691 6.40608 2.73305 6.20509 2.75921 6.00634C2.7658 5.95628 2.78581 5.88599 2.84998 5.75497C2.91596 5.62028 3.01236 5.45281 3.15633 5.20345C3.3003 4.95409 3.39713 4.78686 3.48079 4.66238C3.56217 4.54129 3.61304 4.48882 3.6531 4.45809C3.81213 4.33606 4.01313 4.2822 4.21186 4.30836C4.27456 4.31662 4.36346 4.34478 4.55451 4.44576C4.97837 4.66979 5.5015 4.68628 5.9405 4.43283C6.3795 4.17938 6.62679 3.71808 6.64471 3.23899C6.65278 3.02305 6.67284 2.93198 6.69704 2.87356C6.77375 2.68836 6.92092 2.54122 7.10606 2.46451Z" fill="#9191A4"/>
</svg>
