<svg width="16" height="16" viewBox="0 0 16 16" fill="none" xmlns="http://www.w3.org/2000/svg">
<path d="M7.56932 6.23572L8.09965 5.70539V5.70539L7.56932 6.23572ZM9.76458 8.43098L9.23425 8.96131L9.76458 8.43098ZM10.236 8.43098L10.7663 8.96132L10.7663 8.96131L10.236 8.43098ZM14.5306 5.19702C14.8235 4.90412 14.8235 4.42925 14.5306 4.13636C14.2377 3.84346 13.7628 3.84346 13.47 4.13636L14.5306 5.19702ZM3.46995 8.80302C3.17706 9.09592 3.17706 9.57079 3.46995 9.86368C3.76285 10.1566 4.23772 10.1566 4.53062 9.86368L3.46995 8.80302ZM7.09792 6.23572L7.62825 6.76605L7.62825 6.76605L7.09792 6.23572ZM11.3336 3.25002C10.9194 3.25002 10.5836 3.58581 10.5836 4.00002C10.5836 4.41423 10.9194 4.75002 11.3336 4.75002V3.25002ZM13.917 7.33335C13.917 7.74757 14.2527 8.08335 14.667 8.08335C15.0812 8.08335 15.417 7.74757 15.417 7.33335H13.917ZM14.667 14.0834C15.0812 14.0834 15.417 13.7476 15.417 13.3334C15.417 12.9191 15.0812 12.5834 14.667 12.5834V14.0834ZM2.08362 2.66669C2.08362 2.25247 1.74783 1.91669 1.33362 1.91669C0.919405 1.91669 0.583618 2.25247 0.583618 2.66669H2.08362ZM2.78964 13.0427L3.13014 12.3744H3.13014L2.78964 13.0427ZM1.62427 11.8773L0.956013 12.2178L1.62427 11.8773ZM7.03899 6.76605L9.23425 8.96131L10.2949 7.90065L8.09965 5.70539L7.03899 6.76605ZM10.7663 8.96131L14.5306 5.19702L13.47 4.13636L9.70566 7.90065L10.7663 8.96131ZM4.53062 9.86368L7.62825 6.76605L6.56759 5.70539L3.46995 8.80302L4.53062 9.86368ZM9.23425 8.96131C9.65732 9.38439 10.3433 9.38438 10.7663 8.96132L9.70566 7.90065C9.86837 7.73794 10.1322 7.73793 10.2949 7.90065L9.23425 8.96131ZM8.09965 5.70539C7.67658 5.28233 6.99066 5.28232 6.56759 5.70539L7.62825 6.76605C7.46553 6.92877 7.20171 6.92877 7.03899 6.76605L8.09965 5.70539ZM11.3336 4.75002H14.3336V3.25002H11.3336V4.75002ZM13.917 4.33335V7.33335H15.417V4.33335H13.917ZM14.3336 4.75002C14.1035 4.75002 13.917 4.56347 13.917 4.33335H15.417C15.417 3.73504 14.9319 3.25002 14.3336 3.25002V4.75002ZM14.667 12.5834H5.60028V14.0834H14.667V12.5834ZM2.08362 9.06669V2.66669H0.583618V9.06669H2.08362ZM5.60028 12.5834C4.84117 12.5834 4.31694 12.5828 3.9099 12.5495C3.51161 12.517 3.292 12.4569 3.13014 12.3744L2.44915 13.711C2.85772 13.9191 3.2967 14.0044 3.78775 14.0445C4.27005 14.0839 4.86592 14.0834 5.60028 14.0834V12.5834ZM0.583618 9.06669C0.583618 9.80105 0.583035 10.3969 0.62244 10.8792C0.662561 11.3703 0.747837 11.8093 0.956013 12.2178L2.29252 11.5368C2.21005 11.375 2.15 11.1554 2.11746 10.7571C2.0842 10.35 2.08362 9.8258 2.08362 9.06669H0.583618ZM3.13014 12.3744C2.76949 12.1907 2.47628 11.8975 2.29252 11.5368L0.956013 12.2178C1.28358 12.8607 1.80626 13.3834 2.44915 13.711L3.13014 12.3744Z" fill="#9191A4"/>
</svg>
