<svg width="24" height="24" viewBox="0 0 24 24" fill="none" xmlns="http://www.w3.org/2000/svg">
<path d="M11.3536 9.35355L11.8839 8.82322V8.82322L11.3536 9.35355ZM14.6464 12.6464L14.1161 13.1768L14.6464 12.6464ZM15.3536 12.6464L15.8839 13.1768L15.8839 13.1768L15.3536 12.6464ZM21.5303 7.53033C21.8232 7.23744 21.8232 6.76256 21.5303 6.46967C21.2374 6.17678 20.7626 6.17678 20.4697 6.46967L21.5303 7.53033ZM5.46967 13.4697C5.17678 13.7626 5.17678 14.2374 5.46967 14.5303C5.76256 14.8232 6.23744 14.8232 6.53033 14.5303L5.46967 13.4697ZM10.6464 9.35355L11.1768 9.88388L11.1768 9.88388L10.6464 9.35355ZM17 5.25C16.5858 5.25 16.25 5.58579 16.25 6C16.25 6.41421 16.5858 6.75 17 6.75V5.25ZM21.25 11C21.25 11.4142 21.5858 11.75 22 11.75C22.4142 11.75 22.75 11.4142 22.75 11H21.25ZM22 20.75C22.4142 20.75 22.75 20.4142 22.75 20C22.75 19.5858 22.4142 19.25 22 19.25V20.75ZM2.75 4C2.75 3.58579 2.41421 3.25 2 3.25C1.58579 3.25 1.25 3.58579 1.25 4H2.75ZM4.18404 19.564L4.52453 18.8958L4.18404 19.564ZM2.43597 17.816L1.76772 18.1565L2.43597 17.816ZM11.3536 9.35355L10.8232 9.88388L14.1161 13.1768L14.6464 12.6464L15.1768 12.1161L11.8839 8.82322L11.3536 9.35355ZM15.3536 12.6464L15.8839 13.1768L21.5303 7.53033L21 7L20.4697 6.46967L14.8232 12.1161L15.3536 12.6464ZM6 14L6.53033 14.5303L11.1768 9.88388L10.6464 9.35355L10.1161 8.82322L5.46967 13.4697L6 14ZM14.6464 12.6464L14.1161 13.1768C14.6043 13.6649 15.3957 13.6649 15.8839 13.1768L15.3536 12.6464L14.8232 12.1161C14.9209 12.0185 15.0791 12.0185 15.1768 12.1161L14.6464 12.6464ZM11.3536 9.35355L11.8839 8.82322C11.3957 8.33507 10.6043 8.33507 10.1161 8.82322L10.6464 9.35355L11.1768 9.88388C11.0791 9.98151 10.9209 9.98151 10.8232 9.88388L11.3536 9.35355ZM17 6V6.75H21.5V6V5.25H17V6ZM22 6.5H21.25V11H22H22.75V6.5H22ZM21.5 6V6.75C21.3619 6.75 21.25 6.63807 21.25 6.5H22H22.75C22.75 5.80964 22.1904 5.25 21.5 5.25V6ZM22 20V19.25H8.4V20V20.75H22V20ZM2 13.6H2.75V4H2H1.25V13.6H2ZM8.4 20V19.25C7.26752 19.25 6.46326 19.2494 5.83388 19.198C5.21325 19.1473 4.829 19.0509 4.52453 18.8958L4.18404 19.564L3.84354 20.2323C4.39472 20.5131 4.99834 20.6347 5.71173 20.693C6.41637 20.7506 7.29227 20.75 8.4 20.75V20ZM2 13.6H1.25C1.25 14.7077 1.24942 15.5836 1.30699 16.2883C1.36527 17.0017 1.48688 17.6053 1.76772 18.1565L2.43597 17.816L3.10423 17.4755C2.94909 17.171 2.85271 16.7867 2.80201 16.1661C2.75058 15.5367 2.75 14.7325 2.75 13.6H2ZM4.18404 19.564L4.52453 18.8958C3.913 18.5842 3.41582 18.087 3.10423 17.4755L2.43597 17.816L1.76772 18.1565C2.22312 19.0502 2.94978 19.7769 3.84355 20.2323L4.18404 19.564Z" fill="#FCFCFD"/>
</svg>
