<svg width="16" height="16" viewBox="0 0 16 16" fill="none" xmlns="http://www.w3.org/2000/svg">
<g clip-path="url(#clip0_1457_415839)">
<path d="M5.86655 12.7667C4.41322 12.7667 3.23322 11.5867 3.23322 10.1333C3.23322 8.68001 4.41322 7.5 5.86655 7.5C7.31989 7.5 8.49988 8.68001 8.49988 10.1333C8.49988 11.5867 7.31989 12.7667 5.86655 12.7667ZM5.86655 8.5C4.96655 8.5 4.23322 9.23334 4.23322 10.1333C4.23322 11.0333 4.96655 11.7667 5.86655 11.7667C6.76655 11.7667 7.49988 11.0333 7.49988 10.1333C7.49988 9.23334 6.76655 8.5 5.86655 8.5Z" fill="#9191A4"/>
<path d="M3.33311 13.167C3.20644 13.167 3.07978 13.1203 2.97978 13.0203C2.78644 12.827 2.78644 12.507 2.97978 12.3136L3.64644 11.647C3.83978 11.4536 4.15978 11.4536 4.35311 11.647C4.54644 11.8403 4.54644 12.1603 4.35311 12.3537L3.68644 13.0203C3.58644 13.1203 3.45978 13.167 3.33311 13.167Z" fill="#9191A4"/>
<path d="M13.611 2L9.14304 7.08175L14.0002 14H10.4266L8.6304 11.4419C8.78851 11.1543 8.90082 10.8379 8.95747 10.5028L10.9254 13.2574H12.5518L5.06664 2.78095H3.44064L6.48261 7.03877C6.32532 7.01326 6.16396 7 5.99951 7C5.84207 7 5.68745 7.01216 5.53652 7.03558L2.00024 2H5.57384L8.67144 6.41151L12.5526 2H13.611Z" fill="#9191A4"/>
</g>
<defs>
<clipPath id="clip0_1457_415839">
<rect width="12" height="12" fill="white" transform="translate(2.00006 2)"/>
</clipPath>
</defs>
</svg>
