<svg width="24" height="24" viewBox="0 0 24 24" fill="none" xmlns="http://www.w3.org/2000/svg">
<g clip-path="url(#clip0_5_1061)">
<path d="M8.7998 19.15C6.6198 19.15 4.84979 17.38 4.84979 15.2C4.84979 13.02 6.6198 11.25 8.7998 11.25C10.9798 11.25 12.7498 13.02 12.7498 15.2C12.7498 17.38 10.9798 19.15 8.7998 19.15ZM8.7998 12.75C7.4498 12.75 6.34979 13.85 6.34979 15.2C6.34979 16.55 7.4498 17.65 8.7998 17.65C10.1498 17.65 11.2498 16.55 11.2498 15.2C11.2498 13.85 10.1498 12.75 8.7998 12.75Z" fill="#FCFCFD"/>
<path d="M4.99963 19.7505C4.80963 19.7505 4.61964 19.6805 4.46964 19.5305C4.17964 19.2405 4.17964 18.7604 4.46964 18.4704L5.46964 17.4704C5.75964 17.1804 6.23963 17.1804 6.52963 17.4704C6.81963 17.7604 6.81963 18.2405 6.52963 18.5305L5.52963 19.5305C5.37963 19.6805 5.18963 19.7505 4.99963 19.7505Z" fill="#FCFCFD"/>
<path d="M20.4165 3.00006L13.7145 10.6227L21.0003 21H15.6399L12.9455 17.1629C13.1827 16.7314 13.3512 16.257 13.4362 15.7543L16.3881 19.8861H18.8277L7.59991 4.17148H5.1609L9.72385 10.5582C9.48793 10.52 9.24587 10.5001 8.99921 10.5001C8.76305 10.5001 8.53111 10.5183 8.30472 10.5534L3.00031 3.00006H8.3607L13.0071 9.61732L18.8289 3.00006H20.4165Z" fill="#FCFCFD"/>
</g>
<defs>
<clipPath id="clip0_5_1061">
<rect width="18" height="18" fill="white" transform="translate(3.00009 3)"/>
</clipPath>
</defs>
</svg>
