<svg width="16" height="16" viewBox="0 0 16 16" fill="none" xmlns="http://www.w3.org/2000/svg">
<path fill-rule="evenodd" clip-rule="evenodd" d="M10.2016 8.75012C10.3127 8.5835 10.4997 8.48342 10.7 8.48342C10.9002 8.48342 11.0872 8.5835 11.1983 8.75012L11.2833 8.87758C11.3581 8.98981 11.4946 9.044 11.626 9.01368L11.7098 8.99433C11.9141 8.94719 12.1283 9.00861 12.2765 9.15686C12.4248 9.30512 12.4862 9.51929 12.4391 9.72358L12.4197 9.8074C12.3894 9.93883 12.4436 10.0753 12.5558 10.1501L12.6833 10.2351C12.8499 10.3462 12.95 10.5332 12.95 10.7334C12.95 10.9337 12.8499 11.1207 12.6833 11.2317L12.5558 11.3167C12.4436 11.3915 12.3894 11.528 12.4197 11.6594L12.4391 11.7433C12.4862 11.9476 12.4248 12.1617 12.2765 12.31C12.1283 12.4582 11.9141 12.5197 11.7098 12.4725L11.626 12.4532C11.4946 12.4228 11.3581 12.477 11.2833 12.5893L11.1983 12.7167C11.0872 12.8833 10.9002 12.9834 10.7 12.9834C10.4997 12.9834 10.3127 12.8833 10.2016 12.7167L10.1167 12.5893C10.0418 12.477 9.90536 12.4228 9.77394 12.4532L9.69012 12.4725C9.48582 12.5197 9.27165 12.4582 9.1234 12.31C8.97515 12.1617 8.91372 11.9476 8.96087 11.7433L8.98021 11.6594C9.01054 11.528 8.95635 11.3915 8.84412 11.3167L8.71666 11.2317C8.55004 11.1207 8.44996 10.9337 8.44996 10.7334C8.44996 10.5332 8.55004 10.3462 8.71666 10.2351L8.84412 10.1501C8.95635 10.0753 9.01054 9.93883 8.98021 9.8074L8.96087 9.72358C8.91372 9.51929 8.97515 9.30512 9.1234 9.15686C9.27165 9.00861 9.48582 8.94719 9.69012 8.99433L9.77394 9.01368C9.90536 9.044 10.0418 8.98981 10.1167 8.87758L10.2016 8.75012ZM9.91246 10.7334C9.91246 10.2985 10.265 9.94592 10.7 9.94592C11.1349 9.94592 11.4875 10.2985 11.4875 10.7334C11.4875 11.1683 11.1349 11.5209 10.7 11.5209C10.265 11.5209 9.91246 11.1683 9.91246 10.7334Z" fill="#9191A4"/>
<path fill-rule="evenodd" clip-rule="evenodd" d="M3.49896 3.23313C2.66978 3.23313 1.99983 3.90546 1.99983 4.73313L1.99983 11.0331C1.99983 12.0272 2.80572 12.8331 3.79983 12.8331L7.77533 12.8331C7.35039 12.2422 7.10012 11.5172 7.10012 10.7337C7.10012 8.74549 8.7119 7.13372 10.7001 7.13372C12.1757 7.13372 13.4439 8.02148 13.9998 9.29203L13.9998 7.43313C13.9998 6.54465 13.517 5.76892 12.7995 5.354C12.7997 5.34707 12.7998 5.34012 12.7998 5.33313C12.7998 4.17333 11.8596 3.23313 10.6998 3.23313L3.49896 3.23313ZM10.6998 4.43313C11.0917 4.43313 11.4251 4.68357 11.5486 5.03313L3.49983 5.03313C3.33415 5.03313 3.19983 4.89882 3.19983 4.73313C3.19983 4.56669 3.33403 4.43313 3.49896 4.43313L10.6998 4.43313Z" fill="#9191A4"/>
</svg>
