<svg width="16" height="16" viewBox="0 0 16 16" fill="none" xmlns="http://www.w3.org/2000/svg">
<path d="M11.3333 15.167H7.99998C7.72665 15.167 7.49998 14.9403 7.49998 14.667C7.49998 14.3937 7.72665 14.167 7.99998 14.167H11.3333C13.0533 14.167 14.1666 13.0537 14.1666 11.3337V8.00033C14.1666 6.47366 13.22 5.33366 11.8066 5.16699H11.3333H4.66665C4.47998 5.16699 4.41331 5.16699 4.29331 5.20699C4.25998 5.22032 4.22665 5.22701 4.19331 5.22701C2.71998 5.40034 1.83331 6.43366 1.83331 8.00033V8.66699C1.83331 8.94033 1.60665 9.16699 1.33331 9.16699C1.05998 9.16699 0.833313 8.94033 0.833313 8.66699V8.00033C0.833313 5.96033 2.08665 4.48698 4.02665 4.24032C4.27998 4.16698 4.46665 4.16699 4.66665 4.16699H11.8666C13.8666 4.40033 15.1666 5.94033 15.1666 8.00033V11.3337C15.1666 13.627 13.6266 15.167 11.3333 15.167Z" fill="#9191A4"/>
<path d="M4.1332 5.23298C3.99987 5.23298 3.8732 5.17967 3.77987 5.08634C3.64654 4.953 3.59987 4.75299 3.65987 4.57299C3.76654 4.25966 3.95987 4.06635 4.17987 3.84635L6.30654 1.65299C7.40654 0.552987 9.25987 0.55298 10.3532 1.64631L11.5532 2.84635C11.9932 3.28635 12.2732 3.89298 12.3599 4.60632C12.3799 4.74632 12.3332 4.893 12.2399 4.99967C12.1465 5.10633 12.0065 5.16633 11.8665 5.16633H4.66654C4.47987 5.16633 4.41321 5.16633 4.29321 5.20633C4.23987 5.22633 4.18654 5.23298 4.1332 5.23298ZM5.25987 4.16633H11.2332C11.1532 3.953 11.0265 3.73968 10.8465 3.55301L9.64654 2.35302C8.93321 1.63969 7.7332 1.63969 7.01987 2.35302L5.25987 4.16633Z" fill="#9191A4"/>
<path d="M14.6666 11.4997H12.6666C11.6533 11.4997 10.8333 10.6797 10.8333 9.66634C10.8333 8.65301 11.6533 7.83301 12.6666 7.83301H14.6666C14.94 7.83301 15.1666 8.05967 15.1666 8.33301C15.1666 8.60634 14.94 8.83301 14.6666 8.83301H12.6666C12.2066 8.83301 11.8333 9.20634 11.8333 9.66634C11.8333 10.1263 12.2066 10.4997 12.6666 10.4997H14.6666C14.94 10.4997 15.1666 10.7263 15.1666 10.9997C15.1666 11.273 14.94 11.4997 14.6666 11.4997Z" fill="#9191A4"/>
<path d="M3.86673 14.7667C2.4134 14.7667 1.2334 13.5867 1.2334 12.1333C1.2334 10.68 2.4134 9.5 3.86673 9.5C5.32007 9.5 6.50007 10.68 6.50007 12.1333C6.50007 13.5867 5.32007 14.7667 3.86673 14.7667ZM3.86673 10.5C2.96673 10.5 2.2334 11.2333 2.2334 12.1333C2.2334 13.0333 2.96673 13.7667 3.86673 13.7667C4.76673 13.7667 5.50007 13.0333 5.50007 12.1333C5.50007 11.2333 4.76673 10.5 3.86673 10.5Z" fill="#9191A4"/>
<path d="M1.33329 15.167C1.20663 15.167 1.07996 15.1203 0.979961 15.0203C0.786628 14.827 0.786628 14.507 0.979961 14.3136L1.64663 13.647C1.83996 13.4536 2.15996 13.4536 2.35329 13.647C2.54663 13.8403 2.54663 14.1603 2.35329 14.3537L1.68663 15.0203C1.58663 15.1203 1.45996 15.167 1.33329 15.167Z" fill="#9191A4"/>
</svg>
