<svg width="16" height="16" viewBox="0 0 16 16" fill="none" xmlns="http://www.w3.org/2000/svg">
<path fill-rule="evenodd" clip-rule="evenodd" d="M8.68686 3.91699C9.01318 2.76252 10.0742 1.91699 11.3334 1.91699C12.8526 1.91699 14.0834 3.14778 14.0834 4.66699C14.0834 6.18621 12.8526 7.41699 11.3334 7.41699C10.0742 7.41699 9.01318 6.57147 8.68686 5.41699H2.66675C2.25253 5.41699 1.91675 5.08121 1.91675 4.66699C1.91675 4.25278 2.25253 3.91699 2.66675 3.91699H8.68686ZM11.3334 3.41699C10.6426 3.41699 10.0834 3.97621 10.0834 4.66699C10.0834 5.35778 10.6426 5.91699 11.3334 5.91699C12.0242 5.91699 12.5834 5.35778 12.5834 4.66699C12.5834 3.97621 12.0242 3.41699 11.3334 3.41699ZM3.35352 10.5837C3.67985 9.42919 4.74089 8.58366 6.00008 8.58366C7.25927 8.58366 8.32032 9.42919 8.64664 10.5837H13.3334C13.7476 10.5837 14.0834 10.9194 14.0834 11.3337C14.0834 11.7479 13.7476 12.0837 13.3334 12.0837H8.64664C8.32032 13.2381 7.25927 14.0837 6.00008 14.0837C4.74089 14.0837 3.67985 13.2381 3.35352 12.0837H2.66675C2.25253 12.0837 1.91675 11.7479 1.91675 11.3337C1.91675 10.9194 2.25253 10.5837 2.66675 10.5837H3.35352ZM6.00008 10.0837C5.3093 10.0837 4.75008 10.6429 4.75008 11.3337C4.75008 12.0244 5.3093 12.5837 6.00008 12.5837C6.69087 12.5837 7.25008 12.0244 7.25008 11.3337C7.25008 10.6429 6.69087 10.0837 6.00008 10.0837Z" fill="#DF74FF"/>
</svg>
