<svg width="20" height="20" viewBox="0 0 20 20" fill="none" xmlns="http://www.w3.org/2000/svg">
<path d="M15.8333 6.66634C16.2754 6.66634 16.6993 6.49075 17.0118 6.17819C17.3244 5.86563 17.5 5.4417 17.5 4.99967C17.5 4.55765 17.3244 4.13372 17.0118 3.82116C16.6993 3.5086 16.2754 3.33301 15.8333 3.33301H4.16667C3.72464 3.33301 3.30072 3.5086 2.98816 3.82116C2.67559 4.13372 2.5 4.55765 2.5 4.99967C2.5 5.4417 2.67559 5.86563 2.98816 6.17819C3.30072 6.49075 3.72464 6.66634 4.16667 6.66634M15.8333 6.66634H4.16667M15.8333 6.66634V14.9997C15.8333 15.4417 15.6577 15.8656 15.3452 16.1782C15.0326 16.4907 14.6087 16.6663 14.1667 16.6663H5.83333C5.39131 16.6663 4.96738 16.4907 4.65482 16.1782C4.34226 15.8656 4.16667 15.4417 4.16667 14.9997V6.66634M8.33333 9.99967H11.6667" stroke="#9191A4" stroke-width="1.25" stroke-linecap="round" stroke-linejoin="round"/>
</svg>
