<svg width="20" height="20" viewBox="0 0 20 20" fill="none" xmlns="http://www.w3.org/2000/svg">
<path d="M15.8333 6.66667C16.2754 6.66667 16.6993 6.49107 17.0118 6.17851C17.3244 5.86595 17.5 5.44203 17.5 5C17.5 4.55797 17.3244 4.13405 17.0118 3.82149C16.6993 3.50893 16.2754 3.33333 15.8333 3.33333H4.16667C3.72464 3.33333 3.30072 3.50893 2.98816 3.82149C2.67559 4.13405 2.5 4.55797 2.5 5C2.5 5.44203 2.67559 5.86595 2.98816 6.17851C3.30072 6.49107 3.72464 6.66667 4.16667 6.66667M15.8333 6.66667H4.16667M15.8333 6.66667V15C15.8333 15.442 15.6577 15.866 15.3452 16.1785C15.0326 16.4911 14.6087 16.6667 14.1667 16.6667H5.83333C5.39131 16.6667 4.96738 16.4911 4.65482 16.1785C4.34226 15.866 4.16667 15.442 4.16667 15V6.66667M8.33333 10H11.6667" stroke="#DF74FF" stroke-width="1.25" stroke-linecap="round" stroke-linejoin="round"/>
</svg>
