<svg width="16" height="16" viewBox="0 0 16 16" fill="none" xmlns="http://www.w3.org/2000/svg">
<path d="M2.21648 10.1753L7.44799 4.82835C7.60673 4.66479 7.78954 4.58301 7.99639 4.58301C8.10222 4.58301 8.20084 4.60466 8.29224 4.64795C8.38845 4.68644 8.47264 4.74657 8.5448 4.82835L13.7835 10.1753C13.9278 10.3148 14 10.488 14 10.6949C14 10.8247 13.9663 10.945 13.899 11.0556C13.8364 11.1663 13.7498 11.2553 13.6392 11.3226C13.5334 11.3852 13.4107 11.4164 13.2712 11.4164C13.0595 11.4164 12.8863 11.3443 12.7517 11.2L7.65003 5.97567H8.34997L3.24113 11.2C3.10643 11.3443 2.93566 11.4164 2.7288 11.4164C2.5893 11.4164 2.46422 11.3852 2.35358 11.3226C2.24775 11.2553 2.16115 11.1663 2.09381 11.0556C2.03127 10.945 2 10.8247 2 10.6949C2 10.589 2.01924 10.4952 2.05773 10.4134C2.09621 10.3268 2.14913 10.2475 2.21648 10.1753Z" fill="#8d93b7"/>
</svg>
