<svg viewBox="0 0 20 21" fill="none" xmlns="http://www.w3.org/2000/svg">
<path fill-rule="evenodd" clip-rule="evenodd" d="M13.5774 4.91076C13.9028 4.58533 14.4305 4.58533 14.7559 4.91076L18.0892 8.2441C18.3276 8.48243 18.3989 8.84086 18.2699 9.15226C18.1409 9.46365 17.837 9.66669 17.5 9.66669H5.83332C5.37308 9.66669 4.99998 9.29359 4.99998 8.83335C4.99998 8.37312 5.37308 8.00002 5.83332 8.00002H15.4881L13.5774 6.08928C13.252 5.76384 13.252 5.2362 13.5774 4.91076ZM1.73008 11.8478C1.85907 11.5364 2.16293 11.3334 2.49998 11.3334H14.1667C14.6269 11.3334 15 11.7064 15 12.1667C15 12.6269 14.6269 13 14.1667 13H4.51183L6.42257 14.9108C6.74801 15.2362 6.74801 15.7638 6.42257 16.0893C6.09714 16.4147 5.5695 16.4147 5.24406 16.0893L1.91073 12.7559C1.6724 12.5176 1.6011 12.1592 1.73008 11.8478Z" fill="#DF74FF"/>
</svg>
