<svg viewBox="0 0 16 16" fill="none" xmlns="http://www.w3.org/2000/svg">
<path fill-rule="evenodd" clip-rule="evenodd" d="M8.00006 2.66667C7.82325 2.66667 7.65368 2.73691 7.52866 2.86193C7.40363 2.98695 7.3334 3.15652 7.3334 3.33333C7.3334 3.59113 7.18476 3.82582 6.95171 3.93602C6.29548 4.24632 5.73605 4.72935 5.33339 5.33333C4.93352 5.93315 4.70322 6.6298 4.66673 7.34957V9.33333C4.66673 9.36011 4.66511 9.38686 4.6619 9.41345C4.6084 9.85544 4.467 10.2814 4.24687 10.6667H11.7533C11.5331 10.2814 11.3917 9.85544 11.3382 9.41345C11.335 9.38686 11.3334 9.36011 11.3334 9.33333V7.34957C11.2969 6.6298 11.0666 5.93315 10.6667 5.33333C10.2641 4.72935 9.70465 4.24632 9.04841 3.93602C8.81536 3.82582 8.66673 3.59113 8.66673 3.33333C8.66673 3.15652 8.59649 2.98695 8.47147 2.86193C8.34644 2.73691 8.17687 2.66667 8.00006 2.66667ZM9.3334 12H6.66673C6.66673 12.3536 6.8072 12.6928 7.05725 12.9428C7.3073 13.1929 7.64644 13.3333 8.00006 13.3333C8.35368 13.3333 8.69282 13.1929 8.94287 12.9428C9.19292 12.6928 9.3334 12.3536 9.3334 12ZM5.33339 12C5.33339 12.7072 5.61435 13.3855 6.11444 13.8856C6.61454 14.3857 7.29282 14.6667 8.00006 14.6667C8.70731 14.6667 9.38558 14.3857 9.88568 13.8856C10.3858 13.3855 10.6667 12.7072 10.6667 12H13.3334C13.6362 12 13.9009 11.796 13.9781 11.5032C14.0552 11.2104 13.9254 10.9024 13.6619 10.7532C13.3894 10.5989 13.157 10.3828 12.9833 10.1223C12.8165 9.87211 12.7084 9.58768 12.6667 9.29023V7.33333C12.6667 7.32291 12.6665 7.31249 12.666 7.30208C12.6206 6.33528 12.313 5.39905 11.7761 4.59373C11.3092 3.89327 10.684 3.31483 9.9534 2.90381C9.87202 2.53373 9.68641 2.19125 9.41427 1.91912C9.0392 1.54405 8.53049 1.33333 8.00006 1.33333C7.46963 1.33333 6.96092 1.54405 6.58585 1.91912C6.31372 2.19125 6.12811 2.53373 6.04672 2.90381C5.31608 3.31483 4.69097 3.89327 4.22399 4.59373C3.68712 5.39905 3.37951 6.33528 3.33413 7.30208C3.33364 7.31249 3.33339 7.32291 3.33339 7.33333V9.29023C3.29174 9.58769 3.1836 9.87211 3.01682 10.1223C2.84313 10.3828 2.61069 10.5989 2.33823 10.7532C2.07476 10.9024 1.94492 11.2104 2.02206 11.5032C2.0992 11.796 2.36396 12 2.66673 12H5.33339Z" fill="#FCFCFD"/>
</svg>
