<svg viewBox="0 0 17 16" fill="none" xmlns="http://www.w3.org/2000/svg">
<path d="M6.8125 3.3418C7.2703 3.38735 7.70118 3.58976 8.0293 3.91797L8.02832 3.91895L11.835 7.72461L11.9863 7.8916C12.3177 8.29605 12.5009 8.80458 12.501 9.33203C12.501 9.85968 12.3179 10.3689 11.9863 10.7734L11.835 10.9395L9.44043 13.334C9.01411 13.7602 8.43587 14 7.83301 14C7.30556 13.9999 6.79703 13.8167 6.39258 13.4854L6.22559 13.334L2.41992 9.52734L2.41895 9.52832C2.09073 9.20021 1.88832 8.76933 1.84277 8.31152L1.83301 8.11426V5.33203C1.83309 4.80172 2.04395 4.29296 2.41895 3.91797C2.79394 3.54297 3.30269 3.33212 3.83301 3.33203H6.61523L6.8125 3.3418ZM10.0283 3.52734C10.2562 3.29944 10.6084 3.27128 10.8672 3.44238L10.9717 3.52734L14.0332 6.58887L14.165 6.72852C14.8094 7.44018 15.1689 8.36746 15.1689 9.33203L15.1641 9.52441C15.1197 10.4196 14.7667 11.2721 14.165 11.9365L14.0332 12.0762L12.9717 13.1367L12.8672 13.2227C12.6084 13.3937 12.2562 13.3646 12.0283 13.1367C11.7684 12.8764 11.7682 12.4546 12.0283 12.1943L13.0898 11.1328L13.2588 10.9463C13.5771 10.5578 13.7736 10.0837 13.8232 9.58398L13.8359 9.33203C13.8359 8.6568 13.5673 8.00876 13.0898 7.53125L10.0283 4.4707L9.94336 4.36621C9.77225 4.10741 9.80041 3.75525 10.0283 3.52734ZM5.48926 5.75C4.93966 5.75 4.49316 6.19856 4.49316 6.75098C4.49356 7.30306 4.9399 7.75 5.48926 7.75H5.49902L5.69824 7.72949C6.1517 7.63644 6.49282 7.23417 6.49316 6.75098C6.49316 6.26742 6.15198 5.86357 5.69824 5.77051L5.49902 5.75H5.48926Z" fill="#080811"/>
</svg>
