<svg width="16" height="16" viewBox="0 0 16 16" fill="none" xmlns="http://www.w3.org/2000/svg">
<path fill-rule="evenodd" clip-rule="evenodd" d="M10.7421 10.7411H10.7692C11.8511 10.7411 12.6693 10.5008 13.2145 9.95561C13.7597 9.41042 14 8.59222 14 7.51034V5.22979C14 4.14791 13.7597 3.32971 13.2145 2.78452C12.6693 2.23933 11.8511 1.99902 10.7692 1.99902H8.48869C7.40681 1.99902 6.5886 2.23933 6.04341 2.78452C5.49822 3.32971 5.25792 4.14791 5.25792 5.22979V5.25694H5.23077C4.14889 5.25694 3.33068 5.49725 2.78549 6.04244C2.2403 6.58763 2 7.40583 2 8.48771V10.7683C2 11.8501 2.2403 12.6683 2.78549 13.2135C3.33068 13.7587 4.14889 13.999 5.23077 13.999H7.51131C8.59319 13.999 9.4114 13.7587 9.95659 13.2135C10.5018 12.6683 10.7421 11.8501 10.7421 10.7683V10.7411ZM5.23077 6.39721C4.39877 6.39721 3.8929 6.54012 3.58804 6.84498C3.28318 7.14984 3.14027 7.65571 3.14027 8.48771V10.7683C3.14027 11.6003 3.28318 12.1061 3.58804 12.411C3.8929 12.7158 4.39877 12.8588 5.23077 12.8588H7.51131C8.34332 12.8588 8.84919 12.7158 9.15405 12.411C9.45891 12.1061 9.60181 11.6003 9.60181 10.7683L9.60181 8.48771C9.60181 7.65571 9.45891 7.14984 9.15405 6.84498C8.84919 6.54012 8.34332 6.39721 7.51131 6.39721H5.23077ZM10.7692 9.60083H10.7421V8.48771C10.7421 7.40583 10.5018 6.58763 9.95659 6.04244C9.4114 5.49725 8.59319 5.25694 7.51131 5.25694H6.39819V5.22979C6.39819 4.39779 6.54109 3.89192 6.84595 3.58706C7.15081 3.2822 7.65669 3.13929 8.48869 3.13929H10.7692C11.6012 3.13929 12.1071 3.2822 12.412 3.58706C12.7168 3.89192 12.8597 4.39779 12.8597 5.22979V7.51034C12.8597 8.34234 12.7168 8.84821 12.412 9.15307C12.1071 9.45793 11.6012 9.60083 10.7692 9.60083Z" fill="#080811"/>
</svg>
