<svg width="16" height="16" viewBox="0 0 16 16" fill="none" xmlns="http://www.w3.org/2000/svg">
<path d="M4.72818 8.83473L2.01812 7.93694C2.01812 7.93694 1.69423 7.80334 1.79852 7.50037C1.81999 7.4379 1.8633 7.38474 1.99285 7.29338C2.59333 6.86782 13.1072 3.02554 13.1072 3.02554C13.1072 3.02554 13.4041 2.92383 13.5792 2.99148C13.6225 3.00511 13.6614 3.0302 13.6921 3.06417C13.7227 3.09814 13.744 3.13978 13.7536 3.18483C13.7725 3.2644 13.7804 3.34626 13.7771 3.42805C13.7763 3.4988 13.7678 3.56438 13.7615 3.66722C13.6974 4.71771 11.7811 12.5579 11.7811 12.5579C11.7811 12.5579 11.6665 13.0167 11.2557 13.0324C11.1548 13.0357 11.0542 13.0183 10.96 12.9813C10.8658 12.9442 10.7799 12.8883 10.7074 12.8167C9.90133 12.1117 7.1152 10.2079 6.49954 9.78925C6.48565 9.77963 6.47396 9.76709 6.46524 9.75249C6.45653 9.73788 6.45099 9.72154 6.44902 9.70457C6.44041 9.66045 6.4876 9.60578 6.4876 9.60578C6.4876 9.60578 11.339 5.22127 11.4681 4.761C11.4781 4.72534 11.4403 4.70774 11.3896 4.72336C11.0674 4.84389 5.48162 8.43043 4.86514 8.82626C4.82076 8.83991 4.77386 8.84281 4.72818 8.83473Z" fill="#080811"/>
</svg>
