<svg width="20" height="20" viewBox="0 0 20 20" fill="none" xmlns="http://www.w3.org/2000/svg">
<rect width="20" height="20" rx="4" fill="#17171F"/>
<path d="M9.51344 3.34077C7.92974 3.48691 6.56674 4.0834 5.4334 5.13026C4.50287 5.98921 3.76321 7.27466 3.4918 8.50345C3.36356 9.07906 3.33075 9.37433 3.33075 10.0036C3.33075 11.1012 3.53952 12.0019 4.01374 12.9563C4.6848 14.3014 5.69288 15.3095 7.03798 15.9805C7.99834 16.4577 8.90203 16.6665 10.0055 16.6665C11.5147 16.6665 12.8091 16.2311 14.0468 15.3035C14.3689 15.0649 14.9684 14.4774 15.2159 14.1612C17.0174 11.8707 17.1575 8.75696 15.5649 6.33518C15.2935 5.91763 15.0907 5.67307 14.691 5.27342C13.674 4.25937 12.3975 3.61515 10.9749 3.40042C10.6677 3.3527 9.77888 3.31691 9.51344 3.34077ZM10.5126 4.30709C11.5833 4.40849 12.5526 4.78429 13.4294 5.43447L13.6949 5.62833L9.65958 9.66363L5.62428 13.6989L5.49305 13.5289C4.76532 12.6044 4.36567 11.5277 4.27918 10.2721C4.25532 9.93205 4.30304 9.29679 4.38655 8.8852C4.95919 6.025 7.62254 4.03568 10.5126 4.30709ZM14.7358 6.81238C15.3412 7.70712 15.6663 8.71222 15.7051 9.80977C15.7916 12.0735 14.5091 14.1821 12.4512 15.1663C10.8973 15.909 9.07203 15.903 7.50623 15.1514C7.15728 14.9844 6.51306 14.5728 6.38183 14.4326L6.31025 14.3551L10.3336 10.3287L14.36 6.30536L14.4435 6.40079C14.4882 6.45448 14.6195 6.63939 14.7358 6.81238Z" fill="#F65B93"/>
<path d="M9.424 5.52985C8.68733 5.72073 8.0968 6.2695 7.83136 7.01214C7.74487 7.26267 7.7389 7.29548 7.7389 7.73688C7.7389 8.17829 7.74487 8.2111 7.83136 8.46163C7.94767 8.78374 8.0789 9.00742 8.2847 9.23111L8.43978 9.40111L8.22505 9.52041C7.48837 9.92603 6.91275 10.5673 6.59064 11.3487C6.48626 11.5992 6.3431 12.1271 6.35801 12.2136C6.36398 12.2553 7.08872 11.5515 9.18242 9.45479L11.9979 6.63933L11.9293 6.526C11.6251 6.03687 11.0733 5.64318 10.5066 5.51792C10.2084 5.4523 9.71032 5.45827 9.424 5.52985Z" fill="#F65B93"/>
<path d="M9.54622 11.8049L7.29742 14.0537L7.41374 14.1044C7.65234 14.2088 7.94761 14.2983 8.26971 14.3699C8.88112 14.5041 9.09586 14.522 10.0055 14.522C10.951 14.522 11.2403 14.4921 11.8785 14.3311C12.5436 14.1611 12.9522 13.9613 13.2713 13.6421C13.5905 13.326 13.7068 13.0069 13.674 12.5535C13.5994 11.5783 13.2564 10.8207 12.5884 10.1526C12.314 9.88123 11.8964 9.55614 11.8189 9.55614C11.8069 9.55614 10.7839 10.5672 9.54622 11.8049Z" fill="#F65B93"/>
</svg>
