<svg width="16" height="16" viewBox="0 0 16 16" fill="none" xmlns="http://www.w3.org/2000/svg">
<path fill-rule="evenodd" clip-rule="evenodd" d="M2.9992 2.66699C2.07789 2.66699 1.3335 3.41402 1.3335 4.33366V11.3337C1.3335 12.4382 2.22893 13.3337 3.3335 13.3337H12.0002C13.4729 13.3337 14.6668 12.1398 14.6668 10.667V7.33366C14.6668 6.34645 14.1304 5.48454 13.3331 5.02352C13.3334 5.01582 13.3335 5.00809 13.3335 5.00033C13.3335 3.71166 12.2888 2.66699 11.0002 2.66699H2.9992ZM11.0002 4.00033C11.4356 4.00033 11.806 4.27859 11.9433 4.66699H3.00016C2.81607 4.66699 2.66683 4.51775 2.66683 4.33366C2.66683 4.14873 2.81594 4.00033 2.9992 4.00033H11.0002ZM11 8C10.4477 8 10 8.44772 10 9C10 9.55228 10.4477 10 11 10C11.5523 10 12 9.55228 12 9C12 8.44772 11.5523 8 11 8Z" fill="#080811"/>
</svg>
