<svg width="16" height="16" viewBox="0 0 16 16" fill="none" xmlns="http://www.w3.org/2000/svg">
<path d="M8.00049 1.76855C8.16081 1.76859 8.3069 1.78563 8.41943 1.8125L8.521 1.84277L12.1069 3.18555L3.83838 11.4531L3.45264 11.166C3.31458 11.0613 3.16317 10.8728 3.04541 10.6367C2.92722 10.3996 2.86679 10.1629 2.8667 9.9873V4.59375C2.8667 4.33841 2.96634 4.04005 3.15186 3.77148C3.33739 3.50292 3.58071 3.30423 3.81787 3.21387L3.81689 3.21289L7.479 1.8418L7.47998 1.84277C7.59751 1.79955 7.78647 1.76855 8.00049 1.76855Z" fill="#8d93b7" stroke="#8d93b7"/>
<path d="M12.8469 5.86035C12.9502 5.75706 13.1327 5.82957 13.1331 5.97949V9.98633C13.1331 10.1619 13.0735 10.3986 12.9553 10.6357C12.8666 10.8136 12.7584 10.9648 12.6516 11.0732L12.5452 11.167L8.88403 13.9033C8.65764 14.0696 8.33963 14.1669 8.00024 14.167C7.70331 14.167 7.4225 14.0927 7.20532 13.9629L7.11548 13.9033L5.94556 13.0322L5.94263 13.0303L5.91724 13.0068C5.87189 12.9539 5.86435 12.8722 5.90356 12.8096L5.927 12.7803L12.8469 5.86035Z" fill="#8d93b7" stroke="#8d93b7"/>
<path d="M14.5133 1.48691C14.3133 1.28691 13.9867 1.28691 13.7867 1.48691L1.48667 13.7936C1.28667 13.9936 1.28667 14.3202 1.48667 14.5202C1.58667 14.6136 1.71334 14.6669 1.84667 14.6669C1.98 14.6669 2.10667 14.6136 2.20667 14.5136L14.5133 2.20691C14.72 2.00691 14.72 1.68691 14.5133 1.48691Z" fill="#8d93b7"/>
</svg>
