<svg width="15" height="14" viewBox="0 0 15 14" fill="none" xmlns="http://www.w3.org/2000/svg">
<g clip-path="url(#clip0_0_1198)">
<path fill-rule="evenodd" clip-rule="evenodd" d="M9.69799 1.66003C9.54544 1.64981 9.39443 1.69586 9.27354 1.78948C9.15265 1.88309 9.07027 2.01777 9.04199 2.16803L8.94199 2.69803H6.05799L5.95799 2.16803C5.92971 2.01777 5.84733 1.88309 5.72645 1.78948C5.60556 1.69586 5.45455 1.64981 5.30199 1.66003C4.34399 1.72503 3.71199 1.82603 3.30799 1.91603C3.15573 1.94824 3.00547 1.98931 2.85799 2.03903C2.80243 2.05762 2.74771 2.07864 2.69399 2.10203L2.67899 2.10903L2.67299 2.11203L2.66999 2.11403H2.66799L2.94699 2.67403L2.66699 2.11503C2.56914 2.16292 2.48617 2.23656 2.42699 2.32803C1.91299 3.09803 1.43699 4.36303 1.08899 5.71803C0.736993 7.08703 0.498993 8.62003 0.498993 9.96103C0.498993 10.084 0.535993 10.205 0.603993 10.307C1.00099 10.904 2.20799 11.999 4.18899 12.395C4.41899 12.441 4.65399 12.355 4.79899 12.173L6.16299 10.469C7.04718 10.6249 7.95181 10.6249 8.83599 10.469L10.2 12.173C10.2719 12.2619 10.3667 12.3295 10.4742 12.3686C10.5817 12.4078 10.6977 12.4169 10.81 12.395C12.791 11.999 13.998 10.904 14.396 10.307C14.4635 10.2046 14.4997 10.0847 14.5 9.96203C14.5 8.62203 14.263 7.08803 13.912 5.71903C13.564 4.36403 13.088 3.09903 12.574 2.32903C12.5148 2.23756 12.4318 2.16392 12.334 2.11603L12.331 2.11503L12.328 2.11303L12.321 2.11003L12.306 2.10303C12.2536 2.07731 12.1991 2.05623 12.143 2.04003C11.9955 1.99031 11.8453 1.94924 11.693 1.91703C11.288 1.82703 10.656 1.72603 9.69799 1.66103M2.29799 6.03003C2.60399 4.83703 2.99199 3.81503 3.35899 3.19303C3.41499 3.17703 3.48899 3.15836 3.58099 3.13703C3.99402 3.04933 4.41219 2.98787 4.83299 2.95303L4.92299 3.43903C4.97899 3.73403 5.23699 3.94903 5.53799 3.94903H9.46199C9.76199 3.94903 10.02 3.73403 10.076 3.43903L10.166 2.95303C10.762 3.01003 11.163 3.08003 11.419 3.13703C11.5117 3.1577 11.5857 3.17636 11.641 3.19303C12.007 3.81503 12.395 4.83703 12.701 6.03003C13.014 7.25203 13.225 8.59003 13.248 9.75303C12.942 10.107 12.175 10.753 10.93 11.086L10.142 10.101C10.547 9.93403 10.894 9.72903 11.13 9.49303C11.188 9.43499 11.2341 9.36608 11.2655 9.29024C11.2969 9.2144 11.3131 9.13312 11.3131 9.05103C11.3131 8.96894 11.2969 8.88766 11.2655 8.81182C11.2341 8.73598 11.188 8.66707 11.13 8.60903C11.0719 8.55099 11.003 8.50494 10.9272 8.47353C10.8514 8.44212 10.7701 8.42595 10.688 8.42595C10.6059 8.42595 10.5246 8.44212 10.4488 8.47353C10.3729 8.50494 10.304 8.55099 10.246 8.60903C10.091 8.76403 9.64399 9.00703 8.94299 9.17203C7.99354 9.39176 7.00645 9.39176 6.05699 9.17203C5.35499 9.00703 4.90899 8.76403 4.75399 8.60903C4.63677 8.4918 4.47778 8.42595 4.31199 8.42595C4.14621 8.42595 3.98722 8.4918 3.86999 8.60903C3.75277 8.72626 3.68691 8.88525 3.68691 9.05103C3.68691 9.13312 3.70308 9.2144 3.73449 9.29024C3.76591 9.36608 3.81195 9.43499 3.86999 9.49303C4.10599 9.72903 4.45299 9.93403 4.85799 10.101L4.06999 11.086C2.82399 10.754 2.05799 10.107 1.75099 9.75303C1.77399 8.59003 1.98499 7.25203 2.29899 6.03003M5.15799 5.32003C4.86214 5.32003 4.57841 5.43756 4.36922 5.64675C4.16002 5.85595 4.04249 6.13968 4.04249 6.43553C4.04249 6.73138 4.16002 7.01511 4.36922 7.22431C4.57841 7.4335 4.86214 7.55103 5.15799 7.55103C5.45371 7.55103 5.73731 7.43356 5.94642 7.22445C6.15552 7.01535 6.27299 6.73175 6.27299 6.43603C6.27299 6.14031 6.15552 5.85671 5.94642 5.64761C5.73731 5.4385 5.45371 5.32003 5.15799 5.32003ZM9.57199 5.32103C9.27614 5.32103 8.99241 5.43856 8.78322 5.64775C8.57402 5.85695 8.45649 6.14068 8.45649 6.43653C8.45649 6.73238 8.57402 7.01611 8.78322 7.22531C8.99241 7.4345 9.27614 7.55203 9.57199 7.55203C9.86771 7.55203 10.1513 7.43456 10.3604 7.22545C10.5695 7.01635 10.687 6.73275 10.687 6.43703C10.687 6.14131 10.5695 5.85771 10.3604 5.64861C10.1513 5.4395 9.86771 5.32103 9.57199 5.32103Z" fill="#5764F0"/>
</g>
<defs>
<clipPath id="clip0_0_1198">
<rect width="14" height="14" fill="white" transform="translate(0.5)"/>
</clipPath>
</defs>
</svg>
