<svg width="19" height="18" viewBox="0 0 19 18" fill="none" xmlns="http://www.w3.org/2000/svg">
<path fill-rule="evenodd" clip-rule="evenodd" d="M11.8577 16.4999H6.71499C5.86245 16.4999 5.04483 16.1613 4.44199 15.5584C3.83916 14.9556 3.50049 14.138 3.50049 13.2854V4.71444C3.50049 3.8619 3.83916 3.04428 4.44199 2.44144C5.04483 1.83861 5.86245 1.49994 6.71499 1.49994H9.72099C10.3566 1.50008 10.9706 1.73086 11.449 2.14944L14.1752 4.53444C14.457 4.78085 14.6828 5.08467 14.8375 5.42552C14.9923 5.76637 15.0723 6.13637 15.0722 6.51069V13.2854C15.0722 13.7076 14.9891 14.1256 14.8275 14.5156C14.666 14.9056 14.4292 15.2599 14.1307 15.5584C13.8322 15.8569 13.4779 16.0937 13.0879 16.2552C12.6979 16.4168 12.2799 16.4999 11.8577 16.4999ZM11.8577 14.9999H6.71499C6.48984 14.9999 6.26689 14.9556 6.05888 14.8694C5.85087 14.7833 5.66186 14.657 5.50265 14.4978C5.34345 14.3386 5.21716 14.1496 5.131 13.9415C5.04484 13.7335 5.00049 13.5106 5.00049 13.2854V4.71444C5.00049 4.25973 5.18112 3.82364 5.50265 3.5021C5.82418 3.18057 6.26027 2.99994 6.71499 2.99994H9.72099C9.99328 3.00005 10.2563 3.09891 10.4612 3.27819L13.1875 5.66319C13.3084 5.76882 13.4053 5.89911 13.4716 6.04528C13.538 6.19146 13.5723 6.35015 13.5722 6.51069V13.2854C13.5722 13.5106 13.5279 13.7335 13.4417 13.9415C13.3556 14.1496 13.2293 14.3386 13.0701 14.4978C12.9109 14.657 12.7219 14.7833 12.5139 14.8694C12.3058 14.9556 12.0829 14.9999 11.8577 14.9999Z" fill="#2D7AEC"/>
<path fill-rule="evenodd" clip-rule="evenodd" d="M5.75049 9C5.75049 8.80109 5.82951 8.61032 5.97016 8.46967C6.11081 8.32902 6.30158 8.25 6.50049 8.25H10.2505C10.4494 8.25 10.6402 8.32902 10.7808 8.46967C10.9215 8.61032 11.0005 8.80109 11.0005 9C11.0005 9.19891 10.9215 9.38968 10.7808 9.53033C10.6402 9.67098 10.4494 9.75 10.2505 9.75H6.50049C6.30158 9.75 6.11081 9.67098 5.97016 9.53033C5.82951 9.38968 5.75049 9.19891 5.75049 9ZM5.75049 12C5.75049 11.8011 5.82951 11.6103 5.97016 11.4697C6.11081 11.329 6.30158 11.25 6.50049 11.25H8.84424C9.04315 11.25 9.23392 11.329 9.37457 11.4697C9.51522 11.6103 9.59424 11.8011 9.59424 12C9.59424 12.1989 9.51522 12.3897 9.37457 12.5303C9.23392 12.671 9.04315 12.75 8.84424 12.75H6.50049C6.30158 12.75 6.11081 12.671 5.97016 12.5303C5.82951 12.3897 5.75049 12.1989 5.75049 12ZM10.2505 2.25C10.4494 2.25 10.6402 2.32902 10.7808 2.46967C10.9215 2.61032 11.0005 2.80109 11.0005 3V5.25C11.0005 5.44891 11.0795 5.63968 11.2202 5.78033C11.3608 5.92098 11.5516 6 11.7505 6H13.6255C13.8244 6 14.0152 6.07902 14.1558 6.21967C14.2965 6.36032 14.3755 6.55109 14.3755 6.75C14.3755 6.94891 14.2965 7.13968 14.1558 7.28033C14.0152 7.42098 13.8244 7.5 13.6255 7.5H11.7505C11.1538 7.5 10.5815 7.26295 10.1595 6.84099C9.73754 6.41903 9.50049 5.84674 9.50049 5.25V3C9.50049 2.80109 9.57951 2.61032 9.72016 2.46967C9.86081 2.32902 10.0516 2.25 10.2505 2.25Z" fill="#2D7AEC"/>
</svg>
