<svg width="15" height="14" viewBox="0 0 15 14" fill="none" xmlns="http://www.w3.org/2000/svg">
<path d="M3.59137 1.74194L2.50802 0.658603C2.4954 0.645983 2.48213 0.63405 2.46831 0.622726C2.46207 0.617597 2.45549 0.613153 2.44909 0.608355C2.44135 0.602565 2.43378 0.596573 2.42573 0.59119C2.41804 0.586036 2.41007 0.581593 2.40217 0.57687C2.39491 0.572528 2.3878 0.567958 2.38031 0.563946C2.37226 0.55963 2.36398 0.555999 2.35576 0.552114C2.34796 0.548433 2.34027 0.544522 2.33227 0.541196C2.32427 0.537896 2.31612 0.535229 2.308 0.53231C2.29944 0.529237 2.29098 0.525962 2.28223 0.523296C2.2741 0.520833 2.26585 0.51903 2.25765 0.516974C2.24873 0.514714 2.23992 0.512226 2.23083 0.510423C2.22131 0.508544 2.21172 0.507427 2.20214 0.506056C2.19425 0.504938 2.18645 0.503415 2.17845 0.502628C2.14291 0.499124 2.10708 0.499124 2.07153 0.502628C2.06354 0.503415 2.05577 0.504913 2.04787 0.506056C2.03827 0.507427 2.02867 0.508544 2.01918 0.510448C2.01009 0.512251 2.0013 0.514739 1.99239 0.516999C1.98416 0.519056 1.97591 0.520858 1.96779 0.523321C1.95905 0.525962 1.9506 0.529237 1.94207 0.53231C1.93394 0.535229 1.92577 0.537896 1.91777 0.541196C1.90977 0.544522 1.9021 0.548407 1.89431 0.552089C1.88608 0.555974 1.8778 0.559604 1.86973 0.563921C1.86224 0.567933 1.85513 0.572503 1.84787 0.576845C1.83997 0.581567 1.83197 0.586036 1.82428 0.59119C1.81626 0.596573 1.80869 0.60254 1.80097 0.608329C1.79455 0.613153 1.78797 0.617597 1.7817 0.622726C1.76789 0.63405 1.75461 0.645983 1.74199 0.658603L0.658647 1.74194C0.447118 1.95347 0.447118 2.29645 0.658647 2.50798C0.870176 2.71951 1.21315 2.71951 1.42468 2.50798L1.58332 2.34934V3.74996C1.58332 4.04911 1.82583 4.29162 2.12498 4.29162C2.42413 4.29162 2.66664 4.04911 2.66664 3.74996V2.34934L2.82528 2.50798C3.03681 2.71951 3.37979 2.71951 3.59132 2.50798C3.80284 2.29645 3.8029 1.95347 3.59137 1.74194Z" fill="#9191A4"/>
<path d="M14.5913 11.4916C14.3798 11.2801 14.0368 11.2801 13.8253 11.4916L13.6666 11.6503V10.2497C13.6666 9.95051 13.4241 9.70801 13.125 9.70801C12.8258 9.70801 12.5833 9.95051 12.5833 10.2497V11.6503L12.4247 11.4916C12.2132 11.2801 11.8702 11.2801 11.6586 11.4916C11.4471 11.7032 11.4471 12.0462 11.6586 12.2577L12.742 13.341C12.7422 13.3412 12.7424 13.3414 12.7426 13.3416C12.755 13.354 12.7681 13.3657 12.7817 13.3769C12.788 13.3821 12.7946 13.3866 12.8011 13.3914C12.8087 13.3971 12.8163 13.4031 12.8243 13.4084C12.832 13.4136 12.84 13.4181 12.8479 13.4228C12.8552 13.4271 12.8622 13.4317 12.8697 13.4357C12.8778 13.44 12.8861 13.4437 12.8943 13.4475C12.9021 13.4512 12.9097 13.4551 12.9177 13.4584C12.9257 13.4617 12.9339 13.4644 12.942 13.4673C12.9506 13.4704 12.959 13.4736 12.9677 13.4763C12.9759 13.4787 12.9841 13.4805 12.9923 13.4826C13.0013 13.4849 13.0101 13.4874 13.0191 13.4892C13.0286 13.491 13.0382 13.4922 13.0478 13.4935C13.0557 13.4947 13.0635 13.4962 13.0715 13.497C13.1071 13.5005 13.1429 13.5005 13.1784 13.497C13.1864 13.4962 13.1942 13.4947 13.2021 13.4935C13.2117 13.4922 13.2213 13.4911 13.2308 13.4892C13.2399 13.4874 13.2487 13.4849 13.2576 13.4826C13.2658 13.4805 13.2741 13.4787 13.2822 13.4763C13.2909 13.4736 13.2994 13.4704 13.3079 13.4673C13.316 13.4644 13.3242 13.4617 13.3322 13.4584C13.3402 13.4551 13.3478 13.4512 13.3556 13.4475C13.3639 13.4437 13.3722 13.44 13.3803 13.4357C13.3877 13.4317 13.3948 13.4271 13.402 13.4228C13.4099 13.4181 13.418 13.4136 13.4257 13.4084C13.4337 13.4031 13.4412 13.3971 13.4489 13.3914C13.4553 13.3866 13.462 13.3821 13.4683 13.3769C13.4818 13.3658 13.4949 13.354 13.5074 13.3416C13.5076 13.3414 13.5078 13.3412 13.5079 13.341L14.5913 12.2577C14.8028 12.0462 14.8028 11.7032 14.5913 11.4916Z" fill="#9191A4"/>
<path d="M8.58334 0.5H6.41668C5.03317 0.5 4.25 3.37178 4.25 7C4.25 10.6282 5.03317 13.5 6.41666 13.5H8.58332C9.96683 13.5 10.75 10.6282 10.75 7C10.75 3.37178 9.96683 0.5 8.58334 0.5ZM6.41666 12.4167C6.00513 12.4167 5.33332 9.95326 5.33332 7C5.33332 4.04674 6.00513 1.58334 6.41666 1.58334H7.29799C7.2968 1.58573 7.29568 1.58829 7.29449 1.59068C7.27821 1.62376 7.26212 1.65741 7.2463 1.69179C7.24373 1.69737 7.24122 1.70316 7.23868 1.70877C7.2254 1.73792 7.21227 1.76747 7.1993 1.79751C7.1942 1.80934 7.18917 1.82135 7.18412 1.83331C7.17358 1.85827 7.16312 1.88351 7.15276 1.90908C7.1476 1.92185 7.14245 1.93462 7.13732 1.94752C7.12638 1.9752 7.11556 2.00328 7.10485 2.03161C7.10094 2.04197 7.09695 2.05213 7.09309 2.06256C7.07872 2.10123 7.06453 2.14046 7.05059 2.18035C7.04784 2.18817 7.0452 2.19622 7.04249 2.20409C7.03129 2.23657 7.02019 2.26937 7.00928 2.30261C7.00476 2.31637 7.00031 2.33031 6.99582 2.3442C6.9866 2.37281 6.97751 2.40168 6.9685 2.43083C6.96403 2.44533 6.95956 2.4598 6.95514 2.47443C6.94542 2.50662 6.93585 2.53922 6.92635 2.57208C6.92318 2.5831 6.91993 2.59396 6.91678 2.60506C6.90434 2.64883 6.89212 2.69317 6.88014 2.73806C6.87742 2.74819 6.87483 2.75852 6.87214 2.7687C6.86285 2.804 6.85366 2.83954 6.84464 2.8755C6.84073 2.89109 6.8369 2.9068 6.83304 2.92252C6.82519 2.95446 6.81745 2.98663 6.80983 3.01908C6.80605 3.03513 6.80227 3.05115 6.79856 3.0673C6.7901 3.10404 6.7818 3.14113 6.77362 3.17848C6.77116 3.18968 6.76865 3.2007 6.76621 3.21195C6.75575 3.26042 6.74552 3.3094 6.73551 3.35886C6.73303 3.37112 6.73064 3.38359 6.7282 3.39593C6.72069 3.43373 6.71325 3.47174 6.70598 3.51008C6.70271 3.52735 6.69951 3.54474 6.69629 3.56211C6.68981 3.59715 6.68344 3.63244 6.67717 3.66794C6.67412 3.68518 6.67107 3.70239 6.66808 3.71973C6.66094 3.7611 6.65398 3.80281 6.64715 3.84476C6.64538 3.85565 6.64355 3.86639 6.64177 3.87731C6.63332 3.92997 6.62512 3.98314 6.61712 4.03671C6.61501 4.0509 6.61298 4.0653 6.6109 4.07957C6.60506 4.11959 6.59929 4.15978 6.59371 4.20028C6.59112 4.21909 6.58855 4.23801 6.58601 4.25695C6.58094 4.29476 6.57598 4.33277 6.57114 4.37095C6.5688 4.38931 6.56644 4.40762 6.56418 4.42605C6.55847 4.47221 6.55296 4.51865 6.54757 4.56537C6.54643 4.57522 6.54524 4.58497 6.54412 4.59487C6.53772 4.65129 6.53158 4.70814 6.52566 4.76535C6.52398 4.78144 6.52244 4.79769 6.52081 4.81384C6.5166 4.85574 6.51246 4.89778 6.5085 4.94011C6.50662 4.96024 6.50476 4.98043 6.50294 5.00064C6.49928 5.04104 6.49575 5.08164 6.4923 5.12241C6.4907 5.14153 6.48905 5.1606 6.4875 5.1798C6.48331 5.23142 6.4793 5.28334 6.47546 5.33549C6.4749 5.34316 6.47427 5.35075 6.47371 5.35845C6.46939 5.41827 6.46536 5.47849 6.46152 5.539C6.46041 5.55657 6.45939 5.57429 6.45832 5.59194C6.45568 5.63553 6.45312 5.67926 6.45073 5.72321C6.44956 5.74454 6.44845 5.76589 6.44733 5.78729C6.44512 5.82992 6.44306 5.87271 6.44111 5.91564C6.4402 5.9355 6.43926 5.9553 6.43839 5.97523C6.4359 6.0329 6.43362 6.09079 6.43156 6.14896C6.43141 6.15337 6.43121 6.15772 6.43105 6.16214C6.42887 6.22482 6.42699 6.28787 6.42532 6.35114C6.42481 6.37019 6.4244 6.3893 6.42395 6.4084C6.42285 6.45349 6.42186 6.49869 6.42103 6.54404C6.42062 6.56607 6.42024 6.58814 6.41991 6.61023C6.4192 6.6552 6.41864 6.70029 6.41818 6.74551C6.41798 6.76559 6.41772 6.78565 6.41757 6.80579C6.41706 6.87028 6.41676 6.93497 6.41676 6.99995C6.41676 7.06492 6.41709 7.12962 6.41757 7.19411C6.41772 7.21425 6.41798 7.2343 6.41818 7.25439C6.41864 7.29961 6.4192 7.3447 6.41991 7.38967C6.42026 7.41176 6.42062 7.43385 6.42103 7.45586C6.42186 7.50124 6.42285 7.54643 6.42395 7.5915C6.4244 7.61059 6.42481 7.62974 6.42532 7.64876C6.42699 7.71203 6.42887 7.77507 6.43105 7.83776C6.43121 7.84218 6.43141 7.84652 6.43156 7.85094C6.43362 7.90911 6.43593 7.967 6.43839 8.02466C6.43926 8.0446 6.4402 8.06443 6.44111 8.08431C6.44306 8.12722 6.44515 8.17 6.44733 8.21261C6.44845 8.23401 6.44956 8.25539 6.45073 8.27672C6.45312 8.32064 6.45568 8.36437 6.45832 8.40796C6.45939 8.42561 6.46041 8.44333 6.46152 8.4609C6.46536 8.52141 6.46939 8.58163 6.47371 8.64145C6.47427 8.64917 6.4749 8.65679 6.47546 8.66451C6.4793 8.71663 6.48328 8.76851 6.48747 8.8201C6.48902 8.83932 6.49067 8.85842 6.4923 8.87756C6.49572 8.91829 6.49925 8.95889 6.50291 8.99926C6.50474 9.01949 6.50659 9.03971 6.50847 9.05984C6.51243 9.10212 6.51657 9.14414 6.52079 9.18601C6.52241 9.20218 6.52398 9.21846 6.52566 9.23458C6.53158 9.29178 6.53772 9.34863 6.54412 9.40503C6.54524 9.41493 6.54646 9.42468 6.5476 9.43453C6.55298 9.48122 6.55852 9.52766 6.5642 9.57382C6.56649 9.59228 6.56885 9.61061 6.57119 9.629C6.57604 9.66716 6.58099 9.70514 6.58606 9.7429C6.5886 9.76184 6.59117 9.78078 6.59376 9.79965C6.59934 9.84009 6.60508 9.88026 6.61092 9.92023C6.613 9.93452 6.61504 9.94894 6.61717 9.96319C6.62517 10.0167 6.63337 10.0699 6.6418 10.1226C6.64355 10.1335 6.6454 10.1442 6.64718 10.1551C6.65401 10.1971 6.66097 10.2388 6.6681 10.2801C6.6711 10.2975 6.67417 10.3147 6.67719 10.332C6.68344 10.3675 6.68981 10.4027 6.69629 10.4377C6.69951 10.4551 6.70271 10.4725 6.70598 10.4898C6.71325 10.5282 6.72063 10.5661 6.72815 10.6039C6.73061 10.6162 6.733 10.6288 6.73549 10.6411C6.74549 10.6905 6.75572 10.7395 6.76619 10.7879C6.76862 10.7992 6.77114 10.8102 6.7736 10.8214C6.78178 10.8587 6.79008 10.8958 6.79853 10.9326C6.80227 10.9487 6.80605 10.9648 6.80983 10.9809C6.81745 11.0133 6.82519 11.0454 6.83301 11.0773C6.83687 11.093 6.84073 11.1088 6.84464 11.1244C6.85366 11.1603 6.86282 11.1958 6.87209 11.231C6.87478 11.2413 6.8774 11.2517 6.88011 11.2618C6.8921 11.3067 6.90431 11.351 6.91675 11.3948C6.91993 11.4059 6.92318 11.4168 6.92638 11.4279C6.93585 11.4607 6.94539 11.4933 6.95512 11.5254C6.95953 11.54 6.96403 11.5546 6.9685 11.5691C6.97749 11.5982 6.98658 11.627 6.99577 11.6556C7.00026 11.6695 7.0047 11.6835 7.00925 11.6973C7.02014 11.7305 7.03121 11.7632 7.04241 11.7956C7.04515 11.8036 7.04782 11.8117 7.05056 11.8195C7.0645 11.8594 7.07867 11.8986 7.09304 11.9373C7.09692 11.9478 7.10094 11.958 7.10485 11.9684C7.11554 11.9967 7.12633 12.0247 7.13727 12.0523C7.1424 12.0653 7.14755 12.0781 7.15273 12.0909C7.16307 12.1164 7.1735 12.1416 7.18404 12.1665C7.18912 12.1785 7.19414 12.1906 7.19927 12.2024C7.21222 12.2324 7.22532 12.2619 7.23858 12.291C7.24117 12.2966 7.24368 12.3025 7.24627 12.3081C7.26212 12.3425 7.27819 12.3761 7.29446 12.4092C7.29566 12.4116 7.2968 12.4142 7.29797 12.4166H6.41666V12.4167ZM8.58334 12.4167C8.17181 12.4167 7.5 9.95329 7.5 7C7.5 4.04671 8.17181 1.58334 8.58334 1.58334C8.99487 1.58334 9.66668 4.04674 9.66668 7C9.66668 9.95326 8.99487 12.4167 8.58334 12.4167Z" fill="#9191A4"/>
</svg>
