<svg width="13" height="14" viewBox="0 0 13 14" fill="none" xmlns="http://www.w3.org/2000/svg">
<path d="M6.32015 10.6821C6.24095 10.5081 6.07695 10.3811 5.87847 10.3586C5.71039 10.3394 5.54583 10.3034 5.38935 10.2515C5.31919 10.2279 5.25335 10.2021 5.19239 10.1745L5.29367 9.89841C5.36519 9.93033 5.43887 9.95953 5.51431 9.98593L5.51743 9.98705L5.52063 9.98809C5.76271 10.0681 6.00095 10.1087 6.22855 10.1087C6.45711 10.1087 6.62279 10.078 6.75007 10.0123L6.75767 10.0084L6.76511 10.0041C6.95791 9.89345 7.06855 9.70329 7.06855 9.48225C7.06855 9.23697 6.93623 9.03337 6.70543 8.92337C6.58935 8.86689 6.42447 8.81297 6.18695 8.75393C5.94335 8.69233 5.73871 8.62697 5.57999 8.56001C5.46399 8.50753 5.36335 8.42377 5.27263 8.30401C5.19455 8.19713 5.15503 8.03641 5.15503 7.82609C5.15503 7.57233 5.22647 7.36289 5.37351 7.18577C5.50439 7.03057 5.69023 6.92513 5.93967 6.86601C6.12471 6.82217 6.26903 6.69009 6.33391 6.51953C6.40727 6.69241 6.56335 6.82097 6.75759 6.85193C6.91983 6.87777 7.06879 6.91897 7.20271 6.97473L7.10951 7.24529C6.85663 7.14377 6.60775 7.09249 6.36703 7.09249C5.56759 7.09249 5.52711 7.64401 5.52711 7.75457C5.52711 7.99425 5.65655 8.19521 5.88223 8.30601L5.88855 8.30913L5.89495 8.31201C6.00895 8.36289 6.17071 8.41193 6.40415 8.46633C6.64551 8.52089 6.84679 8.58337 7.00495 8.65265L7.00823 8.65409L7.01151 8.65545C7.12895 8.70433 7.22967 8.78593 7.31943 8.90497L7.32087 8.90681L7.32231 8.90873C7.40079 9.01017 7.44063 9.16705 7.44063 9.37505C7.44063 9.61513 7.37111 9.81833 7.22807 9.99633C7.10399 10.1507 6.93079 10.2576 6.69839 10.3231C6.51895 10.3736 6.37975 10.5108 6.32015 10.6821Z" fill="#9191A4"/>
<path d="M6.52266 11.3998H6.13746C6.0513 11.3998 5.98146 11.3282 5.98146 11.2398V10.9186C5.98146 10.8341 5.91738 10.7647 5.83546 10.7553C5.64042 10.7332 5.45178 10.6918 5.26946 10.6313C5.09234 10.5716 4.93889 10.5009 4.80911 10.4189C4.74947 10.3812 4.72778 10.3048 4.75243 10.2376L5.01666 9.51708C5.05226 9.42012 5.16706 9.38301 5.25546 9.43317C5.37482 9.50077 5.50314 9.55861 5.64026 9.60661C5.84466 9.67413 6.04082 9.70789 6.22866 9.70789C6.39018 9.70789 6.50562 9.69005 6.57482 9.65428C6.64402 9.61453 6.67866 9.55693 6.67866 9.48149C6.67866 9.39413 6.6325 9.3286 6.54018 9.28492C6.45122 9.24124 6.30282 9.19357 6.09522 9.14196C5.82818 9.07445 5.6057 9.00293 5.4277 8.92749C5.2497 8.84805 5.09474 8.72092 4.9629 8.5462C4.83102 8.36748 4.7651 8.12717 4.7651 7.82533C4.7651 7.47581 4.86894 7.17596 5.07658 6.92572C5.26378 6.7038 5.52218 6.55372 5.85194 6.47556C5.92618 6.45796 5.98146 6.39188 5.98146 6.3138V5.9598C5.98146 5.8714 6.0513 5.7998 6.13746 5.7998H6.52266C6.60882 5.7998 6.67866 5.8714 6.67866 5.9598V6.29356C6.67866 6.37532 6.73882 6.4434 6.81754 6.45596C7.10642 6.50196 7.36026 6.58908 7.57898 6.71732C7.64106 6.75372 7.6657 6.83116 7.64186 6.90028L7.39458 7.6178C7.36186 7.71292 7.25266 7.75316 7.16482 7.70772C6.88626 7.56372 6.62042 7.49172 6.36714 7.49172C6.06714 7.49172 5.91714 7.57908 5.91714 7.7538C5.91714 7.83724 5.9617 7.90076 6.05066 7.94452C6.1397 7.9842 6.28634 8.02788 6.49074 8.07556C6.75442 8.13516 6.97698 8.2046 7.15826 8.28404C7.33954 8.35948 7.4961 8.48461 7.62802 8.6594C7.76314 8.83413 7.83074 9.07244 7.83074 9.37428C7.83074 9.70788 7.73018 9.9998 7.52906 10.25C7.35394 10.4681 7.11146 10.6208 6.80178 10.708C6.73058 10.7281 6.67866 10.7928 6.67866 10.8684V11.2398C6.67866 11.3282 6.60882 11.3998 6.52266 11.3998Z" fill="#9191A4"/>
<path fill-rule="evenodd" clip-rule="evenodd" d="M4.61372 1H7.99112C8.85616 1 8.38112 2.3312 8.03088 3.1432L7.63232 4.0744L7.57848 4.2C7.956 4.18121 8.32936 4.28843 8.6424 4.5056C9.81352 5.60464 10.764 6.92784 11.4403 8.4008C11.7038 8.94544 11.8084 9.55664 11.7414 10.1608C11.6609 11.7007 10.4563 12.9278 8.9544 13H3.65043C2.14811 12.93 0.941762 11.7042 0.859586 10.164C0.792538 9.55984 0.89709 8.94864 1.16067 8.404C1.83778 6.9296 2.78957 5.6052 3.96243 4.5056C4.27552 4.28843 4.64882 4.18121 5.02632 4.2L4.96392 4.0552L4.57395 3.1432C4.22528 2.3312 3.74792 1 4.61372 1Z" stroke="#9191A4" stroke-width="1.2" stroke-linecap="round" stroke-linejoin="round"/>
<path d="M7.57869 4.79992C7.91005 4.79992 8.17869 4.53128 8.17869 4.19992C8.17869 3.86855 7.91005 3.59992 7.57869 3.59992V4.79992ZM5.02653 3.59992C4.69518 3.59992 4.42655 3.86855 4.42655 4.19992C4.42655 4.53128 4.69518 4.79992 5.02653 4.79992V3.59992ZM9.72213 3.91982C10.0093 3.75441 10.108 3.38756 9.94253 3.10042C9.77709 2.81328 9.41029 2.7146 9.12317 2.88001L9.72213 3.91982ZM7.63253 4.07432L7.74829 4.66304L7.75005 4.6627L7.63253 4.07432ZM4.96413 4.05512L5.08837 3.46808L5.08293 3.46698L4.96413 4.05512ZM3.47285 2.87477C3.18282 2.71449 2.81777 2.81967 2.65749 3.10969C2.4972 3.39972 2.60238 3.76477 2.89241 3.92506L3.47285 2.87477ZM7.57869 3.59992H5.02653V4.79992H7.57869V3.59992ZM9.12317 2.88001C8.62157 3.16894 8.07869 3.37338 7.51501 3.48593L7.75005 4.6627C8.44229 4.52446 9.10813 4.27354 9.72213 3.91982L9.12317 2.88001ZM7.51677 3.48559C6.71405 3.64344 5.88893 3.63748 5.08837 3.46808L4.83994 4.64212C5.79861 4.84496 6.78693 4.85208 7.74829 4.66304L7.51677 3.48559ZM5.08293 3.46698C4.52075 3.35348 3.97801 3.15396 3.47285 2.87477L2.89241 3.92506C3.50426 4.2632 4.1626 4.50539 4.8454 4.64325L5.08293 3.46698Z" fill="#9191A4"/>
</svg>
