<svg viewBox="0 0 16 16" fill="none" xmlns="http://www.w3.org/2000/svg">
<path fill-rule="evenodd" clip-rule="evenodd" d="M6.51473 2.95418C4.27694 2.95418 2.46284 4.76828 2.46284 7.00611C2.46284 9.24391 4.27694 11.058 6.51473 11.058H9.48503C9.57398 11.058 9.66223 11.0552 9.74963 11.0495C9.90743 11.0394 10.0672 11.0887 10.1935 11.1944L11.6173 12.3861C11.6824 12.4406 11.7815 12.3943 11.7815 12.3094V10.6596C11.7815 10.4648 11.8718 10.2861 12.0174 10.1694C12.9446 9.42601 13.5369 8.28541 13.5369 7.00611C13.5369 4.76828 11.7228 2.95418 9.48503 2.95418H6.51473ZM1.49988 7.00611C1.49988 4.23645 3.74511 1.99121 6.51473 1.99121H9.48503C12.2546 1.99121 14.4999 4.23645 14.4999 7.00611C14.4999 8.53161 13.8182 9.89826 12.7445 10.8173V13.2451C12.7445 13.7764 12.1243 14.0661 11.7168 13.7251L9.67638 12.0174C9.61288 12.0198 9.54908 12.021 9.48503 12.021H6.51473C3.74511 12.021 1.49988 9.77571 1.49988 7.00611Z" fill="#DF74FF"/>
</svg>
