<svg width="10" height="9" viewBox="0 0 10 9" fill="none" xmlns="http://www.w3.org/2000/svg">
<path d="M5 8.25C4.69318 8.25 4.40008 8.12618 3.81385 7.87856C2.35462 7.26214 1.625 6.95393 1.625 6.43549C1.625 6.29033 1.625 3.77419 1.625 2.625M5 8.25C5.30682 8.25 5.59993 8.12618 6.18616 7.87856C7.6454 7.26214 8.375 6.95393 8.375 6.43549V2.625M5 8.25V4.25805" stroke="#9191A4" stroke-width="0.75" stroke-linecap="round" stroke-linejoin="round"/>
<path d="M3.62222 3.63427L2.52677 3.10419C1.92559 2.81329 1.625 2.66784 1.625 2.4375C1.625 2.20716 1.92559 2.06171 2.52677 1.77081L3.62222 1.24073C4.2983 0.913579 4.63636 0.75 5 0.75C5.36364 0.75 5.7017 0.913575 6.37779 1.24073L7.47324 1.77081C8.0744 2.06171 8.375 2.20716 8.375 2.4375C8.375 2.66784 8.0744 2.81329 7.47324 3.10419L6.37779 3.63427C5.7017 3.96142 5.36364 4.125 5 4.125C4.63636 4.125 4.2983 3.96142 3.62222 3.63427Z" stroke="#9191A4" stroke-width="0.75" stroke-linecap="round" stroke-linejoin="round"/>
<path d="M2.75 4.5L3.5 4.875" stroke="#9191A4" stroke-width="0.75" stroke-linecap="round" stroke-linejoin="round"/>
<path d="M6.875 1.5L3.125 3.375" stroke="#9191A4" stroke-width="0.75" stroke-linecap="round" stroke-linejoin="round"/>
</svg>
