<svg width="22" height="22" viewBox="0 0 22 22" fill="none" xmlns="http://www.w3.org/2000/svg">
<path fill-rule="evenodd" clip-rule="evenodd" d="M2.94186 11C2.94186 15.4442 6.55581 19.0581 11 19.0581C15.4442 19.0581 19.0581 15.4442 19.0581 11C19.0581 6.55581 15.4442 2.94186 11 2.94186C6.55581 2.94186 2.94186 6.55581 2.94186 11ZM10.6728 6.41135C11.0349 5.8681 11.8818 6.12448 11.8818 6.7774V9.24043H14.3303C14.8574 9.24043 15.1718 9.82785 14.8794 10.2664L11.331 15.589C10.9688 16.1323 10.122 15.8759 10.122 15.223V12.7599H7.67344C7.14637 12.7599 6.832 12.1725 7.12436 11.734L10.6728 6.41135Z" fill="#FCFCFD"/>
<path d="M11 3.9186C10.5995 3.9186 10.2674 3.58651 10.2674 3.18605V1.23256C10.2674 0.832093 10.5995 0.5 11 0.5C11.4005 0.5 11.7326 0.832093 11.7326 1.23256V3.18605C11.7326 3.58651 11.4005 3.9186 11 3.9186Z" fill="#FCFCFD"/>
<path d="M3.18605 11.7326H1.23256C0.832093 11.7326 0.5 11.4005 0.5 11C0.5 10.5995 0.832093 10.2674 1.23256 10.2674H3.18605C3.58651 10.2674 3.9186 10.5995 3.9186 11C3.9186 11.4005 3.58651 11.7326 3.18605 11.7326Z" fill="#FCFCFD"/>
<path d="M11 21.5C10.5995 21.5 10.2674 21.1679 10.2674 20.7674V18.814C10.2674 18.4135 10.5995 18.0814 11 18.0814C11.4005 18.0814 11.7326 18.4135 11.7326 18.814V20.7674C11.7326 21.1679 11.4005 21.5 11 21.5Z" fill="#FCFCFD"/>
<path d="M20.7674 11.7326H18.814C18.4135 11.7326 18.0814 11.4005 18.0814 11C18.0814 10.5995 18.4135 10.2674 18.814 10.2674H20.7674C21.1679 10.2674 21.5 10.5995 21.5 11C21.5 11.4005 21.1679 11.7326 20.7674 11.7326Z" fill="#FCFCFD"/>
</svg>
