<svg width="16" height="16" viewBox="0 0 16 16" fill="none" xmlns="http://www.w3.org/2000/svg">
<path d="M14.6666 8.66666V7.99999C14.6666 5.48583 14.6666 4.22876 13.8856 3.4477C13.1046 2.66666 11.8474 2.66666 9.33331 2.66666H6.66665C4.15249 2.66666 2.89541 2.66666 2.11436 3.4477C1.33331 4.22876 1.33331 5.48583 1.33331 7.99999C1.33331 10.5141 1.33331 11.7713 2.11436 12.5523C2.89541 13.3333 4.15249 13.3333 6.66665 13.3333H7.66665" stroke="#FCFCFD" stroke-width="1.2" stroke-linecap="round"/>
<path fill-rule="evenodd" clip-rule="evenodd" d="M11.3356 9.35559C11.4837 9.13344 11.733 9 12 9C12.267 9 12.5163 9.13344 12.6644 9.35559L12.7777 9.52555C12.8775 9.67518 13.0595 9.74744 13.2347 9.707L13.3465 9.68121C13.6189 9.61835 13.9044 9.70025 14.1021 9.89792C14.2998 10.0956 14.3816 10.3811 14.3188 10.6535L14.293 10.7653C14.2526 10.9405 14.3248 11.1225 14.4745 11.2223L14.6444 11.3356C14.8666 11.4837 15 11.733 15 12C15 12.267 14.8666 12.5163 14.6444 12.6644L14.4745 12.7777C14.3248 12.8775 14.2526 13.0595 14.293 13.2347L14.3188 13.3465C14.3816 13.6189 14.2998 13.9044 14.1021 14.1021C13.9044 14.2998 13.6189 14.3816 13.3465 14.3188L13.2347 14.293C13.0595 14.2526 12.8775 14.3248 12.7777 14.4745L12.6644 14.6444C12.5163 14.8666 12.267 15 12 15C11.733 15 11.4837 14.8666 11.3356 14.6444L11.2223 14.4745C11.1225 14.3248 10.9405 14.2526 10.7653 14.293L10.6535 14.3188C10.3812 14.3816 10.0956 14.2998 9.89792 14.1021C9.70025 13.9044 9.61835 13.6189 9.68121 13.3465L9.707 13.2347C9.74744 13.0595 9.67518 12.8775 9.52555 12.7777L9.35559 12.6644C9.13344 12.5163 9 12.267 9 12C9 11.733 9.13344 11.4837 9.35559 11.3356L9.52555 11.2223C9.67518 11.1225 9.74744 10.9405 9.707 10.7653L9.68121 10.6535C9.61835 10.3812 9.70025 10.0956 9.89792 9.89792C10.0956 9.70025 10.3812 9.61835 10.6535 9.68121L10.7653 9.707C10.9405 9.74744 11.1225 9.67518 11.2223 9.52555L11.3356 9.35559ZM10.95 12C10.95 11.4201 11.4201 10.95 12 10.95C12.5799 10.95 13.05 11.4201 13.05 12C13.05 12.5799 12.5799 13.05 12 13.05C11.4201 13.05 10.95 12.5799 10.95 12Z" fill="#FCFCFD"/>
<path d="M4 6H5.33333" stroke="#FCFCFD" stroke-width="1.2" stroke-linecap="round"/>
<path d="M7.3335 6H11.6668" stroke="#FCFCFD" stroke-width="1.2" stroke-linecap="round"/>
<path d="M4 8.66699H8.33333" stroke="#FCFCFD" stroke-width="1.2" stroke-linecap="round"/>
</svg>
