<svg width="8" height="6" viewBox="0 0 8 6" fill="none" xmlns="http://www.w3.org/2000/svg">
<path d="M7.06231 0.00197222C7.30534 0.0172534 7.53444 0.120684 7.70663 0.292861C7.87881 0.465054 7.98224 0.694153 7.99752 0.937179C8.0128 1.18021 7.93888 1.42046 7.78963 1.61286L7.70663 1.70686L3.70663 5.70686L3.61263 5.78986C3.43726 5.92593 3.2216 5.99978 2.99963 5.99978C2.77766 5.99978 2.562 5.92593 2.38663 5.78986L2.29263 5.70686L0.292632 3.70686L0.209632 3.61286C0.0604873 3.42045 -0.0133434 3.18023 0.00198545 2.93726C0.0173143 2.6943 0.120749 2.46527 0.292894 2.29312C0.465039 2.12098 0.69407 2.01754 0.937036 2.00221C1.18 1.98688 1.42022 2.06072 1.61263 2.20986L1.70663 2.29286L2.99963 3.58486L6.29263 0.292861L6.38663 0.209861C6.57904 0.0606093 6.81929 -0.013309 7.06231 0.00197222Z" fill="#FCFCFD"/>
</svg>
