<svg width="187" height="187" viewBox="0 0 187 187" fill="none" xmlns="http://www.w3.org/2000/svg">
<path d="M116 103C128.845 110.964 137.172 124.026 141.223 138.422C143.126 147.183 144 156.04 144 165C111 165 78 165 44 165C44 149.185 44 149.185 45.75 142.75C45.9319 142.08 46.1138 141.41 46.3013 140.72C50.3473 126.243 56.8123 112.608 69.8125 104.176C84.6609 95.8437 100.666 95.2255 116 103Z" fill="#8d94b8"/>
<path d="M56 78C57.0331 79.7637 58.0511 81.5363 59.0625 83.3125C59.631 84.2987 60.1995 85.2848 60.7852 86.3008C62 89 62 89 61 92C59.5255 93.2446 57.995 94.4235 56.4375 95.5625C42.281 106.629 33.9246 123.452 31 141C20.77 141 10.54 141 0 141C0 127.962 0 127.962 1.5625 121.188C1.73886 120.421 1.91522 119.654 2.09692 118.863C5.89642 103.532 14.2041 91.051 27.5586 82.4063C36.7331 77.1218 45.6923 77.6805 56 78Z" fill="#8d94b8"/>
<path d="M131 78C145.727 77.0266 157.245 78.7537 168.938 88.5C174.743 94.2275 178.449 100.74 182 108C182.358 108.719 182.717 109.439 183.086 110.18C187.223 119.723 187 130.866 187 141C177.1 141 167.2 141 157 141C155.68 136.38 154.36 131.76 153 127C151.795 124.107 150.632 121.436 149.188 118.687C148.843 118.017 148.498 117.347 148.143 116.656C142.662 106.28 135.077 97.1445 125 91C126.98 86.71 128.96 82.42 131 78Z" fill="#8d94b8"/>
<path d="M109 47C113.779 51.335 116.666 55.745 117.336 62.2695C117.427 70.533 117.155 76.5051 111.422 82.707C105.528 88.1629 99.5218 90.5818 91.4844 90.2774C84.682 89.518 80.1474 86.995 75.543 81.9375C70.7043 75.8616 69.305 70.7037 69.6289 62.8906C70.6372 55.0365 74.8051 50.5854 80.7773 45.6328C89.6517 39.1135 100.395 41.0802 109 47Z" fill="#8d94b8"/>
<path d="M155.555 23.8711C161.749 27.5465 166.779 33.1233 169 40C169.935 48.9109 168.867 54.8222 163.812 62.1875C158.76 67.2401 152.429 70.1162 145.25 70.25C138.104 70.1463 132.786 67.5743 127.578 62.7774C122.28 56.8107 121.224 50.0287 121.488 42.2227C122.578 35.3581 126.155 30.0691 131.688 25.9375C138.514 21.9447 148 21.295 155.555 23.8711Z" fill="#8d94b8"/>
<path d="M53.4375 24.5C58.5757 27.605 62.3595 32.2896 65.4375 37.375C67.0484 44.8924 66.3053 52.0562 63 59C59.2074 64.7431 54.518 67.6518 48.0234 69.5899C41.4693 70.9184 35.8879 70.2711 30 67C25.2382 63.6778 20.625 59.7457 19 54C18.1079 44.7347 18.6132 38.3408 23.625 30.4375C31.476 22.3799 42.8653 19.9132 53.4375 24.5Z" fill="#8d94b8"/>
</svg>
