<svg viewBox="0 0 16 16" fill="none" xmlns="http://www.w3.org/2000/svg">
<path fill-rule="evenodd" clip-rule="evenodd" d="M7.81809 2.06033C8.15296 2.14405 8.35656 2.48338 8.27284 2.81825L7.93951 4.15159C7.85579 4.48646 7.51646 4.69006 7.18159 4.60634C6.84671 4.52262 6.64311 4.18329 6.72683 3.84842L7.06017 2.51508C7.14388 2.18021 7.48322 1.97661 7.81809 2.06033ZM3.33317 2.04167C3.67835 2.04167 3.95817 2.32149 3.95817 2.66667V2.70833H3.99984C4.34502 2.70833 4.62484 2.98816 4.62484 3.33333C4.62484 3.67851 4.34502 3.95833 3.99984 3.95833H3.95817V4C3.95817 4.34518 3.67835 4.625 3.33317 4.625C2.98799 4.625 2.70817 4.34518 2.70817 4V3.95833H2.6665C2.32133 3.95833 2.0415 3.67851 2.0415 3.33333C2.0415 2.98816 2.32133 2.70833 2.6665 2.70833H2.70817V2.66667C2.70817 2.32149 2.98799 2.04167 3.33317 2.04167ZM12.6665 2.04167C13.0117 2.04167 13.2915 2.32149 13.2915 2.66667V2.70833H13.3332C13.6783 2.70833 13.9582 2.98816 13.9582 3.33333C13.9582 3.67851 13.6783 3.95833 13.3332 3.95833H13.2915V4C13.2915 4.34518 13.0117 4.625 12.6665 4.625C12.3213 4.625 12.0415 4.34518 12.0415 4V3.95833H11.9998C11.6547 3.95833 11.3748 3.67851 11.3748 3.33333C11.3748 2.98816 11.6547 2.70833 11.9998 2.70833H12.0415V2.66667C12.0415 2.32149 12.3213 2.04167 12.6665 2.04167ZM10.4418 5.55806C10.6859 5.80214 10.6859 6.19786 10.4418 6.44194L9.77511 7.10861C9.53104 7.35269 9.13531 7.35269 8.89123 7.10861C8.64715 6.86453 8.64715 6.4688 8.89123 6.22473L9.5579 5.55806C9.80197 5.31398 10.1977 5.31398 10.4418 5.55806ZM4.87713 6.05153C5.07855 6.01532 5.28494 6.08002 5.42965 6.22473L9.77498 10.5701C9.91968 10.7148 9.98438 10.9211 9.94819 11.1225C9.912 11.3239 9.7795 11.4949 9.59348 11.5802L3.21126 14.5057C3.21056 14.5061 3.20985 14.5064 3.20915 14.5067C2.96943 14.618 2.70132 14.6531 2.441 14.6072C2.17992 14.5612 1.93932 14.436 1.75186 14.2485C1.5644 14.0611 1.43916 13.8205 1.39314 13.5594C1.34727 13.2991 1.38234 13.031 1.4936 12.7914C1.49394 12.7906 1.49429 12.7899 1.49464 12.7891L4.41952 6.4063C4.50478 6.22025 4.67571 6.08773 4.87713 6.05153ZM5.18141 7.74425L2.62746 13.3176C2.62384 13.3253 2.62268 13.334 2.62417 13.3424C2.62565 13.3508 2.62969 13.3586 2.63574 13.3646C2.64179 13.3707 2.64955 13.3747 2.65797 13.3762C2.66639 13.3777 2.67507 13.3765 2.68282 13.3729L2.6866 13.3712L8.25554 10.8184L5.18141 7.74425ZM13.9395 8.18175C14.0232 8.51662 13.8196 8.85595 13.4848 8.93967L12.1514 9.27301C11.8166 9.35672 11.4772 9.15312 11.3935 8.81825C11.3098 8.48338 11.5134 8.14405 11.8483 8.06033L13.1816 7.72699C13.5165 7.64328 13.8558 7.84688 13.9395 8.18175ZM12.6665 11.375C13.0117 11.375 13.2915 11.6548 13.2915 12V12.0417H13.3332C13.6783 12.0417 13.9582 12.3215 13.9582 12.6667C13.9582 13.0118 13.6783 13.2917 13.3332 13.2917H13.2915V13.3333C13.2915 13.6785 13.0117 13.9583 12.6665 13.9583C12.3213 13.9583 12.0415 13.6785 12.0415 13.3333V13.2917H11.9998C11.6547 13.2917 11.3748 13.0118 11.3748 12.6667C11.3748 12.3215 11.6547 12.0417 11.9998 12.0417H12.0415V12C12.0415 11.6548 12.3213 11.375 12.6665 11.375Z" fill="#FCFCFD"/>
</svg>
