<svg width="16" height="16" viewBox="0 0 16 16" fill="none" xmlns="http://www.w3.org/2000/svg">
<path fill-rule="evenodd" clip-rule="evenodd" d="M10.7421 10.7416H10.7692C11.8511 10.7416 12.6693 10.5013 13.2145 9.95607C13.7597 9.41088 14 8.59268 14 7.51079V5.23025C14 4.14837 13.7597 3.33017 13.2145 2.78498C12.6693 2.23979 11.8511 1.99948 10.7692 1.99948H8.48869C7.40681 1.99948 6.5886 2.23979 6.04341 2.78498C5.49822 3.33017 5.25792 4.14837 5.25792 5.23025V5.2574H5.23077C4.14889 5.2574 3.33068 5.4977 2.78549 6.04289C2.2403 6.58808 2 7.40629 2 8.48817V10.7687C2 11.8506 2.2403 12.6688 2.78549 13.214C3.33068 13.7592 4.14889 13.9995 5.23077 13.9995H7.51131C8.59319 13.9995 9.4114 13.7592 9.95659 13.214C10.5018 12.6688 10.7421 11.8506 10.7421 10.7687V10.7416ZM5.23077 6.39767C4.39877 6.39767 3.8929 6.54058 3.58804 6.84544C3.28318 7.1503 3.14027 7.65617 3.14027 8.48817V10.7687C3.14027 11.6007 3.28318 12.1066 3.58804 12.4114C3.8929 12.7163 4.39877 12.8592 5.23077 12.8592H7.51131C8.34332 12.8592 8.84919 12.7163 9.15405 12.4114C9.45891 12.1066 9.60181 11.6007 9.60181 10.7687L9.60181 8.48817C9.60181 7.65617 9.45891 7.15029 9.15405 6.84544C8.84919 6.54058 8.34332 6.39767 7.51131 6.39767H5.23077ZM10.7692 9.60129H10.7421V8.48817C10.7421 7.40629 10.5018 6.58808 9.95659 6.04289C9.4114 5.4977 8.59319 5.2574 7.51131 5.2574H6.39819V5.23025C6.39819 4.39825 6.54109 3.89238 6.84595 3.58752C7.15081 3.28266 7.65669 3.13975 8.48869 3.13975H10.7692C11.6012 3.13975 12.1071 3.28266 12.412 3.58752C12.7168 3.89238 12.8597 4.39825 12.8597 5.23025V7.51079C12.8597 8.3428 12.7168 8.84867 12.412 9.15353C12.1071 9.45839 11.6012 9.60129 10.7692 9.60129Z" fill="#DF74FF"/>
</svg>
