<svg width="16" height="16" viewBox="0 0 16 16" fill="none" xmlns="http://www.w3.org/2000/svg">
<path fill-rule="evenodd" clip-rule="evenodd" d="M10.7421 10.7421H10.7692C11.8511 10.7421 12.6693 10.5018 13.2145 9.95659C13.7597 9.4114 14 8.5932 14 7.51131V5.23077C14 4.14889 13.7597 3.33068 13.2145 2.78549C12.6693 2.2403 11.8511 2 10.7692 2H8.48869C7.40681 2 6.5886 2.2403 6.04341 2.78549C5.49822 3.33068 5.25792 4.14889 5.25792 5.23077V5.25792H5.23077C4.14889 5.25792 3.33068 5.49822 2.78549 6.04341C2.2403 6.5886 2 7.40681 2 8.48869V10.7692C2 11.8511 2.2403 12.6693 2.78549 13.2145C3.33068 13.7597 4.14889 14 5.23077 14H7.51131C8.5932 14 9.4114 13.7597 9.95659 13.2145C10.5018 12.6693 10.7421 11.8511 10.7421 10.7692V10.7421ZM5.23077 6.39819C4.39877 6.39819 3.8929 6.54109 3.58804 6.84595C3.28318 7.15081 3.14027 7.65669 3.14027 8.48869V10.7692C3.14027 11.6012 3.28318 12.1071 3.58804 12.412C3.8929 12.7168 4.39877 12.8597 5.23077 12.8597H7.51131C8.34332 12.8597 8.84919 12.7168 9.15405 12.412C9.45891 12.1071 9.60181 11.6012 9.60181 10.7692L9.60181 8.48869C9.60181 7.65668 9.45891 7.15081 9.15405 6.84595C8.84919 6.54109 8.34332 6.39819 7.51131 6.39819H5.23077ZM10.7692 9.60181H10.7421V8.48869C10.7421 7.40681 10.5018 6.5886 9.95659 6.04341C9.4114 5.49822 8.5932 5.25792 7.51131 5.25792H6.39819V5.23077C6.39819 4.39877 6.54109 3.8929 6.84595 3.58804C7.15081 3.28318 7.65669 3.14027 8.48869 3.14027H10.7692C11.6012 3.14027 12.1071 3.28318 12.412 3.58804C12.7168 3.8929 12.8597 4.39877 12.8597 5.23077V7.51131C12.8597 8.34332 12.7168 8.84919 12.412 9.15405C12.1071 9.45891 11.6012 9.60181 10.7692 9.60181Z" fill="#FCFCFD"/>
</svg>
