<svg width="17" height="17" viewBox="0 0 17 17" fill="none" xmlns="http://www.w3.org/2000/svg">
<path d="M9.38683 9.76666H10.8335V12.38C10.8335 13.1506 10.5683 13.71 10.1754 14.0788C9.77763 14.4523 9.20974 14.6667 8.54683 14.6667H4.62016C3.95725 14.6667 3.38937 14.4523 2.99156 14.0788C2.59873 13.71 2.3335 13.1506 2.3335 12.38V7.95332C2.3335 7.18272 2.59873 6.62332 2.99156 6.25451C3.38937 5.88104 3.95725 5.66666 4.62016 5.66666H6.7335V7.11332C6.7335 8.58381 7.92503 9.76666 9.38683 9.76666Z" fill="#8d94b8" stroke="#8d94b8"/>
<path d="M11.0667 2.33334H12.38C13.0429 2.33334 13.6108 2.54772 14.0086 2.9212C14.4014 3.29001 14.6667 3.84941 14.6667 4.62001V5.93334V7.74001V9.05334C14.6667 9.80366 14.4141 10.3511 14.0386 10.7168C13.7673 10.9811 13.4128 11.1689 13 11.2619V10.4067V8.60001V7.28668C13 6.27061 12.6419 5.43668 12.0264 4.85882C11.4159 4.28563 10.5904 4.00001 9.71334 4.00001H8.40001H7.67334H6.23617C6.34039 3.52684 6.56364 3.16184 6.85452 2.89762C7.24931 2.53902 7.80527 2.33334 8.45334 2.33334H10.34H11.0667Z" fill="#8d94b8" stroke="#8d94b8"/>
<path d="M9.3138 8.0667L9.3138 8.06665H9.30676C8.80679 8.06665 8.42676 7.67467 8.42676 7.23332V5.91839C9.06225 6.56257 9.92913 7.43445 10.5666 8.07321C10.1211 8.0729 9.66503 8.07165 9.3138 8.0667Z" fill="#8d94b8" stroke="#8d94b8"/>
</svg>
