<svg width="36" height="25" viewBox="0 0 36 25" fill="none" xmlns="http://www.w3.org/2000/svg">
<path d="M17.9957 0.203128C17.6878 0.202594 17.3851 0.282578 17.1172 0.435236C16.8492 0.587893 16.6254 0.807981 16.4675 1.07392L10.554 11.0924L3.402 5.1888C3.11588 4.95308 2.76376 4.81307 2.39475 4.7883C2.02575 4.76353 1.65826 4.85523 1.34354 5.05062C1.02881 5.246 0.782552 5.53533 0.639097 5.87824C0.495641 6.22115 0.462145 6.60056 0.543278 6.96354L4.09587 22.8123C4.18513 23.2071 4.40503 23.5598 4.71955 23.8125C5.03406 24.0651 5.42456 24.2029 5.82706 24.2031H30.1644C30.5678 24.2041 30.9595 24.0669 31.2751 23.8141C31.5907 23.5613 31.8113 23.208 31.9008 22.8123L35.4551 6.96354C35.5381 6.59936 35.5055 6.21819 35.3619 5.87362C35.2184 5.52904 34.9711 5.23839 34.6548 5.04253C34.3386 4.84666 33.9692 4.75544 33.5988 4.78167C33.2283 4.80791 32.8753 4.95029 32.5895 5.1888L25.4444 11.0924L19.524 1.07392C19.3661 0.807981 19.1422 0.587892 18.8743 0.435235C18.6064 0.282578 18.3036 0.202594 17.9957 0.203128Z" fill="white"/>
</svg>
