<svg width="19" height="19" viewBox="0 0 19 19" fill="none" xmlns="http://www.w3.org/2000/svg">
<path fill-rule="evenodd" clip-rule="evenodd" d="M3.23379 2.4375C3.01538 2.4375 2.81034 2.5224 2.66265 2.66656C2.51574 2.80996 2.4375 2.99955 2.4375 3.19231V6.48558H6.63078V2.4375H3.23379ZM3.23379 0.5625C2.53255 0.5625 1.85559 0.834189 1.35298 1.32477C0.849596 1.81611 0.5625 2.48741 0.5625 3.19231V15.0385C0.5625 15.7434 0.849596 16.4147 1.35298 16.906C1.85559 17.3966 2.53255 17.6683 3.23379 17.6683H9.30207C9.81984 17.6683 10.2396 17.2485 10.2396 16.7308C10.2396 16.213 9.81984 15.7933 9.30207 15.7933H8.50578V8.36058H16.1666V9.11539C16.1666 9.63315 16.5864 10.0529 17.1041 10.0529C17.6219 10.0529 18.0416 9.63315 18.0416 9.11539V3.19231C18.0416 2.48741 17.7546 1.81611 17.2512 1.32477C16.7486 0.834189 16.0716 0.5625 15.3704 0.5625H3.23379ZM8.50578 2.4375V6.48558H16.1666V3.19231C16.1666 2.99955 16.0884 2.80996 15.9415 2.66656C15.7938 2.5224 15.5888 2.4375 15.3704 2.4375H8.50578ZM6.63078 8.36058H2.4375V15.0385C2.4375 15.2312 2.51574 15.4208 2.66265 15.5642C2.81034 15.7084 3.01538 15.7933 3.23379 15.7933H6.63078V8.36058ZM15.3712 11.1394C15.889 11.1394 16.3087 11.5592 16.3087 12.0769V12.5759C16.582 12.6767 16.8386 12.8216 17.0673 13.0067L17.5389 12.741C17.9899 12.4868 18.5617 12.6463 18.8159 13.0974C19.0701 13.5485 18.9105 14.1202 18.4594 14.3744L18.0098 14.6278C18.0314 14.7627 18.0425 14.8999 18.0425 15.0385C18.0425 15.1769 18.0314 15.3141 18.0098 15.4488L18.46 15.7023C18.9112 15.9564 19.0709 16.5281 18.8169 16.9792C18.5628 17.4304 17.9912 17.5902 17.54 17.3361L17.0675 17.0701C16.8388 17.2552 16.5821 17.4002 16.3087 17.501V18C16.3087 18.5178 15.889 18.9375 15.3712 18.9375C14.8534 18.9375 14.4337 18.5178 14.4337 18V17.501C14.1605 17.4002 13.904 17.2554 13.6753 17.0704L13.2034 17.3361C12.7523 17.5902 12.1806 17.4304 11.9265 16.9792C11.6725 16.5281 11.8323 15.9564 12.2834 15.7023L12.7327 15.4494C12.711 15.3144 12.6999 15.1771 12.6999 15.0385C12.6999 14.8998 12.711 14.7625 12.7327 14.6276L12.2834 14.3746C11.8323 14.1205 11.6725 13.5488 11.9265 13.0977C12.1806 12.6465 12.7523 12.4868 13.2034 12.7408L13.6753 13.0065C13.904 12.8216 14.1605 12.6767 14.4337 12.5759V12.0769C14.4337 11.5592 14.8534 11.1394 15.3712 11.1394ZM14.6653 14.6893C14.6729 14.6772 14.6802 14.6649 14.6873 14.6523C14.6877 14.6516 14.6881 14.6509 14.6885 14.6502C14.7196 14.6011 14.7568 14.5549 14.8001 14.5127C14.9477 14.3686 15.1528 14.2837 15.3712 14.2837C15.5896 14.2837 15.7947 14.3686 15.9423 14.5127C16.0893 14.6561 16.1675 14.8457 16.1675 15.0385C16.1675 15.2312 16.0893 15.4208 15.9423 15.5642C15.7947 15.7084 15.5896 15.7933 15.3712 15.7933C15.1528 15.7933 14.9477 15.7084 14.8001 15.5642C14.7568 15.522 14.7196 15.4759 14.6885 15.4268C14.6881 15.4261 14.6877 15.4253 14.6873 15.4246C14.6802 15.4121 14.6729 15.3997 14.6653 15.3876C14.6058 15.2796 14.5749 15.1597 14.5749 15.0385C14.5749 14.9173 14.6058 14.7973 14.6653 14.6893Z" fill="#FCFCFD"/>
</svg>
