<svg width="16" height="16" viewBox="0 0 16 16" fill="none" xmlns="http://www.w3.org/2000/svg">
<path fill-rule="evenodd" clip-rule="evenodd" d="M7.13779 2.00049C6.38377 2.00049 5.77252 2.61174 5.77252 3.36576V3.94061H3.11384C2.9551 3.94061 2.82642 4.06929 2.82642 4.22803V4.80288C2.82642 4.96162 2.9551 5.09031 3.11384 5.09031H3.70786L4.19109 11.7812C4.2115 12.0639 4.22918 12.3088 4.25988 12.5104C4.29239 12.724 4.34532 12.9346 4.46073 13.1354C4.63377 13.4364 4.89364 13.6782 5.20635 13.8291C5.41491 13.9297 5.62883 13.9674 5.84417 13.9844C6.04741 14.0005 6.29297 14.0005 6.57639 14.0005H6.57646H9.42353H9.42359C9.70702 14.0005 9.95254 14.0005 10.1558 13.9844C10.3711 13.9674 10.585 13.9297 10.7936 13.8291C11.1063 13.6782 11.3662 13.4364 11.5392 13.1354C11.6546 12.9346 11.7076 12.724 11.7401 12.5104C11.7708 12.3089 11.7884 12.0639 11.8089 11.7812L11.8089 11.7812L12.2921 5.09031H12.8863C13.045 5.09031 13.1737 4.96162 13.1737 4.80288V4.22803C13.1737 4.06929 13.045 3.94061 12.8863 3.94061H10.2276V3.36576C10.2276 2.61174 9.61636 2.00049 8.86234 2.00049H7.13779ZM8.86234 3.00648C9.06077 3.00648 9.22162 3.16733 9.22162 3.36576V3.94061H6.77851V3.36576C6.77851 3.16733 6.93936 3.00648 7.13779 3.00648H8.86234ZM7.49707 7.102C7.49707 6.94326 7.36839 6.81458 7.20965 6.81458H6.77851C6.61977 6.81458 6.49108 6.94326 6.49108 7.102V10.5511C6.49108 10.7098 6.61977 10.8385 6.77851 10.8385H7.20965C7.36839 10.8385 7.49707 10.7098 7.49707 10.5511V7.102ZM9.50905 10.5511C9.50905 10.7098 9.38036 10.8385 9.22162 10.8385H8.79048C8.63174 10.8385 8.50306 10.7098 8.50306 10.5511V7.102C8.50306 6.94326 8.63174 6.81458 8.79048 6.81458H9.22162C9.38036 6.81458 9.50905 6.94326 9.50905 7.102V10.5511Z" fill="#F65B93"/>
</svg>
