<svg width="20" height="20" viewBox="0 0 20 20" fill="none" xmlns="http://www.w3.org/2000/svg">
<path fill-rule="evenodd" clip-rule="evenodd" d="M3.95786 5.08592C3.95786 4.46022 4.4651 3.95298 5.09081 3.95298H14.9097C15.5354 3.95298 16.0426 4.46022 16.0426 5.08592V6.21887C16.0426 6.63601 16.3808 6.97417 16.7979 6.97417C17.2151 6.97417 17.5532 6.63601 17.5532 6.21887V5.08592C17.5532 3.62594 16.3697 2.44238 14.9097 2.44238H5.09081C3.63082 2.44238 2.44727 3.62594 2.44727 5.08592V6.21887C2.44727 6.63601 2.78542 6.97417 3.20256 6.97417C3.6197 6.97417 3.95786 6.63601 3.95786 6.21887V5.08592ZM5.8461 5.08592C6.26324 5.08592 6.6014 5.42408 6.6014 5.84122V13.1283C6.6014 13.5454 6.93956 13.8836 7.3567 13.8836C7.77384 13.8836 8.112 14.2218 8.112 14.6389C8.112 15.056 7.77384 15.3942 7.3567 15.3942C6.10528 15.3942 5.09081 14.3797 5.09081 13.1283V5.84122C5.09081 5.42408 5.42897 5.08592 5.8461 5.08592ZM14.1544 5.08592C13.7372 5.08592 13.3991 5.42408 13.3991 5.84122V13.1283C13.3991 13.5454 13.0609 13.8836 12.6438 13.8836C12.2266 13.8836 11.8885 14.2218 11.8885 14.6389C11.8885 15.056 12.2266 15.3942 12.6438 15.3942C13.8952 15.3942 14.9097 14.3797 14.9097 13.1283V5.84122C14.9097 5.42408 14.5715 5.08592 14.1544 5.08592ZM10.7558 16.6871C10.7558 17.1042 10.4176 17.4424 10.0005 17.4424C9.58334 17.4424 9.24518 17.1042 9.24518 16.6871V12.1044L8.58409 12.6333C8.25836 12.8939 7.78306 12.8411 7.52247 12.5153C7.26189 12.1896 7.3147 11.7143 7.64043 11.4537L9.29276 10.1319C9.70653 9.80085 10.2945 9.80085 10.7082 10.1319L12.3606 11.4537C12.6863 11.7143 12.7391 12.1896 12.4785 12.5153C12.2179 12.8411 11.7426 12.8939 11.4169 12.6333L10.7558 12.1044V16.6871Z" fill="#FCFCFD"/>
</svg>
