<svg width="16" height="16" viewBox="0 0 16 16" fill="none" xmlns="http://www.w3.org/2000/svg">
<path d="M2.7373 14.6532L3.0097 14.1186H3.0097L2.7373 14.6532ZM1.3468 13.2627L1.8814 12.9903H1.8814L1.3468 13.2627ZM14.6532 13.2627L14.1186 12.9903L14.6532 13.2627ZM13.2627 14.6532L12.9903 14.1186L13.2627 14.6532ZM13.2627 1.3468L12.9903 1.8814V1.8814L13.2627 1.3468ZM14.6532 2.7373L14.1186 3.0097V3.0097L14.6532 2.7373ZM2.7373 1.3468L3.0097 1.8814L2.7373 1.3468ZM1.3468 2.7373L1.8814 3.0097L1.3468 2.7373ZM6.09091 1V1.6H9.90909V1V0.4H6.09091V1ZM15 6.09091H14.4V9.90909H15H15.6V6.09091H15ZM9.90909 15V14.4H6.09091V15V15.6H9.90909V15ZM1 9.90909H1.6V6.09091H1H0.4V9.90909H1ZM6.09091 15V14.4C5.19002 14.4 4.55043 14.3995 4.04996 14.3586C3.55649 14.3183 3.25133 14.2417 3.0097 14.1186L2.7373 14.6532L2.46491 15.1878C2.9039 15.4115 3.38456 15.5083 3.95224 15.5547C4.51291 15.6005 5.20982 15.6 6.09091 15.6V15ZM1 9.90909H0.4C0.4 10.7902 0.399533 11.4871 0.445342 12.0478C0.491724 12.6154 0.588514 13.0961 0.812193 13.5351L1.3468 13.2627L1.8814 12.9903C1.75828 12.7487 1.68168 12.4435 1.64136 11.95C1.60047 11.4496 1.6 10.81 1.6 9.90909H1ZM2.7373 14.6532L3.0097 14.1186C2.5239 13.8711 2.12893 13.4761 1.8814 12.9903L1.3468 13.2627L0.812193 13.5351C1.17477 14.2467 1.75331 14.8252 2.46491 15.1878L2.7373 14.6532ZM15 9.90909H14.4C14.4 10.81 14.3995 11.4496 14.3586 11.95C14.3183 12.4435 14.2417 12.7487 14.1186 12.9903L14.6532 13.2627L15.1878 13.5351C15.4115 13.0961 15.5083 12.6154 15.5547 12.0478C15.6005 11.4871 15.6 10.7902 15.6 9.90909H15ZM9.90909 15V15.6C10.7902 15.6 11.4871 15.6005 12.0478 15.5547C12.6154 15.5083 13.0961 15.4115 13.5351 15.1878L13.2627 14.6532L12.9903 14.1186C12.7487 14.2417 12.4435 14.3183 11.95 14.3586C11.4496 14.3995 10.81 14.4 9.90909 14.4V15ZM14.6532 13.2627L14.1186 12.9903C13.8711 13.4761 13.4761 13.8711 12.9903 14.1186L13.2627 14.6532L13.5351 15.1878C14.2467 14.8252 14.8252 14.2467 15.1878 13.5351L14.6532 13.2627ZM9.90909 1V1.6C10.81 1.6 11.4496 1.60047 11.95 1.64136C12.4435 1.68168 12.7487 1.75828 12.9903 1.8814L13.2627 1.3468L13.5351 0.812193C13.0961 0.588514 12.6154 0.491724 12.0478 0.445342C11.4871 0.399533 10.7902 0.4 9.90909 0.4V1ZM15 6.09091H15.6C15.6 5.20982 15.6005 4.51291 15.5547 3.95224C15.5083 3.38456 15.4115 2.9039 15.1878 2.46491L14.6532 2.7373L14.1186 3.0097C14.2417 3.25133 14.3183 3.55649 14.3586 4.04996C14.3995 4.55043 14.4 5.19002 14.4 6.09091H15ZM13.2627 1.3468L12.9903 1.8814C13.4761 2.12893 13.8711 2.5239 14.1186 3.0097L14.6532 2.7373L15.1878 2.46491C14.8252 1.75331 14.2467 1.17477 13.5351 0.812193L13.2627 1.3468ZM6.09091 1V0.4C5.20982 0.4 4.51291 0.399533 3.95224 0.445342C3.38456 0.491724 2.9039 0.588514 2.46491 0.812193L2.7373 1.3468L3.0097 1.8814C3.25133 1.75828 3.55649 1.68168 4.04996 1.64136C4.55043 1.60047 5.19002 1.6 6.09091 1.6V1ZM1 6.09091H1.6C1.6 5.19002 1.60047 4.55043 1.64136 4.04996C1.68168 3.55649 1.75828 3.25133 1.8814 3.0097L1.3468 2.7373L0.812193 2.46491C0.588514 2.9039 0.491724 3.38456 0.445342 3.95224C0.399533 4.51291 0.4 5.20982 0.4 6.09091H1ZM2.7373 1.3468L2.46491 0.812193C1.75331 1.17477 1.17477 1.75331 0.812193 2.46491L1.3468 2.7373L1.8814 3.0097C2.12893 2.5239 2.5239 2.12893 3.0097 1.8814L2.7373 1.3468Z" fill="#9191A4"/>
<path d="M2.5 9.7749V5.7749H3.92535C4.58638 5.7749 5.09343 5.94955 5.44648 6.29885C5.80329 6.64439 5.98169 7.13828 5.98169 7.78054C5.98169 8.41903 5.80704 8.91105 5.45775 9.25659C5.10845 9.60213 4.60892 9.7749 3.95915 9.7749H2.5ZM3.48028 8.9749H3.92535C4.28592 8.9749 4.5507 8.87725 4.71972 8.68194C4.88873 8.48664 4.97324 8.18429 4.97324 7.7749C4.97324 7.36551 4.88873 7.06317 4.71972 6.86786C4.5507 6.67255 4.28592 6.5749 3.92535 6.5749H3.48028V8.9749Z" fill="#9191A4"/>
<path d="M6.3871 9.7749V5.7749H9.26034V6.5749H7.36739V7.36927H9.19274V8.16927H7.36739V8.9749H9.30541V9.7749H6.3871Z" fill="#9191A4"/>
<path d="M9.49093 9.7749L10.8656 7.76927L9.5022 5.7749H10.6346L11.4515 7.03687L12.2402 5.7749H13.3783L12.0205 7.758L13.3952 9.7749H12.2628L11.4402 8.4904L10.629 9.7749H9.49093Z" fill="#9191A4"/>
</svg>
