<svg width="16" height="16" viewBox="0 0 16 16" fill="none" xmlns="http://www.w3.org/2000/svg">
<path d="M13.9375 0.875042C13.4126 0.875042 12.9092 1.08356 12.538 1.45473C12.1669 1.82589 11.9583 2.3293 11.9583 2.85421C11.9583 3.13683 12.0201 3.40521 12.1278 3.64983L10.58 5.39071C10.0538 5.02883 9.43036 4.83455 8.79167 4.83338C8.20583 4.83338 7.66433 5.00438 7.19329 5.28146L5.39304 3.482L5.37483 3.50021C5.53 3.18513 5.625 2.83442 5.625 2.45838C5.625 1.98864 5.48571 1.52946 5.22474 1.1389C4.96377 0.748329 4.59285 0.443919 4.15887 0.264161C3.7249 0.0844031 3.24737 0.0373701 2.78666 0.12901C2.32596 0.22065 1.90277 0.446847 1.57062 0.778997C1.23847 1.11115 1.01228 1.53433 0.920636 1.99504C0.828996 2.45574 0.876029 2.93327 1.05579 3.36725C1.23555 3.80122 1.53995 4.17215 1.93052 4.43312C2.32109 4.69408 2.78027 4.83338 3.25 4.83338C3.62604 4.83338 3.97596 4.73838 4.29183 4.58321L4.27363 4.60142L6.07388 6.40088C5.78319 6.88388 5.62813 7.43632 5.625 8.00004C5.625 8.78933 5.92583 9.50342 6.40479 10.0592L4.36467 12.0985C4.13586 12.0075 3.89208 11.96 3.64583 11.9584C2.55492 11.9584 1.66667 12.8458 1.66667 13.9375C1.66667 15.0293 2.55492 15.9167 3.64583 15.9167C4.73675 15.9167 5.625 15.0293 5.625 13.9375C5.625 13.6834 5.57275 13.442 5.48488 13.2179L7.73163 10.9712C8.06492 11.0899 8.418 11.1667 8.79167 11.1667C10.5381 11.1667 11.9583 9.74646 11.9583 8.00004C11.9583 7.49654 11.8293 7.02708 11.6195 6.60354L13.2955 4.717C13.4981 4.78667 13.7119 4.83338 13.9375 4.83338C15.0292 4.83338 15.9167 3.94592 15.9167 2.85421C15.9167 1.7625 15.0292 0.875042 13.9375 0.875042ZM8.79167 9.58337C7.91846 9.58337 7.20833 8.87325 7.20833 8.00004C7.20833 7.12683 7.91846 6.41671 8.79167 6.41671C9.66488 6.41671 10.375 7.12683 10.375 8.00004C10.375 8.87325 9.66488 9.58337 8.79167 9.58337Z" fill="#00FFA3"/>
</svg>
