<svg width="16" height="16" viewBox="0 0 16 16" fill="none" xmlns="http://www.w3.org/2000/svg">
<path d="M12.3933 3.92663C11.5733 3.54663 10.7 3.26663 9.77996 3.10663C9.66662 3.30663 9.53329 3.57996 9.44662 3.79996C8.47329 3.6533 7.50662 3.6533 6.5533 3.79996C6.45996 3.57996 6.32663 3.30663 6.2133 3.10663C5.2933 3.26663 4.41996 3.54663 3.59996 3.92663C1.94663 6.41996 1.49996 8.85332 1.71996 11.2466C2.81996 12.0666 3.87996 12.56 4.92663 12.8866C5.18663 12.5333 5.4133 12.1533 5.6133 11.76C5.2333 11.62 4.8733 11.44 4.5333 11.2333C4.62663 11.1666 4.7133 11.0933 4.79996 11.0266C6.88662 12 9.14662 12 11.2066 11.0266C11.2933 11.1 11.38 11.1666 11.4733 11.2333C11.1333 11.44 10.7666 11.6133 10.3933 11.76C10.5933 12.1533 10.82 12.5333 11.08 12.8866C12.1266 12.56 13.1933 12.0666 14.2866 11.2466C14.5466 8.46665 13.84 6.05996 12.4066 3.92663H12.3933ZM5.8933 9.77998C5.26663 9.77998 4.7533 9.19998 4.7533 8.48665C4.7533 7.77331 5.2533 7.19332 5.8933 7.19332C6.5333 7.19332 7.03996 7.77331 7.03329 8.48665C7.03329 9.19332 6.5333 9.77998 5.8933 9.77998ZM10.1 9.77998C9.47329 9.77998 8.95996 9.19998 8.95996 8.48665C8.95996 7.77331 9.45996 7.19332 10.1 7.19332C10.74 7.19332 11.2466 7.77331 11.24 8.48665C11.24 9.19332 10.74 9.77998 10.1 9.77998Z" fill="#FCFCFD"/>
</svg>
