<svg width="16" height="16" viewBox="0 0 16 16" fill="none" xmlns="http://www.w3.org/2000/svg">
<path d="M2.73364 9.5H13.2668C13.7101 9.50004 13.8914 9.59666 13.9778 9.68848C14.0713 9.78805 14.1662 10.0004 14.1663 10.4863V13.1797C14.1663 13.6661 14.0714 13.879 13.9778 13.9785C13.8914 14.0703 13.7101 14.167 13.2668 14.167H2.73364C2.29068 14.167 2.10921 14.0703 2.02271 13.9785C1.92909 13.879 1.83325 13.6661 1.83325 13.1797V10.4863C1.8333 10.0001 1.92912 9.78796 2.02271 9.68848C2.10915 9.59668 2.29041 9.5 2.73364 9.5Z" fill="#8d93b7" stroke="#8d93b7"/>
<path d="M2.73364 1.83301H8.59985C9.04328 1.83301 9.22439 1.92965 9.31079 2.02148C9.40437 2.12099 9.5002 2.33319 9.50024 2.81934V5.5127C9.50024 5.99915 9.4044 6.21202 9.31079 6.31152C9.22435 6.40332 9.04307 6.5 8.59985 6.5H2.73364C2.29068 6.5 2.10921 6.40327 2.02271 6.31152C1.92909 6.21202 1.83325 5.99915 1.83325 5.5127V2.81934L1.83716 2.64941C1.85676 2.28178 1.94082 2.10852 2.02271 2.02148C2.10915 1.92968 2.29041 1.83301 2.73364 1.83301Z" fill="#8d93b7" stroke="#8d93b7"/>
</svg>
