<svg viewBox="0 0 16 16" fill="none" xmlns="http://www.w3.org/2000/svg">
<path fill-rule="evenodd" clip-rule="evenodd" d="M3.33333 3.29166C3.14547 3.29166 2.9653 3.36628 2.83247 3.49912C2.69963 3.63196 2.625 3.81213 2.625 3.99999V12C2.625 12.1879 2.69963 12.368 2.83247 12.5009C2.9653 12.6337 3.14547 12.7083 3.33333 12.7083H12.6667C12.8545 12.7083 13.0347 12.6337 13.1675 12.5009C13.3004 12.368 13.375 12.1879 13.375 12V3.99999C13.375 3.81213 13.3004 3.63196 13.1675 3.49912C13.0347 3.36628 12.8545 3.29166 12.6667 3.29166H3.33333ZM1.94858 2.61524C2.31584 2.24798 2.81395 2.04166 3.33333 2.04166H12.6667C13.186 2.04166 13.6842 2.24798 14.0514 2.61524C14.4187 2.9825 14.625 3.48061 14.625 3.99999V12C14.625 12.5194 14.4187 13.0175 14.0514 13.3847C13.6842 13.752 13.186 13.9583 12.6667 13.9583H3.33333C2.81395 13.9583 2.31584 13.752 1.94858 13.3847C1.58132 13.0175 1.375 12.5194 1.375 12V3.99999C1.375 3.48061 1.58132 2.9825 1.94858 2.61524ZM4.04167 5.33332C4.04167 4.98815 4.32149 4.70832 4.66667 4.70832H11.3333C11.6785 4.70832 11.9583 4.98815 11.9583 5.33332C11.9583 5.6785 11.6785 5.95832 11.3333 5.95832H4.66667C4.32149 5.95832 4.04167 5.6785 4.04167 5.33332ZM4.04167 7.99999C4.04167 7.65481 4.32149 7.37499 4.66667 7.37499H11.3333C11.6785 7.37499 11.9583 7.65481 11.9583 7.99999C11.9583 8.34517 11.6785 8.62499 11.3333 8.62499H4.66667C4.32149 8.62499 4.04167 8.34517 4.04167 7.99999ZM4.04167 10.6667C4.04167 10.3215 4.32149 10.0417 4.66667 10.0417H11.3333C11.6785 10.0417 11.9583 10.3215 11.9583 10.6667C11.9583 11.0118 11.6785 11.2917 11.3333 11.2917H4.66667C4.32149 11.2917 4.04167 11.0118 4.04167 10.6667Z" fill="#FCFCFD"/>
</svg>
