<svg width="20" height="20" viewBox="0 0 20 20" fill="none" xmlns="http://www.w3.org/2000/svg">
<path d="M5.83331 5.83332H4.99998C4.55795 5.83332 4.13403 6.00891 3.82147 6.32147C3.50891 6.63403 3.33331 7.05795 3.33331 7.49998V15C3.33331 15.442 3.50891 15.8659 3.82147 16.1785C4.13403 16.4911 4.55795 16.6666 4.99998 16.6666H12.5C12.942 16.6666 13.3659 16.4911 13.6785 16.1785C13.9911 15.8659 14.1666 15.442 14.1666 15V14.1666M13.3333 4.16665L15.8333 6.66665M16.9875 5.48748C17.3157 5.15928 17.5001 4.71413 17.5001 4.24998C17.5001 3.78583 17.3157 3.34069 16.9875 3.01248C16.6593 2.68428 16.2141 2.49989 15.75 2.49989C15.2858 2.49989 14.8407 2.68428 14.5125 3.01248L7.49998 9.99998V12.5H9.99998L16.9875 5.48748Z" stroke="white" stroke-width="1.66667" stroke-linecap="round" stroke-linejoin="round"/>
</svg>
