<svg width="164" height="82" viewBox="0 0 164 82" fill="none" xmlns="http://www.w3.org/2000/svg">
<ellipse opacity="0.1" cx="81.875" cy="78.5" rx="81.5" ry="3.5" fill="#9191A4"/>
<path d="M63.8459 24.8064V11.6016H29.5366V60.3967H44.2742V24.8064H63.8459Z" fill="#9191A4"/>
<path d="M9.84586 11.6016H23.9939V24.8064H9.84586V11.6016Z" fill="#9191A4"/>
<path d="M49.6971 47.1979H63.8452V60.4026H49.6971V47.1979Z" fill="#9191A4"/>
<path d="M135.467 12.5079L135.787 12.5236C141.034 13.0822 144.975 14.2777 148.723 16.8905C149.171 17.2032 149.509 17.6488 149.69 18.1643C154.577 32.0376 155.871 44.2326 153.469 50.2179C150.857 55.4514 146.681 59.492 142.024 59.492C140.117 59.492 137.613 56.9653 135.959 54.1541C137.806 53.8173 139.634 53.3878 141.437 52.8672C141.767 52.773 142.074 52.6147 142.342 52.4014C142.61 52.1881 142.833 51.924 143 51.6242C143.166 51.3244 143.271 50.9947 143.31 50.654C143.349 50.3132 143.321 49.9681 143.227 49.6384C143.133 49.3086 142.975 49.0007 142.762 48.7321C142.549 48.4635 142.286 48.2396 141.987 48.0731C141.687 47.9065 141.358 47.8007 141.018 47.7616C140.678 47.7225 140.334 47.7509 140.005 47.8452C131.357 50.3249 124.037 50.3249 115.389 47.8452C114.724 47.6548 114.011 47.7368 113.407 48.0731C112.803 48.4094 112.356 48.9724 112.166 49.6384C111.976 50.3044 112.058 51.0187 112.394 51.6242C112.729 52.2297 113.291 52.6769 113.956 52.8672C115.824 53.3997 117.644 53.833 119.434 54.1567C117.78 56.9627 115.277 59.492 113.37 59.492C108.712 59.492 104.537 55.4514 101.835 50.0195C99.5222 44.2326 100.819 32.035 105.704 18.1643C105.885 17.6488 106.223 17.2032 106.67 16.8905C110.418 14.2777 114.36 13.0822 119.606 12.5236C120.077 12.4733 120.552 12.5524 120.981 12.7525C121.41 12.9525 121.777 13.2659 122.041 13.659L122.206 13.9383L123.901 17.2925L124.258 17.2507C126.547 17.0158 128.854 17.0158 131.143 17.2507L131.492 17.2925L133.185 13.9409C133.375 13.5645 133.652 13.2397 133.994 12.9942C134.336 12.7488 134.733 12.59 135.149 12.5314L135.467 12.5079ZM119.882 30.7795C118.637 30.7795 117.433 31.2262 116.489 32.0387C115.544 32.8513 114.921 33.9759 114.732 35.2091L114.685 35.611L114.672 36L114.685 36.3915C114.761 37.4044 115.131 38.3731 115.748 39.1788C116.365 39.9845 117.203 40.5923 118.16 40.9277C119.117 41.263 120.151 41.3114 121.135 41.0668C122.119 40.8223 123.01 40.2954 123.699 39.5509C124.389 38.8063 124.847 37.8763 125.016 36.8749C125.186 35.8735 125.061 34.8442 124.656 33.9132C124.251 32.9821 123.583 32.1897 122.735 31.6331C121.887 31.0765 120.896 30.7798 119.882 30.7795ZM135.511 30.7795C134.266 30.7795 133.063 31.2262 132.118 32.0387C131.173 32.8513 130.55 33.9759 130.361 35.2091L130.315 35.611L130.302 36L130.315 36.3915C130.391 37.4044 130.76 38.3731 131.377 39.1788C131.994 39.9845 132.833 40.5923 133.79 40.9277C134.746 41.263 135.78 41.3114 136.764 41.0668C137.748 40.8223 138.639 40.2954 139.329 39.5509C140.018 38.8063 140.476 37.8763 140.646 36.8749C140.816 35.8735 140.69 34.8442 140.285 33.9132C139.88 32.9821 139.212 32.1897 138.365 31.6331C137.517 31.0765 136.525 30.7798 135.511 30.7795Z" fill="#9191A4"/>
<path d="M79.4348 33.0919L75.309 33.0919C72.0538 33.0919 69.415 35.7362 69.415 38.998C69.415 42.2599 72.0538 44.9042 75.309 44.9042L79.4349 44.9042C79.7604 44.9042 80.0243 44.6397 80.0243 44.3136L80.0243 43.1323C80.0243 42.8061 79.7604 42.5417 79.4349 42.5417L75.309 42.5417C73.3559 42.5417 71.7726 40.9552 71.7726 38.998C71.7726 37.0409 73.3559 35.4544 75.309 35.4544L79.4348 35.4544C79.7604 35.4544 80.0243 35.19 80.0243 34.8638L80.0243 33.6825C80.0243 33.3564 79.7604 33.0919 79.4348 33.0919Z" fill="#9191A4"/>
<path d="M84.1501 44.9042C83.8246 44.9042 83.5607 44.6397 83.5607 44.3136L83.5607 43.1323C83.5607 42.8061 83.8246 42.5417 84.1501 42.5417L88.2759 42.5417C90.229 42.5417 91.8123 40.9552 91.8123 38.998C91.8123 37.0409 90.229 35.4544 88.2759 35.4544L84.1501 35.4544C83.8246 35.4544 83.5607 35.1899 83.5607 34.8638L83.5607 33.6825C83.5607 33.3564 83.8246 33.0919 84.1501 33.0919L88.2759 33.0919C91.5311 33.0919 94.1699 35.7362 94.1699 38.998C94.17 42.2599 91.5311 44.9042 88.2759 44.9042L84.1501 44.9042Z" fill="#9191A4"/>
<path d="M77.6666 37.8168C77.3411 37.8168 77.0772 38.0812 77.0772 38.4074L77.0772 39.5887C77.0772 39.9148 77.3411 40.1793 77.6666 40.1793L85.9183 40.1793C86.2438 40.1793 86.5077 39.9148 86.5077 39.5887L86.5077 38.4074C86.5077 38.0812 86.2438 37.8168 85.9183 37.8168H77.6666Z" fill="#9191A4"/>
</svg>
