<svg width="20" height="20" viewBox="0 0 20 20" fill="none" xmlns="http://www.w3.org/2000/svg">
<path fill-rule="evenodd" clip-rule="evenodd" d="M3.47826 11.1958C4.01854 11.1958 4.45652 11.6338 4.45652 12.1741V15.0726C4.45652 15.1975 4.50615 15.3173 4.59448 15.4057C4.68281 15.494 4.80261 15.5436 4.92754 15.5436H15.0725C15.1974 15.5436 15.3172 15.494 15.4055 15.4057C15.4939 15.3173 15.5435 15.1975 15.5435 15.0726V12.1741C15.5435 11.6338 15.9815 11.1958 16.5217 11.1958C17.062 11.1958 17.5 11.6338 17.5 12.1741V15.0726C17.5 15.7164 17.2442 16.3339 16.789 16.7891C16.3337 17.2444 15.7163 17.5002 15.0725 17.5002H4.92754C4.28371 17.5002 3.66626 17.2444 3.21101 16.7891C2.75576 16.3339 2.5 15.7164 2.5 15.0726V12.1741C2.5 11.6338 2.93798 11.1958 3.47826 11.1958Z" fill="#FCFCFD"/>
<path d="M10 13.1523C9.74056 13.1523 9.49173 13.0493 9.30827 12.8658L5.68509 9.24261C5.30305 8.86058 5.30305 8.24118 5.68509 7.85914C6.06712 7.47711 6.68652 7.47711 7.06855 7.85914L9.02175 9.81234V3.47841C9.02175 2.93813 9.45973 2.50015 10 2.50015C10.5403 2.50015 10.9783 2.93813 10.9783 3.47841V9.81234L12.9315 7.85914C13.3135 7.47711 13.9329 7.47711 14.3149 7.85914C14.697 8.24118 14.697 8.86058 14.3149 9.24261L10.6917 12.8658C10.5083 13.0493 10.2595 13.1523 10 13.1523Z" fill="#FCFCFD"/>
</svg>
