<svg width="16" height="16" viewBox="0 0 16 16" fill="none" xmlns="http://www.w3.org/2000/svg">
<path d="M8.39381 2L8.42649 2.00339C8.85088 2.04741 9.22622 2.30174 9.42266 2.68326L9.42693 2.69156L10.6793 5.2146L13.4758 5.62029C13.9485 5.68812 14.3436 6.01448 14.4999 6.46415L14.5038 6.47536C14.6543 6.93616 14.5243 7.4414 14.1719 7.77294L14.1708 7.774L12.0721 9.76044L12.5712 12.5227C12.6573 13.0012 12.4569 13.4852 12.0599 13.7633C11.67 14.0444 11.1559 14.0764 10.7348 13.8525L8.23285 12.5475L8.19586 12.5475L5.72621 13.8414C5.48428 13.963 5.20932 14.0063 4.93945 13.963L4.93072 13.9616L4.92202 13.96C4.24895 13.8326 3.8004 13.1917 3.91058 12.5159L3.91235 12.505L4.4129 9.73845L2.37882 7.7669C2.03225 7.43065 1.91014 6.92424 2.06816 6.46657C2.21994 6.02103 2.60578 5.69505 3.07228 5.62163L3.07984 5.62044L5.89924 5.21147L5.90785 5.21059L7.14364 2.67694L7.1474 2.66969C7.20598 2.55704 7.28405 2.4483 7.38331 2.35272L7.40747 2.32945L7.45162 2.29511C7.51184 2.23707 7.57727 2.18851 7.6456 2.14865L7.69411 2.12035L7.79678 2.08267L7.99756 2H8.39381Z" fill="#FCBE78"/>
</svg>
