<svg width="12" height="12" viewBox="0 0 12 12" fill="none" xmlns="http://www.w3.org/2000/svg">
<path fill-rule="evenodd" clip-rule="evenodd" d="M1.5 2.00195C1.5 1.72581 1.72386 1.50195 2 1.50195H10C10.2761 1.50195 10.5 1.72581 10.5 2.00195V3.08795C10.4999 3.48572 10.3418 3.86727 10.0606 4.14851C10.0605 4.14852 10.0606 4.14849 10.0606 4.14851L8 6.20906V9.50195C8 9.71717 7.86229 9.90824 7.65811 9.9763L4.65811 10.9763C4.50564 11.0271 4.33803 11.0015 4.20764 10.9076C4.07726 10.8136 4 10.6627 4 10.502V6.44526L1.89003 4.12429C1.63912 3.84823 1.50004 3.48855 1.5 3.11551V2.00195ZM2.5 2.50195V3.1154C2.5 3.11538 2.5 3.11542 2.5 3.1154C2.50003 3.23971 2.54636 3.35962 2.62997 3.45162C2.62996 3.45161 2.62998 3.45163 2.62997 3.45162L4.86997 5.91562C4.95364 6.00765 5 6.12757 5 6.25195V9.80824L7 9.14157V6.00195C7 5.86934 7.05268 5.74217 7.14645 5.6484L9.35345 3.4414C9.4472 3.34768 9.49994 3.22051 9.5 3.08795C9.5 3.08792 9.5 3.08799 9.5 3.08795V2.50195H2.5Z" fill="#777E90"/>
</svg>
