<svg width="16" height="16" viewBox="0 0 16 16" fill="none" xmlns="http://www.w3.org/2000/svg">
<path d="M14 5.20665V10.7933C14 11.8741 13.6804 12.6567 13.1686 13.1686C12.6568 13.6804 11.8741 14 10.7933 14H7.16667V1.99998H10.7933C11.8741 1.99998 12.6568 2.31955 13.1686 2.83138C13.6804 3.34322 14 4.12589 14 5.20665Z" fill="#8d93b7" stroke="#8d93b7" stroke-width="1.33333"/>
<path d="M4.83398 13.9866C3.94406 13.9212 3.28296 13.6195 2.83206 13.1686C2.32022 12.6567 2.00065 11.8741 2.00065 10.7933V5.20665C2.00065 4.12589 2.32022 3.34322 2.83206 2.83138C3.28296 2.38048 3.94406 2.07879 4.83398 2.01335V13.9866Z" fill="#8d93b7" stroke="#8d93b7" stroke-width="1.33333"/>
</svg>
