<svg width="14" height="15" viewBox="0 0 14 15" fill="none" xmlns="http://www.w3.org/2000/svg">
<path d="M9.44425 1.66699H4.55591C2.43258 1.66699 1.16675 2.93283 1.16675 5.05616V9.93866C1.16675 12.0678 2.43258 13.3337 4.55591 13.3337H9.43842C11.5617 13.3337 12.8276 12.0678 12.8276 9.94449V5.05616C12.8334 2.93283 11.5676 1.66699 9.44425 1.66699ZM4.95842 4.22199C5.55925 4.22199 6.05508 4.71199 6.05508 5.31866C6.05508 5.92533 5.56508 6.41533 4.95842 6.41533C4.35175 6.41533 3.86175 5.91366 3.86175 5.31283C3.86175 4.71199 4.35758 4.22199 4.95842 4.22199ZM7.00008 11.6303C5.43091 11.6303 4.15341 10.3528 4.15341 8.78366C4.15341 8.37533 4.48592 8.03699 4.89425 8.03699H9.09425C9.50258 8.03699 9.83508 8.36949 9.83508 8.78366C9.84675 10.3528 8.56925 11.6303 7.00008 11.6303ZM9.04175 6.40366C8.44092 6.40366 7.94508 5.91366 7.94508 5.30699C7.94508 4.70033 8.43508 4.21033 9.04175 4.21033C9.64842 4.21033 10.1384 4.70033 10.1384 5.30699C10.1384 5.91366 9.64258 6.40366 9.04175 6.40366Z" fill="#c6d396"/>
</svg>
