<svg width="32" height="32" viewBox="0 0 32 32" fill="none" xmlns="http://www.w3.org/2000/svg">
<rect width="32" height="32" rx="16"/>
<path d="M16 6C13.38 6 11.25 8.13 11.25 10.75C11.25 13.32 13.26 15.4 15.88 15.49C15.96 15.48 16.04 15.48 16.1 15.49C16.12 15.49 16.13 15.49 16.15 15.49C16.16 15.49 16.16 15.49 16.17 15.49C18.73 15.4 20.74 13.32 20.75 10.75C20.75 8.13 18.62 6 16 6Z" fill="#8d94b8"/>
<path d="M21.08 18.15C18.29 16.29 13.74 16.29 10.93 18.15C9.65999 19 8.95999 20.15 8.95999 21.38C8.95999 22.61 9.65999 23.75 10.92 24.59C12.32 25.53 14.16 26 16 26C17.84 26 19.68 25.53 21.08 24.59C22.34 23.74 23.04 22.6 23.04 21.36C23.03 20.13 22.34 18.99 21.08 18.15Z" fill="#8d94b8"/>
</svg>
