<svg width="16" height="16" viewBox="0 0 16 16" fill="none" xmlns="http://www.w3.org/2000/svg">
<g clip-path="url(#clip0_0_3735)">
<g filter="url(#filter0_d_0_3735)">
<path d="M13.9512 6.66C9.54458 6.05467 5.74458 9.32667 5.99992 13.6667M4.33325 5.33333C4.33325 5.68695 4.47373 6.02609 4.72378 6.27614C4.97382 6.52619 5.31296 6.66667 5.66658 6.66667C6.02021 6.66667 6.35935 6.52619 6.60939 6.27614C6.85944 6.02609 6.99992 5.68695 6.99992 5.33333C6.99992 4.97971 6.85944 4.64057 6.60939 4.39052C6.35935 4.14048 6.02021 4 5.66658 4C5.31296 4 4.97382 4.14048 4.72378 4.39052C4.47373 4.64057 4.33325 4.97971 4.33325 5.33333Z" stroke="#9191A4" stroke-width="1.008" stroke-linecap="round" stroke-linejoin="round" shape-rendering="crispEdges"/>
</g>
<g filter="url(#filter1_d_0_3735)">
<path d="M2 8.71047C3.85333 8.45381 5.51667 9.34914 6.416 10.7771" stroke="#9191A4" stroke-width="1.008" stroke-linecap="round" stroke-linejoin="round" shape-rendering="crispEdges"/>
</g>
<g filter="url(#filter2_d_0_3735)">
<path d="M2 6.26667C2 4.77333 2 4.02667 2.29067 3.456C2.54633 2.95426 2.95426 2.54633 3.456 2.29067C4.02667 2 4.77333 2 6.26667 2H9.73333C11.2267 2 11.9733 2 12.544 2.29067C13.0457 2.54633 13.4537 2.95426 13.7093 3.456C14 4.02667 14 4.77333 14 6.26667V9.73333C14 11.2267 14 11.9733 13.7093 12.544C13.4537 13.0457 13.0457 13.4537 12.544 13.7093C11.9733 14 11.2267 14 9.73333 14H6.26667C4.77333 14 4.02667 14 3.456 13.7093C2.95426 13.4537 2.54633 13.0457 2.29067 12.544C2 11.9733 2 11.2267 2 9.73333V6.26667Z" stroke="#9191A4" stroke-width="1.008" stroke-linecap="round" stroke-linejoin="round" shape-rendering="crispEdges"/>
</g>
</g>
<defs>
<filter id="filter0_d_0_3735" x="0.629347" y="3.49597" width="17.026" height="17.0747" filterUnits="userSpaceOnUse" color-interpolation-filters="sRGB">
<feFlood flood-opacity="0" result="BackgroundImageFix"/>
<feColorMatrix in="SourceAlpha" type="matrix" values="0 0 0 0 0 0 0 0 0 0 0 0 0 0 0 0 0 0 127 0" result="hardAlpha"/>
<feOffset dy="3.2"/>
<feGaussianBlur stdDeviation="1.6"/>
<feComposite in2="hardAlpha" operator="out"/>
<feColorMatrix type="matrix" values="0 0 0 0 0 0 0 0 0 0 0 0 0 0 0 0 0 0 0.25 0"/>
<feBlend mode="normal" in2="BackgroundImageFix" result="effect1_dropShadow_0_3735"/>
<feBlend mode="normal" in="SourceGraphic" in2="effect1_dropShadow_0_3735" result="shape"/>
</filter>
<filter id="filter1_d_0_3735" x="-1.70415" y="8.1626" width="11.8243" height="9.51859" filterUnits="userSpaceOnUse" color-interpolation-filters="sRGB">
<feFlood flood-opacity="0" result="BackgroundImageFix"/>
<feColorMatrix in="SourceAlpha" type="matrix" values="0 0 0 0 0 0 0 0 0 0 0 0 0 0 0 0 0 0 127 0" result="hardAlpha"/>
<feOffset dy="3.2"/>
<feGaussianBlur stdDeviation="1.6"/>
<feComposite in2="hardAlpha" operator="out"/>
<feColorMatrix type="matrix" values="0 0 0 0 0 0 0 0 0 0 0 0 0 0 0 0 0 0 0.25 0"/>
<feBlend mode="normal" in2="BackgroundImageFix" result="effect1_dropShadow_0_3735"/>
<feBlend mode="normal" in="SourceGraphic" in2="effect1_dropShadow_0_3735" result="shape"/>
</filter>
<filter id="filter2_d_0_3735" x="-1.70391" y="1.49597" width="19.4078" height="19.408" filterUnits="userSpaceOnUse" color-interpolation-filters="sRGB">
<feFlood flood-opacity="0" result="BackgroundImageFix"/>
<feColorMatrix in="SourceAlpha" type="matrix" values="0 0 0 0 0 0 0 0 0 0 0 0 0 0 0 0 0 0 127 0" result="hardAlpha"/>
<feOffset dy="3.2"/>
<feGaussianBlur stdDeviation="1.6"/>
<feComposite in2="hardAlpha" operator="out"/>
<feColorMatrix type="matrix" values="0 0 0 0 0 0 0 0 0 0 0 0 0 0 0 0 0 0 0.25 0"/>
<feBlend mode="normal" in2="BackgroundImageFix" result="effect1_dropShadow_0_3735"/>
<feBlend mode="normal" in="SourceGraphic" in2="effect1_dropShadow_0_3735" result="shape"/>
</filter>
<clipPath id="clip0_0_3735">
<rect width="16" height="16" fill="white"/>
</clipPath>
</defs>
</svg>
