<svg width="16" height="16" viewBox="0 0 16 16" fill="none" xmlns="http://www.w3.org/2000/svg">
<path fill-rule="evenodd" clip-rule="evenodd" d="M8 2C8.20756 2 8.40662 2.08245 8.55339 2.22922L11.4519 5.12777C11.7576 5.4334 11.7576 5.92892 11.4519 6.23455C11.1463 6.54018 10.6508 6.54018 10.3452 6.23455L8.78261 4.67199V9.73913C8.78261 10.1714 8.43222 10.5217 8 10.5217C7.56778 10.5217 7.21739 10.1714 7.21739 9.73913V4.67199L5.65484 6.23455C5.34921 6.54018 4.85369 6.54018 4.54806 6.23455C4.24243 5.92892 4.24243 5.4334 4.54806 5.12777L7.44661 2.22922C7.59338 2.08245 7.79244 2 8 2ZM2.78261 8.95652C3.21483 8.95652 3.56522 9.30691 3.56522 9.73913V12.058C3.56522 12.1579 3.60492 12.2538 3.67558 12.3244C3.74625 12.3951 3.84209 12.4348 3.94203 12.4348H12.058C12.1579 12.4348 12.2538 12.3951 12.3244 12.3244C12.3951 12.2538 12.4348 12.1579 12.4348 12.058V9.73913C12.4348 9.30691 12.7852 8.95652 13.2174 8.95652C13.6496 8.95652 14 9.30691 14 9.73913V12.058C14 12.573 13.7954 13.067 13.4312 13.4312C13.067 13.7954 12.573 14 12.058 14H3.94203C3.42697 14 2.93301 13.7954 2.56881 13.4312C2.20461 13.067 2 12.573 2 12.058V9.73913C2 9.30691 2.35039 8.95652 2.78261 8.95652Z" fill="#FCFCFD"/>
</svg>
