<svg width="16" height="16" viewBox="0 0 16 16" fill="none" xmlns="http://www.w3.org/2000/svg">
<path d="M12.6667 7.33366H14M12.6667 7.33366L12.2103 4.13884C12.0896 3.2943 11.3663 2.66699 10.5132 2.66699H5.48679C4.63368 2.66699 3.91038 3.2943 3.78974 4.13884L3.33333 7.33366M12.6667 7.33366H3.33333M2 7.33366H3.33333" stroke="#9191A4" stroke-width="1.2" stroke-linecap="round" stroke-linejoin="round"/>
<path d="M6.66031 11.1818C6.58255 10.1483 5.71938 9.33398 4.66602 9.33398C3.56145 9.33398 2.66602 10.2294 2.66602 11.334C2.66602 12.4386 3.56145 13.334 4.66602 13.334C5.77059 13.334 6.66602 12.4386 6.66602 11.334C6.66602 11.2828 6.66409 11.232 6.66031 11.1818ZM6.66031 11.1818C7.41987 10.4959 8.57875 10.4958 9.33841 11.1815M9.33841 11.1815C9.33461 11.2319 9.33268 11.2827 9.33268 11.334C9.33268 12.4386 10.2281 13.334 11.3327 13.334C12.4373 13.334 13.3327 12.4386 13.3327 11.334C13.3327 10.2294 12.4373 9.33398 11.3327 9.33398C10.2794 9.33398 9.41629 10.1482 9.33841 11.1815Z" stroke="#9191A4" stroke-width="1.2" stroke-linecap="round" stroke-linejoin="round"/>
</svg>
