<svg width="12" height="12" viewBox="0 0 12 12" fill="none" xmlns="http://www.w3.org/2000/svg">
<path d="M0.195262 5.5286L5.62623 0.0976311C5.7564 -0.0325437 5.96746 -0.0325437 6.09763 0.0976311L6.56904 0.569035C6.69921 0.69921 6.69921 0.910265 6.56904 1.04044L2.27614 5.33333H11.6667C11.8508 5.33333 12 5.48257 12 5.66667V6.33333C12 6.51743 11.8508 6.66667 11.6667 6.66667H2.27614L6.56904 10.9596C6.69921 11.0897 6.69921 11.3008 6.56904 11.431L6.09763 11.9024C5.96746 12.0325 5.7564 12.0325 5.62623 11.9024L0.195262 6.4714C-0.0650874 6.21105 -0.0650874 5.78894 0.195262 5.5286Z" fill="#FCFCFD"/>
</svg>
