<svg width="40" height="48" viewBox="0 0 40 48" fill="none" xmlns="http://www.w3.org/2000/svg">
<path d="M32.6774 8.63931L33.4806 7.52022L33.4081 7.60943L33.4539 7.52022L27.9456 7.50366L27.4731 8.61634L32.6774 8.63931Z" fill="#200429"/>
<path d="M33.481 7.51929L32.6778 8.63837L32.6489 8.67577L32.6794 8.63837L35.1434 11.2019C35.1336 11.2083 35.1358 11.2104 35.1434 11.2104L36.3057 10.5304V10.5213L33.481 7.51929Z" fill="#200429"/>
<path d="M33.5959 33.7206L34.5501 34.4199L36.3052 10.5286L35.1429 11.2086L33.5959 33.7206Z" fill="#200429"/>
<path d="M19.9998 39.6635V41.008L34.55 34.4216L33.5959 33.7224L19.9998 39.6635Z" fill="#200429"/>
<path d="M12.5269 8.61561L12.0544 7.50294L12.0697 7.48584L20.0006 2.69434V4.10027L12.5269 8.61561Z" fill="#140502"/>
<path d="M7.32173 8.63931L6.51855 7.52022L6.59103 7.60943L6.54525 7.52022L12.0536 7.50366L12.526 8.61634L7.32173 8.63931Z" fill="#140502"/>
<path d="M6.51906 7.51929L7.32223 8.63837L7.35111 8.67577L7.32059 8.63837L4.85659 11.2019C4.8664 11.2083 4.86422 11.2104 4.85659 11.2104L3.69434 10.5304V10.5213L6.51906 7.51929Z" fill="#3B0F06"/>
<path d="M6.40408 33.7206L5.44943 34.4199L3.69434 10.5286L4.85714 11.2086L6.40408 33.7206Z" fill="#140502"/>
<path d="M20.0005 39.6635V41.008L5.44971 34.4216L6.40436 33.7224L20.0005 39.6635Z" fill="#140502"/>
<path d="M27.473 8.61561L27.9454 7.50294L27.9307 7.48584L19.9998 2.69434V4.10027L27.473 8.61561Z" fill="#140502"/>
<path d="M32.6774 8.63931L33.4806 7.52022L33.4081 7.60943L33.4539 7.52022L27.9456 7.50366L27.4731 8.61634L32.6774 8.63931Z" fill="#3B0F06"/>
<path d="M33.481 7.51929L32.6778 8.63837L32.6489 8.67577L32.6794 8.63837L35.1434 11.2019C35.1336 11.2083 35.1358 11.2104 35.1434 11.2104L36.3057 10.5304V10.5213L33.481 7.51929Z" fill="#140502"/>
<path d="M33.5959 33.7206L34.5501 34.4199L36.3052 10.5286L35.1429 11.2086L33.5959 33.7206Z" fill="#140502"/>
<path d="M19.9998 39.6635V41.008L34.55 34.4216L33.5959 33.7224L19.9998 39.6635Z" fill="#140502"/>
<path d="M38.6816 9.35669L40.0002 10.5303L38.25 39.2488L36.6709 36.383L38.6816 9.35669Z" fill="#7D3C15"/>
<path d="M3.69401 10.5204L6.5596 7.48529H6.5863L5.33523 6.24121L2.03809 9.92859C2.03809 9.92859 3.58721 10.5247 3.69401 10.5295V10.521V10.5204Z" fill="#B15814"/>
<path d="M3.69401 10.5297C3.58667 10.5248 2.03809 9.92871 2.03809 9.92871L3.97136 35.4076L5.44911 34.4209L3.69401 10.5297Z" fill="#E27C29"/>
<path d="M33.481 7.51895L36.3058 10.521V10.5295C36.4131 10.5247 37.9617 9.92859 37.9617 9.92859L34.6645 6.24121L33.4543 7.51841H33.481V7.51895Z" fill="#832A0C"/>
<path d="M2.03841 9.92932L1.3186 9.35669L3.32926 36.383L3.97168 35.4082L2.03841 9.92932Z" fill="#522B09"/>
<path d="M36.0286 35.4082L36.6704 36.383L38.6811 9.35669L37.9613 9.92932L36.0286 35.4082Z" fill="#DC741E"/>
<path d="M5.33555 6.24061L4.73835 5.46606L1.3186 9.35536L2.03841 9.92799L5.33555 6.24061Z" fill="#522B09"/>
<path d="M37.9617 9.92799L38.6815 9.35536L35.2618 5.46606L34.6646 6.24061L37.9617 9.92799Z" fill="#DC741E"/>
<path d="M19.9998 43.9281V47.9995L38.2493 39.2477L36.6702 36.3818L19.9998 43.9281Z" fill="#752D0A"/>
<path d="M19.9998 42.6624V43.9278L36.6702 36.3816L36.0283 35.4067L19.9998 42.6624Z" fill="#AC4711"/>
<path d="M34.55 34.4224L19.9998 41.0087V42.6646L36.0283 35.409L34.55 34.4224Z" fill="#DC741E"/>
<path d="M3.32885 36.3818L1.74976 39.2477L19.9998 47.9995V43.9281L3.32885 36.3818Z" fill="#5B2606"/>
<path d="M19.9996 42.6624L3.97104 35.4067L3.32861 36.3816L19.9996 43.9278V42.6624Z" fill="#67340A"/>
<path d="M5.44943 34.4224L3.97168 35.409L20.0002 42.6646V41.0087L5.44943 34.4224Z" fill="#984615"/>
<path d="M1.3184 9.35669L-0.000244141 10.5303L1.74995 39.2488L3.32905 36.383L1.3184 9.35669Z" fill="#974D0F"/>
<path d="M34.5498 34.4209L36.0276 35.4076L37.9608 9.92871C37.9608 9.92871 36.4117 10.5248 36.3049 10.5297L34.5498 34.4209Z" fill="#832A0C"/>
<path d="M4.73804 5.46606L5.33524 6.24061H12.7932L14.3597 5.46606H4.73804Z" fill="#DC741E"/>
<path d="M35.2615 5.46606H26.5427V6.24061H34.6643L35.2615 5.46606Z" fill="#DC741E"/>
<path d="M5.33496 6.24121L6.58603 7.48529L12.0535 7.50185L11.9113 6.24121H5.33496Z" fill="#AC4711"/>
<path d="M34.6643 6.24121H26.856L27.9457 7.50185L33.4541 7.51841L34.6643 6.24121Z" fill="#832A0C"/>
<path d="M20.0003 0.998318V0.000488281L10.7764 5.57295L11.2472 6.2866L20.0003 0.998318Z" fill="#7D3A15"/>
<path d="M19.9997 2.69277V0.997314L11.2466 6.2856L12.0536 7.49336L19.9997 2.69277Z" fill="#E27C29"/>
<path d="M28.7524 6.2866L29.2231 5.57295L19.9998 0.000488281V0.998318L28.7524 6.2866Z" fill="#E27C29"/>
<path d="M27.9454 7.49336L28.7524 6.2856L19.9998 0.997314V2.69277L27.9454 7.49336Z" fill="#AC4711"/>
<path d="M-0.000244141 10.5289L4.73814 5.46606L1.3184 9.35536L-0.000244141 10.5289Z" fill="#974D0F"/>
<path d="M39.9999 10.5289L38.6812 9.35536L35.2615 5.46606L39.9999 10.5289Z" fill="#7D3C15"/>
<path d="M19.9998 5.47852V37.8952L32.1242 32.4071L33.8504 11.5771L31.9111 9.47838H26.7493L19.9998 5.47852Z" fill="url(#paint0_linear_0_12014)"/>
<path d="M8.08839 9.47838L6.14966 11.5771L7.87588 32.4071L20.0003 37.8952V5.47852L13.2507 9.47838H8.08839Z" fill="url(#paint1_linear_0_12014)"/>
<path d="M6.14917 11.5776L4.85669 11.2004C4.8665 11.2068 4.86432 11.209 4.85669 11.2085L6.40364 33.7205L7.87539 32.407L6.14917 11.577V11.5776Z" fill="#2F1C78"/>
<path d="M8.0879 9.47952L7.35883 8.60669L4.85669 11.2012L6.14863 11.5783L8.0879 9.47952Z" fill="#0053DB"/>
<path d="M35.1427 11.2004L33.8502 11.5776L32.124 32.4075L33.5958 33.7211L35.1427 11.209C35.1351 11.209 35.1329 11.2074 35.1427 11.201V11.2004Z" fill="#0053DB"/>
<path d="M27.4734 8.61621L26.7498 9.47943H31.9088L32.6128 8.72358L32.6776 8.63918L27.4734 8.61621Z" fill="#0053DB"/>
<path d="M20.0001 5.48088V4.10059L12.5264 8.61593L13.2505 9.48075L20.0001 5.48088Z" fill="#0053DB"/>
<path d="M32.611 8.7218L31.9114 9.47979L33.8506 11.5785L35.1431 11.2014L32.6791 8.63794L32.611 8.7218Z" fill="#73B0FF"/>
<path d="M7.35913 8.60669L7.42833 8.69109L8.08929 9.47792H13.2505L12.5263 8.6147L7.35913 8.60669Z" fill="#73B0FF"/>
<path d="M26.7493 9.48075L27.473 8.61593L19.9998 4.10059V5.48088L26.7493 9.48075Z" fill="#73B0FF"/>
<path d="M19.9998 37.898V39.6645L33.5959 33.7234L32.1242 32.4099L19.9998 37.898Z" fill="#2F1C78"/>
<path d="M7.87532 32.4099L6.40356 33.7234L19.9997 39.6645V37.898L7.87532 32.4099Z" fill="#1D0F42"/>
<path d="M31.2298 16.8254L30.3956 17.788V17.7843L19.9936 22.0427L19.9854 22.0389V22.4503H19.9838V22.0389L19.9756 22.0427L12.3493 17.6449V17.6486L12.4555 17.928L8.7481 16.8292L8.38574 17.9509L8.85707 22.1543L9.33495 25.9304L19.9778 30.4847H19.9816L19.9854 30.107L19.9892 30.4847H19.993L30.6571 25.7621L31.1137 22.1543L31.5911 17.9477L31.2282 16.8254H31.2298ZM8.82438 17.7747L8.82547 17.7864L8.44841 17.6267L8.82384 17.7747H8.82438Z" fill="#1A0061"/>
<path d="M8.74902 16.8296L8.76428 16.8259V16.8296L20.0076 21.4245L20.0152 21.7653L9.09884 15.7068L8.74902 16.8296Z" fill="#8C1505"/>
<path d="M30.715 21.4067L30.2747 25.014L19.9942 29.7371H19.9904L19.9866 29.3589V25.7362L19.9942 26.1144L30.715 21.4067Z" fill="#A82B01"/>
<path d="M31.2299 16.8254V16.8292L30.715 21.4059L19.9942 26.136L19.9866 25.7578V21.3867L19.9942 21.7649L31.2299 16.8254Z" fill="#A82B01"/>
<path d="M31.2451 16.8296L31.2299 16.8259V16.8296L19.9866 21.9085L19.9942 21.7653L30.8953 15.7068L31.2451 16.8296Z" fill="#A82B01"/>
<path d="M9.2583 21.4067L9.71873 25.1823L19.9785 29.7371H19.9823L19.9861 29.3589V25.7362L19.9785 26.1144L9.2583 21.4067Z" fill="#8C1505"/>
<path d="M8.74268 16.8254V16.8292L9.25814 21.4059L19.9784 26.136L19.986 25.7578V21.3867L19.9784 21.7649L8.74268 16.8254Z" fill="#8C1505"/>
<path d="M30.3957 20.2849L29.896 24.8798L19.9942 28.9892H19.9904L19.9866 28.9855V24.9883L19.9942 24.992L30.3957 20.2849Z" fill="#DC741E"/>
<path d="M30.8953 15.7036V15.7068L30.3957 20.2841L19.9942 25.0137L19.9866 25.0099V20.6388L19.9942 20.6426L30.8953 15.7036Z" fill="#DC741E"/>
<path d="M20.0136 24.9665V28.984L20.0055 28.9877L10.0568 24.8575L9.55444 20.2418V20.238L20.0055 24.9703L20.0136 24.9665Z" fill="#AC4711"/>
<path d="M19.986 20.6388V25.0099L19.9784 25.0136L9.58072 20.2873V20.2841L9.08105 15.7068L19.9784 20.6425L19.986 20.6388Z" fill="#AC4711"/>
<path d="M30.8943 15.7036V15.7074L30.8524 16.1L19.9856 21.0507V20.2654L19.9932 20.2692L30.8943 15.7036Z" fill="#FFA65E"/>
<path d="M30.3985 20.238V20.2418L30.3947 20.2829L30.3565 20.6344L19.9856 25.3607V24.9494L19.9932 24.5792L30.3985 20.238Z" fill="#FFA65E"/>
<path d="M30.4404 19.8755L30.3985 20.2382V20.2419L19.9856 24.613V23.8652L30.4404 19.8755Z" fill="#A82B01"/>
<path d="M9.09888 15.7036V15.7074L9.14083 16.1L20.0076 21.0507V20.6393L20 20.2692L9.09888 15.7036Z" fill="#FFA65E"/>
<path d="M9.59497 20.238V20.2418L9.59879 20.2829L9.63693 20.6344L20.0079 25.3607V24.5755L20.0002 24.5792L9.59497 20.238Z" fill="#FFA65E"/>
<path d="M9.55298 19.8755L9.59493 20.2382V20.2419L20.0078 24.613V23.8652L9.55298 19.8755Z" fill="#8C1505"/>
<defs>
<linearGradient id="paint0_linear_0_12014" x1="26.9248" y1="7.18145" x2="26.9248" y2="33.2281" gradientUnits="userSpaceOnUse">
<stop stop-color="#008CFF"/>
<stop offset="1" stop-color="#0072C4"/>
</linearGradient>
<linearGradient id="paint1_linear_0_12014" x1="13.0747" y1="-0.00100243" x2="13.0747" y2="-0.00100243" gradientUnits="userSpaceOnUse">
<stop stop-color="#008CFF"/>
<stop offset="1" stop-color="#0072C4"/>
</linearGradient>
</defs>
</svg>
