<svg width="24" height="24" viewBox="0 0 24 24" fill="none" xmlns="http://www.w3.org/2000/svg">
<path fill-rule="evenodd" clip-rule="evenodd" d="M11.1467 5.92C8.26006 5.92 5.92 8.26006 5.92 11.1467C5.92 14.0333 8.26006 16.3733 11.1467 16.3733C12.5902 16.3733 13.8956 15.7894 14.8425 14.8425C15.7894 13.8956 16.3733 12.5902 16.3733 11.1467C16.3733 8.26006 14.0333 5.92 11.1467 5.92ZM4 11.1467C4 7.19967 7.19967 4 11.1467 4C15.0937 4 18.2933 7.19967 18.2933 11.1467C18.2933 12.7736 17.7488 14.2747 16.8334 15.4757L19.7188 18.3612C20.0937 18.7361 20.0937 19.3439 19.7188 19.7188C19.3439 20.0937 18.7361 20.0937 18.3612 19.7188L15.4757 16.8334C14.2747 17.7488 12.7736 18.2933 11.1467 18.2933C7.19967 18.2933 4 15.0937 4 11.1467Z" fill="#FCFCFD"/>
</svg>
