<svg width="16" height="16" viewBox="0 0 16 16" fill="none" xmlns="http://www.w3.org/2000/svg">
<g clip-path="url(#clip0_56_16104)">
<path d="M8 11.3497C10.7968 11.3497 13.064 9.08246 13.064 6.28571C13.064 3.48895 10.7968 1.22174 8 1.22174C5.20325 1.22174 2.93603 3.48895 2.93603 6.28571C2.93603 9.08246 5.20325 11.3497 8 11.3497ZM8 11.3497L4.50042 14.8492C4.23458 15.1151 3.78003 14.9268 3.78003 14.5509V13.8817C3.78003 12.9494 3.02429 12.1937 2.09204 12.1937H1.42284C1.04688 12.1937 0.858603 11.7391 1.12445 11.4733L3.35803 9.23969M8 11.3497L11.4996 14.8492C11.7654 15.1151 12.22 14.9268 12.22 14.5509V13.8817C12.22 12.9494 12.9757 12.1937 13.908 12.1937H14.5772C14.9531 12.1937 15.1414 11.7391 14.8756 11.4733L12.642 9.23969" stroke="#9191A4" stroke-width="1.19999" stroke-linecap="round"/>
<path d="M8.40737 9.20017H7.99466C7.90235 9.20017 7.82752 9.12345 7.82752 9.02874V8.6846C7.82752 8.59409 7.75886 8.51969 7.67109 8.50966C7.46212 8.48591 7.26001 8.4416 7.06467 8.3768C6.8749 8.31286 6.71049 8.23709 6.57144 8.14923C6.50754 8.10886 6.4843 8.02692 6.51072 7.95492L6.79381 7.18298C6.83195 7.07909 6.95495 7.03932 7.04967 7.09306C7.17755 7.16549 7.31504 7.22746 7.46195 7.27889C7.68095 7.35123 7.89112 7.3874 8.09238 7.3874C8.26543 7.3874 8.38912 7.36829 8.46326 7.32998C8.5374 7.28738 8.57452 7.22566 8.57452 7.14483C8.57452 7.05124 8.52506 6.98103 8.42615 6.93423C8.33083 6.88744 8.17183 6.83635 7.9494 6.78106C7.66329 6.70872 7.42492 6.63209 7.23421 6.55127C7.0435 6.46615 6.87747 6.32995 6.73621 6.14275C6.59492 5.95127 6.52429 5.69378 6.52429 5.37039C6.52429 4.9959 6.63555 4.67465 6.85801 4.40653C7.05858 4.16876 7.33544 4.00796 7.68875 3.92422C7.76829 3.90536 7.82752 3.83456 7.82752 3.75091V3.37162C7.82752 3.27691 7.90235 3.2002 7.99466 3.2002H8.40737C8.49969 3.2002 8.57452 3.27691 8.57452 3.37162V3.72922C8.57452 3.81682 8.63897 3.88976 8.72332 3.90322C9.03283 3.95251 9.3048 4.04585 9.53914 4.18325C9.60565 4.22225 9.63205 4.30522 9.60651 4.37928L9.34157 5.14804C9.30651 5.24996 9.18951 5.29307 9.0954 5.24439C8.79694 5.0901 8.51212 5.01296 8.24075 5.01296C7.91932 5.01296 7.75861 5.10656 7.75861 5.29376C7.75861 5.38316 7.80635 5.45121 7.90166 5.4981C7.99706 5.54061 8.15418 5.58741 8.37317 5.6385C8.65569 5.70236 8.89414 5.77675 9.08837 5.86187C9.2826 5.9427 9.45034 6.07675 9.59168 6.26404C9.73645 6.45124 9.80888 6.70658 9.80888 7.02998C9.80888 7.3874 9.70114 7.70017 9.48565 7.96829C9.29803 8.20194 9.03823 8.36549 8.70643 8.459C8.63014 8.48051 8.57452 8.54977 8.57452 8.63086V9.02874C8.57452 9.12345 8.49969 9.20017 8.40737 9.20017Z" fill="#9191A4"/>
</g>
<defs>
<clipPath id="clip0_56_16104">
<rect width="16" height="16" fill="white"/>
</clipPath>
</defs>
</svg>
