<svg width="4220" height="4220" viewBox="0 0 4220 4220" fill="none" xmlns="http://www.w3.org/2000/svg">
<g filter="url(#filter0_dddddi_558_78)">
<circle cx="2110" cy="2110" r="1270" fill="#171821"/>
<circle cx="2110" cy="2110" r="1190" stroke="black" stroke-width="160"/>
<circle cx="2110" cy="2110" r="1190" stroke="url(#paint0_linear_558_78)" stroke-width="160"/>
</g>
<path d="M2763.82 2428.7C2726.3 2428.7 2689.63 2430.11 2653.12 2428.27C2621.16 2426.65 2594.15 2396.59 2593.45 2364.71C2593.01 2344.66 2591.84 2324.15 2595.27 2304.6C2600.86 2272.67 2628.77 2251.61 2661.22 2251.29C2676.07 2251.13 2690.92 2251.8 2705.76 2251.81C2771.8 2251.84 2829.63 2202.95 2840.65 2137.75C2847.27 2098.57 2842.15 2061.41 2819.36 2028.11C2797.64 1996.36 2767.44 1978.71 2728.53 1978.6C2626.23 1978.31 2523.94 1978.49 2421.64 1978.51C2386.23 1978.51 2357.55 1993.03 2333.01 2018.04C2243.78 2108.97 2154.2 2199.55 2064.81 2290.32C2047.44 2307.95 2030.51 2326.02 2013.08 2343.59C1957.57 2399.52 1889.75 2427.64 1811.54 2428.39C1695.72 2429.51 1579.88 2429.35 1464.06 2428.44C1398.18 2427.93 1339.39 2404.55 1288.03 2364.09C1222.38 2312.36 1182.25 2244.46 1169.49 2161.81C1153.94 2061.09 1178.59 1970.62 1246.14 1893.73C1291.74 1841.83 1349.35 1809.76 1417.94 1797.59C1460.3 1790.07 1502.83 1795.31 1545.25 1793.8C1552.48 1793.54 1559.92 1793.27 1566.95 1794.63C1602.56 1801.47 1625.8 1829.6 1626.14 1865.87C1626.29 1882.36 1627.58 1899.08 1625.46 1915.31C1621.39 1946.43 1591.25 1971.2 1559.53 1971.8C1536.12 1972.23 1512.55 1971.11 1489.36 1973.6C1432.37 1979.72 1383.55 2030.43 1376.8 2087.52C1370.93 2137.23 1384.62 2179.47 1422.86 2212.63C1443.99 2230.96 1468.45 2241.32 1496.85 2241.32C1599.14 2241.28 1701.44 2241.63 1803.73 2241.1C1832.73 2240.94 1857.46 2228.58 1877.71 2207.94C1987.72 2095.79 2097.77 1983.67 2207.49 1871.24C2251.39 1826.25 2305.11 1802.02 2366.77 1796.19C2401.81 1792.87 2437.25 1793.12 2472.52 1792.95C2561.28 1792.53 2650.05 1792.62 2738.82 1792.8C2828.59 1792.99 2905.79 1823.96 2968.3 1888.98C3011.06 1933.46 3036.79 1987.28 3047.81 2047.52C3066.11 2147.46 3043.96 2238.38 2979.49 2317.07C2924.27 2384.46 2852.54 2422.71 2763.82 2428.7ZM1355.51 2003.44C1368.43 1984.04 1384.09 1967.23 1402.96 1953.52C1432.64 1931.95 1465.52 1918.64 1502.18 1914.8C1517.26 1913.22 1526.35 1903.12 1525.93 1889.53C1525.43 1873.2 1513.38 1864.53 1493.92 1866.14C1460.82 1868.88 1429.87 1878.88 1401.24 1895.27C1323.92 1939.57 1281.72 2006.98 1274.62 2095.36C1270.89 2141.74 1282.29 2185.73 1305.3 2226.37C1318.61 2249.88 1335.72 2270.35 1357.32 2286.64C1370.88 2296.86 1389.18 2292.73 1395.17 2278.67C1399.89 2267.61 1396.08 2258.16 1388.24 2249.81C1378.77 2239.72 1368.24 2230.36 1360.23 2219.2C1313.66 2154.33 1311.83 2072.45 1355.51 2003.44ZM2855.59 2299.66C2864.79 2290.7 2874.79 2282.41 2883.07 2272.66C2943.16 2201.86 2959.17 2121.21 2934.35 2032.41C2925.37 2000.25 2908.8 1971.66 2885.36 1947.6C2874.49 1936.44 2858.63 1935.91 2848.88 1945.09C2837.82 1955.52 2838.02 1968.79 2849.32 1981.78C2853.86 1987 2858.69 1992.07 2862.52 1997.78C2891.76 2041.46 2900.77 2089.34 2892.31 2141.01C2878.4 2225.92 2808.68 2294.46 2724.04 2306.11C2718.87 2306.82 2713.69 2308.28 2708.8 2310.15C2699.43 2313.74 2695.21 2321.64 2694.52 2330.99C2693.87 2339.73 2697.03 2348.25 2705.44 2351.45C2712.77 2354.23 2721.5 2355.65 2729.24 2354.67C2776.1 2348.73 2817.99 2330.74 2855.59 2299.66Z" fill="white"/>
<path d="M2323.47 2191.71C2329.94 2218.88 2364.44 2240.78 2399.65 2240.93C2431.95 2241.07 2464.26 2240.95 2496.56 2241.03C2519.8 2241.09 2531.51 2253.2 2531.47 2276.68C2531.41 2316.58 2531.42 2356.47 2531.45 2396.36C2531.46 2421.46 2520.35 2432.81 2495.6 2432.8C2459.67 2432.78 2423.73 2433.25 2387.81 2432.55C2316.89 2431.18 2254.64 2406.71 2201.04 2360.32C2194.11 2354.32 2187.99 2347.38 2181.28 2339.63C2183.2 2335.48 2185.02 2332.27 2187.51 2329.73C2223.71 2292.69 2259.97 2255.72 2296.27 2218.79C2305.24 2209.67 2314.4 2200.74 2323.47 2191.71Z" fill="#F23134"/>
<path d="M2323.47 2191.71C2329.94 2218.88 2364.44 2240.78 2399.65 2240.93C2431.95 2241.07 2464.26 2240.95 2496.56 2241.03C2519.8 2241.09 2531.51 2253.2 2531.47 2276.68C2531.41 2316.58 2531.42 2356.47 2531.45 2396.36C2531.46 2421.46 2520.35 2432.81 2495.6 2432.8C2459.67 2432.78 2423.73 2433.25 2387.81 2432.55C2316.89 2431.18 2254.64 2406.71 2201.04 2360.32C2194.11 2354.32 2187.99 2347.38 2181.28 2339.63C2183.2 2335.48 2185.02 2332.27 2187.51 2329.73C2223.71 2292.69 2259.97 2255.72 2296.27 2218.79C2305.24 2209.67 2314.4 2200.74 2323.47 2191.71Z" fill="url(#paint1_linear_558_78)"/>
<path d="M1895.22 2025.47C1878.28 1992.64 1850.29 1980.31 1814.61 1980.84C1783.94 1981.3 1753.26 1980.69 1722.59 1980.28C1700.3 1979.99 1688.28 1968 1688.17 1946C1687.98 1904.43 1687.92 1862.86 1688.02 1821.28C1688.08 1798.02 1698.65 1786.78 1721.8 1787C1768.6 1787.46 1815.67 1785.95 1862.14 1790.34C1930.23 1796.79 1989.59 1824.36 2036.1 1877.57C1989.21 1927.66 1942.22 1976.57 1895.22 2025.47Z" fill="#F23134"/>
<path d="M1895.22 2025.47C1878.28 1992.64 1850.29 1980.31 1814.61 1980.84C1783.94 1981.3 1753.26 1980.69 1722.59 1980.28C1700.3 1979.99 1688.28 1968 1688.17 1946C1687.98 1904.43 1687.92 1862.86 1688.02 1821.28C1688.08 1798.02 1698.65 1786.78 1721.8 1787C1768.6 1787.46 1815.67 1785.95 1862.14 1790.34C1930.23 1796.79 1989.59 1824.36 2036.1 1877.57C1989.21 1927.66 1942.22 1976.57 1895.22 2025.47Z" fill="url(#paint2_linear_558_78)"/>
<path d="M1895.25 2026.24C1942.19 1976.67 1989.18 1927.76 2036.41 1878.24C2044.71 1870.43 2052.53 1862.91 2060.93 1856.1C2070.62 1848.25 2083.21 1849.28 2091.08 1857.87C2099.19 1866.7 2099 1877.14 2089.52 1886.8C2038.34 1938.97 1986.95 1990.94 1935.68 2043.03C1922.32 2056.61 1900.23 2052.22 1895.25 2026.24Z" fill="white"/>
<path d="M2323.57 2190.87C2314.43 2200.64 2305.27 2209.57 2296.3 2218.69C2260 2255.62 2223.74 2292.59 2187.54 2329.62C2185.05 2332.17 2183.23 2335.38 2180.96 2338.87C2174.64 2344.8 2168.34 2350.02 2162.28 2355.51C2151.76 2365.03 2137.55 2366.08 2129.4 2357.73C2120.65 2348.78 2121.66 2336.11 2132.34 2325.22C2181.75 2274.85 2231.25 2224.56 2280.69 2174.2C2288.57 2166.17 2297.21 2160.77 2308.86 2165.61C2319.69 2170.12 2323.64 2178.99 2323.57 2190.87Z" fill="white"/>
<path d="M1355.12 2003.5C1311.86 2071.93 1313.69 2153.81 1360.25 2218.68C1368.26 2229.84 1378.79 2239.2 1388.27 2249.29C1396.11 2257.64 1399.91 2267.09 1395.2 2278.15C1389.2 2292.2 1370.9 2296.34 1357.34 2286.11C1335.74 2269.83 1318.64 2249.36 1305.32 2225.84C1282.31 2185.21 1270.91 2141.22 1274.64 2094.84C1281.74 2006.46 1323.95 1939.04 1401.27 1894.75C1429.89 1878.36 1460.84 1868.36 1493.95 1865.62C1513.41 1864.01 1525.45 1872.67 1525.96 1889.01C1526.37 1902.6 1517.28 1912.7 1502.2 1914.28C1465.55 1918.12 1432.67 1931.43 1402.99 1952.99C1384.11 1966.71 1368.46 1983.52 1355.12 2003.5Z" fill="#EF3033"/>
<path d="M1355.12 2003.5C1311.86 2071.93 1313.69 2153.81 1360.25 2218.68C1368.26 2229.84 1378.79 2239.2 1388.27 2249.29C1396.11 2257.64 1399.91 2267.09 1395.2 2278.15C1389.2 2292.2 1370.9 2296.34 1357.34 2286.11C1335.74 2269.83 1318.64 2249.36 1305.32 2225.84C1282.31 2185.21 1270.91 2141.22 1274.64 2094.84C1281.74 2006.46 1323.95 1939.04 1401.27 1894.75C1429.89 1878.36 1460.84 1868.36 1493.95 1865.62C1513.41 1864.01 1525.45 1872.67 1525.96 1889.01C1526.37 1902.6 1517.28 1912.7 1502.2 1914.28C1465.55 1918.12 1432.67 1931.43 1402.99 1952.99C1384.11 1966.71 1368.46 1983.52 1355.12 2003.5Z" fill="url(#paint3_linear_558_78)"/>
<path d="M2855.01 2300.62C2817.96 2331.27 2776.07 2349.26 2729.21 2355.2C2721.47 2356.18 2712.74 2354.76 2705.41 2351.98C2697 2348.78 2693.84 2340.25 2694.49 2331.51C2695.19 2322.17 2699.4 2314.27 2708.77 2310.68C2713.66 2308.81 2718.84 2307.35 2724.02 2306.63C2808.65 2294.98 2878.37 2226.45 2892.28 2141.54C2900.74 2089.87 2891.73 2041.99 2862.49 1998.31C2858.66 1992.59 2853.83 1987.53 2849.29 1982.31C2837.99 1969.32 2837.79 1956.04 2848.85 1945.62C2858.6 1936.43 2874.46 1936.97 2885.33 1948.13C2908.77 1972.18 2925.34 2000.78 2934.33 2032.94C2959.14 2121.74 2943.13 2202.39 2883.04 2273.19C2874.76 2282.94 2864.76 2291.22 2855.01 2300.62Z" fill="#EF3033"/>
<path d="M2855.01 2300.62C2817.96 2331.27 2776.07 2349.26 2729.21 2355.2C2721.47 2356.18 2712.74 2354.76 2705.41 2351.98C2697 2348.78 2693.84 2340.25 2694.49 2331.51C2695.19 2322.17 2699.4 2314.27 2708.77 2310.68C2713.66 2308.81 2718.84 2307.35 2724.02 2306.63C2808.65 2294.98 2878.37 2226.45 2892.28 2141.54C2900.74 2089.87 2891.73 2041.99 2862.49 1998.31C2858.66 1992.59 2853.83 1987.53 2849.29 1982.31C2837.99 1969.32 2837.79 1956.04 2848.85 1945.62C2858.6 1936.43 2874.46 1936.97 2885.33 1948.13C2908.77 1972.18 2925.34 2000.78 2934.33 2032.94C2959.14 2121.74 2943.13 2202.39 2883.04 2273.19C2874.76 2282.94 2864.76 2291.22 2855.01 2300.62Z" fill="url(#paint4_linear_558_78)"/>
<defs>
<filter id="filter0_dddddi_558_78" x="0" y="0" width="4220" height="4220" filterUnits="userSpaceOnUse" color-interpolation-filters="sRGB">
<feFlood flood-opacity="0" result="BackgroundImageFix"/>
<feColorMatrix in="SourceAlpha" type="matrix" values="0 0 0 0 0 0 0 0 0 0 0 0 0 0 0 0 0 0 127 0" result="hardAlpha"/>
<feMorphology radius="590" operator="dilate" in="SourceAlpha" result="effect1_dropShadow_558_78"/>
<feOffset/>
<feGaussianBlur stdDeviation="125"/>
<feComposite in2="hardAlpha" operator="out"/>
<feColorMatrix type="matrix" values="0 0 0 0 1 0 0 0 0 0.4 0 0 0 0 0 0 0 0 0.01 0"/>
<feBlend mode="normal" in2="BackgroundImageFix" result="effect1_dropShadow_558_78"/>
<feColorMatrix in="SourceAlpha" type="matrix" values="0 0 0 0 0 0 0 0 0 0 0 0 0 0 0 0 0 0 127 0" result="hardAlpha"/>
<feMorphology radius="520" operator="dilate" in="SourceAlpha" result="effect2_dropShadow_558_78"/>
<feOffset/>
<feGaussianBlur stdDeviation="125"/>
<feComposite in2="hardAlpha" operator="out"/>
<feColorMatrix type="matrix" values="0 0 0 0 1 0 0 0 0 0.4 0 0 0 0 0 0 0 0 0.02 0"/>
<feBlend mode="normal" in2="effect1_dropShadow_558_78" result="effect2_dropShadow_558_78"/>
<feColorMatrix in="SourceAlpha" type="matrix" values="0 0 0 0 0 0 0 0 0 0 0 0 0 0 0 0 0 0 127 0" result="hardAlpha"/>
<feMorphology radius="480" operator="dilate" in="SourceAlpha" result="effect3_dropShadow_558_78"/>
<feOffset/>
<feGaussianBlur stdDeviation="125"/>
<feComposite in2="hardAlpha" operator="out"/>
<feColorMatrix type="matrix" values="0 0 0 0 1 0 0 0 0 0.4 0 0 0 0 0 0 0 0 0.04 0"/>
<feBlend mode="normal" in2="effect2_dropShadow_558_78" result="effect3_dropShadow_558_78"/>
<feColorMatrix in="SourceAlpha" type="matrix" values="0 0 0 0 0 0 0 0 0 0 0 0 0 0 0 0 0 0 127 0" result="hardAlpha"/>
<feMorphology radius="440" operator="dilate" in="SourceAlpha" result="effect4_dropShadow_558_78"/>
<feOffset/>
<feGaussianBlur stdDeviation="125"/>
<feComposite in2="hardAlpha" operator="out"/>
<feColorMatrix type="matrix" values="0 0 0 0 1 0 0 0 0 0.4 0 0 0 0 0 0 0 0 0.07 0"/>
<feBlend mode="normal" in2="effect3_dropShadow_558_78" result="effect4_dropShadow_558_78"/>
<feColorMatrix in="SourceAlpha" type="matrix" values="0 0 0 0 0 0 0 0 0 0 0 0 0 0 0 0 0 0 127 0" result="hardAlpha"/>
<feMorphology radius="150" operator="dilate" in="SourceAlpha" result="effect5_dropShadow_558_78"/>
<feOffset/>
<feGaussianBlur stdDeviation="125"/>
<feComposite in2="hardAlpha" operator="out"/>
<feColorMatrix type="matrix" values="0 0 0 0 1 0 0 0 0 0.4 0 0 0 0 0 0 0 0 0.35 0"/>
<feBlend mode="normal" in2="effect4_dropShadow_558_78" result="effect5_dropShadow_558_78"/>
<feBlend mode="normal" in="SourceGraphic" in2="effect5_dropShadow_558_78" result="shape"/>
<feColorMatrix in="SourceAlpha" type="matrix" values="0 0 0 0 0 0 0 0 0 0 0 0 0 0 0 0 0 0 127 0" result="hardAlpha"/>
<feMorphology radius="1121" operator="erode" in="SourceAlpha" result="effect6_innerShadow_558_78"/>
<feOffset/>
<feGaussianBlur stdDeviation="114.85"/>
<feComposite in2="hardAlpha" operator="arithmetic" k2="-1" k3="1"/>
<feColorMatrix type="matrix" values="0 0 0 0 1 0 0 0 0 0.4 0 0 0 0 0 0 0 0 0.165 0"/>
<feBlend mode="normal" in2="shape" result="effect6_innerShadow_558_78"/>
</filter>
<linearGradient id="paint0_linear_558_78" x1="2074.75" y1="3436.64" x2="2138.08" y2="859.073" gradientUnits="userSpaceOnUse">
<stop stop-color="#FF9200"/>
<stop offset="1" stop-color="#F9011D"/>
</linearGradient>
<linearGradient id="paint1_linear_558_78" x1="2351.52" y1="2438.31" x2="2355.66" y2="2193.45" gradientUnits="userSpaceOnUse">
<stop stop-color="#FF9200"/>
<stop offset="1" stop-color="#F9011D"/>
</linearGradient>
<linearGradient id="paint2_linear_558_78" x1="1857.21" y1="2030.79" x2="1861.28" y2="1788.71" gradientUnits="userSpaceOnUse">
<stop stop-color="#FF9200"/>
<stop offset="1" stop-color="#F9011D"/>
</linearGradient>
<linearGradient id="paint3_linear_558_78" x1="1396.46" y1="2301.3" x2="1414.42" y2="1869.12" gradientUnits="userSpaceOnUse">
<stop stop-color="#FF9200"/>
<stop offset="1" stop-color="#F9011D"/>
</linearGradient>
<linearGradient id="paint4_linear_558_78" x1="2816.49" y1="2364.79" x2="2833.68" y2="1942.77" gradientUnits="userSpaceOnUse">
<stop stop-color="#FF9200"/>
<stop offset="1" stop-color="#F9011D"/>
</linearGradient>
</defs>
</svg>
