<svg width="14" height="14" viewBox="0 0 14 14" fill="none" xmlns="http://www.w3.org/2000/svg">
<path fill-rule="evenodd" clip-rule="evenodd" d="M7.00002 1.1665C7.32219 1.1665 7.58335 1.42767 7.58335 1.74984V3.49984C7.58335 3.822 7.32219 4.08317 7.00002 4.08317C6.67785 4.08317 6.41669 3.822 6.41669 3.49984V1.74984C6.41669 1.42767 6.67785 1.1665 7.00002 1.1665ZM2.85427 2.8538C3.08207 2.62599 3.45142 2.62599 3.67922 2.8538L4.93339 4.10796C5.1612 4.33577 5.1612 4.70512 4.93339 4.93292C4.70558 5.16073 4.33624 5.16073 4.10843 4.93292L2.85427 3.67876C2.62646 3.45095 2.62646 3.0816 2.85427 2.8538ZM11.1458 2.8538C11.3736 3.0816 11.3736 3.45095 11.1458 3.67876L9.89167 4.93292C9.66386 5.16073 9.29451 5.16073 9.06671 4.93292C8.8389 4.70512 8.8389 4.33577 9.06671 4.10796L10.3209 2.8538C10.5487 2.62599 10.918 2.62599 11.1458 2.8538ZM1.16669 6.99984C1.16669 6.67767 1.42785 6.4165 1.75002 6.4165H3.50002C3.82219 6.4165 4.08335 6.67767 4.08335 6.99984C4.08335 7.322 3.82219 7.58317 3.50002 7.58317H1.75002C1.42785 7.58317 1.16669 7.322 1.16669 6.99984ZM9.91669 6.99984C9.91669 6.67767 10.1779 6.4165 10.5 6.4165H12.25C12.5722 6.4165 12.8334 6.67767 12.8334 6.99984C12.8334 7.322 12.5722 7.58317 12.25 7.58317H10.5C10.1779 7.58317 9.91669 7.322 9.91669 6.99984ZM4.93339 9.06653C5.1612 9.29433 5.1612 9.66368 4.93339 9.89148L3.67922 11.1457C3.45142 11.3735 3.08207 11.3735 2.85427 11.1457C2.62646 10.9178 2.62646 10.5485 2.85427 10.3207L4.10843 9.06653C4.33624 8.83872 4.70558 8.83872 4.93339 9.06653ZM9.06671 9.06653C9.29451 8.83872 9.66386 8.83872 9.89167 9.06653L11.1458 10.3207C11.3736 10.5485 11.3736 10.9178 11.1458 11.1457C10.918 11.3735 10.5487 11.3735 10.3209 11.1457L9.06671 9.89148C8.8389 9.66368 8.8389 9.29433 9.06671 9.06653ZM7.00002 9.9165C7.32219 9.9165 7.58335 10.1777 7.58335 10.4998V12.2498C7.58335 12.572 7.32219 12.8332 7.00002 12.8332C6.67785 12.8332 6.41669 12.572 6.41669 12.2498V10.4998C6.41669 10.1777 6.67785 9.9165 7.00002 9.9165Z" fill="#DF74FF"/>
</svg>
