<svg width="20" height="20" viewBox="0 0 20 20" fill="none" xmlns="http://www.w3.org/2000/svg">
<path d="M1.89185 8.04716V12.3644C1.89185 13.0049 2.41113 13.5242 3.05169 13.5242H4.67642C4.89056 13.5242 5.09511 13.613 5.24133 13.7695L8.67264 17.4407C9.15167 17.9532 10.0108 17.6142 10.0108 16.9127V14.0192C10.0108 13.8653 9.94968 13.7178 9.84092 13.6091L8.79431 12.5625C8.67253 12.4407 8.46431 12.5269 8.46431 12.6992V14.953L6.37113 12.7135C5.93248 12.2442 5.31883 11.9778 4.67642 11.9778H3.43831V8.43377L4.19892 8.43376C4.37114 8.43376 4.45738 8.22554 4.33561 8.10377L3.289 7.05717C3.18025 6.94841 3.03152 6.88127 2.88019 6.9087C2.33063 7.00832 1.89185 7.44737 1.89185 8.04716Z" fill="#9191A4"/>
<path d="M10.0108 9.46552L12.4934 11.9482C13.3505 10.7013 13.288 8.98916 12.342 7.80714C12.2086 7.64043 12.2067 7.39684 12.3577 7.24585L12.9044 6.6991C13.0554 6.54811 13.3015 6.5472 13.4405 6.70928C14.9732 8.49635 15.0408 11.1941 13.5998 13.0546L14.9747 14.4294C17.1531 11.8127 17.0822 7.87726 14.8104 5.33961C14.668 5.18053 14.6671 4.93643 14.8181 4.78545L15.3648 4.23869C15.5158 4.08771 15.7613 4.08713 15.9053 4.24478C18.7703 7.38098 18.8428 12.3087 16.0719 15.5267L17.9832 17.4379C18.1342 17.5889 18.1342 17.8337 17.9832 17.9847L17.4364 18.5314C17.2854 18.6824 17.0407 18.6824 16.8897 18.5314L2.74503 4.38681C2.59405 4.23582 2.59405 3.99103 2.74503 3.84005L3.29179 3.29329C3.44277 3.14231 3.68756 3.14231 3.83855 3.29329L6.13261 5.58736L8.65186 2.66463C9.11986 2.12168 10.0108 2.45265 10.0108 3.16947V9.46552ZM7.22912 6.68387L8.46431 7.91906V5.25086L7.22912 6.68387Z" fill="#9191A4"/>
</svg>
