<svg width="20" height="20" viewBox="0 0 20 20" fill="none" xmlns="http://www.w3.org/2000/svg">
<path d="M14.1667 6.66667V4.16667C14.1667 3.94565 14.0789 3.73369 13.9226 3.57741C13.7663 3.42113 13.5543 3.33333 13.3333 3.33333H5C4.55797 3.33333 4.13405 3.50893 3.82149 3.82149C3.50893 4.13405 3.33333 4.55797 3.33333 5M3.33333 5C3.33333 5.44203 3.50893 5.86595 3.82149 6.17851C4.13405 6.49107 4.55797 6.66667 5 6.66667H15C15.221 6.66667 15.433 6.75446 15.5893 6.91075C15.7455 7.06703 15.8333 7.27899 15.8333 7.5V10M3.33333 5V15C3.33333 15.442 3.50893 15.866 3.82149 16.1785C4.13405 16.4911 4.55797 16.6667 5 16.6667H15C15.221 16.6667 15.433 16.5789 15.5893 16.4226C15.7455 16.2663 15.8333 16.0543 15.8333 15.8333V13.3333M16.6667 10V13.3333H13.3333C12.8913 13.3333 12.4674 13.1577 12.1548 12.8452C11.8423 12.5326 11.6667 12.1087 11.6667 11.6667C11.6667 11.2246 11.8423 10.8007 12.1548 10.4882C12.4674 10.1756 12.8913 10 13.3333 10H16.6667Z" stroke="#9191A4" stroke-width="1.25" stroke-linecap="round" stroke-linejoin="round"/>
</svg>
