<svg width="20" height="20" viewBox="0 0 20 20" fill="none" xmlns="http://www.w3.org/2000/svg">
<path d="M14.1666 6.66634V4.16634C14.1666 3.94533 14.0788 3.73337 13.9225 3.57709C13.7662 3.42081 13.5543 3.33301 13.3333 3.33301H4.99992C4.55789 3.33301 4.13397 3.5086 3.82141 3.82116C3.50885 4.13372 3.33325 4.55765 3.33325 4.99967M3.33325 4.99967C3.33325 5.4417 3.50885 5.86563 3.82141 6.17819C4.13397 6.49075 4.55789 6.66634 4.99992 6.66634H14.9999C15.2209 6.66634 15.4329 6.75414 15.5892 6.91042C15.7455 7.0667 15.8333 7.27866 15.8333 7.49967V9.99967M3.33325 4.99967V14.9997C3.33325 15.4417 3.50885 15.8656 3.82141 16.1782C4.13397 16.4907 4.55789 16.6663 4.99992 16.6663H14.9999C15.2209 16.6663 15.4329 16.5785 15.5892 16.4223C15.7455 16.266 15.8333 16.054 15.8333 15.833V13.333M16.6666 9.99967V13.333H13.3333C12.8912 13.333 12.4673 13.1574 12.1547 12.8449C11.8422 12.5323 11.6666 12.1084 11.6666 11.6663C11.6666 11.2243 11.8422 10.8004 12.1547 10.4878C12.4673 10.1753 12.8912 9.99967 13.3333 9.99967H16.6666Z" stroke="#DF74FF" stroke-width="1.25" stroke-linecap="round" stroke-linejoin="round"/>
</svg>
