<svg width="16" height="16" viewBox="0 0 16 16" fill="none" xmlns="http://www.w3.org/2000/svg">
<path d="M6.23067 3.56867C6.37067 3.48267 6.516 3.40467 6.66667 3.33333C6.66667 2.97971 6.80714 2.64057 7.05719 2.39052C7.30724 2.14048 7.64638 2 8 2C8.35362 2 8.69276 2.14048 8.94281 2.39052C9.19286 2.64057 9.33333 2.97971 9.33333 3.33333C10.0989 3.69535 10.7516 4.25888 11.2214 4.96353C11.6911 5.66818 11.9603 6.48738 12 7.33333V9.33333M11.3333 11.3333H2.66667C3.02996 11.1276 3.33987 10.8395 3.57146 10.4921C3.80304 10.1447 3.94983 9.7478 4 9.33333V7.33333C4.04164 6.44552 4.33608 5.58809 4.84867 4.862M6 11.3333V12C6 12.5304 6.21071 13.0391 6.58579 13.4142C6.96086 13.7893 7.46957 14 8 14C8.53043 14 9.03914 13.7893 9.41421 13.4142C9.78929 13.0391 10 12.5304 10 12V11.3333M2 2L14 14" stroke="#9191A4" stroke-width="1.25" stroke-linecap="round" stroke-linejoin="round"/>
</svg>
