<svg width="16" height="16" viewBox="0 0 16 16" fill="none" xmlns="http://www.w3.org/2000/svg">
<path d="M4.6669 7.42383V9.33203C4.6669 9.35878 4.66523 9.38556 4.66202 9.41211C4.60854 9.85393 4.46696 10.2799 4.24698 10.665H8.52921L10.6288 12.4268C10.5395 12.975 10.2834 13.4869 9.88565 13.8848C9.3857 14.3846 8.70685 14.6649 7.99991 14.665C7.29289 14.665 6.61418 14.3846 6.11417 13.8848C5.61415 13.3847 5.33398 12.7062 5.3339 11.999H2.6669C2.36421 11.999 2.09959 11.7946 2.02237 11.502C1.94523 11.2092 2.07532 10.9011 2.33878 10.752C2.61086 10.5977 2.84299 10.3813 3.01651 10.1211C3.1832 9.87099 3.29225 9.5864 3.3339 9.28906V7.30078C3.34807 6.99876 3.39064 6.70022 3.45499 6.40723L4.6669 7.42383ZM1.4755 2.46094C1.74179 2.14388 2.21493 2.10297 2.53214 2.36914L14.4316 12.3535C14.7485 12.6198 14.7895 13.093 14.5233 13.4102C14.2571 13.7273 13.784 13.769 13.4667 13.5029L1.5673 3.51758C1.25039 3.25126 1.20937 2.7781 1.4755 2.46094ZM6.6669 11.999C6.66699 12.3525 6.80756 12.6914 7.05753 12.9414C7.30749 13.1912 7.64651 13.332 7.99991 13.332C8.35336 13.3319 8.69334 13.1913 8.94327 12.9414C9.19297 12.6915 9.33381 12.3523 9.3339 11.999H6.6669ZM7.99991 1.33203C8.53011 1.33216 9.03903 1.54309 9.41397 1.91797C9.68591 2.19 9.87165 2.53247 9.95304 2.90234C10.6835 3.31334 11.3094 3.89243 11.7763 4.59277C12.313 5.39798 12.6206 6.33417 12.6659 7.30078C12.6664 7.31119 12.6669 7.32162 12.6669 7.33203V9.28906C12.6836 9.40848 12.7142 9.52483 12.7519 9.63867L11.3339 8.44922V7.34863C11.2974 6.62896 11.0667 5.93179 10.6669 5.33203C10.2644 4.7282 9.70475 4.24488 9.04874 3.93457C8.81569 3.82437 8.6669 3.58983 8.6669 3.33203C8.6669 3.15533 8.59647 2.98535 8.47159 2.86035C8.34669 2.73552 8.17649 2.66517 7.99991 2.66504C7.82348 2.66511 7.65411 2.73576 7.52921 2.86035C7.40418 2.98538 7.3339 3.15522 7.3339 3.33203C7.3339 3.58959 7.18475 3.82424 6.95206 3.93457C6.74557 4.03221 6.54865 4.14809 6.36319 4.27832L5.31534 3.39941C5.54462 3.21462 5.7889 3.04741 6.04679 2.90234C6.12819 2.53242 6.31385 2.19002 6.58585 1.91797C6.96084 1.54311 7.46969 1.3321 7.99991 1.33203Z" fill="#FCFCFD"/>
</svg>
