<svg width="17" height="16" viewBox="0 0 17 16" fill="none" xmlns="http://www.w3.org/2000/svg">
<path d="M11.1667 8H12.5V10.6667H11.1667V8Z" fill="#EC8F43"/>
<path d="M13.8333 4.66667V3.33333C13.8333 2.598 13.2353 2 12.5 2H3.83333C2.73066 2 1.83333 2.89733 1.83333 4V12C1.83333 13.4673 3.02933 14 3.83333 14H13.8333C14.5687 14 15.1667 13.402 15.1667 12.6667V6C15.1667 5.26467 14.5687 4.66667 13.8333 4.66667ZM3.83333 3.33333H12.5V4.66667H3.83333C3.66167 4.65899 3.4996 4.5854 3.38085 4.46121C3.26209 4.33703 3.19582 4.17182 3.19582 4C3.19582 3.82818 3.26209 3.66297 3.38085 3.53879C3.4996 3.4146 3.66167 3.34101 3.83333 3.33333ZM13.8333 12.6667H3.84133C3.53333 12.6587 3.16666 12.5367 3.16666 12V5.87667C3.37599 5.952 3.59799 6 3.83333 6H13.8333V12.6667Z" fill="#EC8F43"/>
</svg>
