<svg width="16" height="16" viewBox="0 0 16 16" fill="none" xmlns="http://www.w3.org/2000/svg">
<path d="M3.16624 4.06796C3.16624 3.56739 3.57203 3.1616 4.0726 3.1616H11.9277C12.4283 3.1616 12.834 3.56739 12.834 4.06796V4.97431C12.834 5.30803 13.1046 5.57855 13.4383 5.57855C13.772 5.57855 14.0425 5.30803 14.0425 4.97431V4.06796C14.0425 2.89997 13.0957 1.95312 11.9277 1.95312H4.0726C2.90461 1.95312 1.95776 2.89997 1.95776 4.06796V4.97431C1.95776 5.30803 2.22829 5.57855 2.562 5.57855C2.89571 5.57855 3.16624 5.30803 3.16624 4.97431V4.06796Z" fill="#FCFCFD"/>
<path d="M8.00014 9.5061C8.33386 9.5061 8.60438 9.77663 8.60438 10.1103V12.1765L9.1333 11.7534C9.39388 11.5449 9.77412 11.5871 9.98259 11.8477C10.1911 12.1083 10.1488 12.4886 9.88822 12.697L8.56636 13.7545C8.23534 14.0193 7.76499 14.0193 7.43397 13.7545L6.11211 12.697C5.85152 12.4886 5.80927 12.1083 6.01774 11.8477C6.22621 11.5871 6.60645 11.5449 6.86704 11.7534L7.39591 12.1765V10.1103C7.39591 9.77663 7.66643 9.5061 8.00014 9.5061Z" fill="#FCFCFD"/>
<path d="M4.67683 4.06796C5.01055 4.06796 5.28107 4.33848 5.28107 4.6722V8.90186C5.28107 9.23557 5.5516 9.5061 5.88531 9.5061C6.21902 9.5061 6.48955 9.77663 6.48955 10.1103C6.48955 10.444 6.21902 10.7146 5.88531 10.7146C4.88418 10.7146 4.0726 9.903 4.0726 8.90186V4.6722C4.0726 4.33848 4.34312 4.06796 4.67683 4.06796Z" fill="#FCFCFD"/>
<path d="M10.7192 4.6722C10.7192 4.33848 10.9897 4.06796 11.3235 4.06796C11.6572 4.06796 11.9277 4.33848 11.9277 4.6722V8.90186C11.9277 9.903 11.1161 10.7146 10.115 10.7146C9.78126 10.7146 9.51074 10.444 9.51074 10.1103C9.51074 9.77663 9.78126 9.5061 10.115 9.5061C10.4487 9.5061 10.7192 9.23557 10.7192 8.90186V4.6722Z" fill="#FCFCFD"/>
</svg>
