<svg width="24" height="24" viewBox="0 0 24 24" fill="none" xmlns="http://www.w3.org/2000/svg">
<path d="M13.125 3C13.3566 3.00006 13.5352 3.1891 13.5352 3.41406V6.31152C13.5352 7.95843 14.8802 9.30921 16.5107 9.31836C17.188 9.31836 17.7229 9.32715 18.1328 9.32715C18.4091 9.32715 18.8639 9.31836 19.2471 9.31836C19.4695 9.31858 19.6473 9.49795 19.6475 9.72266V16.959C19.6475 19.191 17.8564 21 15.6465 21H8.55371C6.23688 21 4.34766 19.1007 4.34766 16.7607V7.05859C4.34787 4.82686 6.14765 3.00014 8.36621 3H13.125ZM9.23145 14.6094C8.86641 14.6096 8.56374 14.9058 8.56348 15.2744C8.56348 15.6433 8.86625 15.95 9.23145 15.9502H14.0791C14.4444 15.9502 14.748 15.6434 14.748 15.2744C14.7478 14.9056 14.4443 14.6094 14.0791 14.6094H9.23145ZM9.23145 10.1104C8.86632 10.1105 8.56358 10.4164 8.56348 10.7852C8.56348 11.154 8.86625 11.451 9.23145 11.4512H12.2441C12.6093 11.4509 12.9121 11.154 12.9121 10.7852C12.912 10.4164 12.6092 10.1106 12.2441 10.1104H9.23145ZM14.834 3.81543C14.834 3.42753 15.3 3.23475 15.5664 3.51465C16.5297 4.52625 18.2133 6.29501 19.1543 7.2832C19.4139 7.55587 19.2234 8.00765 18.8486 8.00879C18.1162 8.01149 17.2519 8.00923 16.6309 8.00293C15.6455 8.00268 14.834 7.18275 14.834 6.1875V3.81543Z" fill="#FCFCFD"/>
</svg>
