<svg width="16" height="16" viewBox="0 0 16 16" fill="none" xmlns="http://www.w3.org/2000/svg">
<path fill-rule="evenodd" clip-rule="evenodd" d="M7.9957 2C7.59641 2 7.28055 2.06559 7.03398 2.18742C6.94414 2.2318 6.85865 2.28418 6.78976 2.32722L6.7385 2.35938C6.68689 2.39183 6.64346 2.41913 6.59786 2.44549C6.47986 2.5137 6.43515 2.52095 6.43076 2.52167C6.4304 2.52172 6.43058 2.52167 6.43076 2.52167C5.85446 2.52167 5.38701 2.98892 5.38701 3.56522H4.86527C4.00082 3.56522 3.30005 4.26599 3.30005 5.13043V12.4348C3.30005 13.2993 4.00082 14 4.86527 14H11.1261C11.9906 14 12.6914 13.2993 12.6914 12.4348V5.13043C12.6914 4.26599 11.9906 3.56522 11.1261 3.56522H10.6044C10.6044 2.98892 10.1372 2.52174 9.56092 2.52174C9.56108 2.52174 9.56128 2.5218 9.56092 2.52174C9.55654 2.52103 9.51156 2.5137 9.39355 2.44549C9.34795 2.41913 9.30454 2.39183 9.25288 2.35938L9.20165 2.32722C9.13273 2.28418 9.04727 2.2318 8.95742 2.18742C8.71085 2.06559 8.39499 2 7.9957 2ZM10.4648 4.6087C10.2844 4.92059 9.94716 5.13043 9.56092 5.13043H6.43048C6.04425 5.13043 5.70702 4.92059 5.5266 4.6087H4.86527C4.57712 4.6087 4.34353 4.84229 4.34353 5.13043V12.4348C4.34353 12.7229 4.57712 12.9565 4.86527 12.9565H11.1261C11.4143 12.9565 11.6479 12.7229 11.6479 12.4348V5.13043C11.6479 4.84229 11.4143 4.6087 11.1261 4.6087H10.4648ZM7.49619 3.12293C7.5588 3.09201 7.70483 3.04348 7.9957 3.04348C8.28657 3.04348 8.43261 3.09201 8.49521 3.12293C8.53455 3.14236 8.58193 3.17044 8.64871 3.21217L8.68758 3.23656C8.74179 3.27065 8.80716 3.3118 8.87134 3.3489C9.02415 3.43723 9.27047 3.56522 9.56092 3.56522V4.08696H6.43048V3.56522C6.72092 3.56522 6.96725 3.43723 7.12007 3.3489C7.18424 3.3118 7.24961 3.27066 7.30382 3.23656L7.34269 3.21217C7.40948 3.17044 7.45685 3.14236 7.49619 3.12293Z" fill="#FCFCFD"/>
<rect x="5.25" y="6.5" width="5.5" height="1" rx="0.5" fill="#FCFCFD"/>
<rect x="5.25" y="8.5" width="5.5" height="1" rx="0.5" fill="#FCFCFD"/>
<rect x="5.25" y="10.5" width="5.5" height="1" rx="0.5" fill="#FCFCFD"/>
</svg>
