<svg width="12" height="12" viewBox="0 0 12 12" fill="none" xmlns="http://www.w3.org/2000/svg">
<path fill-rule="evenodd" clip-rule="evenodd" d="M10.5 6C10.5 8.48528 8.48528 10.5 6 10.5C3.51472 10.5 1.5 8.48528 1.5 6C1.5 3.51472 3.51472 1.5 6 1.5C8.48528 1.5 10.5 3.51472 10.5 6ZM5.48291 3.79323V6.04804C5.48291 6.19163 5.55467 6.32571 5.67414 6.40536L7.62953 7.70894C7.68591 7.74653 7.76209 7.7313 7.79968 7.67491L8.13999 7.16445C8.17758 7.10807 8.16234 7.03189 8.10596 6.9943L6.34181 5.8182V3.79323C6.34181 3.72547 6.28687 3.67053 6.21911 3.67053H5.60561C5.53784 3.67053 5.48291 3.72547 5.48291 3.79323Z" fill="#DF74FF"/>
</svg>
