<svg width="16" height="17" viewBox="0 0 16 17" fill="none" xmlns="http://www.w3.org/2000/svg">
<path fill-rule="evenodd" clip-rule="evenodd" d="M8 2.50098C8.45882 2.50098 8.83077 2.87292 8.83077 3.33175V7.67021H13.1692C13.6281 7.67021 14 8.04216 14 8.50098C14 8.9598 13.6281 9.33175 13.1692 9.33175H8.83077V13.6702C8.83077 14.129 8.45882 14.501 8 14.501C7.54118 14.501 7.16923 14.129 7.16923 13.6702V9.33175H2.83077C2.37195 9.33175 2 8.9598 2 8.50098C2 8.04216 2.37195 7.67021 2.83077 7.67021H7.16923V3.33175C7.16923 2.87292 7.54118 2.50098 8 2.50098Z" fill="#DF74FF"/>
</svg>
