<svg width="16" height="16" viewBox="0 0 16 16" fill="none" xmlns="http://www.w3.org/2000/svg">
<path fill-rule="evenodd" clip-rule="evenodd" d="M8.68678 3.91666C9.0131 2.76219 10.0742 1.91666 11.3333 1.91666C12.8526 1.91666 14.0833 3.14745 14.0833 4.66666C14.0833 6.18588 12.8526 7.41666 11.3333 7.41666C10.0742 7.41666 9.0131 6.57114 8.68678 5.41666L2.66667 5.41666C2.25246 5.41666 1.91667 5.08088 1.91667 4.66666C1.91667 4.25245 2.25246 3.91666 2.66667 3.91666L8.68678 3.91666ZM11.3333 3.41666C10.6426 3.41666 10.0833 3.97588 10.0833 4.66666C10.0833 5.35745 10.6426 5.91666 11.3333 5.91666C12.0241 5.91666 12.5833 5.35745 12.5833 4.66666C12.5833 3.97588 12.0241 3.41666 11.3333 3.41666ZM3.35345 10.5833C3.67977 9.42886 4.74082 8.58333 6.00001 8.58333C7.25919 8.58333 8.32024 9.42886 8.64656 10.5833H13.3333C13.7476 10.5833 14.0833 10.9191 14.0833 11.3333C14.0833 11.7475 13.7476 12.0833 13.3333 12.0833H8.64656C8.32024 13.2378 7.25919 14.0833 6.00001 14.0833C4.74082 14.0833 3.67977 13.2378 3.35345 12.0833H2.66667C2.25246 12.0833 1.91667 11.7475 1.91667 11.3333C1.91667 10.9191 2.25246 10.5833 2.66667 10.5833H3.35345ZM6.00001 10.0833C5.30922 10.0833 4.75001 10.6425 4.75001 11.3333C4.75001 12.0241 5.30922 12.5833 6.00001 12.5833C6.69079 12.5833 7.25001 12.0241 7.25001 11.3333C7.25001 10.6425 6.69079 10.0833 6.00001 10.0833Z" fill="#9191A4"/>
</svg>
