<svg width="16" height="16" viewBox="0 0 16 16" fill="none" xmlns="http://www.w3.org/2000/svg">
<circle cx="8" cy="8" r="7.4" stroke="#9191A4" stroke-width="1.2"/>
<path d="M8.40579 12.3H7.81423C7.68192 12.3 7.57466 12.1901 7.57466 12.0543V11.561C7.57466 11.4313 7.47625 11.3247 7.35045 11.3103C7.05092 11.2762 6.76122 11.2127 6.48123 11.1198C6.20923 11.0282 5.97358 10.9196 5.77428 10.7937C5.68269 10.7358 5.64937 10.6183 5.68723 10.5151L6.09301 9.40869C6.14768 9.25979 6.32398 9.20278 6.45973 9.27982C6.64304 9.38363 6.8401 9.47246 7.05068 9.54617C7.36458 9.64986 7.66582 9.70171 7.95429 9.70171C8.20234 9.70171 8.37962 9.67431 8.48589 9.61939C8.59217 9.55833 8.64536 9.46988 8.64536 9.35402C8.64536 9.21986 8.57447 9.11924 8.4327 9.05216C8.29608 8.98508 8.06818 8.91186 7.74936 8.83262C7.33927 8.72892 6.9976 8.61909 6.72425 8.50324C6.45089 8.38124 6.21291 8.18602 6.01045 7.9177C5.80793 7.64323 5.70669 7.27417 5.70669 6.81063C5.70669 6.27387 5.86616 5.8134 6.18503 5.4291C6.47251 5.0883 6.86934 4.85782 7.37576 4.73779C7.48977 4.71076 7.57466 4.60928 7.57466 4.48937V3.94573C7.57466 3.80997 7.68192 3.70001 7.81423 3.70001H8.40579C8.53811 3.70001 8.64536 3.80997 8.64536 3.94573V4.45829C8.64536 4.58385 8.73775 4.6884 8.85864 4.70769C9.30228 4.77833 9.6921 4.91212 10.028 5.10906C10.1233 5.16496 10.1612 5.28389 10.1246 5.39004L9.74481 6.49194C9.69456 6.63802 9.52686 6.69982 9.39197 6.63003C8.96418 6.40889 8.55592 6.29832 8.16696 6.29832C7.70624 6.29832 7.47588 6.43248 7.47588 6.7008C7.47588 6.82894 7.54432 6.92649 7.68093 6.99369C7.81767 7.05463 8.04287 7.12171 8.35677 7.19493C8.76171 7.28646 9.1035 7.3931 9.38189 7.5151C9.66028 7.63095 9.90072 7.8231 10.1033 8.09154C10.3108 8.35986 10.4146 8.72585 10.4146 9.18939C10.4146 9.70171 10.2602 10.15 9.95133 10.5343C9.6824 10.8692 9.31002 11.1036 8.83444 11.2377C8.7251 11.2685 8.64536 11.3678 8.64536 11.484V12.0543C8.64536 12.1901 8.53811 12.3 8.40579 12.3Z" fill="#9191A4"/>
</svg>
