<svg width="16" height="16" viewBox="0 0 16 16" fill="none" xmlns="http://www.w3.org/2000/svg">
<circle cx="8" cy="8" r="7.4" stroke="#9191A4" stroke-width="1.2"/>
<path d="M5.46827 9.69213C5.51352 9.64264 5.57575 9.61377 5.64175 9.61377H11.6268C11.7362 9.61377 11.7909 9.75812 11.7135 9.84268L10.5312 11.1357C10.486 11.1852 10.4238 11.214 10.3578 11.214H4.3727C4.26334 11.214 4.20865 11.0697 4.28596 10.9851L5.46827 9.69213Z" fill="#9191A4"/>
<path d="M5.46827 4.86419C5.51541 4.8147 5.57764 4.78583 5.64175 4.78583H11.6268C11.7362 4.78583 11.7909 4.93018 11.7135 5.01473L10.5312 6.30774C10.486 6.35723 10.4238 6.38611 10.3578 6.38611H4.3727C4.26334 6.38611 4.20865 6.24175 4.28596 6.1572L5.46827 4.86419Z" fill="#9191A4"/>
<path d="M10.5312 7.26306C10.486 7.21356 10.4238 7.18469 10.3578 7.18469H4.3727C4.26334 7.18469 4.20865 7.32905 4.28596 7.4136L5.46827 8.70661C5.51352 8.7561 5.57575 8.78497 5.64175 8.78497H11.6268C11.7362 8.78497 11.7909 8.64062 11.7135 8.55606L10.5312 7.26306Z" fill="#9191A4"/>
</svg>
