<svg width="17" height="16" viewBox="0 0 17 16" fill="none" xmlns="http://www.w3.org/2000/svg">
<path d="M8.73047 2.10449L9.11914 2.13281C10.1538 2.242 11.1414 2.62242 11.9814 3.23633C12.8214 3.85018 13.4841 4.67537 13.9023 5.62793C14.2067 6.32132 14.3295 7.02602 14.3594 7.59961H14.2197C14.216 7.36963 14.1946 7.15007 14.1523 6.93066C14.0726 6.51654 13.9263 6.12848 13.7383 5.7002C13.3327 4.77646 12.6905 3.97614 11.876 3.38086C11.0615 2.78559 10.1039 2.41645 9.10059 2.31055C8.2225 2.2179 7.33646 2.33004 6.51172 2.63574L6.16211 2.77832C5.3565 3.13901 4.64655 3.6802 4.08691 4.3584L3.85645 4.65723C3.26709 5.47598 2.90532 6.43646 2.80664 7.44043C2.72036 8.31888 2.83799 9.20408 3.14941 10.0264L3.29492 10.375C3.61627 11.0792 4.17648 11.8438 4.7959 12.4268L4.70312 12.5137C4.13375 12.0347 3.65877 11.4534 3.30566 10.7979L3.13281 10.4492C2.75482 9.62088 2.57356 8.71808 2.60254 7.81152L2.62793 7.42285C2.71696 6.51699 3.0151 5.64621 3.49512 4.87695L3.71191 4.55273C4.24374 3.81405 4.9379 3.20939 5.73926 2.78516L6.08984 2.61523C6.92066 2.24337 7.82441 2.06907 8.73047 2.10449Z" stroke="#9191A4" stroke-width="1.2"/>
<path d="M12.0568 10.8302H12.9011L10.8239 12.9075L9.14106 11.2245L6.26465 14.1009L7.07105 14.9074L9.14106 12.8374L10.8239 14.5203L13.6173 11.7269V12.3906H14.7578V9.6897H12.0568V10.8302Z" fill="#9191A4"/>
<path d="M8.78022 10.3998H8.39502C8.30886 10.3998 8.23902 10.3282 8.23902 10.2398V9.91861C8.23902 9.83413 8.17494 9.76469 8.09302 9.75533C7.89798 9.73317 7.70934 9.69181 7.52702 9.63133C7.3499 9.57165 7.19646 9.50092 7.06668 9.41892C7.00704 9.38124 6.98534 9.30476 7.01 9.23756L7.27422 8.51708C7.30982 8.42012 7.42462 8.38301 7.51302 8.43317C7.63238 8.50077 7.7607 8.55861 7.89782 8.60661C8.10222 8.67413 8.29838 8.70789 8.48622 8.70789C8.64774 8.70789 8.76318 8.69005 8.83238 8.65428C8.90158 8.61453 8.93622 8.55693 8.93622 8.48149C8.93622 8.39413 8.89006 8.3286 8.79774 8.28492C8.70878 8.24124 8.56038 8.19357 8.35278 8.14196C8.08574 8.07445 7.86326 8.00293 7.68526 7.92749C7.50726 7.84805 7.3523 7.72092 7.22046 7.5462C7.08859 7.36748 7.02267 7.12717 7.02267 6.82533C7.02267 6.47581 7.12651 6.17596 7.33414 5.92572C7.52134 5.7038 7.77974 5.55372 8.1095 5.47556C8.18374 5.45796 8.23902 5.39188 8.23902 5.3138V4.9598C8.23902 4.8714 8.30886 4.7998 8.39502 4.7998H8.78022C8.86638 4.7998 8.93622 4.8714 8.93622 4.9598V5.29356C8.93622 5.37532 8.99638 5.4434 9.0751 5.45596C9.36398 5.50196 9.61782 5.58908 9.83654 5.71732C9.89862 5.75372 9.92326 5.83116 9.89942 5.90028L9.65214 6.6178C9.61942 6.71292 9.51022 6.75316 9.42238 6.70772C9.14382 6.56372 8.87798 6.49172 8.6247 6.49172C8.3247 6.49172 8.1747 6.57908 8.1747 6.7538C8.1747 6.83724 8.21926 6.90076 8.30822 6.94452C8.39726 6.9842 8.5439 7.02788 8.7483 7.07556C9.01198 7.13516 9.23454 7.2046 9.41582 7.28404C9.5971 7.35948 9.75366 7.48461 9.88558 7.6594C10.0207 7.83413 10.0883 8.07244 10.0883 8.37428C10.0883 8.70788 9.98774 8.9998 9.78662 9.25004C9.6115 9.46812 9.36902 9.62076 9.05934 9.70805C8.98814 9.72813 8.93622 9.79277 8.93622 9.86845V10.2398C8.93622 10.3282 8.86638 10.3998 8.78022 10.3998Z" fill="#9191A4"/>
</svg>
