<svg width="29" height="36" viewBox="0 0 29 36" fill="none" xmlns="http://www.w3.org/2000/svg">
<path d="M22.5765 9.37086L26.1383 2.56145C26.5688 1.74288 25.9796 0.779785 25.0605 0.779785H20.234C19.7893 0.779785 19.3714 1.03902 19.1562 1.42553L16.2684 6.96999C15.6965 6.88515 15.1215 6.84273 14.5182 6.84273C13.9007 6.84273 13.3257 6.88515 12.7507 6.97156L9.82051 1.4271C9.60526 1.02489 9.18891 0.781354 8.7427 0.781354H3.96003C3.0409 0.781354 2.45175 1.74444 2.88223 2.56302L6.444 9.37243C2.73772 11.9287 0.310303 16.1959 0.310303 21.0647C0.310303 29.0364 6.90453 35.4859 14.9628 35.2566C22.4459 35.0272 28.6379 28.6926 28.7103 21.1934C28.7684 16.2804 26.3268 11.943 22.5765 9.37086ZM21.3432 20.323L18.5168 23.0662C18.4838 23.0992 18.4665 23.1338 18.4838 23.184L19.1531 27.0632C19.2536 27.6822 18.6016 28.1504 18.0486 27.8487L14.5701 26.0262C14.5371 26.0089 14.4868 26.0089 14.4523 26.0262L10.9738 27.8487C10.4223 28.1504 9.77031 27.6822 9.86929 27.0632L10.5386 23.184C10.5386 23.1338 10.5386 23.1008 10.5056 23.0662L7.67917 20.323C7.24398 19.8878 7.47806 19.1195 8.0971 19.0347L11.9935 18.4659C12.0438 18.4659 12.0768 18.4329 12.0941 18.3984L13.8333 14.8696C14.1177 14.3009 14.9033 14.3009 15.1876 14.8696L16.9268 18.3984C16.9441 18.4314 16.9771 18.4659 17.0274 18.4659L20.9238 19.0347C21.5428 19.1195 21.7768 19.8878 21.3432 20.323Z" fill="#0FF7AD"/>
</svg>
