<svg width="16" height="16" viewBox="0 0 16 16" fill="none" xmlns="http://www.w3.org/2000/svg">
<path d="M10.1427 2.22538C10.1155 2.22816 10.0466 2.23428 9.98996 2.23928C9.93332 2.24428 9.87834 2.2504 9.86779 2.25318C9.85724 2.25596 9.82725 2.26097 9.80115 2.2643C9.7545 2.27097 9.66009 2.29155 9.5096 2.32825C9.43519 2.3466 9.28469 2.39497 9.22638 2.41944C9.21139 2.42555 9.17474 2.44001 9.14586 2.45113C9.11698 2.46225 9.07922 2.47838 9.06201 2.48672C9.04479 2.49506 9.02147 2.50507 9.00925 2.50896C8.95094 2.52786 8.69993 2.66799 8.59442 2.74083C8.57109 2.75695 8.54888 2.7703 8.54888 2.7703C8.535 2.7703 8.30009 2.95379 8.1968 3.04498C8.03631 3.18733 7.63481 3.58211 7.39602 3.83233C7.33049 3.90072 7.25663 3.97857 7.23219 4.0047C7.2072 4.03084 7.17611 4.0642 7.16278 4.07921C7.14945 4.09423 7.12502 4.12036 7.10891 4.1376C7.09225 4.15483 7.06115 4.18764 7.03949 4.21044C7.01784 4.23324 6.97619 4.27716 6.94675 4.30774C6.91788 4.33833 6.86679 4.39338 6.83291 4.43007C6.79959 4.46677 6.75405 4.5157 6.73295 4.5385C6.71129 4.5613 6.67964 4.59522 6.66298 4.61357C6.64577 4.63192 6.59856 4.68307 6.55747 4.72755C6.48972 4.80151 6.43863 4.85711 6.35255 4.95219C6.33589 4.97054 6.3059 5.00335 6.28591 5.02503C6.23593 5.07897 6.14375 5.18017 6.11376 5.21409C6.09988 5.2291 6.08766 5.243 6.08599 5.24467C6.08433 5.24634 6.06322 5.26969 6.03879 5.29749C6.01491 5.32474 5.97715 5.36644 5.95494 5.38924C5.93328 5.41204 5.90718 5.44095 5.89663 5.45318C5.86386 5.49211 5.73003 5.64057 5.68116 5.69228C5.62063 5.75567 5.59286 5.78625 5.54177 5.84519C5.519 5.87133 5.49679 5.89635 5.49179 5.9008C5.48679 5.90524 5.43681 5.95918 5.38072 6.02034C5.32408 6.08151 5.27466 6.13544 5.26966 6.13989C5.26522 6.14434 5.24911 6.16213 5.23412 6.17881C5.21912 6.1955 5.18025 6.23831 5.14804 6.27279C5.11583 6.30782 5.07307 6.35452 5.05308 6.37565C5.03309 6.39734 4.97922 6.45739 4.93368 6.50966C4.88815 6.56137 4.82206 6.63421 4.78652 6.67091C4.62548 6.83883 4.5555 6.91334 4.4872 6.99063C4.42889 7.0568 4.38224 7.10629 4.29006 7.20193C4.19676 7.29868 4.16178 7.33649 4.10069 7.40488C4.07348 7.43546 4.04349 7.46827 4.03461 7.47717C4.02517 7.48662 3.99629 7.51776 3.97019 7.54667C3.89855 7.62618 3.8258 7.70625 3.76971 7.76631C3.74917 7.78744 3.71196 7.82969 3.68697 7.85916C3.66198 7.88919 3.63921 7.91366 3.63699 7.91366C3.63477 7.91366 3.60811 7.94146 3.57812 7.97538C3.54814 8.00929 3.52037 8.04043 3.51759 8.04377C3.41597 8.15386 3.29269 8.31623 3.22105 8.43355C3.19828 8.47025 3.1744 8.50917 3.16774 8.51974C3.13608 8.56978 3.01502 8.80054 3.01502 8.8111C3.01502 8.8111 3.00114 8.8428 2.98448 8.87838C2.96782 8.91453 2.95393 8.94511 2.95393 8.94733C2.95393 8.95122 2.92117 9.03129 2.90673 9.06188C2.90284 9.07077 2.88008 9.13583 2.85675 9.20645C2.81621 9.32877 2.789 9.42886 2.75735 9.57343C2.74902 9.61013 2.73791 9.66129 2.7318 9.68742C2.72569 9.71355 2.71681 9.76971 2.71237 9.81253C2.70737 9.85534 2.70015 9.9154 2.69571 9.94598C2.68793 9.99991 2.68238 10.06 2.67016 10.2379C2.66016 10.3775 2.67183 10.5754 2.70404 10.8134C2.7418 11.0948 2.81177 11.3617 2.90951 11.6002C2.92506 11.6386 2.94283 11.6825 2.94894 11.6986C2.96671 11.7453 3.10498 12.0194 3.15108 12.1006C3.1744 12.1412 3.20994 12.2002 3.22993 12.2307C3.25048 12.2619 3.27547 12.3008 3.28658 12.3175C3.29713 12.3342 3.30879 12.3508 3.31212 12.3547C3.3149 12.3581 3.32656 12.3742 3.33711 12.3898C3.34766 12.4059 3.37154 12.4376 3.38931 12.4609C3.43096 12.5149 3.48316 12.5805 3.48705 12.5844C3.48872 12.5861 3.50982 12.6111 3.53425 12.64C3.64143 12.7684 3.89688 13.0109 4.0496 13.1293C4.08014 13.1532 4.09514 13.1638 4.169 13.216C4.20565 13.2422 4.32338 13.3167 4.3728 13.345C4.39113 13.3556 4.41501 13.3695 4.42556 13.3756C4.45443 13.3923 4.63436 13.4818 4.67268 13.4991C4.79596 13.5536 5.06696 13.6464 5.19191 13.677C5.28521 13.6998 5.4307 13.7304 5.45847 13.7332C5.47513 13.7348 5.52289 13.7409 5.56398 13.7471C5.60508 13.7532 5.68505 13.7604 5.74169 13.7632C5.79833 13.766 5.85942 13.7699 5.87774 13.7715C5.96049 13.7782 6.05712 13.7799 6.14153 13.7749C6.332 13.7632 6.48028 13.7515 6.49249 13.7471C6.49971 13.7443 6.52915 13.7393 6.55802 13.7354C6.71574 13.7154 6.89511 13.672 7.05782 13.6158C7.09614 13.6025 7.14001 13.588 7.155 13.583C7.19554 13.5702 7.24774 13.5524 7.26052 13.5463C7.26662 13.5435 7.29661 13.5313 7.32716 13.5196C7.3577 13.5074 7.40657 13.4863 7.43544 13.4724C7.46432 13.459 7.49931 13.4424 7.51319 13.4362C7.52707 13.4296 7.54818 13.4184 7.56039 13.4112C7.57261 13.404 7.5976 13.3895 7.61593 13.3795C7.69367 13.3373 7.702 13.3323 7.702 13.3278C7.702 13.3256 7.70533 13.3239 7.70922 13.3239C7.71311 13.3239 7.73366 13.3122 7.75476 13.2983C7.77642 13.2844 7.81251 13.2616 7.83528 13.2477C7.89581 13.211 8.02298 13.1171 8.06297 13.0793C8.06796 13.0748 8.08685 13.0581 8.10462 13.0431C8.22457 12.9419 8.55443 12.6216 8.72103 12.4454C8.74547 12.4192 8.80544 12.3559 8.85431 12.3036C8.90318 12.2519 8.96704 12.1846 8.99648 12.1535C9.07644 12.07 9.14586 11.9966 9.18307 11.9561C9.20139 11.936 9.24804 11.8849 9.28747 11.8421C9.3269 11.7993 9.40187 11.7192 9.45407 11.6641C9.50627 11.6091 9.5668 11.5451 9.5879 11.5223C9.62955 11.4773 9.6923 11.41 9.75395 11.3444C9.79226 11.3027 9.87001 11.2171 9.89111 11.1932C9.89722 11.1859 9.9161 11.1654 9.93332 11.147C9.95053 11.1287 9.9783 11.0986 9.99496 11.0803C10.0116 11.0619 10.0394 11.0319 10.056 11.0136C10.0733 10.9952 10.101 10.9652 10.1177 10.9468C10.1343 10.9285 10.1721 10.8868 10.2015 10.8551C10.231 10.8229 10.2721 10.7767 10.2932 10.7522C10.3143 10.7278 10.3365 10.7027 10.3426 10.6961C10.3543 10.6838 10.4153 10.6166 10.512 10.5104C10.5442 10.4753 10.5892 10.4264 10.6119 10.4019C10.6353 10.3775 10.6725 10.3363 10.6952 10.3102C10.718 10.284 10.7535 10.2457 10.7735 10.224C10.7941 10.2029 10.8391 10.1523 10.8735 10.1128C10.9079 10.0728 10.9379 10.0394 10.9396 10.0377C10.9412 10.0361 10.9612 10.0138 10.984 9.98768C11.0445 9.91929 11.0962 9.86313 11.22 9.7319C11.2844 9.66295 11.3511 9.59067 11.4366 9.49614C11.4644 9.46556 11.4916 9.43553 11.4977 9.42886C11.5038 9.42275 11.5304 9.39383 11.5565 9.36492C11.7165 9.1881 11.8014 9.09524 11.8387 9.05632C11.862 9.03185 11.892 8.99904 11.9053 8.98403C11.9186 8.96846 11.9486 8.93621 11.9719 8.91119C11.9953 8.88672 12.0241 8.85559 12.0358 8.84168C12.048 8.82834 12.073 8.80109 12.0913 8.78108C12.1102 8.76106 12.153 8.71491 12.1863 8.67821C12.3157 8.53698 12.3929 8.45413 12.4556 8.38851C12.4839 8.35849 12.5295 8.31067 12.5556 8.28342C12.5817 8.25562 12.6405 8.19112 12.6861 8.13885C12.7322 8.08714 12.7833 8.02931 12.7999 8.01096C12.8171 7.99261 12.8494 7.95647 12.8721 7.93034C12.8949 7.90476 12.9188 7.87807 12.9249 7.8714C13.0004 7.79188 13.1653 7.57447 13.227 7.47438C13.3069 7.34427 13.4297 7.09739 13.4858 6.95449C13.4941 6.9328 13.5041 6.90778 13.508 6.89888C13.5191 6.87386 13.5696 6.72095 13.5835 6.67035C13.614 6.55692 13.6629 6.32616 13.669 6.26222C13.6712 6.2422 13.6779 6.19327 13.6835 6.15379C13.7101 5.97808 13.7173 5.41871 13.6968 5.18128C13.6896 5.10121 13.6485 4.87657 13.6185 4.75257C13.5924 4.64581 13.5535 4.51292 13.5274 4.44119C13.5219 4.42562 13.5091 4.39059 13.4996 4.36335C13.4602 4.25047 13.328 3.97301 13.2575 3.85569C13.2136 3.78284 13.1381 3.66496 13.1276 3.65273C13.1242 3.64939 13.1048 3.62215 13.0843 3.59268C13.0637 3.56321 13.0321 3.52095 13.0137 3.49815C12.996 3.47536 12.9721 3.44588 12.9615 3.43198C12.9249 3.38528 12.8183 3.26795 12.7327 3.18121C12.6617 3.10948 12.6211 3.07056 12.5256 2.98437C12.5195 2.97826 12.3973 2.88151 12.3584 2.85092C12.2896 2.79754 12.1391 2.69968 11.9753 2.60237C11.9314 2.57624 11.7859 2.50395 11.7365 2.48394C11.7154 2.47504 11.6954 2.46614 11.692 2.46392C11.6826 2.45725 11.5654 2.40998 11.4938 2.38441C11.4066 2.35271 11.3155 2.32602 11.2006 2.29822C11.0134 2.25318 10.9723 2.24706 10.7369 2.23038C10.6336 2.2226 10.2104 2.21926 10.1427 2.22538ZM10.6008 2.72859C10.7019 2.7386 10.8335 2.75695 10.8813 2.76696C10.9029 2.77141 10.939 2.77864 10.9618 2.78309C10.9846 2.78753 11.0195 2.79532 11.0395 2.80032C11.0595 2.80588 11.0867 2.812 11.1006 2.81478C11.1545 2.82535 11.2805 2.86316 11.3155 2.87928C11.325 2.88373 11.3355 2.88707 11.3389 2.88707C11.3422 2.88707 11.3555 2.89207 11.3683 2.89763C11.5493 2.97937 11.6065 3.00661 11.6809 3.04776C11.6965 3.05666 11.7365 3.07779 11.7698 3.09558C11.8398 3.13228 11.9897 3.22958 12.0513 3.27852C12.0591 3.28519 12.0708 3.29409 12.0769 3.29853C12.2268 3.41363 12.4656 3.64995 12.5411 3.75893C12.5528 3.77617 12.575 3.80453 12.5895 3.82288C12.6045 3.84067 12.6306 3.87681 12.6478 3.9035C12.665 3.93019 12.6883 3.96522 12.6989 3.98191C12.7516 4.06142 12.8083 4.15817 12.8349 4.21322C12.8755 4.29607 12.9054 4.36001 12.9054 4.36335C12.9054 4.36613 12.9299 4.42173 12.9554 4.47456C12.9782 4.52349 13.0115 4.60856 13.0232 4.64971C13.0293 4.66973 13.0409 4.7131 13.0504 4.74646C13.0593 4.77982 13.0687 4.80985 13.0704 4.81318C13.0726 4.81596 13.0759 4.82875 13.0781 4.84154C13.082 4.85933 13.0987 4.93273 13.1187 5.01669C13.1231 5.03504 13.1331 5.11178 13.1392 5.17517C13.1426 5.21186 13.1476 5.24411 13.1498 5.24745C13.1587 5.25968 13.1692 5.46319 13.1692 5.62834C13.1687 5.79904 13.1626 5.91581 13.147 6.04537C13.1431 6.0804 13.1365 6.13656 13.1331 6.17047C13.1292 6.20384 13.1231 6.24554 13.1187 6.26222C13.1048 6.31894 13.0881 6.39289 13.0809 6.42903C13.077 6.44905 13.0687 6.48074 13.062 6.50021C13.0554 6.51911 13.0498 6.53857 13.0498 6.54358C13.0498 6.54802 13.047 6.55748 13.0432 6.56415C13.0398 6.57082 13.0359 6.58027 13.0354 6.58472C13.0337 6.59529 13.0121 6.66146 13.0054 6.67647C13.0026 6.68259 12.9965 6.70149 12.9915 6.71817C12.9865 6.73485 12.9804 6.75265 12.9782 6.75709C12.976 6.76154 12.9643 6.78768 12.9526 6.81548C12.941 6.84273 12.9182 6.89388 12.9021 6.92891C12.8854 6.96339 12.8721 6.99452 12.8721 6.99452C12.8721 6.99452 12.8616 7.01454 12.8494 7.03678C12.8366 7.05902 12.8194 7.08905 12.8116 7.10462C12.7799 7.163 12.7322 7.24085 12.7044 7.2781C12.6927 7.29423 12.6833 7.30924 12.6833 7.31147C12.6833 7.31425 12.6789 7.32036 12.6739 7.32537C12.6683 7.32981 12.6578 7.3426 12.65 7.35261C12.6422 7.36318 12.6206 7.38931 12.6017 7.41155C12.5822 7.43379 12.5667 7.45381 12.5667 7.45381C12.5667 7.45381 12.5523 7.47049 12.535 7.48884C12.5173 7.50664 12.4945 7.53166 12.4839 7.54389C12.4578 7.57503 12.3384 7.70181 12.2557 7.78577C12.1635 7.87974 11.968 8.08325 11.9164 8.13885C11.8936 8.16332 11.8464 8.21336 11.8114 8.25006C11.6798 8.3874 11.5565 8.51863 11.5032 8.57757C11.4999 8.5809 11.4477 8.63762 11.3866 8.70323C11.3255 8.76884 11.2533 8.8478 11.2267 8.87838C11.2006 8.90897 11.1761 8.93621 11.1734 8.93955C11.17 8.94233 11.1523 8.96235 11.1328 8.98347C11.1134 9.00516 11.0779 9.04353 11.0529 9.06966C11.0279 9.09635 10.9818 9.14639 10.9507 9.18142C10.919 9.21645 10.874 9.26594 10.8513 9.29096C10.828 9.31599 10.8002 9.34657 10.7896 9.35824C10.763 9.38771 10.6458 9.51338 10.598 9.56287C10.5147 9.64905 10.5009 9.66462 10.5009 9.67018C10.5009 9.67352 10.4986 9.6763 10.4959 9.6763C10.4931 9.6763 10.472 9.6952 10.4487 9.718L10.407 9.75915L10.3876 9.7358C10.342 9.68075 9.91333 9.26761 9.82892 9.19755C9.80892 9.18142 9.77949 9.15473 9.76339 9.13917C9.74728 9.1236 9.6862 9.06466 9.62733 9.0085C9.50349 8.8895 9.5096 8.89506 9.19528 8.58368C8.87597 8.26674 8.75491 8.14886 8.68771 8.08881C8.62218 8.03042 8.20569 7.62674 8.07407 7.49385C7.93524 7.35372 7.79252 7.21805 7.6909 7.12853C7.64036 7.0846 7.57039 7.01955 7.53485 6.98451C7.49931 6.94948 7.43433 6.88721 7.39046 6.84606C7.34659 6.80491 7.2644 6.7254 7.2072 6.6698C7.15056 6.61364 7.0606 6.52634 7.00729 6.47518C6.90677 6.37788 6.69241 6.16825 6.51027 5.98698C6.40531 5.883 6.32478 5.79515 6.32478 5.78514C6.32478 5.78236 6.33645 5.7679 6.35144 5.75289C6.36588 5.73788 6.39698 5.70451 6.42086 5.67838C6.44529 5.65225 6.48139 5.61332 6.50194 5.59219C6.52193 5.57051 6.55136 5.53826 6.56635 5.51991C6.58135 5.50156 6.5969 5.48488 6.60023 5.48265C6.60412 5.47987 6.63022 5.45263 6.65854 5.42149C6.68686 5.3898 6.7274 5.34531 6.74906 5.32196C6.86734 5.19574 6.93176 5.12679 6.96341 5.09176C6.98285 5.07007 7.03283 5.01669 7.07448 4.97221C7.31216 4.71866 7.37214 4.65416 7.43822 4.5802C7.49486 4.51626 7.56928 4.43786 7.6859 4.31887C7.73643 4.2666 7.79197 4.20933 7.80807 4.19098C7.91025 4.07755 7.94635 4.03807 7.99022 3.99247C8.01576 3.96522 8.04075 3.93798 8.04575 3.93131C8.05019 3.92463 8.06519 3.90795 8.07963 3.89405C8.09351 3.88015 8.13516 3.83567 8.17237 3.79619C8.36062 3.59324 8.54 3.42253 8.67938 3.31299C8.70215 3.29464 8.72603 3.27518 8.73214 3.26962C8.73825 3.26406 8.75435 3.25183 8.76824 3.24237C8.78212 3.23348 8.80489 3.21791 8.81877 3.2079C8.90984 3.14507 9.05978 3.05999 9.18196 3.00272C9.36633 2.91598 9.51404 2.86149 9.69841 2.81256C9.80892 2.78309 9.85224 2.77474 9.98718 2.7564C10.0422 2.74861 10.0949 2.74083 10.1038 2.73916C10.1821 2.72192 10.4753 2.71525 10.6008 2.72859ZM5.92661 6.31282C5.93328 6.31671 5.94327 6.32338 5.94827 6.32839C5.95327 6.33339 5.98048 6.3573 6.00825 6.38177C6.06878 6.43459 6.10376 6.46795 6.27092 6.63254C6.34033 6.70093 6.39698 6.75376 6.39698 6.75376C6.39698 6.75153 6.41364 6.76655 6.43474 6.78601C6.45529 6.80547 6.48916 6.83772 6.51027 6.85774C6.53137 6.8772 6.56136 6.90556 6.57746 6.92113C6.65521 6.99619 6.90455 7.23807 6.9934 7.32481C7.10836 7.43713 7.13168 7.45937 7.21942 7.54389C7.40046 7.71737 7.55317 7.86528 7.63981 7.9498C7.82084 8.12717 7.84139 8.14719 7.84417 8.14719C7.84417 8.14719 7.88582 8.18556 7.93413 8.23227C7.98189 8.27953 8.04742 8.34236 8.07963 8.37294C8.11184 8.40297 8.1757 8.46469 8.22124 8.50917C8.26733 8.55366 8.31675 8.60092 8.33119 8.61482C8.34618 8.62817 8.38561 8.66598 8.41949 8.69878C8.45336 8.73215 8.4828 8.75883 8.48557 8.75883C8.48779 8.75883 8.49446 8.7644 8.50001 8.77107C8.50556 8.7783 8.52278 8.79498 8.53777 8.80832C8.55332 8.82167 8.6183 8.8845 8.68271 8.94733C8.74713 9.01016 8.82821 9.08801 8.86264 9.12026C8.89707 9.15251 8.9576 9.20978 8.99703 9.24815C9.03701 9.28652 9.08977 9.33656 9.11421 9.35936C9.1864 9.42497 9.42908 9.67018 9.42908 9.67686C9.42908 9.68019 9.42297 9.68798 9.41464 9.69409C9.40686 9.70021 9.39131 9.718 9.3791 9.73413C9.36744 9.7497 9.35133 9.76971 9.343 9.77917C9.33467 9.78806 9.32023 9.8053 9.31079 9.81753C9.3008 9.82921 9.28414 9.84812 9.27359 9.85979C9.26303 9.87091 9.24082 9.89538 9.22416 9.91317C9.20806 9.93096 9.15697 9.9849 9.11032 10.0327C9.06423 10.08 9.00925 10.1384 8.98759 10.1628C8.91373 10.2457 8.90429 10.2562 8.88208 10.2796C8.86986 10.2924 8.84487 10.3191 8.8271 10.3385C8.78878 10.3791 8.59886 10.5793 8.56554 10.6138C8.55332 10.6266 8.52722 10.6538 8.50723 10.6749C8.47113 10.7139 8.33674 10.8568 8.27955 10.9174C8.26289 10.9352 8.24012 10.9591 8.22957 10.9708C8.21901 10.9824 8.18625 11.018 8.15737 11.0497C8.1285 11.0814 8.08851 11.1253 8.06908 11.1465C8.04908 11.1682 7.99411 11.2271 7.9469 11.2771C7.89914 11.3277 7.84028 11.39 7.81585 11.4161C7.79141 11.4417 7.75865 11.4768 7.74254 11.4934C7.72644 11.5101 7.71311 11.5257 7.712 11.5279C7.70978 11.5346 7.59482 11.6558 7.55262 11.6964C7.50653 11.7409 7.49653 11.7503 7.44044 11.8004C7.4149 11.8232 7.38769 11.8482 7.37991 11.856C7.35548 11.881 7.27829 11.9472 7.24719 11.97C7.23053 11.9816 7.20942 11.9989 7.19998 12.0072C7.18277 12.0228 7.03505 12.124 7.00784 12.1384C7.00007 12.1423 6.98896 12.1501 6.98285 12.1557C6.97674 12.1607 6.96119 12.1701 6.94786 12.1757C6.93454 12.1813 6.92232 12.1885 6.9201 12.1918C6.91566 12.1985 6.89511 12.2102 6.81348 12.2519C6.7846 12.2663 6.75794 12.2786 6.75405 12.2786C6.75072 12.2786 6.7274 12.2875 6.70296 12.298C6.67909 12.3086 6.65465 12.3175 6.64965 12.3175C6.64465 12.3175 6.63355 12.3208 6.62577 12.3253C6.60856 12.3342 6.57802 12.3447 6.51915 12.362C6.49638 12.3686 6.46251 12.3786 6.44418 12.3848C6.37588 12.4053 6.30924 12.4209 6.19761 12.4404C5.93716 12.4865 5.73669 12.4965 5.54177 12.4726C5.38406 12.4537 5.35351 12.4493 5.2691 12.4348C5.20024 12.4231 5.03364 12.3831 5.01532 12.3742C5.01032 12.3714 4.98089 12.3636 4.95034 12.3564C4.9198 12.3492 4.89259 12.3419 4.88926 12.3392C4.88648 12.3369 4.8676 12.3308 4.84761 12.3258C4.82762 12.3203 4.79763 12.3097 4.78097 12.3025C4.75098 12.2886 4.7221 12.2763 4.70045 12.2674C4.63658 12.2413 4.48387 12.1646 4.46665 12.1507C4.46054 12.1457 4.44499 12.1362 4.43111 12.129C4.41723 12.1218 4.40223 12.1123 4.39724 12.1084C4.39279 12.104 4.38557 12.1006 4.38169 12.1006C4.37835 12.1006 4.35559 12.0867 4.33115 12.07C4.30727 12.0528 4.27284 12.0311 4.25507 12.0217C4.2373 12.0128 4.21786 12.0005 4.21176 11.9955C4.20565 11.99 4.19454 11.9827 4.18677 11.9794C4.169 11.9711 4.154 11.9611 4.14012 11.9488C4.13401 11.9438 4.12624 11.9394 4.12235 11.9394C4.11846 11.9394 4.1118 11.9349 4.10791 11.9294C4.10402 11.9244 4.0857 11.9088 4.06737 11.8949C4.04904 11.881 4.03294 11.8688 4.03127 11.8671C4.02961 11.8654 4.02072 11.8582 4.01073 11.8515C3.9502 11.8093 3.71918 11.5824 3.65809 11.5057C3.63977 11.4829 3.61922 11.4578 3.61256 11.4501C3.60589 11.4423 3.5909 11.4211 3.57924 11.4034C3.56757 11.385 3.55425 11.3667 3.5498 11.3622C3.54536 11.3578 3.53536 11.3433 3.52759 11.3311C3.51982 11.3183 3.51149 11.3072 3.50982 11.3055C3.50427 11.3016 3.46484 11.2399 3.44707 11.2076C3.41763 11.1548 3.40264 11.1303 3.39487 11.1214C3.39042 11.117 3.38709 11.1103 3.38709 11.107C3.38709 11.1037 3.38376 11.0981 3.37932 11.0948C3.37487 11.0909 3.36988 11.0814 3.36765 11.0731C3.36599 11.0647 3.35821 11.0453 3.35044 11.0291C3.34322 11.0136 3.33711 10.9974 3.33711 10.9941C3.33711 10.9902 3.33378 10.9808 3.32989 10.973C3.3049 10.9229 3.26048 10.7695 3.24881 10.6911C3.2366 10.6127 3.22549 10.4776 3.22382 10.4019C3.22216 10.2902 3.22993 10.0249 3.2366 9.97934C3.24715 9.90594 3.25992 9.82921 3.2677 9.79307C3.27214 9.77305 3.28102 9.72912 3.28713 9.69576C3.29824 9.63293 3.32934 9.51338 3.36988 9.37326C3.38431 9.32377 3.43374 9.18142 3.44151 9.16697C3.44485 9.16141 3.45928 9.13027 3.47317 9.09802C3.49871 9.04075 3.51704 9.00349 3.57146 8.89784C3.61367 8.81666 3.61478 8.81444 3.64643 8.76773C3.66253 8.74382 3.67586 8.72158 3.67586 8.72158C3.67586 8.72158 3.68919 8.70045 3.7053 8.6771C3.72084 8.6543 3.73695 8.63039 3.74028 8.62427C3.74361 8.61871 3.75194 8.60815 3.75861 8.60092C3.76472 8.59425 3.77027 8.58535 3.77027 8.58201C3.77027 8.57868 3.77638 8.57145 3.78415 8.56645C3.79193 8.56144 3.79804 8.55421 3.79804 8.55032C3.79804 8.54698 3.80359 8.5392 3.8097 8.53308C3.81636 8.52752 3.83247 8.50806 3.84524 8.49027C3.85801 8.47303 3.88578 8.43911 3.90688 8.41632C3.92798 8.39296 3.94742 8.37016 3.94964 8.36627C3.95186 8.36182 3.95797 8.35849 3.96186 8.35849C3.9663 8.35849 3.96963 8.35626 3.96852 8.35404C3.96741 8.34848 4.08847 8.22059 4.25896 8.04711C4.31727 7.98761 4.41556 7.88641 4.4772 7.82191C4.63381 7.65899 4.74543 7.54389 4.85927 7.42712C4.91258 7.37207 4.97867 7.30312 5.00588 7.27421C5.11694 7.15411 5.16803 7.09962 5.19136 7.07793C5.23023 7.04179 5.23467 7.03678 5.31409 6.94948C5.35518 6.90389 5.40516 6.84995 5.4246 6.82994C5.48735 6.76488 5.62118 6.62142 5.65561 6.5825C5.67394 6.56193 5.71281 6.51967 5.74224 6.48853C5.77112 6.45739 5.8211 6.40401 5.85331 6.36954C5.88496 6.33562 5.91273 6.30726 5.91273 6.30726C5.91273 6.30726 5.91995 6.30948 5.92661 6.31282Z" fill="#FCFCFD"/>
</svg>
