<svg width="19" height="18" viewBox="0 0 19 18" fill="none" xmlns="http://www.w3.org/2000/svg">
<path d="M16.6562 5.78454L12.2346 1.36294C11.3074 0.435681 10.0287 -0.062114 8.72078 0.00621578L3.84043 0.240472C1.88828 0.328319 0.336333 1.88027 0.238735 3.82264L0.00447859 8.70298C-0.0540856 10.0109 0.433944 11.2896 1.36121 12.2168L5.7828 16.6384C7.59829 18.4539 10.546 18.4539 12.3713 16.6384L16.6562 12.3535C18.4815 10.5478 18.4815 7.60003 16.6562 5.78454ZM6.57342 9.37648C5.02147 9.37648 3.76234 8.11735 3.76234 6.5654C3.76234 5.01345 5.02147 3.75432 6.57342 3.75432C8.12537 3.75432 9.3845 5.01345 9.3845 6.5654C9.3845 8.11735 8.12537 9.37648 6.57342 9.37648Z" fill="#FCFCFD"/>
</svg>
