<svg width="12" height="12" viewBox="0 0 12 12" fill="none" xmlns="http://www.w3.org/2000/svg">
<path fill-rule="evenodd" clip-rule="evenodd" d="M3.48614 2.51386C3.21765 2.24538 2.78235 2.24538 2.51386 2.51386C2.24538 2.78235 2.24538 3.21765 2.51386 3.48614L5.02773 6L2.51386 8.51386C2.24538 8.78235 2.24538 9.21765 2.51386 9.48614C2.78235 9.75462 3.21765 9.75462 3.48614 9.48614L6 6.97227L8.51386 9.48614C8.78235 9.75462 9.21765 9.75462 9.48614 9.48614C9.75462 9.21765 9.75462 8.78235 9.48614 8.51386L6.97227 6L9.48614 3.48614C9.75462 3.21765 9.75462 2.78235 9.48614 2.51386C9.21765 2.24538 8.78235 2.24538 8.51386 2.51386L6 5.02773L3.48614 2.51386Z" fill="#F65B93"/>
</svg>
