<svg width="22" height="22" viewBox="0 0 22 22" fill="none" xmlns="http://www.w3.org/2000/svg">
<path d="M8.82975 10.1195C8.82975 10.8336 9.40907 11.4129 10.1231 11.4129C10.8371 11.4129 11.4165 10.8336 11.4165 10.1195C11.4165 9.40549 10.8371 8.82617 10.1231 8.82617C9.40907 8.82617 8.82975 9.40549 8.82975 10.1195Z" fill="#FCFCFD"/>
<path fill-rule="evenodd" clip-rule="evenodd" d="M2.94186 11C2.94186 15.4442 6.55581 19.0581 11 19.0581C15.4442 19.0581 19.0581 15.4442 19.0581 11C19.0581 6.55581 15.4442 2.94186 11 2.94186C6.55581 2.94186 2.94186 6.55581 2.94186 11ZM14.7671 9.75725L12.7299 7.72003C12.3027 7.29281 11.7135 7.06345 11.1109 7.09493L8.86235 7.20286C7.96291 7.24334 7.24786 7.95839 7.20289 8.85332L7.09496 11.1019C7.06798 11.7045 7.29283 12.2936 7.72006 12.7209L9.75728 14.7581C10.5937 15.5945 11.9519 15.5945 12.7929 14.7581L14.7671 12.7839C15.6081 11.9519 15.6081 10.5937 14.7671 9.75725Z" fill="#FCFCFD"/>
<path d="M11 3.9186C10.5995 3.9186 10.2674 3.58651 10.2674 3.18605V1.23256C10.2674 0.832093 10.5995 0.5 11 0.5C11.4005 0.5 11.7326 0.832093 11.7326 1.23256V3.18605C11.7326 3.58651 11.4005 3.9186 11 3.9186Z" fill="#FCFCFD"/>
<path d="M3.18605 11.7326H1.23256C0.832093 11.7326 0.5 11.4005 0.5 11C0.5 10.5995 0.832093 10.2674 1.23256 10.2674H3.18605C3.58651 10.2674 3.9186 10.5995 3.9186 11C3.9186 11.4005 3.58651 11.7326 3.18605 11.7326Z" fill="#FCFCFD"/>
<path d="M11 21.5C10.5995 21.5 10.2674 21.1679 10.2674 20.7674V18.814C10.2674 18.4135 10.5995 18.0814 11 18.0814C11.4005 18.0814 11.7326 18.4135 11.7326 18.814V20.7674C11.7326 21.1679 11.4005 21.5 11 21.5Z" fill="#FCFCFD"/>
<path d="M20.7674 11.7326H18.814C18.4135 11.7326 18.0814 11.4005 18.0814 11C18.0814 10.5995 18.4135 10.2674 18.814 10.2674H20.7674C21.1679 10.2674 21.5 10.5995 21.5 11C21.5 11.4005 21.1679 11.7326 20.7674 11.7326Z" fill="#FCFCFD"/>
</svg>
