<svg width="16" height="16" viewBox="0 0 16 16" fill="none" xmlns="http://www.w3.org/2000/svg">
<path fill-rule="evenodd" clip-rule="evenodd" d="M6.67089 2.71119C6.9671 2.26688 7.46576 2 7.99976 2C8.53375 2 9.03242 2.26688 9.32862 2.71119L9.55522 3.05109C9.75474 3.35036 10.1187 3.49488 10.4692 3.414L10.6927 3.36242C11.2375 3.2367 11.8086 3.4005 12.2039 3.79584C12.5993 4.19118 12.7631 4.7623 12.6373 5.30708L12.5858 5.5306C12.5049 5.88107 12.6494 6.24502 12.9487 6.44453L13.2886 6.67113C13.7329 6.96734 13.9998 7.466 13.9998 8C13.9998 8.53399 13.7329 9.03266 13.2886 9.32887L12.9487 9.55547C12.6494 9.75498 12.5049 10.1189 12.5858 10.4694L12.6373 10.6929C12.7631 11.2377 12.5993 11.8088 12.2039 12.2042C11.8086 12.5995 11.2375 12.7633 10.6927 12.6376L10.4692 12.586C10.1187 12.5051 9.75474 12.6496 9.55522 12.9489L9.32862 13.2888C9.03242 13.7331 8.53375 14 7.99976 14C7.46576 14 6.9671 13.7331 6.67089 13.2888L6.44429 12.9489C6.24477 12.6496 5.88083 12.5051 5.53036 12.586L5.30684 12.6376C4.76206 12.7633 4.19094 12.5995 3.7956 12.2042C3.40025 11.8088 3.23646 11.2377 3.36218 10.6929L3.41376 10.4694C3.49464 10.1189 3.35012 9.75498 3.05085 9.55547L2.71094 9.32887C2.26663 9.03266 1.99976 8.53399 1.99976 8C1.99976 7.466 2.26663 6.96734 2.71094 6.67113L3.05085 6.44453C3.35012 6.24502 3.49464 5.88107 3.41376 5.5306L3.36218 5.30708C3.23646 4.7623 3.40025 4.19118 3.7956 3.79584C4.19094 3.4005 4.76206 3.2367 5.30684 3.36242L5.53036 3.414C5.88083 3.49488 6.24477 3.35036 6.44429 3.05109L6.67089 2.71119ZM5.89976 8C5.89976 6.8402 6.83996 5.9 7.99976 5.9C9.15955 5.9 10.0998 6.8402 10.0998 8C10.0998 9.1598 9.15955 10.1 7.99976 10.1C6.83996 10.1 5.89976 9.1598 5.89976 8Z" fill="#9191A4"/>
</svg>
