<svg width="16" height="17" viewBox="0 0 16 17" fill="none" xmlns="http://www.w3.org/2000/svg">
<path fill-rule="evenodd" clip-rule="evenodd" d="M8.59976 8.5C8.59976 8.8312 8.33096 9.1 7.99976 9.1C7.66856 9.1 7.39976 8.8312 7.39976 8.5C7.39976 8.1688 7.66856 7.9 7.99976 7.9C8.33096 7.9 8.59976 8.1688 8.59976 8.5ZM10.9998 9.1H11.5458C11.2914 10.6042 10.104 11.7917 8.59976 12.0461V11.5C8.59976 11.1688 8.33096 10.9 7.99976 10.9C7.66856 10.9 7.39976 11.1688 7.39976 11.5V12.0461C5.89556 11.7917 4.70815 10.6042 4.45375 9.1H4.99976C5.33096 9.1 5.59976 8.8312 5.59976 8.5C5.59976 8.1688 5.33096 7.9 4.99976 7.9H4.45375C4.70815 6.3958 5.89556 5.20831 7.39976 4.95391V5.5C7.39976 5.8312 7.66856 6.1 7.99976 6.1C8.33096 6.1 8.59976 5.8312 8.59976 5.5V4.95391C10.104 5.20831 11.2914 6.3958 11.5458 7.9H10.9998C10.6686 7.9 10.3998 8.1688 10.3998 8.5C10.3998 8.8312 10.6686 9.1 10.9998 9.1ZM13.3998 7.9H12.7584C12.4872 5.7298 10.77 4.01251 8.59976 3.74131V3.1C8.59976 2.7688 8.33096 2.5 7.99976 2.5C7.66856 2.5 7.39976 2.7688 7.39976 3.1V3.74131C5.22956 4.01251 3.51236 5.7298 3.24116 7.9H2.59976C2.26856 7.9 1.99976 8.1688 1.99976 8.5C1.99976 8.8312 2.26856 9.1 2.59976 9.1H3.24116C3.51236 11.2702 5.22956 12.9875 7.39976 13.2587V13.9C7.39976 14.2312 7.66856 14.5 7.99976 14.5C8.33096 14.5 8.59976 14.2312 8.59976 13.9V13.2587C10.77 12.9875 12.4872 11.2702 12.7584 9.1H13.3998C13.731 9.1 13.9998 8.8312 13.9998 8.5C13.9998 8.1688 13.731 7.9 13.3998 7.9Z" fill="#9191A4"/>
</svg>
