<svg xmlns="http://www.w3.org/2000/svg" width="20" height="20" viewBox="0 0 20 20" fill="none">
  <g clip-path="url(#clip0_19732_87946)">
    <path d="M10.8333 0.833344L10.8341 3.38501C12.3026 3.57067 13.6676 4.23954 14.7142 5.28627C15.7608 6.33301 16.4295 7.69814 16.6149 9.16668H19.1666V10.8333L16.6149 10.8342C16.4293 12.3026 15.7606 13.6675 14.714 14.7141C13.6674 15.7606 12.3025 16.4294 10.8341 16.615L10.8333 19.1667H9.16659V16.615C7.69805 16.4296 6.33292 15.7609 5.28618 14.7143C4.23945 13.6677 3.57058 12.3027 3.38492 10.8342L0.833252 10.8333V9.16668H3.38492C3.57041 7.69802 4.2392 6.33279 5.28595 5.28604C6.3327 4.23929 7.69792 3.5705 9.16659 3.38501V0.833344H10.8333ZM9.99992 5.00001C8.67384 5.00001 7.40207 5.52679 6.46439 6.46448C5.5267 7.40216 4.99992 8.67393 4.99992 10C4.99992 11.3261 5.5267 12.5979 6.46439 13.5355C7.40207 14.4732 8.67384 15 9.99992 15C11.326 15 12.5978 14.4732 13.5355 13.5355C14.4731 12.5979 14.9999 11.3261 14.9999 10C14.9999 8.67393 14.4731 7.40216 13.5355 6.46448C12.5978 5.52679 11.326 5.00001 9.99992 5.00001ZM9.99992 8.33334C10.4419 8.33334 10.8659 8.50894 11.1784 8.8215C11.491 9.13406 11.6666 9.55798 11.6666 10C11.6666 10.442 11.491 10.866 11.1784 11.1785C10.8659 11.4911 10.4419 11.6667 9.99992 11.6667C9.55789 11.6667 9.13397 11.4911 8.82141 11.1785C8.50885 10.866 8.33325 10.442 8.33325 10C8.33325 9.55798 8.50885 9.13406 8.82141 8.8215C9.13397 8.50894 9.55789 8.33334 9.99992 8.33334Z" fill="#8d94b8"/>
  </g>
  <defs>
    <clipPath id="clip0_19732_87946">
      <rect width="20" height="20" fill="#8d94b8"/>
    </clipPath>
  </defs>
</svg>