<svg width="40" height="40" viewBox="0 0 40 40" fill="none" xmlns="http://www.w3.org/2000/svg">
<circle cx="20" cy="20" r="20" fill="#232323"/>
<path d="M13.9241 24.0612C14.0327 23.9424 14.182 23.8731 14.3404 23.8731H28.7046C28.967 23.8731 29.0983 24.2196 28.9127 24.4225L26.0752 27.5257C25.9666 27.6445 25.8172 27.7138 25.6589 27.7138H11.2947C11.0322 27.7138 10.901 27.3673 11.0865 27.1644L13.9241 24.0612Z" fill="url(#paint0_linear_2001_3415)"/>
<path d="M13.9241 12.4746C14.0372 12.3558 14.1865 12.2865 14.3404 12.2865H28.7046C28.967 12.2865 29.0983 12.633 28.9127 12.8359L26.0752 15.9391C25.9666 16.0579 25.8172 16.1272 25.6589 16.1272H11.2947C11.0322 16.1272 10.901 15.7807 11.0865 15.5778L13.9241 12.4746Z" fill="url(#paint1_linear_2001_3415)"/>
<path d="M26.0752 18.2309C25.9666 18.1121 25.8172 18.0428 25.6589 18.0428H11.2947C11.0322 18.0428 10.901 18.3892 11.0865 18.5922L13.9241 21.6954C14.0327 21.8142 14.182 21.8835 14.3404 21.8835H28.7046C28.967 21.8835 29.0983 21.537 28.9127 21.3341L26.0752 18.2309Z" fill="url(#paint2_linear_2001_3415)"/>
<defs>
<linearGradient id="paint0_linear_2001_3415" x1="27.3324" y1="10.433" x2="15.9215" y2="30.418" gradientUnits="userSpaceOnUse">
<stop stop-color="#00FFA3"/>
<stop offset="1" stop-color="#DC1FFF"/>
</linearGradient>
<linearGradient id="paint1_linear_2001_3415" x1="22.9856" y1="7.95083" x2="11.5747" y2="27.9359" gradientUnits="userSpaceOnUse">
<stop stop-color="#00FFA3"/>
<stop offset="1" stop-color="#DC1FFF"/>
</linearGradient>
<linearGradient id="paint2_linear_2001_3415" x1="25.1451" y1="9.18411" x2="13.7343" y2="29.1691" gradientUnits="userSpaceOnUse">
<stop stop-color="#00FFA3"/>
<stop offset="1" stop-color="#DC1FFF"/>
</linearGradient>
</defs>
</svg>
