<svg width="17" height="16" viewBox="0 0 17 16" fill="none" xmlns="http://www.w3.org/2000/svg">
<path d="M4.14884 10.7074C4.22125 10.6282 4.32081 10.582 4.42641 10.582H14.0025C14.1775 10.582 14.265 10.813 14.1413 10.9483L12.2496 13.0171C12.1772 13.0963 12.0776 13.1425 11.972 13.1425H2.39593C2.22095 13.1425 2.13345 12.9115 2.25715 12.7762L4.14884 10.7074Z" fill="url(#paint0_linear_1521_307378)"/>
<path d="M4.14884 2.9828C4.22426 2.90362 4.32383 2.85742 4.42641 2.85742H14.0025C14.1775 2.85742 14.265 3.08839 14.1413 3.22367L12.2496 5.29248C12.1772 5.37167 12.0776 5.41787 11.972 5.41787H2.39593C2.22095 5.41787 2.13345 5.1869 2.25715 5.05162L4.14884 2.9828Z" fill="url(#paint1_linear_1521_307378)"/>
<path d="M12.2496 6.82069C12.1772 6.74151 12.0776 6.69531 11.972 6.69531H2.39593C2.22095 6.69531 2.13345 6.92628 2.25715 7.06156L4.14884 9.13037C4.22125 9.20956 4.32081 9.25576 4.42641 9.25576H14.0025C14.1775 9.25576 14.265 9.02479 14.1413 8.88951L12.2496 6.82069Z" fill="url(#paint2_linear_1521_307378)"/>
<defs>
<linearGradient id="paint0_linear_1521_307378" x1="13.0877" y1="1.62195" x2="5.48049" y2="14.9453" gradientUnits="userSpaceOnUse">
<stop stop-color="#00FFA3"/>
<stop offset="1" stop-color="#DC1FFF"/>
</linearGradient>
<linearGradient id="paint1_linear_1521_307378" x1="10.1898" y1="-0.0330232" x2="2.58262" y2="13.2903" gradientUnits="userSpaceOnUse">
<stop stop-color="#00FFA3"/>
<stop offset="1" stop-color="#DC1FFF"/>
</linearGradient>
<linearGradient id="paint2_linear_1521_307378" x1="11.6295" y1="0.789531" x2="4.02233" y2="14.1129" gradientUnits="userSpaceOnUse">
<stop stop-color="#00FFA3"/>
<stop offset="1" stop-color="#DC1FFF"/>
</linearGradient>
</defs>
</svg>
