<svg width="16" height="17" viewBox="0 0 16 17" fill="none" xmlns="http://www.w3.org/2000/svg">
<path d="M12.4386 9.11269C9.34308 9.38065 7.65396 11.0698 7.38601 14.1653C7.10675 11.0216 5.42645 9.46304 2.33337 9.11269C5.47534 8.7503 7.02361 7.20203 7.38601 4.06006C7.73636 7.15313 9.29493 8.83343 12.4386 9.11269Z" stroke="#9191A4" stroke-width="1.26316" stroke-linecap="round" stroke-linejoin="round"/>
<path d="M12.3668 2.3835C12.3528 2.25943 12.2479 2.16566 12.123 2.16553C11.9982 2.1654 11.8931 2.25896 11.8788 2.383C11.8122 2.96044 11.6407 3.35658 11.372 3.62528C11.1033 3.89397 10.7071 4.06546 10.1297 4.13206C10.0057 4.14636 9.9121 4.25145 9.91223 4.3763C9.91236 4.50116 10.0061 4.60605 10.1302 4.62011C10.6979 4.68441 11.103 4.85585 11.3786 5.1264C11.6526 5.39547 11.8273 5.79105 11.8781 6.3627C11.8894 6.48953 11.9957 6.58672 12.123 6.58658C12.2504 6.58644 12.3565 6.48901 12.3675 6.36215C12.4161 5.80016 12.5907 5.39566 12.8665 5.11983C13.1424 4.84399 13.5469 4.6694 14.1089 4.62075C14.2357 4.60977 14.3331 4.50366 14.3333 4.37633C14.3334 4.249 14.2362 4.14267 14.1094 4.1314C13.5378 4.08062 13.1422 3.90589 12.8731 3.63186C12.6026 3.35634 12.4311 2.95118 12.3668 2.3835Z" fill="#9191A4"/>
</svg>
