<svg width="16" height="16" viewBox="0 0 16 16" fill="none" xmlns="http://www.w3.org/2000/svg">
<g clip-path="url(#clip0_56_16130)">
<path d="M8 13.4444V9.55556M8 13.4444C8 14.3036 8.69645 15 9.55556 15H13.4444C14.3036 15 15 14.3036 15 13.4444V9.55556C15 8.69645 14.3036 8 13.4444 8H9.55556C8.69645 8 8 8.69645 8 9.55556M8 13.4444C8 14.3036 7.30355 15 6.44444 15H2.55556C1.69645 15 1 14.3036 1 13.4444V9.55556C1 8.69645 1.69645 8 2.55556 8H6.44444C7.30355 8 8 8.69645 8 9.55556M4.11111 10.3333H4.88889M11.1111 10.3333H11.8889M7.22222 3.33333H8.77778M5.66667 8H10.3333C11.1924 8 11.8889 7.30355 11.8889 6.44444V2.55556C11.8889 1.69645 11.1924 1 10.3333 1H5.66667C4.80756 1 4.11111 1.69645 4.11111 2.55556V6.44444C4.11111 7.30355 4.80756 8 5.66667 8Z" stroke="#9191A4" stroke-width="1.2" stroke-linecap="round"/>
</g>
<defs>
<clipPath id="clip0_56_16130">
<rect width="16" height="16" fill="white"/>
</clipPath>
</defs>
</svg>
