<svg width="15" height="14" viewBox="0 0 15 14" fill="none" xmlns="http://www.w3.org/2000/svg">
<path d="M7.5 4.08333C7.19058 4.08333 6.89383 3.96042 6.67504 3.74162C6.45625 3.52283 6.33333 3.22609 6.33333 2.91667C6.33333 2.60725 6.45625 2.3105 6.67504 2.09171C6.89383 1.87292 7.19058 1.75 7.5 1.75C7.80942 1.75 8.10617 1.87292 8.32496 2.09171C8.54375 2.3105 8.66667 2.60725 8.66667 2.91667C8.66667 3.22609 8.54375 3.52283 8.32496 3.74162C8.10617 3.96042 7.80942 4.08333 7.5 4.08333ZM7.5 4.08333V6.41667M7.5 6.41667C7.96413 6.41667 8.40925 6.60104 8.73744 6.92923C9.06563 7.25742 9.25 7.70254 9.25 8.16667C9.25 8.6308 9.06563 9.07591 8.73744 9.4041C8.40925 9.73229 7.96413 9.91667 7.5 9.91667C7.03587 9.91667 6.59075 9.73229 6.26256 9.4041C5.93437 9.07591 5.75 8.6308 5.75 8.16667C5.75 7.70254 5.93437 7.25742 6.26256 6.92923C6.59075 6.60104 7.03587 6.41667 7.5 6.41667ZM4.40833 10.3833L6.04167 9.21667M10.5917 10.3833L8.95833 9.21667M2.25 11.0833C2.25 11.3928 2.37292 11.6895 2.59171 11.9083C2.8105 12.1271 3.10725 12.25 3.41667 12.25C3.72609 12.25 4.02283 12.1271 4.24162 11.9083C4.46042 11.6895 4.58333 11.3928 4.58333 11.0833C4.58333 10.7739 4.46042 10.4772 4.24162 10.2584C4.02283 10.0396 3.72609 9.91667 3.41667 9.91667C3.10725 9.91667 2.8105 10.0396 2.59171 10.2584C2.37292 10.4772 2.25 10.7739 2.25 11.0833ZM10.4167 11.0833C10.4167 11.3928 10.5396 11.6895 10.7584 11.9083C10.9772 12.1271 11.2739 12.25 11.5833 12.25C11.8928 12.25 12.1895 12.1271 12.4083 11.9083C12.6271 11.6895 12.75 11.3928 12.75 11.0833C12.75 10.7739 12.6271 10.4772 12.4083 10.2584C12.1895 10.0396 11.8928 9.91667 11.5833 9.91667C11.2739 9.91667 10.9772 10.0396 10.7584 10.2584C10.5396 10.4772 10.4167 10.7739 10.4167 11.0833Z" stroke="#F34C4C" stroke-width="1.16667" stroke-linecap="round" stroke-linejoin="round"/>
</svg>
