<svg width="16" height="16" viewBox="0 0 16 16" fill="none" xmlns="http://www.w3.org/2000/svg">
<path d="M4.72842 8.83473L2.01836 7.93694C2.01836 7.93694 1.69448 7.80334 1.79877 7.50037C1.82024 7.4379 1.86354 7.38474 1.9931 7.29338C2.59357 6.86782 13.1075 3.02554 13.1075 3.02554C13.1075 3.02554 13.4043 2.92383 13.5794 2.99148C13.6227 3.00511 13.6617 3.0302 13.6923 3.06417C13.723 3.09814 13.7442 3.13978 13.7538 3.18483C13.7728 3.2644 13.7807 3.34626 13.7773 3.42805C13.7765 3.4988 13.7681 3.56438 13.7617 3.66722C13.6977 4.71771 11.7814 12.5579 11.7814 12.5579C11.7814 12.5579 11.6667 13.0167 11.256 13.0324C11.155 13.0357 11.0544 13.0183 10.9602 12.9813C10.866 12.9442 10.7801 12.8883 10.7077 12.8167C9.90157 12.1117 7.11544 10.2079 6.49979 9.78925C6.4859 9.77963 6.4742 9.76709 6.46549 9.75249C6.45677 9.73788 6.45124 9.72154 6.44926 9.70457C6.44065 9.66045 6.48785 9.60578 6.48785 9.60578C6.48785 9.60578 11.3392 5.22127 11.4683 4.761C11.4783 4.72534 11.4406 4.70774 11.3899 4.72336C11.0676 4.84389 5.48187 8.43043 4.86538 8.82626C4.821 8.83991 4.7741 8.84281 4.72842 8.83473Z" fill="#9191A4"/>
</svg>
