<svg width="16" height="16" viewBox="0 0 16 16" fill="none" xmlns="http://www.w3.org/2000/svg">
<path fill-rule="evenodd" clip-rule="evenodd" d="M11.3797 8.61919C11.5196 8.75909 11.6317 8.92452 11.6998 9.10889L11.746 9.07243C12.4076 8.54739 13.4425 8.5687 14.0195 9.28984C14.4554 9.83473 14.4827 10.6445 13.9798 11.1976C12.6012 12.7137 10.8389 13.7696 8.59288 13.6626C8.05988 13.6373 7.43276 13.4767 6.96881 13.3371C6.73039 13.2654 6.5224 13.1952 6.37378 13.1429C6.31804 13.1232 6.27045 13.1061 6.23252 13.0922H5.32826C5.01454 13.4427 4.55863 13.6633 4.0512 13.6633C3.10497 13.6633 2.33789 12.8962 2.33789 11.95V9.66555C2.33789 8.71932 3.10497 7.95224 4.0512 7.95224C4.6254 7.95224 5.13363 8.2347 5.44451 8.66826C6.85985 8.13808 8.05847 7.91642 9.01636 7.90762C10.0506 7.89812 10.8989 8.13844 11.3797 8.61919ZM5.76465 9.76874V11.9503H6.33575C6.40606 11.9503 6.47577 11.9633 6.54137 11.9886L6.54372 11.9895L6.55357 11.9933L6.59469 12.0087C6.6312 12.0222 6.68518 12.0419 6.75314 12.0658C6.88933 12.1138 7.08022 12.1782 7.29808 12.2437C7.74671 12.3787 8.2618 12.5037 8.64734 12.5221C10.4519 12.608 11.9073 11.7795 13.1348 10.4295C13.2271 10.328 13.2444 10.1496 13.1277 10.0037C12.9921 9.83432 12.688 9.78357 12.4562 9.96749C11.9513 10.3682 11.2237 10.8684 10.4861 11.0729C10.0753 11.1868 9.67048 11.2592 9.3494 11.3046L9.25422 11.3147C8.93548 11.3484 8.65956 11.0946 8.66659 10.7742L8.66946 10.6435C8.67453 10.4127 8.85206 10.2181 9.08102 10.1884L9.74769 10.0574C10.0314 10.0016 10.2952 9.87142 10.512 9.68013C10.5688 9.62865 10.599 9.58653 10.6143 9.55853C10.6291 9.53161 10.6302 9.5178 10.6303 9.5157C10.6303 9.5157 10.6309 9.51059 10.6265 9.50028C10.6216 9.48849 10.6078 9.46285 10.5721 9.42723C10.4104 9.26548 9.9381 9.04179 9.02698 9.05015C8.21311 9.05763 7.12024 9.25207 5.76465 9.76874ZM3.47998 9.66595C3.47998 9.35054 3.73567 9.09485 4.05109 9.09485C4.3665 9.09485 4.62219 9.35054 4.62219 9.66595V11.9504C4.62219 12.2658 4.3665 12.5215 4.05109 12.5215C3.73567 12.5215 3.47998 12.2658 3.47998 11.9504V9.66595Z" fill="#9191A4"/>
<path fill-rule="evenodd" clip-rule="evenodd" d="M7.47778 1.67004C8.33161 1.67004 9.07515 2.13815 9.46723 2.83119C9.56392 2.81869 9.66238 2.81225 9.7622 2.81225C11.0238 2.81225 12.0466 3.83502 12.0466 5.09667C12.0466 6.35832 11.0238 7.38109 9.7622 7.38109C8.90836 7.38109 8.16483 6.91299 7.77275 6.21995C7.67606 6.23245 7.57759 6.23888 7.47778 6.23888C6.21613 6.23888 5.19336 5.21611 5.19336 3.95446C5.19336 2.69281 6.21613 1.67004 7.47778 1.67004ZM7.47766 2.81262C6.84683 2.81262 6.33545 3.32401 6.33545 3.95483C6.33545 4.58566 6.84683 5.09704 7.47766 5.09704L7.47955 5.09704C7.48416 4.38631 7.82428 3.70216 8.39252 3.27064C8.184 2.99243 7.85146 2.81262 7.47766 2.81262ZM9.34168 4.03401C9.47111 3.9827 9.6127 3.95422 9.76233 3.95422C10.3932 3.95422 10.9045 4.46561 10.9045 5.09643C10.9045 5.72726 10.3932 6.23864 9.76233 6.23864C9.2364 6.23864 8.79214 5.88269 8.66008 5.39755C8.51127 4.85089 8.81204 4.24398 9.34168 4.03401Z" fill="#9191A4"/>
</svg>