<svg width="16" height="16" viewBox="0 0 16 16" fill="none" xmlns="http://www.w3.org/2000/svg">
<path d="M5.33364 2.66667H12.667C13.0206 2.66667 13.3597 2.80714 13.6098 3.05719C13.8598 3.30724 14.0003 3.64638 14.0003 4C14.0003 4.35362 13.8598 4.69276 13.6098 4.94281C13.3597 5.19286 13.0206 5.33333 12.667 5.33333M12.667 5.33333H8.00031M12.667 5.33333L12.6668 10M5.33364 5.33333H3.33364M3.33364 5.33333C3.0288 5.33351 2.73311 5.22924 2.49583 5.03787C2.25854 4.84651 2.09399 4.57961 2.0296 4.28165C1.96521 3.9837 2.00486 3.67267 2.14194 3.4004C2.27902 3.12813 2.50527 2.91105 2.78297 2.78533M3.33364 5.33333L3.3335 12C3.3335 12.3536 3.47397 12.6928 3.72402 12.9428C3.97407 13.1929 4.31321 13.3333 4.66683 13.3333H11.3335C11.5904 13.3333 11.8419 13.2591 12.0576 13.1195C12.2733 12.9799 12.4442 12.781 12.5495 12.5467M6.66683 8H8.00016M2.00016 2L14.0002 14" stroke="#FCFCFD" stroke-width="1.25" stroke-linecap="round" stroke-linejoin="round"/>
</svg>
