<svg xmlns="http://www.w3.org/2000/svg" width="12" height="12" viewBox="0 0 12 12" fill="none" class="w-4 h-4 will-change-transform transition-colors text-green-700">
  <path d="M9 0.5C7.62 0.5 6.5 1.62 6.5 3V4H2C1.73478 4 1.48043 4.10536 1.29289 4.29289C1.10536 4.48043 1 4.73478 1 5V10C1 10.2652 1.10536 10.5196 1.29289 10.7071C1.48043 10.8946 1.73478 11 2 11H8C8.555 11 9 10.555 9 10V5C9 4.73478 8.89464 4.48043 8.70711 4.29289C8.51957 4.10536 8.26522 4 8 4H7.5V3C7.5 2.17 8.17 1.5 9 1.5C9.83 1.5 10.5 2.17 10.5 3V4H11.5V3C11.5 1.62 10.38 0.5 9 0.5Z" fill="#858596"></path>
</svg>
