<svg width="20" height="20" viewBox="0 0 20 20" fill="none" xmlns="http://www.w3.org/2000/svg">
<path fill-rule="evenodd" clip-rule="evenodd" d="M10 2.5C10.2595 2.5 10.5083 2.60307 10.6917 2.78653L14.3149 6.40971C14.697 6.79175 14.697 7.41115 14.3149 7.79318C13.9329 8.17522 13.3135 8.17522 12.9315 7.79318L10.9783 5.83999V12.1739C10.9783 12.7142 10.5403 13.1522 10 13.1522C9.45972 13.1522 9.02174 12.7142 9.02174 12.1739V5.83999L7.06855 7.79318C6.68651 8.17522 6.06711 8.17522 5.68508 7.79318C5.30304 7.41115 5.30304 6.79175 5.68508 6.40971L9.30827 2.78653C9.49172 2.60307 9.74055 2.5 10 2.5ZM3.47826 11.1957C4.01854 11.1957 4.45652 11.6336 4.45652 12.1739V15.0725C4.45652 15.1974 4.50615 15.3172 4.59448 15.4055C4.68281 15.4939 4.80261 15.5435 4.92754 15.5435H15.0725C15.1974 15.5435 15.3172 15.4939 15.4055 15.4055C15.4939 15.3172 15.5435 15.1974 15.5435 15.0725V12.1739C15.5435 11.6336 15.9815 11.1957 16.5217 11.1957C17.062 11.1957 17.5 11.6336 17.5 12.1739V15.0725C17.5 15.7163 17.2442 16.3337 16.789 16.789C16.3337 17.2442 15.7163 17.5 15.0725 17.5H4.92754C4.28371 17.5 3.66626 17.2442 3.21101 16.789C2.75576 16.3337 2.5 15.7163 2.5 15.0725V12.1739C2.5 11.6336 2.93798 11.1957 3.47826 11.1957Z" fill="#9191A4"/>
</svg>
