<svg width="10" height="10" viewBox="0 0 10 10" fill="none" xmlns="http://www.w3.org/2000/svg">
<path fill-rule="evenodd" clip-rule="evenodd" d="M5 9C7.20914 9 9 7.20914 9 5C9 2.79086 7.20914 1 5 1C2.79086 1 1 2.79086 1 5C1 7.20914 2.79086 9 5 9ZM5 10C7.76142 10 10 7.76142 10 5C10 2.23858 7.76142 0 5 0C2.23858 0 0 2.23858 0 5C0 7.76142 2.23858 10 5 10Z" fill="#9191A4"/>
<path d="M4.5 2.5C4.5 2.22386 4.72386 2 5 2C5.27614 2 5.5 2.22386 5.5 2.5C6.32843 2.5 7 3.17157 7 4C7 4.27614 6.77614 4.5 6.5 4.5C6.22386 4.5 6 4.27614 6 4C6 3.72386 5.77614 3.5 5.5 3.5H4.37171C4.16642 3.5 4 3.66642 4 3.87171C4 4.0317 4.10238 4.17375 4.25416 4.22434L6.06206 4.82698C6.62219 5.01368 7 5.53787 7 6.12829C7 6.88587 6.38587 7.5 5.62829 7.5H5.5C5.5 7.77614 5.27614 8 5 8C4.72386 8 4.5 7.77614 4.5 7.5C3.67157 7.5 3 6.82843 3 6C3 5.72386 3.22386 5.5 3.5 5.5C3.77614 5.5 4 5.72386 4 6C4 6.27614 4.22386 6.5 4.5 6.5H5.62829C5.83358 6.5 6 6.33358 6 6.12829C6 5.9683 5.89762 5.82625 5.74584 5.77566L3.93794 5.17303C3.37781 4.98632 3 4.46213 3 3.87171C3 3.11413 3.61414 2.5 4.37171 2.5H4.5Z" fill="#9191A4"/>
</svg>
