<svg width="16" height="16" viewBox="0 0 16 16" fill="none" xmlns="http://www.w3.org/2000/svg">
<path d="M8 14.5C11.6021 14.5 14.5 11.6021 14.5 8C14.5 4.3979 11.6021 1.5 8 1.5C4.3979 1.5 1.5 4.3979 1.5 8C1.5 11.6021 4.3979 14.5 8 14.5Z" fill="#2775CA"/>
<path d="M9.78735 9.02969C9.78735 8.08179 9.2186 7.75679 8.0811 7.6214C7.2686 7.51304 7.1061 7.2964 7.1061 6.91719C7.1061 6.53798 7.37695 6.29429 7.9186 6.29429C8.4061 6.29429 8.67695 6.45679 8.81235 6.86304C8.83945 6.94429 8.9207 6.99844 9.00195 6.99844H9.43524C9.5436 6.99844 9.62485 6.91719 9.62485 6.8089V6.78179C9.51649 6.18594 9.02899 5.72554 8.4061 5.6714V5.0214C8.4061 4.91304 8.32485 4.83179 8.18945 4.80469H7.7832C7.67485 4.80469 7.5936 4.88594 7.56649 5.0214V5.64429C6.75399 5.75265 6.23945 6.29429 6.23945 6.9714C6.23945 7.86515 6.7811 8.21719 7.9186 8.35265C8.67695 8.48804 8.9207 8.65054 8.9207 9.0839C8.9207 9.51725 8.54149 9.81515 8.02695 9.81515C7.32274 9.81515 7.07899 9.51719 6.99774 9.11094C6.9707 9.00265 6.88945 8.94844 6.8082 8.94844H6.34774C6.23945 8.94844 6.1582 9.02969 6.1582 9.13804V9.16515C6.26649 9.84219 6.69985 10.3297 7.5936 10.4651V11.1151C7.5936 11.2234 7.67485 11.3047 7.81024 11.3318H8.21649C8.32485 11.3318 8.4061 11.2505 8.4332 11.1151V10.4651C9.2457 10.3297 9.78735 9.76094 9.78735 9.02969Z" fill="#FCFCFD"/>
<path d="M6.61879 11.8716C4.50629 11.1133 3.42293 8.75703 4.20839 6.67157C4.61464 5.53407 5.50839 4.66743 6.61879 4.26118C6.72714 4.20703 6.78129 4.12578 6.78129 3.99032V3.61118C6.78129 3.50282 6.72714 3.42157 6.61879 3.39453C6.59168 3.39453 6.53754 3.39453 6.51043 3.42157C3.93754 4.23407 2.52918 6.96953 3.34168 9.54243C3.82918 11.0591 4.99379 12.2237 6.51043 12.7112C6.61879 12.7653 6.72714 12.7112 6.75418 12.6028C6.78129 12.5758 6.78129 12.5487 6.78129 12.4945V12.1153C6.78129 12.0341 6.70004 11.9258 6.61879 11.8716ZM9.48964 3.42157C9.38129 3.36743 9.27293 3.42157 9.24589 3.52993C9.21879 3.55703 9.21879 3.58407 9.21879 3.63828V4.01743C9.21879 4.12578 9.30004 4.23407 9.38129 4.28828C11.4938 5.04657 12.5771 7.40282 11.7917 9.48828C11.3854 10.6258 10.4917 11.4924 9.38129 11.8987C9.27293 11.9528 9.21879 12.0341 9.21879 12.1695V12.5487C9.21879 12.657 9.27293 12.7383 9.38129 12.7653C9.40839 12.7653 9.46254 12.7653 9.48964 12.7383C12.0625 11.9258 13.4709 9.19032 12.6584 6.61743C12.1709 5.07368 10.9792 3.90907 9.48964 3.42157Z" fill="#FCFCFD"/>
</svg>
