<svg viewBox="0 0 10 10" fill="none" xmlns="http://www.w3.org/2000/svg">
<g clip-path="url(#clip0_75_83669)">
<path d="M5.37524 4.28418C5.37524 3.45575 4.70366 2.78418 3.87524 2.78418C3.04682 2.78418 2.37524 3.45575 2.37524 4.28418C2.37524 5.11259 3.04682 5.78418 3.87524 5.78418C4.70366 5.78418 5.37524 5.11259 5.37524 4.28418Z" stroke="#9191A4" stroke-width="0.75" stroke-linecap="round" stroke-linejoin="round"/>
<path d="M4.63972 2.99333C4.63016 2.92498 4.62524 2.85516 4.62524 2.78418C4.62524 1.95575 5.29683 1.28418 6.12524 1.28418C6.95366 1.28418 7.62524 1.95575 7.62524 2.78418C7.62524 3.61261 6.95366 4.28418 6.12524 4.28418C5.84602 4.28418 5.58464 4.2079 5.36077 4.07504" stroke="#9191A4" stroke-width="0.75" stroke-linecap="round" stroke-linejoin="round"/>
<path d="M6.125 8.03418C6.125 6.79154 5.11764 5.78418 3.875 5.78418C2.63236 5.78418 1.625 6.79154 1.625 8.03418" stroke="#9191A4" stroke-width="0.75" stroke-linecap="round" stroke-linejoin="round"/>
<path d="M8.375 6.53418C8.375 5.29154 7.36764 4.28418 6.125 4.28418" stroke="#9191A4" stroke-width="0.75" stroke-linecap="round" stroke-linejoin="round"/>
</g>
<defs>
<clipPath id="clip0_75_83669">
<rect width="9" height="9" fill="white" transform="translate(0.5 0.15918)"/>
</clipPath>
</defs>
</svg>
