<svg width="76" height="76" viewBox="0 0 76 76" fill="none" xmlns="http://www.w3.org/2000/svg">
<path d="M13.4279 65.663C18.6822 57.9872 27.3281 53 38 53C48.6719 53 57.3178 57.9872 62.5721 65.663M13.4279 65.663C19.9625 71.4716 28.5692 75 38 75C47.4308 75 56.0375 71.4716 62.5721 65.663M13.4279 65.663C5.80344 58.8855 1 49.0037 1 38C1 17.5655 17.5655 1 38 1C58.4345 1 75 17.5655 75 38C75 49.0037 70.1966 58.8855 62.5721 65.663M51 30C51 37.1797 45.1797 43 38 43C30.8203 43 25 37.1797 25 30C25 22.8203 30.8203 17 38 17C45.1797 17 51 22.8203 51 30Z" stroke="#FCFCFD" stroke-width="1.5" stroke-linejoin="round"/>
</svg>
