<svg width="16" height="16" viewBox="0 0 16 16" fill="none" xmlns="http://www.w3.org/2000/svg">
<path d="M2.85864 5.66517C2.38443 5.66517 2 6.0496 2 6.52381V9.71986C2 10.1941 2.38443 10.5785 2.85864 10.5785H4.06143C4.21996 10.5785 4.37139 10.6442 4.47964 10.7601L7.01985 13.4779C7.37448 13.8573 8.01048 13.6064 8.01048 13.087V2.91284C8.01048 2.38218 7.35093 2.13715 7.00447 2.53911L4.48121 5.46648C4.37247 5.59263 4.21418 5.66517 4.04762 5.66517H2.85864Z" fill="#FCFCFD"/>
<path d="M9.73641 6.34653C9.63764 6.22311 9.63621 6.04278 9.74798 5.93101L10.1527 5.52624C10.2645 5.41447 10.4467 5.41379 10.5496 5.53378C11.729 6.90889 11.729 9.00079 10.5496 10.3759C10.4467 10.4959 10.2645 10.4952 10.1527 10.3834L9.74798 9.97867C9.63621 9.8669 9.63764 9.68657 9.73641 9.56315C10.4794 8.63472 10.4794 7.27496 9.73641 6.34653Z" fill="#FCFCFD"/>
<path d="M11.5694 11.8001C11.4577 11.6884 11.4583 11.5076 11.5637 11.3899C13.2916 9.45984 13.2916 6.44984 11.5637 4.51981C11.4583 4.40204 11.4577 4.22133 11.5694 4.10956L11.9742 3.70479C12.086 3.59302 12.2677 3.59259 12.3743 3.70929C14.5419 6.08211 14.5419 9.82757 12.3743 12.2004C12.2677 12.3171 12.086 12.3167 11.9742 12.2049L11.5694 11.8001Z" fill="#FCFCFD"/>
</svg>
