<svg width="80" height="80" viewBox="0 0 80 80" fill="none" xmlns="http://www.w3.org/2000/svg">
<g clip-path="url(#clip0_5_24115)">
<path opacity="0.4" d="M24.5093 50.9661L40 40.0254L55.4907 50.9661C57.9795 52.7238 59.4704 55.6566 59.4704 58.7936V68.6812H20.5293V58.7936C20.5293 55.6564 22.0205 52.7239 24.5093 50.9661Z" fill="#9191A4"/>
<path d="M68.7063 66.2652H61.8398V58.7934C61.8398 54.8838 59.9774 51.2343 56.8576 49.0307L41.7348 38.3497L25.8758 27.0872C24.0115 25.7705 22.8985 23.5679 22.8985 21.1949V13.6876H57.1014V21.1951C57.1014 23.5677 55.9884 25.7707 54.124 27.0874C53.0551 27.8422 52.8006 29.3205 53.5556 30.3893C54.3106 31.458 55.789 31.7122 56.8574 30.9577C59.9774 28.7544 61.8398 25.1047 61.8398 21.1951V13.6876H64.8107H68.7063C70.0146 13.6876 71.0755 12.627 71.0755 11.3184C71.0755 10.0098 70.0146 8.94918 68.7063 8.94918H67.1799V2.36921C67.1799 1.06078 66.119 0 64.8107 0H39.0916C37.7833 0 36.7224 1.06062 36.7224 2.36921C36.7224 3.6778 37.7833 4.73842 39.0916 4.73842H62.4415V8.94934H59.6881C59.6163 8.94278 59.544 8.9384 59.4706 8.9384H20.5293C20.4559 8.9384 20.3834 8.94293 20.3118 8.94934H17.5584V4.73842H25.9312C27.2394 4.73842 28.3004 3.6778 28.3004 2.36921C28.3004 1.06062 27.2396 0 25.9313 0H15.1893C13.881 0 12.8201 1.06062 12.8201 2.36921V8.94934H11.2937C9.98544 8.94934 8.92451 10.01 8.92451 11.3186C8.92451 12.6271 9.98544 13.6878 11.2937 13.6878H15.1893H18.1603V21.1952C18.1603 25.1047 20.0226 28.7543 23.1424 30.9578L35.9369 39.9945L23.1424 49.0312C20.0227 51.2345 18.1603 54.8842 18.1603 58.7938V66.2657H11.2934C9.98513 66.2657 8.92419 67.3263 8.92419 68.6349C8.92419 69.9433 9.98513 71.0041 11.2934 71.0041H12.8198V77.6311C12.8198 78.9395 13.8807 80.0003 15.189 80.0003H40.9081C42.2164 80.0003 43.2773 78.9397 43.2773 77.6311C43.2773 76.3225 42.2164 75.2619 40.9081 75.2619H17.5584V71.051H20.5293H59.4706H62.4415V75.2619H54.0687C52.7604 75.2619 51.6995 76.3225 51.6995 77.6311C51.6995 78.9397 52.7604 80.0003 54.0687 80.0003H64.8107C66.119 80.0003 67.1799 78.9397 67.1799 77.6311V71.0041H68.7063C70.0146 71.0041 71.0755 69.9435 71.0755 68.6349C71.0754 67.3261 70.0147 66.2652 68.7063 66.2652ZM22.8985 58.7935C22.8985 56.4209 24.0115 54.2179 25.8758 52.9012L39.9999 42.9256L54.1239 52.9012C55.9882 54.2179 57.1012 56.4206 57.1012 58.7935V66.2654H22.8985V58.7935Z" fill="#9191A4"/>
</g>
<defs>
<clipPath id="clip0_5_24115">
<rect width="80" height="80" fill="white"/>
</clipPath>
</defs>
</svg>
