<svg width="14" height="14" viewBox="0 0 14 14" fill="none" xmlns="http://www.w3.org/2000/svg">
<path d="M11.6666 5.54168V4.20001C11.6666 3.54662 11.6666 3.21992 11.5395 2.97036C11.4276 2.75083 11.2491 2.57236 11.0296 2.4605C10.7801 2.33335 10.4533 2.33334 9.79996 2.33334H3.03329C2.3799 2.33334 2.0532 2.33334 1.80364 2.4605C1.58411 2.57235 1.40564 2.75083 1.29379 2.97035C1.16663 3.21992 1.16663 3.54662 1.16663 4.20001V9.80001C1.16663 10.4534 1.16663 10.7801 1.29379 11.0297C1.40564 11.2492 1.58411 11.4277 1.80364 11.5395C2.0532 11.6667 2.3799 11.6667 3.03329 11.6667L9.79996 11.6667C10.4534 11.6667 10.7801 11.6667 11.0296 11.5395C11.2491 11.4277 11.4276 11.2492 11.5395 11.0297C11.6666 10.7801 11.6666 10.4534 11.6666 9.80001V8.45834M8.74996 7.00001C8.74996 6.72896 8.74996 6.59344 8.77238 6.48074C8.86443 6.01793 9.22621 5.65615 9.68902 5.56409C9.80172 5.54168 9.93724 5.54168 10.2083 5.54168H11.375C11.646 5.54168 11.7815 5.54168 11.8942 5.56409C12.357 5.65615 12.7188 6.01793 12.8109 6.48074C12.8333 6.59344 12.8333 6.72896 12.8333 7.00001C12.8333 7.27106 12.8333 7.40658 12.8109 7.51928C12.7188 7.98209 12.357 8.34387 11.8942 8.43593C11.7815 8.45834 11.646 8.45834 11.375 8.45834H10.2083C9.93724 8.45834 9.80172 8.45834 9.68902 8.43593C9.22621 8.34387 8.86443 7.98209 8.77238 7.51928C8.74996 7.40658 8.74996 7.27106 8.74996 7.00001Z" stroke="white" stroke-width="1.16667" stroke-linecap="round" stroke-linejoin="round"/>
</svg>
