<svg width="12" height="12" viewBox="0 0 12 12" fill="none" xmlns="http://www.w3.org/2000/svg">
<path d="M11.3266 10.6357C11.6977 10.6358 11.9992 10.9414 11.9994 11.3173C11.9994 11.6941 11.6978 11.9997 11.3266 11.9999H7.51995C7.14855 11.9999 6.84613 11.6942 6.84613 11.3173C6.84637 10.9413 7.1487 10.6357 7.51995 10.6357H11.3266ZM6.16058 0.637604C6.76891 -0.143257 7.8301 -0.214724 8.68597 0.465729L9.66937 1.24698C10.0725 1.56223 10.342 1.9779 10.434 2.41495C10.5401 2.89582 10.4262 3.36876 10.1078 3.77725L4.25042 11.3515C3.98167 11.6954 3.58589 11.8891 3.16156 11.8964L0.826595 11.9257C0.69937 11.9257 0.593249 11.8394 0.564877 11.7177L0.0346033 9.4169C-0.0573293 8.9942 0.0345007 8.55739 0.303158 8.22061L4.4555 2.84561C4.52623 2.75964 4.65381 2.74576 4.7387 2.80948L6.48577 4.2001C6.59891 4.29322 6.75479 4.34262 6.91742 4.3212C7.26393 4.27821 7.49749 3.96354 7.46234 3.62686C7.44114 3.45508 7.35657 3.31146 7.24359 3.20401C7.20822 3.17534 5.54535 1.84171 5.54535 1.84171C5.43933 1.75569 5.41751 1.59786 5.50238 1.49112L6.16058 0.637604Z" fill="white"/>
</svg>
