<svg width="16" height="17" viewBox="0 0 16 17" fill="none" xmlns="http://www.w3.org/2000/svg">
<path fill-rule="evenodd" clip-rule="evenodd" d="M11.9435 5.16675C11.8062 4.77835 11.4358 4.50008 11.0004 4.50008H3.00041C2.81715 4.50008 2.66707 4.64848 2.66707 4.83341C2.66707 5.01719 2.81579 5.16623 2.99944 5.16675C2.99912 5.16675 2.99976 5.16675 2.99944 5.16675L11.9435 5.16675ZM2.33374 5.98837V11.8334C2.33374 12.3857 2.78146 12.8334 3.33374 12.8334H12.0004C12.9209 12.8334 13.6671 12.0872 13.6671 11.1667V7.83341C13.6671 7.21767 13.3337 6.67861 12.8328 6.38896C12.677 6.29886 12.5515 6.17048 12.4653 6.01981C12.3104 6.11459 12.1303 6.16675 11.9435 6.16675H3.00041C2.75755 6.16675 2.52986 6.10182 2.33374 5.98837ZM1.33374 4.83341C1.33374 3.91378 2.07813 3.16675 2.99944 3.16675H11.0004C12.2891 3.16675 13.3337 4.21142 13.3337 5.50008C13.3337 5.50784 13.3336 5.51557 13.3333 5.52327C14.1306 5.98429 14.6671 6.84621 14.6671 7.83341V11.1667C14.6671 12.6395 13.4732 13.8334 12.0004 13.8334H3.33374C2.22917 13.8334 1.33374 12.938 1.33374 11.8334V4.83341Z" fill="#9191A4"/>
<path d="M11 8.49976C10.4477 8.49976 10 8.94747 10 9.49976C10 10.052 10.4477 10.4998 11 10.4998C11.5523 10.4998 12 10.052 12 9.49976C12 8.94747 11.5523 8.49976 11 8.49976Z" fill="#9191A4"/>
</svg>