<svg width="38" height="32" viewBox="0 0 38 32" fill="none" xmlns="http://www.w3.org/2000/svg">
<path d="M36.0345 0.848633H1.89655C0.758621 0.848633 0 1.60725 0 2.74518V29.2969C0 30.4348 0.758621 31.1935 1.89655 31.1935H36.0345C37.1724 31.1935 37.931 30.4348 37.931 29.2969V19.8141H24.6552C22.569 19.8141 20.8621 18.1073 20.8621 16.021C20.8621 13.9348 22.569 12.2279 24.6552 12.2279H37.931V2.74518C37.931 1.60725 37.1724 0.848633 36.0345 0.848633Z" fill="#FCC619"/>
<path d="M24.6552 17.9176C25.7026 17.9176 26.5517 17.0685 26.5517 16.021C26.5517 14.9736 25.7026 14.1245 24.6552 14.1245C23.6077 14.1245 22.7586 14.9736 22.7586 16.021C22.7586 17.0685 23.6077 17.9176 24.6552 17.9176Z" fill="#FCC619"/>
</svg>
