<svg width="12" height="12" viewBox="0 0 12 12" fill="none" xmlns="http://www.w3.org/2000/svg">
<path d="M11.3256 10.6356C11.697 10.6356 11.9995 10.942 11.9995 11.3182C11.9992 11.695 11.6969 11.9998 11.3256 11.9998H7.51899C7.1479 11.9996 6.84637 11.6948 6.84614 11.3182C6.84614 10.9421 7.14776 10.6358 7.51899 10.6356H11.3256ZM6.16059 0.638509C6.76892 -0.142548 7.83003 -0.214907 8.68598 0.465658L9.66938 1.24691C10.0725 1.5621 10.341 1.97792 10.4331 2.41488C10.5392 2.89575 10.4262 3.36869 10.1079 3.77718L4.25043 11.3524C3.98161 11.6962 3.58493 11.8892 3.16059 11.8963L0.826605 11.9256C0.699333 11.9256 0.593251 11.8393 0.564886 11.7176L0.0346128 9.41683C-0.0573174 8.99408 0.0344362 8.55733 0.303167 8.22054L4.45551 2.84554C4.52626 2.75954 4.65382 2.74563 4.73871 2.80941L6.48578 4.20003C6.59893 4.29316 6.75478 4.34354 6.91743 4.3221C7.26396 4.27912 7.49754 3.9635 7.46235 3.62679C7.44112 3.45479 7.35581 3.31144 7.24262 3.20394C7.20511 3.17356 5.54535 1.84163 5.54535 1.84163C5.43942 1.75574 5.41789 1.59878 5.50239 1.49202L6.16059 0.638509Z" fill="#DF74FF"/>
</svg>
