<svg width="12" height="12" viewBox="0 0 12 12" fill="none" xmlns="http://www.w3.org/2000/svg">
<path fill-rule="evenodd" clip-rule="evenodd" d="M5.36 1.44C3.19505 1.44 1.44 3.19505 1.44 5.36C1.44 7.52496 3.19505 9.28001 5.36 9.28001C6.44268 9.28001 7.42169 8.84203 8.13186 8.13186C8.84203 7.42169 9.28001 6.44268 9.28001 5.36C9.28001 3.19505 7.52496 1.44 5.36 1.44ZM0 5.36C0 2.39976 2.39976 0 5.36 0C8.32025 0 10.72 2.39976 10.72 5.36C10.72 6.58023 10.3116 7.706 9.62502 8.60679L11.7891 10.7709C12.0703 11.0521 12.0703 11.5079 11.7891 11.7891C11.5079 12.0703 11.0521 12.0703 10.7709 11.7891L8.60679 9.62502C7.706 10.3116 6.58023 10.72 5.36 10.72C2.39976 10.72 0 8.32025 0 5.36Z" fill="#9191A4"/>
</svg>
