<svg viewBox="0 0 16 16" fill="none" xmlns="http://www.w3.org/2000/svg">
<path d="M8 6.00001V8.66668M8 10.6667H8.00667M6.90898 2.39414L1.50498 11.4168C1.39358 11.6097 1.33463 11.8285 1.33399 12.0512C1.33335 12.274 1.39105 12.4931 1.50135 12.6866C1.61164 12.8802 1.77069 13.0415 1.96268 13.1545C2.15466 13.2675 2.37289 13.3283 2.59565 13.3308H13.405C13.6276 13.3282 13.8458 13.2674 14.0377 13.1545C14.2295 13.0415 14.3885 12.8803 14.4988 12.6868C14.6091 12.4933 14.6668 12.2744 14.6663 12.0517C14.6657 11.829 14.6069 11.6104 14.4956 11.4175L9.09165 2.39347C8.97795 2.20581 8.81778 2.05063 8.62662 1.94293C8.43545 1.83524 8.21973 1.77866 8.00032 1.77866C7.7809 1.77866 7.56519 1.83524 7.37402 1.94293C7.18285 2.05063 7.02268 2.20581 6.90898 2.39347V2.39414Z" stroke="#FCFCFD" stroke-width="1.25" stroke-linecap="round" stroke-linejoin="round"/>
</svg>
