<svg width="14" height="14" viewBox="0 0 14 14" fill="none" xmlns="http://www.w3.org/2000/svg">
<path d="M4.46253 12.1974C4.44503 12.1974 4.4217 12.2091 4.4042 12.2091C3.27253 11.6491 2.35087 10.7216 1.78503 9.58995C1.78503 9.57245 1.7967 9.54912 1.7967 9.53162C2.50837 9.74162 3.24337 9.89912 3.97253 10.0216C4.10087 10.7566 4.25253 11.4858 4.46253 12.1974Z" fill="#8d94b8"/>
<path d="M12.2149 9.59578C11.6374 10.7566 10.6749 11.6958 9.50244 12.2616C9.72411 11.5208 9.91077 10.7741 10.0333 10.0216C10.7683 9.89912 11.4916 9.74162 12.2033 9.53162C12.1974 9.55495 12.2149 9.57828 12.2149 9.59578Z" fill="#8d94b8"/>
<path d="M12.2616 4.49745C11.5266 4.27578 10.7858 4.09495 10.0333 3.96661C9.91077 3.21411 9.72994 2.46745 9.50244 1.73828C10.7099 2.31578 11.6841 3.28995 12.2616 4.49745Z" fill="#8d94b8"/>
<path d="M4.46245 1.80253C4.25245 2.5142 4.10078 3.23753 3.97828 3.97253C3.22578 4.0892 2.47911 4.27587 1.73828 4.49753C2.30411 3.32503 3.24328 2.36253 4.40411 1.78503C4.42161 1.78503 4.44495 1.80253 4.46245 1.80253Z" fill="#8d94b8"/>
<path d="M9.03578 3.84413C7.68244 3.69246 6.31744 3.69246 4.96411 3.84413C5.10994 3.04496 5.29661 2.24579 5.55911 1.47579C5.57078 1.42913 5.56494 1.39413 5.57078 1.34746C6.03161 1.23663 6.50411 1.16663 6.99994 1.16663C7.48994 1.16663 7.96828 1.23663 8.42328 1.34746C8.42911 1.39413 8.42911 1.42913 8.44078 1.47579C8.70328 2.25163 8.88994 3.04496 9.03578 3.84413Z" fill="#8d94b8"/>
<path d="M3.84413 9.03578C3.03913 8.88994 2.24579 8.70328 1.47579 8.44078C1.42913 8.42911 1.39413 8.43494 1.34746 8.42911C1.23663 7.96828 1.16663 7.49578 1.16663 6.99994C1.16663 6.50994 1.23663 6.03161 1.34746 5.57661C1.39413 5.57078 1.42913 5.57078 1.47579 5.55911C2.25163 5.30244 3.03913 5.10994 3.84413 4.96411C3.69829 6.31744 3.69829 7.68244 3.84413 9.03578Z" fill="#8d94b8"/>
<path d="M12.8334 6.99994C12.8334 7.49578 12.7634 7.96828 12.6526 8.42911C12.6059 8.43494 12.5709 8.42911 12.5242 8.44078C11.7484 8.69744 10.9551 8.88994 10.1559 9.03578C10.3076 7.68244 10.3076 6.31744 10.1559 4.96411C10.9551 5.10994 11.7542 5.29661 12.5242 5.55911C12.5709 5.57078 12.6059 5.57661 12.6526 5.57661C12.7634 6.03744 12.8334 6.50994 12.8334 6.99994Z" fill="#8d94b8"/>
<path d="M9.03578 10.1559C8.88994 10.9609 8.70328 11.7542 8.44078 12.5242C8.42911 12.5709 8.42911 12.6059 8.42328 12.6526C7.96828 12.7634 7.48994 12.8334 6.99994 12.8334C6.50411 12.8334 6.03161 12.7634 5.57078 12.6526C5.56494 12.6059 5.57078 12.5709 5.55911 12.5242C5.30244 11.7484 5.10994 10.9609 4.96411 10.1559C5.64078 10.2317 6.31744 10.2842 6.99994 10.2842C7.68244 10.2842 8.36494 10.2317 9.03578 10.1559Z" fill="#8d94b8"/>
<path d="M9.19524 9.19524C7.73626 9.37931 6.26366 9.37931 4.80468 9.19524C4.62061 7.73626 4.62061 6.26366 4.80468 4.80468C6.26366 4.62061 7.73626 4.62061 9.19524 4.80468C9.37931 6.26366 9.37931 7.73626 9.19524 9.19524Z" fill="#8d94b8"/>
</svg>
