<svg width="16" height="16" viewBox="0 0 16 16" fill="none" xmlns="http://www.w3.org/2000/svg">
<path fill-rule="evenodd" clip-rule="evenodd" d="M8.00065 14.6673C11.6825 14.6673 14.6673 11.6825 14.6673 8.00065C14.6673 4.31875 11.6825 1.33398 8.00065 1.33398C4.31875 1.33398 1.33398 4.31875 1.33398 8.00065C1.33398 11.6825 4.31875 14.6673 8.00065 14.6673ZM10.0071 10.0004C10.2337 9.77438 10.2337 9.40771 10.0071 9.18105L8.82039 7.99438L10.0071 6.80705C10.2337 6.58105 10.2337 6.20771 10.0071 5.98105C9.78039 5.75371 9.41372 5.75371 9.18039 5.98105L8.00039 7.16705L6.81372 5.98105C6.58039 5.75371 6.21372 5.75371 5.98706 5.98105C5.76039 6.20771 5.76039 6.58105 5.98706 6.80705L7.17372 7.99438L5.98706 9.17438C5.76039 9.40771 5.76039 9.77438 5.98706 10.0004C6.10039 10.1137 6.25372 10.1744 6.40039 10.1744C6.55372 10.1744 6.70039 10.1137 6.81372 10.0004L8.00039 8.82105L9.18706 10.0004C9.30039 10.121 9.44706 10.1744 9.59372 10.1744C9.74706 10.1744 9.89372 10.1137 10.0071 10.0004Z" fill="#FCFCFD"/>
</svg>
