<svg width="20" height="20" viewBox="0 0 20 20" fill="none" xmlns="http://www.w3.org/2000/svg">
<path d="M5.91047 11.0433L2.52289 9.92105C2.52289 9.92105 2.11803 9.75405 2.2484 9.37534C2.27523 9.29725 2.32937 9.2308 2.49131 9.1166C3.24191 8.58465 16.3843 3.7818 16.3843 3.7818C16.3843 3.7818 16.7553 3.65467 16.9742 3.73923C17.0283 3.75627 17.077 3.78762 17.1154 3.83009C17.1537 3.87256 17.1802 3.92461 17.1922 3.98092C17.2159 4.08038 17.2258 4.1827 17.2216 4.28494C17.2206 4.37338 17.21 4.45536 17.2021 4.5839C17.122 5.89702 14.7267 15.6972 14.7267 15.6972C14.7267 15.6972 14.5834 16.2707 14.0699 16.2903C13.9437 16.2945 13.818 16.2728 13.7002 16.2264C13.5825 16.1801 13.4751 16.1102 13.3845 16.0208C12.3769 15.1395 8.89424 12.7598 8.12467 12.2364C8.10731 12.2244 8.09269 12.2087 8.0818 12.1905C8.0709 12.1722 8.06399 12.1518 8.06151 12.1306C8.05076 12.0754 8.10975 12.0071 8.10975 12.0071C8.10975 12.0071 14.174 6.52647 14.3354 5.95112C14.3478 5.90655 14.3007 5.88455 14.2373 5.90408C13.8345 6.05474 6.85227 10.5379 6.08167 11.0327C6.02619 11.0498 5.96757 11.0534 5.91047 11.0433Z" fill="#FCFCFD"/>
</svg>
