<svg width="24" height="24" viewBox="0 0 24 24" fill="none" xmlns="http://www.w3.org/2000/svg">
<path fill-rule="evenodd" clip-rule="evenodd" d="M4.4988 4.00049C3.11683 4.00049 2.00024 5.12103 2.00024 6.50049V17.0005C2.00024 18.6573 3.34339 20.0005 5.00024 20.0005H18.0002C20.2094 20.0005 22.0002 18.2096 22.0002 16.0005V11.0005C22.0002 9.51968 21.1956 8.22681 19.9996 7.53527C20 7.52373 20.0002 7.51213 20.0002 7.50049C20.0002 5.56749 18.4332 4.00049 16.5002 4.00049H4.4988ZM16.5002 6.00049C17.1534 6.00049 17.709 6.41789 17.9149 7.00049H4.50024C4.2241 7.00049 4.00024 6.77663 4.00024 6.50049C4.00024 6.22309 4.22391 6.00049 4.4988 6.00049H16.5002ZM16.5 12C15.6716 12 15 12.6716 15 13.5C15 14.3284 15.6716 15 16.5 15C17.3284 15 18 14.3284 18 13.5C18 12.6716 17.3284 12 16.5 12Z" fill="#FCFCFD"/>
</svg>
