<svg width="20" height="20" viewBox="0 0 20 20" fill="none" xmlns="http://www.w3.org/2000/svg">
<path d="M18.3334 6.27922V14.1667C18.3334 14.8044 18.0897 15.418 17.6523 15.8819C17.2148 16.3459 16.6166 16.6251 15.98 16.6625L15.8334 16.6667H4.16669C3.52901 16.6668 2.91542 16.4231 2.45147 15.9856C1.98751 15.5482 1.70826 14.95 1.67085 14.3134L1.66669 14.1667V6.27922L9.53752 11.5267L9.63419 11.5817C9.74811 11.6374 9.87323 11.6663 10 11.6663C10.1268 11.6663 10.2519 11.6374 10.3659 11.5817L10.4625 11.5267L18.3334 6.27922Z" fill="#FCFCFD"/>
<path d="M15.8334 3.33325C16.7334 3.33325 17.5226 3.80825 17.9626 4.52242L10.0001 9.83075L2.03758 4.52242C2.24652 4.18306 2.53359 3.89859 2.87483 3.69274C3.21608 3.48689 3.6016 3.36563 3.99924 3.33909L4.16674 3.33325H15.8334Z" fill="#FCFCFD"/>
<path d="M18.3334 6.27922V14.1667C18.3334 14.8044 18.0897 15.418 17.6523 15.8819C17.2148 16.3459 16.6166 16.6251 15.98 16.6625L15.8334 16.6667H4.16669C3.52901 16.6668 2.91542 16.4231 2.45147 15.9856C1.98751 15.5482 1.70826 14.95 1.67085 14.3134L1.66669 14.1667V6.27922L9.53752 11.5267L9.63419 11.5817C9.74811 11.6374 9.87323 11.6663 10 11.6663C10.1268 11.6663 10.2519 11.6374 10.3659 11.5817L10.4625 11.5267L18.3334 6.27922Z" stroke="#FCFCFD"/>
<path d="M15.8334 3.33325C16.7334 3.33325 17.5226 3.80825 17.9626 4.52242L10.0001 9.83075L2.03758 4.52242C2.24652 4.18306 2.53359 3.89859 2.87483 3.69274C3.21608 3.48689 3.6016 3.36563 3.99924 3.33909L4.16674 3.33325H15.8334Z" stroke="#FCFCFD"/>
</svg>
