<svg width="154" height="120" viewBox="0 0 154 120" fill="none" xmlns="http://www.w3.org/2000/svg">
<ellipse opacity="0.1" cx="77" cy="114.5" rx="76.5" ry="3.5" fill="#9191A4"/>
<path d="M144.887 60.8064V47.6016H110.577V96.3967H125.315V60.8064H144.887Z" fill="#9191A4"/>
<path d="M90.8866 47.6016H105.035V60.8064H90.8866V47.6016Z" fill="#9191A4"/>
<path d="M130.738 83.1978H144.886V96.4026H130.738V83.1978Z" fill="#9191A4"/>
<path d="M41.2164 68.2083L59.6469 47.2461H55.281L39.271 65.4436L26.4934 47.2461H11.7523L31.0788 74.7665L11.7523 96.7459H16.1182L33.0142 77.5247L46.5112 96.7459H61.2523M17.694 50.4675H24.4012L55.2777 93.6828H48.5688" fill="#9191A4"/>
<path d="M74.6373 69.0916L70.503 69.0916C67.2412 69.0916 64.5969 71.7358 64.5969 74.9977C64.5969 78.2595 67.2412 80.9038 70.503 80.9038L74.6373 80.9038C74.9635 80.9038 75.2279 80.6394 75.2279 80.3132L75.2279 79.132C75.2279 78.8058 74.9635 78.5414 74.6373 78.5414L70.503 78.5414C68.5459 78.5414 66.9594 76.9548 66.9594 74.9977C66.9594 73.0406 68.5459 71.454 70.503 71.454L74.6373 71.454C74.9635 71.454 75.2279 71.1896 75.2279 70.8634L75.2279 69.6822C75.2279 69.356 74.9635 69.0916 74.6373 69.0916Z" fill="#9191A4"/>
<path d="M79.3622 80.9038C79.036 80.9038 78.7716 80.6394 78.7716 80.3132L78.7716 79.132C78.7716 78.8058 79.036 78.5414 79.3622 78.5414L83.4965 78.5414C85.4536 78.5414 87.0402 76.9548 87.0402 74.9977C87.0402 73.0406 85.4536 71.454 83.4965 71.454L79.3622 71.454C79.036 71.454 78.7716 71.1896 78.7716 70.8634L78.7716 69.6822C78.7716 69.356 79.036 69.0916 79.3622 69.0916L83.4965 69.0916C86.7583 69.0916 89.4026 71.7358 89.4026 74.9977C89.4026 78.2595 86.7583 80.9038 83.4965 80.9038L79.3622 80.9038Z" fill="#9191A4"/>
<path d="M72.8655 73.8165C72.5393 73.8165 72.2749 74.0809 72.2749 74.4071L72.2749 75.5883C72.2749 75.9145 72.5393 76.1789 72.8655 76.1789L81.134 76.1789C81.4602 76.1789 81.7247 75.9145 81.7247 75.5883V74.4071C81.7247 74.0809 81.4602 73.8165 81.134 73.8165H72.8655Z" fill="#9191A4"/>
</svg>
