<svg width="24" height="24" viewBox="0 0 24 24" fill="none" xmlns="http://www.w3.org/2000/svg">
<path fill-rule="evenodd" clip-rule="evenodd" d="M12.0005 22C17.5233 22 22.0005 17.5228 22.0005 12C22.0005 6.47715 17.5233 2 12.0005 2C6.47764 2 2.00049 6.47715 2.00049 12C2.00049 17.5228 6.47764 22 12.0005 22ZM10.8516 7.09573V12.1064C10.8516 12.4255 11.0111 12.7235 11.2766 12.9005L15.6219 15.7973C15.7472 15.8808 15.9165 15.847 16 15.7217L16.7562 14.5873C16.8398 14.462 16.8059 14.2927 16.6806 14.2092L12.7603 11.5957V7.09573C12.7603 6.94514 12.6382 6.82307 12.4876 6.82307H11.1243C10.9737 6.82307 10.8516 6.94514 10.8516 7.09573Z" fill="#FABF47"/>
</svg>
