<svg viewBox="0 0 16 16" fill="none" xmlns="http://www.w3.org/2000/svg">
<path d="M12.0001 2C12.4378 2 12.8713 2.08622 13.2757 2.25373C13.6801 2.42125 14.0476 2.66678 14.3571 2.97631C14.6666 3.28584 14.9122 3.6533 15.0797 4.05772C15.2472 4.46214 15.3334 4.89559 15.3334 5.33333V10.6667C15.3334 11.1044 15.2472 11.5379 15.0797 11.9423C14.9122 12.3467 14.6666 12.7142 14.3571 13.0237C14.0476 13.3332 13.6801 13.5787 13.2757 13.7463C12.8713 13.9138 12.4378 14 12.0001 14H4.00008C3.56234 14 3.12889 13.9138 2.72447 13.7463C2.32005 13.5787 1.95259 13.3332 1.64306 13.0237C1.01794 12.3986 0.666748 11.5507 0.666748 10.6667V5.33333C0.666748 4.44928 1.01794 3.60143 1.64306 2.97631C2.26818 2.35119 3.11603 2 4.00008 2H12.0001ZM6.00008 6V10C6.00017 10.1179 6.03153 10.2337 6.09096 10.3355C6.15038 10.4373 6.23574 10.5216 6.33834 10.5796C6.44094 10.6377 6.55711 10.6675 6.675 10.6661C6.79289 10.6646 6.90828 10.6319 7.00941 10.5713L10.3427 8.57133C10.4413 8.51206 10.5229 8.4283 10.5795 8.32819C10.6361 8.22807 10.6659 8.11502 10.6659 8C10.6659 7.88498 10.6361 7.77193 10.5795 7.67181C10.5229 7.5717 10.4413 7.48794 10.3427 7.42867L7.00941 5.42867C6.90828 5.36807 6.79289 5.33537 6.675 5.33391C6.55711 5.33245 6.44094 5.36228 6.33834 5.42036C6.23574 5.47844 6.15038 5.56268 6.09096 5.66451C6.03153 5.76634 6.00017 5.8821 6.00008 6Z" fill="#FCFCFD"/>
</svg>
