<svg width="16" height="16" viewBox="0 0 16 16" fill="none" xmlns="http://www.w3.org/2000/svg">
<path d="M9.72985 2.77955L9.8012 2.78303C10.9694 2.90716 11.847 3.17282 12.6817 3.75345C12.7813 3.82295 12.8566 3.92196 12.8969 4.03652C13.9851 7.11948 14.2734 9.82948 13.7386 11.1595C13.1568 12.3225 12.227 13.2205 11.1898 13.2205C10.7652 13.2205 10.2078 12.659 9.83948 12.0342C10.2506 11.9594 10.6578 11.864 11.0593 11.7483C11.1326 11.7273 11.201 11.6922 11.2607 11.6448C11.3204 11.5974 11.3702 11.5387 11.4072 11.4721C11.4442 11.4054 11.4677 11.3322 11.4764 11.2564C11.4851 11.1807 11.4788 11.104 11.4578 11.0308C11.4369 10.9575 11.4017 10.889 11.3543 10.8294C11.3069 10.7697 11.2482 10.7199 11.1816 10.6829C11.115 10.6459 11.0417 10.6224 10.966 10.6137C10.8903 10.605 10.8136 10.6113 10.7403 10.6323C8.81454 11.1833 7.1846 11.1833 5.25883 10.6323C5.11084 10.59 4.9521 10.6082 4.81754 10.6829C4.68298 10.7576 4.58361 10.8828 4.54131 11.0308C4.499 11.1788 4.51722 11.3375 4.59195 11.4721C4.66668 11.6066 4.79181 11.706 4.9398 11.7483C5.3557 11.8666 5.76115 11.9629 6.15965 12.0348C5.79132 12.6584 5.23389 13.2205 4.80929 13.2205C3.77216 13.2205 2.84234 12.3225 2.24083 11.1154C1.72574 9.82948 2.01461 7.1189 3.1022 4.03652C3.14253 3.92196 3.2178 3.82295 3.3174 3.75345C4.15209 3.17282 5.02971 2.90716 6.19793 2.78303C6.30272 2.77185 6.40858 2.78943 6.50414 2.83389C6.59969 2.87834 6.68133 2.94799 6.74028 3.03535L6.77682 3.09742L7.15443 3.84278L7.2339 3.8335C7.74359 3.7813 8.25728 3.7813 8.76697 3.8335L8.8447 3.84278L9.22173 3.098C9.26392 3.01435 9.32574 2.94216 9.4019 2.88762C9.47807 2.83307 9.56631 2.79778 9.65909 2.78477L9.72985 2.77955ZM6.25942 6.8399C5.98219 6.83989 5.71412 6.93915 5.50376 7.11972C5.2934 7.30029 5.15466 7.55022 5.11266 7.82425L5.10222 7.91357L5.09932 8L5.10222 8.08701C5.11915 8.3121 5.20137 8.52736 5.33882 8.70641C5.47627 8.88546 5.66296 9.02052 5.87603 9.09505C6.08909 9.16957 6.31927 9.18032 6.53836 9.12598C6.75744 9.07163 6.95591 8.95455 7.10944 8.78909C7.26298 8.62363 7.36491 8.41697 7.40274 8.19443C7.44057 7.9719 7.41266 7.74317 7.32243 7.53627C7.2322 7.32936 7.08357 7.15327 6.89475 7.02958C6.70594 6.90589 6.48514 6.83997 6.25942 6.8399ZM9.73972 6.8399C9.46249 6.83989 9.19442 6.93915 8.98406 7.11972C8.7737 7.30029 8.63496 7.55022 8.59296 7.82425L8.58252 7.91357L8.57962 8L8.58252 8.08701C8.59945 8.3121 8.68167 8.52736 8.81912 8.70641C8.95657 8.88546 9.14326 9.02052 9.35633 9.09505C9.56939 9.16957 9.79957 9.18032 10.0187 9.12598C10.2377 9.07163 10.4362 8.95455 10.5897 8.78909C10.7433 8.62363 10.8452 8.41697 10.883 8.19443C10.9209 7.9719 10.893 7.74317 10.8027 7.53627C10.7125 7.32936 10.5639 7.15327 10.3751 7.02958C10.1862 6.90589 9.96544 6.83997 9.73972 6.8399Z" fill="#9191A4"/>
</svg>
