<svg width="92" height="17" viewBox="0 0 92 17" fill="none" xmlns="http://www.w3.org/2000/svg">
<path d="M0 14.98H14V0.98H0V14.98ZM17.78 14L21.364 4.06H22.988L26.572 14H25.256L24.262 11.172H20.09L19.096 14H17.78ZM20.496 9.996H23.856L22.176 5.11L20.496 9.996ZM27.6981 14V6.58H28.7761L28.8181 8.47L28.6781 8.344C28.7715 7.90533 28.9348 7.546 29.1681 7.266C29.4015 6.97667 29.6815 6.762 30.0081 6.622C30.3441 6.482 30.7035 6.412 31.0861 6.412C31.6555 6.412 32.1221 6.538 32.4861 6.79C32.8595 7.042 33.1348 7.38267 33.3121 7.812C33.4988 8.232 33.5921 8.70333 33.5921 9.226V14H32.4161V9.562C32.4161 9.10467 32.3601 8.722 32.2481 8.414C32.1455 8.09667 31.9775 7.85867 31.7441 7.7C31.5108 7.532 31.2075 7.448 30.8341 7.448C30.2648 7.448 29.7935 7.63 29.4201 7.994C29.0561 8.34867 28.8741 8.87133 28.8741 9.562V14H27.6981ZM35.6764 16.1V15.064H36.5304C36.7917 15.064 36.983 15.022 37.1044 14.938C37.235 14.8633 37.333 14.7373 37.3984 14.56L37.6644 13.86H37.2584L34.5424 6.58H35.8304L38.0424 12.768L40.1564 6.58H41.4444L38.4344 14.938C38.2944 15.3393 38.0844 15.6333 37.8044 15.82C37.5244 16.0067 37.137 16.1 36.6424 16.1H35.6764ZM49.9579 14.224C49.1926 14.224 48.5252 14.0793 47.9559 13.79C47.3866 13.5007 46.9339 13.104 46.5979 12.6C46.2712 12.0867 46.0799 11.494 46.0239 10.822L47.2839 10.738C47.3492 11.2327 47.4939 11.6527 47.7179 11.998C47.9419 12.3433 48.2406 12.6047 48.6139 12.782C48.9966 12.9593 49.4539 13.048 49.9859 13.048C50.4526 13.048 50.8492 12.9873 51.1759 12.866C51.5026 12.7447 51.7499 12.5673 51.9179 12.334C52.0952 12.1007 52.1839 11.816 52.1839 11.48C52.1839 11.172 52.1092 10.9013 51.9599 10.668C51.8199 10.4253 51.5446 10.206 51.1339 10.01C50.7326 9.80467 50.1352 9.604 49.3419 9.408C48.5766 9.212 47.9652 8.99733 47.5079 8.764C47.0599 8.53067 46.7332 8.246 46.5279 7.91C46.3319 7.574 46.2339 7.15867 46.2339 6.664C46.2339 6.104 46.3646 5.614 46.6259 5.194C46.8966 4.76467 47.2792 4.43333 47.7739 4.2C48.2686 3.95733 48.8566 3.836 49.5379 3.836C50.2659 3.836 50.8912 3.976 51.4139 4.256C51.9366 4.52667 52.3519 4.9 52.6599 5.376C52.9679 5.852 53.1592 6.39333 53.2339 7L51.9739 7.084C51.9179 6.68267 51.7872 6.328 51.5819 6.02C51.3859 5.70267 51.1152 5.45533 50.7699 5.278C50.4246 5.10067 50.0046 5.012 49.5099 5.012C48.8939 5.012 48.4039 5.16133 48.0399 5.46C47.6759 5.74933 47.4939 6.132 47.4939 6.608C47.4939 6.916 47.5639 7.17267 47.7039 7.378C47.8532 7.574 48.1146 7.75133 48.4879 7.91C48.8612 8.05933 49.3979 8.22267 50.0979 8.4C50.9286 8.60533 51.5866 8.85267 52.0719 9.142C52.5666 9.422 52.9166 9.74867 53.1219 10.122C53.3366 10.4953 53.4439 10.92 53.4439 11.396C53.4439 11.9747 53.2946 12.4787 52.9959 12.908C52.6972 13.328 52.2866 13.6547 51.7639 13.888C51.2412 14.112 50.6392 14.224 49.9579 14.224ZM58.4184 14.168C57.7371 14.168 57.1397 14.0093 56.6264 13.692C56.1131 13.3747 55.7164 12.9267 55.4364 12.348C55.1564 11.76 55.0164 11.074 55.0164 10.29C55.0164 9.49667 55.1564 8.81067 55.4364 8.232C55.7164 7.65333 56.1131 7.20533 56.6264 6.888C57.1397 6.57067 57.7371 6.412 58.4184 6.412C59.0997 6.412 59.6924 6.57067 60.1964 6.888C60.7097 7.20533 61.1064 7.65333 61.3864 8.232C61.6664 8.81067 61.8064 9.49667 61.8064 10.29C61.8064 11.074 61.6664 11.76 61.3864 12.348C61.1064 12.9267 60.7097 13.3747 60.1964 13.692C59.6924 14.0093 59.0997 14.168 58.4184 14.168ZM58.4184 13.048C59.0997 13.048 59.6271 12.8053 60.0004 12.32C60.3831 11.8253 60.5744 11.1487 60.5744 10.29C60.5744 9.43133 60.3831 8.75933 60.0004 8.274C59.6271 7.77933 59.0997 7.532 58.4184 7.532C57.7371 7.532 57.2051 7.77933 56.8224 8.274C56.4397 8.75933 56.2484 9.43133 56.2484 10.29C56.2484 11.1487 56.4397 11.8253 56.8224 12.32C57.2051 12.8053 57.7371 13.048 58.4184 13.048ZM66.3071 14.168C65.6164 14.168 65.0144 14.0093 64.5011 13.692C63.9971 13.3747 63.6051 12.9267 63.3251 12.348C63.0451 11.76 62.9051 11.074 62.9051 10.29C62.9051 9.506 63.0451 8.82467 63.3251 8.246C63.6051 7.66733 63.9971 7.21933 64.5011 6.902C65.0144 6.57533 65.6164 6.412 66.3071 6.412C66.8764 6.412 67.3804 6.51467 67.8191 6.72C68.2671 6.916 68.6311 7.20533 68.9111 7.588C69.1911 7.97067 69.3731 8.43733 69.4571 8.988L68.2251 9.072C68.1411 8.57733 67.9264 8.19933 67.5811 7.938C67.2357 7.66733 66.8111 7.532 66.3071 7.532C65.6257 7.532 65.0937 7.77933 64.7111 8.274C64.3284 8.75933 64.1371 9.43133 64.1371 10.29C64.1371 11.1487 64.3284 11.8253 64.7111 12.32C65.0937 12.8053 65.6257 13.048 66.3071 13.048C66.8111 13.048 67.2357 12.908 67.5811 12.628C67.9264 12.348 68.1411 11.928 68.2251 11.368L69.4571 11.452C69.3731 12.0027 69.1911 12.4833 68.9111 12.894C68.6311 13.2953 68.2671 13.608 67.8191 13.832C67.3804 14.056 66.8764 14.168 66.3071 14.168ZM70.9149 14V6.58H72.0909V14H70.9149ZM70.8869 5.418V4.046H72.1189V5.418H70.8869ZM76.1982 14.168C75.4328 14.168 74.8215 13.9907 74.3642 13.636C73.9162 13.2813 73.6922 12.7867 73.6922 12.152C73.6922 11.5173 73.8788 11.018 74.2522 10.654C74.6255 10.29 75.2182 10.0333 76.0302 9.884L78.6622 9.394C78.6622 8.76867 78.5128 8.302 78.2142 7.994C77.9248 7.686 77.4862 7.532 76.8982 7.532C76.3848 7.532 75.9788 7.64867 75.6802 7.882C75.3815 8.106 75.1762 8.43267 75.0642 8.862L73.8182 8.764C73.9582 8.064 74.2942 7.49933 74.8262 7.07C75.3675 6.63133 76.0582 6.412 76.8982 6.412C77.8502 6.412 78.5782 6.68267 79.0822 7.224C79.5862 7.756 79.8382 8.49333 79.8382 9.436V12.502C79.8382 12.67 79.8662 12.7913 79.9222 12.866C79.9875 12.9313 80.0902 12.964 80.2302 12.964H80.5242V14C80.4868 14.0093 80.4262 14.014 80.3422 14.014C80.2582 14.0233 80.1695 14.028 80.0762 14.028C79.7402 14.028 79.4648 13.9767 79.2502 13.874C79.0448 13.762 78.8955 13.594 78.8022 13.37C78.7088 13.1367 78.6622 12.8333 78.6622 12.46L78.8022 12.488C78.7368 12.8053 78.5782 13.0947 78.3262 13.356C78.0742 13.608 77.7615 13.8087 77.3882 13.958C77.0148 14.098 76.6182 14.168 76.1982 14.168ZM76.3102 13.132C76.8048 13.132 77.2248 13.0387 77.5702 12.852C77.9248 12.656 78.1955 12.3947 78.3822 12.068C78.5688 11.732 78.6622 11.3587 78.6622 10.948V10.416L76.2542 10.864C75.7502 10.9573 75.4002 11.102 75.2042 11.298C75.0175 11.4847 74.9242 11.732 74.9242 12.04C74.9242 12.3853 75.0455 12.656 75.2882 12.852C75.5402 13.0387 75.8808 13.132 76.3102 13.132ZM83.2264 14C82.7971 14 82.4471 13.888 82.1764 13.664C81.9057 13.44 81.7704 13.0853 81.7704 12.6V4.06H82.9464V12.502C82.9464 12.6513 82.9837 12.768 83.0584 12.852C83.1424 12.9267 83.2591 12.964 83.4084 12.964H84.0524V14H83.2264ZM88.1228 14.168C87.4601 14.168 86.8954 14.0607 86.4288 13.846C85.9714 13.6313 85.6121 13.3373 85.3508 12.964C85.0988 12.5813 84.9541 12.1473 84.9168 11.662L86.1488 11.578C86.2234 12.026 86.4148 12.3853 86.7228 12.656C87.0308 12.9173 87.4974 13.048 88.1228 13.048C88.6268 13.048 89.0281 12.9687 89.3268 12.81C89.6348 12.642 89.7888 12.376 89.7888 12.012C89.7888 11.816 89.7421 11.6527 89.6488 11.522C89.5554 11.3913 89.3734 11.2793 89.1028 11.186C88.8321 11.0833 88.4308 10.9853 87.8988 10.892C87.1894 10.7613 86.6294 10.6027 86.2188 10.416C85.8174 10.22 85.5281 9.982 85.3508 9.702C85.1828 9.41267 85.0988 9.072 85.0988 8.68C85.0988 8.01733 85.3414 7.476 85.8268 7.056C86.3121 6.62667 87.0028 6.412 87.8988 6.412C88.5054 6.412 89.0141 6.524 89.4248 6.748C89.8448 6.96267 90.1714 7.252 90.4048 7.616C90.6474 7.97067 90.8061 8.36267 90.8808 8.792L89.6488 8.876C89.5928 8.61467 89.4901 8.386 89.3408 8.19C89.1914 7.98467 88.9954 7.826 88.7528 7.714C88.5101 7.59267 88.2208 7.532 87.8848 7.532C87.3528 7.532 86.9608 7.63467 86.7088 7.84C86.4568 8.04533 86.3308 8.30667 86.3308 8.624C86.3308 8.86667 86.3868 9.06733 86.4988 9.226C86.6201 9.37533 86.8114 9.50133 87.0728 9.604C87.3341 9.69733 87.6841 9.78133 88.1228 9.856C88.8788 9.98667 89.4668 10.1453 89.8868 10.332C90.3068 10.5187 90.6008 10.7473 90.7688 11.018C90.9368 11.2887 91.0208 11.62 91.0208 12.012C91.0208 12.4693 90.8901 12.8613 90.6288 13.188C90.3768 13.5053 90.0314 13.748 89.5928 13.916C89.1634 14.084 88.6734 14.168 88.1228 14.168Z" fill="#FCFCFD"/>
</svg>
