<svg width="14" height="14" viewBox="0 0 14 14" fill="none" xmlns="http://www.w3.org/2000/svg">
<path d="M9.44425 1.16699H4.55591C2.43258 1.16699 1.16675 2.43283 1.16675 4.55616V9.43866C1.16675 11.5678 2.43258 12.8337 4.55591 12.8337H9.43841C11.5617 12.8337 12.8276 11.5678 12.8276 9.44449V4.55616C12.8334 2.43283 11.5676 1.16699 9.44425 1.16699ZM7.00008 9.26366C5.75175 9.26366 4.73675 8.24866 4.73675 7.00033C4.73675 5.75199 5.75175 4.73699 7.00008 4.73699C8.24841 4.73699 9.26341 5.75199 9.26341 7.00033C9.26341 8.24866 8.24841 9.26366 7.00008 9.26366ZM10.4534 4.01366C10.4242 4.08366 10.3834 4.14783 10.3309 4.20616C10.2726 4.25866 10.2084 4.29949 10.1384 4.32866C10.0684 4.35783 9.99258 4.37533 9.91675 4.37533C9.75925 4.37533 9.61341 4.31699 9.50258 4.20616C9.45008 4.14783 9.40925 4.08366 9.38008 4.01366C9.35091 3.94366 9.33341 3.86783 9.33341 3.79199C9.33341 3.71616 9.35091 3.64033 9.38008 3.57033C9.40925 3.49449 9.45008 3.43616 9.50258 3.37783C9.63675 3.24366 9.84091 3.17949 10.0276 3.22033C10.0684 3.22616 10.1034 3.23783 10.1384 3.25533C10.1734 3.26699 10.2084 3.28449 10.2434 3.30783C10.2726 3.32533 10.3017 3.35449 10.3309 3.37783C10.3834 3.43616 10.4242 3.49449 10.4534 3.57033C10.4826 3.64033 10.5001 3.71616 10.5001 3.79199C10.5001 3.86783 10.4826 3.94366 10.4534 4.01366Z" fill="#8d94b8"/>
</svg>
