<svg width="16" height="16" viewBox="0 0 16 16" fill="none" xmlns="http://www.w3.org/2000/svg">
<g clip-path="url(#clip0_4_22)">
<path d="M10.9998 4.99935V5.00602M2.6665 5.33268C2.6665 4.62544 2.94746 3.94716 3.44755 3.44706C3.94765 2.94697 4.62593 2.66602 5.33317 2.66602H10.6665C11.3737 2.66602 12.052 2.94697 12.5521 3.44706C13.0522 3.94716 13.3332 4.62544 13.3332 5.33268V10.666C13.3332 11.3733 13.0522 12.0515 12.5521 12.5516C12.052 13.0517 11.3737 13.3327 10.6665 13.3327H5.33317C4.62593 13.3327 3.94765 13.0517 3.44755 12.5516C2.94746 12.0515 2.6665 11.3733 2.6665 10.666V5.33268ZM5.99984 7.99935C5.99984 8.52978 6.21055 9.03849 6.58562 9.41356C6.9607 9.78864 7.4694 9.99935 7.99984 9.99935C8.53027 9.99935 9.03898 9.78864 9.41405 9.41356C9.78912 9.03849 9.99984 8.52978 9.99984 7.99935C9.99984 7.46892 9.78912 6.96021 9.41405 6.58514C9.03898 6.21006 8.53027 5.99935 7.99984 5.99935C7.4694 5.99935 6.9607 6.21006 6.58562 6.58514C6.21055 6.96021 5.99984 7.46892 5.99984 7.99935Z" stroke="#FCFCFD" stroke-linecap="round" stroke-linejoin="round"/>
<circle cx="12" cy="12" r="3.6" fill="#DF74FF" stroke="#2B2B2B" stroke-width="1.2"/>
<path d="M12.0031 10.5C12.8675 10.5 13.6125 11.0119 13.9513 11.749C14.0244 11.9082 14.0244 12.0918 13.9513 12.251C13.6125 12.9881 12.8675 13.5 12.0031 13.5C11.1387 13.5 10.3936 12.9881 10.0548 12.251C9.98173 12.0918 9.98173 11.9082 10.0548 11.749C10.3936 11.0119 11.1387 10.5 12.0031 10.5ZM12.0031 11.6807C11.648 11.6807 11.3605 11.8962 11.3605 12.1621C11.3608 12.4278 11.6482 12.6436 12.0031 12.6436C12.3578 12.6435 12.6453 12.4278 12.6456 12.1621C12.6456 11.8963 12.358 11.6807 12.0031 11.6807Z" fill="#2B2B2B"/>
</g>
<defs>
<clipPath id="clip0_4_22">
<rect width="16" height="16" fill="white"/>
</clipPath>
</defs>
</svg>
