<svg width="12" height="12" viewBox="0 0 12 12" fill="none" xmlns="http://www.w3.org/2000/svg">
<path d="M8.99984 2.99935V3.00602M0.666504 3.33268C0.666504 2.62544 0.947455 1.94716 1.44755 1.44706C1.94765 0.946967 2.62593 0.666016 3.33317 0.666016H8.6665C9.37375 0.666016 10.052 0.946967 10.5521 1.44706C11.0522 1.94716 11.3332 2.62544 11.3332 3.33268V8.66602C11.3332 9.37326 11.0522 10.0515 10.5521 10.5516C10.052 11.0517 9.37375 11.3327 8.6665 11.3327H3.33317C2.62593 11.3327 1.94765 11.0517 1.44755 10.5516C0.947455 10.0515 0.666504 9.37326 0.666504 8.66602V3.33268ZM3.99984 5.99935C3.99984 6.52978 4.21055 7.03849 4.58562 7.41356C4.9607 7.78864 5.4694 7.99935 5.99984 7.99935C6.53027 7.99935 7.03898 7.78864 7.41405 7.41356C7.78912 7.03849 7.99984 6.52978 7.99984 5.99935C7.99984 5.46892 7.78912 4.96021 7.41405 4.58514C7.03898 4.21006 6.53027 3.99935 5.99984 3.99935C5.4694 3.99935 4.9607 4.21006 4.58562 4.58514C4.21055 4.96021 3.99984 5.46892 3.99984 5.99935Z" stroke="#9191A4" stroke-linecap="round" stroke-linejoin="round"/>
</svg>
