<svg viewBox="0 0 24 24" fill="none" xmlns="http://www.w3.org/2000/svg">
<path d="M16.6954 5.49917C15.4734 5.43917 14.0164 6.00917 12.8054 7.65917L12.0004 8.74917L11.1944 7.65917C9.98236 6.00917 8.52436 5.43917 7.30236 5.49917C6.05936 5.56917 4.95336 6.27917 4.39236 7.40917C3.84036 8.52917 3.75936 10.1892 4.87136 12.2292C5.94536 14.1992 8.12836 16.4992 12.0004 18.8392C15.8704 16.4992 18.0524 14.1992 19.1264 12.2292C20.2374 10.1892 20.1564 8.52917 19.6034 7.40917C19.0424 6.27917 17.9374 5.56917 16.6954 5.49917ZM20.8824 13.1892C19.5314 15.6692 16.8814 18.3092 12.5034 20.8592L12.0004 21.1592L11.4964 20.8592C7.11736 18.3092 4.46736 15.6692 3.11436 13.1892C1.75436 10.6892 1.70436 8.32917 2.60036 6.51917C3.48736 4.72917 5.24736 3.60917 7.20136 3.50917C8.85236 3.41917 10.5694 4.06917 11.9994 5.51917C13.4284 4.06917 15.1454 3.41917 16.7954 3.50917C18.7494 3.60917 20.5094 4.72917 21.3964 6.51917C22.2924 8.32917 22.2424 10.6892 20.8824 13.1892Z" fill="#9191A4"/>
</svg>
