<svg width="16" height="16" viewBox="0 0 16 16" fill="none" xmlns="http://www.w3.org/2000/svg">
<path d="M10.1425 2.22495C10.1153 2.22773 10.0464 2.23385 9.98978 2.23885C9.93313 2.24386 9.87816 2.24997 9.86761 2.25275C9.85705 2.25553 9.82707 2.26054 9.80097 2.26388C9.75432 2.27055 9.65991 2.29112 9.50942 2.32782C9.435 2.34617 9.28451 2.39454 9.2262 2.41901C9.21121 2.42513 9.17455 2.43958 9.14568 2.4507C9.1168 2.46183 9.07904 2.47795 9.06182 2.48629C9.04461 2.49463 9.02128 2.50464 9.00907 2.50853C8.95076 2.52744 8.69975 2.66756 8.59423 2.7404C8.57091 2.75653 8.5487 2.76987 8.5487 2.76987C8.53481 2.76987 8.29991 2.95336 8.19662 3.04455C8.03613 3.1869 7.63462 3.58169 7.39583 3.8319C7.3303 3.9003 7.25645 3.97814 7.23201 4.00428C7.20702 4.03041 7.17592 4.06377 7.16259 4.07879C7.14927 4.0938 7.12483 4.11993 7.10873 4.13717C7.09207 4.15441 7.06097 4.18721 7.03931 4.21001C7.01765 4.23281 6.976 4.27674 6.94657 4.30732C6.91769 4.3379 6.8666 4.39295 6.83273 4.42965C6.79941 4.46634 6.75387 4.51528 6.73277 4.53807C6.71111 4.56087 6.67946 4.59479 6.6628 4.61314C6.64558 4.63149 6.59838 4.68264 6.55728 4.72713C6.48953 4.80108 6.43844 4.85668 6.35237 4.95177C6.33571 4.97012 6.30572 5.00292 6.28573 5.02461C6.23575 5.07854 6.14356 5.17974 6.11358 5.21366C6.09969 5.22867 6.08748 5.24257 6.08581 5.24424C6.08414 5.24591 6.06304 5.26926 6.03861 5.29707C6.01473 5.32431 5.97697 5.36601 5.95475 5.38881C5.93309 5.41161 5.90699 5.44052 5.89644 5.45276C5.86368 5.49168 5.72984 5.64014 5.68097 5.69185C5.62044 5.75524 5.59268 5.78582 5.54159 5.84476C5.51882 5.8709 5.49661 5.89592 5.49161 5.90037C5.48661 5.90482 5.43663 5.95875 5.38054 6.01992C5.3239 6.08108 5.27447 6.13502 5.26948 6.13946C5.26503 6.14391 5.24893 6.16171 5.23393 6.17839C5.21894 6.19507 5.18007 6.23788 5.14786 6.27236C5.11565 6.30739 5.07289 6.3541 5.0529 6.37523C5.03291 6.39691 4.97904 6.45696 4.9335 6.50923C4.88796 6.56094 4.82188 6.63378 4.78634 6.67048C4.62529 6.83841 4.55532 6.91291 4.48702 6.9902C4.42871 7.05637 4.38206 7.10586 4.28987 7.2015C4.19658 7.29825 4.16159 7.33606 4.10051 7.40445C4.0733 7.43504 4.04331 7.46784 4.03442 7.47674C4.02498 7.48619 3.9961 7.51733 3.97 7.54624C3.89837 7.62576 3.82562 7.70583 3.76953 7.76588C3.74898 7.78701 3.71178 7.82927 3.68679 7.85874C3.6618 7.88876 3.63903 7.91323 3.63681 7.91323C3.63459 7.91323 3.60793 7.94103 3.57794 7.97495C3.54795 8.00887 3.52019 8.04001 3.51741 8.04334C3.41579 8.15344 3.2925 8.3158 3.22086 8.43313C3.1981 8.46982 3.17422 8.50875 3.16755 8.51931C3.1359 8.56935 3.01484 8.80011 3.01484 8.81068C3.01484 8.81068 3.00095 8.84237 2.98429 8.87796C2.96763 8.9141 2.95375 8.94468 2.95375 8.9469C2.95375 8.9508 2.92099 9.03087 2.90655 9.06145C2.90266 9.07035 2.87989 9.1354 2.85657 9.20602C2.81603 9.32835 2.78882 9.42843 2.75716 9.573C2.74883 9.6097 2.73773 9.66086 2.73162 9.68699C2.72551 9.71313 2.71663 9.76929 2.71218 9.8121C2.70718 9.85492 2.69997 9.91497 2.69552 9.94555C2.68775 9.99949 2.6822 10.0595 2.66998 10.2375C2.65998 10.377 2.67164 10.575 2.70385 10.813C2.74162 11.0943 2.81159 11.3612 2.90932 11.5998C2.92487 11.6381 2.94264 11.6821 2.94875 11.6982C2.96652 11.7449 3.1048 12.019 3.15089 12.1002C3.17422 12.1408 3.20976 12.1997 3.22975 12.2303C3.2503 12.2615 3.27529 12.3004 3.28639 12.3171C3.29694 12.3337 3.30861 12.3504 3.31194 12.3543C3.31472 12.3576 3.32638 12.3738 3.33693 12.3893C3.34748 12.4055 3.37136 12.4372 3.38913 12.4605C3.43078 12.5145 3.48298 12.5801 3.48687 12.584C3.48853 12.5856 3.50964 12.6106 3.53407 12.6396C3.64125 12.768 3.8967 13.0104 4.04942 13.1289C4.07996 13.1528 4.09495 13.1633 4.16881 13.2156C4.20546 13.2417 4.32319 13.3163 4.37262 13.3446C4.39094 13.3552 4.41482 13.3691 4.42537 13.3752C4.45425 13.3919 4.63418 13.4814 4.6725 13.4986C4.79578 13.5531 5.06678 13.646 5.19173 13.6766C5.28502 13.6994 5.43052 13.73 5.45829 13.7327C5.47495 13.7344 5.52271 13.7405 5.5638 13.7466C5.60489 13.7527 5.68486 13.76 5.74151 13.7628C5.79815 13.7655 5.85924 13.7694 5.87756 13.7711C5.96031 13.7778 6.05693 13.7794 6.14134 13.7744C6.33182 13.7628 6.48009 13.7511 6.49231 13.7466C6.49953 13.7439 6.52896 13.7388 6.55784 13.735C6.71555 13.7149 6.89493 13.6716 7.05764 13.6154C7.09595 13.6021 7.13983 13.5876 7.15482 13.5826C7.19536 13.5698 7.24756 13.552 7.26033 13.5459C7.26644 13.5431 7.29643 13.5309 7.32697 13.5192C7.35752 13.507 7.40638 13.4858 7.43526 13.4719C7.46414 13.4586 7.49912 13.4419 7.51301 13.4358C7.52689 13.4291 7.54799 13.418 7.56021 13.4108C7.57243 13.4036 7.59742 13.3891 7.61574 13.3791C7.69349 13.3368 7.70182 13.3318 7.70182 13.3274C7.70182 13.3252 7.70515 13.3235 7.70904 13.3235C7.71293 13.3235 7.73347 13.3118 7.75458 13.2979C7.77623 13.284 7.81233 13.2612 7.8351 13.2473C7.89563 13.2106 8.0228 13.1166 8.06278 13.0788C8.06778 13.0744 8.08666 13.0577 8.10443 13.0427C8.22438 12.9415 8.55425 12.6212 8.72085 12.4449C8.74528 12.4188 8.80526 12.3554 8.85413 12.3032C8.903 12.2514 8.96686 12.1842 8.99629 12.153C9.07626 12.0696 9.14568 11.9962 9.18288 11.9556C9.20121 11.9356 9.24786 11.8845 9.28729 11.8416C9.32671 11.7988 9.40168 11.7188 9.45388 11.6637C9.50609 11.6087 9.56662 11.5447 9.58772 11.5219C9.62937 11.4769 9.69212 11.4096 9.75376 11.344C9.79208 11.3023 9.86983 11.2167 9.89093 11.1927C9.89704 11.1855 9.91592 11.1649 9.93313 11.1466C9.95035 11.1282 9.97812 11.0982 9.99478 11.0799C10.0114 11.0615 10.0392 11.0315 10.0559 11.0131C10.0731 10.9948 10.1008 10.9648 10.1175 10.9464C10.1342 10.9281 10.1719 10.8864 10.2014 10.8547C10.2308 10.8224 10.2719 10.7763 10.293 10.7518C10.3141 10.7273 10.3363 10.7023 10.3424 10.6956C10.3541 10.6834 10.4152 10.6161 10.5118 10.5099C10.544 10.4749 10.589 10.426 10.6117 10.4015C10.6351 10.377 10.6723 10.3359 10.695 10.3098C10.7178 10.2836 10.7534 10.2453 10.7733 10.2236C10.7939 10.2024 10.8389 10.1518 10.8733 10.1124C10.9077 10.0723 10.9377 10.039 10.9394 10.0373C10.9411 10.0356 10.961 10.0134 10.9838 9.98725C11.0443 9.91886 11.096 9.8627 11.2198 9.73148C11.2843 9.66253 11.3509 9.59024 11.4364 9.49572C11.4642 9.46513 11.4914 9.43511 11.4975 9.42843C11.5036 9.42232 11.5303 9.3934 11.5564 9.36449C11.7163 9.18767 11.8013 9.09481 11.8385 9.05589C11.8618 9.03142 11.8918 8.99862 11.9051 8.9836C11.9184 8.96803 11.9484 8.93578 11.9717 8.91076C11.9951 8.8863 12.024 8.85516 12.0356 8.84126C12.0478 8.82791 12.0728 8.80067 12.0911 8.78065C12.11 8.76063 12.1528 8.71448 12.1861 8.67778C12.3155 8.53655 12.3927 8.4537 12.4554 8.38809C12.4838 8.35806 12.5293 8.31024 12.5554 8.28299C12.5815 8.25519 12.6404 8.19069 12.6859 8.13842C12.732 8.08671 12.7831 8.02888 12.7997 8.01054C12.817 7.99219 12.8492 7.95604 12.8719 7.92991C12.8947 7.90433 12.9186 7.87764 12.9247 7.87097C13.0002 7.79146 13.1652 7.57404 13.2268 7.47396C13.3068 7.34384 13.4295 7.09696 13.4856 6.95406C13.4939 6.93238 13.5039 6.90735 13.5078 6.89846C13.5189 6.87344 13.5694 6.72053 13.5833 6.66993C13.6139 6.55649 13.6627 6.32574 13.6688 6.26179C13.6711 6.24178 13.6777 6.19284 13.6833 6.15337C13.7099 5.97766 13.7171 5.41828 13.6966 5.18085C13.6894 5.10078 13.6483 4.87614 13.6183 4.75215C13.5922 4.64539 13.5533 4.5125 13.5272 4.44077C13.5217 4.4252 13.5089 4.39017 13.4995 4.36292C13.46 4.25005 13.3279 3.97258 13.2573 3.85526C13.2135 3.78242 13.1379 3.66454 13.1274 3.6523C13.1241 3.64897 13.1046 3.62172 13.0841 3.59225C13.0635 3.56278 13.0319 3.52052 13.0135 3.49773C12.9958 3.47493 12.9719 3.44546 12.9613 3.43156C12.9247 3.38485 12.8181 3.26752 12.7326 3.18078C12.6615 3.10905 12.6209 3.07013 12.5254 2.98394C12.5193 2.97783 12.3971 2.88108 12.3583 2.8505C12.2894 2.79712 12.1389 2.69925 11.9751 2.60195C11.9312 2.57581 11.7857 2.50353 11.7363 2.48351C11.7152 2.47461 11.6952 2.46572 11.6919 2.46349C11.6824 2.45682 11.5652 2.40956 11.4936 2.38398C11.4064 2.35229 11.3153 2.32559 11.2004 2.29779C11.0133 2.25275 10.9722 2.24664 10.7367 2.22996C10.6334 2.22217 10.2102 2.21884 10.1425 2.22495ZM10.6006 2.72817C10.7017 2.73818 10.8333 2.75653 10.8811 2.76653C10.9027 2.77098 10.9388 2.77821 10.9616 2.78266C10.9844 2.78711 11.0194 2.79489 11.0394 2.7999C11.0593 2.80546 11.0866 2.81157 11.1004 2.81435C11.1543 2.82492 11.2804 2.86273 11.3153 2.87885C11.3248 2.8833 11.3353 2.88664 11.3387 2.88664C11.342 2.88664 11.3553 2.89164 11.3681 2.8972C11.5491 2.97894 11.6063 3.00619 11.6808 3.04733C11.6963 3.05623 11.7363 3.07736 11.7696 3.09515C11.8396 3.13185 11.9895 3.22916 12.0512 3.27809C12.0589 3.28476 12.0706 3.29366 12.0767 3.29811C12.2266 3.41321 12.4654 3.64952 12.541 3.75851C12.5526 3.77574 12.5748 3.8041 12.5893 3.82245C12.6043 3.84024 12.6304 3.87639 12.6476 3.90308C12.6648 3.92977 12.6881 3.9648 12.6987 3.98148C12.7514 4.06099 12.8081 4.15774 12.8347 4.21279C12.8753 4.29564 12.9053 4.35959 12.9053 4.36292C12.9053 4.3657 12.9297 4.42131 12.9552 4.47413C12.978 4.52306 13.0113 4.60813 13.023 4.64928C13.0291 4.6693 13.0408 4.71267 13.0502 4.74603C13.0591 4.77939 13.0685 4.80942 13.0702 4.81276C13.0724 4.81554 13.0757 4.82833 13.078 4.84111C13.0819 4.85891 13.0985 4.93231 13.1185 5.01627C13.1229 5.03462 13.1329 5.11135 13.1391 5.17474C13.1424 5.21144 13.1474 5.24369 13.1496 5.24702C13.1585 5.25926 13.169 5.46276 13.169 5.62791C13.1685 5.79861 13.1624 5.91538 13.1468 6.04494C13.1429 6.07997 13.1363 6.13613 13.1329 6.17005C13.1291 6.20341 13.1229 6.24511 13.1185 6.26179C13.1046 6.31851 13.088 6.39246 13.0807 6.42861C13.0769 6.44862 13.0685 6.48032 13.0619 6.49978C13.0552 6.51868 13.0496 6.53814 13.0496 6.54315C13.0496 6.5476 13.0469 6.55705 13.043 6.56372C13.0396 6.57039 13.0358 6.57985 13.0352 6.5843C13.0335 6.59486 13.0119 6.66103 13.0052 6.67604C13.0024 6.68216 12.9963 6.70106 12.9913 6.71774C12.9863 6.73443 12.9802 6.75222 12.978 6.75667C12.9758 6.76112 12.9641 6.78725 12.9525 6.81505C12.9408 6.8423 12.918 6.89345 12.9019 6.92848C12.8853 6.96296 12.8719 6.9941 12.8719 6.9941C12.8719 6.9941 12.8614 7.01411 12.8492 7.03636C12.8364 7.0586 12.8192 7.08862 12.8114 7.10419C12.7798 7.16258 12.732 7.24042 12.7042 7.27768C12.6926 7.2938 12.6831 7.30881 12.6831 7.31104C12.6831 7.31382 12.6787 7.31994 12.6737 7.32494C12.6681 7.32939 12.6576 7.34218 12.6498 7.35219C12.642 7.36275 12.6204 7.38888 12.6015 7.41113C12.5821 7.43337 12.5665 7.45338 12.5665 7.45338C12.5665 7.45338 12.5521 7.47007 12.5349 7.48841C12.5171 7.50621 12.4943 7.53123 12.4838 7.54346C12.4577 7.5746 12.3383 7.70138 12.2555 7.78534C12.1633 7.87931 11.9679 8.08282 11.9162 8.13842C11.8934 8.16289 11.8462 8.21293 11.8113 8.24963C11.6796 8.38697 11.5564 8.5182 11.5031 8.57714C11.4997 8.58047 11.4475 8.63719 11.3864 8.7028C11.3253 8.76842 11.2532 8.84737 11.2265 8.87796C11.2004 8.90854 11.176 8.93578 11.1732 8.93912C11.1699 8.9419 11.1521 8.96192 11.1326 8.98305C11.1132 9.00473 11.0777 9.0431 11.0527 9.06923C11.0277 9.09592 10.9816 9.14597 10.9505 9.181C10.9188 9.21603 10.8739 9.26551 10.8511 9.29054C10.8278 9.31556 10.8 9.34614 10.7895 9.35782C10.7628 9.38729 10.6456 9.51295 10.5979 9.56244C10.5146 9.64863 10.5007 9.6642 10.5007 9.66976C10.5007 9.67309 10.4985 9.67587 10.4957 9.67587C10.4929 9.67587 10.4718 9.69478 10.4485 9.71758L10.4068 9.75872L10.3874 9.73537C10.3419 9.68032 9.91314 9.26718 9.82873 9.19712C9.80874 9.181 9.77931 9.15431 9.7632 9.13874C9.7471 9.12317 9.68601 9.06423 9.62715 9.00807C9.50331 8.88908 9.50942 8.89464 9.1951 8.58326C8.87579 8.26631 8.75472 8.14843 8.68753 8.08838C8.622 8.03 8.2055 7.62631 8.07389 7.49342C7.93506 7.3533 7.79234 7.21762 7.69071 7.1281C7.64018 7.08418 7.57021 7.01912 7.53467 6.98409C7.49912 6.94906 7.43415 6.88678 7.39028 6.84563C7.34641 6.80449 7.26422 6.72497 7.20702 6.66937C7.15038 6.61321 7.06041 6.52591 7.0071 6.47476C6.90659 6.37745 6.69223 6.16782 6.51008 5.98655C6.40512 5.88258 6.3246 5.79472 6.3246 5.78471C6.3246 5.78193 6.33626 5.76747 6.35126 5.75246C6.3657 5.73745 6.39679 5.70409 6.42067 5.67795C6.44511 5.65182 6.4812 5.6129 6.50175 5.59177C6.52174 5.57008 6.55118 5.53783 6.56617 5.51948C6.58116 5.50113 6.59671 5.48445 6.60005 5.48223C6.60393 5.47945 6.63003 5.4522 6.65835 5.42106C6.68668 5.38937 6.72722 5.34488 6.74887 5.32153C6.86716 5.19531 6.93158 5.12636 6.96323 5.09133C6.98267 5.06965 7.03265 5.01627 7.0743 4.97178C7.31198 4.71823 7.37195 4.65373 7.43804 4.57978C7.49468 4.51583 7.5691 4.43743 7.68572 4.31844C7.73625 4.26617 7.79178 4.2089 7.80789 4.19055C7.91007 4.07712 7.94616 4.03764 7.99004 3.99204C8.01558 3.9648 8.04057 3.93755 8.04557 3.93088C8.05001 3.92421 8.065 3.90753 8.07944 3.89362C8.09333 3.87972 8.13498 3.83524 8.17218 3.79576C8.36044 3.59281 8.53981 3.4221 8.6792 3.31256C8.70197 3.29421 8.72585 3.27475 8.73196 3.26919C8.73806 3.26363 8.75417 3.2514 8.76805 3.24195C8.78194 3.23305 8.8047 3.21748 8.81859 3.20747C8.90966 3.14464 9.0596 3.05957 9.18177 3.00229C9.36614 2.91555 9.51386 2.86106 9.69823 2.81213C9.80874 2.78266 9.85206 2.77432 9.987 2.75597C10.042 2.74818 10.0947 2.7404 10.1036 2.73873C10.1819 2.72149 10.4751 2.71482 10.6006 2.72817ZM5.92643 6.31239C5.93309 6.31629 5.94309 6.32296 5.94809 6.32796C5.95309 6.33297 5.9803 6.35688 6.00806 6.38134C6.06859 6.43417 6.10358 6.46753 6.27073 6.63211C6.34015 6.70051 6.39679 6.75333 6.39679 6.75333C6.39679 6.75111 6.41345 6.76612 6.43456 6.78558C6.4551 6.80504 6.48898 6.83729 6.51008 6.85731C6.53118 6.87677 6.56117 6.90513 6.57728 6.9207C6.65502 6.99576 6.90437 7.23764 6.99322 7.32438C7.10817 7.4367 7.1315 7.45895 7.21924 7.54346C7.40028 7.71695 7.55299 7.86485 7.63962 7.94937C7.82066 8.12675 7.84121 8.14677 7.84398 8.14677C7.84398 8.14677 7.88563 8.18513 7.93395 8.23184C7.98171 8.2791 8.04723 8.34193 8.07944 8.37252C8.11165 8.40254 8.17552 8.46426 8.22105 8.50875C8.26715 8.55323 8.31657 8.60049 8.33101 8.61439C8.346 8.62774 8.38543 8.66555 8.41931 8.69836C8.45318 8.73172 8.48261 8.75841 8.48539 8.75841C8.48761 8.75841 8.49428 8.76397 8.49983 8.77064C8.50538 8.77787 8.5226 8.79455 8.53759 8.8079C8.55314 8.82124 8.61811 8.88407 8.68253 8.9469C8.74695 9.00974 8.82803 9.08758 8.86246 9.11983C8.89689 9.15208 8.95742 9.20936 8.99685 9.24772C9.03683 9.28609 9.08959 9.33613 9.11402 9.35893C9.18622 9.42454 9.42889 9.66976 9.42889 9.67643C9.42889 9.67976 9.42279 9.68755 9.41446 9.69367C9.40668 9.69978 9.39113 9.71757 9.37891 9.7337C9.36725 9.74927 9.35115 9.76929 9.34282 9.77874C9.33449 9.78764 9.32005 9.80487 9.31061 9.81711C9.30061 9.82878 9.28395 9.84769 9.2734 9.85936C9.26285 9.87049 9.24064 9.89495 9.22398 9.91274C9.20787 9.93054 9.15678 9.98447 9.11014 10.0323C9.06404 10.0796 9.00907 10.1379 8.98741 10.1624C8.91355 10.2453 8.90411 10.2558 8.8819 10.2792C8.86968 10.292 8.84469 10.3187 8.82692 10.3381C8.7886 10.3787 8.59868 10.5789 8.56536 10.6134C8.55314 10.6261 8.52704 10.6534 8.50705 10.6745C8.47095 10.7134 8.33656 10.8563 8.27936 10.917C8.2627 10.9347 8.23993 10.9587 8.22938 10.9703C8.21883 10.982 8.18607 11.0176 8.15719 11.0493C8.12831 11.081 8.08833 11.1249 8.06889 11.146C8.0489 11.1677 7.99392 11.2267 7.94672 11.2767C7.89896 11.3273 7.8401 11.3896 7.81566 11.4157C7.79123 11.4413 7.75846 11.4763 7.74236 11.493C7.72625 11.5097 7.71293 11.5253 7.71182 11.5275C7.70959 11.5342 7.59464 11.6554 7.55244 11.696C7.50634 11.7404 7.49635 11.7499 7.44026 11.7999C7.41471 11.8227 7.3875 11.8478 7.37973 11.8555C7.35529 11.8806 7.2781 11.9467 7.247 11.9695C7.23034 11.9812 7.20924 11.9984 7.1998 12.0068C7.18259 12.0224 7.03487 12.1236 7.00766 12.138C6.99988 12.1419 6.98878 12.1497 6.98267 12.1552C6.97656 12.1603 6.96101 12.1697 6.94768 12.1753C6.93435 12.1808 6.92214 12.1881 6.91992 12.1914C6.91547 12.1981 6.89493 12.2097 6.81329 12.2514C6.78441 12.2659 6.75776 12.2781 6.75387 12.2781C6.75054 12.2781 6.72722 12.287 6.70278 12.2976C6.6789 12.3082 6.65447 12.3171 6.64947 12.3171C6.64447 12.3171 6.63337 12.3204 6.62559 12.3248C6.60838 12.3337 6.57783 12.3443 6.51897 12.3615C6.4962 12.3682 6.46232 12.3782 6.444 12.3843C6.37569 12.4049 6.30905 12.4205 6.19743 12.4399C5.93698 12.4861 5.73651 12.4961 5.54159 12.4722C5.38387 12.4533 5.35333 12.4488 5.26892 12.4344C5.20006 12.4227 5.03346 12.3827 5.01513 12.3738C5.01014 12.371 4.9807 12.3632 4.95016 12.356C4.91962 12.3488 4.89241 12.3415 4.88908 12.3387C4.8863 12.3365 4.86742 12.3304 4.84743 12.3254C4.82743 12.3198 4.79745 12.3093 4.78079 12.302C4.7508 12.2881 4.72192 12.2759 4.70026 12.267C4.6364 12.2409 4.48368 12.1641 4.46647 12.1502C4.46036 12.1452 4.44481 12.1358 4.43093 12.1286C4.41704 12.1213 4.40205 12.1119 4.39705 12.108C4.39261 12.1035 4.38539 12.1002 4.3815 12.1002C4.37817 12.1002 4.3554 12.0863 4.33097 12.0696C4.30709 12.0524 4.27266 12.0307 4.25489 12.0212C4.23712 12.0123 4.21768 12.0001 4.21157 11.9951C4.20546 11.9895 4.19436 11.9823 4.18658 11.979C4.16881 11.9706 4.15382 11.9606 4.13994 11.9484C4.13383 11.9434 4.12605 11.9389 4.12216 11.9389C4.11828 11.9389 4.11161 11.9345 4.10773 11.9289C4.10384 11.9239 4.08551 11.9084 4.06719 11.8945C4.04886 11.8806 4.03276 11.8683 4.03109 11.8667C4.02942 11.865 4.02054 11.8578 4.01054 11.8511C3.95001 11.8088 3.719 11.582 3.65791 11.5052C3.63958 11.4824 3.61904 11.4574 3.61237 11.4496C3.60571 11.4419 3.59071 11.4207 3.57905 11.4029C3.56739 11.3846 3.55406 11.3662 3.54962 11.3618C3.54518 11.3573 3.53518 11.3429 3.52741 11.3306C3.51963 11.3179 3.5113 11.3067 3.50964 11.3051C3.50408 11.3012 3.46465 11.2395 3.44688 11.2072C3.41745 11.1544 3.40246 11.1299 3.39468 11.121C3.39024 11.1166 3.38691 11.1099 3.38691 11.1066C3.38691 11.1032 3.38358 11.0977 3.37913 11.0943C3.37469 11.0904 3.36969 11.081 3.36747 11.0726C3.36581 11.0643 3.35803 11.0448 3.35026 11.0287C3.34304 11.0131 3.33693 10.997 3.33693 10.9937C3.33693 10.9898 3.3336 10.9803 3.32971 10.9726C3.30472 10.9225 3.26029 10.769 3.24863 10.6906C3.23641 10.6122 3.22531 10.4771 3.22364 10.4015C3.22198 10.2897 3.22975 10.0245 3.23641 9.97891C3.24697 9.90552 3.25974 9.82878 3.26751 9.79264C3.27196 9.77262 3.28084 9.7287 3.28695 9.69533C3.29806 9.6325 3.32915 9.51295 3.36969 9.37283C3.38413 9.32334 3.43356 9.181 3.44133 9.16654C3.44466 9.16098 3.4591 9.12984 3.47298 9.09759C3.49853 9.04032 3.51686 9.00306 3.57128 8.89742C3.61348 8.81624 3.61459 8.81401 3.64625 8.7673C3.66235 8.74339 3.67568 8.72115 3.67568 8.72115C3.67568 8.72115 3.68901 8.70002 3.70511 8.67667C3.72066 8.65387 3.73677 8.62996 3.7401 8.62385C3.74343 8.61829 3.75176 8.60772 3.75842 8.60049C3.76453 8.59382 3.77009 8.58492 3.77009 8.58159C3.77009 8.57825 3.77619 8.57102 3.78397 8.56602C3.79174 8.56101 3.79785 8.55379 3.79785 8.54989C3.79785 8.54656 3.80341 8.53877 3.80951 8.53266C3.81618 8.5271 3.83228 8.50763 3.84506 8.48984C3.85783 8.4726 3.88559 8.43869 3.9067 8.41589C3.9278 8.39253 3.94724 8.36974 3.94946 8.36584C3.95168 8.3614 3.95779 8.35806 3.96167 8.35806C3.96612 8.35806 3.96945 8.35584 3.96834 8.35361C3.96723 8.34805 4.08829 8.22016 4.25878 8.04668C4.31709 7.98718 4.41538 7.88598 4.47702 7.82148C4.63362 7.65856 4.74524 7.54346 4.85909 7.42669C4.9124 7.37165 4.97848 7.3027 5.00569 7.27378C5.11676 7.15368 5.16785 7.09919 5.19117 7.0775C5.23005 7.04136 5.23449 7.03636 5.3139 6.94906C5.355 6.90346 5.40498 6.84953 5.42441 6.82951C5.48716 6.76445 5.621 6.62099 5.65543 6.58207C5.67376 6.5615 5.71263 6.51924 5.74206 6.4881C5.77094 6.45696 5.82092 6.40358 5.85313 6.36911C5.88478 6.33519 5.91255 6.30683 5.91255 6.30683C5.91255 6.30683 5.91977 6.30906 5.92643 6.31239Z" fill="#9191A4"/>
</svg>
