<svg viewBox="0 0 16 16" fill="none" xmlns="http://www.w3.org/2000/svg">
<path d="M10.1427 2.22544C10.1155 2.22822 10.0466 2.23434 9.98996 2.23934C9.93332 2.24435 9.87834 2.25046 9.86779 2.25324C9.85724 2.25602 9.82725 2.26103 9.80115 2.26436C9.7545 2.27104 9.66009 2.29161 9.5096 2.32831C9.43519 2.34666 9.28469 2.39503 9.22638 2.4195C9.21139 2.42561 9.17474 2.44007 9.14586 2.45119C9.11698 2.46231 9.07922 2.47844 9.06201 2.48678C9.04479 2.49512 9.02147 2.50513 9.00925 2.50902C8.95094 2.52793 8.69993 2.66805 8.59442 2.74089C8.57109 2.75701 8.54888 2.77036 8.54888 2.77036C8.535 2.77036 8.30009 2.95385 8.1968 3.04504C8.03631 3.18739 7.63481 3.58218 7.39602 3.83239C7.33049 3.90079 7.25663 3.97863 7.23219 4.00476C7.2072 4.0309 7.17611 4.06426 7.16278 4.07927C7.14945 4.09429 7.12502 4.12042 7.10891 4.13766C7.09225 4.15489 7.06115 4.1877 7.03949 4.2105C7.01784 4.2333 6.97619 4.27722 6.94675 4.30781C6.91788 4.33839 6.86679 4.39344 6.83291 4.43013C6.79959 4.46683 6.75405 4.51576 6.73295 4.53856C6.71129 4.56136 6.67964 4.59528 6.66298 4.61363C6.64577 4.63198 6.59856 4.68313 6.55747 4.72761C6.48972 4.80157 6.43863 4.85717 6.35255 4.95225C6.33589 4.9706 6.3059 5.00341 6.28591 5.02509C6.23593 5.07903 6.14375 5.18023 6.11376 5.21415C6.09988 5.22916 6.08766 5.24306 6.08599 5.24473C6.08433 5.2464 6.06322 5.26975 6.03879 5.29755C6.01491 5.3248 5.97715 5.3665 5.95494 5.3893C5.93328 5.4121 5.90718 5.44101 5.89663 5.45325C5.86386 5.49217 5.73003 5.64063 5.68116 5.69234C5.62063 5.75573 5.59286 5.78631 5.54177 5.84525C5.519 5.87139 5.49679 5.89641 5.49179 5.90086C5.48679 5.9053 5.43681 5.95924 5.38072 6.0204C5.32408 6.08157 5.27466 6.1355 5.26966 6.13995C5.26522 6.1444 5.24911 6.16219 5.23412 6.17888C5.21912 6.19556 5.18025 6.23837 5.14804 6.27285C5.11583 6.30788 5.07307 6.35458 5.05308 6.37571C5.03309 6.3974 4.97922 6.45745 4.93368 6.50972C4.88815 6.56143 4.82206 6.63427 4.78652 6.67097C4.62548 6.83889 4.5555 6.9134 4.4872 6.99069C4.42889 7.05686 4.38224 7.10635 4.29006 7.20199C4.19676 7.29874 4.16178 7.33655 4.10069 7.40494C4.07348 7.43552 4.04349 7.46833 4.03461 7.47723C4.02517 7.48668 3.99629 7.51782 3.97019 7.54673C3.89855 7.62624 3.8258 7.70631 3.76971 7.76637C3.74917 7.7875 3.71196 7.82975 3.68697 7.85923C3.66198 7.88925 3.63921 7.91372 3.63699 7.91372C3.63477 7.91372 3.60811 7.94152 3.57812 7.97544C3.54814 8.00936 3.52037 8.04049 3.51759 8.04383C3.41597 8.15393 3.29269 8.31629 3.22105 8.43361C3.19828 8.47031 3.1744 8.50923 3.16774 8.5198C3.13608 8.56984 3.01502 8.8006 3.01502 8.81116C3.01502 8.81116 3.00114 8.84286 2.98448 8.87844C2.96782 8.91459 2.95393 8.94517 2.95393 8.94739C2.95393 8.95128 2.92117 9.03135 2.90673 9.06194C2.90284 9.07083 2.88008 9.13589 2.85675 9.20651C2.81621 9.32884 2.789 9.42892 2.75735 9.57349C2.74902 9.61019 2.73791 9.66135 2.7318 9.68748C2.72569 9.71361 2.71681 9.76977 2.71237 9.81259C2.70737 9.8554 2.70015 9.91546 2.69571 9.94604C2.68793 9.99997 2.68238 10.06 2.67016 10.238C2.66016 10.3775 2.67183 10.5755 2.70404 10.8135C2.7418 11.0948 2.81177 11.3617 2.90951 11.6003C2.92506 11.6386 2.94283 11.6825 2.94894 11.6987C2.96671 11.7454 3.10498 12.0195 3.15108 12.1007C3.1744 12.1413 3.20994 12.2002 3.22993 12.2308C3.25048 12.2619 3.27547 12.3009 3.28658 12.3175C3.29713 12.3342 3.30879 12.3509 3.31212 12.3548C3.3149 12.3581 3.32656 12.3743 3.33711 12.3898C3.34766 12.406 3.37154 12.4376 3.38931 12.461C3.43096 12.5149 3.48316 12.5806 3.48705 12.5844C3.48872 12.5861 3.50982 12.6111 3.53425 12.64C3.64143 12.7685 3.89688 13.0109 4.0496 13.1294C4.08014 13.1533 4.09514 13.1638 4.169 13.2161C4.20565 13.2422 4.32338 13.3167 4.3728 13.3451C4.39113 13.3557 4.41501 13.3696 4.42556 13.3757C4.45443 13.3924 4.63436 13.4819 4.67268 13.4991C4.79596 13.5536 5.06696 13.6465 5.19191 13.6771C5.28521 13.6999 5.4307 13.7304 5.45847 13.7332C5.47513 13.7349 5.52289 13.741 5.56398 13.7471C5.60508 13.7532 5.68505 13.7605 5.74169 13.7632C5.79833 13.766 5.85942 13.7699 5.87774 13.7716C5.96049 13.7783 6.05712 13.7799 6.14153 13.7749C6.332 13.7632 6.48028 13.7516 6.49249 13.7471C6.49971 13.7443 6.52915 13.7393 6.55802 13.7354C6.71574 13.7154 6.89511 13.6721 7.05782 13.6159C7.09614 13.6026 7.14001 13.5881 7.155 13.5831C7.19554 13.5703 7.24774 13.5525 7.26052 13.5464C7.26662 13.5436 7.29661 13.5314 7.32716 13.5197C7.3577 13.5075 7.40657 13.4863 7.43544 13.4724C7.46432 13.4591 7.49931 13.4424 7.51319 13.4363C7.52707 13.4296 7.54818 13.4185 7.56039 13.4113C7.57261 13.404 7.5976 13.3896 7.61593 13.3796C7.69367 13.3373 7.702 13.3323 7.702 13.3279C7.702 13.3256 7.70533 13.324 7.70922 13.324C7.71311 13.324 7.73366 13.3123 7.75476 13.2984C7.77642 13.2845 7.81251 13.2617 7.83528 13.2478C7.89581 13.2111 8.02298 13.1171 8.06297 13.0793C8.06796 13.0749 8.08685 13.0582 8.10462 13.0432C8.22457 12.942 8.55443 12.6217 8.72103 12.4454C8.74547 12.4193 8.80544 12.3559 8.85431 12.3036C8.90318 12.2519 8.96704 12.1847 8.99648 12.1535C9.07644 12.0701 9.14586 11.9967 9.18307 11.9561C9.20139 11.9361 9.24804 11.8849 9.28747 11.8421C9.3269 11.7993 9.40187 11.7192 9.45407 11.6642C9.50627 11.6092 9.5668 11.5452 9.5879 11.5224C9.62955 11.4774 9.6923 11.4101 9.75395 11.3445C9.79226 11.3028 9.87001 11.2171 9.89111 11.1932C9.89722 11.186 9.9161 11.1654 9.93332 11.1471C9.95053 11.1287 9.9783 11.0987 9.99496 11.0804C10.0116 11.062 10.0394 11.032 10.056 11.0136C10.0733 10.9953 10.101 10.9653 10.1177 10.9469C10.1343 10.9286 10.1721 10.8869 10.2015 10.8552C10.231 10.8229 10.2721 10.7768 10.2932 10.7523C10.3143 10.7278 10.3365 10.7028 10.3426 10.6961C10.3543 10.6839 10.4153 10.6166 10.512 10.5104C10.5442 10.4754 10.5892 10.4265 10.6119 10.402C10.6353 10.3775 10.6725 10.3364 10.6952 10.3102C10.718 10.2841 10.7535 10.2457 10.7735 10.2241C10.7941 10.2029 10.8391 10.1523 10.8735 10.1129C10.9079 10.0728 10.9379 10.0395 10.9396 10.0378C10.9412 10.0361 10.9612 10.0139 10.984 9.98774C11.0445 9.91935 11.0962 9.86319 11.22 9.73196C11.2844 9.66302 11.3511 9.59073 11.4366 9.4962C11.4644 9.46562 11.4916 9.4356 11.4977 9.42892C11.5038 9.42281 11.5304 9.39389 11.5565 9.36498C11.7165 9.18816 11.8014 9.0953 11.8387 9.05638C11.862 9.03191 11.892 8.9991 11.9053 8.98409C11.9186 8.96852 11.9486 8.93627 11.9719 8.91125C11.9953 8.88678 12.0241 8.85565 12.0358 8.84175C12.048 8.8284 12.073 8.80115 12.0913 8.78114C12.1102 8.76112 12.153 8.71497 12.1863 8.67827C12.3157 8.53704 12.3929 8.45419 12.4556 8.38857C12.4839 8.35855 12.5295 8.31073 12.5556 8.28348C12.5817 8.25568 12.6405 8.19118 12.6861 8.13891C12.7322 8.0872 12.7833 8.02937 12.7999 8.01102C12.8171 7.99267 12.8494 7.95653 12.8721 7.9304C12.8949 7.90482 12.9188 7.87813 12.9249 7.87146C13.0004 7.79194 13.1653 7.57453 13.227 7.47445C13.3069 7.34433 13.4297 7.09745 13.4858 6.95455C13.4941 6.93286 13.5041 6.90784 13.508 6.89895C13.5191 6.87392 13.5696 6.72101 13.5835 6.67041C13.614 6.55698 13.6629 6.32623 13.669 6.26228C13.6712 6.24226 13.6779 6.19333 13.6835 6.15385C13.7101 5.97815 13.7173 5.41877 13.6968 5.18134C13.6896 5.10127 13.6485 4.87663 13.6185 4.75264C13.5924 4.64588 13.5535 4.51298 13.5274 4.44126C13.5219 4.42569 13.5091 4.39066 13.4996 4.36341C13.4602 4.25053 13.328 3.97307 13.2575 3.85575C13.2136 3.7829 13.1381 3.66502 13.1276 3.65279C13.1242 3.64946 13.1048 3.62221 13.0843 3.59274C13.0637 3.56327 13.0321 3.52101 13.0137 3.49821C12.996 3.47542 12.9721 3.44595 12.9615 3.43204C12.9249 3.38534 12.8183 3.26801 12.7327 3.18127C12.6617 3.10954 12.6211 3.07062 12.5256 2.98443C12.5195 2.97832 12.3973 2.88157 12.3584 2.85098C12.2896 2.7976 12.1391 2.69974 11.9753 2.60244C11.9314 2.5763 11.7859 2.50401 11.7365 2.484C11.7154 2.4751 11.6954 2.46621 11.692 2.46398C11.6826 2.45731 11.5654 2.41005 11.4938 2.38447C11.4066 2.35277 11.3155 2.32608 11.2006 2.29828C11.0134 2.25324 10.9723 2.24713 10.7369 2.23044C10.6336 2.22266 10.2104 2.21932 10.1427 2.22544ZM10.6008 2.72866C10.7019 2.73866 10.8335 2.75701 10.8813 2.76702C10.9029 2.77147 10.939 2.7787 10.9618 2.78315C10.9846 2.7876 11.0195 2.79538 11.0395 2.80038C11.0595 2.80594 11.0867 2.81206 11.1006 2.81484C11.1545 2.82541 11.2805 2.86322 11.3155 2.87934C11.325 2.88379 11.3355 2.88713 11.3389 2.88713C11.3422 2.88713 11.3555 2.89213 11.3683 2.89769C11.5493 2.97943 11.6065 3.00667 11.6809 3.04782C11.6965 3.05672 11.7365 3.07785 11.7698 3.09564C11.8398 3.13234 11.9897 3.22965 12.0513 3.27858C12.0591 3.28525 12.0708 3.29415 12.0769 3.2986C12.2268 3.4137 12.4656 3.65001 12.5411 3.759C12.5528 3.77623 12.575 3.80459 12.5895 3.82294C12.6045 3.84073 12.6306 3.87687 12.6478 3.90357C12.665 3.93025 12.6883 3.96529 12.6989 3.98197C12.7516 4.06148 12.8083 4.15823 12.8349 4.21328C12.8755 4.29613 12.9054 4.36007 12.9054 4.36341C12.9054 4.36619 12.9299 4.42179 12.9554 4.47462C12.9782 4.52355 13.0115 4.60862 13.0232 4.64977C13.0293 4.66979 13.0409 4.71316 13.0504 4.74652C13.0593 4.77988 13.0687 4.80991 13.0704 4.81324C13.0726 4.81602 13.0759 4.82881 13.0781 4.8416C13.082 4.8594 13.0987 4.93279 13.1187 5.01676C13.1231 5.0351 13.1331 5.11184 13.1392 5.17523C13.1426 5.21192 13.1476 5.24417 13.1498 5.24751C13.1587 5.25974 13.1692 5.46325 13.1692 5.6284C13.1687 5.7991 13.1626 5.91587 13.147 6.04543C13.1431 6.08046 13.1365 6.13662 13.1331 6.17054C13.1292 6.2039 13.1231 6.2456 13.1187 6.26228C13.1048 6.319 13.0881 6.39295 13.0809 6.42909C13.077 6.44911 13.0687 6.4808 13.062 6.50027C13.0554 6.51917 13.0498 6.53863 13.0498 6.54364C13.0498 6.54809 13.047 6.55754 13.0432 6.56421C13.0398 6.57088 13.0359 6.58034 13.0354 6.58478C13.0337 6.59535 13.0121 6.66152 13.0054 6.67653C13.0026 6.68265 12.9965 6.70155 12.9915 6.71823C12.9865 6.73491 12.9804 6.75271 12.9782 6.75716C12.976 6.7616 12.9643 6.78774 12.9526 6.81554C12.941 6.84279 12.9182 6.89394 12.9021 6.92897C12.8854 6.96345 12.8721 6.99458 12.8721 6.99458C12.8721 6.99458 12.8616 7.0146 12.8494 7.03684C12.8366 7.05908 12.8194 7.08911 12.8116 7.10468C12.7799 7.16306 12.7322 7.24091 12.7044 7.27816C12.6927 7.29429 12.6833 7.3093 12.6833 7.31153C12.6833 7.31431 12.6789 7.32042 12.6739 7.32543C12.6683 7.32988 12.6578 7.34267 12.65 7.35267C12.6422 7.36324 12.6206 7.38937 12.6017 7.41161C12.5822 7.43386 12.5667 7.45387 12.5667 7.45387C12.5667 7.45387 12.5523 7.47055 12.535 7.4889C12.5173 7.5067 12.4945 7.53172 12.4839 7.54395C12.4578 7.57509 12.3384 7.70187 12.2557 7.78583C12.1635 7.8798 11.968 8.08331 11.9164 8.13891C11.8936 8.16338 11.8464 8.21342 11.8114 8.25012C11.6798 8.38746 11.5565 8.51869 11.5032 8.57763C11.4999 8.58096 11.4477 8.63768 11.3866 8.70329C11.3255 8.7689 11.2533 8.84786 11.2267 8.87844C11.2006 8.90903 11.1761 8.93627 11.1734 8.93961C11.17 8.94239 11.1523 8.96241 11.1328 8.98354C11.1134 9.00522 11.0779 9.04359 11.0529 9.06972C11.0279 9.09641 10.9818 9.14646 10.9507 9.18149C10.919 9.21652 10.874 9.266 10.8513 9.29103C10.828 9.31605 10.8002 9.34663 10.7896 9.35831C10.763 9.38778 10.6458 9.51344 10.598 9.56293C10.5147 9.64911 10.5009 9.66468 10.5009 9.67024C10.5009 9.67358 10.4986 9.67636 10.4959 9.67636C10.4931 9.67636 10.472 9.69527 10.4487 9.71806L10.407 9.75921L10.3876 9.73586C10.342 9.68081 9.91333 9.26767 9.82892 9.19761C9.80892 9.18149 9.77949 9.1548 9.76339 9.13923C9.74728 9.12366 9.6862 9.06472 9.62733 9.00856C9.50349 8.88956 9.5096 8.89513 9.19528 8.58374C8.87597 8.2668 8.75491 8.14892 8.68771 8.08887C8.62218 8.03048 8.20569 7.6268 8.07407 7.49391C7.93524 7.35379 7.79252 7.21811 7.6909 7.12859C7.64036 7.08466 7.57039 7.01961 7.53485 6.98458C7.49931 6.94955 7.43433 6.88727 7.39046 6.84612C7.34659 6.80498 7.2644 6.72546 7.2072 6.66986C7.15056 6.6137 7.0606 6.5264 7.00729 6.47524C6.90677 6.37794 6.69241 6.16831 6.51027 5.98704C6.40531 5.88306 6.32478 5.79521 6.32478 5.7852C6.32478 5.78242 6.33645 5.76796 6.35144 5.75295C6.36588 5.73794 6.39698 5.70457 6.42086 5.67844C6.44529 5.65231 6.48139 5.61338 6.50194 5.59225C6.52193 5.57057 6.55136 5.53832 6.56635 5.51997C6.58135 5.50162 6.5969 5.48494 6.60023 5.48272C6.60412 5.47994 6.63022 5.45269 6.65854 5.42155C6.68686 5.38986 6.7274 5.34537 6.74906 5.32202C6.86734 5.1958 6.93176 5.12685 6.96341 5.09182C6.98285 5.07013 7.03283 5.01676 7.07448 4.97227C7.31216 4.71872 7.37214 4.65422 7.43822 4.58027C7.49486 4.51632 7.56928 4.43792 7.6859 4.31893C7.73643 4.26666 7.79197 4.20939 7.80807 4.19104C7.91025 4.07761 7.94635 4.03813 7.99022 3.99253C8.01576 3.96529 8.04075 3.93804 8.04575 3.93137C8.05019 3.9247 8.06519 3.90801 8.07963 3.89411C8.09351 3.88021 8.13516 3.83573 8.17237 3.79625C8.36062 3.5933 8.54 3.42259 8.67938 3.31305C8.70215 3.2947 8.72603 3.27524 8.73214 3.26968C8.73825 3.26412 8.75435 3.25189 8.76824 3.24244C8.78212 3.23354 8.80489 3.21797 8.81877 3.20796C8.90984 3.14513 9.05978 3.06005 9.18196 3.00278C9.36633 2.91604 9.51404 2.86155 9.69841 2.81262C9.80892 2.78315 9.85224 2.77481 9.98718 2.75646C10.0422 2.74867 10.0949 2.74089 10.1038 2.73922C10.1821 2.72198 10.4753 2.71531 10.6008 2.72866ZM5.92661 6.31288C5.93328 6.31677 5.94327 6.32345 5.94827 6.32845C5.95327 6.33345 5.98048 6.35736 6.00825 6.38183C6.06878 6.43465 6.10376 6.46802 6.27092 6.6326C6.34033 6.701 6.39698 6.75382 6.39698 6.75382C6.39698 6.7516 6.41364 6.76661 6.43474 6.78607C6.45529 6.80553 6.48916 6.83778 6.51027 6.8578C6.53137 6.87726 6.56136 6.90562 6.57746 6.92119C6.65521 6.99625 6.90455 7.23813 6.9934 7.32487C7.10836 7.43719 7.13168 7.45943 7.21942 7.54395C7.40046 7.71744 7.55317 7.86534 7.63981 7.94986C7.82084 8.12724 7.84139 8.14725 7.84417 8.14725C7.84417 8.14725 7.88582 8.18562 7.93413 8.23233C7.98189 8.27959 8.04742 8.34242 8.07963 8.373C8.11184 8.40303 8.1757 8.46475 8.22124 8.50923C8.26733 8.55372 8.31675 8.60098 8.33119 8.61488C8.34618 8.62823 8.38561 8.66604 8.41949 8.69884C8.45336 8.73221 8.4828 8.7589 8.48557 8.7589C8.48779 8.7589 8.49446 8.76446 8.50001 8.77113C8.50556 8.77836 8.52278 8.79504 8.53777 8.80838C8.55332 8.82173 8.6183 8.88456 8.68271 8.94739C8.74713 9.01023 8.82821 9.08807 8.86264 9.12032C8.89707 9.15257 8.9576 9.20984 8.99703 9.24821C9.03701 9.28658 9.08977 9.33662 9.11421 9.35942C9.1864 9.42503 9.42908 9.67024 9.42908 9.67692C9.42908 9.68025 9.42297 9.68804 9.41464 9.69415C9.40686 9.70027 9.39131 9.71806 9.3791 9.73419C9.36744 9.74976 9.35133 9.76977 9.343 9.77923C9.33467 9.78812 9.32023 9.80536 9.31079 9.81759C9.3008 9.82927 9.28414 9.84818 9.27359 9.85985C9.26303 9.87097 9.24082 9.89544 9.22416 9.91323C9.20806 9.93103 9.15697 9.98496 9.11032 10.0328C9.06423 10.08 9.00925 10.1384 8.98759 10.1629C8.91373 10.2457 8.90429 10.2563 8.88208 10.2797C8.86986 10.2925 8.84487 10.3191 8.8271 10.3386C8.78878 10.3792 8.59886 10.5794 8.56554 10.6138C8.55332 10.6266 8.52722 10.6539 8.50723 10.675C8.47113 10.7139 8.33674 10.8568 8.27955 10.9174C8.26289 10.9352 8.24012 10.9591 8.22957 10.9708C8.21901 10.9825 8.18625 11.0181 8.15737 11.0498C8.1285 11.0815 8.08851 11.1254 8.06908 11.1465C8.04908 11.1682 7.99411 11.2272 7.9469 11.2772C7.89914 11.3278 7.84028 11.3901 7.81585 11.4162C7.79141 11.4418 7.75865 11.4768 7.74254 11.4935C7.72644 11.5102 7.71311 11.5257 7.712 11.528C7.70978 11.5346 7.59482 11.6559 7.55262 11.6964C7.50653 11.7409 7.49653 11.7504 7.44044 11.8004C7.4149 11.8232 7.38769 11.8482 7.37991 11.856C7.35548 11.8811 7.27829 11.9472 7.24719 11.97C7.23053 11.9817 7.20942 11.9989 7.19998 12.0073C7.18277 12.0228 7.03505 12.124 7.00784 12.1385C7.00007 12.1424 6.98896 12.1502 6.98285 12.1557C6.97674 12.1607 6.96119 12.1702 6.94786 12.1758C6.93454 12.1813 6.92232 12.1885 6.9201 12.1919C6.91566 12.1986 6.89511 12.2102 6.81348 12.2519C6.7846 12.2664 6.75794 12.2786 6.75405 12.2786C6.75072 12.2786 6.7274 12.2875 6.70296 12.2981C6.67909 12.3086 6.65465 12.3175 6.64965 12.3175C6.64465 12.3175 6.63355 12.3209 6.62577 12.3253C6.60856 12.3342 6.57802 12.3448 6.51915 12.362C6.49638 12.3687 6.46251 12.3787 6.44418 12.3848C6.37588 12.4054 6.30924 12.421 6.19761 12.4404C5.93716 12.4866 5.73669 12.4966 5.54177 12.4727C5.38406 12.4538 5.35351 12.4493 5.2691 12.4349C5.20024 12.4232 5.03364 12.3832 5.01532 12.3743C5.01032 12.3715 4.98089 12.3637 4.95034 12.3565C4.9198 12.3492 4.89259 12.342 4.88926 12.3392C4.88648 12.337 4.8676 12.3309 4.84761 12.3259C4.82762 12.3203 4.79763 12.3098 4.78097 12.3025C4.75098 12.2886 4.7221 12.2764 4.70045 12.2675C4.63658 12.2414 4.48387 12.1646 4.46665 12.1507C4.46054 12.1457 4.44499 12.1363 4.43111 12.129C4.41723 12.1218 4.40223 12.1124 4.39724 12.1085C4.39279 12.104 4.38557 12.1007 4.38169 12.1007C4.37835 12.1007 4.35559 12.0868 4.33115 12.0701C4.30727 12.0529 4.27284 12.0312 4.25507 12.0217C4.2373 12.0128 4.21786 12.0006 4.21176 11.9956C4.20565 11.99 4.19454 11.9828 4.18677 11.9795C4.169 11.9711 4.154 11.9611 4.14012 11.9489C4.13401 11.9439 4.12624 11.9394 4.12235 11.9394C4.11846 11.9394 4.1118 11.935 4.10791 11.9294C4.10402 11.9244 4.0857 11.9089 4.06737 11.895C4.04904 11.8811 4.03294 11.8688 4.03127 11.8672C4.02961 11.8655 4.02072 11.8583 4.01073 11.8516C3.9502 11.8093 3.71918 11.5825 3.65809 11.5057C3.63977 11.4829 3.61922 11.4579 3.61256 11.4501C3.60589 11.4423 3.5909 11.4212 3.57924 11.4034C3.56757 11.3851 3.55425 11.3667 3.5498 11.3623C3.54536 11.3578 3.53536 11.3434 3.52759 11.3311C3.51982 11.3183 3.51149 11.3072 3.50982 11.3056C3.50427 11.3017 3.46484 11.2399 3.44707 11.2077C3.41763 11.1549 3.40264 11.1304 3.39487 11.1215C3.39042 11.1171 3.38709 11.1104 3.38709 11.107C3.38709 11.1037 3.38376 11.0982 3.37932 11.0948C3.37487 11.0909 3.36988 11.0815 3.36765 11.0731C3.36599 11.0648 3.35821 11.0453 3.35044 11.0292C3.34322 11.0136 3.33711 10.9975 3.33711 10.9942C3.33711 10.9903 3.33378 10.9808 3.32989 10.973C3.3049 10.923 3.26048 10.7695 3.24881 10.6911C3.2366 10.6127 3.22549 10.4776 3.22382 10.402C3.22216 10.2902 3.22993 10.025 3.2366 9.9794C3.24715 9.906 3.25992 9.82927 3.2677 9.79313C3.27214 9.77311 3.28102 9.72918 3.28713 9.69582C3.29824 9.63299 3.32934 9.51344 3.36988 9.37332C3.38431 9.32383 3.43374 9.18149 3.44151 9.16703C3.44485 9.16147 3.45928 9.13033 3.47317 9.09808C3.49871 9.04081 3.51704 9.00355 3.57146 8.89791C3.61367 8.81672 3.61478 8.8145 3.64643 8.76779C3.66253 8.74388 3.67586 8.72164 3.67586 8.72164C3.67586 8.72164 3.68919 8.70051 3.7053 8.67716C3.72084 8.65436 3.73695 8.63045 3.74028 8.62433C3.74361 8.61877 3.75194 8.60821 3.75861 8.60098C3.76472 8.59431 3.77027 8.58541 3.77027 8.58208C3.77027 8.57874 3.77638 8.57151 3.78415 8.56651C3.79193 8.5615 3.79804 8.55427 3.79804 8.55038C3.79804 8.54705 3.80359 8.53926 3.8097 8.53314C3.81636 8.52758 3.83247 8.50812 3.84524 8.49033C3.85801 8.47309 3.88578 8.43917 3.90688 8.41638C3.92798 8.39302 3.94742 8.37022 3.94964 8.36633C3.95186 8.36188 3.95797 8.35855 3.96186 8.35855C3.9663 8.35855 3.96963 8.35632 3.96852 8.3541C3.96741 8.34854 4.08847 8.22065 4.25896 8.04717C4.31727 7.98767 4.41556 7.88647 4.4772 7.82197C4.63381 7.65905 4.74543 7.54395 4.85927 7.42718C4.91258 7.37214 4.97867 7.30319 5.00588 7.27427C5.11694 7.15417 5.16803 7.09968 5.19136 7.07799C5.23023 7.04185 5.23467 7.03684 5.31409 6.94955C5.35518 6.90395 5.40516 6.85001 5.4246 6.83C5.48735 6.76494 5.62118 6.62148 5.65561 6.58256C5.67394 6.56199 5.71281 6.51973 5.74224 6.48859C5.77112 6.45745 5.8211 6.40407 5.85331 6.3696C5.88496 6.33568 5.91273 6.30732 5.91273 6.30732C5.91273 6.30732 5.91995 6.30955 5.92661 6.31288Z" fill="#FCFCFD"/>
</svg>
