<svg viewBox="0 0 24 24" fill="none" xmlns="http://www.w3.org/2000/svg">
<path d="M5.71426 4.50049L9.42864 7.97015L8.2855 9.19375L6.55234 7.57625V16.158C6.55234 17.0799 7.30326 17.8342 8.22851 17.8342H12.838V19.5104H8.22851C6.37718 19.5104 4.87618 18.0102 4.87618 16.158V7.57625L3.14302 9.19375L1.99988 7.97015L5.71426 4.50049ZM15.7712 6.27722H11.1618V4.60106H15.7712C17.6226 4.60106 19.1236 6.10123 19.1236 7.95339V16.5352L20.8567 14.9177L21.9999 16.1413L18.2855 19.6109L14.5711 16.1413L15.7143 14.9177L17.4474 16.5352V7.95339C17.4474 7.0315 16.6965 6.27722 15.7712 6.27722Z" fill="#9191A4"/>
</svg>
