<svg width="16" height="16" viewBox="0 0 16 16" fill="none" xmlns="http://www.w3.org/2000/svg">
<path fill-rule="evenodd" clip-rule="evenodd" d="M13.2002 6.78732C12.9935 4.66732 11.7402 1.33398 7.86686 1.33398C3.99353 1.33398 2.74019 4.66732 2.53353 6.78732C1.80854 7.06247 1.33032 7.75854 1.33351 8.53398V9.46732C1.33351 10.4982 2.16926 11.334 3.20019 11.334C4.23113 11.334 5.06686 10.4982 5.06686 9.46732V8.53398C5.06351 7.77528 4.60286 7.09351 3.90019 6.80732C4.03353 5.58065 4.68686 2.66732 7.86686 2.66732C11.0469 2.66732 11.6935 5.58065 11.8269 6.80732C11.1256 7.09413 10.6673 7.77635 10.6669 8.53398V9.46732C10.6698 10.184 11.0813 10.8362 11.7269 11.1473C11.4469 11.674 10.7335 12.3873 8.98019 12.6006C8.62971 12.0684 7.95163 11.8586 7.36182 12.0999C6.77202 12.3412 6.43538 12.9661 6.55838 13.5913C6.68138 14.2166 7.22962 14.6673 7.86686 14.6673C8.37042 14.6645 8.82945 14.3783 9.05353 13.9273C11.9135 13.6006 12.8269 12.1273 13.1135 11.2606C13.8891 11.0094 14.4106 10.2825 14.4002 9.46732V8.53398C14.4034 7.75854 13.9252 7.06247 13.2002 6.78732ZM3.73353 9.46732C3.73353 9.76187 3.49475 10.0007 3.20019 10.0007C2.90564 10.0007 2.66686 9.76187 2.66686 9.46732V8.53398C2.66686 8.34344 2.76851 8.16737 2.93353 8.0721C3.09854 7.97683 3.30185 7.97683 3.46686 8.0721C3.63188 8.16737 3.73353 8.34344 3.73353 8.53398V9.46732ZM12.0002 8.53398C12.0002 8.23943 12.239 8.00065 12.5335 8.00065C12.8281 8.00065 13.0669 8.23943 13.0669 8.53398V9.46732C13.0669 9.76187 12.8281 10.0007 12.5335 10.0007C12.239 10.0007 12.0002 9.76187 12.0002 9.46732V8.53398Z" fill="#9191A4"/>
</svg>
