<svg viewBox="0 0 12 14" fill="none" xmlns="http://www.w3.org/2000/svg">
<path d="M10.2301 3.28024C10.1423 3.23489 10.0569 3.18518 9.97414 3.13129C9.73345 2.97217 9.51278 2.78468 9.31686 2.57285C8.82668 2.01199 8.64361 1.44299 8.57617 1.04462H8.57888C8.52255 0.713948 8.54584 0.5 8.54936 0.5H6.31672V9.13319C6.31672 9.2491 6.31672 9.36366 6.31185 9.47686C6.31185 9.49095 6.31049 9.50395 6.30968 9.51911C6.30968 9.52534 6.30968 9.53184 6.30833 9.53834C6.30833 9.53996 6.30833 9.54159 6.30833 9.54322C6.28479 9.85297 6.1855 10.1522 6.01917 10.4146C5.85285 10.677 5.6246 10.8944 5.3545 11.0479C5.07299 11.208 4.7546 11.292 4.43073 11.2916C3.39051 11.2916 2.54745 10.4434 2.54745 9.39589C2.54745 8.34836 3.39051 7.50015 4.43073 7.50015C4.62764 7.49997 4.82334 7.53095 5.01056 7.59196L5.01327 5.3187C4.44491 5.24528 3.86751 5.29045 3.31749 5.45136C2.76747 5.61226 2.25676 5.88541 1.81759 6.25357C1.43277 6.58792 1.10926 6.98687 0.861597 7.43245C0.767352 7.59494 0.411766 8.24788 0.368705 9.3076C0.341623 9.90909 0.52226 10.5322 0.608381 10.7898V10.7952C0.662545 10.9469 0.87243 11.4644 1.21448 11.9007C1.49029 12.2507 1.81615 12.5581 2.18157 12.8131V12.8077L2.18699 12.8131C3.26783 13.5476 4.46621 13.4994 4.46621 13.4994C4.67366 13.491 5.36858 13.4994 6.15775 13.1253C7.03304 12.7107 7.53135 12.093 7.53135 12.093C7.84969 11.7239 8.10283 11.3032 8.27989 10.8491C8.48193 10.318 8.54936 9.68106 8.54936 9.42649V4.84639C8.57644 4.86264 8.93717 5.10123 8.93717 5.10123C8.93717 5.10123 9.45688 5.43434 10.2677 5.65126C10.8494 5.80563 11.6332 5.83813 11.6332 5.83813V3.62174C11.3586 3.65153 10.801 3.56487 10.2301 3.28024Z" fill="#FCFCFD"/>
</svg>
