<svg width="16" height="17" viewBox="0 0 16 17" fill="none" xmlns="http://www.w3.org/2000/svg">
<path d="M12.2301 4.28024C12.1423 4.23489 12.0569 4.18518 11.9741 4.13129C11.7335 3.97217 11.5128 3.78468 11.3169 3.57285C10.8267 3.01199 10.6436 2.44299 10.5762 2.04462H10.5789C10.5226 1.71395 10.5458 1.5 10.5494 1.5H8.31673V10.1332C8.31673 10.2491 8.31673 10.3637 8.31185 10.4769C8.31185 10.4909 8.3105 10.5039 8.30969 10.5191C8.30969 10.5253 8.30969 10.5318 8.30833 10.5383C8.30833 10.54 8.30833 10.5416 8.30833 10.5432C8.2848 10.853 8.1855 11.1522 8.01918 11.4146C7.85286 11.677 7.62461 11.8944 7.35451 12.0479C7.073 12.208 6.75461 12.292 6.43074 12.2916C5.39052 12.2916 4.54746 11.4434 4.54746 10.3959C4.54746 9.34836 5.39052 8.50015 6.43074 8.50015C6.62765 8.49997 6.82334 8.53095 7.01057 8.59196L7.01327 6.3187C6.44492 6.24528 5.86752 6.29045 5.3175 6.45136C4.76748 6.61226 4.25677 6.88541 3.8176 7.25357C3.43278 7.58792 3.10926 7.98687 2.86161 8.43245C2.76736 8.59494 2.41177 9.24788 2.36871 10.3076C2.34163 10.9091 2.52227 11.5322 2.60839 11.7898V11.7952C2.66255 11.9469 2.87244 12.4644 3.21448 12.9007C3.4903 13.2507 3.81616 13.5581 4.18158 13.8131V13.8077L4.187 13.8131C5.26784 14.5476 6.46622 14.4994 6.46622 14.4994C6.67367 14.491 7.36859 14.4994 8.15776 14.1253C9.03305 13.7107 9.53136 13.093 9.53136 13.093C9.8497 12.7239 10.1028 12.3032 10.2799 11.8491C10.4819 11.318 10.5494 10.6811 10.5494 10.4265V5.84639C10.5764 5.86264 10.9372 6.10123 10.9372 6.10123C10.9372 6.10123 11.4569 6.43434 12.2677 6.65126C12.8494 6.80563 13.6332 6.83813 13.6332 6.83813V4.62174C13.3586 4.65153 12.801 4.56487 12.2301 4.28024Z" fill="#FCFCFD"/>
<circle cx="10" cy="12" r="3.6" fill="#DF74FF" stroke="#2B2B2B" stroke-width="1.2"/>
<path d="M10.0031 10.5C10.8675 10.5 11.6125 11.0119 11.9513 11.749C12.0244 11.9082 12.0244 12.0918 11.9513 12.251C11.6125 12.9881 10.8675 13.5 10.0031 13.5C9.13867 13.5 8.39362 12.9881 8.05482 12.251C7.98173 12.0918 7.98173 11.9082 8.05482 11.749C8.39362 11.0119 9.13867 10.5 10.0031 10.5ZM10.0031 11.6807C9.64802 11.6807 9.36048 11.8962 9.36048 12.1621C9.36077 12.4278 9.6482 12.6436 10.0031 12.6436C10.3578 12.6435 10.6453 12.4278 10.6456 12.1621C10.6456 11.8963 10.358 11.6807 10.0031 11.6807Z" fill="#2B2B2B"/>
</svg>
