<svg width="44" height="50" viewBox="0 0 44 50" fill="none" xmlns="http://www.w3.org/2000/svg">
<path d="M38.1452 10.6932C37.8103 10.5188 37.4843 10.3276 37.1685 10.1203C36.2499 9.50833 35.4077 8.78722 34.66 7.97252C32.7893 5.81534 32.0906 3.6269 31.8333 2.09469H31.8436C31.6286 0.822876 31.7175 0 31.7309 0H23.2103V33.2046C23.2103 33.6504 23.2103 34.091 23.1917 34.5264C23.1917 34.5806 23.1866 34.6306 23.1835 34.6889C23.1835 34.7129 23.1835 34.7378 23.1783 34.7628C23.1783 34.7691 23.1783 34.7754 23.1783 34.7816C23.0885 35.973 22.7095 37.1239 22.0748 38.133C21.44 39.1421 20.569 39.9786 19.5381 40.5688C18.4638 41.1848 17.2487 41.5079 16.0127 41.5063C12.0428 41.5063 8.82537 38.2439 8.82537 34.215C8.82537 30.186 12.0428 26.9237 16.0127 26.9237C16.7642 26.923 17.511 27.0421 18.2255 27.2768L18.2359 18.5334C16.0668 18.2511 13.8632 18.4248 11.7641 19.0437C9.66505 19.6625 7.716 20.7131 6.03995 22.1291C4.57134 23.4151 3.33668 24.9495 2.39152 26.6633C2.03184 27.2882 0.674786 29.7996 0.510451 33.8754C0.407096 36.1888 1.09647 38.5856 1.42514 39.5762V39.597C1.63185 40.1803 2.43286 42.1708 3.73823 43.8489C4.79084 45.1949 6.03446 46.3773 7.42905 47.3581V47.3372L7.44972 47.3581C11.5746 50.1829 16.1481 49.9975 16.1481 49.9975C16.9398 49.9652 19.5919 49.9975 22.6037 48.559C25.9441 46.9643 27.8458 44.5884 27.8458 44.5884C29.0608 43.1688 30.0268 41.5509 30.7026 39.8043C31.4736 37.7617 31.7309 35.3118 31.7309 34.3327V16.7169C31.8343 16.7794 33.211 17.697 33.211 17.697C33.211 17.697 35.1944 18.9782 38.2888 19.8126C40.5089 20.4063 43.5 20.5313 43.5 20.5313V12.0067C42.452 12.1213 40.3239 11.788 38.1452 10.6932Z" fill="#9191A4"/>
</svg>
