<svg width="16" height="16" viewBox="0 0 16 16" fill="none" xmlns="http://www.w3.org/2000/svg">
<g clip-path="url(#clip0_4_65)">
<path d="M11.7797 5.61352V2.90649H5.47791V12.8997H8.69446V5.61352H11.7797Z" fill="white"/>
<path d="M1.17802 2.90637H4.26584V5.61277H1.17812L1.17802 2.90637Z" fill="white"/>
<path d="M15.1549 10.2258H12.0621V12.9061H15.1549V10.2258Z" fill="white"/>
<circle cx="12" cy="12" r="3.6" fill="#DF74FF" stroke="#2B2B2B" stroke-width="1.2"/>
<path d="M12.0031 10.5C12.8675 10.5 13.6125 11.0119 13.9513 11.749C14.0244 11.9082 14.0244 12.0918 13.9513 12.251C13.6125 12.9881 12.8675 13.5 12.0031 13.5C11.1387 13.5 10.3936 12.9881 10.0548 12.251C9.98173 12.0918 9.98173 11.9082 10.0548 11.749C10.3936 11.0119 11.1387 10.5 12.0031 10.5ZM12.0031 11.6807C11.648 11.6807 11.3605 11.8962 11.3605 12.1621C11.3608 12.4278 11.6482 12.6436 12.0031 12.6436C12.3578 12.6435 12.6453 12.4278 12.6456 12.1621C12.6456 11.8963 12.358 11.6807 12.0031 11.6807Z" fill="#2B2B2B"/>
</g>
<defs>
<clipPath id="clip0_4_65">
<rect width="16" height="16" fill="white"/>
</clipPath>
</defs>
</svg>
