<svg viewBox="0 0 16 16" fill="none" xmlns="http://www.w3.org/2000/svg">
<path d="M5.17544 13.9997C5.46545 13.9997 5.66265 13.8489 6.01063 13.5357L8.0174 11.7552H11.7351C13.4635 11.7552 14.3914 10.7982 14.3914 9.0988V4.65609C14.3914 2.95671 13.4635 1.99973 11.7351 1.99973H4.26488C2.5423 1.99973 1.60852 2.9509 1.60852 4.65609V9.0988C1.60852 10.804 2.5423 11.7552 4.26488 11.7552H4.54325V13.2631C4.54325 13.7097 4.77525 13.9997 5.17544 13.9997ZM5.41323 12.9383V11.2564C5.41323 10.9432 5.29725 10.8214 4.97824 10.8214H4.27067C3.0933 10.8214 2.5423 10.224 2.5423 9.09301V4.65609C2.5423 3.52511 3.0933 2.9335 4.27067 2.9335H11.7351C12.9067 2.9335 13.4577 3.52511 13.4577 4.65609V9.09301C13.4577 10.224 12.9067 10.8214 11.7351 10.8214H7.97682C7.65781 10.8214 7.48961 10.8678 7.2692 11.094L5.41323 12.9383Z" fill="#FCFCFD"/>
<path d="M8.64267 6.6174L10.5043 4.5H10.0633L8.44617 6.33813L7.1555 4.5H5.6665L7.61867 7.27984L5.6665 9.49998H6.1075L7.81417 7.55844L9.1775 9.49998H10.6665M6.26667 4.82539H6.94417L10.063 9.19058H9.38534" fill="#FCFCFD"/>
<path d="M8.64267 6.6174L10.5043 4.5H10.0633L8.44617 6.33813L7.1555 4.5H5.6665L7.61867 7.27984L5.6665 9.49998H6.1075L7.81417 7.55844L9.1775 9.49998H10.6665L8.64267 6.6174ZM6.26667 4.82539H6.94417L10.063 9.19058H9.38534L6.26667 4.82539Z" stroke="white" stroke-width="0.166666"/>
</svg>
