<svg xmlns="http://www.w3.org/2000/svg" width="16" height="16" viewBox="0 0 16 16" fill="none">
    <path
        d="M7.6875 13C7.6875 13 6.875 13 6.875 12.1667C6.875 11.3333 7.6875 8.83333 10.9375 8.83333C14.1875 8.83333 15 11.3333 15 12.1667C15 13 14.1875 13 14.1875 13H7.6875ZM10.9375 8C11.584 8 12.204 7.73661 12.6611 7.26777C13.1182 6.79893 13.375 6.16304 13.375 5.5C13.375 4.83696 13.1182 4.20107 12.6611 3.73223C12.204 3.26339 11.584 3 10.9375 3C10.291 3 9.67105 3.26339 9.21393 3.73223C8.75681 4.20107 8.5 4.83696 8.5 5.5C8.5 6.16304 8.75681 6.79893 9.21393 7.26777C9.67105 7.73661 10.291 8 10.9375 8ZM6.238 13C6.11761 12.7398 6.05754 12.4546 6.0625 12.1667C6.0625 11.0375 6.615 9.875 7.6355 9.06667C7.12621 8.90536 6.59548 8.82664 6.0625 8.83333C2.8125 8.83333 2 11.3333 2 12.1667C2 13 2.8125 13 2.8125 13H6.238ZM5.65625 8C6.19497 8 6.71163 7.78051 7.09256 7.38981C7.47349 6.9991 7.6875 6.4692 7.6875 5.91667C7.6875 5.36413 7.47349 4.83423 7.09256 4.44353C6.71163 4.05283 6.19497 3.83333 5.65625 3.83333C5.11753 3.83333 4.60087 4.05283 4.21994 4.44353C3.83901 4.83423 3.625 5.36413 3.625 5.91667C3.625 6.4692 3.83901 6.9991 4.21994 7.38981C4.60087 7.78051 5.11753 8 5.65625 8Z"
        fill="#FCFCFD" />
</svg>