<svg viewBox="0 0 16 16" fill="none" xmlns="http://www.w3.org/2000/svg">
<g clip-path="url(#clip0_4_14)">
<path d="M9.04807 7.15731L13.1437 2.49904H12.1735L8.61577 6.54292L5.77631 2.49904H2.50051L6.79527 8.61469L2.50051 13.499H3.47071L7.22537 9.22761L10.2247 13.499H13.5005M3.82087 3.21491H5.31137L12.1728 12.8183H10.6819" fill="#FCFCFD"/>
<circle cx="12" cy="12" r="3.6" fill="#DF74FF" stroke="#2B2B2B" stroke-width="1.2"/>
<path d="M12.0031 10.5C12.8675 10.5 13.6125 11.0119 13.9513 11.749C14.0244 11.9082 14.0244 12.0918 13.9513 12.251C13.6125 12.9881 12.8675 13.5 12.0031 13.5C11.1387 13.5 10.3936 12.9881 10.0548 12.251C9.98173 12.0918 9.98173 11.9082 10.0548 11.749C10.3936 11.0119 11.1387 10.5 12.0031 10.5ZM11.7872 11.3574C11.3133 11.3574 10.929 11.6451 10.9288 12C10.9288 12.355 11.3132 12.6435 11.7872 12.6436C12.2613 12.6436 12.6456 12.355 12.6456 12C12.6454 11.6451 12.2612 11.3574 11.7872 11.3574Z" fill="#2B2B2B"/>
</g>
<defs>
<clipPath id="clip0_4_14">
<rect width="16" height="16" fill="white"/>
</clipPath>
</defs>
</svg>
