<svg viewBox="0 0 17 16" fill="none" xmlns="http://www.w3.org/2000/svg">
<g clip-path="url(#clip0_0_4724)">
<path d="M9.04793 7.15731L13.1436 2.49904H12.1734L8.61563 6.54292L5.77617 2.49904H2.50037L6.79513 8.61469L2.50037 13.499H3.47057L7.22523 9.22761L10.2246 13.499H13.5004M3.82073 3.21491H5.31123L12.1727 12.8183H10.6818" fill="#FCFCFD"/>
<circle cx="12.3334" cy="12" r="5" fill="#2B2B2B"/>
<circle cx="12.3334" cy="12" r="3.75" fill="#DF74FF"/>
<path d="M14.2084 13.875L13.2712 12.9378M13.2712 12.9378C13.5694 12.6397 13.7538 12.2277 13.7538 11.7727C13.7538 10.8627 13.0161 10.125 12.1061 10.125C11.1961 10.125 10.4584 10.8627 10.4584 11.7727C10.4584 12.6827 11.1961 13.4205 12.1061 13.4205C12.5611 13.4205 12.973 13.236 13.2712 12.9378Z" stroke="#2B2B2B" stroke-width="0.7" stroke-linecap="round" stroke-linejoin="round"/>
</g>
<defs>
<clipPath id="clip0_0_4724">
<rect width="16" height="16" fill="white" transform="translate(0.333374)"/>
</clipPath>
</defs>
</svg>
