<svg viewBox="0 0 16 16" fill="none" xmlns="http://www.w3.org/2000/svg">
<path fill-rule="evenodd" clip-rule="evenodd" d="M3.12075 7.45503H5.16866C5.22277 6.10617 5.47607 4.87504 5.87319 3.93187C5.93955 3.77426 6.01087 3.62245 6.0872 3.47795C4.48596 4.156 3.31922 5.6596 3.12075 7.45503ZM7.99988 2.00049C4.68617 2.00049 1.99988 4.68678 1.99988 8.00049C1.99988 11.3142 4.68617 14.0005 7.99988 14.0005C11.3136 14.0005 13.9999 11.3142 13.9999 8.00049C13.9999 4.68678 11.3136 2.00049 7.99988 2.00049ZM7.99988 3.0914C7.87071 3.0914 7.69969 3.15126 7.49249 3.35941C7.28321 3.56964 7.06965 3.90148 6.87861 4.35521C6.54593 5.14532 6.3141 6.22738 6.26051 7.45503H9.73924C9.68566 6.22738 9.45382 5.14532 9.12115 4.35521C8.9301 3.90148 8.71655 3.56964 8.50727 3.35941C8.30006 3.15126 8.12905 3.0914 7.99988 3.0914ZM10.8311 7.45503C10.777 6.10617 10.5237 4.87504 10.1266 3.93187C10.0602 3.77426 9.98888 3.62245 9.91255 3.47795C11.5138 4.15599 12.6805 5.6596 12.879 7.45503H10.8311ZM9.73924 8.54594H6.26051C6.3141 9.7736 6.54593 10.8557 6.87861 11.6458C7.06965 12.0995 7.28321 12.4313 7.49249 12.6416C7.69969 12.8497 7.87071 12.9096 7.99988 12.9096C8.12905 12.9096 8.30006 12.8497 8.50727 12.6416C8.71655 12.4313 8.9301 12.0995 9.12115 11.6458C9.45382 10.8557 9.68566 9.7736 9.73924 8.54594ZM9.91255 12.523C9.98888 12.3785 10.0602 12.2267 10.1266 12.0691C10.5237 11.1259 10.777 9.89481 10.8311 8.54594H12.879C12.6805 10.3414 11.5138 11.845 9.91255 12.523ZM6.08721 12.523C6.01088 12.3785 5.93955 12.2267 5.87319 12.0691C5.47607 11.1259 5.22277 9.89481 5.16866 8.54594H3.12075C3.31922 10.3414 4.48596 11.845 6.08721 12.523Z" fill="#FCFCFD"/>
</svg>
