<svg width="16" height="16" viewBox="0 0 16 16" fill="none" xmlns="http://www.w3.org/2000/svg">
<path d="M1.3335 5.33268C1.3335 4.62544 1.61445 3.94716 2.11454 3.44706C2.61464 2.94697 3.29292 2.66602 4.00016 2.66602H12.0002C12.7074 2.66602 13.3857 2.94697 13.8858 3.44706C14.3859 3.94716 14.6668 4.62544 14.6668 5.33268V10.666C14.6668 11.3733 14.3859 12.0515 13.8858 12.5516C13.3857 13.0517 12.7074 13.3327 12.0002 13.3327H4.00016C3.29292 13.3327 2.61464 13.0517 2.11454 12.5516C1.61445 12.0515 1.3335 11.3733 1.3335 10.666V5.33268Z" stroke="#FCFCFD" stroke-linecap="round" stroke-linejoin="round"/>
<path d="M6.66683 5.99935L10.0002 7.99935L6.66683 9.99935V5.99935Z" stroke="#FCFCFD" stroke-linecap="round" stroke-linejoin="round"/>
<circle cx="13" cy="12" r="3" fill="#DF74FF"/>
<path d="M13.0029 10.5C13.8673 10.5 14.6124 11.0119 14.9512 11.749C15.0243 11.9082 15.0243 12.0918 14.9512 12.251C14.6124 12.9881 13.8673 13.5 13.0029 13.5C12.1385 13.5 11.3935 12.9881 11.0547 12.251C10.9816 12.0918 10.9816 11.9082 11.0547 11.749C11.3935 11.0119 12.1385 10.5 13.0029 10.5ZM13.0029 11.6807C12.6479 11.6807 12.3594 11.8962 12.3594 12.1621C12.3597 12.4278 12.6481 12.6436 13.0029 12.6436C13.3577 12.6435 13.6452 12.4278 13.6455 12.1621C13.6455 11.8963 13.3579 11.6807 13.0029 11.6807Z" fill="#2B2B2B"/>
</svg>
