<svg width="16" height="12" viewBox="0 0 16 12" fill="none" xmlns="http://www.w3.org/2000/svg">
<path d="M1.3335 3.33268C1.3335 2.62544 1.61445 1.94716 2.11454 1.44706C2.61464 0.946967 3.29292 0.666016 4.00016 0.666016H12.0002C12.7074 0.666016 13.3857 0.946967 13.8858 1.44706C14.3859 1.94716 14.6668 2.62544 14.6668 3.33268V8.66602C14.6668 9.37326 14.3859 10.0515 13.8858 10.5516C13.3857 11.0517 12.7074 11.3327 12.0002 11.3327H4.00016C3.29292 11.3327 2.61464 11.0517 2.11454 10.5516C1.61445 10.0515 1.3335 9.37326 1.3335 8.66602V3.33268Z" stroke="#9191A4" stroke-linecap="round" stroke-linejoin="round"/>
<path d="M6.66683 3.99935L10.0002 5.99935L6.66683 7.99935V3.99935Z" stroke="#9191A4" stroke-linecap="round" stroke-linejoin="round"/>
</svg>
