<svg viewBox="0 0 16 16" fill="none" xmlns="http://www.w3.org/2000/svg">
<path d="M1.3335 5.33268C1.3335 4.62544 1.61445 3.94716 2.11454 3.44706C2.61464 2.94697 3.29292 2.66602 4.00016 2.66602H12.0002C12.7074 2.66602 13.3857 2.94697 13.8858 3.44706C14.3859 3.94716 14.6668 4.62544 14.6668 5.33268V10.666C14.6668 11.3733 14.3859 12.0515 13.8858 12.5516C13.3857 13.0517 12.7074 13.3327 12.0002 13.3327H4.00016C3.29292 13.3327 2.61464 13.0517 2.11454 12.5516C1.61445 12.0515 1.3335 11.3733 1.3335 10.666V5.33268Z" stroke="#FCFCFD" stroke-linecap="round" stroke-linejoin="round"/>
<path d="M6.66683 5.99935L10.0002 7.99935L6.66683 9.99935V5.99935Z" stroke="#FCFCFD" stroke-linecap="round" stroke-linejoin="round"/>
</svg>
