<svg width="16" height="16" viewBox="0 0 16 16" fill="none" xmlns="http://www.w3.org/2000/svg">
<path fill-rule="evenodd" clip-rule="evenodd" d="M14.6663 8.0026C14.6663 11.6845 11.6816 14.6693 7.99967 14.6693C4.31778 14.6693 1.33301 11.6845 1.33301 8.0026C1.33301 4.32071 4.31778 1.33594 7.99967 1.33594C11.6816 1.33594 14.6663 4.32071 14.6663 8.0026ZM7.21266 6.06319C7.63893 6.5214 7.8537 7.18495 7.8537 8.00965C7.8537 8.83044 7.64245 9.4903 7.2231 9.94589C6.80219 10.4032 6.18896 10.6359 5.4251 10.6359H4.46863C4.03655 10.6359 3.69967 10.2665 3.69967 9.82784V6.17737C3.69967 5.73869 4.03655 5.36927 4.46863 5.36927H5.3853C6.16202 5.36927 6.78503 5.60353 7.21266 6.06319ZM4.80219 9.58758H5.3853C5.85759 9.58758 6.18473 9.45472 6.39718 9.20861C6.61299 8.95861 6.73129 8.56814 6.73129 8.00965C6.73129 7.44005 6.61276 7.04623 6.39704 6.79556C6.18484 6.54898 5.85804 6.41763 5.3853 6.41763H4.80219V9.58758ZM9.10698 10.6359C8.6749 10.6359 8.33802 10.2665 8.33802 9.82784V6.17737C8.33802 5.73869 8.6749 5.36927 9.10698 5.36927H10.1497C10.7688 5.36927 11.2577 5.48163 11.5942 5.73604C11.938 5.99608 12.1007 6.38731 12.1007 6.88993C12.1007 7.20843 12.008 7.47998 11.826 7.68241C11.7481 7.76905 11.656 7.8407 11.5517 7.89731C11.7159 7.96593 11.8577 8.06118 11.973 8.18297C12.1896 8.41199 12.2997 8.72163 12.2997 9.08711C12.2997 9.57711 12.133 9.97245 11.7999 10.2418C11.4714 10.5075 10.9992 10.6359 10.415 10.6359H9.10698ZM9.44054 9.60166H10.4283C10.6869 9.60166 10.8742 9.54507 10.9941 9.45191C11.1087 9.36279 11.1773 9.22821 11.1773 9.03077C11.1773 8.83301 11.1084 8.69414 10.9926 8.60141C10.8724 8.50522 10.6854 8.4458 10.4283 8.4458H9.44054V9.60166ZM9.44054 7.46786H10.1961C10.4705 7.46786 10.668 7.41378 10.7933 7.32511C10.9116 7.24134 10.9782 7.11813 10.9782 6.93922C10.9782 6.74497 10.913 6.6198 10.7995 6.5375C10.6781 6.44951 10.4823 6.3965 10.1961 6.3965H9.44054V7.46786Z" fill="#DF74FF"/>
</svg>
