<svg width="16" height="16" viewBox="0 0 16 16" fill="none" xmlns="http://www.w3.org/2000/svg">
<path d="M4.17559 10.9557C3.35952 8.81319 5.47307 7.66436 6.63185 7.35776C6.56296 7.68405 6.25468 8.15397 5.9551 8.54537C5.78672 8.76537 5.93326 9.0933 6.20778 9.06759C8.00003 8.89973 8.89335 7.8957 9.12838 7.35776C10.442 6.53152 12.9915 6.34778 14.7014 6.36338C15.1251 6.36724 15.3693 5.93055 15.0624 5.63611C14.5657 5.15963 13.9525 4.75212 13.6114 4.55784C12.9027 2.31789 8.99416 2.40716 7.12848 2.73179C6.24262 1.95165 4.86691 1.92021 3.8533 2.07212C3.55315 2.11711 3.49716 2.57204 3.70324 2.79651C4.17946 3.31521 4.44005 4.02103 4.52457 4.40904C1.66833 6.33518 1.70591 9.7474 2.08173 11.2127C1.11395 11.8991 0.832907 13.0539 0.800201 13.792C0.792741 13.9604 0.982284 14.0524 1.12729 13.9684C1.79031 13.5844 2.85898 13.1516 3.38368 12.9576C3.90256 12.9396 4.73696 13.3898 5.26747 13.7308C5.39924 13.8156 5.57776 13.741 5.59706 13.5847C5.8311 11.6895 4.76846 11.0411 4.17559 10.9557Z" fill="#66B0FF"/>
</svg>
