<svg width="16" height="16" viewBox="0 0 16 16" fill="none" xmlns="http://www.w3.org/2000/svg">
<path fill-rule="evenodd" clip-rule="evenodd" d="M8.00035 14.6693C11.6822 14.6693 14.667 11.6845 14.667 8.0026C14.667 4.32071 11.6822 1.33594 8.00035 1.33594C4.31845 1.33594 1.33368 4.32071 1.33368 8.0026C1.33368 11.6845 4.31845 14.6693 8.00035 14.6693ZM11.1679 9.15035L11.1679 9.14811C11.1679 8.99358 11.1063 8.87084 10.946 8.75601C10.7769 8.63491 10.5039 8.528 10.0948 8.42387C9.62389 8.3101 9.20156 8.14505 8.89455 7.89982C8.58227 7.65036 8.38981 7.31748 8.38981 6.88524C8.38981 6.41928 8.57827 6.03499 8.90861 5.77005C9.23593 5.50753 9.69242 5.36979 10.2209 5.36979C11.1461 5.36979 11.8341 5.84818 12.1067 6.59341C12.2311 6.93379 11.95 7.22956 11.6362 7.24688C11.3324 7.26366 11.108 7.03177 10.9917 6.81265C10.8505 6.54657 10.5788 6.38172 10.2074 6.38172C9.98726 6.38172 9.81007 6.43901 9.69298 6.52869C9.57933 6.61573 9.51688 6.7364 9.52204 6.88746L9.52213 6.89015C9.52448 7.05915 9.61907 7.17745 9.80116 7.27774C9.98875 7.38105 10.2411 7.44866 10.5092 7.51961L10.5423 7.52837C11.0378 7.64927 11.473 7.82815 11.787 8.08244C12.1052 8.34023 12.3002 8.67759 12.3002 9.10069C12.3002 9.59927 12.0769 9.98871 11.7245 10.2495C11.3758 10.5075 10.9064 10.6365 10.4088 10.6365C9.43156 10.6365 8.66449 10.1598 8.38995 9.35819C8.27051 9.00941 8.56155 8.71557 8.87894 8.69804C9.17917 8.68147 9.40879 8.89896 9.52762 9.12333C9.68794 9.42604 9.98739 9.61776 10.4423 9.61776C10.6862 9.61776 10.8731 9.56931 10.994 9.4886C11.108 9.41253 11.1705 9.30404 11.1679 9.15035ZM10.4089 10.5026C11.2296 10.5026 11.9408 10.1357 12.1223 9.45392C11.941 10.1361 11.2297 10.5031 10.4088 10.5031C9.47545 10.5031 8.76825 10.0513 8.51609 9.31499C8.49315 9.24801 8.49169 9.18224 8.50694 9.12181C8.49183 9.18209 8.49335 9.24768 8.51622 9.31447C8.76838 10.0508 9.47558 10.5026 10.4089 10.5026ZM9.40556 6.72857C9.48065 6.43089 9.79519 6.24838 10.2074 6.24838C10.6222 6.24838 10.9424 6.43543 11.1095 6.75015C11.2164 6.95167 11.4028 7.12623 11.6289 7.11375C11.8068 7.10393 11.9551 6.98512 11.993 6.83191C11.9549 6.98486 11.8067 7.10342 11.629 7.11323C11.4029 7.12571 11.2166 6.95114 11.1096 6.74963C10.9426 6.4349 10.6223 6.24786 10.2076 6.24786C9.79508 6.24786 9.48042 6.43058 9.40556 6.72857ZM8.56447 6.53804C8.53727 6.64666 8.52314 6.76259 8.52314 6.88524C8.52314 7.6576 9.20089 8.07088 10.1269 8.29445C10.9523 8.50448 11.3012 8.74161 11.3012 9.14811C11.3021 9.20188 11.2966 9.25209 11.2851 9.29874C11.2967 9.25195 11.3023 9.20156 11.3014 9.14759C11.3014 8.74109 10.9524 8.50396 10.1271 8.29393C9.20102 8.07035 8.52327 7.65707 8.52327 6.88472C8.52327 6.76227 8.53735 6.64651 8.56447 6.53804ZM7.24883 6.14528C7.68104 6.58713 7.89917 7.22781 7.89917 8.02374C7.89917 8.81589 7.68462 9.45301 7.25939 9.89238C6.83353 10.3324 6.21444 10.5555 5.44404 10.5555H4.31286C3.9733 10.5555 3.70022 10.2779 3.70022 9.93818V6.09575C3.70022 5.75606 3.9733 5.47849 4.31286 5.47849H5.40378C6.18722 5.47849 6.81619 5.70299 7.24883 6.14528ZM4.81239 9.53675H5.40378C5.88382 9.53675 6.21597 9.40803 6.43072 9.17143C6.64778 8.93229 6.76686 8.5591 6.76686 8.02374C6.76686 7.47766 6.64753 7.10127 6.43058 6.86151C6.21608 6.62445 5.88426 6.49719 5.40378 6.49719H4.81239V9.53675ZM5.44417 10.4216C6.64427 10.4216 7.41759 9.86319 7.67291 8.84201C7.41772 9.86352 6.64435 10.4221 5.44404 10.4221H4.31286C4.04814 10.4221 3.83355 10.2055 3.83355 9.93818V6.09575C3.83355 6.05464 3.83863 6.01472 3.84819 5.9766C3.83871 6.01456 3.83368 6.0543 3.83368 6.09523V9.93766C3.83368 10.2049 4.04827 10.4216 4.31299 10.4216H5.44417ZM6.90033 8.02322C6.90033 8.26383 6.87707 8.47774 6.83029 8.66517C6.87699 8.47787 6.9002 8.26413 6.9002 8.02374C6.9002 6.89908 6.41034 6.36385 5.40378 6.36385H4.67919V6.36333H5.40391C6.41047 6.36333 6.90033 6.89856 6.90033 8.02322Z" fill="#F65B93"/>
</svg>
