<svg width="16" height="16" viewBox="0 0 16 16" fill="none" xmlns="http://www.w3.org/2000/svg">
<path fill-rule="evenodd" clip-rule="evenodd" d="M15.0848 8.67098C15.2433 8.32566 15.239 7.92624 15.0672 7.58744C14.3314 6.13645 12.6214 3.99182 10.0391 3.99182C9.59684 3.56838 8.31302 2.76628 6.45113 2.60135C6.12534 2.57249 5.89696 2.90785 5.9905 3.22424C6.14787 3.75649 6.29361 4.43698 6.25275 4.97332C5.63021 5.3177 4.25721 6.21826 3.74554 7.06544C3.42099 6.58539 2.52064 5.72095 1.29633 5.67178C1.00815 5.66021 0.785018 5.90379 0.800773 6.19453C0.83438 6.81466 1.00555 7.66259 1.51975 8.15024C1.32325 8.41238 0.965062 9.09313 0.844356 9.99385C0.799314 10.33 1.0746 10.6076 1.40659 10.5557C2.13977 10.441 3.14204 10.0991 3.74554 9.28671C4.39366 10.0271 6.00714 11.5803 7.2761 11.8696C7.22574 12.1456 7.15838 12.772 7.22456 13.3582C7.24436 13.5335 7.41707 13.64 7.58315 13.5851C8.21766 13.3751 9.16414 12.9547 9.4763 12.412C10.8145 12.4283 13.701 11.6845 15.0848 8.67098ZM12.0091 7.4787C12.3199 7.4787 12.5719 7.22429 12.5719 6.91047C12.5719 6.59664 12.3199 6.34224 12.0091 6.34224C11.6982 6.34224 11.4463 6.59664 11.4463 6.91047C11.4463 7.22429 11.6982 7.4787 12.0091 7.4787Z" fill="#FBA544"/>
</svg>
