<svg width="16" height="16" viewBox="0 0 16 16" fill="none" xmlns="http://www.w3.org/2000/svg">
<path d="M8 13.5C4.96667 13.5 2.5 11.0333 2.5 8C2.5 4.96667 4.96667 2.5 8 2.5C11.0333 2.5 13.5 4.96667 13.5 8C13.5 11.0333 11.0333 13.5 8 13.5ZM8 3.5C5.52 3.5 3.5 5.52 3.5 8C3.5 10.48 5.52 12.5 8 12.5C10.48 12.5 12.5 10.48 12.5 8C12.5 5.52 10.48 3.5 8 3.5Z" fill="#FCFCFD"/>
<path d="M8 10.5C6.62 10.5 5.5 9.38 5.5 8C5.5 6.62 6.62 5.5 8 5.5C9.38 5.5 10.5 6.62 10.5 8C10.5 9.38 9.38 10.5 8 10.5ZM8 6.5C7.17333 6.5 6.5 7.17333 6.5 8C6.5 8.82667 7.17333 9.5 8 9.5C8.82667 9.5 9.5 8.82667 9.5 8C9.5 7.17333 8.82667 6.5 8 6.5Z" fill="#FCFCFD"/>
<path d="M8 3.16732C7.72667 3.16732 7.5 2.94065 7.5 2.66732V1.33398C7.5 1.06065 7.72667 0.833984 8 0.833984C8.27333 0.833984 8.5 1.06065 8.5 1.33398V2.66732C8.5 2.94065 8.27333 3.16732 8 3.16732Z" fill="#FCFCFD"/>
<path d="M2.66665 8.5H1.33331C1.05998 8.5 0.833313 8.27333 0.833313 8C0.833313 7.72667 1.05998 7.5 1.33331 7.5H2.66665C2.93998 7.5 3.16665 7.72667 3.16665 8C3.16665 8.27333 2.93998 8.5 2.66665 8.5Z" fill="#FCFCFD"/>
<path d="M8 15.1673C7.72667 15.1673 7.5 14.9407 7.5 14.6673V13.334C7.5 13.0607 7.72667 12.834 8 12.834C8.27333 12.834 8.5 13.0607 8.5 13.334V14.6673C8.5 14.9407 8.27333 15.1673 8 15.1673Z" fill="#FCFCFD"/>
<path d="M14.6666 8.5H13.3333C13.06 8.5 12.8333 8.27333 12.8333 8C12.8333 7.72667 13.06 7.5 13.3333 7.5H14.6666C14.94 7.5 15.1666 7.72667 15.1666 8C15.1666 8.27333 14.94 8.5 14.6666 8.5Z" fill="#FCFCFD"/>
</svg>
