<svg width="16" height="16" viewBox="0 0 16 16" fill="none" xmlns="http://www.w3.org/2000/svg">
<path d="M5.26729 3.3701C6.2395 3.4271 7.09488 4.05889 7.40105 4.36766C7.9239 3.91163 8.74347 3.56962 9.78915 3.52686C10.8348 3.48411 12.3186 3.24185 12.7142 2.61481C13.1099 1.98777 13.2795 1.73125 13.7317 1.81676C14.0934 1.88516 14.1179 2.88082 14.0849 3.3701C13.8023 6.53949 10.7265 8.27241 9.22392 8.74269C9.93083 10.124 12.7674 12.019 14.9667 13.2979C15.3774 13.5367 15.2113 14.2008 14.7372 14.2008H8.45362C8.35734 14.2008 8.26275 14.1708 8.18884 14.1086C6.83886 12.9718 6.49667 10.2031 6.49667 8.92795C2.04546 7.81638 1.12696 4.26791 0.943262 3.55537C0.759561 2.84282 0.688907 1.95926 1.12696 1.84526C1.56502 1.73125 1.74872 2.11602 2.21504 2.67181C2.68135 3.22759 4.05204 3.29885 5.26729 3.3701Z" fill="#895EE5"/>
</svg>
