<svg width="16" height="16" viewBox="0 0 16 16" fill="none" xmlns="http://www.w3.org/2000/svg">
<path d="M11.8889 7.44553H13M11.8889 7.44553L11.5086 4.78318C11.408 4.0794 10.8053 3.55664 10.0943 3.55664H5.90566C5.19473 3.55664 4.59199 4.0794 4.49145 4.78318L4.11111 7.44553M11.8889 7.44553H4.11111M3 7.44553H4.11111" stroke="white" stroke-linecap="round" stroke-linejoin="round"/>
<path d="M6.88327 10.6512C6.81847 9.78995 6.09916 9.11133 5.22135 9.11133C4.30088 9.11133 3.55469 9.85752 3.55469 10.778C3.55469 11.6985 4.30088 12.4447 5.22135 12.4447C6.14183 12.4447 6.88802 11.6985 6.88802 10.778C6.88802 10.7353 6.88642 10.693 6.88327 10.6512ZM6.88327 10.6512C7.51623 10.0796 8.48197 10.0795 9.11501 10.651M9.11501 10.651C9.11185 10.6929 9.11024 10.7353 9.11024 10.778C9.11024 11.6985 9.85644 12.4447 10.7769 12.4447C11.6974 12.4447 12.4436 11.6985 12.4436 10.778C12.4436 9.85752 11.6974 9.11133 10.7769 9.11133C9.89918 9.11133 9.17991 9.78983 9.11501 10.651Z" stroke="white" stroke-linecap="round" stroke-linejoin="round"/>
</svg>
