<svg width="20" height="21" viewBox="0 0 20 21" fill="none" xmlns="http://www.w3.org/2000/svg">
<path d="M13.3333 3.76969C13.3333 4.69017 11.0948 5.43636 8.33334 5.43636C5.57192 5.43636 3.33334 4.69017 3.33334 3.76969M13.3333 3.76969C13.3333 2.84922 11.0948 2.10303 8.33334 2.10303C5.57192 2.10303 3.33334 2.84922 3.33334 3.76969M13.3333 3.76969V7.10303M3.33334 3.76969V7.10303C3.33334 8.0235 5.57192 8.76969 8.33334 8.76969C11.0948 8.76969 13.3333 8.0235 13.3333 7.10303M16.6667 8.67486C16.6667 9.59533 14.4281 10.3415 11.6667 10.3415C8.90525 10.3415 6.66668 9.59533 6.66668 8.67486V12.0082M16.6667 8.67486C16.6667 7.94918 15.2753 7.33183 13.3333 7.10303M16.6667 8.67486V12.0082C16.6667 12.9287 14.4281 13.6749 11.6667 13.6749C8.90525 13.6749 6.66668 12.9287 6.66668 12.0082M3.33334 13.58C3.33334 14.5005 5.57192 15.2467 8.33334 15.2467C11.0948 15.2467 13.3333 14.5005 13.3333 13.58V16.9134C13.3333 17.8339 11.0948 18.5801 8.33334 18.5801C5.57192 18.5801 3.33334 17.8339 3.33334 16.9134V13.58ZM3.33334 13.58C3.33334 12.8544 4.72469 12.237 6.66668 12.0082" stroke="#DF74FF" stroke-width="1.2"/>
</svg>
