<svg width="20" height="20" viewBox="0 0 20 20" fill="none" xmlns="http://www.w3.org/2000/svg">
<path d="M13.3333 3.33341C13.3333 4.25389 11.0947 5.00008 8.33325 5.00008C5.57183 5.00008 3.33325 4.25389 3.33325 3.33341M13.3333 3.33341C13.3333 2.41294 11.0947 1.66675 8.33325 1.66675C5.57183 1.66675 3.33325 2.41294 3.33325 3.33341M13.3333 3.33341V6.66675M3.33325 3.33341V6.66675C3.33325 7.58722 5.57183 8.33341 8.33325 8.33341C11.0947 8.33341 13.3333 7.58722 13.3333 6.66675M16.6666 8.23858C16.6666 9.15905 14.428 9.90524 11.6666 9.90524C8.90516 9.90524 6.66659 9.15905 6.66659 8.23858V11.5719M16.6666 8.23858C16.6666 7.5129 15.2752 6.89555 13.3333 6.66675M16.6666 8.23858V11.5719C16.6666 12.4924 14.428 13.2386 11.6666 13.2386C8.90516 13.2386 6.66659 12.4924 6.66659 11.5719M3.33325 13.1438C3.33325 14.0642 5.57183 14.8104 8.33325 14.8104C11.0947 14.8104 13.3333 14.0642 13.3333 13.1438V16.4771C13.3333 17.3976 11.0947 18.1438 8.33325 18.1438C5.57183 18.1438 3.33325 17.3976 3.33325 16.4771V13.1438ZM3.33325 13.1438C3.33325 12.4181 4.7246 11.8007 6.66659 11.5719" stroke="#9191A4" stroke-width="1.2"/>
</svg>
