<svg width="20" height="20" viewBox="0 0 20 20" fill="none" xmlns="http://www.w3.org/2000/svg">
<path d="M3 7.77077C3 6.28823 3 5.54696 3.2422 4.96224C3.56514 4.1826 4.18455 3.56318 4.96419 3.24025C5.54892 2.99805 6.29019 2.99805 7.77273 2.99805C8.06924 2.99805 8.21749 2.99805 8.33444 3.04649C8.49036 3.11107 8.61425 3.23496 8.67883 3.39088C8.72727 3.50783 8.72727 3.65608 8.72727 3.95259V8.21623C8.72727 8.39443 8.72727 8.48353 8.69259 8.55159C8.66209 8.61146 8.61341 8.66013 8.55354 8.69064C8.48548 8.72532 8.39638 8.72532 8.21818 8.72532H3.95455C3.65804 8.72532 3.50978 8.72532 3.39284 8.67688C3.23691 8.61229 3.11303 8.48841 3.04844 8.33248C3 8.21554 3 8.06728 3 7.77077Z" stroke="#9191A4" stroke-width="1.5"/>
<path d="M3 12.2253C3 11.9288 3 11.7806 3.04844 11.6636C3.11303 11.5077 3.23691 11.3838 3.39284 11.3192C3.50978 11.2708 3.65804 11.2708 3.95455 11.2708H8.21818C8.39638 11.2708 8.48548 11.2708 8.55354 11.3055C8.61341 11.336 8.66209 11.3846 8.69259 11.4445C8.72727 11.5126 8.72727 11.6017 8.72727 11.7799V16.0435C8.72727 16.34 8.72727 16.4883 8.67883 16.6052C8.61425 16.7611 8.49036 16.885 8.33444 16.9496C8.21749 16.998 8.06924 16.998 7.77273 16.998C6.29019 16.998 5.54892 16.998 4.96419 16.7558C4.18455 16.4329 3.56514 15.8135 3.2422 15.0339C3 14.4491 3 13.7079 3 12.2253Z" stroke="#9191A4" stroke-width="1.5"/>
<path d="M11.2727 3.95259C11.2727 3.65608 11.2727 3.50783 11.3212 3.39088C11.3858 3.23496 11.5096 3.11107 11.6656 3.04649C11.7825 2.99805 11.9308 2.99805 12.2273 2.99805C13.7098 2.99805 14.4511 2.99805 15.0358 3.24025C15.8154 3.56318 16.4349 4.1826 16.7578 4.96224C17 5.54696 17 6.28823 17 7.77077C17 8.06728 17 8.21554 16.9516 8.33248C16.887 8.48841 16.7631 8.61229 16.6072 8.67688C16.4902 8.72532 16.342 8.72532 16.0455 8.72532H11.7818C11.6036 8.72532 11.5145 8.72532 11.4465 8.69064C11.3866 8.66013 11.3379 8.61146 11.3074 8.55159C11.2727 8.48353 11.2727 8.39443 11.2727 8.21623V3.95259Z" stroke="#9191A4" stroke-width="1.5"/>
<path d="M11.2727 11.7799C11.2727 11.6017 11.2727 11.5126 11.3074 11.4445C11.3379 11.3846 11.3866 11.336 11.4465 11.3055C11.5145 11.2708 11.6036 11.2708 11.7818 11.2708H16.0455C16.342 11.2708 16.4902 11.2708 16.6072 11.3192C16.7631 11.3838 16.887 11.5077 16.9516 11.6636C17 11.7806 17 11.9288 17 12.2253C17 13.7079 17 14.4491 16.7578 15.0339C16.4349 15.8135 15.8154 16.4329 15.0358 16.7558C14.4511 16.998 13.7098 16.998 12.2273 16.998C11.9308 16.998 11.7825 16.998 11.6656 16.9496C11.5096 16.885 11.3858 16.7611 11.3212 16.6052C11.2727 16.4883 11.2727 16.34 11.2727 16.0435V11.7799Z" stroke="#9191A4" stroke-width="1.5"/>
</svg>
