<svg width="20" height="21" viewBox="0 0 20 21" fill="none" xmlns="http://www.w3.org/2000/svg">
<path d="M3 8.2073C3 6.72476 3 5.98349 3.2422 5.39876C3.56514 4.61912 4.18455 3.99971 4.96419 3.67677C5.54892 3.43457 6.29019 3.43457 7.77273 3.43457C8.06924 3.43457 8.21749 3.43457 8.33444 3.48301C8.49036 3.5476 8.61425 3.67148 8.67883 3.82741C8.72727 3.94435 8.72727 4.09261 8.72727 4.38912V8.65275C8.72727 8.83095 8.72727 8.92005 8.69259 8.98811C8.66209 9.04798 8.61341 9.09666 8.55354 9.12716C8.48548 9.16184 8.39638 9.16184 8.21818 9.16184H3.95455C3.65804 9.16184 3.50978 9.16184 3.39284 9.1134C3.23691 9.04882 3.11303 8.92493 3.04844 8.76901C3 8.65206 3 8.50381 3 8.2073Z" stroke="#DF74FF" stroke-width="1.5"/>
<path d="M3 12.6618C3 12.3653 3 12.2171 3.04844 12.1001C3.11303 11.9442 3.23691 11.8203 3.39284 11.7557C3.50978 11.7073 3.65804 11.7073 3.95455 11.7073H8.21818C8.39638 11.7073 8.48548 11.7073 8.55354 11.742C8.61341 11.7725 8.66209 11.8212 8.69259 11.881C8.72727 11.9491 8.72727 12.0382 8.72727 12.2164V16.48C8.72727 16.7765 8.72727 16.9248 8.67883 17.0417C8.61425 17.1977 8.49036 17.3215 8.33444 17.3861C8.21749 17.4346 8.06924 17.4346 7.77273 17.4346C6.29019 17.4346 5.54892 17.4346 4.96419 17.1924C4.18455 16.8694 3.56514 16.25 3.2422 15.4704C3 14.8857 3 14.1444 3 12.6618Z" stroke="#DF74FF" stroke-width="1.5"/>
<path d="M11.2727 4.38912C11.2727 4.09261 11.2727 3.94435 11.3212 3.82741C11.3858 3.67148 11.5096 3.5476 11.6656 3.48301C11.7825 3.43457 11.9308 3.43457 12.2273 3.43457C13.7098 3.43457 14.4511 3.43457 15.0358 3.67677C15.8154 3.99971 16.4349 4.61912 16.7578 5.39876C17 5.98349 17 6.72476 17 8.2073C17 8.50381 17 8.65206 16.9516 8.76901C16.887 8.92493 16.7631 9.04882 16.6072 9.1134C16.4902 9.16184 16.342 9.16184 16.0455 9.16184H11.7818C11.6036 9.16184 11.5145 9.16184 11.4465 9.12716C11.3866 9.09666 11.3379 9.04798 11.3074 8.98811C11.2727 8.92005 11.2727 8.83095 11.2727 8.65275V4.38912Z" stroke="#DF74FF" stroke-width="1.5"/>
<path d="M11.2727 12.2164C11.2727 12.0382 11.2727 11.9491 11.3074 11.881C11.3379 11.8212 11.3866 11.7725 11.4465 11.742C11.5145 11.7073 11.6036 11.7073 11.7818 11.7073H16.0455C16.342 11.7073 16.4902 11.7073 16.6072 11.7557C16.7631 11.8203 16.887 11.9442 16.9516 12.1001C17 12.2171 17 12.3653 17 12.6618C17 14.1444 17 14.8857 16.7578 15.4704C16.4349 16.25 15.8154 16.8694 15.0358 17.1924C14.4511 17.4346 13.7098 17.4346 12.2273 17.4346C11.9308 17.4346 11.7825 17.4346 11.6656 17.3861C11.5096 17.3215 11.3858 17.1977 11.3212 17.0417C11.2727 16.9248 11.2727 16.7765 11.2727 16.48V12.2164Z" stroke="#DF74FF" stroke-width="1.5"/>
</svg>
