<svg width="20" height="20" viewBox="0 0 20 20" fill="none" xmlns="http://www.w3.org/2000/svg">
<path d="M2.5 16.4193V9.18548C2.5 8.03736 3.00485 6.94987 3.87536 6.22283L8.81268 2.09926C9.50337 1.52241 10.4966 1.52241 11.1873 2.09926L16.1246 6.22283C16.9951 6.94987 17.5 8.03736 17.5 9.18548V16.4193C17.5 17.4764 16.6605 18.3333 15.625 18.3333H13.75H12.8125H7.1875H6.25H4.375C3.33947 18.3333 2.5 17.4764 2.5 16.4193Z" fill="#DF74FF"/>
<path d="M7.1875 18.3333V11.6344C7.1875 11.1059 7.60723 10.6774 8.125 10.6774H11.875C12.3928 10.6774 12.8125 11.1059 12.8125 11.6344V18.3333M2.5 16.4193V9.18548C2.5 8.03736 3.00485 6.94987 3.87536 6.22283L8.81268 2.09926C9.50337 1.52241 10.4966 1.52241 11.1873 2.09926L16.1246 6.22283C16.9951 6.94987 17.5 8.03736 17.5 9.18548V16.4193C17.5 17.4764 16.6605 18.3333 15.625 18.3333H13.75H6.25H4.375C3.33947 18.3333 2.5 17.4764 2.5 16.4193Z" stroke="#DF74FF" stroke-width="1.5" stroke-linecap="round"/>
<path d="M7.1875 18.3335V11.6346C7.1875 11.1061 7.60723 10.6776 8.125 10.6776H11.875C12.3928 10.6776 12.8125 11.1061 12.8125 11.6346V18.3335H7.1875Z" fill="#080811" stroke="#080811" stroke-width="1.5" stroke-linecap="round"/>
</svg>
