<svg width="20" height="20" viewBox="0 0 20 20" fill="none" xmlns="http://www.w3.org/2000/svg">
<path fill-rule="evenodd" clip-rule="evenodd" d="M10.0001 3.33171C9.77906 3.33171 9.5671 3.4195 9.41082 3.57578C9.25454 3.73206 9.16674 3.94403 9.16674 4.16504C9.16674 4.48728 8.98095 4.78065 8.68964 4.9184C7.86934 5.30627 7.17006 5.91006 6.66674 6.66504C6.1669 7.41481 5.87903 8.28562 5.83341 9.18534V11.665C5.83341 11.6985 5.83139 11.732 5.82737 11.7652C5.76049 12.3177 5.58374 12.8502 5.30859 13.3317H14.6916C14.4164 12.8502 14.2397 12.3177 14.1728 11.7652C14.1688 11.732 14.1667 11.6985 14.1667 11.665V9.18533C14.1211 8.28562 13.8333 7.41481 13.3334 6.66504C12.8301 5.91006 12.1308 5.30627 11.3105 4.9184C11.0192 4.78065 10.8334 4.48728 10.8334 4.16504C10.8334 3.94403 10.7456 3.73206 10.5893 3.57578C10.4331 3.4195 10.2211 3.33171 10.0001 3.33171ZM11.6667 14.9984H8.33341C8.33341 15.4404 8.509 15.8643 8.82157 16.1769C9.13413 16.4894 9.55805 16.665 10.0001 16.665C10.4421 16.665 10.866 16.4894 11.1786 16.1769C11.4911 15.8643 11.6667 15.4404 11.6667 14.9984ZM6.66674 14.9984C6.66674 15.8824 7.01793 16.7303 7.64305 17.3554C8.26818 17.9805 9.11602 18.3317 10.0001 18.3317C10.8841 18.3317 11.732 17.9805 12.3571 17.3554C12.9822 16.7303 13.3334 15.8824 13.3334 14.9984H16.6667C17.0452 14.9984 17.3761 14.7433 17.4726 14.3774C17.569 14.0114 17.4067 13.6264 17.0774 13.4399C16.7368 13.247 16.4462 12.9769 16.2291 12.6512C16.0206 12.3385 15.8855 11.983 15.8334 11.6112V9.16504C15.8334 9.15201 15.8331 9.13898 15.8325 9.12597C15.7758 7.91747 15.3913 6.74718 14.7202 5.74054C14.1364 4.86496 13.3551 4.1419 12.4418 3.62814C12.34 3.16553 12.108 2.73744 11.7678 2.39727C11.299 1.92843 10.6631 1.66504 10.0001 1.66504C9.33704 1.66504 8.70115 1.92843 8.23231 2.39727C7.89215 2.73744 7.66013 3.16553 7.5584 3.62814C6.6451 4.1419 5.86371 4.86496 5.27999 5.74054C4.6089 6.74718 4.22438 7.91747 4.16766 9.12597C4.16705 9.13898 4.16674 9.15201 4.16674 9.16504V11.6112C4.11468 11.983 3.9795 12.3385 3.77102 12.6512C3.55391 12.9769 3.26337 13.247 2.92278 13.4399C2.59345 13.6264 2.43115 14.0114 2.52758 14.3774C2.62401 14.7433 2.95494 14.9984 3.33341 14.9984H6.66674Z" fill="#DF74FF"/>
</svg>
