<svg width="20" height="20" viewBox="0 0 20 20" fill="none" xmlns="http://www.w3.org/2000/svg">
<path fill-rule="evenodd" clip-rule="evenodd" d="M9.16691 4.06201C6.34796 4.06201 4.06274 6.34722 4.06274 9.16618C4.06274 11.9851 6.34796 14.2703 9.16691 14.2703C10.5766 14.2703 11.8514 13.7001 12.7761 12.7754C13.7008 11.8507 14.2711 10.5759 14.2711 9.16618C14.2711 6.34722 11.9859 4.06201 9.16691 4.06201ZM2.18774 9.16618C2.18774 5.31169 5.31242 2.18701 9.16691 2.18701C13.0214 2.18701 16.1461 5.31169 16.1461 9.16618C16.1461 10.755 15.6143 12.2209 14.7203 13.3938L17.5381 16.2116C17.9043 16.5777 17.9043 17.1713 17.5381 17.5374C17.172 17.9035 16.5784 17.9035 16.2123 17.5374L13.3945 14.7196C12.2216 15.6136 10.7557 16.1453 9.16691 16.1453C5.31242 16.1453 2.18774 13.0207 2.18774 9.16618Z" fill="#9191A4"/>
</svg>
