<svg width="20" height="21" viewBox="0 0 20 21" fill="none" xmlns="http://www.w3.org/2000/svg">
<path fill-rule="evenodd" clip-rule="evenodd" d="M9.16697 4.49853C6.34802 4.49853 4.0628 6.78375 4.0628 9.6027C4.0628 12.4217 6.34802 14.7069 9.16697 14.7069C10.5767 14.7069 11.8515 14.1366 12.7762 13.2119C13.7009 12.2872 14.2711 11.0124 14.2711 9.6027C14.2711 6.78375 11.9859 4.49853 9.16697 4.49853ZM2.18781 9.6027C2.18781 5.74821 5.31248 2.62354 9.16697 2.62354C13.0215 2.62354 16.1461 5.74821 16.1461 9.6027C16.1461 11.1915 15.6144 12.6574 14.7204 13.8303L17.5382 16.6481C17.9043 17.0142 17.9043 17.6078 17.5382 17.9739C17.1721 18.3401 16.5785 18.3401 16.2124 17.9739L13.3946 15.1561C12.2217 16.0501 10.7558 16.5819 9.16697 16.5819C5.31248 16.5819 2.18781 13.4572 2.18781 9.6027Z" fill="#DF74FF"/>
</svg>
