<svg width="16" height="16" viewBox="0 0 16 16" fill="none" xmlns="http://www.w3.org/2000/svg">
<path d="M3.33374 6.83325C3.97792 6.83343 4.49976 7.35602 4.49976 8.00024C4.49958 8.64432 3.97781 9.16608 3.33374 9.16626C2.68952 9.16626 2.16692 8.64443 2.16675 8.00024C2.16675 7.35591 2.68941 6.83325 3.33374 6.83325ZM7.99976 6.83325C8.64409 6.83325 9.16675 7.35591 9.16675 8.00024C9.16657 8.64443 8.64398 9.16626 7.99976 9.16626C7.35568 9.16608 6.83392 8.64432 6.83374 8.00024C6.83374 7.35602 7.35557 6.83343 7.99976 6.83325ZM12.6667 6.83325C13.3111 6.83325 13.8337 7.35591 13.8337 8.00024C13.8336 8.64443 13.311 9.16626 12.6667 9.16626C12.0225 9.16626 11.4999 8.64443 11.4998 8.00024C11.4998 7.35591 12.0224 6.83325 12.6667 6.83325Z" stroke="#9191A4" stroke-linecap="round"/>
</svg>
