<svg width="16" height="17" viewBox="0 0 16 17" fill="none" xmlns="http://www.w3.org/2000/svg">
<path d="M3.33365 7.27002C3.97783 7.2702 4.49966 7.79279 4.49966 8.43701C4.49949 9.08109 3.97772 9.60285 3.33365 9.60303C2.68943 9.60303 2.16683 9.08119 2.16666 8.43701C2.16666 7.79268 2.68932 7.27002 3.33365 7.27002ZM7.99966 7.27002C8.644 7.27002 9.16666 7.79268 9.16666 8.43701C9.16648 9.08119 8.64389 9.60303 7.99966 9.60303C7.35559 9.60285 6.83382 9.08109 6.83365 8.43701C6.83365 7.79279 7.35548 7.2702 7.99966 7.27002ZM12.6667 7.27002C13.311 7.27002 13.8336 7.79268 13.8336 8.43701C13.8335 9.08119 13.3109 9.60303 12.6667 9.60303C12.0224 9.60303 11.4998 9.08119 11.4997 8.43701C11.4997 7.79268 12.0223 7.27002 12.6667 7.27002Z" stroke="#DF74FF" stroke-linecap="round"/>
</svg>
