<svg width="126" height="126" viewBox="0 0 126 126" fill="none" xmlns="http://www.w3.org/2000/svg">
<path d="M125.71 62.85C125.71 67.76 125.15 72.54 124.08 77.12C122.91 82.15 121.14 86.95 118.85 91.43C108.44 111.78 87.28 125.7 62.85 125.7C45.65 125.7 30.08 118.8 18.73 107.6C14.61 103.53 11.04 98.9 8.16002 93.82C6.35002 90.63 4.80002 87.26 3.56002 83.74C1.25002 77.2 2.09808e-05 70.17 2.09808e-05 62.85C2.09808e-05 28.14 28.14 0 62.85 0C69.01 0 74.97 0.89 80.6 2.55C83.43 3.38 86.17 4.4 88.82 5.61C93.45 7.71 97.78 10.36 101.73 13.47C116.34 24.98 125.71 42.82 125.71 62.85Z" fill="#1297F6"/>
<path d="M54.6407 1.17906L55.2208 10.7591L52.921 13.9291L56.0812 22.1683L53.3009 26.5785L53.881 36.0687L43.9113 50.0589C43.9113 50.0589 39.9807 52.2684 32.6007 51.7884C25.2479 51.3102 21.7862 50.6439 21.7609 50.639L18.7911 45.2689L14.0011 42.1087C14.0011 42.1087 11.8904 36.5492 10.0704 36.5492C9.03353 36.5492 7.09493 36.7061 5.61829 36.8402C14.7497 16.7805 34.1173 2.36435 57.047 0.264996L54.6407 1.17906Z" fill="#52D996"/>
<path d="M106.296 17.4346C118.263 28.8768 125.71 44.9932 125.71 62.8496C125.71 63.2476 125.705 63.6447 125.697 64.041C124.117 63.9224 122.244 63.7312 121.924 63.4541C121.353 62.963 118.414 59.9443 118.414 59.9443L118.494 55.2041L115.634 51.5244V47.8447C115.634 47.5247 115.225 47.0241 115.145 46.7041C115.06 46.3757 109.174 48.1748 109.174 48.1748L107.384 51.5244L102.564 54.7949L99.7041 51.5244L103.704 37.7148L100.104 31.5049L100.844 26.3545L106.074 23.2549L106.296 17.4346ZM100.597 12.5996C100.978 12.8859 101.356 13.1751 101.73 13.4697C102.747 14.2705 103.737 15.1032 104.701 15.9639L101.004 13.6943L100.597 12.5996Z" fill="#52D996"/>
<path d="M118.85 91.4199C108.44 111.77 87.28 125.69 62.85 125.69C45.65 125.69 30.08 118.79 18.73 107.59L21.12 105.27L26.55 103.02L31.12 104.88L33.9 102.29L35.42 102.36L39.13 101.23L46.08 103.55L45.09 106.46L48.07 110.97L53.83 108.85L59.46 109.71L63.23 114.01L70.65 110.57V106.33L72.64 103.88L72.44 101.17L76.67 94.7399L89.45 96.5999L94.42 93.1599L107 94.2799L115.28 90.1799L118.85 91.4199Z" fill="#52D996"/>
<path d="M58.04 105.82L58.31 107.37C58.31 107.37 60.74 107.81 60.76 107.89C60.78 107.97 63.43 111.2 63.85 111.2C64.27 111.2 67.19 111.03 67.78 109.58C67.78 109.58 67.98 108.01 67.51 107.49C67.04 106.97 66.19 105.16 66.19 105.16L58.05 105.82H58.04Z" fill="#52D996"/>
<path d="M30.54 61.0399L31.71 62.7299L33.68 63.6199L34.63 66.0399L37.61 68.3999C37.61 68.3999 35.9 70.1899 35.84 70.2599C35.78 70.3299 30.15 69.4999 30.15 69.4999L27.25 67.1599L26.38 62.6799L30.55 61.0399H30.54Z" fill="#52D996"/>
<path d="M51.96 53.518C51.96 53.518 52.63 57.728 52.86 57.948C53.09 58.168 56.31 58.928 56.31 58.928C56.31 58.928 60.07 59.058 60.61 58.298C61.15 57.538 63.47 53.648 63.47 53.648L62.44 50.288L58.73 49.128C58.73 49.128 57.92 50.518 56.67 51.008C55.42 51.498 51.97 53.518 51.97 53.518H51.96Z" fill="#52D996"/>
</svg>
