<svg width="200" height="150" viewBox="0 0 200 150" fill="none" xmlns="http://www.w3.org/2000/svg">
<g filter="url(#filter0_d_0_5285)">
<g opacity="0.61" filter="url(#filter1_f_0_5285)">
<path d="M71.6305 136.32C37.8505 136.32 26.6205 125.15 22.1505 113.76L28.3105 134.29C10.2105 113.22 9.7705 87.3601 15.7705 73.3901C22.0305 58.8101 33.4305 46.1501 48.7405 36.7701C56.3105 32.1401 58.9605 29.7401 66.2605 27.1701L48.1405 30.4101C73.4305 18.2601 100.831 11.6001 115.351 11.6001C149.571 11.6001 176.18 26.0201 180.061 46.6701C181.32 53.3901 180.59 60.6301 177.87 68.3101L187.721 57.9301C183.01 92.6401 134.501 124.1 110.471 130.97C98.7305 134.32 84.2105 136.33 71.6205 136.33L71.6305 136.32Z" fill="url(#paint0_radial_0_5285)" fill-opacity="0.7"/>
</g>
<path d="M72.3305 27.4901C72.3305 27.4901 98.4605 23.9601 113.3 27.6701C113.3 27.6701 82.5805 26.6101 53.4405 44.4501C24.3005 62.2901 14.4205 91.4201 22.7205 109.96C22.7205 109.96 16.5405 82.7701 44.6205 60.3401C44.6205 60.3401 19.3705 82.2401 29.2605 108.02C39.1505 133.8 87.0005 128.33 108.01 122.32C129.02 116.32 165.931 95.1301 175.821 68.4601C175.821 68.4601 163.281 87.0001 151.811 92.6501C151.811 92.6501 175.12 68.9901 171.23 48.3301C167.35 27.6701 127.611 10.5401 72.3505 27.4901H72.3305Z" fill="url(#paint1_linear_0_5285)"/>
<path opacity="0.7" d="M80.1805 50.4801C80.1805 50.4801 67.0605 52.8501 54.2205 61.5101C54.2205 61.5101 68.8705 45.6001 113.68 37.7801C158.48 29.9601 162.6 55.5301 156.67 67.0901C151.79 76.6001 139.55 94.0801 94.4705 105.67C94.4705 105.67 121.63 100.73 135.03 95.0101C135.03 95.0101 97.8605 121.42 61.2005 112.6C22.3605 103.25 50.4505 62.2101 80.1805 50.4901V50.4801Z" fill="url(#paint2_linear_0_5285)"/>
<path d="M131.111 69.4001C130.031 70.7701 128.901 72.0501 127.751 73.2301C127.751 73.2401 127.741 73.2401 127.741 73.2401C119.721 81.5401 110.891 85.2201 109.391 85.8001C109.251 85.8601 109.171 85.8901 109.171 85.8901C109.171 85.8901 115.551 85.4501 120.301 83.7101C119.031 84.4101 96.7105 96.4701 79.5605 94.3801C64.1505 92.5001 66.1705 86.3001 72.1805 80.0301C74.6405 77.4501 77.7805 74.8601 80.6605 72.5501C80.6605 72.5501 73.2705 73.7301 66.2905 79.2601C66.6005 78.9301 72.8605 72.3301 84.4205 65.7001C91.4705 61.6601 100.491 57.6101 111.341 54.9701C136.191 48.9401 139.871 58.3101 131.111 69.4001Z" fill="url(#paint3_linear_0_5285)"/>
<g opacity="0.61">
<path d="M57.3205 51.6401L56.6905 50.8601C56.8205 50.7501 70.2505 40.0401 99.5205 34.8501L99.6905 35.8301C70.6705 40.9701 57.4405 51.5201 57.3105 51.6301L57.3205 51.6401Z" fill="url(#paint4_radial_0_5285)"/>
</g>
<g opacity="0.61">
<path d="M141.57 92.4101L141.05 91.5601C141.23 91.4501 159.36 80.2701 162.59 63.4801L163.57 63.6701C160.25 80.9001 141.75 92.3001 141.56 92.4101H141.57Z" fill="url(#paint5_radial_0_5285)"/>
</g>
<g opacity="0.61">
<path d="M75.1905 121.32C44.5205 121.32 39.0605 107.98 38.8105 107.34L39.7405 106.98C39.8005 107.15 46.6905 123.69 87.5005 119.67L87.6005 120.67C83.0605 121.12 78.9305 121.32 75.1805 121.32H75.1905Z" fill="url(#paint6_radial_0_5285)"/>
</g>
<path d="M120.771 46.2901C120.771 46.2901 143.881 43.9101 145.181 58.6001C145.181 58.6001 149.931 39.1601 120.771 46.2901Z" fill="url(#paint7_linear_0_5285)"/>
<path d="M56.8505 90.1001C56.8505 90.1001 54.3905 103.47 82.0005 101.01C82.0005 101.01 47.5305 110.33 56.8505 90.1001Z" fill="url(#paint8_linear_0_5285)"/>
<path d="M139.271 23.0201L139.311 25.3901L136.671 29.0401L129.641 28.9101L128.211 27.5001L139.271 23.0201Z" fill="url(#paint9_linear_0_5285)"/>
<path d="M135.081 17.3901L139.271 23.0201L135.651 27.7801L128.211 27.5001L128.881 20.3501L135.081 17.3901Z" fill="url(#paint10_linear_0_5285)"/>
<path d="M96.0305 114.02L96.7705 115.63L99.7205 117.24L104.411 114.89L104.921 113.49L96.0305 114.02Z" fill="url(#paint11_linear_0_5285)"/>
<path d="M97.0505 108.89L96.0305 114.02L100.001 116.07L104.921 113.49L102.171 108.89H97.0505Z" fill="url(#paint12_linear_0_5285)"/>
<path d="M51.8105 75.7601L51.8805 81.7601C51.8905 82.5301 51.3305 83.1801 50.5705 83.2901L43.4405 84.2901C42.6205 84.4101 41.8605 83.8501 41.7205 83.0401L40.9405 78.2001C40.8705 77.7301 41.0205 77.2501 41.3405 76.9001L44.5105 73.6001C44.8905 73.2201 45.4405 73.0601 45.9605 73.1801L50.4105 74.2501L50.6405 74.3101C51.3205 74.4801 51.8005 75.0801 51.8105 75.7701V75.7601Z" fill="url(#paint13_linear_0_5285)"/>
<path d="M50.4105 74.2401C50.4305 74.3201 50.4405 74.4101 50.4405 74.5001L50.5105 80.5001C50.5105 81.2601 49.9605 81.9201 49.2005 82.0201L42.0605 83.0301C41.9505 83.0401 41.8305 83.0501 41.7205 83.0301L40.9405 78.1901C40.8705 77.7201 41.0205 77.2401 41.3405 76.8901L44.5105 73.5901C44.8905 73.2101 45.4405 73.0501 45.9605 73.1701L50.4105 74.2401Z" fill="url(#paint14_linear_0_5285)"/>
</g>
<defs>
<filter id="filter0_d_0_5285" x="0.417261" y="0.700098" width="199.203" height="148.53" filterUnits="userSpaceOnUse" color-interpolation-filters="sRGB">
<feFlood flood-opacity="0" result="BackgroundImageFix"/>
<feColorMatrix in="SourceAlpha" type="matrix" values="0 0 0 0 0 0 0 0 0 0 0 0 0 0 0 0 0 0 127 0" result="hardAlpha"/>
<feMorphology radius="4" operator="dilate" in="SourceAlpha" result="effect1_dropShadow_0_5285"/>
<feOffset dy="1"/>
<feGaussianBlur stdDeviation="3.95"/>
<feComposite in2="hardAlpha" operator="out"/>
<feColorMatrix type="matrix" values="0 0 0 0 0.961048 0 0 0 0 0.610483 0 0 0 0 1 0 0 0 0.46 0"/>
<feBlend mode="normal" in2="BackgroundImageFix" result="effect1_dropShadow_0_5285"/>
<feBlend mode="normal" in="SourceGraphic" in2="effect1_dropShadow_0_5285" result="shape"/>
</filter>
<filter id="filter1_f_0_5285" x="8.31726" y="7.6001" width="183.403" height="132.73" filterUnits="userSpaceOnUse" color-interpolation-filters="sRGB">
<feFlood flood-opacity="0" result="BackgroundImageFix"/>
<feBlend mode="normal" in="SourceGraphic" in2="BackgroundImageFix" result="shape"/>
<feGaussianBlur stdDeviation="2" result="effect1_foregroundBlur_0_5285"/>
</filter>
<radialGradient id="paint0_radial_0_5285" cx="0" cy="0" r="1" gradientUnits="userSpaceOnUse" gradientTransform="translate(137.803 131.328) rotate(-114.409) scale(98.0318 187.241)">
<stop offset="1" stop-color="#EBAEF7"/>
</radialGradient>
<linearGradient id="paint1_linear_0_5285" x1="58.4005" y1="-67.6499" x2="146.48" y2="269.29" gradientUnits="userSpaceOnUse">
<stop offset="0.06" stop-color="#EBAEF7"/>
<stop offset="0.56" stop-color="#A652E5"/>
<stop offset="1" stop-color="#340C70"/>
</linearGradient>
<linearGradient id="paint2_linear_0_5285" x1="53.6305" y1="-31.4799" x2="192.57" y2="285.68" gradientUnits="userSpaceOnUse">
<stop stop-color="#A652E5"/>
<stop offset="1" stop-color="#340C70"/>
</linearGradient>
<linearGradient id="paint3_linear_0_5285" x1="103.301" y1="56.0001" x2="87.6605" y2="144.86" gradientUnits="userSpaceOnUse">
<stop offset="0.08" stop-color="#EDD0F4"/>
<stop offset="0.33" stop-color="#EBAEF7"/>
<stop offset="0.56" stop-color="#A652E5"/>
<stop offset="1" stop-color="#340C70"/>
</linearGradient>
<radialGradient id="paint4_radial_0_5285" cx="0" cy="0" r="1" gradientUnits="userSpaceOnUse" gradientTransform="translate(159.46 -3.58989) scale(50.56 50.56)">
<stop offset="0.13" stop-color="#340C70"/>
<stop offset="0.89" stop-color="#A652E5"/>
<stop offset="1" stop-color="#EBAEF7"/>
</radialGradient>
<radialGradient id="paint5_radial_0_5285" cx="0" cy="0" r="1" gradientUnits="userSpaceOnUse" gradientTransform="translate(159.46 -3.58994) scale(50.56 50.56)">
<stop offset="0.13" stop-color="#340C70"/>
<stop offset="0.89" stop-color="#A652E5"/>
<stop offset="1" stop-color="#EBAEF7"/>
</radialGradient>
<radialGradient id="paint6_radial_0_5285" cx="0" cy="0" r="1" gradientUnits="userSpaceOnUse" gradientTransform="translate(159.461 -3.58986) scale(50.56 50.56)">
<stop offset="0.13" stop-color="#340C70"/>
<stop offset="0.89" stop-color="#A652E5"/>
<stop offset="1" stop-color="#EBAEF7"/>
</radialGradient>
<linearGradient id="paint7_linear_0_5285" x1="144.411" y1="24.6501" x2="106.791" y2="116.09" gradientUnits="userSpaceOnUse">
<stop offset="0.06" stop-color="#EBAEF7"/>
<stop offset="0.58" stop-color="#A652E5"/>
<stop offset="1" stop-color="#340C70"/>
</linearGradient>
<linearGradient id="paint8_linear_0_5285" x1="57.9905" y1="158.07" x2="79.0705" y2="39.3801" gradientUnits="userSpaceOnUse">
<stop offset="0.06" stop-color="#EBAEF7"/>
<stop offset="0.58" stop-color="#A652E5"/>
<stop offset="1" stop-color="#340C70"/>
</linearGradient>
<linearGradient id="paint9_linear_0_5285" x1="130.741" y1="17.1801" x2="134.331" y2="26.8501" gradientUnits="userSpaceOnUse">
<stop offset="0.06" stop-color="#898992"/>
<stop offset="0.58" stop-color="#63636C"/>
<stop offset="1" stop-color="#340C70"/>
</linearGradient>
<linearGradient id="paint10_linear_0_5285" x1="127.561" y1="2.11009" x2="136.171" y2="34.3501" gradientUnits="userSpaceOnUse">
<stop offset="0.06" stop-color="#898992"/>
<stop offset="0.58" stop-color="#63636C"/>
<stop offset="1" stop-color="#340C70"/>
</linearGradient>
<linearGradient id="paint11_linear_0_5285" x1="99.9495" y1="107.421" x2="100.637" y2="115.082" gradientUnits="userSpaceOnUse">
<stop offset="0.06" stop-color="#898992"/>
<stop offset="0.58" stop-color="#63636C"/>
<stop offset="1" stop-color="#340C70"/>
</linearGradient>
<linearGradient id="paint12_linear_0_5285" x1="99.8191" y1="99.6148" x2="101.318" y2="131.212" gradientUnits="userSpaceOnUse">
<stop offset="0.06" stop-color="#898992"/>
<stop offset="0.58" stop-color="#63636C"/>
<stop offset="1" stop-color="#340C70"/>
</linearGradient>
<linearGradient id="paint13_linear_0_5285" x1="30.4245" y1="52.9221" x2="51.8193" y2="87.4644" gradientUnits="userSpaceOnUse">
<stop offset="0.06" stop-color="#898992"/>
<stop offset="0.58" stop-color="#63636C"/>
<stop offset="1" stop-color="#1A1A1A"/>
</linearGradient>
<linearGradient id="paint14_linear_0_5285" x1="51.5875" y1="93.1732" x2="30.9978" y2="39.0077" gradientUnits="userSpaceOnUse">
<stop offset="0.06" stop-color="#898992"/>
<stop offset="0.58" stop-color="#63636C"/>
<stop offset="1" stop-color="#340C70"/>
</linearGradient>
</defs>
</svg>
