<svg width="129" height="129" viewBox="0 0 129 129" fill="none" xmlns="http://www.w3.org/2000/svg">
<circle cx="64.082" cy="64.8168" r="63.9761" fill="#A6BCBA"/>
<path d="M64.0819 0.840393C86.0361 0.840393 105.406 11.9 116.929 28.7505C119.176 35.2802 120.397 42.288 120.397 49.5806C120.397 84.9134 91.7536 113.556 56.4208 113.556C34.4678 113.556 15.0984 102.498 3.57605 85.649C1.32808 79.1186 0.106344 72.1106 0.106323 64.817C0.106323 29.484 28.7489 0.840426 64.0819 0.840393Z" fill="#E7F0F2"/>
<path d="M20.7596 39.0485C21.2496 40.2085 20.7196 42.8385 19.3696 45.5285C18.0896 48.1085 16.4396 49.9485 15.3196 50.2185C15.0496 50.2785 14.7996 50.2485 14.6096 50.1285C13.5596 49.4685 14.0196 46.3485 15.6096 43.1485C17.2096 39.9585 19.3496 37.8985 20.3896 38.5585C20.5496 38.6685 20.6896 38.8285 20.7796 39.0485H20.7596Z" fill="#A6BCBA"/>
<path d="M20.7596 39.0485C21.2496 40.2085 20.7196 42.8385 19.3696 45.5285C18.0896 48.1085 16.4396 49.9485 15.3196 50.2185C14.8196 49.0785 15.3396 46.4285 16.6996 43.7285C17.9796 41.1585 19.6296 39.3285 20.7596 39.0485Z" fill="#C0D1D0"/>
<path d="M36.0695 64.1886C37.5395 65.2086 38.9095 68.0686 39.2895 71.2286C39.6795 74.2686 39.0595 76.6586 37.8795 77.2886C37.5995 77.4286 37.2695 77.4886 36.9295 77.4186C35.1395 77.0786 33.3295 73.7586 32.8495 69.9986C32.3895 66.2486 33.4495 63.4686 35.2195 63.8186C35.5095 63.8786 35.7895 63.9986 36.0595 64.1886H36.0695Z" fill="#A6BCBA"/>
<path d="M36.0695 64.1886C37.5395 65.2086 38.9095 68.0686 39.2895 71.2286C39.6795 74.2686 39.0595 76.6586 37.8795 77.2886C36.3995 76.2786 35.0195 73.4186 34.6395 70.2486C34.2595 67.2286 34.8795 64.8386 36.0695 64.1986V64.1886Z" fill="#C0D1D0"/>
<path d="M63.2579 102.515C61.1179 103.945 57.5279 104.805 54.0379 104.585C49.4079 104.275 46.7279 102.144 48.0679 99.8245C48.2879 99.4545 48.5779 99.1045 48.9479 98.7745C50.9279 97.0345 54.9679 95.9045 58.8679 96.1745C62.6279 96.4045 65.0879 97.8345 65.1979 99.5945C65.2179 100.014 65.1079 100.465 64.8479 100.905C64.5079 101.495 63.9579 102.034 63.2379 102.504" fill="#8DAAA7"/>
<path d="M48.9579 98.7845C50.9379 97.0445 54.9779 95.9145 58.8779 96.1845C62.6379 96.4145 65.0979 97.8445 65.2079 99.6045C63.2479 101.354 59.1779 102.505 55.2679 102.225C51.5379 101.985 49.0779 100.544 48.9479 98.7845H48.9579Z" fill="#A6BCBA"/>
<path d="M108.76 100.699C108.18 102.809 106.35 105.359 104 107.159C100.86 109.539 97.9496 109.659 97.5196 107.429C97.4496 107.069 97.4495 106.679 97.4995 106.259C97.7995 104.039 99.7696 101.059 102.42 99.0585C104.96 97.1085 107.34 96.6585 108.39 97.7285C108.63 97.9885 108.82 98.3385 108.9 98.7685C109.01 99.3285 108.96 99.9885 108.76 100.689" fill="#819B98"/>
<path d="M97.4995 106.269C97.7995 104.049 99.7696 101.069 102.42 99.0685C104.96 97.1185 107.34 96.6685 108.39 97.7385C108.11 99.9585 106.13 102.959 103.47 104.959C100.94 106.879 98.5595 107.329 97.4995 106.269Z" fill="#8DAAA7"/>
<path d="M107.63 28.9085C109.6 30.1785 111.62 32.9585 112.72 36.1185C114.17 40.3185 113.39 43.5785 110.99 43.3985C110.6 43.3685 110.21 43.2585 109.8 43.0685C107.64 42.0785 105.22 39.0085 104.01 35.4685C102.82 32.0685 103.09 29.2985 104.5 28.4385C104.84 28.2385 105.25 28.1485 105.71 28.1785C106.32 28.2185 106.97 28.4785 107.62 28.8985" fill="#A6BCBA"/>
<path d="M109.81 43.0685C107.65 42.0785 105.23 39.0085 104.02 35.4685C102.83 32.0685 103.1 29.2985 104.51 28.4385C106.67 29.4085 109.11 32.4885 110.32 36.0385C111.49 39.4185 111.21 42.1985 109.8 43.0585L109.81 43.0685Z" fill="#C0D1D0"/>
<path d="M83.5396 54.0885C84.0596 55.6385 83.8996 57.3185 83.1796 58.9285C81.8396 61.9285 78.5696 64.7385 74.2596 66.2085C67.6096 68.4785 60.9996 66.7185 59.4896 62.2985C59.1596 61.3085 59.0996 60.2685 59.2996 59.2285C59.9596 55.6085 63.6196 51.9285 68.7796 50.1685C75.4196 47.9085 82.0296 49.6685 83.5396 54.0885Z" fill="#A6BCBA"/>
<path d="M82.9896 55.8485C83.3296 56.8385 83.3796 57.8885 83.1796 58.9285C81.8396 61.9285 78.5696 64.7385 74.2596 66.2085C67.6096 68.4785 60.9996 66.7185 59.4896 62.2985C59.1596 61.3085 59.0996 60.2685 59.2996 59.2285C60.6396 56.2285 63.9096 53.4185 68.2296 51.9285C74.8696 49.6685 81.4696 51.4185 82.9896 55.8485Z" fill="#C0D1D0"/>
<path d="M22.5441 88.1486C23.1998 87.6889 23.1429 86.4767 22.4169 85.4411C21.691 84.4055 20.5709 83.9385 19.9151 84.3982C19.2594 84.8579 19.3163 86.0701 20.0423 87.1057C20.7682 88.1413 21.8883 88.6082 22.5441 88.1486Z" fill="#A6BCBA"/>
<path d="M39.44 34.3157C40.2224 32.9626 40.3218 31.5565 39.662 31.175C39.0023 30.7934 37.8331 31.581 37.0507 32.934C36.2683 34.287 36.1688 35.6931 36.8286 36.0747C37.4884 36.4562 38.6575 35.6687 39.44 34.3157Z" fill="#D8E4E6"/>
<path d="M51.9557 44.952C52.8159 44.2074 53.0209 43.0351 52.4137 42.3335C51.8064 41.632 50.6168 41.6669 49.7566 42.4115C48.8964 43.1561 48.6914 44.3285 49.2986 45.03C49.9059 45.7315 51.0955 45.6966 51.9557 44.952Z" fill="#D8E4E6"/>
<path d="M51.6842 17.8293C52.9488 17.4914 53.7971 16.5557 53.5789 15.7393C53.3608 14.923 52.1588 14.5351 50.8943 14.873C49.6297 15.2109 48.7814 16.1466 48.9996 16.9629C49.2177 17.7793 50.4197 18.1672 51.6842 17.8293Z" fill="#D8E4E6"/>
<path d="M79.0189 28.4062C79.6963 27.2349 79.1486 25.651 77.7955 24.8686C76.4425 24.0862 74.7966 24.4015 74.1192 25.5728C73.4418 26.7442 73.9895 28.328 75.3426 29.1104C76.6956 29.8929 78.3415 29.5776 79.0189 28.4062Z" fill="#D8E4E6"/>
<path d="M105.259 59.5255C106.32 59.2417 106.898 57.952 106.549 56.6448C106.199 55.3376 105.056 54.5078 103.994 54.7915C102.932 55.0752 102.354 56.365 102.704 57.6722C103.053 58.9794 104.197 59.8092 105.259 59.5255Z" fill="#C0D1D0"/>
<path d="M77.8519 92.2274C79.403 91.2088 80.0977 89.5261 79.4036 88.4689C78.7094 87.4117 76.8892 87.3804 75.338 88.3989C73.7868 89.4175 73.0921 91.1002 73.7863 92.1574C74.4805 93.2146 76.3007 93.2459 77.8519 92.2274Z" fill="#A6BCBA"/>
</svg>
