<svg width="191" height="130" viewBox="0 0 191 130" fill="none" xmlns="http://www.w3.org/2000/svg">
<path d="M161.093 71.6063C160.803 75.9563 159.983 80.3363 158.593 85.5463C158.573 85.6463 158.543 85.7563 158.513 85.8663C155.953 95.4063 150.943 97.3863 146.643 103.666C143.953 107.586 141.993 110.596 139.573 113.246C138.213 114.726 136.693 116.106 134.833 117.446C134.703 117.556 134.563 117.646 134.423 117.746C128.953 121.586 120.923 123.566 114.873 124.386C108.823 125.196 105.793 123.806 97.7631 125.666C89.7331 127.526 88.5731 125.776 85.1931 125.196C81.8231 124.616 76.7031 123.916 72.1631 121.006C67.6231 118.096 65.9931 114.376 59.4731 112.166C52.9631 109.956 49.9331 103.906 48.1931 100.756C46.4431 97.6163 42.6031 94.8263 41.9031 90.4063C41.4331 87.4263 40.9131 86.1963 39.7031 84.0063C39.1131 82.9363 38.3531 81.6463 37.3631 79.8163C34.3431 74.2263 35.2731 62.5863 37.0131 57.5863C38.7631 52.5863 37.3631 46.4163 39.1131 40.2463C39.7931 37.8463 41.4531 34.4463 43.5431 31.0463C45.3531 28.0763 47.4631 25.1163 49.5431 22.8063C51.2131 20.9363 52.8431 19.5063 54.2431 18.8363C56.4331 17.7863 58.2031 16.2663 59.8731 14.5763C62.1131 12.3163 64.1931 9.74628 66.9231 7.54628C68.1431 6.56628 69.4131 5.83628 70.7131 5.28628C73.3531 4.17628 76.1231 3.78628 78.8731 3.54628C80.1031 3.43628 81.3231 3.34628 82.5231 3.24628C86.7531 2.86628 90.1431 1.58628 93.6831 0.796279C94.5331 0.606279 95.3831 0.446279 96.2531 0.336279C107.723 -1.17372 116.463 2.71628 120.763 4.11628C123.633 5.04628 129.363 8.16628 133.273 10.7063C135.233 11.9763 136.743 13.0963 137.213 13.7163C138.613 15.5763 148.383 25.4663 155.253 34.4263C159.693 40.2263 160.333 45.9263 160.483 51.5963C160.563 54.2763 160.523 56.9463 160.723 59.6063C160.753 60.0263 160.793 60.4363 160.833 60.8463C161.243 64.6763 161.333 68.1363 161.093 71.6063Z" fill="url(#paint0_radial_0_5332)"/>
<path opacity="0.2" d="M69.6035 90.8694C70.0236 88.5489 67.3463 86.1214 63.6236 85.4476C59.9009 84.7737 56.5426 86.1087 56.1226 88.4292C55.7025 90.7498 58.3798 93.1772 62.1025 93.851C65.8252 94.5249 69.1835 93.19 69.6035 90.8694Z" fill="#7F3D26"/>
<path opacity="0.2" d="M161.093 71.6063C160.803 75.9563 159.983 80.3363 158.593 85.5463C156.833 82.8863 154.213 80.2563 150.323 78.3163C138.353 72.3363 111.673 77.3963 94.1831 64.5163C76.6931 51.6263 67.9531 30.0063 64.7331 19.8763C63.7431 16.7663 61.9131 15.2163 59.8731 14.5763C62.1131 12.3163 64.1931 9.74628 66.9231 7.54628C68.1431 6.56628 69.4131 5.83628 70.7131 5.28628C71.4031 9.42628 72.0931 15.7463 72.0931 24.4763C72.0931 41.9663 94.6431 55.7663 114.433 65.4363C134.213 75.0963 138.353 65.4363 150.323 68.6563C155.913 70.1563 159.183 71.0663 161.093 71.6063Z" fill="#D16B3F"/>
<path opacity="0.2" d="M160.723 59.6063C156.353 57.4163 151.253 54.2963 151.073 51.5863C150.753 46.8263 136.143 43.3363 126.623 36.6663C117.093 29.9963 95.8131 41.7463 85.3331 28.7263C77.1231 18.5263 78.0731 7.73628 78.8731 3.54628C80.1031 3.43628 81.3231 3.34628 82.5231 3.24628C86.7531 2.86628 90.1431 1.58628 93.6831 0.796279C93.3131 3.15628 92.5531 6.16628 91.0531 9.66628C87.2431 18.5663 87.8731 24.2763 98.0431 27.7663C108.203 31.2663 118.683 28.0863 128.203 33.8063C137.733 39.5163 149.803 40.4763 154.883 48.0963C156.933 51.1763 158.893 51.8663 160.483 51.5963C160.563 54.2763 160.523 56.9463 160.723 59.6063Z" fill="#D16B3F"/>
<path opacity="0.2" d="M113.17 21.3592C113.695 18.4572 110.346 15.4212 105.688 14.5782C101.031 13.7352 96.8295 15.4043 96.3042 18.3064C95.7789 21.2084 99.1287 24.2444 103.786 25.0874C108.443 25.9305 112.645 24.2613 113.17 21.3592Z" fill="#7F3D26"/>
<path opacity="0.2" d="M139.573 113.246C138.213 114.726 136.693 116.106 134.833 117.446C131.893 109.206 125.903 101.806 117.503 99.8963C111.543 98.5463 105.363 100.136 99.2531 100.396C91.7031 100.726 83.4731 98.5863 78.9331 92.5363C77.0531 90.0363 75.9331 87.0463 74.1131 84.5163C69.5931 78.2163 60.5831 75.5963 53.3831 78.4863C50.4231 79.6663 47.8331 81.6463 44.8831 82.8263C43.2131 83.4963 41.4631 83.8763 39.7031 84.0063C39.1131 82.9363 38.3531 81.6463 37.3631 79.8163C34.3431 74.2263 35.2731 62.5863 37.0131 57.5863C38.7631 52.5863 37.3631 46.4163 39.1131 40.2463C39.7931 37.8463 41.4531 34.4463 43.5431 31.0463C44.2231 34.0463 44.5531 37.3963 45.5131 40.1363C47.1031 44.6763 49.2531 49.0263 51.8931 53.0463C57.0331 60.8763 64.0231 67.5063 72.2431 71.9963C74.7531 73.3663 77.4831 74.6563 79.0231 77.0563C80.7131 79.7063 80.5631 83.0963 81.5131 86.0963C83.0931 91.0863 88.0631 94.7963 93.2931 94.8863C97.3131 94.9663 101.083 93.1463 104.933 91.9663C108.993 90.7263 113.273 90.1963 117.513 90.3963C124.283 90.7263 131.443 93.3363 135.023 99.0863C136.443 101.376 137.203 104.006 137.903 106.606C138.503 108.806 139.063 111.026 139.573 113.246Z" fill="#D16B3F"/>
<path opacity="0.5" d="M109.603 106.256C107.363 106.226 105.113 106.196 102.873 106.166C101.993 106.156 101.023 106.186 100.393 106.796C99.6131 107.556 99.7831 108.926 100.473 109.756C101.163 110.586 102.243 110.996 103.283 111.296C106.003 112.086 108.873 112.386 111.703 112.166C111.943 112.146 112.193 112.126 112.393 111.986C112.803 111.706 112.813 111.106 112.653 110.636C112.043 108.766 111.483 106.766 109.593 106.256H109.603Z" fill="#F9DC74"/>
<path opacity="0.2" d="M134.341 62.441C134.761 60.1204 132.084 57.693 128.361 57.0191C124.639 56.3453 121.28 57.6802 120.86 60.0008C120.44 62.3213 123.117 64.7488 126.84 65.4226C130.563 66.0964 133.921 64.7615 134.341 62.441Z" fill="#7F3D26"/>
<path d="M185.843 12.5563C187.363 14.3763 188.453 16.2963 189.163 18.3063C188.493 16.2563 187.413 14.3163 185.843 12.5563ZM189.163 18.3063C190.063 20.9663 190.273 23.7963 190.003 26.6463C189.863 28.1363 189.593 29.6363 189.203 31.1063C188.393 34.3263 187.063 37.4463 185.503 40.2163C179.513 50.5163 171.013 59.6063 161.343 67.6363C147.983 78.7463 132.383 87.8563 118.143 95.4263C101.373 103.786 83.5231 111.286 65.0831 115.476C55.0531 117.766 44.8631 119.076 34.5631 119.016C31.7831 118.906 28.8631 118.676 25.9831 118.216C19.5531 117.186 13.2931 114.966 9.03309 110.216C7.34309 108.266 6.2931 106.096 5.7531 103.806C4.5331 98.6363 5.9031 92.8963 8.1931 87.8363C8.6231 86.8863 9.08309 85.9563 9.56309 85.0663C11.3631 81.9063 13.3531 78.8863 15.5131 75.9863C21.8531 67.4763 29.6231 60.0263 38.0331 53.3263C38.2131 51.0663 38.1731 48.6663 38.3531 46.2163C33.1831 50.2263 28.2931 54.4263 23.7131 58.7863C8.92312 72.7963 -13.1969 103.446 11.9331 118.306C21.0131 123.086 31.6131 124.166 42.1531 123.596C49.3031 123.206 56.4231 122.056 63.0231 120.786C63.4831 120.706 63.9431 120.616 64.3931 120.526C66.0831 120.136 67.7731 119.736 69.4531 119.296C103.213 110.766 135.433 94.4563 161.273 71.0463C163.673 68.8863 166.023 66.6463 168.313 64.3463C175.703 56.7063 186.573 43.7263 189.523 31.2163C189.893 29.7063 190.133 28.1963 190.233 26.7063C190.443 23.8163 190.133 20.9863 189.163 18.3063ZM158.643 3.25628C167.963 3.44628 178.353 5.01628 185.193 11.8763C178.413 4.93628 168.003 3.24628 158.663 2.67628C147.373 2.47628 135.823 3.66628 124.313 6.03628C125.293 6.50628 126.353 7.05628 127.413 7.63628C137.813 4.94628 148.313 3.32628 158.643 3.25628Z" fill="url(#paint1_linear_0_5332)"/>
<path d="M189.873 12.7663C189.873 14.8763 188.633 16.6963 186.833 17.5563C186.143 17.8863 185.383 18.0663 184.563 18.0663C183.003 18.0663 181.593 17.3763 180.643 16.3063C180.143 15.7763 179.783 15.1563 179.553 14.4763C179.363 13.9463 179.273 13.3663 179.273 12.7763C179.273 12.2463 179.343 11.7463 179.503 11.2563C180.143 9.06628 182.173 7.47628 184.563 7.47628C185.913 7.47628 187.133 7.97628 188.073 8.80628C188.223 8.93628 188.353 9.06628 188.483 9.21628C188.803 9.55628 189.063 9.93628 189.273 10.3463C189.553 10.8963 189.743 11.4863 189.813 12.1163C189.853 12.3463 189.863 12.5563 189.863 12.7763L189.873 12.7663Z" fill="url(#paint2_radial_0_5332)"/>
<path opacity="0.3" d="M188.493 9.20628C187.923 9.81628 187.363 10.4263 186.713 10.9563C186.453 11.1663 186.173 11.3563 185.933 11.5863C185.543 11.9563 185.233 12.4163 184.783 12.6863C184.253 13.0063 183.593 13.0063 182.993 12.9163C182.543 12.8563 182.053 12.7563 181.663 12.9963C181.233 13.2663 181.103 13.8563 180.703 14.1763C180.393 14.4263 179.973 14.4563 179.563 14.4563C179.373 13.9263 179.283 13.3463 179.283 12.7563C179.283 12.2263 179.353 11.7263 179.513 11.2363C179.723 11.2363 179.923 11.2463 180.123 11.2463C180.323 11.2463 180.533 11.2463 180.703 11.1363C181.013 10.9463 181.093 10.4963 181.423 10.3763C181.703 10.2663 182.013 10.4863 182.193 10.7163C182.383 10.9563 182.513 11.2463 182.743 11.4263C183.043 11.6463 183.443 11.6663 183.773 11.5563C184.123 11.4363 184.403 11.1963 184.663 10.9463C185.023 10.5663 185.363 10.1063 185.873 10.0163C186.083 9.98628 186.313 10.0263 186.523 9.99628C186.793 9.95628 187.053 9.80628 187.273 9.63628C187.593 9.39628 187.863 9.10628 188.083 8.78628C188.233 8.91628 188.363 9.04628 188.493 9.19628V9.20628Z" fill="url(#paint3_radial_0_5332)"/>
<path opacity="0.3" d="M189.823 12.1063C189.203 13.5263 187.603 14.5263 187.233 16.0663C187.123 16.4763 187.123 16.9163 186.973 17.3063C186.943 17.3863 186.903 17.4763 186.843 17.5463C186.153 17.8763 185.393 18.0563 184.573 18.0563C183.013 18.0563 181.603 17.3663 180.653 16.2963C181.183 15.0463 183.193 14.8463 184.333 14.9863C184.653 15.0263 184.983 15.0763 185.263 14.9263C185.473 14.7963 185.603 14.5563 185.763 14.3563C186.183 13.8163 186.843 13.5163 187.343 13.0363C188.143 12.2863 188.533 11.1163 189.293 10.3363C189.573 10.8763 189.763 11.4663 189.833 12.0963L189.823 12.1063Z" fill="url(#paint4_radial_0_5332)"/>
<path d="M175.563 5.15628C175.563 6.44628 174.803 7.55628 173.703 8.07628C173.283 8.27628 172.813 8.38628 172.323 8.38628C171.373 8.38628 170.503 7.96628 169.923 7.30628C169.623 6.98628 169.393 6.60628 169.263 6.18628C169.143 5.86628 169.093 5.50628 169.093 5.14628C169.093 4.82628 169.143 4.51628 169.233 4.21628C169.623 2.87628 170.863 1.90628 172.323 1.90628C173.143 1.90628 173.893 2.20628 174.463 2.71628C174.553 2.79628 174.633 2.87628 174.713 2.96628C174.903 3.17628 175.063 3.40628 175.193 3.65628C175.363 3.98628 175.483 4.35628 175.523 4.73628C175.553 4.87628 175.553 5.00628 175.553 5.14628L175.563 5.15628Z" fill="url(#paint5_radial_0_5332)"/>
<path d="M25.3531 129.016C30.6771 129.016 34.9931 124.7 34.9931 119.376C34.9931 114.052 30.6771 109.736 25.3531 109.736C20.0291 109.736 15.7131 114.052 15.7131 119.376C15.7131 124.7 20.0291 129.016 25.3531 129.016Z" fill="url(#paint6_radial_0_5332)"/>
<path d="M28.7731 63.5163C28.7731 66.2163 27.1831 68.5563 24.8831 69.6563C24.0031 70.0763 23.0131 70.3063 21.9731 70.3063C19.9731 70.3063 18.1631 69.4263 16.9431 68.0463C16.3031 67.3663 15.8331 66.5763 15.5531 65.6963C15.3131 65.0163 15.1931 64.2763 15.1931 63.5163C15.1931 62.8363 15.2831 62.1963 15.4931 61.5663C16.3131 58.7563 18.9131 56.7163 21.9831 56.7163C23.7131 56.7163 25.2831 57.3563 26.4831 58.4163C26.6731 58.5763 26.8431 58.7563 27.0131 58.9463C27.4231 59.3763 27.7531 59.8663 28.0231 60.3963C28.3831 61.0963 28.6331 61.8563 28.7131 62.6663C28.7631 62.9663 28.7831 63.2363 28.7831 63.5163H28.7731Z" fill="url(#paint7_radial_0_5332)"/>
<defs>
<radialGradient id="paint0_radial_0_5332" cx="0" cy="0" r="1" gradientUnits="userSpaceOnUse" gradientTransform="translate(96.8731 39.1263) scale(132.84 132.84)">
<stop offset="0.03" stop-color="#F2B750"/>
<stop offset="0.43" stop-color="#E2783D"/>
<stop offset="0.81" stop-color="#D6432E"/>
</radialGradient>
<linearGradient id="paint1_linear_0_5332" x1="155.293" y1="-130.224" x2="42.8531" y2="231.146" gradientUnits="userSpaceOnUse">
<stop offset="0.45" stop-color="#F2F2F0"/>
<stop offset="0.81" stop-color="#F2F2F0" stop-opacity="0"/>
</linearGradient>
<radialGradient id="paint2_radial_0_5332" cx="0" cy="0" r="1" gradientUnits="userSpaceOnUse" gradientTransform="translate(186.103 10.0163) scale(12.15 12.15)">
<stop stop-color="#A0EEE8"/>
<stop offset="0.25" stop-color="#6FA9D7"/>
<stop offset="0.47" stop-color="#4771CA"/>
<stop offset="0.58" stop-color="#385CC5"/>
</radialGradient>
<radialGradient id="paint3_radial_0_5332" cx="0" cy="0" r="1" gradientUnits="userSpaceOnUse" gradientTransform="translate(192.533 4.01628) scale(19.51 19.51)">
<stop stop-color="#A0EEE8"/>
<stop offset="0.25" stop-color="#6FA9D7"/>
<stop offset="0.47" stop-color="#4771CA"/>
<stop offset="0.58" stop-color="#385CC5"/>
</radialGradient>
<radialGradient id="paint4_radial_0_5332" cx="0" cy="0" r="1" gradientUnits="userSpaceOnUse" gradientTransform="translate(192.533 4.01628) scale(19.51 19.51)">
<stop stop-color="#A0EEE8"/>
<stop offset="0.25" stop-color="#6FA9D7"/>
<stop offset="0.47" stop-color="#4771CA"/>
<stop offset="0.58" stop-color="#385CC5"/>
</radialGradient>
<radialGradient id="paint5_radial_0_5332" cx="0" cy="0" r="1" gradientUnits="userSpaceOnUse" gradientTransform="translate(173.843 5.07628) scale(18.21 18.21)">
<stop stop-color="#A0EEE8"/>
<stop offset="0.05" stop-color="#86D7C8"/>
<stop offset="0.16" stop-color="#58AF91"/>
<stop offset="0.21" stop-color="#47A07C"/>
</radialGradient>
<radialGradient id="paint6_radial_0_5332" cx="0" cy="0" r="1" gradientUnits="userSpaceOnUse" gradientTransform="translate(24.7831 116.726) scale(12.82 12.82)">
<stop stop-color="#F5CF88"/>
<stop offset="1" stop-color="#A652E5"/>
</radialGradient>
<radialGradient id="paint7_radial_0_5332" cx="0" cy="0" r="1" gradientUnits="userSpaceOnUse" gradientTransform="translate(21.5731 59.5563) scale(12.67)">
<stop offset="0.15" stop-color="#8DF5FD"/>
<stop offset="0.5" stop-color="#4DB9DF"/>
<stop offset="0.84" stop-color="#1585C5"/>
<stop offset="1" stop-color="#0071BC"/>
</radialGradient>
</defs>
</svg>
