<svg width="142" height="141" viewBox="0 0 142 141" fill="none" xmlns="http://www.w3.org/2000/svg">
<path d="M37.3704 5.54C37.3704 5.54 40.1205 8.21 36.6805 9.84C33.2405 11.47 28.7604 12.51 26.8704 15.52C24.9804 18.53 23.6005 24.9 18.6105 22.06C18.6105 22.06 18.0905 25.85 14.2205 29.98C10.3505 34.11 8.63043 41.34 8.63043 41.34C8.63043 41.34 6.25044 40.27 4.83044 41.06C4.83044 41.06 6.96047 41.56 5.54047 44.48C4.12047 47.4 3.16046 48.82 4.16046 52.12C5.16046 55.42 6.50042 60.3 2.62042 57.92C2.62042 57.92 4.58044 63.47 3.39044 67.14C2.20044 70.81 0.830444 73.09 0.830444 73.09C0.830444 73.09 3.20043 72.43 2.82043 73.99C2.44043 75.55 1.64043 78.4 2.25043 81.19C2.86043 83.98 4.24048 87.87 4.24048 87.87C4.24048 87.87 2.77043 88.2 1.82043 87.16C0.870435 86.12 2.48048 90.24 5.18048 91.61C7.88048 92.98 9.92043 95.21 9.25043 102.7C9.25043 102.7 11.7104 101.99 14.1304 105.54C16.5504 109.09 17.2104 112.32 18.8204 113.88C18.8204 113.88 17.1605 114.45 15.6505 113.17C15.6505 113.17 15.7004 115.63 20.5804 117.62C25.4604 119.61 28.8204 122.64 29.3904 127.29C29.3904 127.29 31.5704 124.45 36.2604 126.44C40.9504 128.43 41.4204 131.7 46.6404 131.46L44.2704 133.21C44.2704 133.21 48.5805 133.59 51.2805 135.15C53.9805 136.71 57.8205 139.46 63.8405 138.94C69.8605 138.42 72.3704 138.23 76.2504 140.17C76.2504 140.17 79.0005 135.43 85.3005 135.19C91.6005 134.95 94.5405 137.04 94.5405 137.04C94.5405 137.04 97.4805 133.11 101.03 132.16C104.58 131.21 107.76 134.06 107.76 134.06C107.76 134.06 108.52 130.13 112.07 127.57C115.62 125.01 117.76 122.69 119.94 118.66C122.12 114.63 126.1 114.73 126.1 114.73C126.1 114.73 125.39 113.12 127.47 110.13C129.55 107.14 134.25 103.5 134.25 103.5C134.25 103.5 133.11 94.59 140.55 86.96C140.55 86.96 137.52 85.44 138.99 80.99C140.46 76.54 139.99 73.41 139.65 71.47C139.31 69.53 140.69 67.92 141.64 68.39C141.64 68.39 140.6 66.59 140.08 62.8C139.56 59.01 140.6 56.07 139.8 52.23C139 48.39 136.15 44.79 135.77 42.56C135.39 40.33 135.11 39.24 136.81 37.35C136.81 37.35 132.55 38.63 130.46 35.12C128.37 31.61 126.67 24.41 125.63 23.37C125.63 23.37 125.72 25.45 124.11 26.64C124.11 26.64 121.79 26.02 118.47 20.29C115.15 14.56 110.08 12.99 106.53 11.95C102.98 10.91 97.9504 3.8 94.1204 3.61C94.1204 3.61 95.6804 6.36 92.1304 5.88C88.5804 5.4 85.6404 2.18 80.7104 1C75.7804 -0.18 69.5804 3.56 64.8804 0C64.8804 0 65.6405 1.71 60.4305 1.85C55.2205 1.99 51.2905 4.88 51.2905 4.88C51.2905 4.88 50.9605 3.7 51.2905 2.46C51.2905 2.46 51.3405 1.84 47.4005 4.64C43.4705 7.44 39.3804 7.11 37.3704 5.52V5.54Z" fill="#F4BB56"/>
<path d="M134.26 77.72C133.97 82.07 133.15 86.45 131.76 91.66C131.74 91.76 131.71 91.87 131.68 91.98C129.12 101.52 124.11 103.5 119.81 109.78C117.12 113.7 115.16 116.71 112.74 119.36C111.38 120.84 109.86 122.22 108 123.56C107.87 123.67 107.73 123.76 107.59 123.86C102.12 127.7 94.0904 129.68 88.0404 130.5C81.9904 131.31 78.9605 129.92 70.9305 131.78C62.9005 133.64 61.7405 131.89 58.3605 131.31C54.9905 130.73 49.8704 130.03 45.3304 127.12C40.7904 124.21 39.1604 120.49 32.6404 118.28C26.1304 116.07 23.1004 110.02 21.3604 106.87C19.6104 103.73 15.7704 100.94 15.0704 96.52C14.6004 93.54 14.0804 92.31 12.8704 90.12C12.2804 89.05 11.5204 87.76 10.5304 85.93C7.51043 80.34 8.44046 68.7 10.1805 63.7C11.9305 58.7 10.5304 52.53 12.2804 46.36C12.9604 43.96 14.6204 40.56 16.7104 37.16C18.5204 34.19 20.6304 31.23 22.7104 28.92C24.3804 27.05 26.0104 25.62 27.4104 24.95C29.6004 23.9 31.3704 22.38 33.0404 20.69C35.2804 18.43 37.3604 15.86 40.0904 13.66C41.3104 12.68 42.5804 11.95 43.8804 11.4C46.5204 10.29 49.2904 9.9 52.0404 9.66C53.2704 9.55 54.4904 9.46 55.6904 9.36C59.9204 8.98 63.3104 7.7 66.8504 6.91C67.7004 6.72 68.5504 6.56 69.4204 6.45C80.8904 4.94 89.6305 8.83 93.9305 10.23C96.8005 11.16 102.53 14.28 106.44 16.82C108.4 18.09 109.91 19.21 110.38 19.83C111.78 21.69 121.55 31.58 128.42 40.54C132.86 46.34 133.5 52.04 133.65 57.71C133.73 60.39 133.69 63.06 133.89 65.72C133.92 66.14 133.96 66.55 134 66.96C134.41 70.79 134.5 74.25 134.26 77.72Z" fill="url(#paint0_radial_0_5321)"/>
<path opacity="0.5" d="M42.7716 96.9755C43.1916 94.6549 40.5143 92.2275 36.7917 91.5536C33.069 90.8798 29.7107 92.2148 29.2906 94.5353C28.8706 96.8558 31.5479 99.2833 35.2706 99.9571C38.9932 100.631 42.3515 99.296 42.7716 96.9755Z" fill="#F9DC74"/>
<path opacity="0.2" d="M134.26 77.72C133.97 82.07 133.15 86.45 131.76 91.66C130 89 127.38 86.37 123.49 84.43C111.52 78.45 84.8405 83.51 67.3505 70.63C49.8605 57.74 41.1205 36.12 37.9005 25.99C36.9105 22.88 35.0805 21.33 33.0405 20.69C35.2805 18.43 37.3605 15.86 40.0905 13.66C41.3105 12.68 42.5804 11.95 43.8804 11.4C44.5704 15.54 45.2604 21.86 45.2604 30.59C45.2604 48.08 67.8105 61.88 87.6005 71.55C107.38 81.21 111.52 71.55 123.49 74.77C129.08 76.27 132.35 77.18 134.26 77.72Z" fill="#D16B3F"/>
<path opacity="0.2" d="M133.89 65.72C129.52 63.53 124.42 60.41 124.24 57.7C123.92 52.94 109.31 49.45 99.7905 42.78C90.2605 36.11 68.9804 47.86 58.5004 34.84C50.2904 24.64 51.2405 13.85 52.0405 9.66C53.2705 9.55 54.4904 9.46 55.6904 9.36C59.9204 8.98 63.3105 7.7 66.8505 6.91C66.4805 9.27 65.7205 12.28 64.2205 15.78C60.4105 24.68 61.0405 30.39 71.2105 33.88C81.3705 37.38 91.8504 34.2 101.37 39.92C110.9 45.63 122.97 46.59 128.05 54.21C130.1 57.29 132.06 57.98 133.65 57.71C133.73 60.39 133.69 63.06 133.89 65.72Z" fill="#D16B3F"/>
<path opacity="0.5" d="M86.3481 27.4671C86.8734 24.5651 83.5236 21.5291 78.8662 20.686C74.2088 19.843 70.0074 21.5122 69.4821 24.4142C68.9568 27.3163 72.3066 30.3522 76.964 31.1953C81.6214 32.0383 85.8228 30.3692 86.3481 27.4671Z" fill="#F9DC74"/>
<path opacity="0.2" d="M112.74 119.36C111.38 120.84 109.86 122.22 108 123.56C105.06 115.32 99.0704 107.92 90.6704 106.01C84.7104 104.66 78.5304 106.25 72.4204 106.51C64.8704 106.84 56.6404 104.7 52.1004 98.65C50.2204 96.15 49.1004 93.16 47.2804 90.63C42.7604 84.33 33.7505 81.71 26.5505 84.6C23.5905 85.78 21.0005 87.76 18.0505 88.94C16.3805 89.61 14.6304 89.99 12.8704 90.12C12.2804 89.05 11.5204 87.76 10.5304 85.93C7.51043 80.34 8.44046 68.7 10.1805 63.7C11.9305 58.7 10.5304 52.53 12.2804 46.36C12.9604 43.96 14.6204 40.56 16.7104 37.16C17.3904 40.16 17.7205 43.51 18.6805 46.25C20.2705 50.79 22.4204 55.14 25.0604 59.16C30.2004 66.99 37.1904 73.62 45.4104 78.11C47.9204 79.48 50.6504 80.77 52.1904 83.17C53.8804 85.82 53.7305 89.21 54.6805 92.21C56.2605 97.2 61.2304 100.91 66.4604 101C70.4804 101.08 74.2504 99.26 78.1004 98.08C82.1604 96.84 86.4405 96.31 90.6805 96.51C97.4505 96.84 104.61 99.45 108.19 105.2C109.61 107.49 110.37 110.12 111.07 112.72C111.67 114.92 112.23 117.14 112.74 119.36Z" fill="#D16B3F"/>
<path opacity="0.5" d="M82.7805 112.37L76.0505 112.28C75.1705 112.27 74.2004 112.3 73.5704 112.91C72.7904 113.67 72.9604 115.04 73.6504 115.87C74.3404 116.7 75.4204 117.11 76.4604 117.41C79.1804 118.2 82.0504 118.5 84.8804 118.28C85.1204 118.26 85.3704 118.24 85.5704 118.1C85.9804 117.82 85.9904 117.22 85.8304 116.75C85.2204 114.88 84.6604 112.88 82.7704 112.37" fill="#F9DC74"/>
<path opacity="0.5" d="M107.529 68.5588C107.949 66.2383 105.272 63.8108 101.549 63.137C97.8265 62.4632 94.4681 63.7981 94.0481 66.1186C93.6281 68.4392 96.3053 70.8666 100.028 71.5405C103.751 72.2143 107.109 70.8794 107.529 68.5588Z" fill="#F9DC74"/>
<defs>
<radialGradient id="paint0_radial_0_5321" cx="0" cy="0" r="1" gradientUnits="userSpaceOnUse" gradientTransform="translate(109.43 40.01) scale(162.14 162.14)">
<stop offset="0.03" stop-color="#F2B750"/>
<stop offset="0.08" stop-color="#F0B34D"/>
<stop offset="0.81" stop-color="#D67E2E"/>
</radialGradient>
</defs>
</svg>
