<svg width="194" height="133" viewBox="0 0 194 133" fill="none" xmlns="http://www.w3.org/2000/svg">
<g filter="url(#filter0_f_0_5307)">
<path d="M86.6554 57.044C103.92 85.9284 135.088 114.052 143.602 117.032C138.919 110.646 130.082 92.1037 86.6554 57.044Z" fill="white"/>
</g>
<path d="M138.205 62.2682C151.267 49.1893 161.48 36.425 166.953 26.3027C172.619 15.8348 173.143 8.65258 168.467 5.53019C162.766 1.72849 149.979 4.45974 132.47 13.2298C114.961 21.9999 94.8162 35.7516 75.7431 51.9637C68.7029 57.9468 62.0532 64.0674 55.97 70.1536C42.9075 83.2324 32.6949 95.9968 27.2127 106.122C21.5462 116.59 21.0225 123.772 25.698 126.895C31.3997 130.696 44.1861 127.965 61.6952 119.195C79.2043 110.425 99.3492 96.6732 118.422 80.4612C125.463 74.478 132.112 68.3574 138.195 62.2713L138.205 62.2682Z" fill="url(#paint0_radial_0_5307)"/>
<path d="M42.9306 120.408C62.6992 118.527 102.979 92.7278 132.883 62.7972C162.796 32.8636 171.01 10.1234 151.235 12.017C131.466 13.898 91.1869 39.697 61.2828 69.6276C31.3787 99.5581 23.165 122.298 42.9306 120.408Z" fill="url(#paint1_radial_0_5307)"/>
<path d="M45.8994 120.202C52.7754 118.787 61.6736 115.096 71.6749 109.571C85.0121 102.201 100.281 91.6178 115.192 78.9338C149.544 49.7416 169.067 20.5116 158.796 13.6584C150.911 8.38266 127.717 17.8609 101.802 35.7923C100.995 36.3553 100.172 36.9339 99.3591 37.5094C92.3308 42.4807 85.1308 48.0636 78.0075 54.1154C43.6561 83.3076 24.1332 112.538 34.4037 119.391C36.8733 121.036 40.8271 121.25 45.8994 120.202Z" fill="url(#paint2_radial_0_5307)"/>
<path d="M69.671 93.5489C73.1677 92.8277 77.709 90.9423 82.805 88.1336C89.6041 84.3803 97.3775 78.9813 104.97 72.527C122.469 57.6595 132.418 42.7637 127.184 39.2743C123.164 36.5928 111.353 41.4164 98.1501 50.55C97.7388 50.8393 97.3179 51.1316 96.9065 51.4209C93.3285 53.9533 89.6615 56.7977 86.0296 59.8829C68.5313 74.7503 58.5816 89.6461 63.8157 93.1356C65.0709 93.9725 67.0905 94.0816 69.671 93.5489Z" fill="url(#paint3_radial_0_5307)"/>
<g filter="url(#filter1_f_0_5307)">
<path d="M133.459 33.9384L138.186 35.9409L133.121 36.7784L131.119 41.5048L130.291 36.4416L125.565 34.439L130.629 33.6016L132.621 28.8839L133.459 33.9384Z" fill="url(#paint4_linear_0_5307)"/>
</g>
<g filter="url(#filter2_f_0_5307)">
<path d="M50.2999 102.187L55.4246 102.482L50.9375 104.975L50.6426 110.1L48.1495 105.613L43.0345 105.316L47.5119 102.825L47.809 97.71L50.2999 102.187Z" fill="url(#paint5_linear_0_5307)"/>
</g>
<g filter="url(#filter3_f_0_5307)">
<path d="M143.73 72.9229L147.408 75.2071L143.076 75.2424L140.779 78.9274L140.746 74.5855L137.061 72.289L141.401 72.266L143.697 68.581L143.73 72.9229Z" fill="url(#paint6_linear_0_5307)"/>
</g>
<g filter="url(#filter4_f_0_5307)">
<path d="M55.3272 53.3858L59.0663 55.5686L54.7366 55.7223L52.5416 59.4686L52.3904 55.1292L48.6441 52.9342L52.981 52.7927L55.176 49.0464L55.3272 53.3858Z" fill="url(#paint7_linear_0_5307)"/>
</g>
<g filter="url(#filter5_f_0_5307)">
<path d="M45.3638 13.6239C62.628 42.5083 93.7966 70.6318 102.31 73.6116C97.6278 67.2263 88.79 48.6836 45.3638 13.6239Z" fill="white"/>
</g>
<g filter="url(#filter6_f_0_5307)">
<circle cx="94.7768" cy="66.8371" r="10.868" fill="white"/>
</g>
<defs>
<filter id="filter0_f_0_5307" x="78.6554" y="49.044" width="72.9466" height="75.9877" filterUnits="userSpaceOnUse" color-interpolation-filters="sRGB">
<feFlood flood-opacity="0" result="BackgroundImageFix"/>
<feBlend mode="normal" in="SourceGraphic" in2="BackgroundImageFix" result="shape"/>
<feGaussianBlur stdDeviation="4" result="effect1_foregroundBlur_0_5307"/>
</filter>
<filter id="filter1_f_0_5307" x="122.565" y="25.8839" width="18.6209" height="18.621" filterUnits="userSpaceOnUse" color-interpolation-filters="sRGB">
<feFlood flood-opacity="0" result="BackgroundImageFix"/>
<feBlend mode="normal" in="SourceGraphic" in2="BackgroundImageFix" result="shape"/>
<feGaussianBlur stdDeviation="1.5" result="effect1_foregroundBlur_0_5307"/>
</filter>
<filter id="filter2_f_0_5307" x="40.0345" y="94.71" width="18.3901" height="18.3901" filterUnits="userSpaceOnUse" color-interpolation-filters="sRGB">
<feFlood flood-opacity="0" result="BackgroundImageFix"/>
<feBlend mode="normal" in="SourceGraphic" in2="BackgroundImageFix" result="shape"/>
<feGaussianBlur stdDeviation="1.5" result="effect1_foregroundBlur_0_5307"/>
</filter>
<filter id="filter3_f_0_5307" x="134.061" y="65.5811" width="16.3464" height="16.3463" filterUnits="userSpaceOnUse" color-interpolation-filters="sRGB">
<feFlood flood-opacity="0" result="BackgroundImageFix"/>
<feBlend mode="normal" in="SourceGraphic" in2="BackgroundImageFix" result="shape"/>
<feGaussianBlur stdDeviation="1.5" result="effect1_foregroundBlur_0_5307"/>
</filter>
<filter id="filter4_f_0_5307" x="45.6441" y="46.0464" width="16.4222" height="16.4222" filterUnits="userSpaceOnUse" color-interpolation-filters="sRGB">
<feFlood flood-opacity="0" result="BackgroundImageFix"/>
<feBlend mode="normal" in="SourceGraphic" in2="BackgroundImageFix" result="shape"/>
<feGaussianBlur stdDeviation="1.5" result="effect1_foregroundBlur_0_5307"/>
</filter>
<filter id="filter5_f_0_5307" x="37.3638" y="5.62393" width="72.9466" height="75.9877" filterUnits="userSpaceOnUse" color-interpolation-filters="sRGB">
<feFlood flood-opacity="0" result="BackgroundImageFix"/>
<feBlend mode="normal" in="SourceGraphic" in2="BackgroundImageFix" result="shape"/>
<feGaussianBlur stdDeviation="4" result="effect1_foregroundBlur_0_5307"/>
</filter>
<filter id="filter6_f_0_5307" x="74.9089" y="46.9691" width="39.7359" height="39.7359" filterUnits="userSpaceOnUse" color-interpolation-filters="sRGB">
<feFlood flood-opacity="0" result="BackgroundImageFix"/>
<feBlend mode="normal" in="SourceGraphic" in2="BackgroundImageFix" result="shape"/>
<feGaussianBlur stdDeviation="4.5" result="effect1_foregroundBlur_0_5307"/>
</filter>
<radialGradient id="paint0_radial_0_5307" cx="0" cy="0" r="1" gradientUnits="userSpaceOnUse" gradientTransform="translate(98.8703 72.2682) rotate(132.374) scale(137.308 41.1261)">
<stop offset="0.0144231" stop-color="#BD71EB"/>
<stop offset="0.293269" stop-color="#AC5AE6" stop-opacity="0.1"/>
<stop offset="0.391671" stop-color="#A652E5" stop-opacity="0"/>
<stop offset="0.875" stop-color="#D895F2" stop-opacity="0.73"/>
</radialGradient>
<radialGradient id="paint1_radial_0_5307" cx="0" cy="0" r="1" gradientUnits="userSpaceOnUse" gradientTransform="translate(73.2305 90.1768) rotate(134.976) scale(76.6521 22.9586)">
<stop offset="0.06" stop-color="#EBAEF7"/>
<stop offset="1" stop-color="#A652E5" stop-opacity="0"/>
</radialGradient>
<radialGradient id="paint2_radial_0_5307" cx="0" cy="0" r="1" gradientUnits="userSpaceOnUse" gradientTransform="translate(96.915 68.4417) rotate(141.184) scale(120.244 31.6038)">
<stop stop-color="#7AD8E8"/>
<stop offset="0.552885" stop-color="#91CFEB" stop-opacity="0"/>
<stop offset="0.663462" stop-color="#CDB8F3"/>
<stop offset="1" stop-color="#EBAEF7"/>
</radialGradient>
<radialGradient id="paint3_radial_0_5307" cx="0" cy="0" r="1" gradientUnits="userSpaceOnUse" gradientTransform="translate(101.672 62.4709) rotate(136.196) scale(78.5324 23.5218)">
<stop stop-color="#7AD8E8"/>
<stop offset="0.466346" stop-color="#91E2EC" stop-opacity="0"/>
<stop offset="1" stop-color="#9DE8EE"/>
</radialGradient>
<linearGradient id="paint4_linear_0_5307" x1="133.978" y1="30.6769" x2="123.958" y2="52.1734" gradientUnits="userSpaceOnUse">
<stop offset="0.45" stop-color="#F2F2F0"/>
<stop offset="0.81" stop-color="#F2F2F0" stop-opacity="0"/>
</linearGradient>
<linearGradient id="paint5_linear_0_5307" x1="49.6909" y1="98.9415" x2="47.4903" y2="122.556" gradientUnits="userSpaceOnUse">
<stop offset="0.45" stop-color="#F2F2F0"/>
<stop offset="0.81" stop-color="#F2F2F0" stop-opacity="0"/>
</linearGradient>
<linearGradient id="paint6_linear_0_5307" x1="144.596" y1="70.2579" x2="133.387" y2="86.9003" gradientUnits="userSpaceOnUse">
<stop offset="0.45" stop-color="#F2F2F0"/>
<stop offset="0.81" stop-color="#F2F2F0" stop-opacity="0"/>
</linearGradient>
<linearGradient id="paint7_linear_0_5307" x1="56.12" y1="50.6981" x2="45.3703" y2="67.6404" gradientUnits="userSpaceOnUse">
<stop offset="0.45" stop-color="#F2F2F0"/>
<stop offset="0.81" stop-color="#F2F2F0" stop-opacity="0"/>
</linearGradient>
</defs>
</svg>
