<svg width="191" height="190" viewBox="0 0 191 190" fill="none" xmlns="http://www.w3.org/2000/svg">
<path d="M52.21 46.7222C67.26 43.5022 80.28 43.9022 94.55 51.4522C99.11 53.8622 107.57 59.3922 111.26 65.5822C106.06 57.7522 85.12 47.6322 53.49 66.4822C22.97 84.6822 14.73 124.302 17.84 152.092C10.72 141.342 6.06997 128.742 4.72997 115.012C3.11997 98.4822 7.80999 81.0922 19.18 68.7322C28.65 58.4322 38.5999 49.6322 52.1999 46.7222H52.21Z" fill="url(#paint0_linear_0_5379)"/>
<path d="M30.84 86.3422C40.3 74.2022 50.53 66.1422 66.32 62.7522C71.36 61.6722 81.39 60.4622 88.2 62.8322C79.18 60.1722 56.64 65.8822 44.53 100.662C32.84 134.222 52 169.872 72.25 189.152C59.88 185.492 48.22 178.832 38.37 169.172C26.51 157.542 18.93 141.202 19.69 124.432C20.33 110.452 22.29 97.3122 30.83 86.3422H30.84Z" fill="url(#paint1_linear_0_5379)"/>
<path d="M39.94 130.422C39.38 115.042 42.04 102.292 51.96 89.5422C55.13 85.4722 62.04 78.1022 68.77 75.5322C60.15 79.2922 46.55 98.1522 59.63 132.582C72.25 165.802 109.84 180.792 137.75 182.552C125.92 187.702 112.71 190.092 98.96 189.022C82.4 187.732 66.09 180.092 55.89 166.752C47.39 155.632 40.45 144.312 39.95 130.412L39.94 130.422Z" fill="url(#paint2_linear_0_5379)"/>
<path d="M75.24 158.352C64.93 146.932 58.77 135.452 58.17 119.312C57.98 114.162 58.54 104.072 62.05 97.7722C57.87 106.192 59.57 129.382 91.72 147.352C122.74 164.692 161.17 152.012 183.68 135.422C177.93 146.972 169.35 157.292 158.12 165.312C144.6 174.972 127.2 179.602 110.81 175.942C97.16 172.892 84.55 168.672 75.24 158.352Z" fill="url(#paint3_linear_0_5379)"/>
<path d="M120.23 157.052C104.99 154.932 92.89 150.102 82.06 138.122C78.6 134.292 72.54 126.212 71.19 119.132C73.4 128.272 89.61 144.942 125.78 138.042C160.69 131.382 181.98 96.9722 188.56 69.7922C191.58 82.3322 191.64 95.7621 188.2 109.122C184.06 125.212 173.7 139.942 158.79 147.672C146.37 154.112 134.01 158.982 120.23 157.062V157.052Z" fill="url(#paint4_linear_0_5379)"/>
<path d="M153.86 127.132C140.82 135.302 128.45 139.382 112.45 137.162C107.34 136.452 97.51 134.152 91.91 129.602C99.48 135.182 122.61 137.532 145.89 108.992C168.35 81.4522 162.54 41.4022 150.11 16.3522C160.48 24.0222 169.16 34.2622 175.11 46.7122C182.28 61.7022 183.82 79.6422 177.36 95.1422C171.98 108.062 165.64 119.732 153.86 127.122V127.132Z" fill="url(#paint5_linear_0_5379)"/>
<path d="M160.39 82.5921C155.65 97.2321 148.8 108.312 135.12 116.892C130.75 119.632 121.74 124.192 114.53 124.302C123.91 123.712 143.15 110.642 142.63 73.8222C142.13 38.2922 111.94 11.3422 86.31 0.152158C99.19 -0.637842 112.42 1.63216 124.97 7.34216C140.09 14.2222 152.81 26.9721 157.83 43.0021C162.01 56.3521 164.66 69.3722 160.38 82.6022L160.39 82.5921Z" fill="url(#paint6_linear_0_5379)"/>
<path d="M136.77 44.2822C142.55 58.5422 144.42 71.4322 139.46 86.8022C137.88 91.7122 133.9 101.002 128.45 105.712C135.26 99.2322 141.59 76.8521 117.53 48.9722C94.31 22.0722 53.86 20.8422 27.03 28.7322C36.38 19.8522 47.98 13.0822 61.27 9.38216C77.27 4.93216 95.21 6.52216 109.36 15.5722C121.15 23.1122 131.55 31.3822 136.77 44.2622V44.2822Z" fill="url(#paint7_linear_0_5379)"/>
<path d="M94.05 30.1122C107.64 37.3222 117.36 45.9922 123.44 60.9522C125.38 65.7322 128.31 75.4022 127.16 82.5122C128.21 73.1722 118.68 51.9622 82.33 46.0722C47.25 40.3922 15.47 65.4422 0 88.7422C1.46 75.9222 5.98998 63.2922 13.79 51.9122C23.19 38.2122 37.96 27.9122 54.61 25.7422C68.49 23.9422 81.77 23.5922 94.05 30.1022V30.1122Z" fill="url(#paint8_linear_0_5379)"/>
<path d="M44.905 67.9892L44.935 70.5392L42.105 74.4492L34.575 74.3092L33.045 72.7992L44.905 67.9892Z" fill="url(#paint9_linear_0_5379)"/>
<path d="M40.405 61.9592L44.905 67.9892L41.015 73.0992L33.045 72.7992L33.765 65.1292L40.405 61.9592Z" fill="url(#paint10_linear_0_5379)"/>
<path d="M137.595 46.5993C137.655 47.3693 137.255 48.0993 136.565 48.4693C135.575 49.0093 134.105 49.8793 132.925 50.9293C131.985 51.7793 128.195 49.9193 126.875 49.1993C125.545 48.4793 123.365 47.4593 123.365 47.4593C123.025 46.7393 123.275 45.6293 123.595 44.6293C123.785 44.0693 123.985 43.5393 124.125 43.1293C124.525 41.9593 124.605 40.8793 126.135 40.1593C127.655 39.4393 129.025 37.3893 129.745 37.0693C130.465 36.7493 130.425 37.1093 132.235 37.5893C134.035 38.0693 136.245 38.3093 136.645 38.5493C136.915 38.7193 137.295 42.8593 137.505 45.5693C137.545 45.9493 137.575 46.2893 137.595 46.5993Z" fill="url(#paint11_linear_0_5379)"/>
<path d="M137.595 46.5993C137.655 47.3693 137.255 48.0993 136.565 48.4693C135.575 49.0093 134.105 49.8793 132.925 50.9293C131.985 51.7793 128.195 49.9193 126.875 49.1993C125.545 48.4793 123.365 47.4593 123.365 47.4593C123.025 46.7393 123.275 45.6293 123.595 44.6293C123.995 45.2193 124.945 46.4093 126.565 47.1893C128.795 48.2493 130.685 49.7293 132.505 49.0093C133.995 48.4193 136.595 46.3193 137.505 45.5693C137.545 45.9493 137.575 46.2893 137.595 46.5993Z" fill="url(#paint12_linear_0_5379)"/>
<path d="M148.875 68.6292L148.855 69.9892L150.365 72.0692L154.375 71.9892L155.185 71.1892L148.875 68.6292Z" fill="url(#paint13_linear_0_5379)"/>
<path d="M151.265 65.4192L148.875 68.6292L150.945 71.3492L155.185 71.1892L154.805 67.1092L151.265 65.4192Z" fill="url(#paint14_linear_0_5379)"/>
<path d="M161.585 134.459L157.395 138.749C156.855 139.309 156.005 139.359 155.385 138.909L149.635 134.569C148.965 134.069 148.835 133.139 149.305 132.469L152.175 128.489C152.455 128.099 152.905 127.869 153.375 127.849L157.955 127.759C158.495 127.759 158.995 128.029 159.275 128.489L161.665 132.399L161.785 132.599C162.145 133.199 162.065 133.959 161.575 134.459H161.585Z" fill="url(#paint15_linear_0_5379)"/>
<path d="M161.675 132.399C161.635 132.469 161.575 132.539 161.515 132.599L157.325 136.889C156.785 137.429 155.935 137.499 155.325 137.039L149.555 132.699C149.465 132.629 149.385 132.549 149.305 132.459L152.175 128.479C152.455 128.089 152.905 127.859 153.375 127.839L157.955 127.749C158.495 127.749 158.995 128.019 159.275 128.479L161.665 132.389L161.675 132.399Z" fill="url(#paint16_linear_0_5379)"/>
<path d="M45.905 119.279L45.975 125.279C45.985 126.049 45.425 126.699 44.665 126.809L37.535 127.809C36.715 127.929 35.955 127.369 35.815 126.559L35.035 121.719C34.965 121.249 35.115 120.769 35.435 120.419L38.605 117.119C38.985 116.739 39.535 116.579 40.055 116.699L44.505 117.769L44.735 117.829C45.415 117.999 45.895 118.599 45.905 119.289V119.279Z" fill="url(#paint17_linear_0_5379)"/>
<path d="M44.505 117.759C44.525 117.839 44.535 117.929 44.535 118.019L44.605 124.019C44.605 124.779 44.055 125.439 43.295 125.539L36.155 126.549C36.045 126.559 35.925 126.569 35.815 126.549L35.035 121.709C34.965 121.239 35.115 120.759 35.435 120.409L38.605 117.109C38.985 116.729 39.535 116.569 40.055 116.689L44.505 117.759Z" fill="url(#paint18_linear_0_5379)"/>
<path d="M102.535 165.299C102.565 165.709 102.355 166.099 101.985 166.299C101.455 166.589 100.665 167.059 100.035 167.619C99.5351 168.079 97.4951 167.079 96.7951 166.689C96.0851 166.299 94.9151 165.759 94.9151 165.759C94.7351 165.369 94.8651 164.779 95.0351 164.239C95.1351 163.939 95.2451 163.659 95.3151 163.439C95.5251 162.809 95.5751 162.229 96.3951 161.849C97.2151 161.459 97.9451 160.359 98.3351 160.189C98.7251 160.019 98.6951 160.209 99.6751 160.469C100.645 160.729 101.825 160.859 102.035 160.979C102.175 161.069 102.385 163.289 102.495 164.739C102.515 164.939 102.535 165.129 102.545 165.289L102.535 165.299Z" fill="url(#paint19_linear_0_5379)"/>
<path d="M102.535 165.299C102.565 165.709 102.355 166.099 101.985 166.299C101.455 166.589 100.665 167.059 100.035 167.619C99.5351 168.079 97.4951 167.079 96.7951 166.689C96.0851 166.299 94.9151 165.759 94.9151 165.759C94.7351 165.369 94.8651 164.779 95.0351 164.239C95.2451 164.559 95.7551 165.189 96.6251 165.609C97.8251 166.179 98.8351 166.969 99.8151 166.589C100.615 166.269 102.005 165.149 102.495 164.749C102.515 164.949 102.535 165.139 102.545 165.299H102.535Z" fill="url(#paint20_linear_0_5379)"/>
<path d="M86.085 33.3693C86.115 33.7793 85.905 34.1693 85.535 34.3693C85.005 34.6593 84.215 35.1293 83.585 35.6893C83.085 36.1493 81.045 35.1493 80.345 34.7593C79.635 34.3693 78.465 33.8293 78.465 33.8293C78.285 33.4393 78.415 32.8493 78.585 32.3093C78.685 32.0093 78.795 31.7293 78.865 31.5093C79.075 30.8793 79.125 30.2993 79.945 29.9193C80.765 29.5293 81.495 28.4293 81.885 28.2593C82.275 28.0893 82.245 28.2793 83.225 28.5393C84.195 28.7993 85.375 28.9293 85.585 29.0493C85.725 29.1393 85.935 31.3593 86.045 32.8093C86.065 33.0093 86.085 33.1993 86.095 33.3593L86.085 33.3693Z" fill="url(#paint21_linear_0_5379)"/>
<path d="M86.085 33.3693C86.115 33.7793 85.905 34.1693 85.535 34.3693C85.005 34.6593 84.215 35.1293 83.585 35.6893C83.085 36.1493 81.045 35.1493 80.345 34.7593C79.635 34.3693 78.465 33.8293 78.465 33.8293C78.285 33.4393 78.415 32.8493 78.585 32.3093C78.795 32.6293 79.305 33.2593 80.175 33.6793C81.375 34.2493 82.385 35.0393 83.365 34.6593C84.165 34.3393 85.555 33.2193 86.045 32.8193C86.065 33.0193 86.085 33.2093 86.095 33.3693H86.085Z" fill="url(#paint22_linear_0_5379)"/>
<defs>
<linearGradient id="paint0_linear_0_5379" x1="-59.3786" y1="146.636" x2="200.164" y2="14.5556" gradientUnits="userSpaceOnUse">
<stop offset="0.06" stop-color="#EBAEF7"/>
<stop offset="0.58" stop-color="#A652E5"/>
<stop offset="1" stop-color="#340C70"/>
</linearGradient>
<linearGradient id="paint1_linear_0_5379" x1="9.97125" y1="234.771" x2="123.107" y2="-33.5719" gradientUnits="userSpaceOnUse">
<stop offset="0.289208" stop-color="#EBAEF7"/>
<stop offset="0.58" stop-color="#A652E5"/>
<stop offset="1" stop-color="#340C70"/>
</linearGradient>
<linearGradient id="paint2_linear_0_5379" x1="118.949" y1="257.67" x2="33.944" y2="-20.8647" gradientUnits="userSpaceOnUse">
<stop offset="0.06" stop-color="#EBAEF7"/>
<stop offset="0.58" stop-color="#A652E5"/>
<stop offset="1" stop-color="#340C70"/>
</linearGradient>
<linearGradient id="paint3_linear_0_5379" x1="232.968" y1="241.991" x2="-4.94079" y2="263.988" gradientUnits="userSpaceOnUse">
<stop offset="0.322115" stop-color="#EBAEF7"/>
<stop offset="0.58" stop-color="#A652E5"/>
<stop offset="1" stop-color="#340C70"/>
</linearGradient>
<linearGradient id="paint4_linear_0_5379" x1="259.268" y1="101.334" x2="-29.7967" y2="136.681" gradientUnits="userSpaceOnUse">
<stop offset="0.06" stop-color="#EBAEF7"/>
<stop offset="0.58" stop-color="#A652E5"/>
<stop offset="1" stop-color="#340C70"/>
</linearGradient>
<linearGradient id="paint5_linear_0_5379" x1="224.556" y1="-4.92513" x2="25.8403" y2="207.959" gradientUnits="userSpaceOnUse">
<stop offset="0.322115" stop-color="#EBAEF7"/>
<stop offset="0.58" stop-color="#A652E5"/>
<stop offset="1" stop-color="#340C70"/>
</linearGradient>
<linearGradient id="paint6_linear_0_5379" x1="129.665" y1="-64.003" x2="114.279" y2="226.808" gradientUnits="userSpaceOnUse">
<stop offset="0.06" stop-color="#EBAEF7"/>
<stop offset="0.58" stop-color="#A652E5"/>
<stop offset="1" stop-color="#340C70"/>
</linearGradient>
<linearGradient id="paint7_linear_0_5379" x1="19.0038" y1="-48.2724" x2="194.147" y2="184.392" gradientUnits="userSpaceOnUse">
<stop offset="0.06" stop-color="#EBAEF7"/>
<stop offset="0.58" stop-color="#A652E5"/>
<stop offset="1" stop-color="#340C70"/>
</linearGradient>
<linearGradient id="paint8_linear_0_5379" x1="-55.6553" y1="34.9212" x2="228.066" y2="100.572" gradientUnits="userSpaceOnUse">
<stop offset="0.290507" stop-color="#EBAEF7"/>
<stop offset="0.58" stop-color="#A652E5"/>
<stop offset="1" stop-color="#340C70"/>
</linearGradient>
<linearGradient id="paint9_linear_0_5379" x1="35.755" y1="61.7392" x2="39.605" y2="72.0992" gradientUnits="userSpaceOnUse">
<stop offset="0.06" stop-color="#898992"/>
<stop offset="0.58" stop-color="#63636C"/>
<stop offset="1" stop-color="#340C70"/>
</linearGradient>
<linearGradient id="paint10_linear_0_5379" x1="32.345" y1="45.5892" x2="41.575" y2="80.1492" gradientUnits="userSpaceOnUse">
<stop offset="0.06" stop-color="#898992"/>
<stop offset="0.58" stop-color="#63636C"/>
<stop offset="1" stop-color="#340C70"/>
</linearGradient>
<linearGradient id="paint11_linear_0_5379" x1="141.805" y1="27.3693" x2="119.855" y2="62.4493" gradientUnits="userSpaceOnUse">
<stop offset="0.06" stop-color="#898992"/>
<stop offset="0.58" stop-color="#63636C"/>
<stop offset="1" stop-color="#340C70"/>
</linearGradient>
<linearGradient id="paint12_linear_0_5379" x1="134.815" y1="30.0993" x2="129.185" y2="51.0893" gradientUnits="userSpaceOnUse">
<stop offset="0.06" stop-color="#898992"/>
<stop offset="0.58" stop-color="#63636C"/>
<stop offset="1" stop-color="#1A1A1A"/>
</linearGradient>
<linearGradient id="paint13_linear_0_5379" x1="153.745" y1="65.2992" x2="151.695" y2="70.8192" gradientUnits="userSpaceOnUse">
<stop offset="0.06" stop-color="#898992"/>
<stop offset="0.58" stop-color="#63636C"/>
<stop offset="1" stop-color="#340C70"/>
</linearGradient>
<linearGradient id="paint14_linear_0_5379" x1="156.225" y1="59.9492" x2="146.845" y2="82.2492" gradientUnits="userSpaceOnUse">
<stop offset="0.06" stop-color="#898992"/>
<stop offset="0.58" stop-color="#63636C"/>
<stop offset="1" stop-color="#340C70"/>
</linearGradient>
<linearGradient id="paint15_linear_0_5379" x1="162.606" y1="103.211" x2="153.309" y2="142.765" gradientUnits="userSpaceOnUse">
<stop offset="0.06" stop-color="#898992"/>
<stop offset="0.58" stop-color="#63636C"/>
<stop offset="1" stop-color="#1A1A1A"/>
</linearGradient>
<linearGradient id="paint16_linear_0_5379" x1="149.109" y1="146.637" x2="172.85" y2="93.7775" gradientUnits="userSpaceOnUse">
<stop offset="0.06" stop-color="#898992"/>
<stop offset="0.58" stop-color="#63636C"/>
<stop offset="1" stop-color="#340C70"/>
</linearGradient>
<linearGradient id="paint17_linear_0_5379" x1="24.5288" y1="96.4495" x2="45.9236" y2="130.992" gradientUnits="userSpaceOnUse">
<stop offset="0.06" stop-color="#898992"/>
<stop offset="0.58" stop-color="#63636C"/>
<stop offset="1" stop-color="#1A1A1A"/>
</linearGradient>
<linearGradient id="paint18_linear_0_5379" x1="45.6907" y1="136.691" x2="25.1021" y2="82.5351" gradientUnits="userSpaceOnUse">
<stop offset="0.06" stop-color="#898992"/>
<stop offset="0.58" stop-color="#63636C"/>
<stop offset="1" stop-color="#340C70"/>
</linearGradient>
<linearGradient id="paint19_linear_0_5379" x1="104.785" y1="154.989" x2="93.0151" y2="173.799" gradientUnits="userSpaceOnUse">
<stop offset="0.06" stop-color="#898992"/>
<stop offset="0.58" stop-color="#63636C"/>
<stop offset="1" stop-color="#340C70"/>
</linearGradient>
<linearGradient id="paint20_linear_0_5379" x1="101.045" y1="156.459" x2="98.0151" y2="167.709" gradientUnits="userSpaceOnUse">
<stop offset="0.06" stop-color="#898992"/>
<stop offset="0.58" stop-color="#63636C"/>
<stop offset="1" stop-color="#1A1A1A"/>
</linearGradient>
<linearGradient id="paint21_linear_0_5379" x1="88.345" y1="23.0493" x2="76.575" y2="41.8593" gradientUnits="userSpaceOnUse">
<stop offset="0.06" stop-color="#898992"/>
<stop offset="0.58" stop-color="#63636C"/>
<stop offset="1" stop-color="#340C70"/>
</linearGradient>
<linearGradient id="paint22_linear_0_5379" x1="84.595" y1="24.5193" x2="81.575" y2="35.7693" gradientUnits="userSpaceOnUse">
<stop offset="0.06" stop-color="#898992"/>
<stop offset="0.58" stop-color="#63636C"/>
<stop offset="1" stop-color="#1A1A1A"/>
</linearGradient>
</defs>
</svg>
