<svg width="288" height="288" viewBox="0 0 288 288" fill="none" xmlns="http://www.w3.org/2000/svg">
<g clip-path="url(#clip0_335_1263)">
<mask id="mask0_335_1263" style="mask-type:luminance" maskUnits="userSpaceOnUse" x="0" y="0" width="289" height="288">
<path d="M288.001 0H0V288H288.001V0Z" fill="white"/>
</mask>
<g mask="url(#mask0_335_1263)">
<path d="M11.6061 1.26694C12.3111 1.26694 12.8831 0.694937 12.8831 -0.0110625C12.8831 -0.717062 12.3111 -1.28906 11.6061 -1.28906C10.9001 -1.28906 10.3281 -0.717062 10.3281 -0.0110625C10.3281 0.694937 10.9001 1.26694 11.6061 1.26694Z" fill="#36363E"/>
<path d="M26.0065 1.26694C26.7125 1.26694 27.2845 0.694937 27.2845 -0.0110625C27.2845 -0.717062 26.7125 -1.28906 26.0065 -1.28906C25.3015 -1.28906 24.7295 -0.717062 24.7295 -0.0110625C24.7295 0.694937 25.3015 1.26694 26.0065 1.26694Z" fill="#36363E"/>
<path d="M40.4059 1.26694C41.1109 1.26694 41.6829 0.694937 41.6829 -0.0110625C41.6829 -0.717062 41.1109 -1.28906 40.4059 -1.28906C39.6999 -1.28906 39.1279 -0.717062 39.1279 -0.0110625C39.1279 0.694937 39.6999 1.26694 40.4059 1.26694Z" fill="#36363E"/>
<path d="M54.8063 1.26694C55.5123 1.26694 56.0843 0.694937 56.0843 -0.0110625C56.0843 -0.717062 55.5123 -1.28906 54.8063 -1.28906C54.1013 -1.28906 53.5293 -0.717062 53.5293 -0.0110625C53.5293 0.694937 54.1013 1.26694 54.8063 1.26694Z" fill="#36363E"/>
<path d="M69.2067 1.26694C69.9125 1.26694 70.4847 0.694757 70.4847 -0.0110625C70.4847 -0.716882 69.9125 -1.28906 69.2067 -1.28906C68.5009 -1.28906 67.9287 -0.716882 67.9287 -0.0110625C67.9287 0.694757 68.5009 1.26694 69.2067 1.26694Z" fill="#36363E"/>
<path d="M83.6061 1.26694C84.3111 1.26694 84.8831 0.694937 84.8831 -0.0110625C84.8831 -0.717062 84.3111 -1.28906 83.6061 -1.28906C82.9001 -1.28906 82.3281 -0.717062 82.3281 -0.0110625C82.3281 0.694937 82.9001 1.26694 83.6061 1.26694Z" fill="#36363E"/>
<path d="M98.0065 1.26694C98.7125 1.26694 99.2845 0.694937 99.2845 -0.0110625C99.2845 -0.717062 98.7125 -1.28906 98.0065 -1.28906C97.3015 -1.28906 96.7295 -0.717062 96.7295 -0.0110625C96.7295 0.694937 97.3015 1.26694 98.0065 1.26694Z" fill="#36363E"/>
<path d="M112.406 1.26694C113.111 1.26694 113.683 0.694937 113.683 -0.0110625C113.683 -0.717062 113.111 -1.28906 112.406 -1.28906C111.7 -1.28906 111.128 -0.717062 111.128 -0.0110625C111.128 0.694937 111.7 1.26694 112.406 1.26694Z" fill="#36363E"/>
<path d="M126.806 1.26694C127.512 1.26694 128.084 0.694937 128.084 -0.0110625C128.084 -0.717062 127.512 -1.28906 126.806 -1.28906C126.101 -1.28906 125.529 -0.717062 125.529 -0.0110625C125.529 0.694937 126.101 1.26694 126.806 1.26694Z" fill="#36363E"/>
<path d="M141.207 1.26694C141.913 1.26694 142.485 0.694757 142.485 -0.0110625C142.485 -0.716882 141.913 -1.28906 141.207 -1.28906C140.501 -1.28906 139.929 -0.716882 139.929 -0.0110625C139.929 0.694757 140.501 1.26694 141.207 1.26694Z" fill="#36363E"/>
<path d="M155.607 1.26694C156.312 1.26694 156.884 0.694937 156.884 -0.0110625C156.884 -0.717062 156.312 -1.28906 155.607 -1.28906C154.901 -1.28906 154.329 -0.717062 154.329 -0.0110625C154.329 0.694937 154.9 1.26694 155.607 1.26694Z" fill="#36363E"/>
<path d="M170.006 1.26694C170.712 1.26694 171.284 0.694937 171.284 -0.0110625C171.284 -0.717062 170.712 -1.28906 170.006 -1.28906C169.301 -1.28906 168.729 -0.717062 168.729 -0.0110625C168.729 0.694937 169.301 1.26694 170.006 1.26694Z" fill="#36363E"/>
<path d="M184.406 1.26694C185.111 1.26694 185.683 0.694937 185.683 -0.0110625C185.683 -0.717062 185.111 -1.28906 184.406 -1.28906C183.7 -1.28906 183.128 -0.717062 183.128 -0.0110625C183.128 0.694937 183.7 1.26694 184.406 1.26694Z" fill="#36363E"/>
<path d="M198.806 1.26694C199.512 1.26694 200.084 0.694937 200.084 -0.0110625C200.084 -0.717062 199.512 -1.28906 198.806 -1.28906C198.101 -1.28906 197.529 -0.717062 197.529 -0.0110625C197.529 0.694937 198.101 1.26694 198.806 1.26694Z" fill="#36363E"/>
<path d="M213.207 1.26694C213.913 1.26694 214.485 0.694757 214.485 -0.0110625C214.485 -0.716882 213.913 -1.28906 213.207 -1.28906C212.501 -1.28906 211.929 -0.716882 211.929 -0.0110625C211.929 0.694757 212.501 1.26694 213.207 1.26694Z" fill="#36363E"/>
<path d="M227.607 1.26694C228.312 1.26694 228.884 0.694937 228.884 -0.0110625C228.884 -0.717062 228.312 -1.28906 227.607 -1.28906C226.901 -1.28906 226.329 -0.717062 226.329 -0.0110625C226.329 0.694937 226.9 1.26694 227.607 1.26694Z" fill="#36363E"/>
<path d="M242.006 1.26694C242.712 1.26694 243.284 0.694937 243.284 -0.0110625C243.284 -0.717062 242.712 -1.28906 242.006 -1.28906C241.301 -1.28906 240.729 -0.717062 240.729 -0.0110625C240.729 0.694937 241.301 1.26694 242.006 1.26694Z" fill="#36363E"/>
<path d="M256.406 1.26694C257.111 1.26694 257.683 0.694937 257.683 -0.0110625C257.683 -0.717062 257.111 -1.28906 256.406 -1.28906C255.7 -1.28906 255.128 -0.717062 255.128 -0.0110625C255.128 0.694937 255.7 1.26694 256.406 1.26694Z" fill="#36363E"/>
<path d="M270.806 1.26694C271.512 1.26694 272.084 0.694937 272.084 -0.0110625C272.084 -0.717062 271.512 -1.28906 270.806 -1.28906C270.101 -1.28906 269.529 -0.717062 269.529 -0.0110625C269.529 0.694937 270.101 1.26694 270.806 1.26694Z" fill="#36363E"/>
<path d="M285.207 1.26694C285.913 1.26694 286.485 0.694757 286.485 -0.0110625C286.485 -0.716882 285.913 -1.28906 285.207 -1.28906C284.501 -1.28906 283.929 -0.716882 283.929 -0.0110625C283.929 0.694757 284.501 1.26694 285.207 1.26694Z" fill="#36363E"/>
<path d="M4.40593 15.6671C5.11093 15.6671 5.68293 15.0951 5.68293 14.3891C5.68293 13.6841 5.11093 13.1111 4.40593 13.1111C3.69993 13.1111 3.12793 13.6831 3.12793 14.3891C3.12793 15.0941 3.69993 15.6671 4.40593 15.6671Z" fill="#36363E"/>
<path d="M18.8063 15.6671C19.5123 15.6671 20.0843 15.0951 20.0843 14.3891C20.0843 13.6841 19.5123 13.1111 18.8063 13.1111C18.1013 13.1111 17.5293 13.6831 17.5293 14.3891C17.5283 15.0941 18.1013 15.6671 18.8063 15.6671Z" fill="#36363E"/>
<path d="M33.2067 15.6671C33.9127 15.6671 34.4847 15.0951 34.4847 14.3891C34.4847 13.6841 33.9127 13.1111 33.2067 13.1111C32.5007 13.1111 31.9287 13.6831 31.9287 14.3891C31.9287 15.0941 32.5007 15.6671 33.2067 15.6671Z" fill="#36363E"/>
<path d="M47.6061 15.6671C48.3111 15.6671 48.8831 15.0951 48.8831 14.3891C48.8831 13.6841 48.3111 13.1111 47.6061 13.1111C46.9001 13.1111 46.3281 13.6831 46.3281 14.3891C46.3281 15.0941 46.9001 15.6671 47.6061 15.6671Z" fill="#36363E"/>
<path d="M62.0065 15.6671C62.7125 15.6671 63.2845 15.0951 63.2845 14.3891C63.2845 13.6841 62.7125 13.1111 62.0065 13.1111C61.3015 13.1111 60.7295 13.6831 60.7295 14.3891C60.7295 15.0941 61.3015 15.6671 62.0065 15.6671Z" fill="#36363E"/>
<path d="M76.4059 15.6671C77.1109 15.6671 77.6829 15.0951 77.6829 14.3891C77.6829 13.6841 77.1109 13.1111 76.4059 13.1111C75.6999 13.1111 75.1279 13.6831 75.1279 14.3891C75.1279 15.0941 75.6999 15.6671 76.4059 15.6671Z" fill="#36363E"/>
<path d="M90.8063 15.6671C91.5123 15.6671 92.0843 15.0951 92.0843 14.3891C92.0843 13.6841 91.5123 13.1111 90.8063 13.1111C90.1013 13.1111 89.5293 13.6831 89.5293 14.3891C89.5283 15.0941 90.1013 15.6671 90.8063 15.6671Z" fill="#36363E"/>
<path d="M105.207 15.6671C105.913 15.6671 106.485 15.0951 106.485 14.3891C106.485 13.6841 105.913 13.1111 105.207 13.1111C104.501 13.1111 103.929 13.6831 103.929 14.3891C103.929 15.0941 104.501 15.6671 105.207 15.6671Z" fill="#36363E"/>
<path d="M119.606 15.6671C120.311 15.6671 120.883 15.0951 120.883 14.3891C120.883 13.6841 120.311 13.1111 119.606 13.1111C118.9 13.1111 118.328 13.6831 118.328 14.3891C118.328 15.0941 118.9 15.6671 119.606 15.6671Z" fill="#36363E"/>
<path d="M134.006 15.6671C134.712 15.6671 135.284 15.0951 135.284 14.3891C135.284 13.6841 134.712 13.1111 134.006 13.1111C133.301 13.1111 132.729 13.6831 132.729 14.3891C132.729 15.0941 133.301 15.6671 134.006 15.6671Z" fill="#36363E"/>
<path d="M148.406 15.6671C149.111 15.6671 149.683 15.0951 149.683 14.3891C149.683 13.6841 149.111 13.1111 148.406 13.1111C147.7 13.1111 147.128 13.6831 147.128 14.3891C147.128 15.0941 147.7 15.6671 148.406 15.6671Z" fill="#36363E"/>
<path d="M162.806 15.6671C163.512 15.6671 164.084 15.0951 164.084 14.3891C164.084 13.6841 163.512 13.1111 162.806 13.1111C162.101 13.1111 161.529 13.6831 161.529 14.3891C161.528 15.0941 162.101 15.6671 162.806 15.6671Z" fill="#36363E"/>
<path d="M177.207 15.6671C177.913 15.6671 178.485 15.0951 178.485 14.3891C178.485 13.6841 177.913 13.1111 177.207 13.1111C176.501 13.1111 175.929 13.6831 175.929 14.3891C175.929 15.0941 176.501 15.6671 177.207 15.6671Z" fill="#36363E"/>
<path d="M191.607 15.6671C192.312 15.6671 192.884 15.0951 192.884 14.3891C192.884 13.6841 192.312 13.1111 191.607 13.1111C190.901 13.1111 190.329 13.6831 190.329 14.3891C190.328 15.0941 190.9 15.6671 191.607 15.6671Z" fill="#36363E"/>
<path d="M206.006 15.6671C206.712 15.6671 207.284 15.0951 207.284 14.3891C207.284 13.6841 206.712 13.1111 206.006 13.1111C205.301 13.1111 204.729 13.6831 204.729 14.3891C204.729 15.0941 205.301 15.6671 206.006 15.6671Z" fill="#36363E"/>
<path d="M220.406 15.6671C221.111 15.6671 221.683 15.0951 221.683 14.3891C221.683 13.6841 221.111 13.1111 220.406 13.1111C219.7 13.1111 219.128 13.6831 219.128 14.3891C219.128 15.0941 219.7 15.6671 220.406 15.6671Z" fill="#36363E"/>
<path d="M234.806 15.6671C235.512 15.6671 236.084 15.0951 236.084 14.3891C236.084 13.6841 235.512 13.1111 234.806 13.1111C234.101 13.1111 233.529 13.6831 233.529 14.3891C233.528 15.0941 234.101 15.6671 234.806 15.6671Z" fill="#36363E"/>
<path d="M249.207 15.6671C249.913 15.6671 250.485 15.0951 250.485 14.3891C250.485 13.6841 249.913 13.1111 249.207 13.1111C248.501 13.1111 247.929 13.6831 247.929 14.3891C247.929 15.0941 248.501 15.6671 249.207 15.6671Z" fill="#36363E"/>
<path d="M263.607 15.6671C264.312 15.6671 264.884 15.0951 264.884 14.3891C264.884 13.6841 264.312 13.1111 263.607 13.1111C262.901 13.1111 262.329 13.6831 262.329 14.3891C262.328 15.0941 262.9 15.6671 263.607 15.6671Z" fill="#36363E"/>
<path d="M278.007 15.6671C278.713 15.6671 279.284 15.0951 279.284 14.3891C279.284 13.6841 278.713 13.1111 278.007 13.1111C277.302 13.1111 276.729 13.6831 276.729 14.3891C276.729 15.0941 277.302 15.6671 278.007 15.6671Z" fill="#36363E"/>
<path d="M11.6061 30.066C12.3111 30.066 12.8831 29.494 12.8831 28.788C12.8831 28.082 12.3111 27.511 11.6061 27.511C10.9001 27.511 10.3281 28.083 10.3281 28.788C10.3281 29.495 10.9001 30.066 11.6061 30.066Z" fill="#36363E"/>
<path d="M26.0065 30.066C26.7125 30.066 27.2845 29.494 27.2845 28.788C27.2845 28.082 26.7125 27.511 26.0065 27.511C25.3015 27.511 24.7295 28.083 24.7295 28.788C24.7295 29.495 25.3015 30.066 26.0065 30.066Z" fill="#36363E"/>
<path d="M40.4059 30.066C41.1109 30.066 41.6829 29.494 41.6829 28.788C41.6829 28.082 41.1109 27.511 40.4059 27.511C39.6999 27.511 39.1279 28.083 39.1279 28.788C39.1279 29.495 39.6999 30.066 40.4059 30.066Z" fill="#36363E"/>
<path d="M54.8063 30.066C55.5123 30.066 56.0843 29.494 56.0843 28.788C56.0843 28.082 55.5123 27.511 54.8063 27.511C54.1013 27.511 53.5293 28.083 53.5293 28.788C53.5283 29.495 54.1013 30.066 54.8063 30.066Z" fill="#36363E"/>
<path d="M69.2067 30.066C69.9127 30.066 70.4847 29.494 70.4847 28.788C70.4847 28.082 69.9127 27.511 69.2067 27.511C68.5007 27.511 67.9287 28.083 67.9287 28.788C67.9287 29.495 68.5007 30.066 69.2067 30.066Z" fill="#36363E"/>
<path d="M83.6061 30.066C84.3111 30.066 84.8831 29.494 84.8831 28.788C84.8831 28.082 84.3111 27.511 83.6061 27.511C82.9001 27.511 82.3281 28.083 82.3281 28.788C82.3281 29.495 82.9001 30.066 83.6061 30.066Z" fill="#36363E"/>
<path d="M98.0065 30.066C98.7125 30.066 99.2845 29.494 99.2845 28.788C99.2845 28.082 98.7125 27.511 98.0065 27.511C97.3015 27.511 96.7295 28.083 96.7295 28.788C96.7295 29.495 97.3015 30.066 98.0065 30.066Z" fill="#36363E"/>
<path d="M112.406 30.066C113.111 30.066 113.683 29.494 113.683 28.788C113.683 28.082 113.111 27.511 112.406 27.511C111.7 27.511 111.128 28.083 111.128 28.788C111.128 29.495 111.7 30.066 112.406 30.066Z" fill="#36363E"/>
<path d="M126.806 30.066C127.512 30.066 128.084 29.494 128.084 28.788C128.084 28.082 127.512 27.511 126.806 27.511C126.101 27.511 125.529 28.083 125.529 28.788C125.528 29.495 126.101 30.066 126.806 30.066Z" fill="#36363E"/>
<path d="M141.207 30.066C141.913 30.066 142.485 29.494 142.485 28.788C142.485 28.082 141.913 27.511 141.207 27.511C140.501 27.511 139.929 28.083 139.929 28.788C139.929 29.495 140.501 30.066 141.207 30.066Z" fill="#36363E"/>
<path d="M155.607 30.066C156.312 30.066 156.884 29.494 156.884 28.788C156.884 28.082 156.312 27.511 155.607 27.511C154.901 27.511 154.329 28.083 154.329 28.788C154.328 29.495 154.9 30.066 155.607 30.066Z" fill="#36363E"/>
<path d="M170.006 30.066C170.712 30.066 171.284 29.494 171.284 28.788C171.284 28.082 170.712 27.511 170.006 27.511C169.301 27.511 168.729 28.083 168.729 28.788C168.729 29.495 169.301 30.066 170.006 30.066Z" fill="#36363E"/>
<path d="M184.406 30.066C185.111 30.066 185.683 29.494 185.683 28.788C185.683 28.082 185.111 27.511 184.406 27.511C183.7 27.511 183.128 28.083 183.128 28.788C183.128 29.495 183.7 30.066 184.406 30.066Z" fill="#36363E"/>
<path d="M198.806 30.066C199.512 30.066 200.084 29.494 200.084 28.788C200.084 28.082 199.512 27.511 198.806 27.511C198.101 27.511 197.529 28.083 197.529 28.788C197.528 29.495 198.101 30.066 198.806 30.066Z" fill="#36363E"/>
<path d="M213.207 30.066C213.913 30.066 214.485 29.494 214.485 28.788C214.485 28.082 213.913 27.511 213.207 27.511C212.501 27.511 211.929 28.083 211.929 28.788C211.929 29.495 212.501 30.066 213.207 30.066Z" fill="#36363E"/>
<path d="M227.607 30.066C228.312 30.066 228.884 29.494 228.884 28.788C228.884 28.082 228.312 27.511 227.607 27.511C226.901 27.511 226.329 28.083 226.329 28.788C226.328 29.495 226.9 30.066 227.607 30.066Z" fill="#36363E"/>
<path d="M242.006 30.066C242.712 30.066 243.284 29.494 243.284 28.788C243.284 28.082 242.712 27.511 242.006 27.511C241.301 27.511 240.729 28.083 240.729 28.788C240.729 29.495 241.301 30.066 242.006 30.066Z" fill="#36363E"/>
<path d="M256.406 30.066C257.111 30.066 257.683 29.494 257.683 28.788C257.683 28.082 257.111 27.511 256.406 27.511C255.7 27.511 255.128 28.083 255.128 28.788C255.128 29.495 255.7 30.066 256.406 30.066Z" fill="#36363E"/>
<path d="M270.806 30.066C271.512 30.066 272.084 29.494 272.084 28.788C272.084 28.082 271.512 27.511 270.806 27.511C270.101 27.511 269.529 28.083 269.529 28.788C269.528 29.495 270.101 30.066 270.806 30.066Z" fill="#36363E"/>
<path d="M285.207 30.066C285.913 30.066 286.485 29.494 286.485 28.788C286.485 28.082 285.913 27.511 285.207 27.511C284.501 27.511 283.929 28.083 283.929 28.788C283.929 29.495 284.501 30.066 285.207 30.066Z" fill="#36363E"/>
<path d="M4.40593 44.4661C5.11093 44.4661 5.68293 43.8941 5.68293 43.1891C5.68293 42.4831 5.11093 41.9111 4.40593 41.9111C3.69993 41.9111 3.12793 42.4831 3.12793 43.1891C3.12793 43.8951 3.69993 44.4661 4.40593 44.4661Z" fill="#36363E"/>
<path d="M18.8063 44.4661C19.5123 44.4661 20.0843 43.8941 20.0843 43.1891C20.0843 42.4831 19.5123 41.9111 18.8063 41.9111C18.1013 41.9111 17.5293 42.4831 17.5293 43.1891C17.5283 43.8951 18.1013 44.4661 18.8063 44.4661Z" fill="#36363E"/>
<path d="M33.2067 44.4661C33.9127 44.4661 34.4847 43.8941 34.4847 43.1891C34.4847 42.4831 33.9127 41.9111 33.2067 41.9111C32.5007 41.9111 31.9287 42.4831 31.9287 43.1891C31.9287 43.8951 32.5007 44.4661 33.2067 44.4661Z" fill="#36363E"/>
<path d="M47.6061 44.4661C48.3111 44.4661 48.8831 43.8941 48.8831 43.1891C48.8831 42.4831 48.3111 41.9111 47.6061 41.9111C46.9001 41.9111 46.3281 42.4831 46.3281 43.1891C46.3281 43.8951 46.9001 44.4661 47.6061 44.4661Z" fill="#36363E"/>
<path d="M62.0065 44.4661C62.7125 44.4661 63.2845 43.8941 63.2845 43.1891C63.2845 42.4831 62.7125 41.9111 62.0065 41.9111C61.3015 41.9111 60.7295 42.4831 60.7295 43.1891C60.7295 43.8951 61.3015 44.4661 62.0065 44.4661Z" fill="#36363E"/>
<path d="M76.4059 44.4661C77.1109 44.4661 77.6829 43.8941 77.6829 43.1891C77.6829 42.4831 77.1109 41.9111 76.4059 41.9111C75.6999 41.9111 75.1279 42.4831 75.1279 43.1891C75.1279 43.8951 75.6999 44.4661 76.4059 44.4661Z" fill="#36363E"/>
<path d="M90.8063 44.4661C91.5123 44.4661 92.0843 43.8941 92.0843 43.1891C92.0843 42.4831 91.5123 41.9111 90.8063 41.9111C90.1013 41.9111 89.5293 42.4831 89.5293 43.1891C89.5283 43.8951 90.1013 44.4661 90.8063 44.4661Z" fill="#36363E"/>
<path d="M105.207 44.4661C105.913 44.4661 106.485 43.8941 106.485 43.1891C106.485 42.4831 105.913 41.9111 105.207 41.9111C104.501 41.9111 103.929 42.4831 103.929 43.1891C103.929 43.8951 104.501 44.4661 105.207 44.4661Z" fill="#36363E"/>
<path d="M119.606 44.4661C120.311 44.4661 120.883 43.8941 120.883 43.1891C120.883 42.4831 120.311 41.9111 119.606 41.9111C118.9 41.9111 118.328 42.4831 118.328 43.1891C118.328 43.8951 118.9 44.4661 119.606 44.4661Z" fill="#36363E"/>
<path d="M134.006 44.4661C134.712 44.4661 135.284 43.8941 135.284 43.1891C135.284 42.4831 134.712 41.9111 134.006 41.9111C133.301 41.9111 132.729 42.4831 132.729 43.1891C132.729 43.8951 133.301 44.4661 134.006 44.4661Z" fill="#36363E"/>
<path d="M148.406 44.4661C149.111 44.4661 149.683 43.8941 149.683 43.1891C149.683 42.4831 149.111 41.9111 148.406 41.9111C147.7 41.9111 147.128 42.4831 147.128 43.1891C147.128 43.8951 147.7 44.4661 148.406 44.4661Z" fill="#36363E"/>
<path d="M162.806 44.4661C163.512 44.4661 164.084 43.8941 164.084 43.1891C164.084 42.4831 163.512 41.9111 162.806 41.9111C162.101 41.9111 161.529 42.4831 161.529 43.1891C161.528 43.8951 162.101 44.4661 162.806 44.4661Z" fill="#36363E"/>
<path d="M177.207 44.4661C177.913 44.4661 178.485 43.8941 178.485 43.1891C178.485 42.4831 177.913 41.9111 177.207 41.9111C176.501 41.9111 175.929 42.4831 175.929 43.1891C175.929 43.8951 176.501 44.4661 177.207 44.4661Z" fill="#36363E"/>
<path d="M191.607 44.4661C192.312 44.4661 192.884 43.8941 192.884 43.1891C192.884 42.4831 192.312 41.9111 191.607 41.9111C190.901 41.9111 190.329 42.4831 190.329 43.1891C190.328 43.8951 190.9 44.4661 191.607 44.4661Z" fill="#36363E"/>
<path d="M206.006 44.4661C206.712 44.4661 207.284 43.8941 207.284 43.1891C207.284 42.4831 206.712 41.9111 206.006 41.9111C205.301 41.9111 204.729 42.4831 204.729 43.1891C204.729 43.8951 205.301 44.4661 206.006 44.4661Z" fill="#36363E"/>
<path d="M220.406 44.4661C221.111 44.4661 221.683 43.8941 221.683 43.1891C221.683 42.4831 221.111 41.9111 220.406 41.9111C219.7 41.9111 219.128 42.4831 219.128 43.1891C219.128 43.8951 219.7 44.4661 220.406 44.4661Z" fill="#36363E"/>
<path d="M234.806 44.4661C235.512 44.4661 236.084 43.8941 236.084 43.1891C236.084 42.4831 235.512 41.9111 234.806 41.9111C234.101 41.9111 233.529 42.4831 233.529 43.1891C233.528 43.8951 234.101 44.4661 234.806 44.4661Z" fill="#36363E"/>
<path d="M249.207 44.4661C249.913 44.4661 250.485 43.8941 250.485 43.1891C250.485 42.4831 249.913 41.9111 249.207 41.9111C248.501 41.9111 247.929 42.4831 247.929 43.1891C247.929 43.8951 248.501 44.4661 249.207 44.4661Z" fill="#36363E"/>
<path d="M263.607 44.4661C264.312 44.4661 264.884 43.8941 264.884 43.1891C264.884 42.4831 264.312 41.9111 263.607 41.9111C262.901 41.9111 262.329 42.4831 262.329 43.1891C262.328 43.8951 262.9 44.4661 263.607 44.4661Z" fill="#36363E"/>
<path d="M278.007 44.4661C278.713 44.4661 279.284 43.8941 279.284 43.1891C279.284 42.4831 278.713 41.9111 278.007 41.9111C277.302 41.9111 276.729 42.4831 276.729 43.1891C276.729 43.8951 277.302 44.4661 278.007 44.4661Z" fill="#36363E"/>
<path d="M11.6061 58.867C12.3111 58.867 12.8831 58.295 12.8831 57.589C12.8831 56.883 12.3111 56.311 11.6061 56.311C10.9001 56.311 10.3281 56.883 10.3281 57.589C10.3281 58.294 10.9001 58.867 11.6061 58.867Z" fill="#36363E"/>
<path d="M26.0065 58.867C26.7125 58.867 27.2845 58.295 27.2845 57.589C27.2845 56.883 26.7125 56.311 26.0065 56.311C25.3015 56.311 24.7295 56.883 24.7295 57.589C24.7295 58.294 25.3015 58.867 26.0065 58.867Z" fill="#36363E"/>
<path d="M40.4059 58.867C41.1109 58.867 41.6829 58.295 41.6829 57.589C41.6829 56.883 41.1109 56.311 40.4059 56.311C39.6999 56.311 39.1279 56.883 39.1279 57.589C39.1279 58.294 39.6999 58.867 40.4059 58.867Z" fill="#36363E"/>
<path d="M54.8063 58.867C55.5123 58.867 56.0843 58.295 56.0843 57.589C56.0843 56.883 55.5123 56.311 54.8063 56.311C54.1013 56.311 53.5293 56.883 53.5293 57.589C53.5283 58.294 54.1013 58.867 54.8063 58.867Z" fill="#36363E"/>
<path d="M69.2067 58.867C69.9125 58.867 70.4847 58.2949 70.4847 57.589C70.4847 56.8832 69.9125 56.311 69.2067 56.311C68.5009 56.311 67.9287 56.8832 67.9287 57.589C67.9287 58.2949 68.5009 58.867 69.2067 58.867Z" fill="#36363E"/>
<path d="M83.6061 58.867C84.3111 58.867 84.8831 58.295 84.8831 57.589C84.8831 56.883 84.3111 56.311 83.6061 56.311C82.9001 56.311 82.3281 56.883 82.3281 57.589C82.3281 58.294 82.9001 58.867 83.6061 58.867Z" fill="#36363E"/>
<path d="M98.0065 58.867C98.7125 58.867 99.2845 58.295 99.2845 57.589C99.2845 56.883 98.7125 56.311 98.0065 56.311C97.3015 56.311 96.7295 56.883 96.7295 57.589C96.7295 58.294 97.3015 58.867 98.0065 58.867Z" fill="#36363E"/>
<path d="M112.406 58.867C113.111 58.867 113.683 58.295 113.683 57.589C113.683 56.883 113.111 56.311 112.406 56.311C111.7 56.311 111.128 56.883 111.128 57.589C111.128 58.294 111.7 58.867 112.406 58.867Z" fill="#36363E"/>
<path d="M126.806 58.867C127.512 58.867 128.084 58.295 128.084 57.589C128.084 56.883 127.512 56.311 126.806 56.311C126.101 56.311 125.529 56.883 125.529 57.589C125.528 58.294 126.101 58.867 126.806 58.867Z" fill="#36363E"/>
<path d="M141.207 58.867C141.913 58.867 142.485 58.2949 142.485 57.589C142.485 56.8832 141.913 56.311 141.207 56.311C140.501 56.311 139.929 56.8832 139.929 57.589C139.929 58.2949 140.501 58.867 141.207 58.867Z" fill="#36363E"/>
<path d="M155.607 58.867C156.312 58.867 156.884 58.295 156.884 57.589C156.884 56.883 156.312 56.311 155.607 56.311C154.901 56.311 154.329 56.883 154.329 57.589C154.328 58.294 154.9 58.867 155.607 58.867Z" fill="#36363E"/>
<path d="M170.006 58.867C170.712 58.867 171.284 58.295 171.284 57.589C171.284 56.883 170.712 56.311 170.006 56.311C169.301 56.311 168.729 56.883 168.729 57.589C168.729 58.294 169.301 58.867 170.006 58.867Z" fill="#36363E"/>
<path d="M184.406 58.867C185.111 58.867 185.683 58.295 185.683 57.589C185.683 56.883 185.111 56.311 184.406 56.311C183.7 56.311 183.128 56.883 183.128 57.589C183.128 58.294 183.7 58.867 184.406 58.867Z" fill="#36363E"/>
<path d="M198.806 58.867C199.512 58.867 200.084 58.295 200.084 57.589C200.084 56.883 199.512 56.311 198.806 56.311C198.101 56.311 197.529 56.883 197.529 57.589C197.528 58.294 198.101 58.867 198.806 58.867Z" fill="#36363E"/>
<path d="M213.207 58.867C213.913 58.867 214.485 58.2949 214.485 57.589C214.485 56.8832 213.913 56.311 213.207 56.311C212.501 56.311 211.929 56.8832 211.929 57.589C211.929 58.2949 212.501 58.867 213.207 58.867Z" fill="#36363E"/>
<path d="M227.607 58.867C228.312 58.867 228.884 58.295 228.884 57.589C228.884 56.883 228.312 56.311 227.607 56.311C226.901 56.311 226.329 56.883 226.329 57.589C226.328 58.294 226.9 58.867 227.607 58.867Z" fill="#36363E"/>
<path d="M242.006 58.867C242.712 58.867 243.284 58.295 243.284 57.589C243.284 56.883 242.712 56.311 242.006 56.311C241.301 56.311 240.729 56.883 240.729 57.589C240.729 58.294 241.301 58.867 242.006 58.867Z" fill="#36363E"/>
<path d="M256.406 58.867C257.111 58.867 257.683 58.295 257.683 57.589C257.683 56.883 257.111 56.311 256.406 56.311C255.7 56.311 255.128 56.883 255.128 57.589C255.128 58.294 255.7 58.867 256.406 58.867Z" fill="#36363E"/>
<path d="M270.806 58.867C271.512 58.867 272.084 58.295 272.084 57.589C272.084 56.883 271.512 56.311 270.806 56.311C270.101 56.311 269.529 56.883 269.529 57.589C269.528 58.294 270.101 58.867 270.806 58.867Z" fill="#36363E"/>
<path d="M285.207 58.867C285.913 58.867 286.485 58.2949 286.485 57.589C286.485 56.8832 285.913 56.311 285.207 56.311C284.501 56.311 283.929 56.8832 283.929 57.589C283.929 58.2949 284.501 58.867 285.207 58.867Z" fill="#36363E"/>
<path d="M4.40593 73.2669C5.11093 73.2669 5.68293 72.6949 5.68293 71.9889C5.68293 71.2829 5.11093 70.7109 4.40593 70.7109C3.69993 70.7109 3.12793 71.2829 3.12793 71.9889C3.12793 72.6949 3.69993 73.2669 4.40593 73.2669Z" fill="#36363E"/>
<path d="M18.8063 73.2669C19.5123 73.2669 20.0843 72.6949 20.0843 71.9889C20.0843 71.2829 19.5123 70.7109 18.8063 70.7109C18.1013 70.7109 17.5293 71.2829 17.5293 71.9889C17.5293 72.6949 18.1013 73.2669 18.8063 73.2669Z" fill="#36363E"/>
<path d="M33.2067 73.2669C33.9125 73.2669 34.4847 72.6948 34.4847 71.9889C34.4847 71.2831 33.9125 70.7109 33.2067 70.7109C32.5009 70.7109 31.9287 71.2831 31.9287 71.9889C31.9287 72.6948 32.5009 73.2669 33.2067 73.2669Z" fill="#36363E"/>
<path d="M47.6061 73.2669C48.3111 73.2669 48.8831 72.6949 48.8831 71.9889C48.8831 71.2829 48.3111 70.7109 47.6061 70.7109C46.9001 70.7109 46.3281 71.2829 46.3281 71.9889C46.3281 72.6949 46.9001 73.2669 47.6061 73.2669Z" fill="#36363E"/>
<path d="M62.0065 73.2669C62.7125 73.2669 63.2845 72.6949 63.2845 71.9889C63.2845 71.2829 62.7125 70.7109 62.0065 70.7109C61.3015 70.7109 60.7295 71.2829 60.7295 71.9889C60.7295 72.6949 61.3015 73.2669 62.0065 73.2669Z" fill="#36363E"/>
<path d="M76.4059 73.2669C77.1109 73.2669 77.6829 72.6949 77.6829 71.9889C77.6829 71.2829 77.1109 70.7109 76.4059 70.7109C75.6999 70.7109 75.1279 71.2829 75.1279 71.9889C75.1279 72.6949 75.6999 73.2669 76.4059 73.2669Z" fill="#36363E"/>
<path d="M90.8063 73.2669C91.5123 73.2669 92.0843 72.6949 92.0843 71.9889C92.0843 71.2829 91.5123 70.7109 90.8063 70.7109C90.1013 70.7109 89.5293 71.2829 89.5293 71.9889C89.5293 72.6949 90.1013 73.2669 90.8063 73.2669Z" fill="#36363E"/>
<path d="M105.207 73.2669C105.913 73.2669 106.485 72.6948 106.485 71.9889C106.485 71.2831 105.913 70.7109 105.207 70.7109C104.501 70.7109 103.929 71.2831 103.929 71.9889C103.929 72.6948 104.501 73.2669 105.207 73.2669Z" fill="#36363E"/>
<path d="M119.606 73.2669C120.311 73.2669 120.883 72.6949 120.883 71.9889C120.883 71.2829 120.311 70.7109 119.606 70.7109C118.9 70.7109 118.328 71.2829 118.328 71.9889C118.328 72.6949 118.9 73.2669 119.606 73.2669Z" fill="#36363E"/>
<path d="M134.006 73.2669C134.712 73.2669 135.284 72.6949 135.284 71.9889C135.284 71.2829 134.712 70.7109 134.006 70.7109C133.301 70.7109 132.729 71.2829 132.729 71.9889C132.729 72.6949 133.301 73.2669 134.006 73.2669Z" fill="#36363E"/>
<path d="M148.406 73.2669C149.111 73.2669 149.683 72.6949 149.683 71.9889C149.683 71.2829 149.111 70.7109 148.406 70.7109C147.7 70.7109 147.128 71.2829 147.128 71.9889C147.128 72.6949 147.7 73.2669 148.406 73.2669Z" fill="#36363E"/>
<path d="M162.806 73.2669C163.512 73.2669 164.084 72.6949 164.084 71.9889C164.084 71.2829 163.512 70.7109 162.806 70.7109C162.101 70.7109 161.529 71.2829 161.529 71.9889C161.529 72.6949 162.101 73.2669 162.806 73.2669Z" fill="#36363E"/>
<path d="M177.207 73.2669C177.913 73.2669 178.485 72.6948 178.485 71.9889C178.485 71.2831 177.913 70.7109 177.207 70.7109C176.501 70.7109 175.929 71.2831 175.929 71.9889C175.929 72.6948 176.501 73.2669 177.207 73.2669Z" fill="#36363E"/>
<path d="M191.607 73.2669C192.312 73.2669 192.884 72.6949 192.884 71.9889C192.884 71.2829 192.312 70.7109 191.607 70.7109C190.901 70.7109 190.329 71.2829 190.329 71.9889C190.329 72.6949 190.9 73.2669 191.607 73.2669Z" fill="#36363E"/>
<path d="M206.006 73.2669C206.712 73.2669 207.284 72.6949 207.284 71.9889C207.284 71.2829 206.712 70.7109 206.006 70.7109C205.301 70.7109 204.729 71.2829 204.729 71.9889C204.729 72.6949 205.301 73.2669 206.006 73.2669Z" fill="#36363E"/>
<path d="M220.406 73.2669C221.111 73.2669 221.683 72.6949 221.683 71.9889C221.683 71.2829 221.111 70.7109 220.406 70.7109C219.7 70.7109 219.128 71.2829 219.128 71.9889C219.128 72.6949 219.7 73.2669 220.406 73.2669Z" fill="#36363E"/>
<path d="M234.806 73.2669C235.512 73.2669 236.084 72.6949 236.084 71.9889C236.084 71.2829 235.512 70.7109 234.806 70.7109C234.101 70.7109 233.529 71.2829 233.529 71.9889C233.529 72.6949 234.101 73.2669 234.806 73.2669Z" fill="#36363E"/>
<path d="M249.207 73.2669C249.913 73.2669 250.485 72.6948 250.485 71.9889C250.485 71.2831 249.913 70.7109 249.207 70.7109C248.501 70.7109 247.929 71.2831 247.929 71.9889C247.929 72.6948 248.501 73.2669 249.207 73.2669Z" fill="#36363E"/>
<path d="M263.607 73.2669C264.312 73.2669 264.884 72.6949 264.884 71.9889C264.884 71.2829 264.312 70.7109 263.607 70.7109C262.901 70.7109 262.329 71.2829 262.329 71.9889C262.329 72.6949 262.9 73.2669 263.607 73.2669Z" fill="#36363E"/>
<path d="M278.007 73.2669C278.713 73.2669 279.284 72.6949 279.284 71.9889C279.284 71.2829 278.713 70.7109 278.007 70.7109C277.302 70.7109 276.729 71.2829 276.729 71.9889C276.729 72.6949 277.302 73.2669 278.007 73.2669Z" fill="#36363E"/>
<path d="M11.6061 87.6671C12.3111 87.6671 12.8831 87.0951 12.8831 86.3891C12.8831 85.6831 12.3111 85.1111 11.6061 85.1111C10.9001 85.1111 10.3281 85.6831 10.3281 86.3891C10.3281 87.0941 10.9001 87.6671 11.6061 87.6671Z" fill="#36363E"/>
<path d="M26.0065 87.6671C26.7125 87.6671 27.2845 87.0951 27.2845 86.3891C27.2845 85.6831 26.7125 85.1111 26.0065 85.1111C25.3015 85.1111 24.7295 85.6831 24.7295 86.3891C24.7295 87.0941 25.3015 87.6671 26.0065 87.6671Z" fill="#36363E"/>
<path d="M40.4059 87.6671C41.1109 87.6671 41.6829 87.0951 41.6829 86.3891C41.6829 85.6831 41.1109 85.1111 40.4059 85.1111C39.6999 85.1111 39.1279 85.6831 39.1279 86.3891C39.1279 87.0941 39.6999 87.6671 40.4059 87.6671Z" fill="#36363E"/>
<path d="M54.8063 87.6671C55.5123 87.6671 56.0843 87.0951 56.0843 86.3891C56.0843 85.6831 55.5123 85.1111 54.8063 85.1111C54.1013 85.1111 53.5293 85.6831 53.5293 86.3891C53.5283 87.0941 54.1013 87.6671 54.8063 87.6671Z" fill="#36363E"/>
<path d="M69.2067 87.6671C69.9127 87.6671 70.4847 87.0951 70.4847 86.3891C70.4847 85.6831 69.9127 85.1111 69.2067 85.1111C68.5007 85.1111 67.9287 85.6831 67.9287 86.3891C67.9287 87.0941 68.5007 87.6671 69.2067 87.6671Z" fill="#36363E"/>
<path d="M83.6061 87.6671C84.3111 87.6671 84.8831 87.0951 84.8831 86.3891C84.8831 85.6831 84.3111 85.1111 83.6061 85.1111C82.9001 85.1111 82.3281 85.6831 82.3281 86.3891C82.3281 87.0941 82.9001 87.6671 83.6061 87.6671Z" fill="#36363E"/>
<path d="M98.0065 87.6671C98.7125 87.6671 99.2845 87.0951 99.2845 86.3891C99.2845 85.6831 98.7125 85.1111 98.0065 85.1111C97.3015 85.1111 96.7295 85.6831 96.7295 86.3891C96.7295 87.0941 97.3015 87.6671 98.0065 87.6671Z" fill="#36363E"/>
<path d="M112.406 87.6671C113.111 87.6671 113.683 87.0951 113.683 86.3891C113.683 85.6831 113.111 85.1111 112.406 85.1111C111.7 85.1111 111.128 85.6831 111.128 86.3891C111.128 87.0941 111.7 87.6671 112.406 87.6671Z" fill="#36363E"/>
<path d="M126.806 87.6671C127.512 87.6671 128.084 87.0951 128.084 86.3891C128.084 85.6831 127.512 85.1111 126.806 85.1111C126.101 85.1111 125.529 85.6831 125.529 86.3891C125.528 87.0941 126.101 87.6671 126.806 87.6671Z" fill="#36363E"/>
<path d="M141.207 87.6671C141.913 87.6671 142.485 87.0951 142.485 86.3891C142.485 85.6831 141.913 85.1111 141.207 85.1111C140.501 85.1111 139.929 85.6831 139.929 86.3891C139.929 87.0941 140.501 87.6671 141.207 87.6671Z" fill="#36363E"/>
<path d="M155.607 87.6671C156.312 87.6671 156.884 87.0951 156.884 86.3891C156.884 85.6831 156.312 85.1111 155.607 85.1111C154.901 85.1111 154.329 85.6831 154.329 86.3891C154.328 87.0941 154.9 87.6671 155.607 87.6671Z" fill="#36363E"/>
<path d="M170.006 87.6671C170.712 87.6671 171.284 87.0951 171.284 86.3891C171.284 85.6831 170.712 85.1111 170.006 85.1111C169.301 85.1111 168.729 85.6831 168.729 86.3891C168.729 87.0941 169.301 87.6671 170.006 87.6671Z" fill="#36363E"/>
<path d="M184.406 87.6671C185.111 87.6671 185.683 87.0951 185.683 86.3891C185.683 85.6831 185.111 85.1111 184.406 85.1111C183.7 85.1111 183.128 85.6831 183.128 86.3891C183.128 87.0941 183.7 87.6671 184.406 87.6671Z" fill="#36363E"/>
<path d="M198.806 87.6671C199.512 87.6671 200.084 87.0951 200.084 86.3891C200.084 85.6831 199.512 85.1111 198.806 85.1111C198.101 85.1111 197.529 85.6831 197.529 86.3891C197.528 87.0941 198.101 87.6671 198.806 87.6671Z" fill="#36363E"/>
<path d="M213.207 87.6671C213.913 87.6671 214.485 87.0951 214.485 86.3891C214.485 85.6831 213.913 85.1111 213.207 85.1111C212.501 85.1111 211.929 85.6831 211.929 86.3891C211.929 87.0941 212.501 87.6671 213.207 87.6671Z" fill="#36363E"/>
<path d="M227.607 87.6671C228.312 87.6671 228.884 87.0951 228.884 86.3891C228.884 85.6831 228.312 85.1111 227.607 85.1111C226.901 85.1111 226.329 85.6831 226.329 86.3891C226.328 87.0941 226.9 87.6671 227.607 87.6671Z" fill="#36363E"/>
<path d="M242.006 87.6671C242.712 87.6671 243.284 87.0951 243.284 86.3891C243.284 85.6831 242.712 85.1111 242.006 85.1111C241.301 85.1111 240.729 85.6831 240.729 86.3891C240.729 87.0941 241.301 87.6671 242.006 87.6671Z" fill="#36363E"/>
<path d="M256.406 87.6671C257.111 87.6671 257.683 87.0951 257.683 86.3891C257.683 85.6831 257.111 85.1111 256.406 85.1111C255.7 85.1111 255.128 85.6831 255.128 86.3891C255.128 87.0941 255.7 87.6671 256.406 87.6671Z" fill="#36363E"/>
<path d="M270.806 87.6671C271.512 87.6671 272.084 87.0951 272.084 86.3891C272.084 85.6831 271.512 85.1111 270.806 85.1111C270.101 85.1111 269.529 85.6831 269.529 86.3891C269.528 87.0941 270.101 87.6671 270.806 87.6671Z" fill="#36363E"/>
<path d="M285.207 87.6671C285.913 87.6671 286.485 87.0951 286.485 86.3891C286.485 85.6831 285.913 85.1111 285.207 85.1111C284.501 85.1111 283.929 85.6831 283.929 86.3891C283.929 87.0941 284.501 87.6671 285.207 87.6671Z" fill="#36363E"/>
<path d="M4.40593 102.066C5.11093 102.066 5.68293 101.494 5.68293 100.788C5.68293 100.083 5.11093 99.511 4.40593 99.511C3.69993 99.511 3.12793 100.083 3.12793 100.788C3.12793 101.495 3.69993 102.066 4.40593 102.066Z" fill="#36363E"/>
<path d="M18.8063 102.066C19.5123 102.066 20.0843 101.494 20.0843 100.788C20.0843 100.083 19.5123 99.511 18.8063 99.511C18.1013 99.511 17.5293 100.083 17.5293 100.788C17.5283 101.495 18.1013 102.066 18.8063 102.066Z" fill="#36363E"/>
<path d="M33.2067 102.066C33.9127 102.066 34.4847 101.494 34.4847 100.788C34.4847 100.083 33.9127 99.511 33.2067 99.511C32.5007 99.511 31.9287 100.083 31.9287 100.788C31.9287 101.495 32.5007 102.066 33.2067 102.066Z" fill="#36363E"/>
<path d="M47.6061 102.066C48.3111 102.066 48.8831 101.494 48.8831 100.788C48.8831 100.083 48.3111 99.511 47.6061 99.511C46.9001 99.511 46.3281 100.083 46.3281 100.788C46.3281 101.495 46.9001 102.066 47.6061 102.066Z" fill="#36363E"/>
<path d="M62.0065 102.066C62.7125 102.066 63.2845 101.494 63.2845 100.788C63.2845 100.083 62.7125 99.511 62.0065 99.511C61.3015 99.511 60.7295 100.083 60.7295 100.788C60.7295 101.495 61.3015 102.066 62.0065 102.066Z" fill="#36363E"/>
<path d="M76.4059 102.066C77.1109 102.066 77.6829 101.494 77.6829 100.788C77.6829 100.083 77.1109 99.511 76.4059 99.511C75.6999 99.511 75.1279 100.083 75.1279 100.788C75.1279 101.495 75.6999 102.066 76.4059 102.066Z" fill="#36363E"/>
<path d="M90.8063 102.066C91.5123 102.066 92.0843 101.494 92.0843 100.788C92.0843 100.083 91.5123 99.511 90.8063 99.511C90.1013 99.511 89.5293 100.083 89.5293 100.788C89.5283 101.495 90.1013 102.066 90.8063 102.066Z" fill="#36363E"/>
<path d="M105.207 102.066C105.913 102.066 106.485 101.494 106.485 100.788C106.485 100.083 105.913 99.511 105.207 99.511C104.501 99.511 103.929 100.083 103.929 100.788C103.929 101.495 104.501 102.066 105.207 102.066Z" fill="#36363E"/>
<path d="M119.606 102.066C120.311 102.066 120.883 101.494 120.883 100.788C120.883 100.083 120.311 99.511 119.606 99.511C118.9 99.511 118.328 100.083 118.328 100.788C118.328 101.495 118.9 102.066 119.606 102.066Z" fill="#36363E"/>
<path d="M134.006 102.066C134.712 102.066 135.284 101.494 135.284 100.788C135.284 100.083 134.712 99.511 134.006 99.511C133.301 99.511 132.729 100.083 132.729 100.788C132.729 101.495 133.301 102.066 134.006 102.066Z" fill="#36363E"/>
<path d="M148.406 102.066C149.111 102.066 149.683 101.494 149.683 100.788C149.683 100.083 149.111 99.511 148.406 99.511C147.7 99.511 147.128 100.083 147.128 100.788C147.128 101.495 147.7 102.066 148.406 102.066Z" fill="#36363E"/>
<path d="M162.806 102.066C163.512 102.066 164.084 101.494 164.084 100.788C164.084 100.083 163.512 99.511 162.806 99.511C162.101 99.511 161.529 100.083 161.529 100.788C161.528 101.495 162.101 102.066 162.806 102.066Z" fill="#36363E"/>
<path d="M177.207 102.066C177.913 102.066 178.485 101.494 178.485 100.788C178.485 100.083 177.913 99.511 177.207 99.511C176.501 99.511 175.929 100.083 175.929 100.788C175.929 101.495 176.501 102.066 177.207 102.066Z" fill="#36363E"/>
<path d="M191.607 102.066C192.312 102.066 192.884 101.494 192.884 100.788C192.884 100.083 192.312 99.511 191.607 99.511C190.901 99.511 190.329 100.083 190.329 100.788C190.328 101.495 190.9 102.066 191.607 102.066Z" fill="#36363E"/>
<path d="M206.006 102.066C206.712 102.066 207.284 101.494 207.284 100.788C207.284 100.083 206.712 99.511 206.006 99.511C205.301 99.511 204.729 100.083 204.729 100.788C204.729 101.495 205.301 102.066 206.006 102.066Z" fill="#36363E"/>
<path d="M220.406 102.066C221.111 102.066 221.683 101.494 221.683 100.788C221.683 100.083 221.111 99.511 220.406 99.511C219.7 99.511 219.128 100.083 219.128 100.788C219.128 101.495 219.7 102.066 220.406 102.066Z" fill="#36363E"/>
<path d="M234.806 102.066C235.512 102.066 236.084 101.494 236.084 100.788C236.084 100.083 235.512 99.511 234.806 99.511C234.101 99.511 233.529 100.083 233.529 100.788C233.528 101.495 234.101 102.066 234.806 102.066Z" fill="#36363E"/>
<path d="M249.207 102.066C249.913 102.066 250.485 101.494 250.485 100.788C250.485 100.083 249.913 99.511 249.207 99.511C248.501 99.511 247.929 100.083 247.929 100.788C247.929 101.495 248.501 102.066 249.207 102.066Z" fill="#36363E"/>
<path d="M263.607 102.066C264.312 102.066 264.884 101.494 264.884 100.788C264.884 100.083 264.312 99.511 263.607 99.511C262.901 99.511 262.329 100.083 262.329 100.788C262.328 101.495 262.9 102.066 263.607 102.066Z" fill="#36363E"/>
<path d="M278.007 102.066C278.713 102.066 279.284 101.494 279.284 100.788C279.284 100.083 278.713 99.511 278.007 99.511C277.302 99.511 276.729 100.083 276.729 100.788C276.729 101.495 277.302 102.066 278.007 102.066Z" fill="#36363E"/>
<path d="M11.6061 116.466C12.3111 116.466 12.8831 115.894 12.8831 115.189C12.8831 114.483 12.3111 113.911 11.6061 113.911C10.9001 113.911 10.3281 114.483 10.3281 115.189C10.3281 115.895 10.9001 116.466 11.6061 116.466Z" fill="#36363E"/>
<path d="M26.0065 116.466C26.7125 116.466 27.2845 115.894 27.2845 115.189C27.2845 114.483 26.7125 113.911 26.0065 113.911C25.3015 113.911 24.7295 114.483 24.7295 115.189C24.7295 115.895 25.3015 116.466 26.0065 116.466Z" fill="#36363E"/>
<path d="M40.4059 116.466C41.1109 116.466 41.6829 115.894 41.6829 115.189C41.6829 114.483 41.1109 113.911 40.4059 113.911C39.6999 113.911 39.1279 114.483 39.1279 115.189C39.1279 115.895 39.6999 116.466 40.4059 116.466Z" fill="#36363E"/>
<path d="M54.8063 116.466C55.5123 116.466 56.0843 115.894 56.0843 115.189C56.0843 114.483 55.5123 113.911 54.8063 113.911C54.1013 113.911 53.5293 114.483 53.5293 115.189C53.5283 115.895 54.1013 116.466 54.8063 116.466Z" fill="#36363E"/>
<path d="M69.2067 116.466C69.9127 116.466 70.4847 115.894 70.4847 115.189C70.4847 114.483 69.9127 113.911 69.2067 113.911C68.5007 113.911 67.9287 114.483 67.9287 115.189C67.9287 115.895 68.5007 116.466 69.2067 116.466Z" fill="#36363E"/>
<path d="M83.6061 116.466C84.3111 116.466 84.8831 115.894 84.8831 115.189C84.8831 114.483 84.3111 113.911 83.6061 113.911C82.9001 113.911 82.3281 114.483 82.3281 115.189C82.3281 115.895 82.9001 116.466 83.6061 116.466Z" fill="#36363E"/>
<path d="M98.0065 116.466C98.7125 116.466 99.2845 115.894 99.2845 115.189C99.2845 114.483 98.7125 113.911 98.0065 113.911C97.3015 113.911 96.7295 114.483 96.7295 115.189C96.7295 115.895 97.3015 116.466 98.0065 116.466Z" fill="#36363E"/>
<path d="M112.406 116.466C113.111 116.466 113.683 115.894 113.683 115.189C113.683 114.483 113.111 113.911 112.406 113.911C111.7 113.911 111.128 114.483 111.128 115.189C111.128 115.895 111.7 116.466 112.406 116.466Z" fill="#36363E"/>
<path d="M126.806 116.466C127.512 116.466 128.084 115.894 128.084 115.189C128.084 114.483 127.512 113.911 126.806 113.911C126.101 113.911 125.529 114.483 125.529 115.189C125.528 115.895 126.101 116.466 126.806 116.466Z" fill="#36363E"/>
<path d="M141.207 116.466C141.913 116.466 142.485 115.894 142.485 115.189C142.485 114.483 141.913 113.911 141.207 113.911C140.501 113.911 139.929 114.483 139.929 115.189C139.929 115.895 140.501 116.466 141.207 116.466Z" fill="#36363E"/>
<path d="M155.607 116.466C156.312 116.466 156.884 115.894 156.884 115.189C156.884 114.483 156.312 113.911 155.607 113.911C154.901 113.911 154.329 114.483 154.329 115.189C154.328 115.895 154.9 116.466 155.607 116.466Z" fill="#36363E"/>
<path d="M170.006 116.466C170.712 116.466 171.284 115.894 171.284 115.189C171.284 114.483 170.712 113.911 170.006 113.911C169.301 113.911 168.729 114.483 168.729 115.189C168.729 115.895 169.301 116.466 170.006 116.466Z" fill="#36363E"/>
<path d="M184.406 116.466C185.111 116.466 185.683 115.894 185.683 115.189C185.683 114.483 185.111 113.911 184.406 113.911C183.7 113.911 183.128 114.483 183.128 115.189C183.128 115.895 183.7 116.466 184.406 116.466Z" fill="#36363E"/>
<path d="M198.806 116.466C199.512 116.466 200.084 115.894 200.084 115.189C200.084 114.483 199.512 113.911 198.806 113.911C198.101 113.911 197.529 114.483 197.529 115.189C197.528 115.895 198.101 116.466 198.806 116.466Z" fill="#36363E"/>
<path d="M213.207 116.466C213.913 116.466 214.485 115.894 214.485 115.189C214.485 114.483 213.913 113.911 213.207 113.911C212.501 113.911 211.929 114.483 211.929 115.189C211.929 115.895 212.501 116.466 213.207 116.466Z" fill="#36363E"/>
<path d="M227.607 116.466C228.312 116.466 228.884 115.894 228.884 115.189C228.884 114.483 228.312 113.911 227.607 113.911C226.901 113.911 226.329 114.483 226.329 115.189C226.328 115.895 226.9 116.466 227.607 116.466Z" fill="#36363E"/>
<path d="M242.006 116.466C242.712 116.466 243.284 115.894 243.284 115.189C243.284 114.483 242.712 113.911 242.006 113.911C241.301 113.911 240.729 114.483 240.729 115.189C240.729 115.895 241.301 116.466 242.006 116.466Z" fill="#36363E"/>
<path d="M256.406 116.466C257.111 116.466 257.683 115.894 257.683 115.189C257.683 114.483 257.111 113.911 256.406 113.911C255.7 113.911 255.128 114.483 255.128 115.189C255.128 115.895 255.7 116.466 256.406 116.466Z" fill="#36363E"/>
<path d="M270.806 116.466C271.512 116.466 272.084 115.894 272.084 115.189C272.084 114.483 271.512 113.911 270.806 113.911C270.101 113.911 269.529 114.483 269.529 115.189C269.528 115.895 270.101 116.466 270.806 116.466Z" fill="#36363E"/>
<path d="M285.207 116.466C285.913 116.466 286.485 115.894 286.485 115.189C286.485 114.483 285.913 113.911 285.207 113.911C284.501 113.911 283.929 114.483 283.929 115.189C283.929 115.895 284.501 116.466 285.207 116.466Z" fill="#36363E"/>
<path d="M4.40593 130.867C5.11093 130.867 5.68293 130.295 5.68293 129.589C5.68293 128.883 5.11093 128.311 4.40593 128.311C3.69993 128.311 3.12793 128.883 3.12793 129.589C3.12793 130.295 3.69993 130.867 4.40593 130.867Z" fill="#36363E"/>
<path d="M18.8063 130.867C19.5123 130.867 20.0843 130.295 20.0843 129.589C20.0843 128.883 19.5123 128.311 18.8063 128.311C18.1013 128.311 17.5293 128.883 17.5293 129.589C17.5293 130.295 18.1013 130.867 18.8063 130.867Z" fill="#36363E"/>
<path d="M33.2067 130.867C33.9125 130.867 34.4847 130.295 34.4847 129.589C34.4847 128.883 33.9125 128.311 33.2067 128.311C32.5009 128.311 31.9287 128.883 31.9287 129.589C31.9287 130.295 32.5009 130.867 33.2067 130.867Z" fill="#36363E"/>
<path d="M47.6061 130.867C48.3111 130.867 48.8831 130.295 48.8831 129.589C48.8831 128.883 48.3111 128.311 47.6061 128.311C46.9001 128.311 46.3281 128.883 46.3281 129.589C46.3281 130.295 46.9001 130.867 47.6061 130.867Z" fill="#36363E"/>
<path d="M62.0065 130.867C62.7125 130.867 63.2845 130.295 63.2845 129.589C63.2845 128.883 62.7125 128.311 62.0065 128.311C61.3015 128.311 60.7295 128.883 60.7295 129.589C60.7295 130.295 61.3015 130.867 62.0065 130.867Z" fill="#36363E"/>
<path d="M76.4059 130.867C77.1109 130.867 77.6829 130.295 77.6829 129.589C77.6829 128.883 77.1109 128.311 76.4059 128.311C75.6999 128.311 75.1279 128.883 75.1279 129.589C75.1279 130.295 75.6999 130.867 76.4059 130.867Z" fill="#36363E"/>
<path d="M90.8063 130.867C91.5123 130.867 92.0843 130.295 92.0843 129.589C92.0843 128.883 91.5123 128.311 90.8063 128.311C90.1013 128.311 89.5293 128.883 89.5293 129.589C89.5293 130.295 90.1013 130.867 90.8063 130.867Z" fill="#36363E"/>
<path d="M105.207 130.867C105.913 130.867 106.485 130.295 106.485 129.589C106.485 128.883 105.913 128.311 105.207 128.311C104.501 128.311 103.929 128.883 103.929 129.589C103.929 130.295 104.501 130.867 105.207 130.867Z" fill="#36363E"/>
<path d="M119.606 130.867C120.311 130.867 120.883 130.295 120.883 129.589C120.883 128.883 120.311 128.311 119.606 128.311C118.9 128.311 118.328 128.883 118.328 129.589C118.328 130.295 118.9 130.867 119.606 130.867Z" fill="#36363E"/>
<path d="M134.006 130.867C134.712 130.867 135.284 130.295 135.284 129.589C135.284 128.883 134.712 128.311 134.006 128.311C133.301 128.311 132.729 128.883 132.729 129.589C132.729 130.295 133.301 130.867 134.006 130.867Z" fill="#36363E"/>
<path d="M148.406 130.867C149.111 130.867 149.683 130.295 149.683 129.589C149.683 128.883 149.111 128.311 148.406 128.311C147.7 128.311 147.128 128.883 147.128 129.589C147.128 130.295 147.7 130.867 148.406 130.867Z" fill="#36363E"/>
<path d="M162.806 130.867C163.512 130.867 164.084 130.295 164.084 129.589C164.084 128.883 163.512 128.311 162.806 128.311C162.101 128.311 161.529 128.883 161.529 129.589C161.529 130.295 162.101 130.867 162.806 130.867Z" fill="#36363E"/>
<path d="M177.207 130.867C177.913 130.867 178.485 130.295 178.485 129.589C178.485 128.883 177.913 128.311 177.207 128.311C176.501 128.311 175.929 128.883 175.929 129.589C175.929 130.295 176.501 130.867 177.207 130.867Z" fill="#36363E"/>
<path d="M191.607 130.867C192.312 130.867 192.884 130.295 192.884 129.589C192.884 128.883 192.312 128.311 191.607 128.311C190.901 128.311 190.329 128.883 190.329 129.589C190.329 130.295 190.9 130.867 191.607 130.867Z" fill="#36363E"/>
<path d="M206.006 130.867C206.712 130.867 207.284 130.295 207.284 129.589C207.284 128.883 206.712 128.311 206.006 128.311C205.301 128.311 204.729 128.883 204.729 129.589C204.729 130.295 205.301 130.867 206.006 130.867Z" fill="#36363E"/>
<path d="M220.406 130.867C221.111 130.867 221.683 130.295 221.683 129.589C221.683 128.883 221.111 128.311 220.406 128.311C219.7 128.311 219.128 128.883 219.128 129.589C219.128 130.295 219.7 130.867 220.406 130.867Z" fill="#36363E"/>
<path d="M234.806 130.867C235.512 130.867 236.084 130.295 236.084 129.589C236.084 128.883 235.512 128.311 234.806 128.311C234.101 128.311 233.529 128.883 233.529 129.589C233.529 130.295 234.101 130.867 234.806 130.867Z" fill="#36363E"/>
<path d="M249.207 130.867C249.913 130.867 250.485 130.295 250.485 129.589C250.485 128.883 249.913 128.311 249.207 128.311C248.501 128.311 247.929 128.883 247.929 129.589C247.929 130.295 248.501 130.867 249.207 130.867Z" fill="#36363E"/>
<path d="M263.607 130.867C264.312 130.867 264.884 130.295 264.884 129.589C264.884 128.883 264.312 128.311 263.607 128.311C262.901 128.311 262.329 128.883 262.329 129.589C262.329 130.295 262.9 130.867 263.607 130.867Z" fill="#36363E"/>
<path d="M278.007 130.867C278.713 130.867 279.284 130.295 279.284 129.589C279.284 128.883 278.713 128.311 278.007 128.311C277.302 128.311 276.729 128.883 276.729 129.589C276.729 130.295 277.302 130.867 278.007 130.867Z" fill="#36363E"/>
<path d="M11.6061 145.267C12.3111 145.267 12.8831 144.695 12.8831 143.989C12.8831 143.283 12.3111 142.711 11.6061 142.711C10.9001 142.711 10.3281 143.283 10.3281 143.989C10.3281 144.695 10.9001 145.267 11.6061 145.267Z" fill="#36363E"/>
<path d="M26.0065 145.267C26.7125 145.267 27.2845 144.695 27.2845 143.989C27.2845 143.283 26.7125 142.711 26.0065 142.711C25.3015 142.711 24.7295 143.283 24.7295 143.989C24.7295 144.695 25.3015 145.267 26.0065 145.267Z" fill="#36363E"/>
<path d="M40.4059 145.267C41.1109 145.267 41.6829 144.695 41.6829 143.989C41.6829 143.283 41.1109 142.711 40.4059 142.711C39.6999 142.711 39.1279 143.283 39.1279 143.989C39.1279 144.695 39.6999 145.267 40.4059 145.267Z" fill="#36363E"/>
<path d="M54.8063 145.267C55.5123 145.267 56.0843 144.695 56.0843 143.989C56.0843 143.283 55.5123 142.711 54.8063 142.711C54.1013 142.711 53.5293 143.283 53.5293 143.989C53.5293 144.695 54.1013 145.267 54.8063 145.267Z" fill="#36363E"/>
<path d="M69.2067 145.267C69.9125 145.267 70.4847 144.695 70.4847 143.989C70.4847 143.283 69.9125 142.711 69.2067 142.711C68.5009 142.711 67.9287 143.283 67.9287 143.989C67.9287 144.695 68.5009 145.267 69.2067 145.267Z" fill="#36363E"/>
<path d="M83.6061 145.267C84.3111 145.267 84.8831 144.695 84.8831 143.989C84.8831 143.283 84.3111 142.711 83.6061 142.711C82.9001 142.711 82.3281 143.283 82.3281 143.989C82.3281 144.695 82.9001 145.267 83.6061 145.267Z" fill="#36363E"/>
<path d="M98.0065 145.267C98.7125 145.267 99.2845 144.695 99.2845 143.989C99.2845 143.283 98.7125 142.711 98.0065 142.711C97.3015 142.711 96.7295 143.283 96.7295 143.989C96.7295 144.695 97.3015 145.267 98.0065 145.267Z" fill="#36363E"/>
<path d="M112.406 145.267C113.111 145.267 113.683 144.695 113.683 143.989C113.683 143.283 113.111 142.711 112.406 142.711C111.7 142.711 111.128 143.283 111.128 143.989C111.128 144.695 111.7 145.267 112.406 145.267Z" fill="#36363E"/>
<path d="M126.806 145.267C127.512 145.267 128.084 144.695 128.084 143.989C128.084 143.283 127.512 142.711 126.806 142.711C126.101 142.711 125.529 143.283 125.529 143.989C125.529 144.695 126.101 145.267 126.806 145.267Z" fill="#36363E"/>
<path d="M141.207 145.267C141.913 145.267 142.485 144.695 142.485 143.989C142.485 143.283 141.913 142.711 141.207 142.711C140.501 142.711 139.929 143.283 139.929 143.989C139.929 144.695 140.501 145.267 141.207 145.267Z" fill="#36363E"/>
<path d="M155.607 145.267C156.312 145.267 156.884 144.695 156.884 143.989C156.884 143.283 156.312 142.711 155.607 142.711C154.901 142.711 154.329 143.283 154.329 143.989C154.329 144.695 154.9 145.267 155.607 145.267Z" fill="#36363E"/>
<path d="M170.006 145.267C170.712 145.267 171.284 144.695 171.284 143.989C171.284 143.283 170.712 142.711 170.006 142.711C169.301 142.711 168.729 143.283 168.729 143.989C168.729 144.695 169.301 145.267 170.006 145.267Z" fill="#36363E"/>
<path d="M184.406 145.267C185.111 145.267 185.683 144.695 185.683 143.989C185.683 143.283 185.111 142.711 184.406 142.711C183.7 142.711 183.128 143.283 183.128 143.989C183.128 144.695 183.7 145.267 184.406 145.267Z" fill="#36363E"/>
<path d="M198.806 145.267C199.512 145.267 200.084 144.695 200.084 143.989C200.084 143.283 199.512 142.711 198.806 142.711C198.101 142.711 197.529 143.283 197.529 143.989C197.529 144.695 198.101 145.267 198.806 145.267Z" fill="#36363E"/>
<path d="M213.207 145.267C213.913 145.267 214.485 144.695 214.485 143.989C214.485 143.283 213.913 142.711 213.207 142.711C212.501 142.711 211.929 143.283 211.929 143.989C211.929 144.695 212.501 145.267 213.207 145.267Z" fill="#36363E"/>
<path d="M227.607 145.267C228.312 145.267 228.884 144.695 228.884 143.989C228.884 143.283 228.312 142.711 227.607 142.711C226.901 142.711 226.329 143.283 226.329 143.989C226.329 144.695 226.9 145.267 227.607 145.267Z" fill="#36363E"/>
<path d="M242.006 145.267C242.712 145.267 243.284 144.695 243.284 143.989C243.284 143.283 242.712 142.711 242.006 142.711C241.301 142.711 240.729 143.283 240.729 143.989C240.729 144.695 241.301 145.267 242.006 145.267Z" fill="#36363E"/>
<path d="M256.406 145.267C257.111 145.267 257.683 144.695 257.683 143.989C257.683 143.283 257.111 142.711 256.406 142.711C255.7 142.711 255.128 143.283 255.128 143.989C255.128 144.695 255.7 145.267 256.406 145.267Z" fill="#36363E"/>
<path d="M270.806 145.267C271.512 145.267 272.084 144.695 272.084 143.989C272.084 143.283 271.512 142.711 270.806 142.711C270.101 142.711 269.529 143.283 269.529 143.989C269.529 144.695 270.101 145.267 270.806 145.267Z" fill="#36363E"/>
<path d="M285.207 145.267C285.913 145.267 286.485 144.695 286.485 143.989C286.485 143.283 285.913 142.711 285.207 142.711C284.501 142.711 283.929 143.283 283.929 143.989C283.929 144.695 284.501 145.267 285.207 145.267Z" fill="#36363E"/>
<path d="M4.40593 159.667C5.11093 159.667 5.68293 159.095 5.68293 158.389C5.68293 157.683 5.11093 157.111 4.40593 157.111C3.69993 157.111 3.12793 157.683 3.12793 158.389C3.12793 159.094 3.69993 159.667 4.40593 159.667Z" fill="#36363E"/>
<path d="M18.8063 159.667C19.5123 159.667 20.0843 159.095 20.0843 158.389C20.0843 157.683 19.5123 157.111 18.8063 157.111C18.1013 157.111 17.5293 157.683 17.5293 158.389C17.5283 159.094 18.1013 159.667 18.8063 159.667Z" fill="#36363E"/>
<path d="M33.2067 159.667C33.9127 159.667 34.4847 159.095 34.4847 158.389C34.4847 157.683 33.9127 157.111 33.2067 157.111C32.5007 157.111 31.9287 157.683 31.9287 158.389C31.9287 159.094 32.5007 159.667 33.2067 159.667Z" fill="#36363E"/>
<path d="M47.6061 159.667C48.3111 159.667 48.8831 159.095 48.8831 158.389C48.8831 157.683 48.3111 157.111 47.6061 157.111C46.9001 157.111 46.3281 157.683 46.3281 158.389C46.3281 159.094 46.9001 159.667 47.6061 159.667Z" fill="#36363E"/>
<path d="M62.0065 159.667C62.7125 159.667 63.2845 159.095 63.2845 158.389C63.2845 157.683 62.7125 157.111 62.0065 157.111C61.3015 157.111 60.7295 157.683 60.7295 158.389C60.7295 159.094 61.3015 159.667 62.0065 159.667Z" fill="#36363E"/>
<path d="M76.4059 159.667C77.1109 159.667 77.6829 159.095 77.6829 158.389C77.6829 157.683 77.1109 157.111 76.4059 157.111C75.6999 157.111 75.1279 157.683 75.1279 158.389C75.1279 159.094 75.6999 159.667 76.4059 159.667Z" fill="#36363E"/>
<path d="M90.8063 159.667C91.5123 159.667 92.0843 159.095 92.0843 158.389C92.0843 157.683 91.5123 157.111 90.8063 157.111C90.1013 157.111 89.5293 157.683 89.5293 158.389C89.5283 159.094 90.1013 159.667 90.8063 159.667Z" fill="#36363E"/>
<path d="M105.207 159.667C105.913 159.667 106.485 159.095 106.485 158.389C106.485 157.683 105.913 157.111 105.207 157.111C104.501 157.111 103.929 157.683 103.929 158.389C103.929 159.094 104.501 159.667 105.207 159.667Z" fill="#36363E"/>
<path d="M119.606 159.667C120.311 159.667 120.883 159.095 120.883 158.389C120.883 157.683 120.311 157.111 119.606 157.111C118.9 157.111 118.328 157.683 118.328 158.389C118.328 159.094 118.9 159.667 119.606 159.667Z" fill="#36363E"/>
<path d="M134.006 159.667C134.712 159.667 135.284 159.095 135.284 158.389C135.284 157.683 134.712 157.111 134.006 157.111C133.301 157.111 132.729 157.683 132.729 158.389C132.729 159.094 133.301 159.667 134.006 159.667Z" fill="#36363E"/>
<path d="M148.406 159.667C149.111 159.667 149.683 159.095 149.683 158.389C149.683 157.683 149.111 157.111 148.406 157.111C147.7 157.111 147.128 157.683 147.128 158.389C147.128 159.094 147.7 159.667 148.406 159.667Z" fill="#36363E"/>
<path d="M162.806 159.667C163.512 159.667 164.084 159.095 164.084 158.389C164.084 157.683 163.512 157.111 162.806 157.111C162.101 157.111 161.529 157.683 161.529 158.389C161.528 159.094 162.101 159.667 162.806 159.667Z" fill="#36363E"/>
<path d="M177.207 159.667C177.913 159.667 178.485 159.095 178.485 158.389C178.485 157.683 177.913 157.111 177.207 157.111C176.501 157.111 175.929 157.683 175.929 158.389C175.929 159.094 176.501 159.667 177.207 159.667Z" fill="#36363E"/>
<path d="M191.607 159.667C192.312 159.667 192.884 159.095 192.884 158.389C192.884 157.683 192.312 157.111 191.607 157.111C190.901 157.111 190.329 157.683 190.329 158.389C190.328 159.094 190.9 159.667 191.607 159.667Z" fill="#36363E"/>
<path d="M206.006 159.667C206.712 159.667 207.284 159.095 207.284 158.389C207.284 157.683 206.712 157.111 206.006 157.111C205.301 157.111 204.729 157.683 204.729 158.389C204.729 159.094 205.301 159.667 206.006 159.667Z" fill="#36363E"/>
<path d="M220.406 159.667C221.111 159.667 221.683 159.095 221.683 158.389C221.683 157.683 221.111 157.111 220.406 157.111C219.7 157.111 219.128 157.683 219.128 158.389C219.128 159.094 219.7 159.667 220.406 159.667Z" fill="#36363E"/>
<path d="M234.806 159.667C235.512 159.667 236.084 159.095 236.084 158.389C236.084 157.683 235.512 157.111 234.806 157.111C234.101 157.111 233.529 157.683 233.529 158.389C233.528 159.094 234.101 159.667 234.806 159.667Z" fill="#36363E"/>
<path d="M249.207 159.667C249.913 159.667 250.485 159.095 250.485 158.389C250.485 157.683 249.913 157.111 249.207 157.111C248.501 157.111 247.929 157.683 247.929 158.389C247.929 159.094 248.501 159.667 249.207 159.667Z" fill="#36363E"/>
<path d="M263.607 159.667C264.312 159.667 264.884 159.095 264.884 158.389C264.884 157.683 264.312 157.111 263.607 157.111C262.901 157.111 262.329 157.683 262.329 158.389C262.328 159.094 262.9 159.667 263.607 159.667Z" fill="#36363E"/>
<path d="M278.007 159.667C278.713 159.667 279.284 159.095 279.284 158.389C279.284 157.683 278.713 157.111 278.007 157.111C277.302 157.111 276.729 157.683 276.729 158.389C276.729 159.094 277.302 159.667 278.007 159.667Z" fill="#36363E"/>
<path d="M11.6061 174.066C12.3111 174.066 12.8831 173.494 12.8831 172.788C12.8831 172.082 12.3111 171.511 11.6061 171.511C10.9001 171.511 10.3281 172.083 10.3281 172.788C10.3281 173.495 10.9001 174.066 11.6061 174.066Z" fill="#36363E"/>
<path d="M26.0065 174.066C26.7125 174.066 27.2845 173.494 27.2845 172.788C27.2845 172.082 26.7125 171.511 26.0065 171.511C25.3015 171.511 24.7295 172.083 24.7295 172.788C24.7295 173.495 25.3015 174.066 26.0065 174.066Z" fill="#36363E"/>
<path d="M40.4059 174.066C41.1109 174.066 41.6829 173.494 41.6829 172.788C41.6829 172.082 41.1109 171.511 40.4059 171.511C39.6999 171.511 39.1279 172.083 39.1279 172.788C39.1279 173.495 39.6999 174.066 40.4059 174.066Z" fill="#36363E"/>
<path d="M54.8063 174.066C55.5123 174.066 56.0843 173.494 56.0843 172.788C56.0843 172.082 55.5123 171.511 54.8063 171.511C54.1013 171.511 53.5293 172.083 53.5293 172.788C53.5283 173.495 54.1013 174.066 54.8063 174.066Z" fill="#36363E"/>
<path d="M69.2067 174.066C69.9127 174.066 70.4847 173.494 70.4847 172.788C70.4847 172.082 69.9127 171.511 69.2067 171.511C68.5007 171.511 67.9287 172.083 67.9287 172.788C67.9287 173.495 68.5007 174.066 69.2067 174.066Z" fill="#36363E"/>
<path d="M83.6061 174.066C84.3111 174.066 84.8831 173.494 84.8831 172.788C84.8831 172.082 84.3111 171.511 83.6061 171.511C82.9001 171.511 82.3281 172.083 82.3281 172.788C82.3281 173.495 82.9001 174.066 83.6061 174.066Z" fill="#36363E"/>
<path d="M98.0065 174.066C98.7125 174.066 99.2845 173.494 99.2845 172.788C99.2845 172.082 98.7125 171.511 98.0065 171.511C97.3015 171.511 96.7295 172.083 96.7295 172.788C96.7295 173.495 97.3015 174.066 98.0065 174.066Z" fill="#36363E"/>
<path d="M112.406 174.066C113.111 174.066 113.683 173.494 113.683 172.788C113.683 172.082 113.111 171.511 112.406 171.511C111.7 171.511 111.128 172.083 111.128 172.788C111.128 173.495 111.7 174.066 112.406 174.066Z" fill="#36363E"/>
<path d="M126.806 174.066C127.512 174.066 128.084 173.494 128.084 172.788C128.084 172.082 127.512 171.511 126.806 171.511C126.101 171.511 125.529 172.083 125.529 172.788C125.528 173.495 126.101 174.066 126.806 174.066Z" fill="#36363E"/>
<path d="M141.207 174.066C141.913 174.066 142.485 173.494 142.485 172.788C142.485 172.082 141.913 171.511 141.207 171.511C140.501 171.511 139.929 172.083 139.929 172.788C139.929 173.495 140.501 174.066 141.207 174.066Z" fill="#36363E"/>
<path d="M155.607 174.066C156.312 174.066 156.884 173.494 156.884 172.788C156.884 172.082 156.312 171.511 155.607 171.511C154.901 171.511 154.329 172.083 154.329 172.788C154.328 173.495 154.9 174.066 155.607 174.066Z" fill="#36363E"/>
<path d="M170.006 174.066C170.712 174.066 171.284 173.494 171.284 172.788C171.284 172.082 170.712 171.511 170.006 171.511C169.301 171.511 168.729 172.083 168.729 172.788C168.729 173.495 169.301 174.066 170.006 174.066Z" fill="#36363E"/>
<path d="M184.406 174.066C185.111 174.066 185.683 173.494 185.683 172.788C185.683 172.082 185.111 171.511 184.406 171.511C183.7 171.511 183.128 172.083 183.128 172.788C183.128 173.495 183.7 174.066 184.406 174.066Z" fill="#36363E"/>
<path d="M198.806 174.066C199.512 174.066 200.084 173.494 200.084 172.788C200.084 172.082 199.512 171.511 198.806 171.511C198.101 171.511 197.529 172.083 197.529 172.788C197.528 173.495 198.101 174.066 198.806 174.066Z" fill="#36363E"/>
<path d="M213.207 174.066C213.913 174.066 214.485 173.494 214.485 172.788C214.485 172.082 213.913 171.511 213.207 171.511C212.501 171.511 211.929 172.083 211.929 172.788C211.929 173.495 212.501 174.066 213.207 174.066Z" fill="#36363E"/>
<path d="M227.607 174.066C228.312 174.066 228.884 173.494 228.884 172.788C228.884 172.082 228.312 171.511 227.607 171.511C226.901 171.511 226.329 172.083 226.329 172.788C226.328 173.495 226.9 174.066 227.607 174.066Z" fill="#36363E"/>
<path d="M242.006 174.066C242.712 174.066 243.284 173.494 243.284 172.788C243.284 172.082 242.712 171.511 242.006 171.511C241.301 171.511 240.729 172.083 240.729 172.788C240.729 173.495 241.301 174.066 242.006 174.066Z" fill="#36363E"/>
<path d="M256.406 174.066C257.111 174.066 257.683 173.494 257.683 172.788C257.683 172.082 257.111 171.511 256.406 171.511C255.7 171.511 255.128 172.083 255.128 172.788C255.128 173.495 255.7 174.066 256.406 174.066Z" fill="#36363E"/>
<path d="M270.806 174.066C271.512 174.066 272.084 173.494 272.084 172.788C272.084 172.082 271.512 171.511 270.806 171.511C270.101 171.511 269.529 172.083 269.529 172.788C269.528 173.495 270.101 174.066 270.806 174.066Z" fill="#36363E"/>
<path d="M285.207 174.066C285.913 174.066 286.485 173.494 286.485 172.788C286.485 172.082 285.913 171.511 285.207 171.511C284.501 171.511 283.929 172.083 283.929 172.788C283.929 173.495 284.501 174.066 285.207 174.066Z" fill="#36363E"/>
<path d="M4.40593 188.466C5.11093 188.466 5.68293 187.894 5.68293 187.189C5.68293 186.483 5.11093 185.911 4.40593 185.911C3.69993 185.911 3.12793 186.483 3.12793 187.189C3.12793 187.895 3.69993 188.466 4.40593 188.466Z" fill="#36363E"/>
<path d="M18.8063 188.466C19.5123 188.466 20.0843 187.894 20.0843 187.189C20.0843 186.483 19.5123 185.911 18.8063 185.911C18.1013 185.911 17.5293 186.483 17.5293 187.189C17.5283 187.895 18.1013 188.466 18.8063 188.466Z" fill="#36363E"/>
<path d="M33.2067 188.466C33.9127 188.466 34.4847 187.894 34.4847 187.189C34.4847 186.483 33.9127 185.911 33.2067 185.911C32.5007 185.911 31.9287 186.483 31.9287 187.189C31.9287 187.895 32.5007 188.466 33.2067 188.466Z" fill="#36363E"/>
<path d="M47.6061 188.466C48.3111 188.466 48.8831 187.894 48.8831 187.189C48.8831 186.483 48.3111 185.911 47.6061 185.911C46.9001 185.911 46.3281 186.483 46.3281 187.189C46.3281 187.895 46.9001 188.466 47.6061 188.466Z" fill="#36363E"/>
<path d="M62.0065 188.466C62.7125 188.466 63.2845 187.894 63.2845 187.189C63.2845 186.483 62.7125 185.911 62.0065 185.911C61.3015 185.911 60.7295 186.483 60.7295 187.189C60.7295 187.895 61.3015 188.466 62.0065 188.466Z" fill="#36363E"/>
<path d="M76.4059 188.466C77.1109 188.466 77.6829 187.894 77.6829 187.189C77.6829 186.483 77.1109 185.911 76.4059 185.911C75.6999 185.911 75.1279 186.483 75.1279 187.189C75.1279 187.895 75.6999 188.466 76.4059 188.466Z" fill="#36363E"/>
<path d="M90.8063 188.466C91.5123 188.466 92.0843 187.894 92.0843 187.189C92.0843 186.483 91.5123 185.911 90.8063 185.911C90.1013 185.911 89.5293 186.483 89.5293 187.189C89.5283 187.895 90.1013 188.466 90.8063 188.466Z" fill="#36363E"/>
<path d="M105.207 188.466C105.913 188.466 106.485 187.894 106.485 187.189C106.485 186.483 105.913 185.911 105.207 185.911C104.501 185.911 103.929 186.483 103.929 187.189C103.929 187.895 104.501 188.466 105.207 188.466Z" fill="#36363E"/>
<path d="M119.606 188.466C120.311 188.466 120.883 187.894 120.883 187.189C120.883 186.483 120.311 185.911 119.606 185.911C118.9 185.911 118.328 186.483 118.328 187.189C118.328 187.895 118.9 188.466 119.606 188.466Z" fill="#36363E"/>
<path d="M134.006 188.466C134.712 188.466 135.284 187.894 135.284 187.189C135.284 186.483 134.712 185.911 134.006 185.911C133.301 185.911 132.729 186.483 132.729 187.189C132.729 187.895 133.301 188.466 134.006 188.466Z" fill="#36363E"/>
<path d="M148.406 188.466C149.111 188.466 149.683 187.894 149.683 187.189C149.683 186.483 149.111 185.911 148.406 185.911C147.7 185.911 147.128 186.483 147.128 187.189C147.128 187.895 147.7 188.466 148.406 188.466Z" fill="#36363E"/>
<path d="M162.806 188.466C163.512 188.466 164.084 187.894 164.084 187.189C164.084 186.483 163.512 185.911 162.806 185.911C162.101 185.911 161.529 186.483 161.529 187.189C161.528 187.895 162.101 188.466 162.806 188.466Z" fill="#36363E"/>
<path d="M177.207 188.466C177.913 188.466 178.485 187.894 178.485 187.189C178.485 186.483 177.913 185.911 177.207 185.911C176.501 185.911 175.929 186.483 175.929 187.189C175.929 187.895 176.501 188.466 177.207 188.466Z" fill="#36363E"/>
<path d="M191.607 188.466C192.312 188.466 192.884 187.894 192.884 187.189C192.884 186.483 192.312 185.911 191.607 185.911C190.901 185.911 190.329 186.483 190.329 187.189C190.328 187.895 190.9 188.466 191.607 188.466Z" fill="#36363E"/>
<path d="M206.006 188.466C206.712 188.466 207.284 187.894 207.284 187.189C207.284 186.483 206.712 185.911 206.006 185.911C205.301 185.911 204.729 186.483 204.729 187.189C204.729 187.895 205.301 188.466 206.006 188.466Z" fill="#36363E"/>
<path d="M220.406 188.466C221.111 188.466 221.683 187.894 221.683 187.189C221.683 186.483 221.111 185.911 220.406 185.911C219.7 185.911 219.128 186.483 219.128 187.189C219.128 187.895 219.7 188.466 220.406 188.466Z" fill="#36363E"/>
<path d="M234.806 188.466C235.512 188.466 236.084 187.894 236.084 187.189C236.084 186.483 235.512 185.911 234.806 185.911C234.101 185.911 233.529 186.483 233.529 187.189C233.528 187.895 234.101 188.466 234.806 188.466Z" fill="#36363E"/>
<path d="M249.207 188.466C249.913 188.466 250.485 187.894 250.485 187.189C250.485 186.483 249.913 185.911 249.207 185.911C248.501 185.911 247.929 186.483 247.929 187.189C247.929 187.895 248.501 188.466 249.207 188.466Z" fill="#36363E"/>
<path d="M263.607 188.466C264.312 188.466 264.884 187.894 264.884 187.189C264.884 186.483 264.312 185.911 263.607 185.911C262.901 185.911 262.329 186.483 262.329 187.189C262.328 187.895 262.9 188.466 263.607 188.466Z" fill="#36363E"/>
<path d="M278.007 188.466C278.713 188.466 279.284 187.894 279.284 187.189C279.284 186.483 278.713 185.911 278.007 185.911C277.302 185.911 276.729 186.483 276.729 187.189C276.729 187.895 277.302 188.466 278.007 188.466Z" fill="#36363E"/>
<path d="M11.6061 202.867C12.3111 202.867 12.8831 202.295 12.8831 201.589C12.8831 200.883 12.3111 200.311 11.6061 200.311C10.9001 200.311 10.3281 200.883 10.3281 201.589C10.3281 202.295 10.9001 202.867 11.6061 202.867Z" fill="#36363E"/>
<path d="M26.0065 202.867C26.7125 202.867 27.2845 202.295 27.2845 201.589C27.2845 200.883 26.7125 200.311 26.0065 200.311C25.3015 200.311 24.7295 200.883 24.7295 201.589C24.7295 202.295 25.3015 202.867 26.0065 202.867Z" fill="#36363E"/>
<path d="M40.4059 202.867C41.1109 202.867 41.6829 202.295 41.6829 201.589C41.6829 200.883 41.1109 200.311 40.4059 200.311C39.6999 200.311 39.1279 200.883 39.1279 201.589C39.1279 202.295 39.6999 202.867 40.4059 202.867Z" fill="#36363E"/>
<path d="M54.8063 202.867C55.5123 202.867 56.0843 202.295 56.0843 201.589C56.0843 200.883 55.5123 200.311 54.8063 200.311C54.1013 200.311 53.5293 200.883 53.5293 201.589C53.5293 202.295 54.1013 202.867 54.8063 202.867Z" fill="#36363E"/>
<path d="M69.2067 202.867C69.9125 202.867 70.4847 202.295 70.4847 201.589C70.4847 200.883 69.9125 200.311 69.2067 200.311C68.5009 200.311 67.9287 200.883 67.9287 201.589C67.9287 202.295 68.5009 202.867 69.2067 202.867Z" fill="#36363E"/>
<path d="M83.6061 202.867C84.3111 202.867 84.8831 202.295 84.8831 201.589C84.8831 200.883 84.3111 200.311 83.6061 200.311C82.9001 200.311 82.3281 200.883 82.3281 201.589C82.3281 202.295 82.9001 202.867 83.6061 202.867Z" fill="#36363E"/>
<path d="M98.0065 202.867C98.7125 202.867 99.2845 202.295 99.2845 201.589C99.2845 200.883 98.7125 200.311 98.0065 200.311C97.3015 200.311 96.7295 200.883 96.7295 201.589C96.7295 202.295 97.3015 202.867 98.0065 202.867Z" fill="#36363E"/>
<path d="M112.406 202.867C113.111 202.867 113.683 202.295 113.683 201.589C113.683 200.883 113.111 200.311 112.406 200.311C111.7 200.311 111.128 200.883 111.128 201.589C111.128 202.295 111.7 202.867 112.406 202.867Z" fill="#36363E"/>
<path d="M126.806 202.867C127.512 202.867 128.084 202.295 128.084 201.589C128.084 200.883 127.512 200.311 126.806 200.311C126.101 200.311 125.529 200.883 125.529 201.589C125.529 202.295 126.101 202.867 126.806 202.867Z" fill="#36363E"/>
<path d="M141.207 202.867C141.913 202.867 142.485 202.295 142.485 201.589C142.485 200.883 141.913 200.311 141.207 200.311C140.501 200.311 139.929 200.883 139.929 201.589C139.929 202.295 140.501 202.867 141.207 202.867Z" fill="#36363E"/>
<path d="M155.607 202.867C156.312 202.867 156.884 202.295 156.884 201.589C156.884 200.883 156.312 200.311 155.607 200.311C154.901 200.311 154.329 200.883 154.329 201.589C154.329 202.295 154.9 202.867 155.607 202.867Z" fill="#36363E"/>
<path d="M170.006 202.867C170.712 202.867 171.284 202.295 171.284 201.589C171.284 200.883 170.712 200.311 170.006 200.311C169.301 200.311 168.729 200.883 168.729 201.589C168.729 202.295 169.301 202.867 170.006 202.867Z" fill="#36363E"/>
<path d="M184.406 202.867C185.111 202.867 185.683 202.295 185.683 201.589C185.683 200.883 185.111 200.311 184.406 200.311C183.7 200.311 183.128 200.883 183.128 201.589C183.128 202.295 183.7 202.867 184.406 202.867Z" fill="#36363E"/>
<path d="M198.806 202.867C199.512 202.867 200.084 202.295 200.084 201.589C200.084 200.883 199.512 200.311 198.806 200.311C198.101 200.311 197.529 200.883 197.529 201.589C197.529 202.295 198.101 202.867 198.806 202.867Z" fill="#36363E"/>
<path d="M213.207 202.867C213.913 202.867 214.485 202.295 214.485 201.589C214.485 200.883 213.913 200.311 213.207 200.311C212.501 200.311 211.929 200.883 211.929 201.589C211.929 202.295 212.501 202.867 213.207 202.867Z" fill="#36363E"/>
<path d="M227.607 202.867C228.312 202.867 228.884 202.295 228.884 201.589C228.884 200.883 228.312 200.311 227.607 200.311C226.901 200.311 226.329 200.883 226.329 201.589C226.329 202.295 226.9 202.867 227.607 202.867Z" fill="#36363E"/>
<path d="M242.006 202.867C242.712 202.867 243.284 202.295 243.284 201.589C243.284 200.883 242.712 200.311 242.006 200.311C241.301 200.311 240.729 200.883 240.729 201.589C240.729 202.295 241.301 202.867 242.006 202.867Z" fill="#36363E"/>
<path d="M256.406 202.867C257.111 202.867 257.683 202.295 257.683 201.589C257.683 200.883 257.111 200.311 256.406 200.311C255.7 200.311 255.128 200.883 255.128 201.589C255.128 202.295 255.7 202.867 256.406 202.867Z" fill="#36363E"/>
<path d="M270.806 202.867C271.512 202.867 272.084 202.295 272.084 201.589C272.084 200.883 271.512 200.311 270.806 200.311C270.101 200.311 269.529 200.883 269.529 201.589C269.529 202.295 270.101 202.867 270.806 202.867Z" fill="#36363E"/>
<path d="M285.207 202.867C285.913 202.867 286.485 202.295 286.485 201.589C286.485 200.883 285.913 200.311 285.207 200.311C284.501 200.311 283.929 200.883 283.929 201.589C283.929 202.295 284.501 202.867 285.207 202.867Z" fill="#36363E"/>
<path d="M4.40593 217.267C5.11093 217.267 5.68293 216.695 5.68293 215.989C5.68293 215.283 5.11093 214.711 4.40593 214.711C3.69993 214.711 3.12793 215.283 3.12793 215.989C3.12793 216.695 3.69993 217.267 4.40593 217.267Z" fill="#36363E"/>
<path d="M18.8063 217.267C19.5123 217.267 20.0843 216.695 20.0843 215.989C20.0843 215.283 19.5123 214.711 18.8063 214.711C18.1013 214.711 17.5293 215.283 17.5293 215.989C17.5293 216.695 18.1013 217.267 18.8063 217.267Z" fill="#36363E"/>
<path d="M33.2067 217.267C33.9125 217.267 34.4847 216.695 34.4847 215.989C34.4847 215.283 33.9125 214.711 33.2067 214.711C32.5009 214.711 31.9287 215.283 31.9287 215.989C31.9287 216.695 32.5009 217.267 33.2067 217.267Z" fill="#36363E"/>
<path d="M47.6061 217.267C48.3111 217.267 48.8831 216.695 48.8831 215.989C48.8831 215.283 48.3111 214.711 47.6061 214.711C46.9001 214.711 46.3281 215.283 46.3281 215.989C46.3281 216.695 46.9001 217.267 47.6061 217.267Z" fill="#36363E"/>
<path d="M62.0065 217.267C62.7125 217.267 63.2845 216.695 63.2845 215.989C63.2845 215.283 62.7125 214.711 62.0065 214.711C61.3015 214.711 60.7295 215.283 60.7295 215.989C60.7295 216.695 61.3015 217.267 62.0065 217.267Z" fill="#36363E"/>
<path d="M76.4059 217.267C77.1109 217.267 77.6829 216.695 77.6829 215.989C77.6829 215.283 77.1109 214.711 76.4059 214.711C75.6999 214.711 75.1279 215.283 75.1279 215.989C75.1279 216.695 75.6999 217.267 76.4059 217.267Z" fill="#36363E"/>
<path d="M90.8063 217.267C91.5123 217.267 92.0843 216.695 92.0843 215.989C92.0843 215.283 91.5123 214.711 90.8063 214.711C90.1013 214.711 89.5293 215.283 89.5293 215.989C89.5293 216.695 90.1013 217.267 90.8063 217.267Z" fill="#36363E"/>
<path d="M105.207 217.267C105.913 217.267 106.485 216.695 106.485 215.989C106.485 215.283 105.913 214.711 105.207 214.711C104.501 214.711 103.929 215.283 103.929 215.989C103.929 216.695 104.501 217.267 105.207 217.267Z" fill="#36363E"/>
<path d="M119.606 217.267C120.311 217.267 120.883 216.695 120.883 215.989C120.883 215.283 120.311 214.711 119.606 214.711C118.9 214.711 118.328 215.283 118.328 215.989C118.328 216.695 118.9 217.267 119.606 217.267Z" fill="#36363E"/>
<path d="M134.006 217.267C134.712 217.267 135.284 216.695 135.284 215.989C135.284 215.283 134.712 214.711 134.006 214.711C133.301 214.711 132.729 215.283 132.729 215.989C132.729 216.695 133.301 217.267 134.006 217.267Z" fill="#36363E"/>
<path d="M148.406 217.267C149.111 217.267 149.683 216.695 149.683 215.989C149.683 215.283 149.111 214.711 148.406 214.711C147.7 214.711 147.128 215.283 147.128 215.989C147.128 216.695 147.7 217.267 148.406 217.267Z" fill="#36363E"/>
<path d="M162.806 217.267C163.512 217.267 164.084 216.695 164.084 215.989C164.084 215.283 163.512 214.711 162.806 214.711C162.101 214.711 161.529 215.283 161.529 215.989C161.529 216.695 162.101 217.267 162.806 217.267Z" fill="#36363E"/>
<path d="M177.207 217.267C177.913 217.267 178.485 216.695 178.485 215.989C178.485 215.283 177.913 214.711 177.207 214.711C176.501 214.711 175.929 215.283 175.929 215.989C175.929 216.695 176.501 217.267 177.207 217.267Z" fill="#36363E"/>
<path d="M191.607 217.267C192.312 217.267 192.884 216.695 192.884 215.989C192.884 215.283 192.312 214.711 191.607 214.711C190.901 214.711 190.329 215.283 190.329 215.989C190.329 216.695 190.9 217.267 191.607 217.267Z" fill="#36363E"/>
<path d="M206.006 217.267C206.712 217.267 207.284 216.695 207.284 215.989C207.284 215.283 206.712 214.711 206.006 214.711C205.301 214.711 204.729 215.283 204.729 215.989C204.729 216.695 205.301 217.267 206.006 217.267Z" fill="#36363E"/>
<path d="M220.406 217.267C221.111 217.267 221.683 216.695 221.683 215.989C221.683 215.283 221.111 214.711 220.406 214.711C219.7 214.711 219.128 215.283 219.128 215.989C219.128 216.695 219.7 217.267 220.406 217.267Z" fill="#36363E"/>
<path d="M234.806 217.267C235.512 217.267 236.084 216.695 236.084 215.989C236.084 215.283 235.512 214.711 234.806 214.711C234.101 214.711 233.529 215.283 233.529 215.989C233.529 216.695 234.101 217.267 234.806 217.267Z" fill="#36363E"/>
<path d="M249.207 217.267C249.913 217.267 250.485 216.695 250.485 215.989C250.485 215.283 249.913 214.711 249.207 214.711C248.501 214.711 247.929 215.283 247.929 215.989C247.929 216.695 248.501 217.267 249.207 217.267Z" fill="#36363E"/>
<path d="M263.607 217.267C264.312 217.267 264.884 216.695 264.884 215.989C264.884 215.283 264.312 214.711 263.607 214.711C262.901 214.711 262.329 215.283 262.329 215.989C262.329 216.695 262.9 217.267 263.607 217.267Z" fill="#36363E"/>
<path d="M278.007 217.267C278.713 217.267 279.284 216.695 279.284 215.989C279.284 215.283 278.713 214.711 278.007 214.711C277.302 214.711 276.729 215.283 276.729 215.989C276.729 216.695 277.302 217.267 278.007 217.267Z" fill="#36363E"/>
<path d="M11.6061 231.667C12.3111 231.667 12.8831 231.095 12.8831 230.389C12.8831 229.683 12.3111 229.111 11.6061 229.111C10.9001 229.111 10.3281 229.683 10.3281 230.389C10.3281 231.094 10.9001 231.667 11.6061 231.667Z" fill="#36363E"/>
<path d="M26.0065 231.667C26.7125 231.667 27.2845 231.095 27.2845 230.389C27.2845 229.683 26.7125 229.111 26.0065 229.111C25.3015 229.111 24.7295 229.683 24.7295 230.389C24.7295 231.094 25.3015 231.667 26.0065 231.667Z" fill="#36363E"/>
<path d="M40.4059 231.667C41.1109 231.667 41.6829 231.095 41.6829 230.389C41.6829 229.683 41.1109 229.111 40.4059 229.111C39.6999 229.111 39.1279 229.683 39.1279 230.389C39.1279 231.094 39.6999 231.667 40.4059 231.667Z" fill="#36363E"/>
<path d="M54.8063 231.667C55.5123 231.667 56.0843 231.095 56.0843 230.389C56.0843 229.683 55.5123 229.111 54.8063 229.111C54.1013 229.111 53.5293 229.683 53.5293 230.389C53.5283 231.094 54.1013 231.667 54.8063 231.667Z" fill="#36363E"/>
<path d="M69.2067 231.667C69.9127 231.667 70.4847 231.095 70.4847 230.389C70.4847 229.683 69.9127 229.111 69.2067 229.111C68.5007 229.111 67.9287 229.683 67.9287 230.389C67.9287 231.094 68.5007 231.667 69.2067 231.667Z" fill="#36363E"/>
<path d="M83.6061 231.667C84.3111 231.667 84.8831 231.095 84.8831 230.389C84.8831 229.683 84.3111 229.111 83.6061 229.111C82.9001 229.111 82.3281 229.683 82.3281 230.389C82.3281 231.094 82.9001 231.667 83.6061 231.667Z" fill="#36363E"/>
<path d="M98.0065 231.667C98.7125 231.667 99.2845 231.095 99.2845 230.389C99.2845 229.683 98.7125 229.111 98.0065 229.111C97.3015 229.111 96.7295 229.683 96.7295 230.389C96.7295 231.094 97.3015 231.667 98.0065 231.667Z" fill="#36363E"/>
<path d="M112.406 231.667C113.111 231.667 113.683 231.095 113.683 230.389C113.683 229.683 113.111 229.111 112.406 229.111C111.7 229.111 111.128 229.683 111.128 230.389C111.128 231.094 111.7 231.667 112.406 231.667Z" fill="#36363E"/>
<path d="M126.806 231.667C127.512 231.667 128.084 231.095 128.084 230.389C128.084 229.683 127.512 229.111 126.806 229.111C126.101 229.111 125.529 229.683 125.529 230.389C125.528 231.094 126.101 231.667 126.806 231.667Z" fill="#36363E"/>
<path d="M141.207 231.667C141.913 231.667 142.485 231.095 142.485 230.389C142.485 229.683 141.913 229.111 141.207 229.111C140.501 229.111 139.929 229.683 139.929 230.389C139.929 231.094 140.501 231.667 141.207 231.667Z" fill="#36363E"/>
<path d="M155.607 231.667C156.312 231.667 156.884 231.095 156.884 230.389C156.884 229.683 156.312 229.111 155.607 229.111C154.901 229.111 154.329 229.683 154.329 230.389C154.328 231.094 154.9 231.667 155.607 231.667Z" fill="#36363E"/>
<path d="M170.006 231.667C170.712 231.667 171.284 231.095 171.284 230.389C171.284 229.683 170.712 229.111 170.006 229.111C169.301 229.111 168.729 229.683 168.729 230.389C168.729 231.094 169.301 231.667 170.006 231.667Z" fill="#36363E"/>
<path d="M184.406 231.667C185.111 231.667 185.683 231.095 185.683 230.389C185.683 229.683 185.111 229.111 184.406 229.111C183.7 229.111 183.128 229.683 183.128 230.389C183.128 231.094 183.7 231.667 184.406 231.667Z" fill="#36363E"/>
<path d="M198.806 231.667C199.512 231.667 200.084 231.095 200.084 230.389C200.084 229.683 199.512 229.111 198.806 229.111C198.101 229.111 197.529 229.683 197.529 230.389C197.528 231.094 198.101 231.667 198.806 231.667Z" fill="#36363E"/>
<path d="M213.207 231.667C213.913 231.667 214.485 231.095 214.485 230.389C214.485 229.683 213.913 229.111 213.207 229.111C212.501 229.111 211.929 229.683 211.929 230.389C211.929 231.094 212.501 231.667 213.207 231.667Z" fill="#36363E"/>
<path d="M227.607 231.667C228.312 231.667 228.884 231.095 228.884 230.389C228.884 229.683 228.312 229.111 227.607 229.111C226.901 229.111 226.329 229.683 226.329 230.389C226.328 231.094 226.9 231.667 227.607 231.667Z" fill="#36363E"/>
<path d="M242.006 231.667C242.712 231.667 243.284 231.095 243.284 230.389C243.284 229.683 242.712 229.111 242.006 229.111C241.301 229.111 240.729 229.683 240.729 230.389C240.729 231.094 241.301 231.667 242.006 231.667Z" fill="#36363E"/>
<path d="M256.406 231.667C257.111 231.667 257.683 231.095 257.683 230.389C257.683 229.683 257.111 229.111 256.406 229.111C255.7 229.111 255.128 229.683 255.128 230.389C255.128 231.094 255.7 231.667 256.406 231.667Z" fill="#36363E"/>
<path d="M270.806 231.667C271.512 231.667 272.084 231.095 272.084 230.389C272.084 229.683 271.512 229.111 270.806 229.111C270.101 229.111 269.529 229.683 269.529 230.389C269.528 231.094 270.101 231.667 270.806 231.667Z" fill="#36363E"/>
<path d="M285.207 231.667C285.913 231.667 286.485 231.095 286.485 230.389C286.485 229.683 285.913 229.111 285.207 229.111C284.501 229.111 283.929 229.683 283.929 230.389C283.929 231.094 284.501 231.667 285.207 231.667Z" fill="#36363E"/>
<path d="M4.40593 246.066C5.11093 246.066 5.68293 245.494 5.68293 244.788C5.68293 244.082 5.11093 243.511 4.40593 243.511C3.69993 243.511 3.12793 244.083 3.12793 244.788C3.12793 245.495 3.69993 246.066 4.40593 246.066Z" fill="#36363E"/>
<path d="M18.8063 246.066C19.5123 246.066 20.0843 245.494 20.0843 244.788C20.0843 244.082 19.5123 243.511 18.8063 243.511C18.1013 243.511 17.5293 244.083 17.5293 244.788C17.5283 245.495 18.1013 246.066 18.8063 246.066Z" fill="#36363E"/>
<path d="M33.2067 246.066C33.9127 246.066 34.4847 245.494 34.4847 244.788C34.4847 244.082 33.9127 243.511 33.2067 243.511C32.5007 243.511 31.9287 244.083 31.9287 244.788C31.9287 245.495 32.5007 246.066 33.2067 246.066Z" fill="#36363E"/>
<path d="M47.6061 246.066C48.3111 246.066 48.8831 245.494 48.8831 244.788C48.8831 244.082 48.3111 243.511 47.6061 243.511C46.9001 243.511 46.3281 244.083 46.3281 244.788C46.3281 245.495 46.9001 246.066 47.6061 246.066Z" fill="#36363E"/>
<path d="M62.0065 246.066C62.7125 246.066 63.2845 245.494 63.2845 244.788C63.2845 244.082 62.7125 243.511 62.0065 243.511C61.3015 243.511 60.7295 244.083 60.7295 244.788C60.7295 245.495 61.3015 246.066 62.0065 246.066Z" fill="#36363E"/>
<path d="M76.4059 246.066C77.1109 246.066 77.6829 245.494 77.6829 244.788C77.6829 244.082 77.1109 243.511 76.4059 243.511C75.6999 243.511 75.1279 244.083 75.1279 244.788C75.1279 245.495 75.6999 246.066 76.4059 246.066Z" fill="#36363E"/>
<path d="M90.8063 246.066C91.5123 246.066 92.0843 245.494 92.0843 244.788C92.0843 244.082 91.5123 243.511 90.8063 243.511C90.1013 243.511 89.5293 244.083 89.5293 244.788C89.5283 245.495 90.1013 246.066 90.8063 246.066Z" fill="#36363E"/>
<path d="M105.207 246.066C105.913 246.066 106.485 245.494 106.485 244.788C106.485 244.082 105.913 243.511 105.207 243.511C104.501 243.511 103.929 244.083 103.929 244.788C103.929 245.495 104.501 246.066 105.207 246.066Z" fill="#36363E"/>
<path d="M119.606 246.066C120.311 246.066 120.883 245.494 120.883 244.788C120.883 244.082 120.311 243.511 119.606 243.511C118.9 243.511 118.328 244.083 118.328 244.788C118.328 245.495 118.9 246.066 119.606 246.066Z" fill="#36363E"/>
<path d="M134.006 246.066C134.712 246.066 135.284 245.494 135.284 244.788C135.284 244.082 134.712 243.511 134.006 243.511C133.301 243.511 132.729 244.083 132.729 244.788C132.729 245.495 133.301 246.066 134.006 246.066Z" fill="#36363E"/>
<path d="M148.406 246.066C149.111 246.066 149.683 245.494 149.683 244.788C149.683 244.082 149.111 243.511 148.406 243.511C147.7 243.511 147.128 244.083 147.128 244.788C147.128 245.495 147.7 246.066 148.406 246.066Z" fill="#36363E"/>
<path d="M162.806 246.066C163.512 246.066 164.084 245.494 164.084 244.788C164.084 244.082 163.512 243.511 162.806 243.511C162.101 243.511 161.529 244.083 161.529 244.788C161.528 245.495 162.101 246.066 162.806 246.066Z" fill="#36363E"/>
<path d="M177.207 246.066C177.913 246.066 178.485 245.494 178.485 244.788C178.485 244.082 177.913 243.511 177.207 243.511C176.501 243.511 175.929 244.083 175.929 244.788C175.929 245.495 176.501 246.066 177.207 246.066Z" fill="#36363E"/>
<path d="M191.607 246.066C192.312 246.066 192.884 245.494 192.884 244.788C192.884 244.082 192.312 243.511 191.607 243.511C190.901 243.511 190.329 244.083 190.329 244.788C190.328 245.495 190.9 246.066 191.607 246.066Z" fill="#36363E"/>
<path d="M206.006 246.066C206.712 246.066 207.284 245.494 207.284 244.788C207.284 244.082 206.712 243.511 206.006 243.511C205.301 243.511 204.729 244.083 204.729 244.788C204.729 245.495 205.301 246.066 206.006 246.066Z" fill="#36363E"/>
<path d="M220.406 246.066C221.111 246.066 221.683 245.494 221.683 244.788C221.683 244.082 221.111 243.511 220.406 243.511C219.7 243.511 219.128 244.083 219.128 244.788C219.128 245.495 219.7 246.066 220.406 246.066Z" fill="#36363E"/>
<path d="M234.806 246.066C235.512 246.066 236.084 245.494 236.084 244.788C236.084 244.082 235.512 243.511 234.806 243.511C234.101 243.511 233.529 244.083 233.529 244.788C233.528 245.495 234.101 246.066 234.806 246.066Z" fill="#36363E"/>
<path d="M249.207 246.066C249.913 246.066 250.485 245.494 250.485 244.788C250.485 244.082 249.913 243.511 249.207 243.511C248.501 243.511 247.929 244.083 247.929 244.788C247.929 245.495 248.501 246.066 249.207 246.066Z" fill="#36363E"/>
<path d="M263.607 246.066C264.312 246.066 264.884 245.494 264.884 244.788C264.884 244.082 264.312 243.511 263.607 243.511C262.901 243.511 262.329 244.083 262.329 244.788C262.328 245.495 262.9 246.066 263.607 246.066Z" fill="#36363E"/>
<path d="M278.007 246.066C278.713 246.066 279.284 245.494 279.284 244.788C279.284 244.082 278.713 243.511 278.007 243.511C277.302 243.511 276.729 244.083 276.729 244.788C276.729 245.495 277.302 246.066 278.007 246.066Z" fill="#36363E"/>
<path d="M11.6061 260.466C12.3111 260.466 12.8831 259.894 12.8831 259.189C12.8831 258.483 12.3111 257.911 11.6061 257.911C10.9001 257.911 10.3281 258.483 10.3281 259.189C10.3281 259.895 10.9001 260.466 11.6061 260.466Z" fill="#36363E"/>
<path d="M26.0065 260.466C26.7125 260.466 27.2845 259.894 27.2845 259.189C27.2845 258.483 26.7125 257.911 26.0065 257.911C25.3015 257.911 24.7295 258.483 24.7295 259.189C24.7295 259.895 25.3015 260.466 26.0065 260.466Z" fill="#36363E"/>
<path d="M40.4059 260.466C41.1109 260.466 41.6829 259.894 41.6829 259.189C41.6829 258.483 41.1109 257.911 40.4059 257.911C39.6999 257.911 39.1279 258.483 39.1279 259.189C39.1279 259.895 39.6999 260.466 40.4059 260.466Z" fill="#36363E"/>
<path d="M54.8063 260.466C55.5123 260.466 56.0843 259.894 56.0843 259.189C56.0843 258.483 55.5123 257.911 54.8063 257.911C54.1013 257.911 53.5293 258.483 53.5293 259.189C53.5283 259.895 54.1013 260.466 54.8063 260.466Z" fill="#36363E"/>
<path d="M69.2067 260.466C69.9127 260.466 70.4847 259.894 70.4847 259.189C70.4847 258.483 69.9127 257.911 69.2067 257.911C68.5007 257.911 67.9287 258.483 67.9287 259.189C67.9287 259.895 68.5007 260.466 69.2067 260.466Z" fill="#36363E"/>
<path d="M83.6061 260.466C84.3111 260.466 84.8831 259.894 84.8831 259.189C84.8831 258.483 84.3111 257.911 83.6061 257.911C82.9001 257.911 82.3281 258.483 82.3281 259.189C82.3281 259.895 82.9001 260.466 83.6061 260.466Z" fill="#36363E"/>
<path d="M98.0065 260.466C98.7125 260.466 99.2845 259.894 99.2845 259.189C99.2845 258.483 98.7125 257.911 98.0065 257.911C97.3015 257.911 96.7295 258.483 96.7295 259.189C96.7295 259.895 97.3015 260.466 98.0065 260.466Z" fill="#36363E"/>
<path d="M112.406 260.466C113.111 260.466 113.683 259.894 113.683 259.189C113.683 258.483 113.111 257.911 112.406 257.911C111.7 257.911 111.128 258.483 111.128 259.189C111.128 259.895 111.7 260.466 112.406 260.466Z" fill="#36363E"/>
<path d="M126.806 260.466C127.512 260.466 128.084 259.894 128.084 259.189C128.084 258.483 127.512 257.911 126.806 257.911C126.101 257.911 125.529 258.483 125.529 259.189C125.528 259.895 126.101 260.466 126.806 260.466Z" fill="#36363E"/>
<path d="M141.207 260.466C141.913 260.466 142.485 259.894 142.485 259.189C142.485 258.483 141.913 257.911 141.207 257.911C140.501 257.911 139.929 258.483 139.929 259.189C139.929 259.895 140.501 260.466 141.207 260.466Z" fill="#36363E"/>
<path d="M155.607 260.466C156.312 260.466 156.884 259.894 156.884 259.189C156.884 258.483 156.312 257.911 155.607 257.911C154.901 257.911 154.329 258.483 154.329 259.189C154.328 259.895 154.9 260.466 155.607 260.466Z" fill="#36363E"/>
<path d="M170.006 260.466C170.712 260.466 171.284 259.894 171.284 259.189C171.284 258.483 170.712 257.911 170.006 257.911C169.301 257.911 168.729 258.483 168.729 259.189C168.729 259.895 169.301 260.466 170.006 260.466Z" fill="#36363E"/>
<path d="M184.406 260.466C185.111 260.466 185.683 259.894 185.683 259.189C185.683 258.483 185.111 257.911 184.406 257.911C183.7 257.911 183.128 258.483 183.128 259.189C183.128 259.895 183.7 260.466 184.406 260.466Z" fill="#36363E"/>
<path d="M198.806 260.466C199.512 260.466 200.084 259.894 200.084 259.189C200.084 258.483 199.512 257.911 198.806 257.911C198.101 257.911 197.529 258.483 197.529 259.189C197.528 259.895 198.101 260.466 198.806 260.466Z" fill="#36363E"/>
<path d="M213.207 260.466C213.913 260.466 214.485 259.894 214.485 259.189C214.485 258.483 213.913 257.911 213.207 257.911C212.501 257.911 211.929 258.483 211.929 259.189C211.929 259.895 212.501 260.466 213.207 260.466Z" fill="#36363E"/>
<path d="M227.607 260.466C228.312 260.466 228.884 259.894 228.884 259.189C228.884 258.483 228.312 257.911 227.607 257.911C226.901 257.911 226.329 258.483 226.329 259.189C226.328 259.895 226.9 260.466 227.607 260.466Z" fill="#36363E"/>
<path d="M242.006 260.466C242.712 260.466 243.284 259.894 243.284 259.189C243.284 258.483 242.712 257.911 242.006 257.911C241.301 257.911 240.729 258.483 240.729 259.189C240.729 259.895 241.301 260.466 242.006 260.466Z" fill="#36363E"/>
<path d="M256.406 260.466C257.111 260.466 257.683 259.894 257.683 259.189C257.683 258.483 257.111 257.911 256.406 257.911C255.7 257.911 255.128 258.483 255.128 259.189C255.128 259.895 255.7 260.466 256.406 260.466Z" fill="#36363E"/>
<path d="M270.806 260.466C271.512 260.466 272.084 259.894 272.084 259.189C272.084 258.483 271.512 257.911 270.806 257.911C270.101 257.911 269.529 258.483 269.529 259.189C269.528 259.895 270.101 260.466 270.806 260.466Z" fill="#36363E"/>
<path d="M285.207 260.466C285.913 260.466 286.485 259.894 286.485 259.189C286.485 258.483 285.913 257.911 285.207 257.911C284.501 257.911 283.929 258.483 283.929 259.189C283.929 259.895 284.501 260.466 285.207 260.466Z" fill="#36363E"/>
<path d="M4.40593 274.867C5.11093 274.867 5.68293 274.295 5.68293 273.589C5.68293 272.883 5.11093 272.311 4.40593 272.311C3.69993 272.311 3.12793 272.883 3.12793 273.589C3.12793 274.295 3.69993 274.867 4.40593 274.867Z" fill="#36363E"/>
<path d="M18.8063 274.867C19.5123 274.867 20.0843 274.295 20.0843 273.589C20.0843 272.883 19.5123 272.311 18.8063 272.311C18.1013 272.311 17.5293 272.883 17.5293 273.589C17.5293 274.295 18.1013 274.867 18.8063 274.867Z" fill="#36363E"/>
<path d="M33.2067 274.867C33.9125 274.867 34.4847 274.295 34.4847 273.589C34.4847 272.883 33.9125 272.311 33.2067 272.311C32.5009 272.311 31.9287 272.883 31.9287 273.589C31.9287 274.295 32.5009 274.867 33.2067 274.867Z" fill="#36363E"/>
<path d="M47.6061 274.867C48.3111 274.867 48.8831 274.295 48.8831 273.589C48.8831 272.883 48.3111 272.311 47.6061 272.311C46.9001 272.311 46.3281 272.883 46.3281 273.589C46.3281 274.295 46.9001 274.867 47.6061 274.867Z" fill="#36363E"/>
<path d="M62.0065 274.867C62.7125 274.867 63.2845 274.295 63.2845 273.589C63.2845 272.883 62.7125 272.311 62.0065 272.311C61.3015 272.311 60.7295 272.883 60.7295 273.589C60.7295 274.295 61.3015 274.867 62.0065 274.867Z" fill="#36363E"/>
<path d="M76.4059 274.867C77.1109 274.867 77.6829 274.295 77.6829 273.589C77.6829 272.883 77.1109 272.311 76.4059 272.311C75.6999 272.311 75.1279 272.883 75.1279 273.589C75.1279 274.295 75.6999 274.867 76.4059 274.867Z" fill="#36363E"/>
<path d="M90.8063 274.867C91.5123 274.867 92.0843 274.295 92.0843 273.589C92.0843 272.883 91.5123 272.311 90.8063 272.311C90.1013 272.311 89.5293 272.883 89.5293 273.589C89.5293 274.295 90.1013 274.867 90.8063 274.867Z" fill="#36363E"/>
<path d="M105.207 274.867C105.913 274.867 106.485 274.295 106.485 273.589C106.485 272.883 105.913 272.311 105.207 272.311C104.501 272.311 103.929 272.883 103.929 273.589C103.929 274.295 104.501 274.867 105.207 274.867Z" fill="#36363E"/>
<path d="M119.606 274.867C120.311 274.867 120.883 274.295 120.883 273.589C120.883 272.883 120.311 272.311 119.606 272.311C118.9 272.311 118.328 272.883 118.328 273.589C118.328 274.295 118.9 274.867 119.606 274.867Z" fill="#36363E"/>
<path d="M134.006 274.867C134.712 274.867 135.284 274.295 135.284 273.589C135.284 272.883 134.712 272.311 134.006 272.311C133.301 272.311 132.729 272.883 132.729 273.589C132.729 274.295 133.301 274.867 134.006 274.867Z" fill="#36363E"/>
<path d="M148.406 274.867C149.111 274.867 149.683 274.295 149.683 273.589C149.683 272.883 149.111 272.311 148.406 272.311C147.7 272.311 147.128 272.883 147.128 273.589C147.128 274.295 147.7 274.867 148.406 274.867Z" fill="#36363E"/>
<path d="M162.806 274.867C163.512 274.867 164.084 274.295 164.084 273.589C164.084 272.883 163.512 272.311 162.806 272.311C162.101 272.311 161.529 272.883 161.529 273.589C161.529 274.295 162.101 274.867 162.806 274.867Z" fill="#36363E"/>
<path d="M177.207 274.867C177.913 274.867 178.485 274.295 178.485 273.589C178.485 272.883 177.913 272.311 177.207 272.311C176.501 272.311 175.929 272.883 175.929 273.589C175.929 274.295 176.501 274.867 177.207 274.867Z" fill="#36363E"/>
<path d="M191.607 274.867C192.312 274.867 192.884 274.295 192.884 273.589C192.884 272.883 192.312 272.311 191.607 272.311C190.901 272.311 190.329 272.883 190.329 273.589C190.329 274.295 190.9 274.867 191.607 274.867Z" fill="#36363E"/>
<path d="M206.006 274.867C206.712 274.867 207.284 274.295 207.284 273.589C207.284 272.883 206.712 272.311 206.006 272.311C205.301 272.311 204.729 272.883 204.729 273.589C204.729 274.295 205.301 274.867 206.006 274.867Z" fill="#36363E"/>
<path d="M220.406 274.867C221.111 274.867 221.683 274.295 221.683 273.589C221.683 272.883 221.111 272.311 220.406 272.311C219.7 272.311 219.128 272.883 219.128 273.589C219.128 274.295 219.7 274.867 220.406 274.867Z" fill="#36363E"/>
<path d="M234.806 274.867C235.512 274.867 236.084 274.295 236.084 273.589C236.084 272.883 235.512 272.311 234.806 272.311C234.101 272.311 233.529 272.883 233.529 273.589C233.529 274.295 234.101 274.867 234.806 274.867Z" fill="#36363E"/>
<path d="M249.207 274.867C249.913 274.867 250.485 274.295 250.485 273.589C250.485 272.883 249.913 272.311 249.207 272.311C248.501 272.311 247.929 272.883 247.929 273.589C247.929 274.295 248.501 274.867 249.207 274.867Z" fill="#36363E"/>
<path d="M263.607 274.867C264.312 274.867 264.884 274.295 264.884 273.589C264.884 272.883 264.312 272.311 263.607 272.311C262.901 272.311 262.329 272.883 262.329 273.589C262.329 274.295 262.9 274.867 263.607 274.867Z" fill="#36363E"/>
<path d="M278.007 274.867C278.713 274.867 279.284 274.295 279.284 273.589C279.284 272.883 278.713 272.311 278.007 272.311C277.302 272.311 276.729 272.883 276.729 273.589C276.729 274.295 277.302 274.867 278.007 274.867Z" fill="#36363E"/>
<path d="M11.6061 289.267C12.3111 289.267 12.8831 288.695 12.8831 287.989C12.8831 287.283 12.3111 286.711 11.6061 286.711C10.9001 286.711 10.3281 287.283 10.3281 287.989C10.3281 288.695 10.9001 289.267 11.6061 289.267Z" fill="#36363E"/>
<path d="M26.0065 289.267C26.7125 289.267 27.2845 288.695 27.2845 287.989C27.2845 287.283 26.7125 286.711 26.0065 286.711C25.3015 286.711 24.7295 287.283 24.7295 287.989C24.7295 288.695 25.3015 289.267 26.0065 289.267Z" fill="#36363E"/>
<path d="M40.4059 289.267C41.1109 289.267 41.6829 288.695 41.6829 287.989C41.6829 287.283 41.1109 286.711 40.4059 286.711C39.6999 286.711 39.1279 287.283 39.1279 287.989C39.1279 288.695 39.6999 289.267 40.4059 289.267Z" fill="#36363E"/>
<path d="M54.8063 289.267C55.5123 289.267 56.0843 288.695 56.0843 287.989C56.0843 287.283 55.5123 286.711 54.8063 286.711C54.1013 286.711 53.5293 287.283 53.5293 287.989C53.5293 288.695 54.1013 289.267 54.8063 289.267Z" fill="#36363E"/>
<path d="M69.2067 289.267C69.9125 289.267 70.4847 288.695 70.4847 287.989C70.4847 287.283 69.9125 286.711 69.2067 286.711C68.5009 286.711 67.9287 287.283 67.9287 287.989C67.9287 288.695 68.5009 289.267 69.2067 289.267Z" fill="#36363E"/>
<path d="M83.6061 289.267C84.3111 289.267 84.8831 288.695 84.8831 287.989C84.8831 287.283 84.3111 286.711 83.6061 286.711C82.9001 286.711 82.3281 287.283 82.3281 287.989C82.3281 288.695 82.9001 289.267 83.6061 289.267Z" fill="#36363E"/>
<path d="M98.0065 289.267C98.7125 289.267 99.2845 288.695 99.2845 287.989C99.2845 287.283 98.7125 286.711 98.0065 286.711C97.3015 286.711 96.7295 287.283 96.7295 287.989C96.7295 288.695 97.3015 289.267 98.0065 289.267Z" fill="#36363E"/>
<path d="M112.406 289.267C113.111 289.267 113.683 288.695 113.683 287.989C113.683 287.283 113.111 286.711 112.406 286.711C111.7 286.711 111.128 287.283 111.128 287.989C111.128 288.695 111.7 289.267 112.406 289.267Z" fill="#36363E"/>
<path d="M126.806 289.267C127.512 289.267 128.084 288.695 128.084 287.989C128.084 287.283 127.512 286.711 126.806 286.711C126.101 286.711 125.529 287.283 125.529 287.989C125.529 288.695 126.101 289.267 126.806 289.267Z" fill="#36363E"/>
<path d="M141.207 289.267C141.913 289.267 142.485 288.695 142.485 287.989C142.485 287.283 141.913 286.711 141.207 286.711C140.501 286.711 139.929 287.283 139.929 287.989C139.929 288.695 140.501 289.267 141.207 289.267Z" fill="#36363E"/>
<path d="M155.607 289.267C156.312 289.267 156.884 288.695 156.884 287.989C156.884 287.283 156.312 286.711 155.607 286.711C154.901 286.711 154.329 287.283 154.329 287.989C154.329 288.695 154.9 289.267 155.607 289.267Z" fill="#36363E"/>
<path d="M170.006 289.267C170.712 289.267 171.284 288.695 171.284 287.989C171.284 287.283 170.712 286.711 170.006 286.711C169.301 286.711 168.729 287.283 168.729 287.989C168.729 288.695 169.301 289.267 170.006 289.267Z" fill="#36363E"/>
<path d="M184.406 289.267C185.111 289.267 185.683 288.695 185.683 287.989C185.683 287.283 185.111 286.711 184.406 286.711C183.7 286.711 183.128 287.283 183.128 287.989C183.128 288.695 183.7 289.267 184.406 289.267Z" fill="#36363E"/>
<path d="M198.806 289.267C199.512 289.267 200.084 288.695 200.084 287.989C200.084 287.283 199.512 286.711 198.806 286.711C198.101 286.711 197.529 287.283 197.529 287.989C197.529 288.695 198.101 289.267 198.806 289.267Z" fill="#36363E"/>
<path d="M213.207 289.267C213.913 289.267 214.485 288.695 214.485 287.989C214.485 287.283 213.913 286.711 213.207 286.711C212.501 286.711 211.929 287.283 211.929 287.989C211.929 288.695 212.501 289.267 213.207 289.267Z" fill="#36363E"/>
<path d="M227.607 289.267C228.312 289.267 228.884 288.695 228.884 287.989C228.884 287.283 228.312 286.711 227.607 286.711C226.901 286.711 226.329 287.283 226.329 287.989C226.329 288.695 226.9 289.267 227.607 289.267Z" fill="#36363E"/>
<path d="M242.006 289.267C242.712 289.267 243.284 288.695 243.284 287.989C243.284 287.283 242.712 286.711 242.006 286.711C241.301 286.711 240.729 287.283 240.729 287.989C240.729 288.695 241.301 289.267 242.006 289.267Z" fill="#36363E"/>
<path d="M256.406 289.267C257.111 289.267 257.683 288.695 257.683 287.989C257.683 287.283 257.111 286.711 256.406 286.711C255.7 286.711 255.128 287.283 255.128 287.989C255.128 288.695 255.7 289.267 256.406 289.267Z" fill="#36363E"/>
<path d="M270.806 289.267C271.512 289.267 272.084 288.695 272.084 287.989C272.084 287.283 271.512 286.711 270.806 286.711C270.101 286.711 269.529 287.283 269.529 287.989C269.529 288.695 270.101 289.267 270.806 289.267Z" fill="#36363E"/>
<path d="M285.207 289.267C285.913 289.267 286.485 288.695 286.485 287.989C286.485 287.283 285.913 286.711 285.207 286.711C284.501 286.711 283.929 287.283 283.929 287.989C283.929 288.695 284.501 289.267 285.207 289.267Z" fill="#36363E"/>
</g>
</g>
<defs>
<clipPath id="clip0_335_1263">
<rect width="288.001" height="288" fill="white"/>
</clipPath>
</defs>
</svg>
