<svg viewBox="0 0 25 24" fill="none" xmlns="http://www.w3.org/2000/svg">
<path d="M17.5 3.33989C19.0202 4.21758 20.2826 5.47997 21.1603 7.00017C22.038 8.52038 22.5 10.2448 22.5 12.0002C22.5 13.7556 22.0379 15.48 21.1602 17.0002C20.2825 18.5204 19.0201 19.7828 17.4999 20.6605C15.9797 21.5381 14.2552 22.0002 12.4998 22.0001C10.7445 22.0001 9.02002 21.538 7.49984 20.6603C5.97965 19.7826 4.71729 18.5202 3.83963 17C2.96198 15.4797 2.49996 13.7553 2.5 11.9999L2.505 11.6759C2.561 9.94888 3.06355 8.26585 3.96364 6.79089C4.86373 5.31592 6.13065 4.09934 7.64089 3.25977C9.15113 2.42021 10.8531 1.98629 12.581 2.00033C14.3089 2.01437 16.0036 2.47589 17.5 3.33989ZM13.5 5.99989C13.2348 5.99989 12.9804 6.10525 12.7929 6.29279C12.6054 6.48032 12.5 6.73468 12.5 6.99989H11.5C11.5 6.73468 11.3946 6.48032 11.2071 6.29279C11.0196 6.10525 10.7652 5.99989 10.5 5.99989C10.2348 5.99989 9.98043 6.10525 9.79289 6.29279C9.60536 6.48032 9.5 6.73468 9.5 6.99989C9.23478 6.99989 8.98043 7.10525 8.79289 7.29279C8.60536 7.48032 8.5 7.73468 8.5 7.99989C8.5 8.26511 8.60536 8.51946 8.79289 8.707C8.98043 8.89454 9.23478 8.99989 9.5 8.99989V14.9999C9.23478 14.9999 8.98043 15.1052 8.79289 15.2928C8.60536 15.4803 8.5 15.7347 8.5 15.9999C8.5 16.2651 8.60536 16.5195 8.79289 16.707C8.98043 16.8945 9.23478 16.9999 9.5 16.9999C9.5 18.3329 11.5 18.3329 11.5 16.9999H12.5C12.5 17.2651 12.6054 17.5195 12.7929 17.707C12.9804 17.8945 13.2348 17.9999 13.5 17.9999C13.7652 17.9999 14.0196 17.8945 14.2071 17.707C14.3946 17.5195 14.5 17.2651 14.5 16.9999V16.8499C15.667 16.4559 16.5 15.3229 16.5 13.9999L16.495 13.8249C16.4581 13.1517 16.2001 12.5095 15.761 11.9979C16.221 11.4659 16.5 10.7649 16.5 9.99989C16.5 8.67689 15.667 7.54389 14.5 7.14989V6.99989C14.5 6.73468 14.3946 6.48032 14.2071 6.29279C14.0196 6.10525 13.7652 5.99989 13.5 5.99989ZM13.59 12.9999C14.082 12.9999 14.5 13.4369 14.5 13.9999C14.5 14.5629 14.082 14.9999 13.59 14.9999H11.5V12.9999H13.59ZM13.59 8.99989C14.082 8.99989 14.5 9.43689 14.5 9.99989C14.5 10.5219 14.14 10.9369 13.694 10.9929L13.59 10.9999H11.5V8.99989H13.59Z" fill="#FBA544"/>
</svg>
