<svg width="16" height="16" viewBox="0 0 16 16" fill="none" xmlns="http://www.w3.org/2000/svg">
<path d="M11.0005 2.66699C12.2889 2.66717 13.3333 3.71159 13.3335 5C13.3335 5.00773 13.3338 5.01577 13.3335 5.02344C14.1306 5.4845 14.6665 6.34689 14.6665 7.33398V10.667C14.6665 12.1396 13.4731 13.3338 12.0005 13.334H3.3335C2.22904 13.334 1.33367 12.4384 1.3335 11.334V4.33398C1.3335 3.41435 2.0782 2.66699 2.99951 2.66699H11.0005ZM11.0005 8C10.4482 8 10.0005 8.44772 10.0005 9C10.0005 9.55228 10.4482 10 11.0005 10C11.5525 9.99974 12.0005 9.55212 12.0005 9C12.0005 8.44788 11.5525 8.00026 11.0005 8ZM2.99951 4C2.81625 4 2.6665 4.14905 2.6665 4.33398C2.66668 4.51793 2.8165 4.66699 3.00049 4.66699H11.9429C11.8056 4.27876 11.4357 4.00014 11.0005 4H2.99951Z" fill="#8CD9B6"/>
</svg>
