<svg width="20" height="20" viewBox="0 0 20 20" fill="none" xmlns="http://www.w3.org/2000/svg">
<g clip-path="url(#clip0_1_15984)">
<path d="M15.0072 16.6647C15.9277 16.6647 16.6739 15.9185 16.6739 14.9981C16.6739 14.0776 15.9277 13.3314 15.0072 13.3314C14.0868 13.3314 13.3406 14.0776 13.3406 14.9981C13.3406 15.9185 14.0868 16.6647 15.0072 16.6647Z" fill="white"/>
<path d="M10.0073 13.3314C11.388 13.3314 12.5073 12.2121 12.5073 10.8314C12.5073 9.45068 11.388 8.33139 10.0073 8.33139C8.62661 8.33139 7.50732 9.45068 7.50732 10.8314C7.50732 12.2121 8.62661 13.3314 10.0073 13.3314Z" fill="white"/>
<path d="M2.5 14.0814C2.5 15.9678 4.03021 17.4981 5.91667 17.4981H10V15.8314L5.82292 15.821C4.90625 15.821 4.16667 14.9678 4.16667 13.9564V12.0814H2.5V14.0814Z" fill="white"/>
<path d="M17.4999 7.58137C17.4999 5.69491 15.9697 4.1647 14.0833 4.1647H12.0833L14.1666 5.83137C15.0833 5.83137 15.8333 6.69491 15.8333 7.70637V10.8314H17.4999V7.58137Z" fill="white"/>
<path d="M11.6667 2.49805H8.33333L7.08333 4.16471H5.91667C4.03021 4.16471 2.5 5.69492 2.5 7.58138V9.58138H4.16667V7.70638C4.16667 6.69492 4.91667 5.83138 5.83333 5.83138H14.1667L11.6667 2.49805Z" fill="white"/>
</g>
<defs>
<clipPath id="clip0_1_15984">
<rect width="20" height="20" fill="white" transform="translate(0 -0.00195312)"/>
</clipPath>
</defs>
</svg>
