<svg width="20" height="20" viewBox="0 0 20 20" fill="none" xmlns="http://www.w3.org/2000/svg">
<path d="M2.5 7.50083V6.001C2.5 5.06758 2.5 4.60052 2.68166 4.244C2.84144 3.93039 3.09623 3.67561 3.40983 3.51583C3.76635 3.33417 4.23341 3.33417 5.16683 3.33417H13.1668C14.1003 3.33417 14.5668 3.33417 14.9233 3.51583C15.2368 3.67561 15.4921 3.93039 15.6518 4.244C15.8333 4.60017 15.8333 5.06666 15.8333 5.99826V7.501L2.5 7.50083ZM2.5 7.50083V14.001C2.5 14.9344 2.5 15.4009 2.68166 15.7574C2.84144 16.071 3.09623 16.3263 3.40983 16.486C3.766 16.6675 4.23249 16.6675 5.16409 16.6675H9.16683M15.8759 16.8737L17.9426 14.8071M15.875 10.625V16.875M11.6833 12.6908L13.75 10.6242M13.7491 16.8729V10.6229" stroke="#DF74FF" stroke-width="1.2" stroke-linecap="round" stroke-linejoin="round"/>
</svg>
