<svg width="11" height="14" viewBox="0 0 11 14" fill="none" xmlns="http://www.w3.org/2000/svg">
<path d="M2.92857 5V3.66667C2.92857 2.19391 4.07984 1 5.5 1C6.92016 1 8.07143 2.19391 8.07143 3.66667V5M3.05714 13H7.94286C8.66292 13 9.02296 13 9.29799 12.8547C9.53991 12.7268 9.7366 12.5229 9.85987 12.272C10 11.9868 10 11.6134 10 10.8667V7.13333C10 6.3866 10 6.01323 9.85987 5.72801C9.7366 5.47713 9.53991 5.27316 9.29799 5.14532C9.02296 5 8.66292 5 7.94286 5H3.05714C2.33708 5 1.97704 5 1.70201 5.14532C1.46009 5.27316 1.2634 5.47713 1.14013 5.72801C1 6.01323 1 6.3866 1 7.13333V10.8667C1 11.6134 1 11.9868 1.14013 12.272C1.2634 12.5229 1.46009 12.7268 1.70201 12.8547C1.97704 13 2.33708 13 3.05714 13Z" stroke="#66B0FF" stroke-width="1.2" stroke-linecap="round"/>
</svg>
