<svg width="20" height="20" viewBox="0 0 20 20" fill="none" xmlns="http://www.w3.org/2000/svg">
<path d="M9.16667 3.33423H13.1668C14.1003 3.33423 14.5668 3.33423 14.9233 3.51589C15.2368 3.67567 15.4921 3.93045 15.6518 4.24406C15.8333 4.60023 15.8333 5.06672 15.8333 5.99832V7.50106L9.16675 7.50098M9.16667 3.33423H5.16683C4.23341 3.33423 3.76635 3.33423 3.40983 3.51589C3.09623 3.67567 2.84144 3.93045 2.68166 4.24406C2.5 4.60058 2.5 5.06764 2.5 6.00106V7.50089M9.16667 3.33423L9.16675 7.50098M9.16675 7.50098L2.5 7.50089M9.16675 7.50098L9.16683 16.6676H5.16409C4.23249 16.6676 3.766 16.6676 3.40983 16.4861C3.09623 16.3263 2.84144 16.0711 2.68166 15.7575C2.5 15.401 2.5 14.9345 2.5 14.0011V12.5009M2.5 7.50089V12.5009M2.5 12.5009H9.16667" stroke="#9191A4" stroke-width="1.2" stroke-linecap="round" stroke-linejoin="round"/>
<path fill-rule="evenodd" clip-rule="evenodd" d="M14.0646 10.9584C14.2034 10.7501 14.4372 10.625 14.6875 10.625C14.9378 10.625 15.1716 10.7501 15.3104 10.9584L15.4166 11.1177C15.5101 11.258 15.6807 11.3257 15.845 11.2878L15.9498 11.2636C16.2052 11.2047 16.4729 11.2815 16.6582 11.4668C16.8435 11.6521 16.9203 11.9198 16.8614 12.1752L16.8372 12.28C16.7993 12.4443 16.867 12.6149 17.0073 12.7084L17.1666 12.8146C17.3749 12.9534 17.5 13.1872 17.5 13.4375C17.5 13.6878 17.3749 13.9216 17.1666 14.0604L17.0073 14.1666C16.867 14.2601 16.7993 14.4307 16.8372 14.595L16.8614 14.6998C16.9203 14.9552 16.8435 15.2229 16.6582 15.4082C16.4729 15.5935 16.2052 15.6703 15.9498 15.6114L15.845 15.5872C15.6807 15.5493 15.5101 15.617 15.4166 15.7573L15.3104 15.9166C15.1716 16.1249 14.9378 16.25 14.6875 16.25C14.4372 16.25 14.2034 16.1249 14.0646 15.9166L13.9584 15.7573C13.8649 15.617 13.6943 15.5493 13.53 15.5872L13.4252 15.6114C13.1698 15.6703 12.9021 15.5935 12.7168 15.4082C12.5315 15.2229 12.4547 14.9552 12.5136 14.6998L12.5378 14.595C12.5757 14.4307 12.508 14.2601 12.3677 14.1666L12.2084 14.0604C12.0001 13.9216 11.875 13.6878 11.875 13.4375C11.875 13.1872 12.0001 12.9534 12.2084 12.8146L12.3677 12.7084C12.508 12.6149 12.5757 12.4443 12.5378 12.28L12.5136 12.1752C12.4547 11.9198 12.5315 11.6521 12.7168 11.4668C12.9021 11.2815 13.1698 11.2047 13.4252 11.2636L13.53 11.2878C13.6943 11.3257 13.8649 11.258 13.9584 11.1177L14.0646 10.9584ZM13.7031 13.4375C13.7031 12.8938 14.1438 12.4531 14.6875 12.4531C15.2312 12.4531 15.6719 12.8938 15.6719 13.4375C15.6719 13.9812 15.2312 14.4219 14.6875 14.4219C14.1438 14.4219 13.7031 13.9812 13.7031 13.4375Z" fill="#9191A4"/>
</svg>
