<svg width="12" height="14" viewBox="0 0 12 14" fill="none" xmlns="http://www.w3.org/2000/svg">
<path fill-rule="evenodd" clip-rule="evenodd" d="M5.99984 1.66634C5.4694 1.66634 4.9607 1.87705 4.58562 2.25213C4.21055 2.6272 3.99984 3.13591 3.99984 3.66634V5.66634L9.33317 5.66634C9.8636 5.66634 10.3723 5.87706 10.7474 6.25213C11.1225 6.6272 11.3332 7.13591 11.3332 7.66634V11.6663C11.3332 12.1968 11.1225 12.7055 10.7474 13.0806C10.3723 13.4556 9.8636 13.6663 9.33317 13.6663H2.6665C2.13607 13.6663 1.62736 13.4556 1.25229 13.0806C0.877218 12.7055 0.666504 12.1968 0.666504 11.6663V7.66634C0.666504 7.13591 0.877218 6.6272 1.25229 6.25213C1.62736 5.87706 2.13607 5.66634 2.6665 5.66634V3.66634C2.6665 2.78229 3.01769 1.93444 3.64281 1.30932C4.26794 0.684197 5.11578 0.333008 5.99984 0.333008C6.88389 0.333008 7.73174 0.684197 8.35686 1.30932C8.83551 1.78797 9.09967 2.39598 9.19719 3.05149C9.24724 3.38799 8.96658 3.66596 8.62638 3.66805C8.28322 3.67016 8.01247 3.38609 7.90706 3.0595C7.8096 2.75754 7.64123 2.47931 7.41405 2.25213C7.03898 1.87705 6.53027 1.66634 5.99984 1.66634ZM5.05703 8.72353C5.30708 8.47348 5.64621 8.33301 5.99984 8.33301C6.35346 8.33301 6.6926 8.47348 6.94265 8.72353C7.19269 8.97358 7.33317 9.31272 7.33317 9.66634C7.33317 10.02 7.1927 10.3591 6.94265 10.6092C6.6926 10.8592 6.35346 10.9997 5.99984 10.9997C5.64622 10.9997 5.30708 10.8592 5.05703 10.6092C4.80698 10.3591 4.6665 10.02 4.6665 9.66634C4.6665 9.31272 4.80698 8.97358 5.05703 8.72353Z" fill="#F65B93"/>
</svg>
