<svg width="160" height="160" viewBox="0 0 160 160" fill="none" xmlns="http://www.w3.org/2000/svg">
<ellipse opacity="0.1" cx="80" cy="155.198" rx="80" ry="4.8" fill="#9191A4"/>
<path fill-rule="evenodd" clip-rule="evenodd" d="M114.602 26.1809C115.98 24.3047 118.619 23.9011 120.495 25.2794C122.371 26.6577 122.775 29.296 121.396 31.1722L116.262 38.1608C114.884 40.037 112.246 40.4406 110.369 39.0623C108.493 37.684 108.09 35.0457 109.468 33.1695L114.602 26.1809ZM118.6 27.8583C118.148 27.5263 117.513 27.6235 117.181 28.0754L112.047 35.064C111.715 35.5159 111.812 36.1514 112.264 36.4834C112.716 36.8154 113.351 36.7182 113.683 36.2663L118.817 29.2777C119.149 28.8258 119.052 28.1903 118.6 27.8583ZM38.5851 67.5892C38.5851 47.0955 55.1985 30.4822 75.6922 30.4822C96.1858 30.4822 112.799 47.0955 112.799 67.5892C112.799 88.0828 96.1858 104.696 75.6922 104.696C55.1985 104.696 38.5851 88.0828 38.5851 67.5892ZM75.6922 27.2822C53.4312 27.2822 35.3851 45.3282 35.3851 67.5892C35.3851 89.8502 53.4312 107.896 75.6922 107.896C83.0102 107.896 89.8727 105.946 95.7884 102.537L101.02 107.769C100.871 109.992 101.646 112.266 103.345 113.966L119.489 130.109C122.613 133.233 127.678 133.233 130.802 130.109L134.283 126.628C137.407 123.504 137.407 118.439 134.283 115.314L118.14 99.171C116.44 97.4711 114.165 96.6961 111.941 96.8461L107.476 92.3805C112.817 85.543 115.999 76.9378 115.999 67.5892C115.999 45.3282 97.9531 27.2822 75.6922 27.2822ZM108.473 97.9031L105.4 94.8306C103.354 97.061 101.06 99.0602 98.5616 100.785L102.077 104.3C102.418 103.711 102.841 103.156 103.345 102.652L106.826 99.171C107.33 98.6671 107.884 98.2445 108.473 97.9031ZM94.1918 62.7448C94.9822 62.3497 95.3025 61.3886 94.9073 60.5982C94.5122 59.8079 93.5511 59.4875 92.7607 59.8827L80.2071 66.1595C79.665 66.4305 79.3226 66.9845 79.3226 67.5906C79.3226 68.1966 79.665 68.7506 80.2071 69.0217L92.7607 75.2985C93.5511 75.6937 94.5122 75.3733 94.9073 74.5829C95.3025 73.7926 94.9822 72.8315 94.1918 72.4363L84.5003 67.5906L94.1918 62.7448ZM56.4754 60.5982C56.0802 61.3886 56.4006 62.3497 57.191 62.7448L66.8824 67.5906L57.191 72.4363C56.4006 72.8315 56.0802 73.7926 56.4754 74.5829C56.8706 75.3733 57.8317 75.6937 58.622 75.2985L71.1757 69.0217C71.7177 68.7506 72.0601 68.1966 72.0601 67.5906C72.0601 66.9845 71.7177 66.4305 71.1757 66.1595L58.622 59.8827C57.8317 59.4875 56.8706 59.8079 56.4754 60.5982ZM49.0461 67.5888C49.0461 52.8728 60.9757 40.9431 75.6917 40.9431C90.4078 40.9431 102.337 52.8728 102.337 67.5888C102.337 82.3048 90.4078 94.2344 75.6917 94.2344C60.9757 94.2344 49.0461 82.3048 49.0461 67.5888ZM75.6917 37.7431C59.2084 37.7431 45.8461 51.1055 45.8461 67.5888C45.8461 84.0721 59.2084 97.4344 75.6917 97.4344C92.1751 97.4344 105.537 84.0721 105.537 67.5888C105.537 51.1055 92.1751 37.7431 75.6917 37.7431ZM132.371 41.6777C131.664 39.4598 129.292 38.2356 127.074 38.9433L118.813 41.5795C116.595 42.2872 115.371 44.6589 116.078 46.8768C116.786 49.0947 119.158 50.3189 121.376 49.6112L129.637 46.975C131.855 46.2673 133.079 43.8956 132.371 41.6777ZM128.047 41.9919C128.581 41.8214 129.152 42.1163 129.323 42.6505C129.493 43.1847 129.198 43.756 128.664 43.9264L120.403 46.5626C119.869 46.7331 119.297 46.4382 119.127 45.904C118.956 45.3698 119.251 44.7985 119.785 44.628L128.047 41.9919ZM24.4712 91.4013C22.2361 92.0526 20.9522 94.3925 21.6035 96.6276C22.2548 98.8627 24.5947 100.147 26.8298 99.4953L35.1553 97.0693C37.3904 96.418 38.6743 94.0781 38.023 91.843C37.3717 89.6078 35.0318 88.3239 32.7967 88.9752L24.4712 91.4013ZM24.6757 95.7324C24.5188 95.194 24.8281 94.6304 25.3665 94.4735L33.6919 92.0475C34.2303 91.8906 34.7939 92.1998 34.9508 92.7382C35.1076 93.2766 34.7984 93.8402 34.26 93.9971L25.9346 96.4231C25.3962 96.58 24.8326 96.2707 24.6757 95.7324ZM32.9352 113.408C31.0945 111.983 30.7578 109.335 32.1832 107.495L37.4927 100.638C38.9181 98.7976 41.5658 98.461 43.4065 99.8864C45.2471 101.312 45.5838 103.96 44.1584 105.8L38.849 112.656C37.4236 114.497 34.7759 114.834 32.9352 113.408ZM34.7133 109.454C34.37 109.897 34.4511 110.535 34.8944 110.878C35.3378 111.222 35.9755 111.141 36.3189 110.697L41.6283 103.841C41.9716 103.398 41.8906 102.76 41.4472 102.416C41.0038 102.073 40.3661 102.154 40.0228 102.598L34.7133 109.454Z" fill="#9191A4"/>
</svg>
