<svg width="120" height="120" viewBox="0 0 120 120" fill="none" xmlns="http://www.w3.org/2000/svg">
<ellipse opacity="0.1" cx="60" cy="116.397" rx="60" ry="3.6" fill="#9191A4"/>
<path fill-rule="evenodd" clip-rule="evenodd" d="M39.0607 85.9393C39.6464 86.5251 39.6464 87.4749 39.0607 88.0607L31.0607 96.0607C30.4749 96.6464 29.5251 96.6464 28.9393 96.0607C28.3536 95.4749 28.3536 94.5251 28.9393 93.9393L36.9393 85.9393C37.5251 85.3536 38.4749 85.3536 39.0607 85.9393Z" fill="#9191A4"/>
<path d="M99.569 23L71.644 54.7609L102.001 97.9997H79.6665L68.4399 82.0119C69.4281 80.2141 70.1301 78.2372 70.4842 76.1427L82.784 93.3586H92.949L46.1665 27.8809H36.004L55.0162 54.4923C54.0332 54.3329 53.0247 54.25 51.9969 54.25C51.0129 54.25 50.0465 54.326 49.1032 54.4724L27.0015 23H49.3365L68.6965 50.5719L92.954 23H99.569Z" fill="#9191A4"/>
<path fill-rule="evenodd" clip-rule="evenodd" d="M51.5 56.5C42.1112 56.5 34.5 64.1112 34.5 73.5C34.5 82.8888 42.1112 90.5 51.5 90.5C60.8888 90.5 68.5 82.8888 68.5 73.5C68.5 64.1112 60.8888 56.5 51.5 56.5ZM31.5 73.5C31.5 62.4543 40.4543 53.5 51.5 53.5C62.5457 53.5 71.5 62.4543 71.5 73.5C71.5 84.5457 62.5457 93.5 51.5 93.5C40.4543 93.5 31.5 84.5457 31.5 73.5Z" fill="#9191A4"/>
<path fill-rule="evenodd" clip-rule="evenodd" d="M28.8536 48.0549C28.4016 46.3683 26.6681 45.3674 24.9815 45.8193C23.295 46.2712 22.2941 48.0048 22.746 49.6914L24.4293 55.9735C24.8812 57.6601 26.6148 58.661 28.3013 58.2091C29.9879 57.7572 30.9888 56.0236 30.5369 54.337L28.8536 48.0549ZM25.581 62.4239C25.1291 60.7374 23.3955 59.7365 21.709 60.1884L15.4268 61.8717C13.7403 62.3236 12.7394 64.0572 13.1913 65.7437C13.6432 67.4303 15.3768 68.4312 17.0633 67.9793L23.3455 66.296C25.032 65.844 26.0329 64.1105 25.581 62.4239ZM25.603 48.1384C26.0093 48.0296 26.4268 48.2706 26.5357 48.6769L28.219 54.9591C28.3278 55.3653 28.0867 55.7829 27.6805 55.8917C27.2743 56.0006 26.8567 55.7595 26.7479 55.3532L25.0646 49.0711C24.9557 48.6648 25.1968 48.2473 25.603 48.1384ZM23.2625 63.0443C23.1536 62.6381 22.7361 62.397 22.3298 62.5059L16.0477 64.1891C15.6415 64.298 15.4004 64.7156 15.5092 65.1218C15.6181 65.528 16.0356 65.7691 16.4419 65.6603L22.724 63.977C23.1303 63.8681 23.3713 63.4506 23.2625 63.0443Z" fill="#9191A4"/>
<path fill-rule="evenodd" clip-rule="evenodd" d="M41.1205 67.415C40.4565 67.0229 39.6812 67.3636 39.3789 68.0779L39.3789 68.0779C39.083 68.7771 39.3098 69.6514 39.9434 70.0256L45.8282 73.5014L39.9434 76.9771C39.3098 77.3513 39.083 78.2256 39.3789 78.9249L39.6089 78.8275L39.3789 78.9249C39.6812 79.6391 40.4565 79.9798 41.1205 79.5877L49.2153 74.8067C49.6527 74.5483 49.9085 74.0369 49.9085 73.5014C49.9085 72.9658 49.6527 72.4544 49.2153 72.1961L41.1205 67.415ZM63.6211 68.0779C63.3187 67.3636 62.5435 67.0229 61.8795 67.415L53.7847 72.1961C53.3473 72.4544 53.0915 72.9658 53.0915 73.5014C53.0915 74.0369 53.3473 74.5483 53.7847 74.8067L61.8795 79.5877C62.5435 79.9798 63.3187 79.6391 63.6211 78.9249C63.917 78.2256 63.6902 77.3513 63.0566 76.9771L57.1718 73.5014L63.0566 70.0257C63.6902 69.6514 63.917 68.7771 63.6211 68.0779Z" fill="#9191A4"/>
</svg>
