<svg width="160" height="160" viewBox="0 0 160 160" fill="none" xmlns="http://www.w3.org/2000/svg">
<ellipse opacity="0.1" cx="80" cy="155.2" rx="80" ry="4.8" fill="#9191A4"/>
<path d="M45.0097 74.3168C46.4061 68.5611 54.5939 68.5611 55.9903 74.3168C56.1998 75.1815 56.6105 75.9845 57.189 76.6604C57.7675 77.3364 58.4974 77.8662 59.3194 78.2067C60.1413 78.5473 61.032 78.6889 61.9191 78.6201C62.8061 78.5514 63.6644 78.2741 64.424 77.8109C69.4816 74.7298 75.2734 80.5184 72.1923 85.5793C71.7298 86.3386 71.453 87.1963 71.3844 88.0828C71.3158 88.9692 71.4573 89.8593 71.7975 90.6807C72.1376 91.5022 72.6668 92.2318 73.3419 92.8102C74.0171 93.3887 74.8193 93.7996 75.6832 94.0097C81.4389 95.4061 81.4389 103.594 75.6832 104.99C74.8185 105.2 74.0155 105.61 73.3396 106.189C72.6636 106.767 72.1338 107.497 71.7933 108.319C71.4527 109.141 71.3111 110.032 71.3799 110.919C71.4486 111.806 71.7259 112.664 72.1891 113.424C75.2702 118.482 69.4816 124.273 64.4207 121.192C63.6614 120.73 62.8037 120.453 61.9172 120.384C61.0308 120.316 60.1407 120.457 59.3193 120.797C58.4978 121.138 57.7682 121.667 57.1898 122.342C56.6113 123.017 56.2004 123.819 55.9903 124.683C54.5939 130.439 46.4061 130.439 45.0097 124.683C44.8002 123.818 44.3895 123.015 43.811 122.34C43.2325 121.664 42.5026 121.134 41.6806 120.793C40.8587 120.453 39.968 120.311 39.0809 120.38C38.1939 120.449 37.3356 120.726 36.576 121.189C31.5184 124.27 25.7266 118.482 28.8077 113.421C29.2702 112.661 29.547 111.804 29.6156 110.917C29.6842 110.031 29.5427 109.141 29.2025 108.319C28.8624 107.498 28.3332 106.768 27.6581 106.19C26.9829 105.611 26.1807 105.2 25.3168 104.99C19.5611 103.594 19.5611 95.4061 25.3168 94.0097C26.1815 93.8002 26.9845 93.3895 27.6604 92.811C28.3364 92.2325 28.8662 91.5026 29.2067 90.6806C29.5473 89.8587 29.6889 88.968 29.6201 88.0809C29.5514 87.1939 29.2741 86.3356 28.8109 85.576C25.7298 80.5184 31.5184 74.7266 36.5793 77.8077C39.8571 79.8006 44.1051 78.0371 45.0097 74.3168Z" stroke="#9191A4" stroke-width="4" stroke-linecap="round" stroke-linejoin="round"/>
<path fill-rule="evenodd" clip-rule="evenodd" d="M49.875 29C46.0349 29 42.2951 30.2706 39.4892 32.6134C36.6727 34.965 35 38.2401 35 41.75V77.1268C35.5271 77.2663 36.0571 77.4897 36.5793 77.8077C37.3512 78.277 38.1768 78.538 39 78.6142V50.4584C39.159 50.6043 39.322 50.7471 39.4892 50.8866C42.2951 53.2294 46.0349 54.5 49.875 54.5H127.125C128.407 54.5 129.579 54.9283 130.395 55.6095C131.2 56.2819 131.562 57.1083 131.562 57.875V72H114.25C110.41 72 106.67 73.2706 103.864 75.6134C101.048 77.965 99.375 81.2401 99.375 84.75C99.375 88.2599 101.048 91.535 103.864 93.8866C106.67 96.2294 110.41 97.5 114.25 97.5H131.562V111.625C131.562 112.392 131.2 113.218 130.395 113.89C129.579 114.572 128.407 115 127.125 115H72.8694C73.2469 116.422 73.0131 117.825 72.3753 119H127.125C129.258 119 131.36 118.296 132.959 116.961C134.568 115.617 135.562 113.709 135.562 111.625V97.5H140C141.105 97.5 142 96.6046 142 95.5V74C142 72.8954 141.105 72 140 72H135.562V57.875C135.562 55.7906 134.568 53.8827 132.959 52.5391C131.36 51.2043 129.258 50.5 127.125 50.5H122.688V36.375C122.688 34.2906 121.693 32.3827 120.084 31.0391C118.485 29.7043 116.383 29 114.25 29H49.875ZM49.875 50.5H118.688V36.375C118.688 35.6083 118.325 34.7819 117.52 34.1095C116.704 33.4283 115.532 33 114.25 33H49.875C46.8858 33 44.076 33.9946 42.0528 35.6838C40.0402 37.3642 39 39.5578 39 41.75C39 43.9422 40.0402 46.1358 42.0528 47.8162C44.076 49.5054 46.8858 50.5 49.875 50.5ZM106.428 78.6838C108.451 76.9946 111.261 76 114.25 76H138V93.5H114.25C111.261 93.5 108.451 92.5054 106.428 90.8162C104.415 89.1358 103.375 86.9422 103.375 84.75C103.375 82.5578 104.415 80.3642 106.428 78.6838Z" fill="#9191A4"/>
<path fill-rule="evenodd" clip-rule="evenodd" d="M50.5 114C58.5081 114 65 107.508 65 99.5C65 91.4919 58.5081 85 50.5 85C42.4919 85 36 91.4919 36 99.5C36 107.508 42.4919 114 50.5 114ZM52.4867 94.0455C52.4867 92.9158 51.5943 92 50.4934 92C49.3925 92 48.5 92.9158 48.5 94.0455V99.5C48.5 100.63 49.3925 101.545 50.4934 101.545C51.5943 101.545 52.4867 100.63 52.4867 99.5V94.0455ZM50.4934 102.909C49.3925 102.909 48.5 103.825 48.5 104.955C48.5 106.084 49.3925 107 50.4934 107H50.5066C51.6075 107 52.5 106.084 52.5 104.955C52.5 103.825 51.6075 102.909 50.5066 102.909H50.4934Z" fill="#9191A4"/>
<path fill-rule="evenodd" clip-rule="evenodd" d="M41.3602 18.0585C42.0229 18.067 42.5532 18.6111 42.5447 19.2738C42.5362 19.9365 41.9921 20.4668 41.3294 20.4583L40.9294 20.4531C32.0936 20.3398 24.8388 27.4107 24.7254 36.2465L24.6782 39.9262C24.6703 40.5447 24.1624 41.0397 23.5439 41.0318C22.9254 41.0238 22.4304 40.516 22.4384 39.8975L22.4856 36.2178C22.6219 25.5977 30.3742 17.9175 40.9602 18.0533L41.3602 18.0585ZM45.7444 19.3148C45.7756 16.885 43.8311 14.8899 41.4012 14.8587L41.0013 14.8536C28.6141 14.6946 19.4444 23.8236 19.2859 36.1767L19.2386 39.8564C19.208 42.2421 21.1172 44.2009 23.5029 44.2315C25.8885 44.2621 27.8473 42.353 27.8779 39.9673L27.9252 36.2876C28.0159 29.2189 33.8197 23.5622 40.8883 23.6529L41.2883 23.658C43.7182 23.6892 45.7132 21.7447 45.7444 19.3148Z" fill="#9191A4"/>
</svg>
